%TF.GenerationSoftware,KiCad,Pcbnew,9.0.7*%
%TF.CreationDate,2026-02-05T12:24:06-05:00*%
%TF.ProjectId,Avionics-Deployables,4176696f-6e69-4637-932d-4465706c6f79,rev?*%
%TF.SameCoordinates,Original*%
%TF.FileFunction,Soldermask,Top*%
%TF.FilePolarity,Negative*%
%FSLAX46Y46*%
G04 Gerber Fmt 4.6, Leading zero omitted, Abs format (unit mm)*
G04 Created by KiCad (PCBNEW 9.0.7) date 2026-02-05 12:24:06*
%MOMM*%
%LPD*%
G01*
G04 APERTURE LIST*
G04 Aperture macros list*
%AMRoundRect*
0 Rectangle with rounded corners*
0 $1 Rounding radius*
0 $2 $3 $4 $5 $6 $7 $8 $9 X,Y pos of 4 corners*
0 Add a 4 corners polygon primitive as box body*
4,1,4,$2,$3,$4,$5,$6,$7,$8,$9,$2,$3,0*
0 Add four circle primitives for the rounded corners*
1,1,$1+$1,$2,$3*
1,1,$1+$1,$4,$5*
1,1,$1+$1,$6,$7*
1,1,$1+$1,$8,$9*
0 Add four rect primitives between the rounded corners*
20,1,$1+$1,$2,$3,$4,$5,0*
20,1,$1+$1,$4,$5,$6,$7,0*
20,1,$1+$1,$6,$7,$8,$9,0*
20,1,$1+$1,$8,$9,$2,$3,0*%
G04 Aperture macros list end*
%ADD10RoundRect,0.250000X-0.500000X0.950000X-0.500000X-0.950000X0.500000X-0.950000X0.500000X0.950000X0*%
%ADD11RoundRect,0.250000X-0.500000X0.275000X-0.500000X-0.275000X0.500000X-0.275000X0.500000X0.275000X0*%
%ADD12C,1.000000*%
%ADD13C,3.200000*%
G04 APERTURE END LIST*
D10*
%TO.C,D2*%
X109600000Y-113475400D03*
D11*
X109600000Y-111100400D03*
%TD*%
D12*
%TO.C,H19*%
X183600000Y-91625400D03*
%TD*%
D10*
%TO.C,D4*%
X183600000Y-71475400D03*
D11*
X183600000Y-69100400D03*
%TD*%
D12*
%TO.C,H1*%
X109600000Y-84625400D03*
%TD*%
%TO.C,H20*%
X109600000Y-91625400D03*
%TD*%
%TO.C,H2*%
X183600000Y-84625400D03*
%TD*%
%TO.C,H3*%
X109600000Y-56625400D03*
%TD*%
D13*
%TO.C,SC4*%
X169600000Y-84625400D03*
X169600000Y-88625400D03*
X169600000Y-52625400D03*
X169600000Y-56625400D03*
%TD*%
D12*
%TO.C,H7*%
X183600000Y-98625400D03*
%TD*%
%TO.C,H4*%
X109600000Y-98625400D03*
%TD*%
D13*
%TO.C,SC1*%
X123600000Y-84625400D03*
X123600000Y-88625400D03*
X123600000Y-52625400D03*
X123600000Y-56625400D03*
%TD*%
D12*
%TO.C,H6*%
X183600000Y-56625400D03*
%TD*%
D10*
%TO.C,D1*%
X109600000Y-71475400D03*
D11*
X109600000Y-69100400D03*
%TD*%
D13*
%TO.C,SC5*%
X169600000Y-126625400D03*
X169600000Y-130625400D03*
X169600000Y-94625400D03*
X169600000Y-98625400D03*
%TD*%
D12*
%TO.C,H8*%
X183600000Y-126625400D03*
%TD*%
D10*
%TO.C,D5*%
X183600000Y-113475400D03*
D11*
X183600000Y-111100400D03*
%TD*%
D13*
%TO.C,SC3*%
X146600000Y-89125400D03*
X146600000Y-85125400D03*
X146600000Y-121125400D03*
X146600000Y-117125400D03*
%TD*%
%TO.C,SC2*%
X123600000Y-126625400D03*
X123600000Y-130625400D03*
X123600000Y-94625400D03*
X123600000Y-98625400D03*
%TD*%
D12*
%TO.C,H5*%
X109600000Y-126625400D03*
%TD*%
D10*
%TO.C,D3*%
X136800001Y-78875000D03*
D11*
X136800001Y-76500000D03*
%TD*%
M02*
