%TF.GenerationSoftware,KiCad,Pcbnew,9.0.7*%
%TF.CreationDate,2026-02-05T12:15:23-05:00*%
%TF.ProjectId,Avionics-BatteryBoard,4176696f-6e69-4637-932d-426174746572,rev?*%
%TF.SameCoordinates,Original*%
%TF.FileFunction,Paste,Bot*%
%TF.FilePolarity,Positive*%
%FSLAX46Y46*%
G04 Gerber Fmt 4.6, Leading zero omitted, Abs format (unit mm)*
G04 Created by KiCad (PCBNEW 9.0.7) date 2026-02-05 12:15:23*
%MOMM*%
%LPD*%
G01*
G04 APERTURE LIST*
G04 Aperture macros list*
%AMRoundRect*
0 Rectangle with rounded corners*
0 $1 Rounding radius*
0 $2 $3 $4 $5 $6 $7 $8 $9 X,Y pos of 4 corners*
0 Add a 4 corners polygon primitive as box body*
4,1,4,$2,$3,$4,$5,$6,$7,$8,$9,$2,$3,0*
0 Add four circle primitives for the rounded corners*
1,1,$1+$1,$2,$3*
1,1,$1+$1,$4,$5*
1,1,$1+$1,$6,$7*
1,1,$1+$1,$8,$9*
0 Add four rect primitives between the rounded corners*
20,1,$1+$1,$2,$3,$4,$5,0*
20,1,$1+$1,$4,$5,$6,$7,0*
20,1,$1+$1,$6,$7,$8,$9,0*
20,1,$1+$1,$8,$9,$2,$3,0*%
G04 Aperture macros list end*
%ADD10RoundRect,0.225000X0.225000X0.250000X-0.225000X0.250000X-0.225000X-0.250000X0.225000X-0.250000X0*%
%ADD11R,1.219200X0.355600*%
%ADD12RoundRect,0.200000X0.275000X-0.200000X0.275000X0.200000X-0.275000X0.200000X-0.275000X-0.200000X0*%
%ADD13R,1.270000X0.610000*%
%ADD14R,3.810000X3.910000*%
%ADD15R,1.020000X0.610000*%
%ADD16RoundRect,0.100000X-0.100000X0.225000X-0.100000X-0.225000X0.100000X-0.225000X0.100000X0.225000X0*%
%ADD17RoundRect,0.225000X0.250000X-0.225000X0.250000X0.225000X-0.250000X0.225000X-0.250000X-0.225000X0*%
%ADD18R,0.610000X1.270000*%
%ADD19R,3.910000X3.810000*%
%ADD20R,0.610000X1.020000*%
%ADD21RoundRect,0.250000X0.362500X1.425000X-0.362500X1.425000X-0.362500X-1.425000X0.362500X-1.425000X0*%
%ADD22RoundRect,0.225000X-0.225000X-0.250000X0.225000X-0.250000X0.225000X0.250000X-0.225000X0.250000X0*%
%ADD23RoundRect,0.150000X-0.150000X0.512500X-0.150000X-0.512500X0.150000X-0.512500X0.150000X0.512500X0*%
%ADD24RoundRect,0.200000X0.200000X0.275000X-0.200000X0.275000X-0.200000X-0.275000X0.200000X-0.275000X0*%
%ADD25RoundRect,0.250000X-0.475000X0.250000X-0.475000X-0.250000X0.475000X-0.250000X0.475000X0.250000X0*%
%ADD26R,2.510000X1.000000*%
%ADD27RoundRect,0.218750X-0.256250X0.218750X-0.256250X-0.218750X0.256250X-0.218750X0.256250X0.218750X0*%
%ADD28RoundRect,0.200000X-0.275000X0.200000X-0.275000X-0.200000X0.275000X-0.200000X0.275000X0.200000X0*%
%ADD29RoundRect,0.250000X0.625000X-0.375000X0.625000X0.375000X-0.625000X0.375000X-0.625000X-0.375000X0*%
%ADD30RoundRect,0.200000X-0.200000X-0.275000X0.200000X-0.275000X0.200000X0.275000X-0.200000X0.275000X0*%
%ADD31RoundRect,0.100000X0.100000X-0.225000X0.100000X0.225000X-0.100000X0.225000X-0.100000X-0.225000X0*%
%ADD32RoundRect,0.225000X-0.250000X0.225000X-0.250000X-0.225000X0.250000X-0.225000X0.250000X0.225000X0*%
%ADD33RoundRect,0.150000X-0.587500X-0.150000X0.587500X-0.150000X0.587500X0.150000X-0.587500X0.150000X0*%
%ADD34R,1.900000X0.600000*%
%ADD35R,2.800000X2.100000*%
%ADD36RoundRect,0.250000X-0.625000X0.375000X-0.625000X-0.375000X0.625000X-0.375000X0.625000X0.375000X0*%
%ADD37RoundRect,0.250000X-0.375000X-0.625000X0.375000X-0.625000X0.375000X0.625000X-0.375000X0.625000X0*%
%ADD38RoundRect,0.250000X-0.475000X0.300000X-0.475000X-0.300000X0.475000X-0.300000X0.475000X0.300000X0*%
%ADD39RoundRect,0.250000X-1.200000X0.425000X-1.200000X-0.425000X1.200000X-0.425000X1.200000X0.425000X0*%
%ADD40RoundRect,0.150000X-0.512500X-0.150000X0.512500X-0.150000X0.512500X0.150000X-0.512500X0.150000X0*%
%ADD41RoundRect,0.250000X0.650000X-1.000000X0.650000X1.000000X-0.650000X1.000000X-0.650000X-1.000000X0*%
%ADD42RoundRect,0.250000X-0.250000X-0.250000X0.250000X-0.250000X0.250000X0.250000X-0.250000X0.250000X0*%
%ADD43RoundRect,0.150000X0.150000X-0.512500X0.150000X0.512500X-0.150000X0.512500X-0.150000X-0.512500X0*%
%ADD44R,7.460000X6.470000*%
%ADD45RoundRect,0.180000X0.180000X0.295000X-0.180000X0.295000X-0.180000X-0.295000X0.180000X-0.295000X0*%
%ADD46RoundRect,0.050000X0.337500X0.050000X-0.337500X0.050000X-0.337500X-0.050000X0.337500X-0.050000X0*%
%ADD47RoundRect,0.250000X0.375000X0.625000X-0.375000X0.625000X-0.375000X-0.625000X0.375000X-0.625000X0*%
%ADD48RoundRect,0.250000X1.425000X-0.362500X1.425000X0.362500X-1.425000X0.362500X-1.425000X-0.362500X0*%
%ADD49RoundRect,0.250000X0.250000X0.250000X-0.250000X0.250000X-0.250000X-0.250000X0.250000X-0.250000X0*%
G04 APERTURE END LIST*
D10*
%TO.C,C11*%
X174173800Y-81000600D03*
X172623800Y-81000600D03*
%TD*%
D11*
%TO.C,U1*%
X139750800Y-94442799D03*
X139750800Y-93792801D03*
X139750800Y-93142799D03*
X139750800Y-92492801D03*
X145846800Y-92492801D03*
X145846800Y-93142799D03*
X145846800Y-93792801D03*
X145846800Y-94442799D03*
%TD*%
D12*
%TO.C,R8*%
X139446000Y-112377600D03*
X139446000Y-110727600D03*
%TD*%
D13*
%TO.C,Q5*%
X127714200Y-105202600D03*
X127714200Y-106472600D03*
X127714200Y-107742600D03*
X127714200Y-109012600D03*
D14*
X124354200Y-107107600D03*
D15*
X122249200Y-109012600D03*
X122249200Y-107742600D03*
X122249200Y-106472600D03*
X122249200Y-105202600D03*
%TD*%
D16*
%TO.C,Q11*%
X144866600Y-79796599D03*
X145516600Y-79796599D03*
X146166600Y-79796599D03*
X146166600Y-81696599D03*
X145516600Y-81696599D03*
X144866600Y-81696599D03*
%TD*%
D17*
%TO.C,C1*%
X137972800Y-92210800D03*
X137972800Y-90660800D03*
%TD*%
D18*
%TO.C,Q10*%
X150286301Y-99929600D03*
X151556301Y-99929600D03*
X152826301Y-99929600D03*
X154096301Y-99929600D03*
D19*
X152191301Y-103289600D03*
D20*
X154096301Y-105394600D03*
X152826301Y-105394600D03*
X151556301Y-105394600D03*
X150286301Y-105394600D03*
%TD*%
D13*
%TO.C,Q1*%
X141856801Y-105193200D03*
X141856800Y-106463200D03*
X141856800Y-107733200D03*
X141856801Y-109003200D03*
D14*
X138496800Y-107098200D03*
D15*
X136391800Y-109003200D03*
X136391800Y-107733200D03*
X136391800Y-106463200D03*
X136391800Y-105193200D03*
%TD*%
D21*
%TO.C,R36*%
X154346500Y-126542800D03*
X148421500Y-126542800D03*
%TD*%
D22*
%TO.C,C13*%
X147649400Y-86456601D03*
X149199400Y-86456601D03*
%TD*%
D23*
%TO.C,U3*%
X159116402Y-103389500D03*
X160066402Y-103389500D03*
X161016402Y-103389500D03*
X161016402Y-105664500D03*
X160066402Y-105664500D03*
X159116402Y-105664500D03*
%TD*%
D24*
%TO.C,R51*%
X154825200Y-84759800D03*
X153175200Y-84759800D03*
%TD*%
D21*
%TO.C,R34*%
X121326500Y-126542800D03*
X115401500Y-126542800D03*
%TD*%
D12*
%TO.C,R9*%
X143482400Y-109202600D03*
X143482400Y-107552600D03*
%TD*%
D25*
%TO.C,C14*%
X110100000Y-92350000D03*
X110100000Y-94250000D03*
%TD*%
D26*
%TO.C,J5*%
X158212600Y-91338400D03*
X161522600Y-88798400D03*
X158212600Y-86258400D03*
X161522600Y-83718400D03*
X158212600Y-81178400D03*
%TD*%
D12*
%TO.C,R24*%
X123825000Y-112377600D03*
X123825000Y-110727600D03*
%TD*%
%TO.C,R59*%
X137566400Y-86397598D03*
X137566400Y-84747598D03*
%TD*%
D27*
%TO.C,D3*%
X134924800Y-110765100D03*
X134924800Y-112340100D03*
%TD*%
D12*
%TO.C,R10*%
X136398000Y-112377600D03*
X136398000Y-110727600D03*
%TD*%
D28*
%TO.C,R40*%
X112369600Y-104737400D03*
X112369600Y-106387400D03*
%TD*%
D29*
%TO.C,F6*%
X181889400Y-121567400D03*
X181889400Y-118767400D03*
%TD*%
D28*
%TO.C,R54*%
X149174200Y-79916601D03*
X149174200Y-81566601D03*
%TD*%
D24*
%TO.C,R1*%
X138035800Y-95245800D03*
X136385800Y-95245800D03*
%TD*%
%TO.C,R48*%
X165798000Y-88798400D03*
X164148000Y-88798400D03*
%TD*%
D30*
%TO.C,R60*%
X144564600Y-83159599D03*
X146214600Y-83159599D03*
%TD*%
D31*
%TO.C,Q13*%
X141899400Y-86522599D03*
X141249400Y-86522599D03*
X140599400Y-86522599D03*
X140599400Y-84622599D03*
X141249400Y-84622599D03*
X141899400Y-84622599D03*
%TD*%
D32*
%TO.C,TH1*%
X164592000Y-125770340D03*
X164592000Y-127320340D03*
%TD*%
D28*
%TO.C,R65*%
X143383000Y-84747599D03*
X143383000Y-86397599D03*
%TD*%
D33*
%TO.C,Q4*%
X127205500Y-99294600D03*
X127205500Y-97394600D03*
X129080500Y-98344600D03*
%TD*%
D34*
%TO.C,J9*%
X104944640Y-101337490D03*
X104944640Y-100337490D03*
X104944640Y-99337490D03*
X104944640Y-98337490D03*
X104944640Y-97337491D03*
X104944640Y-96337491D03*
X104944640Y-95337490D03*
X104944640Y-94337490D03*
X104944640Y-93337490D03*
X104944640Y-92337490D03*
D35*
X102594640Y-104487490D03*
X102594640Y-89187510D03*
%TD*%
D29*
%TO.C,F8*%
X156128301Y-112556399D03*
X156128301Y-109756399D03*
%TD*%
D24*
%TO.C,R63*%
X149249400Y-84678601D03*
X147599400Y-84678601D03*
%TD*%
D10*
%TO.C,C12*%
X139103401Y-79857599D03*
X137553401Y-79857599D03*
%TD*%
D12*
%TO.C,R27*%
X122199400Y-112377600D03*
X122199400Y-110727600D03*
%TD*%
%TO.C,R12*%
X125298200Y-99169600D03*
X125298200Y-97519600D03*
%TD*%
D10*
%TO.C,C2*%
X141033800Y-90673800D03*
X139483800Y-90673800D03*
%TD*%
D12*
%TO.C,R11*%
X123825000Y-99169600D03*
X123825000Y-97519600D03*
%TD*%
D28*
%TO.C,R45*%
X168797300Y-82405000D03*
X168797300Y-84055000D03*
%TD*%
D21*
%TO.C,R23*%
X165268500Y-67129660D03*
X159343500Y-67129660D03*
%TD*%
D12*
%TO.C,R25*%
X125298200Y-112377600D03*
X125298200Y-110727600D03*
%TD*%
D31*
%TO.C,Q12*%
X141899400Y-81696598D03*
X141249400Y-81696598D03*
X140599400Y-81696598D03*
X140599400Y-79796598D03*
X141249400Y-79796598D03*
X141899400Y-79796598D03*
%TD*%
D29*
%TO.C,F7*%
X160624102Y-112556399D03*
X160624102Y-109756399D03*
%TD*%
D10*
%TO.C,C6*%
X157665301Y-105847799D03*
X156115301Y-105847799D03*
%TD*%
%TO.C,C4*%
X141033800Y-97785800D03*
X139483800Y-97785800D03*
%TD*%
D24*
%TO.C,R55*%
X142201400Y-83159600D03*
X140551400Y-83159600D03*
%TD*%
%TO.C,R47*%
X165798000Y-91338400D03*
X164148000Y-91338400D03*
%TD*%
%TO.C,R4*%
X138035800Y-102357800D03*
X136385800Y-102357800D03*
%TD*%
D28*
%TO.C,R6*%
X136448800Y-97722800D03*
X136448800Y-99372800D03*
%TD*%
D30*
%TO.C,R58*%
X137503400Y-81635598D03*
X139153400Y-81635598D03*
%TD*%
D28*
%TO.C,R38*%
X168117101Y-105402600D03*
X168117101Y-107052600D03*
%TD*%
D12*
%TO.C,R61*%
X139090400Y-86397599D03*
X139090400Y-84747599D03*
%TD*%
D30*
%TO.C,R57*%
X137503400Y-83159599D03*
X139153400Y-83159599D03*
%TD*%
D12*
%TO.C,R13*%
X129336800Y-95969200D03*
X129336800Y-94319200D03*
%TD*%
D28*
%TO.C,R46*%
X167273300Y-82405000D03*
X167273300Y-84055000D03*
%TD*%
D21*
%TO.C,R21*%
X132248500Y-67129660D03*
X126323500Y-67129660D03*
%TD*%
D36*
%TO.C,F5*%
X181889400Y-72107600D03*
X181889400Y-74907600D03*
%TD*%
D28*
%TO.C,R37*%
X110915400Y-104737400D03*
X110915400Y-106387400D03*
%TD*%
D21*
%TO.C,R35*%
X137836500Y-126542800D03*
X131911500Y-126542800D03*
%TD*%
D37*
%TO.C,F9*%
X143913400Y-105460800D03*
X146713400Y-105460800D03*
%TD*%
D38*
%TO.C,J7*%
X172241200Y-93837500D03*
X172241200Y-95837500D03*
X172241200Y-97837500D03*
X172241200Y-99837500D03*
D39*
X178236200Y-90942500D03*
X178236200Y-102732500D03*
%TD*%
D40*
%TO.C,U7*%
X110062500Y-97750000D03*
X110062500Y-96800000D03*
X110062500Y-95850000D03*
X112337500Y-95850000D03*
X112337500Y-96800000D03*
X112337500Y-97750000D03*
%TD*%
D41*
%TO.C,D6*%
X169164000Y-98837501D03*
X169164000Y-94837499D03*
%TD*%
D42*
%TO.C,D1*%
X174264000Y-79121000D03*
X176764000Y-79121000D03*
%TD*%
D18*
%TO.C,Q7*%
X162656101Y-107165599D03*
X163926101Y-107165599D03*
X165196101Y-107165599D03*
X166466101Y-107165599D03*
D19*
X164561101Y-110525599D03*
D20*
X166466101Y-112630599D03*
X165196101Y-112630599D03*
X163926101Y-112630599D03*
X162656101Y-112630599D03*
%TD*%
D16*
%TO.C,Q14*%
X144866600Y-84617600D03*
X145516600Y-84617600D03*
X146166600Y-84617600D03*
X146166600Y-86517600D03*
X145516600Y-86517600D03*
X144866600Y-86517600D03*
%TD*%
D27*
%TO.C,D4*%
X120726200Y-97557100D03*
X120726200Y-99132100D03*
%TD*%
D43*
%TO.C,U4*%
X157601500Y-104095199D03*
X156651500Y-104095199D03*
X155701500Y-104095199D03*
X155701500Y-101820199D03*
X156651500Y-101820199D03*
X157601500Y-101820199D03*
%TD*%
D44*
%TO.C,J3*%
X180005000Y-67129660D03*
X100665000Y-67129660D03*
%TD*%
D22*
%TO.C,C5*%
X159087101Y-101636899D03*
X160637101Y-101636899D03*
%TD*%
D12*
%TO.C,R7*%
X137981800Y-112377600D03*
X137981800Y-110727600D03*
%TD*%
D45*
%TO.C,U5*%
X173088800Y-84074000D03*
X173088800Y-82894000D03*
X172198800Y-84074000D03*
X172198800Y-82894000D03*
D46*
X174131300Y-82284000D03*
X174131300Y-82684000D03*
X174131300Y-83084000D03*
X174131300Y-83484000D03*
X174131300Y-83884000D03*
X174131300Y-84284000D03*
X174131300Y-84684000D03*
X171156300Y-84684000D03*
X171156300Y-84284000D03*
X171156300Y-83884000D03*
X171156300Y-83484000D03*
X171156300Y-83084000D03*
X171156300Y-82684000D03*
X171156300Y-82284000D03*
%TD*%
D47*
%TO.C,F10*%
X132565600Y-105482000D03*
X129765600Y-105482000D03*
%TD*%
D10*
%TO.C,C8*%
X174144300Y-85976100D03*
X172594300Y-85976100D03*
%TD*%
D24*
%TO.C,R39*%
X151746301Y-114221600D03*
X150096301Y-114221600D03*
%TD*%
D11*
%TO.C,U2*%
X139750800Y-101554799D03*
X139750800Y-100904801D03*
X139750800Y-100254799D03*
X139750800Y-99604801D03*
X145846800Y-99604801D03*
X145846800Y-100254799D03*
X145846800Y-100904801D03*
X145846800Y-101554799D03*
%TD*%
D48*
%TO.C,R43*%
X180363600Y-86036500D03*
X180363600Y-80111500D03*
%TD*%
D32*
%TO.C,TH6*%
X116078000Y-66354660D03*
X116078000Y-67904660D03*
%TD*%
D40*
%TO.C,U6*%
X110062500Y-101150000D03*
X110062500Y-100200000D03*
X110062500Y-99250000D03*
X112337500Y-99250000D03*
X112337500Y-100200000D03*
X112337500Y-101150000D03*
%TD*%
D12*
%TO.C,R64*%
X143383000Y-81571598D03*
X143383000Y-79921598D03*
%TD*%
D24*
%TO.C,R50*%
X165798000Y-81178400D03*
X164148000Y-81178400D03*
%TD*%
D33*
%TO.C,Q6*%
X127205500Y-112502600D03*
X127205500Y-110602600D03*
X129080500Y-111552600D03*
%TD*%
D12*
%TO.C,R26*%
X129336800Y-109202600D03*
X129336800Y-107552600D03*
%TD*%
D30*
%TO.C,R41*%
X174065400Y-89001600D03*
X175715400Y-89001600D03*
%TD*%
D27*
%TO.C,D5*%
X120726200Y-110765100D03*
X120726200Y-112340100D03*
%TD*%
D24*
%TO.C,R52*%
X154825200Y-81559400D03*
X153175200Y-81559400D03*
%TD*%
D17*
%TO.C,C3*%
X137972800Y-99322800D03*
X137972800Y-97772800D03*
%TD*%
D49*
%TO.C,D2*%
X176763999Y-115011200D03*
X174264001Y-115011200D03*
%TD*%
D24*
%TO.C,R2*%
X138035800Y-93721800D03*
X136385800Y-93721800D03*
%TD*%
D10*
%TO.C,C7*%
X174144300Y-87500100D03*
X172594300Y-87500100D03*
%TD*%
D30*
%TO.C,R42*%
X171017400Y-89001600D03*
X172667400Y-89001600D03*
%TD*%
D18*
%TO.C,Q9*%
X154096301Y-112505599D03*
X152826301Y-112505599D03*
X151556301Y-112505599D03*
X150286301Y-112505599D03*
D19*
X152191301Y-109145599D03*
D20*
X150286301Y-107040599D03*
X151556301Y-107040599D03*
X152826301Y-107040599D03*
X154096301Y-107040599D03*
%TD*%
D28*
%TO.C,R44*%
X171083300Y-85913100D03*
X171083300Y-87563100D03*
%TD*%
D18*
%TO.C,Q8*%
X166471600Y-105260600D03*
X165201600Y-105260600D03*
X163931600Y-105260600D03*
X162661600Y-105260600D03*
D19*
X164566600Y-101900600D03*
D20*
X162661600Y-99795600D03*
X163931600Y-99795600D03*
X165201600Y-99795600D03*
X166471600Y-99795600D03*
%TD*%
D38*
%TO.C,J6*%
X172241200Y-107991400D03*
X172241200Y-109991400D03*
D39*
X178236199Y-105096400D03*
X178236199Y-112886400D03*
%TD*%
D24*
%TO.C,R62*%
X149249400Y-83154600D03*
X147599400Y-83154600D03*
%TD*%
D30*
%TO.C,R53*%
X153175200Y-83159600D03*
X154825200Y-83159600D03*
%TD*%
D44*
%TO.C,J4*%
X100665000Y-126545340D03*
X180005000Y-126545340D03*
%TD*%
D12*
%TO.C,R14*%
X122199400Y-99169600D03*
X122199400Y-97519600D03*
%TD*%
D17*
%TO.C,C9*%
X175652400Y-87513100D03*
X175652400Y-85963100D03*
%TD*%
D13*
%TO.C,Q3*%
X127714201Y-91968200D03*
X127714200Y-93238200D03*
X127714200Y-94508200D03*
X127714201Y-95778200D03*
D14*
X124354200Y-93873200D03*
D15*
X122249200Y-95778200D03*
X122249200Y-94508200D03*
X122249200Y-93238200D03*
X122249200Y-91968200D03*
%TD*%
D47*
%TO.C,F11*%
X132565600Y-92248600D03*
X129765600Y-92248600D03*
%TD*%
D33*
%TO.C,Q2*%
X141353300Y-112502600D03*
X141353300Y-110602600D03*
X143228300Y-111552600D03*
%TD*%
D24*
%TO.C,R49*%
X165794001Y-83718400D03*
X164144001Y-83718400D03*
%TD*%
%TO.C,R5*%
X138035800Y-100833800D03*
X136385800Y-100833800D03*
%TD*%
D21*
%TO.C,R22*%
X148758500Y-67129660D03*
X142833500Y-67129660D03*
%TD*%
D28*
%TO.C,R56*%
X147650199Y-79916601D03*
X147650199Y-81566601D03*
%TD*%
D22*
%TO.C,C10*%
X169645000Y-81000600D03*
X171195000Y-81000600D03*
%TD*%
D28*
%TO.C,R3*%
X136448800Y-90610800D03*
X136448800Y-92260800D03*
%TD*%
M02*
