M48
; DRILL file {KiCad 9.0.7} date 2026-02-05T12:15:25-0500
; FORMAT={-:-/ absolute / inch / decimal}
; #@! TF.CreationDate,2026-02-05T12:15:25-05:00
; #@! TF.GenerationSoftware,Kicad,Pcbnew,9.0.7
; #@! TF.FileFunction,Plated,1,4,PTH
FMAT,2
INCH
; #@! TA.AperFunction,Plated,PTH,ViaDrill
T1C0.0120
; #@! TA.AperFunction,Plated,PTH,ComponentDrill
T2C0.0433
; #@! TA.AperFunction,Plated,PTH,ComponentDrill
T3C0.1260
%
G90
G05
T1
X3.865Y-2.545
X3.865Y-2.595
X3.865Y-2.645
X3.865Y-2.695
X3.865Y-2.745
X3.865Y-4.885
X3.865Y-4.935
X3.865Y-4.985
X3.865Y-5.035
X3.865Y-5.085
X3.915Y-2.545
X3.915Y-2.595
X3.915Y-2.645
X3.915Y-2.695
X3.915Y-2.745
X3.915Y-4.885
X3.915Y-4.935
X3.915Y-4.985
X3.915Y-5.035
X3.915Y-5.085
X3.965Y-2.545
X3.965Y-2.595
X3.965Y-2.645
X3.965Y-2.695
X3.965Y-2.745
X3.965Y-4.885
X3.965Y-4.935
X3.965Y-4.985
X3.965Y-5.035
X3.965Y-5.085
X4.012Y-3.547
X4.012Y-4.077
X4.015Y-2.545
X4.015Y-2.595
X4.015Y-2.645
X4.015Y-2.695
X4.015Y-2.745
X4.015Y-4.885
X4.015Y-4.935
X4.015Y-4.985
X4.015Y-5.035
X4.015Y-5.085
X4.03Y-3.7141
X4.03Y-3.7534
X4.065Y-2.545
X4.065Y-2.595
X4.065Y-2.645
X4.065Y-2.695
X4.065Y-2.745
X4.065Y-4.885
X4.065Y-4.935
X4.065Y-4.985
X4.065Y-5.035
X4.065Y-5.085
X4.0654Y-3.7141
X4.066Y-3.547
X4.066Y-3.7534
X4.066Y-4.077
X4.3332Y-3.7736
X4.3332Y-3.811
X4.3332Y-3.8484
X4.3332Y-3.9075
X4.3332Y-3.9449
X4.3332Y-3.9823
X4.3346Y-3.7106
X4.395Y-4.233
X4.4227Y-3.9075
X4.4227Y-3.9823
X4.473Y-4.189
X4.515Y-2.6124
X4.62Y-4.197
X4.62Y-4.231
X4.62Y-4.265
X4.625Y-2.6734
X4.625Y-3.426
X4.635Y-4.948
X4.635Y-4.982
X4.635Y-5.016
X4.65Y-4.197
X4.65Y-4.231
X4.65Y-4.265
X4.7526Y-4.3612
X4.756Y-3.8408
X4.8746Y-4.4247
X4.875Y-3.8394
X4.878Y-3.9043
X4.9198Y-2.6091
X4.9198Y-3.3621
X4.92Y-2.643
X4.92Y-2.677
X4.92Y-3.396
X4.92Y-3.43
X4.9326Y-4.3597
X4.9738Y-3.3621
X4.974Y-3.396
X4.974Y-3.43
X5.0086Y-4.3548
X5.0091Y-3.8344
X5.0709Y-3.5
X5.22Y-3.2738
X5.312Y-4.3608
X5.367Y-3.3318
X5.3695Y-3.6898
X5.3695Y-3.7498
X5.3695Y-3.9698
X5.3695Y-4.0298
X5.372Y-3.5674
X5.372Y-3.8474
X5.4155Y-3.1048
X5.432Y-3.5693
X5.432Y-3.8493
X5.4324Y-4.3594
X5.4324Y-4.4243
X5.4915Y-3.5698
X5.4915Y-3.8498
X5.561Y-3.1788
X5.5651Y-4.3544
X5.644Y-3.2738
X5.645Y-3.1465
X5.645Y-3.2115
X5.692Y-3.667
X5.699Y-3.9434
X5.699Y-3.9764
X5.729Y-3.3686
X5.742Y-3.8834
X5.7565Y-3.274
X5.7949Y-3.6414
X5.7964Y-3.7134
X5.843Y-4.497
X5.917Y-3.334
X6.0305Y-3.211
X6.0305Y-3.274
X6.051Y-4.594
X6.051Y-4.56
X6.051Y-4.628
X6.13Y-4.0087
X6.13Y-4.0982
X6.132Y-4.982
X6.132Y-4.948
X6.132Y-5.016
X6.1463Y-4.1672
X6.1674Y-4.0982
X6.229Y-3.302
X6.3018Y-4.0705
X6.3243Y-4.0015
X6.3392Y-4.0705
X6.3392Y-4.1612
X6.425Y-5.0126
X6.447Y-3.396
X6.447Y-3.362
X6.447Y-3.43
X6.5275Y-3.196
X6.5275Y-3.496
X6.535Y-4.952
X6.5538Y-4.2191
X6.562Y-2.643
X6.562Y-2.609
X6.562Y-2.677
X6.5856Y-3.3093
X6.6156Y-3.2768
X6.6456Y-3.3093
X6.6789Y-3.189
X6.685Y-4.15
X6.6856Y-3.2668
X6.733Y-3.504
X6.762Y-4.528
X6.765Y-4.378
X6.765Y-4.411
X6.775Y-3.115
X6.7951Y-3.3849
X6.797Y-4.528
X6.798Y-4.378
X6.798Y-4.411
X6.81Y-3.115
X6.853Y-3.504
X6.86Y-4.061
X6.895Y-4.061
X6.9079Y-3.271
X6.93Y-4.061
X6.957Y-2.97
X6.957Y-3.003
X6.957Y-3.036
X6.957Y-3.069
X6.9872Y-4.4443
X6.9872Y-3.5804
X6.9872Y-4.0446
X6.99Y-2.97
X6.99Y-3.003
X6.99Y-3.036
X6.99Y-3.069
X7.02Y-4.556
X7.02Y-4.589
X7.02Y-4.622
X7.02Y-4.655
X7.0472Y-4.4443
X7.0472Y-3.5804
X7.0472Y-4.0446
X7.053Y-4.556
X7.053Y-4.589
X7.053Y-4.622
X7.053Y-4.655
X7.07Y-2.97
X7.07Y-3.003
X7.07Y-3.036
X7.07Y-3.069
X7.085Y-4.556
X7.085Y-4.589
X7.085Y-4.622
X7.085Y-4.655
X7.096Y-3.542
X7.096Y-3.579
X7.103Y-2.97
X7.103Y-3.003
X7.103Y-3.036
X7.103Y-3.069
X7.118Y-4.589
X7.118Y-4.622
X7.128Y-3.542
X7.128Y-3.579
X7.16Y-3.542
X7.16Y-3.579
X7.192Y-3.542
X7.192Y-3.579
T2
X7.129Y-3.6627
X7.129Y-3.7627
X7.129Y-3.8627
X7.129Y-3.9627
T3
X3.95Y-5.5
X4.1Y-2.125
X7.0Y-2.125
X7.1Y-5.5
M30
