%TF.GenerationSoftware,KiCad,Pcbnew,9.0.7*%
%TF.CreationDate,2026-02-05T12:15:23-05:00*%
%TF.ProjectId,Avionics-BatteryBoard,4176696f-6e69-4637-932d-426174746572,rev?*%
%TF.SameCoordinates,Original*%
%TF.FileFunction,Copper,L2,Inr*%
%TF.FilePolarity,Positive*%
%FSLAX46Y46*%
G04 Gerber Fmt 4.6, Leading zero omitted, Abs format (unit mm)*
G04 Created by KiCad (PCBNEW 9.0.7) date 2026-02-05 12:15:23*
%MOMM*%
%LPD*%
G01*
G04 APERTURE LIST*
G04 Aperture macros list*
%AMRoundRect*
0 Rectangle with rounded corners*
0 $1 Rounding radius*
0 $2 $3 $4 $5 $6 $7 $8 $9 X,Y pos of 4 corners*
0 Add a 4 corners polygon primitive as box body*
4,1,4,$2,$3,$4,$5,$6,$7,$8,$9,$2,$3,0*
0 Add four circle primitives for the rounded corners*
1,1,$1+$1,$2,$3*
1,1,$1+$1,$4,$5*
1,1,$1+$1,$6,$7*
1,1,$1+$1,$8,$9*
0 Add four rect primitives between the rounded corners*
20,1,$1+$1,$2,$3,$4,$5,0*
20,1,$1+$1,$4,$5,$6,$7,0*
20,1,$1+$1,$6,$7,$8,$9,0*
20,1,$1+$1,$8,$9,$2,$3,0*%
G04 Aperture macros list end*
%TA.AperFunction,ComponentPad*%
%ADD10C,3.600000*%
%TD*%
%TA.AperFunction,ComponentPad*%
%ADD11RoundRect,0.250001X0.799999X-0.799999X0.799999X0.799999X-0.799999X0.799999X-0.799999X-0.799999X0*%
%TD*%
%TA.AperFunction,ComponentPad*%
%ADD12C,2.100000*%
%TD*%
%TA.AperFunction,ViaPad*%
%ADD13C,0.609600*%
%TD*%
G04 APERTURE END LIST*
D10*
%TO.N,GND*%
%TO.C,H1*%
X180340000Y-139700000D03*
%TD*%
%TO.N,GND*%
%TO.C,H2*%
X100330000Y-139700000D03*
%TD*%
%TO.N,GND*%
%TO.C,H3*%
X177800000Y-53975000D03*
%TD*%
%TO.N,GND*%
%TO.C,H4*%
X104140000Y-53975000D03*
%TD*%
D11*
%TO.N,SYSTEM_VDD*%
%TO.C,J8*%
X181076600Y-100652580D03*
D12*
X181076600Y-98112580D03*
%TO.N,SYSTEM_VSS*%
X181076600Y-95572580D03*
X181076600Y-93032580D03*
%TD*%
D13*
%TO.N,/Battery Bus Detection/BATT_M*%
X99441000Y-64643000D03*
X99441000Y-69723000D03*
X103251000Y-125349000D03*
X100711000Y-69723000D03*
X101981000Y-64643000D03*
X98171000Y-64643000D03*
X99441000Y-68453000D03*
X99441000Y-129159000D03*
X103251000Y-65913000D03*
X103251000Y-67183000D03*
X100711000Y-124079000D03*
X99441000Y-124079000D03*
X100711000Y-67183000D03*
X98171000Y-124079000D03*
X98171000Y-69723000D03*
X103251000Y-126619000D03*
X139483800Y-97785800D03*
X136448800Y-90610800D03*
X171017400Y-89001600D03*
X100711000Y-127889000D03*
X101981000Y-67183000D03*
X101981000Y-68453000D03*
X99441000Y-125349000D03*
X98171000Y-129159000D03*
X172085000Y-79121000D03*
X103251000Y-124079000D03*
X101981000Y-65913000D03*
X99441000Y-67183000D03*
X101981000Y-125349000D03*
X101981000Y-69723000D03*
X98171000Y-67183000D03*
X98171000Y-126619000D03*
X100711000Y-65913000D03*
X137972800Y-97772800D03*
X171754800Y-115011200D03*
X98171000Y-65913000D03*
X100711000Y-129159000D03*
X103251000Y-129159000D03*
X100711000Y-68453000D03*
X99441000Y-65913000D03*
X172974000Y-79121000D03*
X101981000Y-129159000D03*
X103251000Y-64643000D03*
X103251000Y-127889000D03*
X100711000Y-125349000D03*
X101981000Y-127889000D03*
X100711000Y-64643000D03*
X172643800Y-115011200D03*
X145846800Y-98637200D03*
X103251000Y-69723000D03*
X98171000Y-127889000D03*
X100711000Y-126619000D03*
X99441000Y-127889000D03*
X98171000Y-125349000D03*
X101981000Y-126619000D03*
X99441000Y-126619000D03*
X98171000Y-68453000D03*
X103251000Y-68453000D03*
X101981000Y-124079000D03*
%TO.N,SYSTEM_VSS*%
X172669200Y-112039400D03*
X158216600Y-83870800D03*
X180238400Y-89966800D03*
X182676800Y-89966600D03*
X160637101Y-101636899D03*
X181864000Y-90906600D03*
X156115301Y-105847799D03*
X171831000Y-111201200D03*
X161016401Y-103389499D03*
X172669200Y-111201200D03*
X117475000Y-67904660D03*
X155752800Y-126542800D03*
X166674801Y-67995800D03*
X163753800Y-86258400D03*
X169799000Y-105410000D03*
X181051200Y-90906600D03*
X171831000Y-112039400D03*
X182676800Y-90906600D03*
X153695401Y-117551199D03*
X181864000Y-89966600D03*
X155752801Y-127406400D03*
X181051200Y-89966600D03*
X153695400Y-116687599D03*
X156651501Y-104095198D03*
X163753801Y-87122000D03*
X163753801Y-85394801D03*
X155752801Y-125679201D03*
X180238400Y-90906600D03*
X153695401Y-115824000D03*
X166674800Y-67132200D03*
X166674801Y-66268601D03*
X155701503Y-104095198D03*
X160066402Y-103389499D03*
%TO.N,GND*%
X141249400Y-80741600D03*
X120802400Y-97557099D03*
X127230900Y-97394600D03*
X177474200Y-102732500D03*
X103276400Y-90093800D03*
X137553401Y-78862000D03*
X137981800Y-112377600D03*
X102362000Y-95337490D03*
X178998199Y-112886400D03*
X123901200Y-99169600D03*
X102362000Y-94337490D03*
X127219500Y-110612000D03*
X110100000Y-94249999D03*
X178998200Y-90942500D03*
X101904800Y-90093800D03*
X103276400Y-103555800D03*
X103276400Y-95337490D03*
X178998200Y-102732500D03*
X110062500Y-96800000D03*
X120714800Y-110774499D03*
X141353300Y-110602600D03*
X110062500Y-100200000D03*
X177474199Y-112886400D03*
X150291800Y-84683600D03*
X145516600Y-85563473D03*
X134924800Y-110765099D03*
X103262290Y-94337490D03*
X123813600Y-112387000D03*
X177474200Y-90942500D03*
X101904800Y-103555800D03*
%TO.N,+3V3*%
X143357600Y-83154600D03*
X132588000Y-83154600D03*
%TO.N,/Interfaces/SCL_BUS*%
X143383000Y-79921598D03*
X110062500Y-95850001D03*
%TO.N,/Interfaces/SDA_BUS*%
X110062500Y-97749999D03*
X136321800Y-84627800D03*
%TO.N,/Battery Monitor/SCL*%
X165798000Y-81178400D03*
X168035300Y-83230000D03*
%TO.N,/Battery Monitor/SDA*%
X165798000Y-88798400D03*
X169813300Y-82976000D03*
%TO.N,Net-(U5-REG2)*%
X175460400Y-83084000D03*
X169645000Y-81000600D03*
%TO.N,Net-(TH1-Pad2)*%
X163195000Y-127320340D03*
%TO.N,Net-(TH5-Pad2)*%
X114681000Y-66354660D03*
%TO.N,/Battery Bus Detection/CHARGE_EN*%
X166466101Y-107165598D03*
X144754600Y-100999400D03*
%TO.N,/Battery Bus Detection/DISCHARGE_EN*%
X144754600Y-100161200D03*
X148412200Y-114223800D03*
%TO.N,/Battery Temperature Protection/BatteryHeater1/V_HEATER*%
X117348000Y-106603800D03*
X118110000Y-106603800D03*
X117729000Y-126542800D03*
X118110000Y-108330999D03*
X118110000Y-107467400D03*
X117348000Y-108330999D03*
X117729000Y-125679200D03*
X117729000Y-127406399D03*
X117348000Y-107467400D03*
%TO.N,/Battery Bus Detection/BATT_P*%
X178308000Y-116560600D03*
X176022000Y-103149400D03*
X180797200Y-116560600D03*
X174244000Y-103149400D03*
X179959000Y-117398800D03*
X179146200Y-118237000D03*
X175133000Y-103149400D03*
X136448800Y-97722800D03*
X179959000Y-118237000D03*
X179146200Y-115722400D03*
X180797200Y-117398800D03*
X174065400Y-89001600D03*
X178308000Y-117398800D03*
X179146200Y-117398800D03*
X178308000Y-118237000D03*
X178308000Y-115722400D03*
X179959000Y-116560600D03*
X179146200Y-116560600D03*
X179959000Y-115722400D03*
%TO.N,/Interfaces/ALERT*%
X128800000Y-88900000D03*
X112337500Y-99250001D03*
%TO.N,/Battery Monitor/I2C Protection/SCL_DEVICE*%
X143383000Y-81571598D03*
X153175200Y-81559400D03*
%TO.N,/Battery Monitor/I2C Protection/SDA_DEVICE*%
X146214600Y-83159599D03*
X153175200Y-83159600D03*
%TO.N,/Battery Temperature Protection/BatteryHeater/V_HEATER*%
X124968000Y-86258400D03*
X124961699Y-85396976D03*
X126339600Y-87122000D03*
X124968000Y-67995800D03*
X124968000Y-67132200D03*
X126333299Y-85396976D03*
X124961699Y-66270776D03*
X126339600Y-86258400D03*
X124968000Y-87122000D03*
%TO.N,/Interfaces/HEATER1_ON*%
X110062500Y-101149999D03*
X125286800Y-110737000D03*
%TO.N,/Interfaces/HEATER0_ON*%
X123825000Y-97519600D03*
X110062500Y-99250001D03*
%TO.N,/Interfaces/HEATER_ENABLE*%
X112337500Y-101149999D03*
X137981800Y-110727600D03*
%TO.N,Net-(U1-CO)*%
X136385800Y-102357800D03*
X147228798Y-94319200D03*
%TO.N,Net-(U1-DO)*%
X144576800Y-93142799D03*
X136385800Y-100833800D03*
%TO.N,/Battery Bus Protection/CHARGE_ACTIVE*%
X111633000Y-107518200D03*
X161016401Y-105695399D03*
%TO.N,/Battery Bus Protection/DISCHARGE_ACTIVE*%
X113614200Y-106400600D03*
X155701501Y-101820199D03*
%TO.N,Net-(U5-AIN2)*%
X165989000Y-125780800D03*
X168797300Y-84055000D03*
%TO.N,Net-(U5-AIN1)*%
X167273300Y-84055000D03*
X117475000Y-87020400D03*
%TO.N,/Battery Bus Detection/BATT_N*%
X176707800Y-77114400D03*
X176707800Y-77952600D03*
X176707800Y-76276200D03*
X139483800Y-90673800D03*
X136385800Y-93721800D03*
X179578000Y-76276200D03*
X179578000Y-77952600D03*
X177546000Y-76276200D03*
X177546000Y-77952600D03*
X177546000Y-77114400D03*
X136385800Y-95245800D03*
X176707800Y-75438000D03*
X179578000Y-75438000D03*
X180416200Y-77952600D03*
X180416200Y-75438000D03*
X177546000Y-75438000D03*
X147190599Y-92492801D03*
X137972800Y-90660800D03*
X179578000Y-77114400D03*
X180416200Y-76276200D03*
X180416200Y-77114400D03*
X172594300Y-85976100D03*
%TD*%
%TA.AperFunction,Conductor*%
%TO.N,/Battery Bus Detection/BATT_N*%
G36*
X178139531Y-74847613D02*
G01*
X178176076Y-74897913D01*
X178181000Y-74929000D01*
X178181000Y-78436200D01*
X178161787Y-78495331D01*
X178111487Y-78531876D01*
X178080400Y-78536800D01*
X175234600Y-78536800D01*
X175234600Y-82539789D01*
X175215387Y-82598920D01*
X175184301Y-82626910D01*
X175132582Y-82656770D01*
X175132578Y-82656774D01*
X175033174Y-82756177D01*
X174962882Y-82877924D01*
X174962882Y-82877925D01*
X174926500Y-83013705D01*
X174926500Y-83154294D01*
X174962882Y-83290074D01*
X174962882Y-83290075D01*
X175033174Y-83411822D01*
X175132579Y-83511227D01*
X175184300Y-83541088D01*
X175225903Y-83587292D01*
X175234600Y-83628210D01*
X175234600Y-96038400D01*
X175215387Y-96097531D01*
X175165087Y-96134076D01*
X175134000Y-96139000D01*
X135787400Y-96139000D01*
X135728269Y-96119787D01*
X135691724Y-96069487D01*
X135686800Y-96038400D01*
X135686800Y-94248905D01*
X146694898Y-94248905D01*
X146694898Y-94389494D01*
X146731280Y-94525274D01*
X146731280Y-94525275D01*
X146731282Y-94525278D01*
X146801572Y-94647022D01*
X146900976Y-94746426D01*
X147022720Y-94816716D01*
X147022722Y-94816717D01*
X147158503Y-94853099D01*
X147158507Y-94853099D01*
X147158509Y-94853100D01*
X147158511Y-94853100D01*
X147299085Y-94853100D01*
X147299087Y-94853100D01*
X147299089Y-94853099D01*
X147299092Y-94853099D01*
X147434872Y-94816717D01*
X147434873Y-94816717D01*
X147434873Y-94816716D01*
X147434876Y-94816716D01*
X147556620Y-94746426D01*
X147656024Y-94647022D01*
X147726314Y-94525278D01*
X147762698Y-94389489D01*
X147762698Y-94248911D01*
X147762697Y-94248909D01*
X147762697Y-94248905D01*
X147726315Y-94113125D01*
X147726315Y-94113124D01*
X147656023Y-93991377D01*
X147556620Y-93891974D01*
X147434873Y-93821682D01*
X147299092Y-93785300D01*
X147299087Y-93785300D01*
X147158509Y-93785300D01*
X147158503Y-93785300D01*
X147022723Y-93821682D01*
X147022722Y-93821682D01*
X146900975Y-93891974D01*
X146801572Y-93991377D01*
X146731280Y-94113124D01*
X146731280Y-94113125D01*
X146694898Y-94248905D01*
X135686800Y-94248905D01*
X135686800Y-93072504D01*
X144042900Y-93072504D01*
X144042900Y-93213093D01*
X144079282Y-93348873D01*
X144079282Y-93348874D01*
X144079284Y-93348877D01*
X144149574Y-93470621D01*
X144248978Y-93570025D01*
X144370722Y-93640315D01*
X144370724Y-93640316D01*
X144506505Y-93676698D01*
X144506509Y-93676698D01*
X144506511Y-93676699D01*
X144506513Y-93676699D01*
X144647087Y-93676699D01*
X144647089Y-93676699D01*
X144647091Y-93676698D01*
X144647094Y-93676698D01*
X144782874Y-93640316D01*
X144782875Y-93640316D01*
X144782875Y-93640315D01*
X144782878Y-93640315D01*
X144904622Y-93570025D01*
X145004026Y-93470621D01*
X145074316Y-93348877D01*
X145110700Y-93213088D01*
X145110700Y-93072510D01*
X145110699Y-93072508D01*
X145110699Y-93072504D01*
X145074317Y-92936724D01*
X145074317Y-92936723D01*
X145004025Y-92814976D01*
X144904622Y-92715573D01*
X144782875Y-92645281D01*
X144647094Y-92608899D01*
X144647089Y-92608899D01*
X144506511Y-92608899D01*
X144506505Y-92608899D01*
X144370725Y-92645281D01*
X144370724Y-92645281D01*
X144248977Y-92715573D01*
X144149574Y-92814976D01*
X144079282Y-92936723D01*
X144079282Y-92936724D01*
X144042900Y-93072504D01*
X135686800Y-93072504D01*
X135686800Y-90540505D01*
X135914900Y-90540505D01*
X135914900Y-90681094D01*
X135951282Y-90816874D01*
X135951282Y-90816875D01*
X135951284Y-90816878D01*
X136021574Y-90938622D01*
X136120978Y-91038026D01*
X136242722Y-91108316D01*
X136242724Y-91108317D01*
X136378505Y-91144699D01*
X136378509Y-91144699D01*
X136378511Y-91144700D01*
X136378513Y-91144700D01*
X136519087Y-91144700D01*
X136519089Y-91144700D01*
X136519091Y-91144699D01*
X136519094Y-91144699D01*
X136654874Y-91108317D01*
X136654875Y-91108317D01*
X136654875Y-91108316D01*
X136654878Y-91108316D01*
X136776622Y-91038026D01*
X136876026Y-90938622D01*
X136946316Y-90816878D01*
X136982700Y-90681089D01*
X136982700Y-90540511D01*
X136982699Y-90540509D01*
X136982699Y-90540505D01*
X136946317Y-90404725D01*
X136946317Y-90404724D01*
X136876025Y-90282977D01*
X136776622Y-90183574D01*
X136654875Y-90113282D01*
X136519094Y-90076900D01*
X136519089Y-90076900D01*
X136378511Y-90076900D01*
X136378505Y-90076900D01*
X136242725Y-90113282D01*
X136242724Y-90113282D01*
X136120977Y-90183574D01*
X136021574Y-90282977D01*
X135951282Y-90404724D01*
X135951282Y-90404725D01*
X135914900Y-90540505D01*
X135686800Y-90540505D01*
X135686800Y-89534000D01*
X135706013Y-89474869D01*
X135756313Y-89438324D01*
X135787400Y-89433400D01*
X170670544Y-89433400D01*
X170720845Y-89446878D01*
X170811324Y-89499117D01*
X170947105Y-89535499D01*
X170947109Y-89535499D01*
X170947111Y-89535500D01*
X170947113Y-89535500D01*
X171087687Y-89535500D01*
X171087689Y-89535500D01*
X171087691Y-89535499D01*
X171087694Y-89535499D01*
X171223474Y-89499117D01*
X171223475Y-89499117D01*
X171223475Y-89499116D01*
X171223478Y-89499116D01*
X171345222Y-89428826D01*
X171444626Y-89329422D01*
X171514916Y-89207678D01*
X171551300Y-89071889D01*
X171551300Y-88931311D01*
X171551299Y-88931309D01*
X171551299Y-88931305D01*
X173531500Y-88931305D01*
X173531500Y-89071894D01*
X173567882Y-89207674D01*
X173567882Y-89207675D01*
X173567884Y-89207678D01*
X173638174Y-89329422D01*
X173737578Y-89428826D01*
X173754029Y-89438324D01*
X173859324Y-89499117D01*
X173995105Y-89535499D01*
X173995109Y-89535499D01*
X173995111Y-89535500D01*
X173995113Y-89535500D01*
X174135687Y-89535500D01*
X174135689Y-89535500D01*
X174135691Y-89535499D01*
X174135694Y-89535499D01*
X174271474Y-89499117D01*
X174271475Y-89499117D01*
X174271475Y-89499116D01*
X174271478Y-89499116D01*
X174393222Y-89428826D01*
X174492626Y-89329422D01*
X174562916Y-89207678D01*
X174599300Y-89071889D01*
X174599300Y-88931311D01*
X174599299Y-88931309D01*
X174599299Y-88931305D01*
X174562917Y-88795525D01*
X174562917Y-88795524D01*
X174562916Y-88795522D01*
X174492626Y-88673778D01*
X174393222Y-88574374D01*
X174271478Y-88504084D01*
X174271475Y-88504082D01*
X174135694Y-88467700D01*
X174135689Y-88467700D01*
X173995111Y-88467700D01*
X173995105Y-88467700D01*
X173859325Y-88504082D01*
X173859324Y-88504082D01*
X173737577Y-88574374D01*
X173638174Y-88673777D01*
X173567882Y-88795524D01*
X173567882Y-88795525D01*
X173531500Y-88931305D01*
X171551299Y-88931305D01*
X171514917Y-88795525D01*
X171514917Y-88795524D01*
X171514916Y-88795522D01*
X171444626Y-88673778D01*
X171345222Y-88574374D01*
X171223478Y-88504084D01*
X171223475Y-88504082D01*
X171118163Y-88475864D01*
X171066019Y-88442001D01*
X171043738Y-88383957D01*
X171043600Y-88378692D01*
X171043600Y-79050705D01*
X171551100Y-79050705D01*
X171551100Y-79191294D01*
X171587482Y-79327074D01*
X171587482Y-79327075D01*
X171627219Y-79395900D01*
X171657774Y-79448822D01*
X171757178Y-79548226D01*
X171836072Y-79593776D01*
X171878924Y-79618517D01*
X172014705Y-79654899D01*
X172014709Y-79654899D01*
X172014711Y-79654900D01*
X172014713Y-79654900D01*
X172155287Y-79654900D01*
X172155289Y-79654900D01*
X172155291Y-79654899D01*
X172155294Y-79654899D01*
X172291074Y-79618517D01*
X172291075Y-79618517D01*
X172291075Y-79618516D01*
X172291078Y-79618516D01*
X172412822Y-79548226D01*
X172458365Y-79502683D01*
X172513763Y-79474457D01*
X172575171Y-79484183D01*
X172600635Y-79502683D01*
X172646178Y-79548226D01*
X172725072Y-79593776D01*
X172767924Y-79618517D01*
X172903705Y-79654899D01*
X172903709Y-79654899D01*
X172903711Y-79654900D01*
X172903713Y-79654900D01*
X173044287Y-79654900D01*
X173044289Y-79654900D01*
X173044291Y-79654899D01*
X173044294Y-79654899D01*
X173180074Y-79618517D01*
X173180075Y-79618517D01*
X173180075Y-79618516D01*
X173180078Y-79618516D01*
X173301822Y-79548226D01*
X173401226Y-79448822D01*
X173471516Y-79327078D01*
X173507900Y-79191289D01*
X173507900Y-79050711D01*
X173507899Y-79050709D01*
X173507899Y-79050705D01*
X173471517Y-78914925D01*
X173471517Y-78914924D01*
X173401225Y-78793177D01*
X173301822Y-78693774D01*
X173180075Y-78623482D01*
X173044294Y-78587100D01*
X173044289Y-78587100D01*
X172903711Y-78587100D01*
X172903705Y-78587100D01*
X172767925Y-78623482D01*
X172767924Y-78623482D01*
X172646177Y-78693774D01*
X172600635Y-78739317D01*
X172545237Y-78767543D01*
X172483829Y-78757817D01*
X172458365Y-78739317D01*
X172412822Y-78693774D01*
X172291075Y-78623482D01*
X172155294Y-78587100D01*
X172155289Y-78587100D01*
X172014711Y-78587100D01*
X172014705Y-78587100D01*
X171878925Y-78623482D01*
X171878924Y-78623482D01*
X171757177Y-78693774D01*
X171657774Y-78793177D01*
X171587482Y-78914924D01*
X171587482Y-78914925D01*
X171551100Y-79050705D01*
X171043600Y-79050705D01*
X171043600Y-74929000D01*
X171062813Y-74869869D01*
X171113113Y-74833324D01*
X171144200Y-74828400D01*
X178080400Y-74828400D01*
X178139531Y-74847613D01*
G37*
%TD.AperFunction*%
%TD*%
%TA.AperFunction,Conductor*%
%TO.N,GND*%
G36*
X106791908Y-49296502D02*
G01*
X106812882Y-49313405D01*
X109620746Y-52121270D01*
X109620751Y-52121274D01*
X109620753Y-52121276D01*
X109707747Y-52171502D01*
X109804775Y-52197501D01*
X109804777Y-52197501D01*
X109912943Y-52197501D01*
X109912959Y-52197500D01*
X112650000Y-52197500D01*
X112718121Y-52217502D01*
X112764614Y-52271158D01*
X112776000Y-52323500D01*
X112776000Y-56897160D01*
X112755998Y-56965281D01*
X112702342Y-57011774D01*
X112650000Y-57023160D01*
X112596930Y-57023160D01*
X112323167Y-57059201D01*
X112056439Y-57130671D01*
X112056435Y-57130672D01*
X111801318Y-57236345D01*
X111801307Y-57236350D01*
X111562178Y-57374411D01*
X111343113Y-57542506D01*
X111343092Y-57542525D01*
X111147865Y-57737752D01*
X111147846Y-57737773D01*
X110979751Y-57956838D01*
X110841690Y-58195967D01*
X110841685Y-58195978D01*
X110841684Y-58195980D01*
X110772074Y-58364034D01*
X110736012Y-58451095D01*
X110736011Y-58451099D01*
X110664541Y-58717827D01*
X110628500Y-58991590D01*
X110628500Y-59267729D01*
X110664541Y-59541492D01*
X110664542Y-59541498D01*
X110664543Y-59541500D01*
X110736012Y-59808225D01*
X110841684Y-60063340D01*
X110841685Y-60063341D01*
X110841690Y-60063352D01*
X110979751Y-60302481D01*
X111147846Y-60521546D01*
X111147865Y-60521567D01*
X111343092Y-60716794D01*
X111343102Y-60716803D01*
X111343108Y-60716809D01*
X111343111Y-60716811D01*
X111343113Y-60716813D01*
X111562178Y-60884908D01*
X111801307Y-61022969D01*
X111801311Y-61022970D01*
X111801320Y-61022976D01*
X112056435Y-61128648D01*
X112323160Y-61200117D01*
X112323166Y-61200117D01*
X112323167Y-61200118D01*
X112354581Y-61204253D01*
X112596933Y-61236160D01*
X112596940Y-61236160D01*
X112650000Y-61236160D01*
X112718121Y-61256162D01*
X112764614Y-61309818D01*
X112776000Y-61362160D01*
X112776000Y-74602800D01*
X112755998Y-74670921D01*
X112702342Y-74717414D01*
X112650000Y-74728800D01*
X112606106Y-74728800D01*
X112350539Y-74762446D01*
X112101533Y-74829167D01*
X112014390Y-74865263D01*
X111863371Y-74927817D01*
X111863360Y-74927822D01*
X111640130Y-75056704D01*
X111640124Y-75056708D01*
X111435620Y-75213630D01*
X111435599Y-75213649D01*
X111253349Y-75395899D01*
X111253330Y-75395920D01*
X111096408Y-75600424D01*
X111096404Y-75600430D01*
X110967522Y-75823660D01*
X110967517Y-75823671D01*
X110868867Y-76061833D01*
X110802146Y-76310839D01*
X110768500Y-76566406D01*
X110768500Y-76824193D01*
X110802146Y-77079760D01*
X110802147Y-77079766D01*
X110802148Y-77079768D01*
X110868867Y-77328767D01*
X110967516Y-77566927D01*
X110967517Y-77566928D01*
X110967522Y-77566939D01*
X111096404Y-77790169D01*
X111096408Y-77790175D01*
X111253330Y-77994679D01*
X111253349Y-77994700D01*
X111435599Y-78176950D01*
X111435609Y-78176959D01*
X111435615Y-78176965D01*
X111435618Y-78176967D01*
X111435620Y-78176969D01*
X111640124Y-78333891D01*
X111640130Y-78333895D01*
X111863360Y-78462777D01*
X111863364Y-78462778D01*
X111863373Y-78462784D01*
X112101533Y-78561433D01*
X112350532Y-78628152D01*
X112350538Y-78628152D01*
X112350539Y-78628153D01*
X112379861Y-78632013D01*
X112606109Y-78661800D01*
X112606116Y-78661800D01*
X112863884Y-78661800D01*
X112863891Y-78661800D01*
X113119468Y-78628152D01*
X113368467Y-78561433D01*
X113606627Y-78462784D01*
X113829873Y-78333893D01*
X114034385Y-78176965D01*
X114216665Y-77994685D01*
X114373593Y-77790173D01*
X114375423Y-77787002D01*
X114426805Y-77738008D01*
X114484544Y-77724000D01*
X152223200Y-77724000D01*
X152291321Y-77744002D01*
X152337814Y-77797658D01*
X152349200Y-77850000D01*
X152349200Y-89098700D01*
X152329198Y-89166821D01*
X152275542Y-89213314D01*
X152223200Y-89224700D01*
X135787392Y-89224700D01*
X135754744Y-89227270D01*
X135723658Y-89232194D01*
X135719050Y-89232977D01*
X135633643Y-89269481D01*
X135583354Y-89306017D01*
X135583330Y-89306036D01*
X135555166Y-89330642D01*
X135555165Y-89330644D01*
X135507529Y-89410375D01*
X135488316Y-89469504D01*
X135478100Y-89534003D01*
X135478100Y-96038407D01*
X135480670Y-96071055D01*
X135485594Y-96102141D01*
X135486377Y-96106749D01*
X135522881Y-96192156D01*
X135559417Y-96242445D01*
X135559436Y-96242469D01*
X135584042Y-96270633D01*
X135584044Y-96270634D01*
X135663777Y-96318272D01*
X135722908Y-96337485D01*
X135787400Y-96347700D01*
X135787403Y-96347700D01*
X152223200Y-96347700D01*
X152291321Y-96367702D01*
X152337814Y-96421358D01*
X152349200Y-96473700D01*
X152349200Y-141351500D01*
X152329198Y-141419621D01*
X152275542Y-141466114D01*
X152223200Y-141477500D01*
X109912959Y-141477500D01*
X109912943Y-141477499D01*
X109905225Y-141477499D01*
X109804775Y-141477499D01*
X109756261Y-141490498D01*
X109707745Y-141503498D01*
X109620756Y-141553721D01*
X109620746Y-141553729D01*
X106812882Y-144361595D01*
X106750570Y-144395621D01*
X106723787Y-144398500D01*
X103634165Y-144398500D01*
X103629863Y-144398427D01*
X103090315Y-144379995D01*
X103081732Y-144379407D01*
X102546889Y-144324424D01*
X102538365Y-144323253D01*
X102008481Y-144231891D01*
X102000058Y-144230140D01*
X101477677Y-144102840D01*
X101469392Y-144100519D01*
X100956901Y-143937862D01*
X100948794Y-143934981D01*
X100448590Y-143737725D01*
X100440699Y-143734297D01*
X99955139Y-143503375D01*
X99947500Y-143499417D01*
X99478823Y-143235893D01*
X99471472Y-143231423D01*
X99386829Y-143175906D01*
X99021863Y-142936525D01*
X99014835Y-142931564D01*
X98586413Y-142606680D01*
X98579742Y-142601254D01*
X98174467Y-142247872D01*
X98168180Y-142241999D01*
X97788000Y-141861819D01*
X97782127Y-141855532D01*
X97428745Y-141450257D01*
X97423316Y-141443583D01*
X97353487Y-141351500D01*
X97098430Y-141015157D01*
X97093473Y-141008135D01*
X96798568Y-140558514D01*
X96794114Y-140551190D01*
X96530582Y-140082499D01*
X96526624Y-140074860D01*
X96295702Y-139589300D01*
X96292274Y-139581409D01*
X96254885Y-139486597D01*
X96095010Y-139081184D01*
X96092144Y-139073119D01*
X95929475Y-138560589D01*
X95927164Y-138552340D01*
X95799857Y-138029932D01*
X95798108Y-138021518D01*
X95764449Y-137826299D01*
X95706742Y-137491609D01*
X95705578Y-137483135D01*
X95650591Y-136948254D01*
X95650004Y-136939684D01*
X95631573Y-136400136D01*
X95631500Y-136395834D01*
X95631500Y-134346630D01*
X110628500Y-134346630D01*
X110628500Y-134622769D01*
X110664541Y-134896532D01*
X110664542Y-134896538D01*
X110664543Y-134896540D01*
X110736012Y-135163265D01*
X110841684Y-135418380D01*
X110841685Y-135418381D01*
X110841690Y-135418392D01*
X110979751Y-135657521D01*
X111147846Y-135876586D01*
X111147865Y-135876607D01*
X111343092Y-136071834D01*
X111343102Y-136071843D01*
X111343108Y-136071849D01*
X111343111Y-136071851D01*
X111343113Y-136071853D01*
X111562178Y-136239948D01*
X111801307Y-136378009D01*
X111801311Y-136378010D01*
X111801320Y-136378016D01*
X112056435Y-136483688D01*
X112323160Y-136555157D01*
X112323166Y-136555157D01*
X112323167Y-136555158D01*
X112354581Y-136559293D01*
X112596933Y-136591200D01*
X112596940Y-136591200D01*
X112873060Y-136591200D01*
X112873067Y-136591200D01*
X113146840Y-136555157D01*
X113413565Y-136483688D01*
X113668680Y-136378016D01*
X113907820Y-136239949D01*
X114126892Y-136071849D01*
X114322149Y-135876592D01*
X114490249Y-135657520D01*
X114628316Y-135418380D01*
X114733988Y-135163265D01*
X114805457Y-134896540D01*
X114841500Y-134622767D01*
X114841500Y-134346633D01*
X114805457Y-134072860D01*
X114733988Y-133806135D01*
X114628316Y-133551020D01*
X114628310Y-133551011D01*
X114628309Y-133551007D01*
X114490248Y-133311878D01*
X114322153Y-133092813D01*
X114322151Y-133092811D01*
X114322149Y-133092808D01*
X114322143Y-133092802D01*
X114322134Y-133092792D01*
X114126907Y-132897565D01*
X114126886Y-132897546D01*
X113907821Y-132729451D01*
X113668692Y-132591390D01*
X113668684Y-132591386D01*
X113668680Y-132591384D01*
X113413565Y-132485712D01*
X113146840Y-132414243D01*
X113146838Y-132414242D01*
X113146832Y-132414241D01*
X112873069Y-132378200D01*
X112873067Y-132378200D01*
X112596933Y-132378200D01*
X112596930Y-132378200D01*
X112323167Y-132414241D01*
X112056439Y-132485711D01*
X112056435Y-132485712D01*
X111801318Y-132591385D01*
X111801307Y-132591390D01*
X111562178Y-132729451D01*
X111343113Y-132897546D01*
X111343092Y-132897565D01*
X111147865Y-133092792D01*
X111147846Y-133092813D01*
X110979751Y-133311878D01*
X110841690Y-133551007D01*
X110841685Y-133551018D01*
X110736012Y-133806135D01*
X110736011Y-133806139D01*
X110664541Y-134072867D01*
X110628500Y-134346630D01*
X95631500Y-134346630D01*
X95631500Y-124008711D01*
X97637100Y-124008711D01*
X97637100Y-124149289D01*
X97641463Y-124165572D01*
X97673483Y-124285075D01*
X97673486Y-124285082D01*
X97743772Y-124406820D01*
X97743774Y-124406823D01*
X97843176Y-124506225D01*
X97843179Y-124506227D01*
X97939198Y-124561664D01*
X97964922Y-124576516D01*
X98023806Y-124592293D01*
X98084428Y-124629245D01*
X98115449Y-124693105D01*
X98107021Y-124763600D01*
X98061818Y-124818347D01*
X98023807Y-124835706D01*
X97996096Y-124843131D01*
X97964924Y-124851483D01*
X97964917Y-124851486D01*
X97843179Y-124921772D01*
X97843176Y-124921774D01*
X97743774Y-125021176D01*
X97743772Y-125021179D01*
X97673486Y-125142917D01*
X97673483Y-125142924D01*
X97650416Y-125229011D01*
X97637100Y-125278711D01*
X97637100Y-125419289D01*
X97651525Y-125473124D01*
X97673483Y-125555075D01*
X97673486Y-125555082D01*
X97743772Y-125676820D01*
X97743774Y-125676823D01*
X97843176Y-125776225D01*
X97843179Y-125776227D01*
X97939198Y-125831664D01*
X97964922Y-125846516D01*
X98023806Y-125862293D01*
X98084428Y-125899245D01*
X98115449Y-125963105D01*
X98107021Y-126033600D01*
X98061818Y-126088347D01*
X98023807Y-126105706D01*
X97996096Y-126113131D01*
X97964924Y-126121483D01*
X97964917Y-126121486D01*
X97843179Y-126191772D01*
X97843176Y-126191774D01*
X97743774Y-126291176D01*
X97743772Y-126291179D01*
X97673486Y-126412917D01*
X97673483Y-126412924D01*
X97657517Y-126472511D01*
X97637100Y-126548711D01*
X97637100Y-126689289D01*
X97641463Y-126705572D01*
X97673483Y-126825075D01*
X97673486Y-126825082D01*
X97743772Y-126946820D01*
X97743774Y-126946823D01*
X97843176Y-127046225D01*
X97843179Y-127046227D01*
X97899212Y-127078578D01*
X97964922Y-127116516D01*
X98023806Y-127132293D01*
X98084428Y-127169245D01*
X98115449Y-127233105D01*
X98107021Y-127303600D01*
X98061818Y-127358347D01*
X98023807Y-127375706D01*
X97996096Y-127383131D01*
X97964924Y-127391483D01*
X97964917Y-127391486D01*
X97843179Y-127461772D01*
X97843176Y-127461774D01*
X97743774Y-127561176D01*
X97743772Y-127561179D01*
X97673486Y-127682917D01*
X97673483Y-127682924D01*
X97650416Y-127769011D01*
X97637100Y-127818711D01*
X97637100Y-127959289D01*
X97641463Y-127975572D01*
X97673483Y-128095075D01*
X97673486Y-128095082D01*
X97743772Y-128216820D01*
X97743774Y-128216823D01*
X97843176Y-128316225D01*
X97843179Y-128316227D01*
X97939198Y-128371664D01*
X97964922Y-128386516D01*
X98023806Y-128402293D01*
X98084428Y-128439245D01*
X98115449Y-128503105D01*
X98107021Y-128573600D01*
X98061818Y-128628347D01*
X98023807Y-128645706D01*
X97996096Y-128653131D01*
X97964924Y-128661483D01*
X97964917Y-128661486D01*
X97843179Y-128731772D01*
X97843176Y-128731774D01*
X97743774Y-128831176D01*
X97743772Y-128831179D01*
X97673486Y-128952917D01*
X97673483Y-128952924D01*
X97650416Y-129039011D01*
X97637100Y-129088711D01*
X97637100Y-129229289D01*
X97641463Y-129245572D01*
X97673483Y-129365075D01*
X97673486Y-129365082D01*
X97743772Y-129486820D01*
X97743774Y-129486823D01*
X97843176Y-129586225D01*
X97843179Y-129586227D01*
X97939198Y-129641664D01*
X97964922Y-129656516D01*
X98100711Y-129692900D01*
X98100713Y-129692900D01*
X98241287Y-129692900D01*
X98241289Y-129692900D01*
X98377078Y-129656516D01*
X98498822Y-129586226D01*
X98598226Y-129486822D01*
X98668516Y-129365078D01*
X98684294Y-129306192D01*
X98721244Y-129245572D01*
X98785105Y-129214550D01*
X98855599Y-129222978D01*
X98910346Y-129268181D01*
X98927705Y-129306190D01*
X98943484Y-129365078D01*
X98943485Y-129365080D01*
X98943486Y-129365082D01*
X99013772Y-129486820D01*
X99013774Y-129486823D01*
X99113176Y-129586225D01*
X99113179Y-129586227D01*
X99209198Y-129641664D01*
X99234922Y-129656516D01*
X99370711Y-129692900D01*
X99370713Y-129692900D01*
X99511287Y-129692900D01*
X99511289Y-129692900D01*
X99647078Y-129656516D01*
X99768822Y-129586226D01*
X99868226Y-129486822D01*
X99938516Y-129365078D01*
X99954294Y-129306192D01*
X99991244Y-129245572D01*
X100055105Y-129214550D01*
X100125599Y-129222978D01*
X100180346Y-129268181D01*
X100197705Y-129306190D01*
X100213484Y-129365078D01*
X100213485Y-129365080D01*
X100213486Y-129365082D01*
X100283772Y-129486820D01*
X100283774Y-129486823D01*
X100383176Y-129586225D01*
X100383179Y-129586227D01*
X100479198Y-129641664D01*
X100504922Y-129656516D01*
X100640711Y-129692900D01*
X100640713Y-129692900D01*
X100781287Y-129692900D01*
X100781289Y-129692900D01*
X100917078Y-129656516D01*
X101038822Y-129586226D01*
X101138226Y-129486822D01*
X101208516Y-129365078D01*
X101224294Y-129306192D01*
X101261244Y-129245572D01*
X101325105Y-129214550D01*
X101395599Y-129222978D01*
X101450346Y-129268181D01*
X101467705Y-129306190D01*
X101483484Y-129365078D01*
X101483485Y-129365080D01*
X101483486Y-129365082D01*
X101553772Y-129486820D01*
X101553774Y-129486823D01*
X101653176Y-129586225D01*
X101653179Y-129586227D01*
X101749198Y-129641664D01*
X101774922Y-129656516D01*
X101910711Y-129692900D01*
X101910713Y-129692900D01*
X102051287Y-129692900D01*
X102051289Y-129692900D01*
X102187078Y-129656516D01*
X102308822Y-129586226D01*
X102408226Y-129486822D01*
X102478516Y-129365078D01*
X102494294Y-129306192D01*
X102531244Y-129245572D01*
X102595105Y-129214550D01*
X102665599Y-129222978D01*
X102720346Y-129268181D01*
X102737705Y-129306190D01*
X102753484Y-129365078D01*
X102753485Y-129365080D01*
X102753486Y-129365082D01*
X102823772Y-129486820D01*
X102823774Y-129486823D01*
X102923176Y-129586225D01*
X102923179Y-129586227D01*
X103019198Y-129641664D01*
X103044922Y-129656516D01*
X103180711Y-129692900D01*
X103180713Y-129692900D01*
X103321287Y-129692900D01*
X103321289Y-129692900D01*
X103457078Y-129656516D01*
X103578822Y-129586226D01*
X103678226Y-129486822D01*
X103748516Y-129365078D01*
X103784900Y-129229289D01*
X103784900Y-129088711D01*
X103748516Y-128952922D01*
X103678226Y-128831178D01*
X103678225Y-128831176D01*
X103578823Y-128731774D01*
X103578820Y-128731772D01*
X103457082Y-128661486D01*
X103457080Y-128661485D01*
X103457078Y-128661484D01*
X103398192Y-128645705D01*
X103337572Y-128608756D01*
X103306550Y-128544895D01*
X103314978Y-128474401D01*
X103360181Y-128419654D01*
X103398190Y-128402294D01*
X103457078Y-128386516D01*
X103578822Y-128316226D01*
X103678226Y-128216822D01*
X103748516Y-128095078D01*
X103784900Y-127959289D01*
X103784900Y-127818711D01*
X103748516Y-127682922D01*
X103678226Y-127561178D01*
X103678225Y-127561176D01*
X103578823Y-127461774D01*
X103578820Y-127461772D01*
X103457082Y-127391486D01*
X103457080Y-127391485D01*
X103457078Y-127391484D01*
X103398192Y-127375705D01*
X103337572Y-127338756D01*
X103306550Y-127274895D01*
X103314978Y-127204401D01*
X103360181Y-127149654D01*
X103398190Y-127132294D01*
X103457078Y-127116516D01*
X103578822Y-127046226D01*
X103678226Y-126946822D01*
X103748516Y-126825078D01*
X103784900Y-126689289D01*
X103784900Y-126548711D01*
X103748516Y-126412922D01*
X103733664Y-126387198D01*
X103678227Y-126291179D01*
X103678225Y-126291176D01*
X103578823Y-126191774D01*
X103578820Y-126191772D01*
X103457082Y-126121486D01*
X103457080Y-126121485D01*
X103457078Y-126121484D01*
X103398192Y-126105705D01*
X103337572Y-126068756D01*
X103306550Y-126004895D01*
X103314978Y-125934401D01*
X103360181Y-125879654D01*
X103398190Y-125862294D01*
X103457078Y-125846516D01*
X103578822Y-125776226D01*
X103678226Y-125676822D01*
X103717435Y-125608911D01*
X117195100Y-125608911D01*
X117195100Y-125749489D01*
X117221097Y-125846513D01*
X117231483Y-125885275D01*
X117231486Y-125885282D01*
X117301772Y-126007020D01*
X117301774Y-126007023D01*
X117316656Y-126021905D01*
X117350682Y-126084217D01*
X117345617Y-126155032D01*
X117316656Y-126200095D01*
X117301774Y-126214976D01*
X117301772Y-126214979D01*
X117231486Y-126336717D01*
X117231484Y-126336722D01*
X117195100Y-126472511D01*
X117195100Y-126613089D01*
X117219880Y-126705572D01*
X117231483Y-126748875D01*
X117231486Y-126748882D01*
X117301772Y-126870620D01*
X117301774Y-126870623D01*
X117316655Y-126885504D01*
X117350681Y-126947816D01*
X117345616Y-127018631D01*
X117316658Y-127063692D01*
X117301772Y-127078578D01*
X117231486Y-127200316D01*
X117231483Y-127200323D01*
X117211502Y-127274895D01*
X117195100Y-127336110D01*
X117195100Y-127476688D01*
X117217738Y-127561176D01*
X117231483Y-127612474D01*
X117231486Y-127612481D01*
X117301772Y-127734219D01*
X117301774Y-127734222D01*
X117401176Y-127833624D01*
X117401179Y-127833626D01*
X117497198Y-127889063D01*
X117522922Y-127903915D01*
X117658711Y-127940299D01*
X117658713Y-127940299D01*
X117799287Y-127940299D01*
X117799289Y-127940299D01*
X117935078Y-127903915D01*
X118056822Y-127833625D01*
X118156226Y-127734221D01*
X118226516Y-127612477D01*
X118262900Y-127476688D01*
X118262900Y-127336110D01*
X118226516Y-127200321D01*
X118197263Y-127149654D01*
X118156227Y-127078578D01*
X118156225Y-127078575D01*
X118141344Y-127063694D01*
X118107318Y-127001382D01*
X118112383Y-126930567D01*
X118141344Y-126885503D01*
X118156226Y-126870622D01*
X118226516Y-126748878D01*
X118262900Y-126613089D01*
X118262900Y-126472511D01*
X118226516Y-126336722D01*
X118156226Y-126214978D01*
X118156225Y-126214976D01*
X118141344Y-126200095D01*
X118107318Y-126137783D01*
X118112383Y-126066968D01*
X118141344Y-126021905D01*
X118156225Y-126007023D01*
X118156227Y-126007020D01*
X118198154Y-125934401D01*
X118226516Y-125885278D01*
X118262900Y-125749489D01*
X118262900Y-125608911D01*
X118226516Y-125473122D01*
X118191791Y-125412978D01*
X118156227Y-125351379D01*
X118156225Y-125351376D01*
X118056823Y-125251974D01*
X118056820Y-125251972D01*
X117935082Y-125181686D01*
X117935079Y-125181685D01*
X117935078Y-125181684D01*
X117935076Y-125181683D01*
X117935075Y-125181683D01*
X117898688Y-125171933D01*
X117799289Y-125145300D01*
X117658711Y-125145300D01*
X117585945Y-125164797D01*
X117522924Y-125181683D01*
X117522917Y-125181686D01*
X117401179Y-125251972D01*
X117401176Y-125251974D01*
X117301774Y-125351376D01*
X117301772Y-125351379D01*
X117231486Y-125473117D01*
X117231484Y-125473122D01*
X117195100Y-125608911D01*
X103717435Y-125608911D01*
X103748516Y-125555078D01*
X103784900Y-125419289D01*
X103784900Y-125278711D01*
X103748516Y-125142922D01*
X103678226Y-125021178D01*
X103678225Y-125021176D01*
X103578823Y-124921774D01*
X103578820Y-124921772D01*
X103457082Y-124851486D01*
X103457080Y-124851485D01*
X103457078Y-124851484D01*
X103398192Y-124835705D01*
X103337572Y-124798756D01*
X103306550Y-124734895D01*
X103314978Y-124664401D01*
X103360181Y-124609654D01*
X103398190Y-124592294D01*
X103457078Y-124576516D01*
X103578822Y-124506226D01*
X103678226Y-124406822D01*
X103748516Y-124285078D01*
X103784900Y-124149289D01*
X103784900Y-124008711D01*
X103748516Y-123872922D01*
X103678226Y-123751178D01*
X103678225Y-123751176D01*
X103578823Y-123651774D01*
X103578820Y-123651772D01*
X103457082Y-123581486D01*
X103457079Y-123581485D01*
X103457078Y-123581484D01*
X103457076Y-123581483D01*
X103457075Y-123581483D01*
X103420688Y-123571733D01*
X103321289Y-123545100D01*
X103180711Y-123545100D01*
X103107945Y-123564597D01*
X103044924Y-123581483D01*
X103044917Y-123581486D01*
X102923179Y-123651772D01*
X102923176Y-123651774D01*
X102823774Y-123751176D01*
X102823772Y-123751179D01*
X102753486Y-123872917D01*
X102753483Y-123872924D01*
X102737707Y-123931805D01*
X102700755Y-123992428D01*
X102636895Y-124023449D01*
X102566400Y-124015021D01*
X102511653Y-123969818D01*
X102494293Y-123931805D01*
X102478516Y-123872922D01*
X102408226Y-123751178D01*
X102408225Y-123751176D01*
X102308823Y-123651774D01*
X102308820Y-123651772D01*
X102187082Y-123581486D01*
X102187079Y-123581485D01*
X102187078Y-123581484D01*
X102187076Y-123581483D01*
X102187075Y-123581483D01*
X102150688Y-123571733D01*
X102051289Y-123545100D01*
X101910711Y-123545100D01*
X101837945Y-123564597D01*
X101774924Y-123581483D01*
X101774917Y-123581486D01*
X101653179Y-123651772D01*
X101653176Y-123651774D01*
X101553774Y-123751176D01*
X101553772Y-123751179D01*
X101483486Y-123872917D01*
X101483483Y-123872924D01*
X101467707Y-123931805D01*
X101430755Y-123992428D01*
X101366895Y-124023449D01*
X101296400Y-124015021D01*
X101241653Y-123969818D01*
X101224293Y-123931805D01*
X101208516Y-123872922D01*
X101138226Y-123751178D01*
X101138225Y-123751176D01*
X101038823Y-123651774D01*
X101038820Y-123651772D01*
X100917082Y-123581486D01*
X100917079Y-123581485D01*
X100917078Y-123581484D01*
X100917076Y-123581483D01*
X100917075Y-123581483D01*
X100880688Y-123571733D01*
X100781289Y-123545100D01*
X100640711Y-123545100D01*
X100567945Y-123564597D01*
X100504924Y-123581483D01*
X100504917Y-123581486D01*
X100383179Y-123651772D01*
X100383176Y-123651774D01*
X100283774Y-123751176D01*
X100283772Y-123751179D01*
X100213486Y-123872917D01*
X100213483Y-123872924D01*
X100197707Y-123931805D01*
X100160755Y-123992428D01*
X100096895Y-124023449D01*
X100026400Y-124015021D01*
X99971653Y-123969818D01*
X99954293Y-123931805D01*
X99938516Y-123872922D01*
X99868226Y-123751178D01*
X99868225Y-123751176D01*
X99768823Y-123651774D01*
X99768820Y-123651772D01*
X99647082Y-123581486D01*
X99647079Y-123581485D01*
X99647078Y-123581484D01*
X99647076Y-123581483D01*
X99647075Y-123581483D01*
X99610688Y-123571733D01*
X99511289Y-123545100D01*
X99370711Y-123545100D01*
X99297945Y-123564597D01*
X99234924Y-123581483D01*
X99234917Y-123581486D01*
X99113179Y-123651772D01*
X99113176Y-123651774D01*
X99013774Y-123751176D01*
X99013772Y-123751179D01*
X98943486Y-123872917D01*
X98943483Y-123872924D01*
X98927707Y-123931805D01*
X98890755Y-123992428D01*
X98826895Y-124023449D01*
X98756400Y-124015021D01*
X98701653Y-123969818D01*
X98684293Y-123931805D01*
X98668516Y-123872922D01*
X98598226Y-123751178D01*
X98598225Y-123751176D01*
X98498823Y-123651774D01*
X98498820Y-123651772D01*
X98377082Y-123581486D01*
X98377079Y-123581485D01*
X98377078Y-123581484D01*
X98377076Y-123581483D01*
X98377075Y-123581483D01*
X98340688Y-123571733D01*
X98241289Y-123545100D01*
X98100711Y-123545100D01*
X98027945Y-123564597D01*
X97964924Y-123581483D01*
X97964917Y-123581486D01*
X97843179Y-123651772D01*
X97843176Y-123651774D01*
X97743774Y-123751176D01*
X97743772Y-123751179D01*
X97673486Y-123872917D01*
X97673483Y-123872924D01*
X97650416Y-123959011D01*
X97637100Y-124008711D01*
X95631500Y-124008711D01*
X95631500Y-116850806D01*
X110768500Y-116850806D01*
X110768500Y-117108593D01*
X110802146Y-117364160D01*
X110802147Y-117364166D01*
X110802148Y-117364168D01*
X110868867Y-117613167D01*
X110967516Y-117851327D01*
X110967517Y-117851328D01*
X110967522Y-117851339D01*
X111096404Y-118074569D01*
X111096408Y-118074575D01*
X111253330Y-118279079D01*
X111253349Y-118279100D01*
X111435599Y-118461350D01*
X111435609Y-118461359D01*
X111435615Y-118461365D01*
X111435618Y-118461367D01*
X111435620Y-118461369D01*
X111640124Y-118618291D01*
X111640130Y-118618295D01*
X111863360Y-118747177D01*
X111863364Y-118747178D01*
X111863373Y-118747184D01*
X112101533Y-118845833D01*
X112350532Y-118912552D01*
X112350538Y-118912552D01*
X112350539Y-118912553D01*
X112379861Y-118916413D01*
X112606109Y-118946200D01*
X112606116Y-118946200D01*
X112863884Y-118946200D01*
X112863891Y-118946200D01*
X113119468Y-118912552D01*
X113368467Y-118845833D01*
X113606627Y-118747184D01*
X113829873Y-118618293D01*
X114034385Y-118461365D01*
X114216665Y-118279085D01*
X114373593Y-118074573D01*
X114502484Y-117851327D01*
X114601133Y-117613167D01*
X114667852Y-117364168D01*
X114701500Y-117108591D01*
X114701500Y-116850809D01*
X114667852Y-116595232D01*
X114601133Y-116346233D01*
X114502484Y-116108073D01*
X114502478Y-116108064D01*
X114502477Y-116108060D01*
X114373595Y-115884830D01*
X114373591Y-115884824D01*
X114216669Y-115680320D01*
X114216667Y-115680318D01*
X114216665Y-115680315D01*
X114216659Y-115680309D01*
X114216650Y-115680299D01*
X114034400Y-115498049D01*
X114034379Y-115498030D01*
X113829875Y-115341108D01*
X113829869Y-115341104D01*
X113606639Y-115212222D01*
X113606631Y-115212218D01*
X113606627Y-115212216D01*
X113368467Y-115113567D01*
X113119468Y-115046848D01*
X113119466Y-115046847D01*
X113119460Y-115046846D01*
X112863893Y-115013200D01*
X112863891Y-115013200D01*
X112606109Y-115013200D01*
X112606106Y-115013200D01*
X112350539Y-115046846D01*
X112101533Y-115113567D01*
X111863371Y-115212217D01*
X111863360Y-115212222D01*
X111640130Y-115341104D01*
X111640124Y-115341108D01*
X111435620Y-115498030D01*
X111435599Y-115498049D01*
X111253349Y-115680299D01*
X111253330Y-115680320D01*
X111096408Y-115884824D01*
X111096404Y-115884830D01*
X110967522Y-116108060D01*
X110967517Y-116108071D01*
X110868867Y-116346233D01*
X110802146Y-116595239D01*
X110768500Y-116850806D01*
X95631500Y-116850806D01*
X95631500Y-114153511D01*
X147878300Y-114153511D01*
X147878300Y-114294089D01*
X147904933Y-114393488D01*
X147914683Y-114429875D01*
X147914686Y-114429882D01*
X147984972Y-114551620D01*
X147984974Y-114551623D01*
X148084376Y-114651025D01*
X148084379Y-114651027D01*
X148180398Y-114706464D01*
X148206122Y-114721316D01*
X148341911Y-114757700D01*
X148341913Y-114757700D01*
X148482487Y-114757700D01*
X148482489Y-114757700D01*
X148618278Y-114721316D01*
X148740022Y-114651026D01*
X148839426Y-114551622D01*
X148909716Y-114429878D01*
X148946100Y-114294089D01*
X148946100Y-114153511D01*
X148909716Y-114017722D01*
X148839426Y-113895978D01*
X148839425Y-113895976D01*
X148740023Y-113796574D01*
X148740020Y-113796572D01*
X148618282Y-113726286D01*
X148618279Y-113726285D01*
X148618278Y-113726284D01*
X148618276Y-113726283D01*
X148618275Y-113726283D01*
X148581888Y-113716533D01*
X148482489Y-113689900D01*
X148341911Y-113689900D01*
X148269145Y-113709397D01*
X148206124Y-113726283D01*
X148206117Y-113726286D01*
X148084379Y-113796572D01*
X148084376Y-113796574D01*
X147984974Y-113895976D01*
X147984972Y-113895979D01*
X147914686Y-114017717D01*
X147914684Y-114017722D01*
X147878300Y-114153511D01*
X95631500Y-114153511D01*
X95631500Y-110666711D01*
X124752900Y-110666711D01*
X124752900Y-110807289D01*
X124779533Y-110906688D01*
X124789283Y-110943075D01*
X124789286Y-110943082D01*
X124859572Y-111064820D01*
X124859574Y-111064823D01*
X124958976Y-111164225D01*
X124958979Y-111164227D01*
X125054998Y-111219664D01*
X125080722Y-111234516D01*
X125216511Y-111270900D01*
X125216513Y-111270900D01*
X125357087Y-111270900D01*
X125357089Y-111270900D01*
X125492878Y-111234516D01*
X125614622Y-111164226D01*
X125714026Y-111064822D01*
X125784316Y-110943078D01*
X125820700Y-110807289D01*
X125820700Y-110666711D01*
X125818181Y-110657311D01*
X137447900Y-110657311D01*
X137447900Y-110797889D01*
X137450419Y-110807289D01*
X137484283Y-110933675D01*
X137484286Y-110933682D01*
X137554572Y-111055420D01*
X137554574Y-111055423D01*
X137653976Y-111154825D01*
X137653979Y-111154827D01*
X137749998Y-111210264D01*
X137775722Y-111225116D01*
X137911511Y-111261500D01*
X137911513Y-111261500D01*
X138052087Y-111261500D01*
X138052089Y-111261500D01*
X138187878Y-111225116D01*
X138309622Y-111154826D01*
X138409026Y-111055422D01*
X138479316Y-110933678D01*
X138515700Y-110797889D01*
X138515700Y-110657311D01*
X138479316Y-110521522D01*
X138414454Y-110409179D01*
X138409027Y-110399779D01*
X138409025Y-110399776D01*
X138309623Y-110300374D01*
X138309620Y-110300372D01*
X138187882Y-110230086D01*
X138187879Y-110230085D01*
X138187878Y-110230084D01*
X138187876Y-110230083D01*
X138187875Y-110230083D01*
X138151488Y-110220333D01*
X138052089Y-110193700D01*
X137911511Y-110193700D01*
X137838745Y-110213197D01*
X137775724Y-110230083D01*
X137775717Y-110230086D01*
X137653979Y-110300372D01*
X137653976Y-110300374D01*
X137554574Y-110399776D01*
X137554572Y-110399779D01*
X137484286Y-110521517D01*
X137484283Y-110521524D01*
X137461216Y-110607611D01*
X137447900Y-110657311D01*
X125818181Y-110657311D01*
X125784316Y-110530922D01*
X125714026Y-110409178D01*
X125714025Y-110409176D01*
X125614623Y-110309774D01*
X125614620Y-110309772D01*
X125492882Y-110239486D01*
X125492879Y-110239485D01*
X125492878Y-110239484D01*
X125492876Y-110239483D01*
X125492875Y-110239483D01*
X125456488Y-110229733D01*
X125357089Y-110203100D01*
X125216511Y-110203100D01*
X125143745Y-110222597D01*
X125080724Y-110239483D01*
X125080717Y-110239486D01*
X124958979Y-110309772D01*
X124958976Y-110309774D01*
X124859574Y-110409176D01*
X124859572Y-110409179D01*
X124789286Y-110530917D01*
X124789284Y-110530922D01*
X124752900Y-110666711D01*
X95631500Y-110666711D01*
X95631500Y-107447911D01*
X111099100Y-107447911D01*
X111099100Y-107588489D01*
X111125733Y-107687888D01*
X111135483Y-107724275D01*
X111135486Y-107724282D01*
X111205772Y-107846020D01*
X111205774Y-107846023D01*
X111305176Y-107945425D01*
X111305179Y-107945427D01*
X111379423Y-107988292D01*
X111426922Y-108015716D01*
X111562711Y-108052100D01*
X111562713Y-108052100D01*
X111703287Y-108052100D01*
X111703289Y-108052100D01*
X111839078Y-108015716D01*
X111960822Y-107945426D01*
X112060226Y-107846022D01*
X112130516Y-107724278D01*
X112166900Y-107588489D01*
X112166900Y-107447911D01*
X112130516Y-107312122D01*
X112060226Y-107190378D01*
X112060225Y-107190376D01*
X111960823Y-107090974D01*
X111960820Y-107090972D01*
X111839082Y-107020686D01*
X111839079Y-107020685D01*
X111839078Y-107020684D01*
X111839076Y-107020683D01*
X111839075Y-107020683D01*
X111794789Y-107008817D01*
X111703289Y-106984300D01*
X111562711Y-106984300D01*
X111489945Y-107003797D01*
X111426924Y-107020683D01*
X111426917Y-107020686D01*
X111305179Y-107090972D01*
X111305176Y-107090974D01*
X111205774Y-107190376D01*
X111205772Y-107190379D01*
X111135486Y-107312117D01*
X111135484Y-107312122D01*
X111099100Y-107447911D01*
X95631500Y-107447911D01*
X95631500Y-106330311D01*
X113080300Y-106330311D01*
X113080300Y-106470889D01*
X113086129Y-106492642D01*
X113116683Y-106606675D01*
X113116686Y-106606682D01*
X113186972Y-106728420D01*
X113186974Y-106728423D01*
X113286376Y-106827825D01*
X113286379Y-106827827D01*
X113382398Y-106883264D01*
X113408122Y-106898116D01*
X113543911Y-106934500D01*
X113543913Y-106934500D01*
X113684487Y-106934500D01*
X113684489Y-106934500D01*
X113820278Y-106898116D01*
X113942022Y-106827826D01*
X114041426Y-106728422D01*
X114111716Y-106606678D01*
X114131321Y-106533511D01*
X116814100Y-106533511D01*
X116814100Y-106674089D01*
X116828659Y-106728423D01*
X116850483Y-106809875D01*
X116850486Y-106809882D01*
X116920772Y-106931620D01*
X116920774Y-106931623D01*
X116935656Y-106946505D01*
X116969682Y-107008817D01*
X116964617Y-107079632D01*
X116935656Y-107124695D01*
X116920774Y-107139576D01*
X116920772Y-107139579D01*
X116850486Y-107261317D01*
X116850484Y-107261322D01*
X116814100Y-107397111D01*
X116814100Y-107537689D01*
X116827711Y-107588487D01*
X116850483Y-107673475D01*
X116850486Y-107673482D01*
X116920772Y-107795220D01*
X116920774Y-107795223D01*
X116935655Y-107810104D01*
X116969681Y-107872416D01*
X116964616Y-107943231D01*
X116935658Y-107988292D01*
X116920772Y-108003178D01*
X116850486Y-108124916D01*
X116850484Y-108124921D01*
X116814100Y-108260710D01*
X116814100Y-108401288D01*
X116840733Y-108500687D01*
X116850483Y-108537074D01*
X116850486Y-108537081D01*
X116920772Y-108658819D01*
X116920774Y-108658822D01*
X117020176Y-108758224D01*
X117020179Y-108758226D01*
X117030000Y-108763896D01*
X117141922Y-108828515D01*
X117277711Y-108864899D01*
X117277713Y-108864899D01*
X117418287Y-108864899D01*
X117418289Y-108864899D01*
X117554078Y-108828515D01*
X117666000Y-108763896D01*
X117734995Y-108747158D01*
X117792000Y-108763896D01*
X117903922Y-108828515D01*
X118039711Y-108864899D01*
X118039713Y-108864899D01*
X118180287Y-108864899D01*
X118180289Y-108864899D01*
X118316078Y-108828515D01*
X118437822Y-108758225D01*
X118537226Y-108658821D01*
X118607516Y-108537077D01*
X118643900Y-108401288D01*
X118643900Y-108260710D01*
X118607516Y-108124921D01*
X118537226Y-108003177D01*
X118537225Y-108003175D01*
X118522344Y-107988294D01*
X118488318Y-107925982D01*
X118493383Y-107855167D01*
X118522344Y-107810103D01*
X118537226Y-107795222D01*
X118607516Y-107673478D01*
X118643900Y-107537689D01*
X118643900Y-107397111D01*
X118607516Y-107261322D01*
X118592664Y-107235598D01*
X118537227Y-107139579D01*
X118537225Y-107139576D01*
X118522344Y-107124695D01*
X118488318Y-107062383D01*
X118493383Y-106991568D01*
X118522344Y-106946505D01*
X118537225Y-106931623D01*
X118537227Y-106931620D01*
X118556571Y-106898116D01*
X118607516Y-106809878D01*
X118643900Y-106674089D01*
X118643900Y-106533511D01*
X118607516Y-106397722D01*
X118537226Y-106275978D01*
X118537225Y-106275976D01*
X118437823Y-106176574D01*
X118437820Y-106176572D01*
X118316082Y-106106286D01*
X118316079Y-106106285D01*
X118316078Y-106106284D01*
X118316076Y-106106283D01*
X118316075Y-106106283D01*
X118279688Y-106096533D01*
X118180289Y-106069900D01*
X118039711Y-106069900D01*
X117966945Y-106089397D01*
X117903924Y-106106283D01*
X117903917Y-106106286D01*
X117792000Y-106170902D01*
X117723004Y-106187640D01*
X117666000Y-106170902D01*
X117554082Y-106106286D01*
X117554079Y-106106285D01*
X117554078Y-106106284D01*
X117554076Y-106106283D01*
X117554075Y-106106283D01*
X117517688Y-106096533D01*
X117418289Y-106069900D01*
X117277711Y-106069900D01*
X117204945Y-106089397D01*
X117141924Y-106106283D01*
X117141917Y-106106286D01*
X117020179Y-106176572D01*
X117020176Y-106176574D01*
X116920774Y-106275976D01*
X116920772Y-106275979D01*
X116850486Y-106397717D01*
X116850484Y-106397722D01*
X116814100Y-106533511D01*
X114131321Y-106533511D01*
X114148100Y-106470889D01*
X114148100Y-106330311D01*
X114111716Y-106194522D01*
X114060771Y-106106284D01*
X114041427Y-106072779D01*
X114041425Y-106072776D01*
X113942023Y-105973374D01*
X113942020Y-105973372D01*
X113820282Y-105903086D01*
X113820279Y-105903085D01*
X113820278Y-105903084D01*
X113820276Y-105903083D01*
X113820275Y-105903083D01*
X113783888Y-105893333D01*
X113684489Y-105866700D01*
X113543911Y-105866700D01*
X113471145Y-105886197D01*
X113408124Y-105903083D01*
X113408117Y-105903086D01*
X113286379Y-105973372D01*
X113286376Y-105973374D01*
X113186974Y-106072776D01*
X113186972Y-106072779D01*
X113116686Y-106194517D01*
X113116684Y-106194522D01*
X113080300Y-106330311D01*
X95631500Y-106330311D01*
X95631500Y-102287511D01*
X135851900Y-102287511D01*
X135851900Y-102428089D01*
X135878533Y-102527488D01*
X135888283Y-102563875D01*
X135888286Y-102563882D01*
X135958572Y-102685620D01*
X135958574Y-102685623D01*
X136057976Y-102785025D01*
X136057979Y-102785027D01*
X136153998Y-102840464D01*
X136179722Y-102855316D01*
X136315511Y-102891700D01*
X136315513Y-102891700D01*
X136456087Y-102891700D01*
X136456089Y-102891700D01*
X136591878Y-102855316D01*
X136713622Y-102785026D01*
X136813026Y-102685622D01*
X136883316Y-102563878D01*
X136919700Y-102428089D01*
X136919700Y-102287511D01*
X136883316Y-102151722D01*
X136813026Y-102029978D01*
X136813025Y-102029976D01*
X136713623Y-101930574D01*
X136713620Y-101930572D01*
X136591882Y-101860286D01*
X136591879Y-101860285D01*
X136591878Y-101860284D01*
X136591876Y-101860283D01*
X136591875Y-101860283D01*
X136555488Y-101850533D01*
X136456089Y-101823900D01*
X136315511Y-101823900D01*
X136242745Y-101843397D01*
X136179724Y-101860283D01*
X136179717Y-101860286D01*
X136057979Y-101930572D01*
X136057976Y-101930574D01*
X135958574Y-102029976D01*
X135958572Y-102029979D01*
X135888286Y-102151717D01*
X135888284Y-102151722D01*
X135851900Y-102287511D01*
X95631500Y-102287511D01*
X95631500Y-101079710D01*
X109528600Y-101079710D01*
X109528600Y-101220288D01*
X109539516Y-101261026D01*
X109564983Y-101356074D01*
X109564986Y-101356081D01*
X109635272Y-101477819D01*
X109635274Y-101477822D01*
X109734676Y-101577224D01*
X109734679Y-101577226D01*
X109830698Y-101632663D01*
X109856422Y-101647515D01*
X109992211Y-101683899D01*
X109992213Y-101683899D01*
X110132787Y-101683899D01*
X110132789Y-101683899D01*
X110268578Y-101647515D01*
X110390322Y-101577225D01*
X110489726Y-101477821D01*
X110560016Y-101356077D01*
X110596400Y-101220288D01*
X110596400Y-101079710D01*
X111803600Y-101079710D01*
X111803600Y-101220288D01*
X111814516Y-101261026D01*
X111839983Y-101356074D01*
X111839986Y-101356081D01*
X111910272Y-101477819D01*
X111910274Y-101477822D01*
X112009676Y-101577224D01*
X112009679Y-101577226D01*
X112105698Y-101632663D01*
X112131422Y-101647515D01*
X112267211Y-101683899D01*
X112267213Y-101683899D01*
X112407787Y-101683899D01*
X112407789Y-101683899D01*
X112543578Y-101647515D01*
X112665322Y-101577225D01*
X112764726Y-101477821D01*
X112835016Y-101356077D01*
X112871400Y-101220288D01*
X112871400Y-101079710D01*
X112835016Y-100943921D01*
X112812019Y-100904089D01*
X112764726Y-100822176D01*
X112706061Y-100763511D01*
X135851900Y-100763511D01*
X135851900Y-100904089D01*
X135878533Y-101003488D01*
X135888283Y-101039875D01*
X135888286Y-101039882D01*
X135958572Y-101161620D01*
X135958574Y-101161623D01*
X136057976Y-101261025D01*
X136057979Y-101261027D01*
X136153998Y-101316464D01*
X136179722Y-101331316D01*
X136315511Y-101367700D01*
X136315513Y-101367700D01*
X136456087Y-101367700D01*
X136456089Y-101367700D01*
X136591878Y-101331316D01*
X136713622Y-101261026D01*
X136813026Y-101161622D01*
X136883316Y-101039878D01*
X136919700Y-100904089D01*
X136919700Y-100763511D01*
X136883316Y-100627722D01*
X136868464Y-100601998D01*
X136813027Y-100505979D01*
X136813025Y-100505976D01*
X136713623Y-100406574D01*
X136713620Y-100406572D01*
X136591882Y-100336286D01*
X136591879Y-100336285D01*
X136591878Y-100336284D01*
X136591876Y-100336283D01*
X136591875Y-100336283D01*
X136555488Y-100326533D01*
X136456089Y-100299900D01*
X136315511Y-100299900D01*
X136242745Y-100319397D01*
X136179724Y-100336283D01*
X136179717Y-100336286D01*
X136057979Y-100406572D01*
X136057976Y-100406574D01*
X135958574Y-100505976D01*
X135958572Y-100505979D01*
X135888286Y-100627717D01*
X135888283Y-100627724D01*
X135876533Y-100671578D01*
X135851900Y-100763511D01*
X112706061Y-100763511D01*
X112665323Y-100722773D01*
X112665320Y-100722771D01*
X112543582Y-100652485D01*
X112543579Y-100652484D01*
X112543578Y-100652483D01*
X112543576Y-100652482D01*
X112543575Y-100652482D01*
X112507188Y-100642732D01*
X112407789Y-100616099D01*
X112267211Y-100616099D01*
X112194445Y-100635596D01*
X112131424Y-100652482D01*
X112131417Y-100652485D01*
X112009679Y-100722771D01*
X112009676Y-100722773D01*
X111910274Y-100822175D01*
X111910272Y-100822178D01*
X111839986Y-100943916D01*
X111839984Y-100943921D01*
X111803600Y-101079710D01*
X110596400Y-101079710D01*
X110560016Y-100943921D01*
X110537019Y-100904089D01*
X110489727Y-100822178D01*
X110489725Y-100822175D01*
X110390323Y-100722773D01*
X110390320Y-100722771D01*
X110268582Y-100652485D01*
X110268579Y-100652484D01*
X110268578Y-100652483D01*
X110268576Y-100652482D01*
X110268575Y-100652482D01*
X110232188Y-100642732D01*
X110132789Y-100616099D01*
X109992211Y-100616099D01*
X109919445Y-100635596D01*
X109856424Y-100652482D01*
X109856417Y-100652485D01*
X109734679Y-100722771D01*
X109734676Y-100722773D01*
X109635274Y-100822175D01*
X109635272Y-100822178D01*
X109564986Y-100943916D01*
X109564984Y-100943921D01*
X109528600Y-101079710D01*
X95631500Y-101079710D01*
X95631500Y-100090911D01*
X144220700Y-100090911D01*
X144220700Y-100231489D01*
X144247333Y-100330888D01*
X144257083Y-100367275D01*
X144257086Y-100367282D01*
X144327372Y-100489020D01*
X144327374Y-100489023D01*
X144329556Y-100491205D01*
X144330807Y-100493497D01*
X144332399Y-100495571D01*
X144332075Y-100495819D01*
X144363582Y-100553517D01*
X144358517Y-100624332D01*
X144332374Y-100665009D01*
X144332399Y-100665029D01*
X144332170Y-100665326D01*
X144329556Y-100669395D01*
X144327374Y-100671576D01*
X144327372Y-100671579D01*
X144257086Y-100793317D01*
X144257083Y-100793324D01*
X144249352Y-100822177D01*
X144220700Y-100929111D01*
X144220700Y-101069689D01*
X144245333Y-101161622D01*
X144257083Y-101205475D01*
X144257086Y-101205482D01*
X144327372Y-101327220D01*
X144327374Y-101327223D01*
X144426776Y-101426625D01*
X144426779Y-101426627D01*
X144515449Y-101477821D01*
X144548522Y-101496916D01*
X144684311Y-101533300D01*
X144684313Y-101533300D01*
X144824887Y-101533300D01*
X144824889Y-101533300D01*
X144960678Y-101496916D01*
X145082422Y-101426626D01*
X145181826Y-101327222D01*
X145252116Y-101205478D01*
X145288500Y-101069689D01*
X145288500Y-100929111D01*
X145252116Y-100793322D01*
X145181826Y-100671578D01*
X145179646Y-100669398D01*
X145178394Y-100667105D01*
X145176801Y-100665029D01*
X145177124Y-100664780D01*
X145145619Y-100607091D01*
X145150680Y-100536275D01*
X145176826Y-100495590D01*
X145176801Y-100495571D01*
X145177030Y-100495271D01*
X145179646Y-100491201D01*
X145181826Y-100489022D01*
X145252116Y-100367278D01*
X145288500Y-100231489D01*
X145288500Y-100090911D01*
X145252116Y-99955122D01*
X145181826Y-99833378D01*
X145181825Y-99833376D01*
X145082423Y-99733974D01*
X145082420Y-99733972D01*
X144960682Y-99663686D01*
X144960679Y-99663685D01*
X144960678Y-99663684D01*
X144960676Y-99663683D01*
X144960675Y-99663683D01*
X144924288Y-99653933D01*
X144824889Y-99627300D01*
X144684311Y-99627300D01*
X144611545Y-99646797D01*
X144548524Y-99663683D01*
X144548517Y-99663686D01*
X144426779Y-99733972D01*
X144426776Y-99733974D01*
X144327374Y-99833376D01*
X144327372Y-99833379D01*
X144257086Y-99955117D01*
X144257084Y-99955122D01*
X144220700Y-100090911D01*
X95631500Y-100090911D01*
X95631500Y-99179712D01*
X109528600Y-99179712D01*
X109528600Y-99320290D01*
X109555233Y-99419689D01*
X109564983Y-99456076D01*
X109564986Y-99456083D01*
X109635272Y-99577821D01*
X109635274Y-99577824D01*
X109734676Y-99677226D01*
X109734679Y-99677228D01*
X109830698Y-99732665D01*
X109856422Y-99747517D01*
X109992211Y-99783901D01*
X109992213Y-99783901D01*
X110132787Y-99783901D01*
X110132789Y-99783901D01*
X110268578Y-99747517D01*
X110390322Y-99677227D01*
X110489726Y-99577823D01*
X110560016Y-99456079D01*
X110596400Y-99320290D01*
X110596400Y-99179712D01*
X111803600Y-99179712D01*
X111803600Y-99320290D01*
X111830233Y-99419689D01*
X111839983Y-99456076D01*
X111839986Y-99456083D01*
X111910272Y-99577821D01*
X111910274Y-99577824D01*
X112009676Y-99677226D01*
X112009679Y-99677228D01*
X112105698Y-99732665D01*
X112131422Y-99747517D01*
X112267211Y-99783901D01*
X112267213Y-99783901D01*
X112407787Y-99783901D01*
X112407789Y-99783901D01*
X112543578Y-99747517D01*
X112665322Y-99677227D01*
X112764726Y-99577823D01*
X112835016Y-99456079D01*
X112871400Y-99320290D01*
X112871400Y-99179712D01*
X112835016Y-99043923D01*
X112820164Y-99018199D01*
X112764727Y-98922180D01*
X112764725Y-98922177D01*
X112665323Y-98822775D01*
X112665320Y-98822773D01*
X112543582Y-98752487D01*
X112543579Y-98752486D01*
X112543578Y-98752485D01*
X112543576Y-98752484D01*
X112543575Y-98752484D01*
X112507188Y-98742734D01*
X112407789Y-98716101D01*
X112267211Y-98716101D01*
X112194445Y-98735598D01*
X112131424Y-98752484D01*
X112131417Y-98752487D01*
X112009679Y-98822773D01*
X112009676Y-98822775D01*
X111910274Y-98922177D01*
X111910272Y-98922180D01*
X111839986Y-99043918D01*
X111839983Y-99043925D01*
X111834490Y-99064426D01*
X111803600Y-99179712D01*
X110596400Y-99179712D01*
X110560016Y-99043923D01*
X110545164Y-99018199D01*
X110489727Y-98922180D01*
X110489725Y-98922177D01*
X110390323Y-98822775D01*
X110390320Y-98822773D01*
X110268582Y-98752487D01*
X110268579Y-98752486D01*
X110268578Y-98752485D01*
X110268576Y-98752484D01*
X110268575Y-98752484D01*
X110232188Y-98742734D01*
X110132789Y-98716101D01*
X109992211Y-98716101D01*
X109919445Y-98735598D01*
X109856424Y-98752484D01*
X109856417Y-98752487D01*
X109734679Y-98822773D01*
X109734676Y-98822775D01*
X109635274Y-98922177D01*
X109635272Y-98922180D01*
X109564986Y-99043918D01*
X109564983Y-99043925D01*
X109559490Y-99064426D01*
X109528600Y-99179712D01*
X95631500Y-99179712D01*
X95631500Y-98566911D01*
X145312900Y-98566911D01*
X145312900Y-98707489D01*
X145324957Y-98752487D01*
X145349283Y-98843275D01*
X145349286Y-98843282D01*
X145419572Y-98965020D01*
X145419574Y-98965023D01*
X145518976Y-99064425D01*
X145518979Y-99064427D01*
X145614998Y-99119864D01*
X145640722Y-99134716D01*
X145776511Y-99171100D01*
X145776513Y-99171100D01*
X145917087Y-99171100D01*
X145917089Y-99171100D01*
X146052878Y-99134716D01*
X146174622Y-99064426D01*
X146274026Y-98965022D01*
X146344316Y-98843278D01*
X146380700Y-98707489D01*
X146380700Y-98566911D01*
X146344316Y-98431122D01*
X146274026Y-98309378D01*
X146274025Y-98309376D01*
X146174623Y-98209974D01*
X146174620Y-98209972D01*
X146052882Y-98139686D01*
X146052879Y-98139685D01*
X146052878Y-98139684D01*
X146052876Y-98139683D01*
X146052875Y-98139683D01*
X146016488Y-98129933D01*
X145917089Y-98103300D01*
X145776511Y-98103300D01*
X145703745Y-98122797D01*
X145640724Y-98139683D01*
X145640717Y-98139686D01*
X145518979Y-98209972D01*
X145518976Y-98209974D01*
X145419574Y-98309376D01*
X145419572Y-98309379D01*
X145349286Y-98431117D01*
X145349284Y-98431122D01*
X145312900Y-98566911D01*
X95631500Y-98566911D01*
X95631500Y-97679710D01*
X109528600Y-97679710D01*
X109528600Y-97820288D01*
X109538193Y-97856089D01*
X109564983Y-97956074D01*
X109564986Y-97956081D01*
X109635272Y-98077819D01*
X109635274Y-98077822D01*
X109734676Y-98177224D01*
X109734679Y-98177226D01*
X109791400Y-98209974D01*
X109856422Y-98247515D01*
X109992211Y-98283899D01*
X109992213Y-98283899D01*
X110132787Y-98283899D01*
X110132789Y-98283899D01*
X110268578Y-98247515D01*
X110390322Y-98177225D01*
X110489726Y-98077821D01*
X110560016Y-97956077D01*
X110596400Y-97820288D01*
X110596400Y-97679710D01*
X110560016Y-97543921D01*
X110505392Y-97449311D01*
X123291100Y-97449311D01*
X123291100Y-97589889D01*
X123296929Y-97611642D01*
X123327483Y-97725675D01*
X123327486Y-97725682D01*
X123397772Y-97847420D01*
X123397774Y-97847423D01*
X123497176Y-97946825D01*
X123497179Y-97946827D01*
X123575204Y-97991875D01*
X123618922Y-98017116D01*
X123754711Y-98053500D01*
X123754713Y-98053500D01*
X123895287Y-98053500D01*
X123895289Y-98053500D01*
X124031078Y-98017116D01*
X124152822Y-97946826D01*
X124252226Y-97847422D01*
X124322516Y-97725678D01*
X124342121Y-97652511D01*
X135914900Y-97652511D01*
X135914900Y-97793089D01*
X135929459Y-97847423D01*
X135951283Y-97928875D01*
X135951286Y-97928882D01*
X136021572Y-98050620D01*
X136021574Y-98050623D01*
X136120976Y-98150025D01*
X136120979Y-98150027D01*
X136168087Y-98177225D01*
X136242722Y-98220316D01*
X136378511Y-98256700D01*
X136378513Y-98256700D01*
X136519087Y-98256700D01*
X136519089Y-98256700D01*
X136654878Y-98220316D01*
X136776622Y-98150026D01*
X136876026Y-98050622D01*
X136946316Y-97928878D01*
X136982700Y-97793089D01*
X136982700Y-97702511D01*
X137438900Y-97702511D01*
X137438900Y-97843089D01*
X137461886Y-97928875D01*
X137475283Y-97978875D01*
X137475286Y-97978882D01*
X137545572Y-98100620D01*
X137545574Y-98100623D01*
X137644976Y-98200025D01*
X137644979Y-98200027D01*
X137727225Y-98247512D01*
X137766722Y-98270316D01*
X137902511Y-98306700D01*
X137902513Y-98306700D01*
X138043087Y-98306700D01*
X138043089Y-98306700D01*
X138178878Y-98270316D01*
X138300622Y-98200026D01*
X138400026Y-98100622D01*
X138470316Y-97978878D01*
X138506700Y-97843089D01*
X138506700Y-97715511D01*
X138949900Y-97715511D01*
X138949900Y-97856089D01*
X138969405Y-97928882D01*
X138986283Y-97991875D01*
X138986286Y-97991882D01*
X139056572Y-98113620D01*
X139056574Y-98113623D01*
X139155976Y-98213025D01*
X139155979Y-98213027D01*
X139215714Y-98247515D01*
X139277722Y-98283316D01*
X139413511Y-98319700D01*
X139413513Y-98319700D01*
X139554087Y-98319700D01*
X139554089Y-98319700D01*
X139689878Y-98283316D01*
X139811622Y-98213026D01*
X139911026Y-98113622D01*
X139981316Y-97991878D01*
X140017700Y-97856089D01*
X140017700Y-97715511D01*
X139981316Y-97579722D01*
X139944944Y-97516724D01*
X139911027Y-97457979D01*
X139911025Y-97457976D01*
X139811623Y-97358574D01*
X139811620Y-97358572D01*
X139689882Y-97288286D01*
X139689879Y-97288285D01*
X139689878Y-97288284D01*
X139689876Y-97288283D01*
X139689875Y-97288283D01*
X139641368Y-97275286D01*
X139554089Y-97251900D01*
X139413511Y-97251900D01*
X139340745Y-97271397D01*
X139277724Y-97288283D01*
X139277717Y-97288286D01*
X139155979Y-97358572D01*
X139155976Y-97358574D01*
X139056574Y-97457976D01*
X139056572Y-97457979D01*
X138986286Y-97579717D01*
X138986283Y-97579724D01*
X138966780Y-97652512D01*
X138949900Y-97715511D01*
X138506700Y-97715511D01*
X138506700Y-97702511D01*
X138470316Y-97566722D01*
X138441445Y-97516717D01*
X138400027Y-97444979D01*
X138400025Y-97444976D01*
X138300623Y-97345574D01*
X138300620Y-97345572D01*
X138178882Y-97275286D01*
X138178879Y-97275285D01*
X138178878Y-97275284D01*
X138178876Y-97275283D01*
X138178875Y-97275283D01*
X138142488Y-97265533D01*
X138043089Y-97238900D01*
X137902511Y-97238900D01*
X137829745Y-97258397D01*
X137766724Y-97275283D01*
X137766717Y-97275286D01*
X137644979Y-97345572D01*
X137644976Y-97345574D01*
X137545574Y-97444976D01*
X137545572Y-97444979D01*
X137475286Y-97566717D01*
X137475283Y-97566724D01*
X137463248Y-97611642D01*
X137438900Y-97702511D01*
X136982700Y-97702511D01*
X136982700Y-97652511D01*
X136946316Y-97516722D01*
X136912400Y-97457978D01*
X136876027Y-97394979D01*
X136876025Y-97394976D01*
X136776623Y-97295574D01*
X136776620Y-97295572D01*
X136654882Y-97225286D01*
X136654879Y-97225285D01*
X136654878Y-97225284D01*
X136654876Y-97225283D01*
X136654875Y-97225283D01*
X136618488Y-97215533D01*
X136519089Y-97188900D01*
X136378511Y-97188900D01*
X136305745Y-97208397D01*
X136242724Y-97225283D01*
X136242717Y-97225286D01*
X136120979Y-97295572D01*
X136120976Y-97295574D01*
X136021574Y-97394976D01*
X136021572Y-97394979D01*
X135951286Y-97516717D01*
X135951283Y-97516724D01*
X135937888Y-97566717D01*
X135914900Y-97652511D01*
X124342121Y-97652511D01*
X124358900Y-97589889D01*
X124358900Y-97449311D01*
X124322516Y-97313522D01*
X124286938Y-97251900D01*
X124252227Y-97191779D01*
X124252225Y-97191776D01*
X124152823Y-97092374D01*
X124152820Y-97092372D01*
X124031082Y-97022086D01*
X124031079Y-97022085D01*
X124031078Y-97022084D01*
X124031076Y-97022083D01*
X124031075Y-97022083D01*
X123994688Y-97012333D01*
X123895289Y-96985700D01*
X123754711Y-96985700D01*
X123681945Y-97005197D01*
X123618924Y-97022083D01*
X123618917Y-97022086D01*
X123497179Y-97092372D01*
X123497176Y-97092374D01*
X123397774Y-97191776D01*
X123397772Y-97191779D01*
X123327486Y-97313517D01*
X123327483Y-97313524D01*
X123305659Y-97394976D01*
X123291100Y-97449311D01*
X110505392Y-97449311D01*
X110502891Y-97444979D01*
X110489727Y-97422178D01*
X110489725Y-97422175D01*
X110390323Y-97322773D01*
X110390320Y-97322771D01*
X110268582Y-97252485D01*
X110268579Y-97252484D01*
X110268578Y-97252483D01*
X110268576Y-97252482D01*
X110268575Y-97252482D01*
X110232188Y-97242732D01*
X110132789Y-97216099D01*
X109992211Y-97216099D01*
X109919445Y-97235596D01*
X109856424Y-97252482D01*
X109856417Y-97252485D01*
X109734679Y-97322771D01*
X109734676Y-97322773D01*
X109635274Y-97422175D01*
X109635272Y-97422178D01*
X109564986Y-97543916D01*
X109564983Y-97543923D01*
X109552667Y-97589889D01*
X109528600Y-97679710D01*
X95631500Y-97679710D01*
X95631500Y-95779712D01*
X109528600Y-95779712D01*
X109528600Y-95920290D01*
X109555233Y-96019689D01*
X109564983Y-96056076D01*
X109564986Y-96056083D01*
X109635272Y-96177821D01*
X109635274Y-96177824D01*
X109734676Y-96277226D01*
X109734679Y-96277228D01*
X109779175Y-96302918D01*
X109856422Y-96347517D01*
X109992211Y-96383901D01*
X109992213Y-96383901D01*
X110132787Y-96383901D01*
X110132789Y-96383901D01*
X110268578Y-96347517D01*
X110390322Y-96277227D01*
X110489726Y-96177823D01*
X110560016Y-96056079D01*
X110596400Y-95920290D01*
X110596400Y-95779712D01*
X110560016Y-95643923D01*
X110489726Y-95522179D01*
X110489725Y-95522177D01*
X110390323Y-95422775D01*
X110390320Y-95422773D01*
X110268582Y-95352487D01*
X110268579Y-95352486D01*
X110268578Y-95352485D01*
X110268576Y-95352484D01*
X110268575Y-95352484D01*
X110232188Y-95342734D01*
X110132789Y-95316101D01*
X109992211Y-95316101D01*
X109919445Y-95335598D01*
X109856424Y-95352484D01*
X109856417Y-95352487D01*
X109734679Y-95422773D01*
X109734676Y-95422775D01*
X109635274Y-95522177D01*
X109635272Y-95522180D01*
X109564986Y-95643918D01*
X109564984Y-95643923D01*
X109528600Y-95779712D01*
X95631500Y-95779712D01*
X95631500Y-88829711D01*
X128266100Y-88829711D01*
X128266100Y-88970289D01*
X128285961Y-89044413D01*
X128302483Y-89106075D01*
X128302486Y-89106082D01*
X128372772Y-89227820D01*
X128372774Y-89227823D01*
X128472176Y-89327225D01*
X128472179Y-89327227D01*
X128568198Y-89382664D01*
X128593922Y-89397516D01*
X128729711Y-89433900D01*
X128729713Y-89433900D01*
X128870287Y-89433900D01*
X128870289Y-89433900D01*
X129006078Y-89397516D01*
X129127822Y-89327226D01*
X129227226Y-89227822D01*
X129297516Y-89106078D01*
X129333900Y-88970289D01*
X129333900Y-88829711D01*
X129297516Y-88693922D01*
X129272673Y-88650894D01*
X129227227Y-88572179D01*
X129227225Y-88572176D01*
X129127823Y-88472774D01*
X129127820Y-88472772D01*
X129006082Y-88402486D01*
X129006079Y-88402485D01*
X129006078Y-88402484D01*
X129006076Y-88402483D01*
X129006075Y-88402483D01*
X128957340Y-88389425D01*
X128870289Y-88366100D01*
X128729711Y-88366100D01*
X128662309Y-88384160D01*
X128593924Y-88402483D01*
X128593917Y-88402486D01*
X128472179Y-88472772D01*
X128472176Y-88472774D01*
X128372774Y-88572176D01*
X128372772Y-88572179D01*
X128302486Y-88693917D01*
X128302483Y-88693924D01*
X128289769Y-88741375D01*
X128266100Y-88829711D01*
X95631500Y-88829711D01*
X95631500Y-86950111D01*
X116941100Y-86950111D01*
X116941100Y-87090689D01*
X116967733Y-87190088D01*
X116977483Y-87226475D01*
X116977486Y-87226482D01*
X117047772Y-87348220D01*
X117047774Y-87348223D01*
X117147176Y-87447625D01*
X117147179Y-87447627D01*
X117150983Y-87449823D01*
X117268922Y-87517916D01*
X117404711Y-87554300D01*
X117404713Y-87554300D01*
X117545287Y-87554300D01*
X117545289Y-87554300D01*
X117681078Y-87517916D01*
X117802822Y-87447626D01*
X117902226Y-87348222D01*
X117972516Y-87226478D01*
X118008900Y-87090689D01*
X118008900Y-86950111D01*
X117972516Y-86814322D01*
X117952293Y-86779295D01*
X117902227Y-86692579D01*
X117902225Y-86692576D01*
X117802823Y-86593174D01*
X117802820Y-86593172D01*
X117681082Y-86522886D01*
X117681079Y-86522885D01*
X117681078Y-86522884D01*
X117681076Y-86522883D01*
X117681075Y-86522883D01*
X117644688Y-86513133D01*
X117545289Y-86486500D01*
X117404711Y-86486500D01*
X117331945Y-86505997D01*
X117268924Y-86522883D01*
X117268917Y-86522886D01*
X117147179Y-86593172D01*
X117147176Y-86593174D01*
X117047774Y-86692576D01*
X117047772Y-86692579D01*
X116977486Y-86814317D01*
X116977484Y-86814322D01*
X116941100Y-86950111D01*
X95631500Y-86950111D01*
X95631500Y-85326687D01*
X124427799Y-85326687D01*
X124427799Y-85467265D01*
X124454432Y-85566664D01*
X124464182Y-85603051D01*
X124464185Y-85603058D01*
X124534471Y-85724796D01*
X124534473Y-85724799D01*
X124551417Y-85741743D01*
X124585443Y-85804055D01*
X124580378Y-85874870D01*
X124551420Y-85919931D01*
X124540772Y-85930578D01*
X124540772Y-85930579D01*
X124470486Y-86052317D01*
X124470484Y-86052322D01*
X124434100Y-86188111D01*
X124434100Y-86328689D01*
X124460733Y-86428088D01*
X124470483Y-86464475D01*
X124470486Y-86464482D01*
X124540772Y-86586220D01*
X124540774Y-86586223D01*
X124555656Y-86601105D01*
X124589682Y-86663417D01*
X124584617Y-86734232D01*
X124555656Y-86779295D01*
X124540774Y-86794176D01*
X124540772Y-86794179D01*
X124470486Y-86915917D01*
X124470484Y-86915922D01*
X124434100Y-87051711D01*
X124434100Y-87192289D01*
X124443260Y-87226475D01*
X124470483Y-87328075D01*
X124470486Y-87328082D01*
X124540772Y-87449820D01*
X124540774Y-87449823D01*
X124640176Y-87549225D01*
X124640179Y-87549227D01*
X124648966Y-87554300D01*
X124761922Y-87619516D01*
X124897711Y-87655900D01*
X124897713Y-87655900D01*
X125038287Y-87655900D01*
X125038289Y-87655900D01*
X125174078Y-87619516D01*
X125295822Y-87549226D01*
X125395226Y-87449822D01*
X125465516Y-87328078D01*
X125501900Y-87192289D01*
X125501900Y-87051711D01*
X125465516Y-86915922D01*
X125450664Y-86890198D01*
X125395227Y-86794179D01*
X125395225Y-86794176D01*
X125380344Y-86779295D01*
X125346318Y-86716983D01*
X125351383Y-86646168D01*
X125380344Y-86601105D01*
X125395225Y-86586223D01*
X125395227Y-86586220D01*
X125465516Y-86464478D01*
X125501900Y-86328689D01*
X125501900Y-86188111D01*
X125465516Y-86052322D01*
X125395226Y-85930578D01*
X125395225Y-85930576D01*
X125378281Y-85913632D01*
X125344255Y-85851320D01*
X125349320Y-85780505D01*
X125378281Y-85735441D01*
X125388925Y-85724798D01*
X125459215Y-85603054D01*
X125495599Y-85467265D01*
X125495599Y-85326687D01*
X125799399Y-85326687D01*
X125799399Y-85467265D01*
X125826032Y-85566664D01*
X125835782Y-85603051D01*
X125835785Y-85603058D01*
X125906071Y-85724796D01*
X125906073Y-85724799D01*
X125923017Y-85741743D01*
X125957043Y-85804055D01*
X125951978Y-85874870D01*
X125923020Y-85919931D01*
X125912372Y-85930578D01*
X125912372Y-85930579D01*
X125842086Y-86052317D01*
X125842084Y-86052322D01*
X125805700Y-86188111D01*
X125805700Y-86328689D01*
X125832333Y-86428088D01*
X125842083Y-86464475D01*
X125842086Y-86464482D01*
X125912372Y-86586220D01*
X125912374Y-86586223D01*
X125927256Y-86601105D01*
X125961282Y-86663417D01*
X125956217Y-86734232D01*
X125927256Y-86779295D01*
X125912374Y-86794176D01*
X125912372Y-86794179D01*
X125842086Y-86915917D01*
X125842084Y-86915922D01*
X125805700Y-87051711D01*
X125805700Y-87192289D01*
X125814860Y-87226475D01*
X125842083Y-87328075D01*
X125842086Y-87328082D01*
X125912372Y-87449820D01*
X125912374Y-87449823D01*
X126011776Y-87549225D01*
X126011779Y-87549227D01*
X126020566Y-87554300D01*
X126133522Y-87619516D01*
X126269311Y-87655900D01*
X126269313Y-87655900D01*
X126409887Y-87655900D01*
X126409889Y-87655900D01*
X126545678Y-87619516D01*
X126667422Y-87549226D01*
X126766826Y-87449822D01*
X126837116Y-87328078D01*
X126873500Y-87192289D01*
X126873500Y-87051711D01*
X126837116Y-86915922D01*
X126822264Y-86890198D01*
X126766827Y-86794179D01*
X126766825Y-86794176D01*
X126751944Y-86779295D01*
X126717918Y-86716983D01*
X126722983Y-86646168D01*
X126751944Y-86601105D01*
X126766825Y-86586223D01*
X126766827Y-86586220D01*
X126837116Y-86464478D01*
X126873500Y-86328689D01*
X126873500Y-86188111D01*
X126837116Y-86052322D01*
X126766826Y-85930578D01*
X126766825Y-85930576D01*
X126749881Y-85913632D01*
X126715855Y-85851320D01*
X126720920Y-85780505D01*
X126749881Y-85735441D01*
X126760525Y-85724798D01*
X126830815Y-85603054D01*
X126867199Y-85467265D01*
X126867199Y-85326687D01*
X126830815Y-85190898D01*
X126760525Y-85069154D01*
X126760524Y-85069152D01*
X126661122Y-84969750D01*
X126661119Y-84969748D01*
X126539381Y-84899462D01*
X126539378Y-84899461D01*
X126539377Y-84899460D01*
X126539375Y-84899459D01*
X126539374Y-84899459D01*
X126502987Y-84889709D01*
X126403588Y-84863076D01*
X126263010Y-84863076D01*
X126190244Y-84882573D01*
X126127223Y-84899459D01*
X126127216Y-84899462D01*
X126005478Y-84969748D01*
X126005475Y-84969750D01*
X125906073Y-85069152D01*
X125906071Y-85069155D01*
X125835785Y-85190893D01*
X125835783Y-85190898D01*
X125799399Y-85326687D01*
X125495599Y-85326687D01*
X125459215Y-85190898D01*
X125388925Y-85069154D01*
X125388924Y-85069152D01*
X125289522Y-84969750D01*
X125289519Y-84969748D01*
X125167781Y-84899462D01*
X125167778Y-84899461D01*
X125167777Y-84899460D01*
X125167775Y-84899459D01*
X125167774Y-84899459D01*
X125131387Y-84889709D01*
X125031988Y-84863076D01*
X124891410Y-84863076D01*
X124818644Y-84882573D01*
X124755623Y-84899459D01*
X124755616Y-84899462D01*
X124633878Y-84969748D01*
X124633875Y-84969750D01*
X124534473Y-85069152D01*
X124534471Y-85069155D01*
X124464185Y-85190893D01*
X124464183Y-85190898D01*
X124427799Y-85326687D01*
X95631500Y-85326687D01*
X95631500Y-84557511D01*
X135787900Y-84557511D01*
X135787900Y-84698089D01*
X135814533Y-84797488D01*
X135824283Y-84833875D01*
X135824286Y-84833882D01*
X135894572Y-84955620D01*
X135894574Y-84955623D01*
X135993976Y-85055025D01*
X135993979Y-85055027D01*
X136089998Y-85110464D01*
X136115722Y-85125316D01*
X136251511Y-85161700D01*
X136251513Y-85161700D01*
X136392087Y-85161700D01*
X136392089Y-85161700D01*
X136527878Y-85125316D01*
X136649622Y-85055026D01*
X136749026Y-84955622D01*
X136819316Y-84833878D01*
X136855700Y-84698089D01*
X136855700Y-84557511D01*
X136819316Y-84421722D01*
X136749026Y-84299978D01*
X136749025Y-84299976D01*
X136649623Y-84200574D01*
X136649620Y-84200572D01*
X136527882Y-84130286D01*
X136527879Y-84130285D01*
X136527878Y-84130284D01*
X136527876Y-84130283D01*
X136527875Y-84130283D01*
X136491488Y-84120533D01*
X136392089Y-84093900D01*
X136251511Y-84093900D01*
X136178745Y-84113397D01*
X136115724Y-84130283D01*
X136115717Y-84130286D01*
X135993979Y-84200572D01*
X135993976Y-84200574D01*
X135894574Y-84299976D01*
X135894572Y-84299979D01*
X135824286Y-84421717D01*
X135824284Y-84421722D01*
X135787900Y-84557511D01*
X95631500Y-84557511D01*
X95631500Y-83084311D01*
X132054100Y-83084311D01*
X132054100Y-83224889D01*
X132069852Y-83283677D01*
X132090483Y-83360675D01*
X132090486Y-83360682D01*
X132160772Y-83482420D01*
X132160774Y-83482423D01*
X132260176Y-83581825D01*
X132260179Y-83581827D01*
X132340516Y-83628210D01*
X132381922Y-83652116D01*
X132517711Y-83688500D01*
X132517713Y-83688500D01*
X132658287Y-83688500D01*
X132658289Y-83688500D01*
X132794078Y-83652116D01*
X132915822Y-83581826D01*
X133015226Y-83482422D01*
X133085516Y-83360678D01*
X133121900Y-83224889D01*
X133121900Y-83084311D01*
X142823700Y-83084311D01*
X142823700Y-83224889D01*
X142839452Y-83283677D01*
X142860083Y-83360675D01*
X142860086Y-83360682D01*
X142930372Y-83482420D01*
X142930374Y-83482423D01*
X143029776Y-83581825D01*
X143029779Y-83581827D01*
X143110116Y-83628210D01*
X143151522Y-83652116D01*
X143287311Y-83688500D01*
X143287313Y-83688500D01*
X143427887Y-83688500D01*
X143427889Y-83688500D01*
X143563678Y-83652116D01*
X143685422Y-83581826D01*
X143784826Y-83482422D01*
X143855116Y-83360678D01*
X143891500Y-83224889D01*
X143891500Y-83089310D01*
X145680700Y-83089310D01*
X145680700Y-83229888D01*
X145695113Y-83283677D01*
X145717083Y-83365674D01*
X145717086Y-83365681D01*
X145787372Y-83487419D01*
X145787374Y-83487422D01*
X145886776Y-83586824D01*
X145886779Y-83586826D01*
X145958458Y-83628210D01*
X146008522Y-83657115D01*
X146144311Y-83693499D01*
X146144313Y-83693499D01*
X146284887Y-83693499D01*
X146284889Y-83693499D01*
X146420678Y-83657115D01*
X146542422Y-83586825D01*
X146641826Y-83487421D01*
X146712116Y-83365677D01*
X146748500Y-83229888D01*
X146748500Y-83089310D01*
X146712116Y-82953521D01*
X146641826Y-82831777D01*
X146641825Y-82831775D01*
X146542423Y-82732373D01*
X146542420Y-82732371D01*
X146420682Y-82662085D01*
X146420679Y-82662084D01*
X146420678Y-82662083D01*
X146420676Y-82662082D01*
X146420675Y-82662082D01*
X146384288Y-82652332D01*
X146284889Y-82625699D01*
X146144311Y-82625699D01*
X146071545Y-82645196D01*
X146008524Y-82662082D01*
X146008517Y-82662085D01*
X145886779Y-82732371D01*
X145886776Y-82732373D01*
X145787374Y-82831775D01*
X145787372Y-82831778D01*
X145717086Y-82953516D01*
X145717084Y-82953521D01*
X145680700Y-83089310D01*
X143891500Y-83089310D01*
X143891500Y-83084311D01*
X143855116Y-82948522D01*
X143787713Y-82831778D01*
X143784827Y-82826779D01*
X143784825Y-82826776D01*
X143685423Y-82727374D01*
X143685420Y-82727372D01*
X143563682Y-82657086D01*
X143563679Y-82657085D01*
X143563678Y-82657084D01*
X143563676Y-82657083D01*
X143563675Y-82657083D01*
X143527288Y-82647333D01*
X143427889Y-82620700D01*
X143287311Y-82620700D01*
X143214545Y-82640197D01*
X143151524Y-82657083D01*
X143151517Y-82657086D01*
X143029779Y-82727372D01*
X143029776Y-82727374D01*
X142930374Y-82826776D01*
X142930372Y-82826779D01*
X142860086Y-82948517D01*
X142860083Y-82948524D01*
X142837016Y-83034611D01*
X142823700Y-83084311D01*
X133121900Y-83084311D01*
X133085516Y-82948522D01*
X133018113Y-82831778D01*
X133015227Y-82826779D01*
X133015225Y-82826776D01*
X132915823Y-82727374D01*
X132915820Y-82727372D01*
X132794082Y-82657086D01*
X132794079Y-82657085D01*
X132794078Y-82657084D01*
X132794076Y-82657083D01*
X132794075Y-82657083D01*
X132757688Y-82647333D01*
X132658289Y-82620700D01*
X132517711Y-82620700D01*
X132444945Y-82640197D01*
X132381924Y-82657083D01*
X132381917Y-82657086D01*
X132260179Y-82727372D01*
X132260176Y-82727374D01*
X132160774Y-82826776D01*
X132160772Y-82826779D01*
X132090486Y-82948517D01*
X132090483Y-82948524D01*
X132067416Y-83034611D01*
X132054100Y-83084311D01*
X95631500Y-83084311D01*
X95631500Y-81501309D01*
X142849100Y-81501309D01*
X142849100Y-81641887D01*
X142875733Y-81741286D01*
X142885483Y-81777673D01*
X142885486Y-81777680D01*
X142955772Y-81899418D01*
X142955774Y-81899421D01*
X143055176Y-81998823D01*
X143055179Y-81998825D01*
X143151198Y-82054262D01*
X143176922Y-82069114D01*
X143312711Y-82105498D01*
X143312713Y-82105498D01*
X143453287Y-82105498D01*
X143453289Y-82105498D01*
X143589078Y-82069114D01*
X143710822Y-81998824D01*
X143810226Y-81899420D01*
X143880516Y-81777676D01*
X143916900Y-81641887D01*
X143916900Y-81501309D01*
X143880516Y-81365520D01*
X143810226Y-81243776D01*
X143810225Y-81243774D01*
X143710823Y-81144372D01*
X143710820Y-81144370D01*
X143589082Y-81074084D01*
X143589079Y-81074083D01*
X143589078Y-81074082D01*
X143589076Y-81074081D01*
X143589075Y-81074081D01*
X143552688Y-81064331D01*
X143453289Y-81037698D01*
X143312711Y-81037698D01*
X143239945Y-81057195D01*
X143176924Y-81074081D01*
X143176917Y-81074084D01*
X143055179Y-81144370D01*
X143055176Y-81144372D01*
X142955774Y-81243774D01*
X142955772Y-81243777D01*
X142885486Y-81365515D01*
X142885484Y-81365520D01*
X142849100Y-81501309D01*
X95631500Y-81501309D01*
X95631500Y-79851309D01*
X142849100Y-79851309D01*
X142849100Y-79991887D01*
X142875733Y-80091286D01*
X142885483Y-80127673D01*
X142885486Y-80127680D01*
X142955772Y-80249418D01*
X142955774Y-80249421D01*
X143055176Y-80348823D01*
X143055179Y-80348825D01*
X143151198Y-80404262D01*
X143176922Y-80419114D01*
X143312711Y-80455498D01*
X143312713Y-80455498D01*
X143453287Y-80455498D01*
X143453289Y-80455498D01*
X143589078Y-80419114D01*
X143710822Y-80348824D01*
X143810226Y-80249420D01*
X143880516Y-80127676D01*
X143916900Y-79991887D01*
X143916900Y-79851309D01*
X143880516Y-79715520D01*
X143810226Y-79593776D01*
X143810225Y-79593774D01*
X143710823Y-79494372D01*
X143710820Y-79494370D01*
X143589082Y-79424084D01*
X143589079Y-79424083D01*
X143589078Y-79424082D01*
X143589076Y-79424081D01*
X143589075Y-79424081D01*
X143552688Y-79414331D01*
X143453289Y-79387698D01*
X143312711Y-79387698D01*
X143239945Y-79407195D01*
X143176924Y-79424081D01*
X143176917Y-79424084D01*
X143055179Y-79494370D01*
X143055176Y-79494372D01*
X142955774Y-79593774D01*
X142955772Y-79593777D01*
X142885486Y-79715515D01*
X142885484Y-79715520D01*
X142849100Y-79851309D01*
X95631500Y-79851309D01*
X95631500Y-75005587D01*
X102938500Y-75005587D01*
X102938500Y-75253733D01*
X102977319Y-75498825D01*
X102977320Y-75498830D01*
X103010330Y-75600424D01*
X103054000Y-75734826D01*
X103166656Y-75955926D01*
X103312513Y-76156681D01*
X103312515Y-76156683D01*
X103312517Y-76156686D01*
X103487973Y-76332142D01*
X103487976Y-76332144D01*
X103487979Y-76332147D01*
X103688734Y-76478004D01*
X103909834Y-76590660D01*
X104145829Y-76667339D01*
X104145830Y-76667339D01*
X104145835Y-76667341D01*
X104390927Y-76706160D01*
X104390930Y-76706160D01*
X104639070Y-76706160D01*
X104639073Y-76706160D01*
X104884165Y-76667341D01*
X105120166Y-76590660D01*
X105341266Y-76478004D01*
X105542021Y-76332147D01*
X105717487Y-76156681D01*
X105863344Y-75955926D01*
X105976000Y-75734826D01*
X106052681Y-75498825D01*
X106091500Y-75253733D01*
X106091500Y-75005587D01*
X106052681Y-74760495D01*
X105976000Y-74524494D01*
X105863344Y-74303394D01*
X105717487Y-74102639D01*
X105717484Y-74102636D01*
X105717482Y-74102633D01*
X105542026Y-73927177D01*
X105542023Y-73927175D01*
X105542021Y-73927173D01*
X105341266Y-73781316D01*
X105120166Y-73668660D01*
X105120163Y-73668659D01*
X105120161Y-73668658D01*
X104884168Y-73591980D01*
X104884172Y-73591980D01*
X104838540Y-73584752D01*
X104639073Y-73553160D01*
X104390927Y-73553160D01*
X104145835Y-73591979D01*
X104145829Y-73591980D01*
X103909838Y-73668658D01*
X103909832Y-73668661D01*
X103688730Y-73781318D01*
X103487976Y-73927175D01*
X103487973Y-73927177D01*
X103312517Y-74102633D01*
X103312515Y-74102636D01*
X103166658Y-74303390D01*
X103054001Y-74524492D01*
X103053998Y-74524498D01*
X102977320Y-74760489D01*
X102977319Y-74760494D01*
X102977319Y-74760495D01*
X102938500Y-75005587D01*
X95631500Y-75005587D01*
X95631500Y-64572711D01*
X97637100Y-64572711D01*
X97637100Y-64713289D01*
X97641463Y-64729572D01*
X97673483Y-64849075D01*
X97673486Y-64849082D01*
X97743772Y-64970820D01*
X97743774Y-64970823D01*
X97843176Y-65070225D01*
X97843179Y-65070227D01*
X97939198Y-65125664D01*
X97964922Y-65140516D01*
X98023806Y-65156293D01*
X98084428Y-65193245D01*
X98115449Y-65257105D01*
X98107021Y-65327600D01*
X98061818Y-65382347D01*
X98023807Y-65399706D01*
X97996096Y-65407131D01*
X97964924Y-65415483D01*
X97964917Y-65415486D01*
X97843179Y-65485772D01*
X97843176Y-65485774D01*
X97743774Y-65585176D01*
X97743772Y-65585179D01*
X97673486Y-65706917D01*
X97673483Y-65706924D01*
X97655709Y-65773260D01*
X97637100Y-65842711D01*
X97637100Y-65983289D01*
X97641463Y-65999572D01*
X97673483Y-66119075D01*
X97673486Y-66119082D01*
X97743772Y-66240820D01*
X97743774Y-66240823D01*
X97843176Y-66340225D01*
X97843179Y-66340227D01*
X97939198Y-66395664D01*
X97964922Y-66410516D01*
X98023806Y-66426293D01*
X98084428Y-66463245D01*
X98115449Y-66527105D01*
X98107021Y-66597600D01*
X98061818Y-66652347D01*
X98023807Y-66669706D01*
X97996096Y-66677131D01*
X97964924Y-66685483D01*
X97964917Y-66685486D01*
X97843179Y-66755772D01*
X97843176Y-66755774D01*
X97743774Y-66855176D01*
X97743772Y-66855179D01*
X97673486Y-66976917D01*
X97673483Y-66976924D01*
X97650712Y-67061911D01*
X97637100Y-67112711D01*
X97637100Y-67253289D01*
X97641463Y-67269572D01*
X97673483Y-67389075D01*
X97673486Y-67389082D01*
X97743772Y-67510820D01*
X97743774Y-67510823D01*
X97843176Y-67610225D01*
X97843179Y-67610227D01*
X97939198Y-67665664D01*
X97964922Y-67680516D01*
X98023806Y-67696293D01*
X98084428Y-67733245D01*
X98115449Y-67797105D01*
X98107021Y-67867600D01*
X98061818Y-67922347D01*
X98023807Y-67939706D01*
X97996096Y-67947131D01*
X97964924Y-67955483D01*
X97964917Y-67955486D01*
X97843179Y-68025772D01*
X97843176Y-68025774D01*
X97743774Y-68125176D01*
X97743772Y-68125179D01*
X97673486Y-68246917D01*
X97673483Y-68246924D01*
X97652933Y-68323622D01*
X97637100Y-68382711D01*
X97637100Y-68523289D01*
X97641463Y-68539572D01*
X97673483Y-68659075D01*
X97673486Y-68659082D01*
X97743772Y-68780820D01*
X97743774Y-68780823D01*
X97843176Y-68880225D01*
X97843179Y-68880227D01*
X97939198Y-68935664D01*
X97964922Y-68950516D01*
X98023806Y-68966293D01*
X98084428Y-69003245D01*
X98115449Y-69067105D01*
X98107021Y-69137600D01*
X98061818Y-69192347D01*
X98023807Y-69209706D01*
X97996096Y-69217131D01*
X97964924Y-69225483D01*
X97964917Y-69225486D01*
X97843179Y-69295772D01*
X97843176Y-69295774D01*
X97743774Y-69395176D01*
X97743772Y-69395179D01*
X97673486Y-69516917D01*
X97673483Y-69516924D01*
X97650416Y-69603011D01*
X97637100Y-69652711D01*
X97637100Y-69793289D01*
X97641463Y-69809572D01*
X97673483Y-69929075D01*
X97673486Y-69929082D01*
X97743772Y-70050820D01*
X97743774Y-70050823D01*
X97843176Y-70150225D01*
X97843179Y-70150227D01*
X97939198Y-70205664D01*
X97964922Y-70220516D01*
X98100711Y-70256900D01*
X98100713Y-70256900D01*
X98241287Y-70256900D01*
X98241289Y-70256900D01*
X98377078Y-70220516D01*
X98498822Y-70150226D01*
X98598226Y-70050822D01*
X98668516Y-69929078D01*
X98684294Y-69870192D01*
X98721244Y-69809572D01*
X98785105Y-69778550D01*
X98855599Y-69786978D01*
X98910346Y-69832181D01*
X98927705Y-69870190D01*
X98943484Y-69929078D01*
X98943485Y-69929080D01*
X98943486Y-69929082D01*
X99013772Y-70050820D01*
X99013774Y-70050823D01*
X99113176Y-70150225D01*
X99113179Y-70150227D01*
X99209198Y-70205664D01*
X99234922Y-70220516D01*
X99370711Y-70256900D01*
X99370713Y-70256900D01*
X99511287Y-70256900D01*
X99511289Y-70256900D01*
X99647078Y-70220516D01*
X99768822Y-70150226D01*
X99868226Y-70050822D01*
X99938516Y-69929078D01*
X99954294Y-69870192D01*
X99991244Y-69809572D01*
X100055105Y-69778550D01*
X100125599Y-69786978D01*
X100180346Y-69832181D01*
X100197705Y-69870190D01*
X100213484Y-69929078D01*
X100213485Y-69929080D01*
X100213486Y-69929082D01*
X100283772Y-70050820D01*
X100283774Y-70050823D01*
X100383176Y-70150225D01*
X100383179Y-70150227D01*
X100479198Y-70205664D01*
X100504922Y-70220516D01*
X100640711Y-70256900D01*
X100640713Y-70256900D01*
X100781287Y-70256900D01*
X100781289Y-70256900D01*
X100917078Y-70220516D01*
X101038822Y-70150226D01*
X101138226Y-70050822D01*
X101208516Y-69929078D01*
X101224294Y-69870192D01*
X101261244Y-69809572D01*
X101325105Y-69778550D01*
X101395599Y-69786978D01*
X101450346Y-69832181D01*
X101467705Y-69870190D01*
X101483484Y-69929078D01*
X101483485Y-69929080D01*
X101483486Y-69929082D01*
X101553772Y-70050820D01*
X101553774Y-70050823D01*
X101653176Y-70150225D01*
X101653179Y-70150227D01*
X101749198Y-70205664D01*
X101774922Y-70220516D01*
X101910711Y-70256900D01*
X101910713Y-70256900D01*
X102051287Y-70256900D01*
X102051289Y-70256900D01*
X102187078Y-70220516D01*
X102308822Y-70150226D01*
X102408226Y-70050822D01*
X102478516Y-69929078D01*
X102494294Y-69870192D01*
X102531244Y-69809572D01*
X102595105Y-69778550D01*
X102665599Y-69786978D01*
X102720346Y-69832181D01*
X102737705Y-69870190D01*
X102753484Y-69929078D01*
X102753485Y-69929080D01*
X102753486Y-69929082D01*
X102823772Y-70050820D01*
X102823774Y-70050823D01*
X102923176Y-70150225D01*
X102923179Y-70150227D01*
X103019198Y-70205664D01*
X103044922Y-70220516D01*
X103180711Y-70256900D01*
X103180713Y-70256900D01*
X103321287Y-70256900D01*
X103321289Y-70256900D01*
X103457078Y-70220516D01*
X103578822Y-70150226D01*
X103678226Y-70050822D01*
X103748516Y-69929078D01*
X103784900Y-69793289D01*
X103784900Y-69652711D01*
X103748516Y-69516922D01*
X103678226Y-69395178D01*
X103678225Y-69395176D01*
X103578823Y-69295774D01*
X103578820Y-69295772D01*
X103457082Y-69225486D01*
X103457080Y-69225485D01*
X103457078Y-69225484D01*
X103398192Y-69209705D01*
X103337572Y-69172756D01*
X103306550Y-69108895D01*
X103314978Y-69038401D01*
X103360181Y-68983654D01*
X103398190Y-68966294D01*
X103457078Y-68950516D01*
X103578822Y-68880226D01*
X103678226Y-68780822D01*
X103748516Y-68659078D01*
X103784900Y-68523289D01*
X103784900Y-68382711D01*
X103748516Y-68246922D01*
X103733664Y-68221198D01*
X103678227Y-68125179D01*
X103678225Y-68125176D01*
X103578823Y-68025774D01*
X103578820Y-68025772D01*
X103457082Y-67955486D01*
X103457080Y-67955485D01*
X103457078Y-67955484D01*
X103398192Y-67939705D01*
X103337572Y-67902756D01*
X103306550Y-67838895D01*
X103314978Y-67768401D01*
X103360181Y-67713654D01*
X103398190Y-67696294D01*
X103457078Y-67680516D01*
X103578822Y-67610226D01*
X103678226Y-67510822D01*
X103748516Y-67389078D01*
X103784900Y-67253289D01*
X103784900Y-67112711D01*
X103748516Y-66976922D01*
X103719186Y-66926122D01*
X103678227Y-66855179D01*
X103678225Y-66855176D01*
X103578823Y-66755774D01*
X103578820Y-66755772D01*
X103457082Y-66685486D01*
X103457080Y-66685485D01*
X103457078Y-66685484D01*
X103398192Y-66669705D01*
X103337572Y-66632756D01*
X103306550Y-66568895D01*
X103314978Y-66498401D01*
X103360181Y-66443654D01*
X103398190Y-66426294D01*
X103457078Y-66410516D01*
X103578822Y-66340226D01*
X103678226Y-66240822D01*
X103748516Y-66119078D01*
X103784900Y-65983289D01*
X103784900Y-65842711D01*
X103748516Y-65706922D01*
X103678226Y-65585178D01*
X103678225Y-65585176D01*
X103578823Y-65485774D01*
X103578820Y-65485772D01*
X103457082Y-65415486D01*
X103457080Y-65415485D01*
X103457078Y-65415484D01*
X103398192Y-65399705D01*
X103337572Y-65362756D01*
X103306550Y-65298895D01*
X103314978Y-65228401D01*
X103360181Y-65173654D01*
X103398190Y-65156294D01*
X103457078Y-65140516D01*
X103578822Y-65070226D01*
X103678226Y-64970822D01*
X103748516Y-64849078D01*
X103784900Y-64713289D01*
X103784900Y-64572711D01*
X103748516Y-64436922D01*
X103678226Y-64315178D01*
X103678225Y-64315176D01*
X103578823Y-64215774D01*
X103578820Y-64215772D01*
X103457082Y-64145486D01*
X103457079Y-64145485D01*
X103457078Y-64145484D01*
X103457076Y-64145483D01*
X103457075Y-64145483D01*
X103420688Y-64135733D01*
X103321289Y-64109100D01*
X103180711Y-64109100D01*
X103107945Y-64128597D01*
X103044924Y-64145483D01*
X103044917Y-64145486D01*
X102923179Y-64215772D01*
X102923176Y-64215774D01*
X102823774Y-64315176D01*
X102823772Y-64315179D01*
X102753486Y-64436917D01*
X102753483Y-64436924D01*
X102737707Y-64495805D01*
X102700755Y-64556428D01*
X102636895Y-64587449D01*
X102566400Y-64579021D01*
X102511653Y-64533818D01*
X102494293Y-64495805D01*
X102478516Y-64436922D01*
X102408226Y-64315178D01*
X102408225Y-64315176D01*
X102308823Y-64215774D01*
X102308820Y-64215772D01*
X102187082Y-64145486D01*
X102187079Y-64145485D01*
X102187078Y-64145484D01*
X102187076Y-64145483D01*
X102187075Y-64145483D01*
X102150688Y-64135733D01*
X102051289Y-64109100D01*
X101910711Y-64109100D01*
X101837945Y-64128597D01*
X101774924Y-64145483D01*
X101774917Y-64145486D01*
X101653179Y-64215772D01*
X101653176Y-64215774D01*
X101553774Y-64315176D01*
X101553772Y-64315179D01*
X101483486Y-64436917D01*
X101483483Y-64436924D01*
X101467707Y-64495805D01*
X101430755Y-64556428D01*
X101366895Y-64587449D01*
X101296400Y-64579021D01*
X101241653Y-64533818D01*
X101224293Y-64495805D01*
X101208516Y-64436922D01*
X101138226Y-64315178D01*
X101138225Y-64315176D01*
X101038823Y-64215774D01*
X101038820Y-64215772D01*
X100917082Y-64145486D01*
X100917079Y-64145485D01*
X100917078Y-64145484D01*
X100917076Y-64145483D01*
X100917075Y-64145483D01*
X100880688Y-64135733D01*
X100781289Y-64109100D01*
X100640711Y-64109100D01*
X100567945Y-64128597D01*
X100504924Y-64145483D01*
X100504917Y-64145486D01*
X100383179Y-64215772D01*
X100383176Y-64215774D01*
X100283774Y-64315176D01*
X100283772Y-64315179D01*
X100213486Y-64436917D01*
X100213483Y-64436924D01*
X100197707Y-64495805D01*
X100160755Y-64556428D01*
X100096895Y-64587449D01*
X100026400Y-64579021D01*
X99971653Y-64533818D01*
X99954293Y-64495805D01*
X99938516Y-64436922D01*
X99868226Y-64315178D01*
X99868225Y-64315176D01*
X99768823Y-64215774D01*
X99768820Y-64215772D01*
X99647082Y-64145486D01*
X99647079Y-64145485D01*
X99647078Y-64145484D01*
X99647076Y-64145483D01*
X99647075Y-64145483D01*
X99610688Y-64135733D01*
X99511289Y-64109100D01*
X99370711Y-64109100D01*
X99297945Y-64128597D01*
X99234924Y-64145483D01*
X99234917Y-64145486D01*
X99113179Y-64215772D01*
X99113176Y-64215774D01*
X99013774Y-64315176D01*
X99013772Y-64315179D01*
X98943486Y-64436917D01*
X98943483Y-64436924D01*
X98927707Y-64495805D01*
X98890755Y-64556428D01*
X98826895Y-64587449D01*
X98756400Y-64579021D01*
X98701653Y-64533818D01*
X98684293Y-64495805D01*
X98668516Y-64436922D01*
X98598226Y-64315178D01*
X98598225Y-64315176D01*
X98498823Y-64215774D01*
X98498820Y-64215772D01*
X98377082Y-64145486D01*
X98377079Y-64145485D01*
X98377078Y-64145484D01*
X98377076Y-64145483D01*
X98377075Y-64145483D01*
X98340688Y-64135733D01*
X98241289Y-64109100D01*
X98100711Y-64109100D01*
X98027945Y-64128597D01*
X97964924Y-64145483D01*
X97964917Y-64145486D01*
X97843179Y-64215772D01*
X97843176Y-64215774D01*
X97743774Y-64315176D01*
X97743772Y-64315179D01*
X97673486Y-64436917D01*
X97673483Y-64436924D01*
X97650416Y-64523011D01*
X97637100Y-64572711D01*
X95631500Y-64572711D01*
X95631500Y-59066227D01*
X102938500Y-59066227D01*
X102938500Y-59314373D01*
X102974474Y-59541500D01*
X102977320Y-59559470D01*
X103053998Y-59795461D01*
X103054000Y-59795466D01*
X103166656Y-60016566D01*
X103312513Y-60217321D01*
X103312515Y-60217323D01*
X103312517Y-60217326D01*
X103487973Y-60392782D01*
X103487976Y-60392784D01*
X103487979Y-60392787D01*
X103688734Y-60538644D01*
X103909834Y-60651300D01*
X104145829Y-60727979D01*
X104145830Y-60727979D01*
X104145835Y-60727981D01*
X104390927Y-60766800D01*
X104390930Y-60766800D01*
X104639070Y-60766800D01*
X104639073Y-60766800D01*
X104884165Y-60727981D01*
X105120166Y-60651300D01*
X105341266Y-60538644D01*
X105542021Y-60392787D01*
X105717487Y-60217321D01*
X105863344Y-60016566D01*
X105976000Y-59795466D01*
X106052681Y-59559465D01*
X106091500Y-59314373D01*
X106091500Y-59066227D01*
X106052681Y-58821135D01*
X105976000Y-58585134D01*
X105863344Y-58364034D01*
X105717487Y-58163279D01*
X105717484Y-58163276D01*
X105717482Y-58163273D01*
X105542026Y-57987817D01*
X105542023Y-57987815D01*
X105542021Y-57987813D01*
X105341266Y-57841956D01*
X105120166Y-57729300D01*
X105120163Y-57729299D01*
X105120161Y-57729298D01*
X104884168Y-57652620D01*
X104884172Y-57652620D01*
X104838540Y-57645392D01*
X104639073Y-57613800D01*
X104390927Y-57613800D01*
X104145835Y-57652619D01*
X104145829Y-57652620D01*
X103909838Y-57729298D01*
X103909832Y-57729301D01*
X103688730Y-57841958D01*
X103487976Y-57987815D01*
X103487973Y-57987817D01*
X103312517Y-58163273D01*
X103312515Y-58163276D01*
X103166658Y-58364030D01*
X103054001Y-58585132D01*
X103053998Y-58585138D01*
X102977320Y-58821129D01*
X102977319Y-58821134D01*
X102977319Y-58821135D01*
X102938500Y-59066227D01*
X95631500Y-59066227D01*
X95631500Y-57279165D01*
X95631573Y-57274863D01*
X95641300Y-56990113D01*
X95650005Y-56735299D01*
X95650590Y-56726747D01*
X95705578Y-56191860D01*
X95706742Y-56183394D01*
X95798110Y-55653466D01*
X95799855Y-55645073D01*
X95927165Y-55122652D01*
X95929472Y-55114417D01*
X96092147Y-54601871D01*
X96095007Y-54593824D01*
X96292278Y-54093580D01*
X96295702Y-54085699D01*
X96526624Y-53600139D01*
X96530575Y-53592511D01*
X96794122Y-53123796D01*
X96798559Y-53116498D01*
X97093487Y-52666843D01*
X97098420Y-52659855D01*
X97423332Y-52231395D01*
X97428727Y-52224763D01*
X97782141Y-51819451D01*
X97787985Y-51813195D01*
X98168195Y-51432985D01*
X98174451Y-51427141D01*
X98579763Y-51073727D01*
X98586395Y-51068332D01*
X99014855Y-50743420D01*
X99021843Y-50738487D01*
X99471498Y-50443559D01*
X99478796Y-50439122D01*
X99947511Y-50175575D01*
X99955127Y-50171629D01*
X100440709Y-49940697D01*
X100448580Y-49937278D01*
X100948824Y-49740007D01*
X100956871Y-49737147D01*
X101469417Y-49574472D01*
X101477652Y-49572165D01*
X102000073Y-49444855D01*
X102008466Y-49443110D01*
X102538394Y-49351742D01*
X102546860Y-49350578D01*
X103081747Y-49295590D01*
X103090299Y-49295005D01*
X103629863Y-49276572D01*
X103634165Y-49276500D01*
X103686851Y-49276500D01*
X106723787Y-49276500D01*
X106791908Y-49296502D01*
G37*
%TD.AperFunction*%
%TD*%
%TA.AperFunction,Conductor*%
%TO.N,SYSTEM_VSS*%
G36*
X177039727Y-49276559D02*
G01*
X177580535Y-49295033D01*
X177587372Y-49295500D01*
X178124007Y-49350668D01*
X178130781Y-49351599D01*
X178662384Y-49443257D01*
X178669048Y-49444641D01*
X179193185Y-49572369D01*
X179199792Y-49574222D01*
X179713921Y-49737399D01*
X179720393Y-49739699D01*
X179951993Y-49831030D01*
X180222221Y-49937594D01*
X180228503Y-49940322D01*
X180715651Y-50172000D01*
X180721734Y-50175152D01*
X181191944Y-50439538D01*
X181197795Y-50443096D01*
X181648853Y-50738944D01*
X181654460Y-50742901D01*
X181977209Y-50987650D01*
X182084276Y-51068842D01*
X182089605Y-51073177D01*
X182496180Y-51427692D01*
X182501200Y-51432381D01*
X182882618Y-51813799D01*
X182887307Y-51818819D01*
X183241822Y-52225394D01*
X183246157Y-52230723D01*
X183572094Y-52660534D01*
X183576055Y-52666146D01*
X183871897Y-53117195D01*
X183875466Y-53123064D01*
X184139843Y-53593257D01*
X184143003Y-53599356D01*
X184374670Y-54086482D01*
X184377407Y-54092783D01*
X184575300Y-54594606D01*
X184577600Y-54601078D01*
X184740777Y-55115207D01*
X184742631Y-55121821D01*
X184840388Y-55522969D01*
X184870350Y-55645916D01*
X184871746Y-55652637D01*
X184877657Y-55686919D01*
X184963397Y-56184202D01*
X184964333Y-56191007D01*
X185019498Y-56727619D01*
X185019966Y-56734472D01*
X185038441Y-57275272D01*
X185038500Y-57278707D01*
X185038500Y-88137807D01*
X185019287Y-88196938D01*
X185009035Y-88208942D01*
X183185753Y-90032224D01*
X183185752Y-90032223D01*
X183114727Y-90103249D01*
X183114723Y-90103255D01*
X183064499Y-90190245D01*
X183064496Y-90190252D01*
X183038500Y-90287270D01*
X183038500Y-113544029D01*
X183064496Y-113641047D01*
X183064498Y-113641052D01*
X183064499Y-113641054D01*
X183092700Y-113689900D01*
X183114724Y-113728047D01*
X185009036Y-115622359D01*
X185037261Y-115677755D01*
X185038500Y-115693492D01*
X185038500Y-136396292D01*
X185038441Y-136399727D01*
X185019966Y-136940527D01*
X185019498Y-136947380D01*
X184964333Y-137483992D01*
X184963397Y-137490797D01*
X184871747Y-138022357D01*
X184870350Y-138029083D01*
X184742631Y-138553178D01*
X184740777Y-138559792D01*
X184577600Y-139073921D01*
X184575300Y-139080393D01*
X184377407Y-139582216D01*
X184374670Y-139588517D01*
X184143003Y-140075643D01*
X184139843Y-140081742D01*
X183875466Y-140551935D01*
X183871897Y-140557804D01*
X183576055Y-141008853D01*
X183572094Y-141014465D01*
X183246157Y-141444276D01*
X183241822Y-141449605D01*
X182887307Y-141856180D01*
X182882618Y-141861200D01*
X182501200Y-142242618D01*
X182496180Y-142247307D01*
X182089605Y-142601822D01*
X182084276Y-142606157D01*
X181654465Y-142932094D01*
X181648853Y-142936055D01*
X181197804Y-143231897D01*
X181191935Y-143235466D01*
X180721742Y-143499843D01*
X180715643Y-143503003D01*
X180228517Y-143734670D01*
X180222216Y-143737407D01*
X179720393Y-143935300D01*
X179713921Y-143937600D01*
X179199792Y-144100777D01*
X179193178Y-144102631D01*
X178792213Y-144200343D01*
X178669076Y-144230351D01*
X178662357Y-144231747D01*
X178130797Y-144323397D01*
X178123992Y-144324333D01*
X177587380Y-144379498D01*
X177580527Y-144379966D01*
X177039727Y-144398441D01*
X177036292Y-144398500D01*
X173935693Y-144398500D01*
X173876562Y-144379287D01*
X173864558Y-144369035D01*
X171049247Y-141553724D01*
X171049245Y-141553723D01*
X171036871Y-141546578D01*
X171036870Y-141546578D01*
X170962254Y-141503499D01*
X170962253Y-141503498D01*
X170962252Y-141503498D01*
X170962247Y-141503496D01*
X170865229Y-141477500D01*
X170865225Y-141477500D01*
X152706682Y-141477500D01*
X152647551Y-141458287D01*
X152611006Y-141407987D01*
X152607106Y-141362585D01*
X152608700Y-141351500D01*
X152608700Y-139565339D01*
X178285500Y-139565339D01*
X178285500Y-139834660D01*
X178320652Y-140101667D01*
X178320653Y-140101675D01*
X178390357Y-140361814D01*
X178390358Y-140361816D01*
X178493421Y-140610631D01*
X178628082Y-140843870D01*
X178628087Y-140843877D01*
X178792026Y-141057527D01*
X178982472Y-141247973D01*
X179196122Y-141411912D01*
X179196129Y-141411917D01*
X179196132Y-141411919D01*
X179429368Y-141546578D01*
X179678183Y-141649641D01*
X179678185Y-141649642D01*
X179828378Y-141689886D01*
X179938327Y-141719347D01*
X180160838Y-141748641D01*
X180205340Y-141754500D01*
X180205341Y-141754500D01*
X180474660Y-141754500D01*
X180512803Y-141749478D01*
X180741673Y-141719347D01*
X181001814Y-141649642D01*
X181250632Y-141546578D01*
X181483868Y-141411919D01*
X181697532Y-141247969D01*
X181887969Y-141057532D01*
X181921016Y-141014465D01*
X182051912Y-140843877D01*
X182051917Y-140843870D01*
X182051919Y-140843868D01*
X182186578Y-140610632D01*
X182289642Y-140361814D01*
X182359347Y-140101673D01*
X182394500Y-139834659D01*
X182394500Y-139565341D01*
X182359347Y-139298327D01*
X182329886Y-139188378D01*
X182289642Y-139038185D01*
X182289641Y-139038183D01*
X182186578Y-138789368D01*
X182054032Y-138559792D01*
X182051919Y-138556132D01*
X182051917Y-138556129D01*
X182051912Y-138556122D01*
X181887973Y-138342472D01*
X181697527Y-138152026D01*
X181483877Y-137988087D01*
X181483870Y-137988082D01*
X181250631Y-137853421D01*
X181001816Y-137750358D01*
X181001814Y-137750357D01*
X180741675Y-137680653D01*
X180741667Y-137680652D01*
X180474660Y-137645500D01*
X180474659Y-137645500D01*
X180205341Y-137645500D01*
X180205340Y-137645500D01*
X179938332Y-137680652D01*
X179938324Y-137680653D01*
X179678185Y-137750357D01*
X179678183Y-137750358D01*
X179429368Y-137853421D01*
X179196129Y-137988082D01*
X179196122Y-137988087D01*
X178982472Y-138152026D01*
X178792026Y-138342472D01*
X178628087Y-138556122D01*
X178628082Y-138556129D01*
X178493421Y-138789368D01*
X178390358Y-139038183D01*
X178390357Y-139038185D01*
X178320653Y-139298324D01*
X178320652Y-139298332D01*
X178285500Y-139565339D01*
X152608700Y-139565339D01*
X152608700Y-134407271D01*
X165828500Y-134407271D01*
X165828500Y-134683408D01*
X165864542Y-134957174D01*
X165864543Y-134957182D01*
X165936011Y-135223905D01*
X165936012Y-135223907D01*
X166041683Y-135479019D01*
X166179748Y-135718156D01*
X166179750Y-135718159D01*
X166179751Y-135718160D01*
X166347851Y-135937232D01*
X166543108Y-136132489D01*
X166762180Y-136300589D01*
X166762183Y-136300591D01*
X167001320Y-136438656D01*
X167256432Y-136544327D01*
X167256434Y-136544328D01*
X167410427Y-136585590D01*
X167523160Y-136615797D01*
X167751304Y-136645832D01*
X167796932Y-136651840D01*
X167796933Y-136651840D01*
X168073068Y-136651840D01*
X168112177Y-136646691D01*
X168346840Y-136615797D01*
X168613565Y-136544328D01*
X168868680Y-136438656D01*
X169107820Y-136300589D01*
X169326892Y-136132489D01*
X169522149Y-135937232D01*
X169690249Y-135718160D01*
X169828316Y-135479020D01*
X169933988Y-135223905D01*
X170005457Y-134957180D01*
X170041500Y-134683407D01*
X170041500Y-134407273D01*
X170035358Y-134360622D01*
X174578500Y-134360622D01*
X174578500Y-134608777D01*
X174617318Y-134853860D01*
X174617321Y-134853874D01*
X174693999Y-135089866D01*
X174762296Y-135223905D01*
X174806656Y-135310966D01*
X174879584Y-135411343D01*
X174952511Y-135511719D01*
X174952513Y-135511721D01*
X175127979Y-135687187D01*
X175328734Y-135833044D01*
X175328742Y-135833048D01*
X175549833Y-135945700D01*
X175785825Y-136022378D01*
X175785827Y-136022378D01*
X175785835Y-136022381D01*
X176030923Y-136061199D01*
X176030925Y-136061200D01*
X176030927Y-136061200D01*
X176279075Y-136061200D01*
X176279075Y-136061199D01*
X176524165Y-136022381D01*
X176760166Y-135945700D01*
X176981266Y-135833044D01*
X177182021Y-135687187D01*
X177357487Y-135511721D01*
X177503344Y-135310966D01*
X177616000Y-135089866D01*
X177692681Y-134853865D01*
X177731500Y-134608773D01*
X177731500Y-134360627D01*
X177692681Y-134115535D01*
X177616000Y-133879534D01*
X177616000Y-133879533D01*
X177503348Y-133658442D01*
X177503344Y-133658434D01*
X177357487Y-133457679D01*
X177182021Y-133282213D01*
X177182019Y-133282211D01*
X177004791Y-133153448D01*
X176981266Y-133136356D01*
X176981260Y-133136353D01*
X176981257Y-133136351D01*
X176760166Y-133023699D01*
X176524174Y-132947021D01*
X176524160Y-132947018D01*
X176279077Y-132908200D01*
X176279073Y-132908200D01*
X176030927Y-132908200D01*
X176030922Y-132908200D01*
X175785839Y-132947018D01*
X175785825Y-132947021D01*
X175549833Y-133023699D01*
X175328742Y-133136351D01*
X175328731Y-133136358D01*
X175127980Y-133282211D01*
X174952511Y-133457680D01*
X174806658Y-133658431D01*
X174806651Y-133658442D01*
X174693999Y-133879533D01*
X174617321Y-134115525D01*
X174617318Y-134115539D01*
X174578500Y-134360622D01*
X170035358Y-134360622D01*
X170005457Y-134133500D01*
X169933988Y-133866775D01*
X169828316Y-133611660D01*
X169739416Y-133457680D01*
X169690251Y-133372523D01*
X169690249Y-133372520D01*
X169522149Y-133153448D01*
X169326892Y-132958191D01*
X169107820Y-132790091D01*
X169107819Y-132790090D01*
X169107816Y-132790088D01*
X168868679Y-132652023D01*
X168613567Y-132546352D01*
X168613565Y-132546351D01*
X168346842Y-132474883D01*
X168346834Y-132474882D01*
X168073068Y-132438840D01*
X168073067Y-132438840D01*
X167796933Y-132438840D01*
X167796932Y-132438840D01*
X167523165Y-132474882D01*
X167523157Y-132474883D01*
X167256434Y-132546351D01*
X167256432Y-132546352D01*
X167001320Y-132652023D01*
X166762183Y-132790088D01*
X166543104Y-132958194D01*
X166347854Y-133153444D01*
X166179748Y-133372523D01*
X166041683Y-133611660D01*
X165936012Y-133866772D01*
X165936011Y-133866774D01*
X165864543Y-134133497D01*
X165864542Y-134133505D01*
X165828500Y-134407271D01*
X152608700Y-134407271D01*
X152608700Y-127246704D01*
X162635700Y-127246704D01*
X162635700Y-127393975D01*
X162673817Y-127536225D01*
X162747449Y-127663758D01*
X162851581Y-127767890D01*
X162851580Y-127767890D01*
X162979114Y-127841522D01*
X162979115Y-127841522D01*
X162979118Y-127841524D01*
X163121367Y-127879640D01*
X163121369Y-127879640D01*
X163268631Y-127879640D01*
X163268633Y-127879640D01*
X163410882Y-127841524D01*
X163538418Y-127767891D01*
X163642551Y-127663758D01*
X163716184Y-127536222D01*
X163754300Y-127393973D01*
X163754300Y-127246707D01*
X163716184Y-127104458D01*
X163642551Y-126976922D01*
X163538418Y-126872789D01*
X163538419Y-126872789D01*
X163410885Y-126799157D01*
X163410882Y-126799156D01*
X163372771Y-126788944D01*
X163268635Y-126761040D01*
X163268633Y-126761040D01*
X163121367Y-126761040D01*
X163121364Y-126761040D01*
X162979114Y-126799157D01*
X162851581Y-126872789D01*
X162747449Y-126976921D01*
X162673817Y-127104454D01*
X162635700Y-127246704D01*
X152608700Y-127246704D01*
X152608700Y-125707164D01*
X165429700Y-125707164D01*
X165429700Y-125854435D01*
X165467817Y-125996685D01*
X165541449Y-126124218D01*
X165645581Y-126228350D01*
X165645580Y-126228350D01*
X165773114Y-126301982D01*
X165773115Y-126301982D01*
X165773118Y-126301984D01*
X165915367Y-126340100D01*
X165915369Y-126340100D01*
X166062631Y-126340100D01*
X166062633Y-126340100D01*
X166204882Y-126301984D01*
X166332418Y-126228351D01*
X166436551Y-126124218D01*
X166510184Y-125996682D01*
X166548300Y-125854433D01*
X166548300Y-125707167D01*
X166510184Y-125564918D01*
X166436551Y-125437382D01*
X166332418Y-125333249D01*
X166332419Y-125333249D01*
X166204885Y-125259617D01*
X166204882Y-125259616D01*
X166166771Y-125249404D01*
X166062635Y-125221500D01*
X166062633Y-125221500D01*
X165915367Y-125221500D01*
X165915364Y-125221500D01*
X165773114Y-125259617D01*
X165645581Y-125333249D01*
X165541449Y-125437381D01*
X165467817Y-125564914D01*
X165429700Y-125707164D01*
X152608700Y-125707164D01*
X152608700Y-116850807D01*
X165968500Y-116850807D01*
X165968500Y-117108592D01*
X166002147Y-117364162D01*
X166002148Y-117364170D01*
X166068866Y-117613167D01*
X166068867Y-117613169D01*
X166167515Y-117851326D01*
X166296404Y-118074569D01*
X166296406Y-118074572D01*
X166296407Y-118074573D01*
X166453335Y-118279085D01*
X166635615Y-118461365D01*
X166840127Y-118618293D01*
X166840130Y-118618295D01*
X167063373Y-118747184D01*
X167301530Y-118845832D01*
X167301532Y-118845833D01*
X167445290Y-118884352D01*
X167550532Y-118912552D01*
X167763512Y-118940592D01*
X167806108Y-118946200D01*
X167806109Y-118946200D01*
X168063892Y-118946200D01*
X168100402Y-118941393D01*
X168319468Y-118912552D01*
X168568467Y-118845833D01*
X168806627Y-118747184D01*
X169029873Y-118618293D01*
X169234385Y-118461365D01*
X169274488Y-118421262D01*
X174578500Y-118421262D01*
X174578500Y-118669417D01*
X174617318Y-118914500D01*
X174617321Y-118914514D01*
X174693999Y-119150506D01*
X174806651Y-119371597D01*
X174806656Y-119371606D01*
X174879584Y-119471983D01*
X174952511Y-119572359D01*
X174952513Y-119572361D01*
X175127979Y-119747827D01*
X175328734Y-119893684D01*
X175328742Y-119893688D01*
X175549833Y-120006340D01*
X175785825Y-120083018D01*
X175785827Y-120083018D01*
X175785835Y-120083021D01*
X176030923Y-120121839D01*
X176030925Y-120121840D01*
X176030927Y-120121840D01*
X176279075Y-120121840D01*
X176279075Y-120121839D01*
X176524165Y-120083021D01*
X176760166Y-120006340D01*
X176981266Y-119893684D01*
X177182021Y-119747827D01*
X177357487Y-119572361D01*
X177503344Y-119371606D01*
X177616000Y-119150506D01*
X177692681Y-118914505D01*
X177730413Y-118676275D01*
X177758639Y-118620878D01*
X177814037Y-118592652D01*
X177875445Y-118602378D01*
X177900909Y-118620878D01*
X177964581Y-118684550D01*
X177964580Y-118684550D01*
X178092114Y-118758182D01*
X178092115Y-118758182D01*
X178092118Y-118758184D01*
X178234367Y-118796300D01*
X178234369Y-118796300D01*
X178381631Y-118796300D01*
X178381633Y-118796300D01*
X178523882Y-118758184D01*
X178651418Y-118684551D01*
X178655965Y-118680004D01*
X178711363Y-118651778D01*
X178772771Y-118661504D01*
X178798235Y-118680004D01*
X178802781Y-118684550D01*
X178802780Y-118684550D01*
X178930314Y-118758182D01*
X178930315Y-118758182D01*
X178930318Y-118758184D01*
X179072567Y-118796300D01*
X179072569Y-118796300D01*
X179219831Y-118796300D01*
X179219833Y-118796300D01*
X179362082Y-118758184D01*
X179489618Y-118684551D01*
X179489624Y-118684544D01*
X179491357Y-118683216D01*
X179492838Y-118682691D01*
X179495328Y-118681254D01*
X179495594Y-118681715D01*
X179549965Y-118662461D01*
X179609579Y-118680118D01*
X179613843Y-118683216D01*
X179615578Y-118684547D01*
X179615582Y-118684551D01*
X179698616Y-118732490D01*
X179743114Y-118758182D01*
X179743115Y-118758182D01*
X179743118Y-118758184D01*
X179885367Y-118796300D01*
X179885369Y-118796300D01*
X180032631Y-118796300D01*
X180032633Y-118796300D01*
X180174882Y-118758184D01*
X180302418Y-118684551D01*
X180406551Y-118580418D01*
X180480184Y-118452882D01*
X180518300Y-118310633D01*
X180518300Y-118163367D01*
X180488263Y-118051269D01*
X180491516Y-117989184D01*
X180530643Y-117940865D01*
X180590699Y-117924773D01*
X180611462Y-117928061D01*
X180723567Y-117958100D01*
X180723569Y-117958100D01*
X180870831Y-117958100D01*
X180870833Y-117958100D01*
X181013082Y-117919984D01*
X181140618Y-117846351D01*
X181244751Y-117742218D01*
X181318384Y-117614682D01*
X181356500Y-117472433D01*
X181356500Y-117325167D01*
X181318384Y-117182918D01*
X181244751Y-117055382D01*
X181240204Y-117050835D01*
X181211978Y-116995437D01*
X181221704Y-116934029D01*
X181240204Y-116908565D01*
X181244751Y-116904018D01*
X181318384Y-116776482D01*
X181356500Y-116634233D01*
X181356500Y-116486967D01*
X181318384Y-116344718D01*
X181244751Y-116217182D01*
X181140618Y-116113049D01*
X181140619Y-116113049D01*
X181013085Y-116039417D01*
X181013082Y-116039416D01*
X180974971Y-116029204D01*
X180870835Y-116001300D01*
X180870833Y-116001300D01*
X180723567Y-116001300D01*
X180723564Y-116001300D01*
X180611473Y-116031336D01*
X180549384Y-116028082D01*
X180501065Y-115988955D01*
X180484973Y-115928900D01*
X180488260Y-115908140D01*
X180518300Y-115796033D01*
X180518300Y-115648767D01*
X180480184Y-115506518D01*
X180475286Y-115498035D01*
X180406550Y-115378981D01*
X180302418Y-115274849D01*
X180302419Y-115274849D01*
X180174885Y-115201217D01*
X180174882Y-115201216D01*
X180136771Y-115191004D01*
X180032635Y-115163100D01*
X180032633Y-115163100D01*
X179885367Y-115163100D01*
X179885364Y-115163100D01*
X179743114Y-115201217D01*
X179615582Y-115274848D01*
X179613836Y-115276189D01*
X179612350Y-115276714D01*
X179609872Y-115278146D01*
X179609606Y-115277686D01*
X179555226Y-115296939D01*
X179495614Y-115279276D01*
X179491364Y-115276189D01*
X179489617Y-115274848D01*
X179362085Y-115201217D01*
X179362082Y-115201216D01*
X179323971Y-115191004D01*
X179219835Y-115163100D01*
X179219833Y-115163100D01*
X179072567Y-115163100D01*
X179072564Y-115163100D01*
X178930314Y-115201217D01*
X178802781Y-115274849D01*
X178798235Y-115279396D01*
X178742837Y-115307622D01*
X178681429Y-115297896D01*
X178655965Y-115279396D01*
X178651418Y-115274849D01*
X178651419Y-115274849D01*
X178523885Y-115201217D01*
X178523882Y-115201216D01*
X178485771Y-115191004D01*
X178381635Y-115163100D01*
X178381633Y-115163100D01*
X178234367Y-115163100D01*
X178234364Y-115163100D01*
X178092114Y-115201217D01*
X177964581Y-115274849D01*
X177860449Y-115378981D01*
X177786817Y-115506514D01*
X177748700Y-115648764D01*
X177748700Y-115796035D01*
X177786817Y-115938285D01*
X177860449Y-116065818D01*
X177864996Y-116070365D01*
X177893222Y-116125763D01*
X177883496Y-116187171D01*
X177864996Y-116212635D01*
X177860449Y-116217181D01*
X177786817Y-116344714D01*
X177748700Y-116486964D01*
X177748700Y-116634235D01*
X177786817Y-116776485D01*
X177860449Y-116904018D01*
X177864996Y-116908565D01*
X177893222Y-116963963D01*
X177883496Y-117025371D01*
X177864996Y-117050835D01*
X177860449Y-117055381D01*
X177786817Y-117182914D01*
X177748700Y-117325164D01*
X177748700Y-117472435D01*
X177786817Y-117614685D01*
X177860449Y-117742218D01*
X177864996Y-117746765D01*
X177893222Y-117802163D01*
X177883496Y-117863571D01*
X177879076Y-117871367D01*
X177873033Y-117880997D01*
X177860449Y-117893582D01*
X177806409Y-117987180D01*
X177805410Y-117988774D01*
X177782916Y-118007577D01*
X177761112Y-118027210D01*
X177759190Y-118027411D01*
X177757708Y-118028651D01*
X177728437Y-118030643D01*
X177699278Y-118033708D01*
X177697606Y-118032742D01*
X177695677Y-118032874D01*
X177670827Y-118017281D01*
X177645434Y-118002621D01*
X177644282Y-118000626D01*
X177643012Y-117999829D01*
X177641156Y-117995211D01*
X177624519Y-117966394D01*
X177616000Y-117940174D01*
X177615999Y-117940173D01*
X177615999Y-117940171D01*
X177503348Y-117719082D01*
X177503344Y-117719074D01*
X177357487Y-117518319D01*
X177182021Y-117342853D01*
X177182019Y-117342851D01*
X177081643Y-117269924D01*
X176981266Y-117196996D01*
X176981260Y-117196993D01*
X176981257Y-117196991D01*
X176760166Y-117084339D01*
X176524174Y-117007661D01*
X176524160Y-117007658D01*
X176279077Y-116968840D01*
X176279073Y-116968840D01*
X176030927Y-116968840D01*
X176030922Y-116968840D01*
X175785839Y-117007658D01*
X175785825Y-117007661D01*
X175549833Y-117084339D01*
X175328742Y-117196991D01*
X175328731Y-117196998D01*
X175127980Y-117342851D01*
X174952511Y-117518320D01*
X174806658Y-117719071D01*
X174806651Y-117719082D01*
X174693999Y-117940173D01*
X174617321Y-118176165D01*
X174617318Y-118176179D01*
X174578500Y-118421262D01*
X169274488Y-118421262D01*
X169416665Y-118279085D01*
X169573593Y-118074573D01*
X169702484Y-117851327D01*
X169801133Y-117613167D01*
X169867852Y-117364168D01*
X169901500Y-117108591D01*
X169901500Y-116850809D01*
X169867852Y-116595232D01*
X169801133Y-116346233D01*
X169800505Y-116344718D01*
X169702484Y-116108073D01*
X169573595Y-115884830D01*
X169505460Y-115796035D01*
X169416665Y-115680315D01*
X169234385Y-115498035D01*
X169029873Y-115341107D01*
X169029872Y-115341106D01*
X169029869Y-115341104D01*
X168806626Y-115212215D01*
X168568469Y-115113567D01*
X168568467Y-115113566D01*
X168319470Y-115046848D01*
X168319462Y-115046847D01*
X168196905Y-115030712D01*
X168063892Y-115013200D01*
X168063891Y-115013200D01*
X167806109Y-115013200D01*
X167806108Y-115013200D01*
X167550537Y-115046847D01*
X167550529Y-115046848D01*
X167301532Y-115113566D01*
X167301530Y-115113567D01*
X167063373Y-115212215D01*
X166840130Y-115341104D01*
X166635611Y-115498038D01*
X166453338Y-115680311D01*
X166296404Y-115884830D01*
X166167515Y-116108073D01*
X166068867Y-116346230D01*
X166068866Y-116346232D01*
X166002148Y-116595229D01*
X166002147Y-116595237D01*
X165968500Y-116850807D01*
X152608700Y-116850807D01*
X152608700Y-114937564D01*
X171195500Y-114937564D01*
X171195500Y-115084835D01*
X171233617Y-115227085D01*
X171307249Y-115354618D01*
X171411381Y-115458750D01*
X171411380Y-115458750D01*
X171538914Y-115532382D01*
X171538915Y-115532382D01*
X171538918Y-115532384D01*
X171681167Y-115570500D01*
X171681169Y-115570500D01*
X171828431Y-115570500D01*
X171828433Y-115570500D01*
X171970682Y-115532384D01*
X172098218Y-115458751D01*
X172128165Y-115428804D01*
X172183563Y-115400578D01*
X172244971Y-115410304D01*
X172270435Y-115428804D01*
X172300381Y-115458750D01*
X172300380Y-115458750D01*
X172427914Y-115532382D01*
X172427915Y-115532382D01*
X172427918Y-115532384D01*
X172570167Y-115570500D01*
X172570169Y-115570500D01*
X172717431Y-115570500D01*
X172717433Y-115570500D01*
X172859682Y-115532384D01*
X172987218Y-115458751D01*
X173091351Y-115354618D01*
X173164984Y-115227082D01*
X173203100Y-115084833D01*
X173203100Y-114937567D01*
X173164984Y-114795318D01*
X173091351Y-114667782D01*
X172987218Y-114563649D01*
X172987219Y-114563649D01*
X172859685Y-114490017D01*
X172859682Y-114490016D01*
X172821571Y-114479804D01*
X172717435Y-114451900D01*
X172717433Y-114451900D01*
X172570167Y-114451900D01*
X172570164Y-114451900D01*
X172427914Y-114490017D01*
X172300381Y-114563649D01*
X172270435Y-114593596D01*
X172215037Y-114621822D01*
X172153629Y-114612096D01*
X172128165Y-114593596D01*
X172098218Y-114563649D01*
X172098219Y-114563649D01*
X171970685Y-114490017D01*
X171970682Y-114490016D01*
X171932571Y-114479804D01*
X171828435Y-114451900D01*
X171828433Y-114451900D01*
X171681167Y-114451900D01*
X171681164Y-114451900D01*
X171538914Y-114490017D01*
X171411381Y-114563649D01*
X171307249Y-114667781D01*
X171233617Y-114795314D01*
X171195500Y-114937564D01*
X152608700Y-114937564D01*
X152608700Y-112812764D01*
X176914899Y-112812764D01*
X176914899Y-112960035D01*
X176953016Y-113102285D01*
X177026648Y-113229818D01*
X177130780Y-113333950D01*
X177130779Y-113333950D01*
X177258313Y-113407582D01*
X177258314Y-113407582D01*
X177258317Y-113407584D01*
X177400566Y-113445700D01*
X177400568Y-113445700D01*
X177547830Y-113445700D01*
X177547832Y-113445700D01*
X177690081Y-113407584D01*
X177817617Y-113333951D01*
X177921750Y-113229818D01*
X177995383Y-113102282D01*
X178033499Y-112960033D01*
X178033499Y-112812767D01*
X178033498Y-112812764D01*
X178438899Y-112812764D01*
X178438899Y-112960035D01*
X178477016Y-113102285D01*
X178550648Y-113229818D01*
X178654780Y-113333950D01*
X178654779Y-113333950D01*
X178782313Y-113407582D01*
X178782314Y-113407582D01*
X178782317Y-113407584D01*
X178924566Y-113445700D01*
X178924568Y-113445700D01*
X179071830Y-113445700D01*
X179071832Y-113445700D01*
X179214081Y-113407584D01*
X179341617Y-113333951D01*
X179445750Y-113229818D01*
X179519383Y-113102282D01*
X179557499Y-112960033D01*
X179557499Y-112812767D01*
X179519383Y-112670518D01*
X179445750Y-112542982D01*
X179341617Y-112438849D01*
X179341618Y-112438849D01*
X179214084Y-112365217D01*
X179214081Y-112365216D01*
X179175970Y-112355004D01*
X179071834Y-112327100D01*
X179071832Y-112327100D01*
X178924566Y-112327100D01*
X178924563Y-112327100D01*
X178782313Y-112365217D01*
X178654780Y-112438849D01*
X178550648Y-112542981D01*
X178477016Y-112670514D01*
X178438899Y-112812764D01*
X178033498Y-112812764D01*
X177995383Y-112670518D01*
X177921750Y-112542982D01*
X177817617Y-112438849D01*
X177817618Y-112438849D01*
X177690084Y-112365217D01*
X177690081Y-112365216D01*
X177651970Y-112355004D01*
X177547834Y-112327100D01*
X177547832Y-112327100D01*
X177400566Y-112327100D01*
X177400563Y-112327100D01*
X177258313Y-112365217D01*
X177130780Y-112438849D01*
X177026648Y-112542981D01*
X176953016Y-112670514D01*
X176914899Y-112812764D01*
X152608700Y-112812764D01*
X152608700Y-107091962D01*
X165906801Y-107091962D01*
X165906801Y-107239233D01*
X165944918Y-107381483D01*
X166018550Y-107509016D01*
X166122682Y-107613148D01*
X166122681Y-107613148D01*
X166250215Y-107686780D01*
X166250216Y-107686780D01*
X166250219Y-107686782D01*
X166392468Y-107724898D01*
X166392470Y-107724898D01*
X166539732Y-107724898D01*
X166539734Y-107724898D01*
X166681983Y-107686782D01*
X166809519Y-107613149D01*
X166913652Y-107509016D01*
X166987285Y-107381480D01*
X167025401Y-107239231D01*
X167025401Y-107091965D01*
X166987285Y-106949716D01*
X166913652Y-106822180D01*
X166809519Y-106718047D01*
X166809520Y-106718047D01*
X166681986Y-106644415D01*
X166681983Y-106644414D01*
X166643872Y-106634202D01*
X166539736Y-106606298D01*
X166539734Y-106606298D01*
X166392468Y-106606298D01*
X166392465Y-106606298D01*
X166250215Y-106644415D01*
X166122682Y-106718047D01*
X166018550Y-106822179D01*
X165944918Y-106949712D01*
X165906801Y-107091962D01*
X152608700Y-107091962D01*
X152608700Y-105621763D01*
X160457101Y-105621763D01*
X160457101Y-105769034D01*
X160495218Y-105911284D01*
X160568850Y-106038817D01*
X160672982Y-106142949D01*
X160672981Y-106142949D01*
X160800515Y-106216581D01*
X160800516Y-106216581D01*
X160800519Y-106216583D01*
X160942768Y-106254699D01*
X160942770Y-106254699D01*
X161090032Y-106254699D01*
X161090034Y-106254699D01*
X161232283Y-106216583D01*
X161359819Y-106142950D01*
X161463952Y-106038817D01*
X161537585Y-105911281D01*
X161575701Y-105769032D01*
X161575701Y-105621766D01*
X161537585Y-105479517D01*
X161463952Y-105351981D01*
X161359819Y-105247848D01*
X161359820Y-105247848D01*
X161232286Y-105174216D01*
X161232283Y-105174215D01*
X161194172Y-105164003D01*
X161090036Y-105136099D01*
X161090034Y-105136099D01*
X160942768Y-105136099D01*
X160942765Y-105136099D01*
X160800515Y-105174216D01*
X160672982Y-105247848D01*
X160568850Y-105351980D01*
X160495218Y-105479513D01*
X160457101Y-105621763D01*
X152608700Y-105621763D01*
X152608700Y-103075764D01*
X173684700Y-103075764D01*
X173684700Y-103223035D01*
X173722817Y-103365285D01*
X173796449Y-103492818D01*
X173900581Y-103596950D01*
X173900580Y-103596950D01*
X174028114Y-103670582D01*
X174028115Y-103670582D01*
X174028118Y-103670584D01*
X174170367Y-103708700D01*
X174170369Y-103708700D01*
X174317631Y-103708700D01*
X174317633Y-103708700D01*
X174459882Y-103670584D01*
X174587418Y-103596951D01*
X174617365Y-103567004D01*
X174672763Y-103538778D01*
X174734171Y-103548504D01*
X174759635Y-103567004D01*
X174789581Y-103596950D01*
X174789580Y-103596950D01*
X174917114Y-103670582D01*
X174917115Y-103670582D01*
X174917118Y-103670584D01*
X175059367Y-103708700D01*
X175059369Y-103708700D01*
X175206631Y-103708700D01*
X175206633Y-103708700D01*
X175348882Y-103670584D01*
X175476418Y-103596951D01*
X175506365Y-103567004D01*
X175561763Y-103538778D01*
X175623171Y-103548504D01*
X175648635Y-103567004D01*
X175678581Y-103596950D01*
X175678580Y-103596950D01*
X175806114Y-103670582D01*
X175806115Y-103670582D01*
X175806118Y-103670584D01*
X175948367Y-103708700D01*
X175948369Y-103708700D01*
X176095631Y-103708700D01*
X176095633Y-103708700D01*
X176237882Y-103670584D01*
X176365418Y-103596951D01*
X176469551Y-103492818D01*
X176543184Y-103365282D01*
X176581300Y-103223033D01*
X176581300Y-103075767D01*
X176543184Y-102933518D01*
X176469551Y-102805982D01*
X176365418Y-102701849D01*
X176365419Y-102701849D01*
X176290967Y-102658864D01*
X176914900Y-102658864D01*
X176914900Y-102806135D01*
X176953017Y-102948385D01*
X177026649Y-103075918D01*
X177130781Y-103180050D01*
X177130780Y-103180050D01*
X177258314Y-103253682D01*
X177258315Y-103253682D01*
X177258318Y-103253684D01*
X177400567Y-103291800D01*
X177400569Y-103291800D01*
X177547831Y-103291800D01*
X177547833Y-103291800D01*
X177690082Y-103253684D01*
X177817618Y-103180051D01*
X177921751Y-103075918D01*
X177995384Y-102948382D01*
X178033500Y-102806133D01*
X178033500Y-102658867D01*
X178033499Y-102658864D01*
X178438900Y-102658864D01*
X178438900Y-102806135D01*
X178477017Y-102948385D01*
X178550649Y-103075918D01*
X178654781Y-103180050D01*
X178654780Y-103180050D01*
X178782314Y-103253682D01*
X178782315Y-103253682D01*
X178782318Y-103253684D01*
X178924567Y-103291800D01*
X178924569Y-103291800D01*
X179071831Y-103291800D01*
X179071833Y-103291800D01*
X179214082Y-103253684D01*
X179341618Y-103180051D01*
X179445751Y-103075918D01*
X179519384Y-102948382D01*
X179557500Y-102806133D01*
X179557500Y-102658867D01*
X179519384Y-102516618D01*
X179445751Y-102389082D01*
X179341618Y-102284949D01*
X179341619Y-102284949D01*
X179214085Y-102211317D01*
X179214082Y-102211316D01*
X179175971Y-102201104D01*
X179071835Y-102173200D01*
X179071833Y-102173200D01*
X178924567Y-102173200D01*
X178924564Y-102173200D01*
X178782314Y-102211317D01*
X178654781Y-102284949D01*
X178550649Y-102389081D01*
X178477017Y-102516614D01*
X178438900Y-102658864D01*
X178033499Y-102658864D01*
X177995384Y-102516618D01*
X177921751Y-102389082D01*
X177817618Y-102284949D01*
X177817619Y-102284949D01*
X177690085Y-102211317D01*
X177690082Y-102211316D01*
X177651971Y-102201104D01*
X177547835Y-102173200D01*
X177547833Y-102173200D01*
X177400567Y-102173200D01*
X177400564Y-102173200D01*
X177258314Y-102211317D01*
X177130781Y-102284949D01*
X177026649Y-102389081D01*
X176953017Y-102516614D01*
X176914900Y-102658864D01*
X176290967Y-102658864D01*
X176237885Y-102628217D01*
X176237882Y-102628216D01*
X176199771Y-102618004D01*
X176095635Y-102590100D01*
X176095633Y-102590100D01*
X175948367Y-102590100D01*
X175948364Y-102590100D01*
X175806114Y-102628217D01*
X175678581Y-102701849D01*
X175648635Y-102731796D01*
X175593237Y-102760022D01*
X175531829Y-102750296D01*
X175506365Y-102731796D01*
X175476418Y-102701849D01*
X175476419Y-102701849D01*
X175348885Y-102628217D01*
X175348882Y-102628216D01*
X175310771Y-102618004D01*
X175206635Y-102590100D01*
X175206633Y-102590100D01*
X175059367Y-102590100D01*
X175059364Y-102590100D01*
X174917114Y-102628217D01*
X174789581Y-102701849D01*
X174759635Y-102731796D01*
X174704237Y-102760022D01*
X174642829Y-102750296D01*
X174617365Y-102731796D01*
X174587418Y-102701849D01*
X174587419Y-102701849D01*
X174459885Y-102628217D01*
X174459882Y-102628216D01*
X174421771Y-102618004D01*
X174317635Y-102590100D01*
X174317633Y-102590100D01*
X174170367Y-102590100D01*
X174170364Y-102590100D01*
X174028114Y-102628217D01*
X173900581Y-102701849D01*
X173796449Y-102805981D01*
X173722817Y-102933514D01*
X173684700Y-103075764D01*
X152608700Y-103075764D01*
X152608700Y-101746563D01*
X155142201Y-101746563D01*
X155142201Y-101893834D01*
X155180318Y-102036084D01*
X155253950Y-102163617D01*
X155358082Y-102267749D01*
X155358081Y-102267749D01*
X155485615Y-102341381D01*
X155485616Y-102341381D01*
X155485619Y-102341383D01*
X155627868Y-102379499D01*
X155627870Y-102379499D01*
X155775132Y-102379499D01*
X155775134Y-102379499D01*
X155917383Y-102341383D01*
X156044919Y-102267750D01*
X156149052Y-102163617D01*
X156222685Y-102036081D01*
X156260801Y-101893832D01*
X156260801Y-101746566D01*
X156222685Y-101604317D01*
X156149052Y-101476781D01*
X156044919Y-101372648D01*
X156044920Y-101372648D01*
X155917386Y-101299016D01*
X155917383Y-101299015D01*
X155879272Y-101288803D01*
X155775136Y-101260899D01*
X155775134Y-101260899D01*
X155627868Y-101260899D01*
X155627865Y-101260899D01*
X155485615Y-101299016D01*
X155358082Y-101372648D01*
X155253950Y-101476780D01*
X155180318Y-101604313D01*
X155142201Y-101746563D01*
X152608700Y-101746563D01*
X152608700Y-98009907D01*
X179772100Y-98009907D01*
X179772100Y-98215252D01*
X179804219Y-98418044D01*
X179804223Y-98418060D01*
X179867671Y-98613334D01*
X179960891Y-98796287D01*
X180081581Y-98962403D01*
X180226776Y-99107598D01*
X180307287Y-99166093D01*
X180343832Y-99216393D01*
X180343832Y-99278567D01*
X180307287Y-99328867D01*
X180248156Y-99348080D01*
X180228346Y-99348080D01*
X180168259Y-99354540D01*
X180168257Y-99354540D01*
X180032335Y-99405236D01*
X179916196Y-99492176D01*
X179829256Y-99608315D01*
X179778560Y-99744237D01*
X179778560Y-99744239D01*
X179772100Y-99804326D01*
X179772100Y-101500833D01*
X179778560Y-101560920D01*
X179778560Y-101560922D01*
X179829256Y-101696844D01*
X179829257Y-101696846D01*
X179829258Y-101696847D01*
X179916196Y-101812984D01*
X180032333Y-101899922D01*
X180032336Y-101899923D01*
X180032335Y-101899923D01*
X180071525Y-101914540D01*
X180168259Y-101950620D01*
X180228346Y-101957080D01*
X181924854Y-101957080D01*
X181984941Y-101950620D01*
X182120867Y-101899922D01*
X182237004Y-101812984D01*
X182323942Y-101696847D01*
X182374640Y-101560921D01*
X182381100Y-101500834D01*
X182381100Y-99804326D01*
X182374640Y-99744239D01*
X182323942Y-99608313D01*
X182237004Y-99492176D01*
X182120867Y-99405238D01*
X182120864Y-99405237D01*
X182120863Y-99405236D01*
X182120864Y-99405236D01*
X181984941Y-99354540D01*
X181924854Y-99348080D01*
X181905044Y-99348080D01*
X181845913Y-99328867D01*
X181809368Y-99278567D01*
X181809368Y-99216393D01*
X181845913Y-99166093D01*
X181888428Y-99135202D01*
X181926425Y-99107597D01*
X182071617Y-98962405D01*
X182192309Y-98796287D01*
X182285528Y-98613334D01*
X182348979Y-98418051D01*
X182381100Y-98215246D01*
X182381100Y-98009914D01*
X182348979Y-97807109D01*
X182285528Y-97611826D01*
X182285528Y-97611825D01*
X182192308Y-97428872D01*
X182071618Y-97262756D01*
X181926423Y-97117561D01*
X181760307Y-96996871D01*
X181760308Y-96996871D01*
X181577354Y-96903651D01*
X181382080Y-96840203D01*
X181382064Y-96840199D01*
X181179272Y-96808080D01*
X181179266Y-96808080D01*
X180973934Y-96808080D01*
X180973927Y-96808080D01*
X180771135Y-96840199D01*
X180771119Y-96840203D01*
X180575845Y-96903651D01*
X180392892Y-96996871D01*
X180226776Y-97117561D01*
X180081581Y-97262756D01*
X179960891Y-97428872D01*
X179867671Y-97611825D01*
X179804223Y-97807099D01*
X179804219Y-97807115D01*
X179772100Y-98009907D01*
X152608700Y-98009907D01*
X152608700Y-96499100D01*
X152627913Y-96439969D01*
X152678213Y-96403424D01*
X152709300Y-96398500D01*
X175133989Y-96398500D01*
X175134000Y-96398500D01*
X175174597Y-96395305D01*
X175205684Y-96390381D01*
X175225666Y-96386406D01*
X175317617Y-96344016D01*
X175367917Y-96307471D01*
X175412712Y-96266063D01*
X175462186Y-96177722D01*
X175481399Y-96118591D01*
X175494100Y-96038400D01*
X175494100Y-90868864D01*
X176914900Y-90868864D01*
X176914900Y-91016135D01*
X176953017Y-91158385D01*
X177026649Y-91285918D01*
X177130781Y-91390050D01*
X177130780Y-91390050D01*
X177258314Y-91463682D01*
X177258315Y-91463682D01*
X177258318Y-91463684D01*
X177400567Y-91501800D01*
X177400569Y-91501800D01*
X177547831Y-91501800D01*
X177547833Y-91501800D01*
X177690082Y-91463684D01*
X177817618Y-91390051D01*
X177921751Y-91285918D01*
X177995384Y-91158382D01*
X178033500Y-91016133D01*
X178033500Y-90868867D01*
X178033499Y-90868864D01*
X178438900Y-90868864D01*
X178438900Y-91016135D01*
X178477017Y-91158385D01*
X178550649Y-91285918D01*
X178654781Y-91390050D01*
X178654780Y-91390050D01*
X178782314Y-91463682D01*
X178782315Y-91463682D01*
X178782318Y-91463684D01*
X178924567Y-91501800D01*
X178924569Y-91501800D01*
X179071831Y-91501800D01*
X179071833Y-91501800D01*
X179214082Y-91463684D01*
X179341618Y-91390051D01*
X179445751Y-91285918D01*
X179519384Y-91158382D01*
X179557500Y-91016133D01*
X179557500Y-90868867D01*
X179519384Y-90726618D01*
X179445751Y-90599082D01*
X179341618Y-90494949D01*
X179341619Y-90494949D01*
X179214085Y-90421317D01*
X179214082Y-90421316D01*
X179175971Y-90411104D01*
X179071835Y-90383200D01*
X179071833Y-90383200D01*
X178924567Y-90383200D01*
X178924564Y-90383200D01*
X178782314Y-90421317D01*
X178654781Y-90494949D01*
X178550649Y-90599081D01*
X178477017Y-90726614D01*
X178438900Y-90868864D01*
X178033499Y-90868864D01*
X177995384Y-90726618D01*
X177921751Y-90599082D01*
X177817618Y-90494949D01*
X177817619Y-90494949D01*
X177690085Y-90421317D01*
X177690082Y-90421316D01*
X177651971Y-90411104D01*
X177547835Y-90383200D01*
X177547833Y-90383200D01*
X177400567Y-90383200D01*
X177400564Y-90383200D01*
X177258314Y-90421317D01*
X177130781Y-90494949D01*
X177026649Y-90599081D01*
X176953017Y-90726614D01*
X176914900Y-90868864D01*
X175494100Y-90868864D01*
X175494100Y-83731192D01*
X175513313Y-83672061D01*
X175563613Y-83635516D01*
X175568634Y-83634028D01*
X175676282Y-83605184D01*
X175803818Y-83531551D01*
X175907951Y-83427418D01*
X175981584Y-83299882D01*
X176019700Y-83157633D01*
X176019700Y-83010367D01*
X175981584Y-82868118D01*
X175907951Y-82740582D01*
X175803818Y-82636449D01*
X175803819Y-82636449D01*
X175676285Y-82562817D01*
X175676282Y-82562816D01*
X175568661Y-82533978D01*
X175516519Y-82500116D01*
X175494238Y-82442071D01*
X175494100Y-82436807D01*
X175494100Y-78896900D01*
X175513313Y-78837769D01*
X175563613Y-78801224D01*
X175594700Y-78796300D01*
X178080389Y-78796300D01*
X178080400Y-78796300D01*
X178120997Y-78793105D01*
X178152084Y-78788181D01*
X178172066Y-78784206D01*
X178264017Y-78741816D01*
X178314317Y-78705271D01*
X178359112Y-78663863D01*
X178408586Y-78575522D01*
X178427799Y-78516391D01*
X178440500Y-78436200D01*
X178440500Y-75364364D01*
X179018700Y-75364364D01*
X179018700Y-75511635D01*
X179056817Y-75653885D01*
X179130449Y-75781418D01*
X179134996Y-75785965D01*
X179163222Y-75841363D01*
X179153496Y-75902771D01*
X179134996Y-75928235D01*
X179130449Y-75932781D01*
X179056817Y-76060314D01*
X179018700Y-76202564D01*
X179018700Y-76349835D01*
X179056817Y-76492085D01*
X179130449Y-76619618D01*
X179134996Y-76624165D01*
X179163222Y-76679563D01*
X179153496Y-76740971D01*
X179134996Y-76766435D01*
X179130449Y-76770981D01*
X179056817Y-76898514D01*
X179018700Y-77040764D01*
X179018700Y-77188035D01*
X179056817Y-77330285D01*
X179130449Y-77457818D01*
X179134996Y-77462365D01*
X179163222Y-77517763D01*
X179153496Y-77579171D01*
X179134996Y-77604635D01*
X179130449Y-77609181D01*
X179056817Y-77736714D01*
X179018700Y-77878964D01*
X179018700Y-78026235D01*
X179056817Y-78168485D01*
X179130449Y-78296018D01*
X179234581Y-78400150D01*
X179234580Y-78400150D01*
X179362114Y-78473782D01*
X179362115Y-78473782D01*
X179362118Y-78473784D01*
X179504367Y-78511900D01*
X179504369Y-78511900D01*
X179651631Y-78511900D01*
X179651633Y-78511900D01*
X179793882Y-78473784D01*
X179921418Y-78400151D01*
X179925965Y-78395604D01*
X179981363Y-78367378D01*
X180042771Y-78377104D01*
X180068235Y-78395604D01*
X180072781Y-78400150D01*
X180072780Y-78400150D01*
X180200314Y-78473782D01*
X180200315Y-78473782D01*
X180200318Y-78473784D01*
X180342567Y-78511900D01*
X180342569Y-78511900D01*
X180489831Y-78511900D01*
X180489833Y-78511900D01*
X180632082Y-78473784D01*
X180759618Y-78400151D01*
X180863751Y-78296018D01*
X180937384Y-78168482D01*
X180975500Y-78026233D01*
X180975500Y-77878967D01*
X180937384Y-77736718D01*
X180925254Y-77715709D01*
X180863750Y-77609181D01*
X180859204Y-77604635D01*
X180830978Y-77549237D01*
X180840704Y-77487829D01*
X180859204Y-77462365D01*
X180863751Y-77457818D01*
X180937384Y-77330282D01*
X180975500Y-77188033D01*
X180975500Y-77040767D01*
X180937384Y-76898518D01*
X180863751Y-76770982D01*
X180859204Y-76766435D01*
X180830978Y-76711037D01*
X180840704Y-76649629D01*
X180859204Y-76624165D01*
X180863751Y-76619618D01*
X180937384Y-76492082D01*
X180975500Y-76349833D01*
X180975500Y-76202567D01*
X180937384Y-76060318D01*
X180863751Y-75932782D01*
X180859204Y-75928235D01*
X180830978Y-75872837D01*
X180840704Y-75811429D01*
X180859204Y-75785965D01*
X180863751Y-75781418D01*
X180937384Y-75653882D01*
X180975500Y-75511633D01*
X180975500Y-75364367D01*
X180937384Y-75222118D01*
X180932486Y-75213635D01*
X180863750Y-75094581D01*
X180759618Y-74990449D01*
X180759619Y-74990449D01*
X180632085Y-74916817D01*
X180632082Y-74916816D01*
X180593971Y-74906604D01*
X180489835Y-74878700D01*
X180489833Y-74878700D01*
X180342567Y-74878700D01*
X180342564Y-74878700D01*
X180200314Y-74916817D01*
X180072781Y-74990449D01*
X180068235Y-74994996D01*
X180012837Y-75023222D01*
X179951429Y-75013496D01*
X179925965Y-74994996D01*
X179921418Y-74990449D01*
X179921419Y-74990449D01*
X179793885Y-74916817D01*
X179793882Y-74916816D01*
X179755771Y-74906604D01*
X179651635Y-74878700D01*
X179651633Y-74878700D01*
X179504367Y-74878700D01*
X179504364Y-74878700D01*
X179362114Y-74916817D01*
X179234581Y-74990449D01*
X179130449Y-75094581D01*
X179056817Y-75222114D01*
X179018700Y-75364364D01*
X178440500Y-75364364D01*
X178440500Y-74929000D01*
X178437305Y-74888403D01*
X178432381Y-74857316D01*
X178428406Y-74837334D01*
X178386016Y-74745383D01*
X178349471Y-74695083D01*
X178349469Y-74695081D01*
X178349469Y-74695080D01*
X178308064Y-74650289D01*
X178308063Y-74650288D01*
X178219721Y-74600813D01*
X178160596Y-74581602D01*
X178160586Y-74581600D01*
X178080404Y-74568900D01*
X178080400Y-74568900D01*
X171144200Y-74568900D01*
X171144190Y-74568900D01*
X171103604Y-74572094D01*
X171103602Y-74572095D01*
X171072533Y-74577016D01*
X171072525Y-74577017D01*
X171072516Y-74577019D01*
X171052534Y-74580994D01*
X171052532Y-74580994D01*
X171052531Y-74580995D01*
X171009543Y-74600813D01*
X170960583Y-74623384D01*
X170960579Y-74623386D01*
X170960575Y-74623389D01*
X170910282Y-74659929D01*
X170910280Y-74659930D01*
X170865489Y-74701335D01*
X170865488Y-74701336D01*
X170816013Y-74789678D01*
X170796802Y-74848803D01*
X170796800Y-74848813D01*
X170784100Y-74928995D01*
X170784100Y-88378725D01*
X170784188Y-88385482D01*
X170784326Y-88390748D01*
X170784328Y-88390762D01*
X170788031Y-88409380D01*
X170780723Y-88471124D01*
X170739665Y-88516127D01*
X170673980Y-88554050D01*
X170569849Y-88658181D01*
X170496217Y-88785714D01*
X170458100Y-88927964D01*
X170458100Y-89073300D01*
X170438887Y-89132431D01*
X170388587Y-89168976D01*
X170357500Y-89173900D01*
X166401273Y-89173900D01*
X166342142Y-89154687D01*
X166305597Y-89104387D01*
X166305597Y-89042213D01*
X166314151Y-89023000D01*
X166319182Y-89014285D01*
X166319181Y-89014285D01*
X166319184Y-89014282D01*
X166357300Y-88872033D01*
X166357300Y-88724767D01*
X166319184Y-88582518D01*
X166312965Y-88571747D01*
X166260235Y-88480416D01*
X166245551Y-88454982D01*
X166141418Y-88350849D01*
X166141419Y-88350849D01*
X166013885Y-88277217D01*
X166013882Y-88277216D01*
X165975771Y-88267004D01*
X165871635Y-88239100D01*
X165871633Y-88239100D01*
X165724367Y-88239100D01*
X165724364Y-88239100D01*
X165582114Y-88277217D01*
X165454581Y-88350849D01*
X165350449Y-88454981D01*
X165276817Y-88582514D01*
X165238700Y-88724764D01*
X165238700Y-88872035D01*
X165276817Y-89014285D01*
X165281849Y-89023000D01*
X165294776Y-89083816D01*
X165269487Y-89140615D01*
X165215643Y-89171702D01*
X165194727Y-89173900D01*
X152709300Y-89173900D01*
X152650169Y-89154687D01*
X152613624Y-89104387D01*
X152608700Y-89073300D01*
X152608700Y-83981364D01*
X166714000Y-83981364D01*
X166714000Y-84128635D01*
X166752117Y-84270885D01*
X166825749Y-84398418D01*
X166929881Y-84502550D01*
X166929880Y-84502550D01*
X167057414Y-84576182D01*
X167057415Y-84576182D01*
X167057418Y-84576184D01*
X167199667Y-84614300D01*
X167199669Y-84614300D01*
X167346931Y-84614300D01*
X167346933Y-84614300D01*
X167489182Y-84576184D01*
X167616718Y-84502551D01*
X167720851Y-84398418D01*
X167794484Y-84270882D01*
X167832600Y-84128633D01*
X167832600Y-83981367D01*
X167812269Y-83905491D01*
X167815523Y-83843403D01*
X167854650Y-83795084D01*
X167914705Y-83778992D01*
X167935477Y-83782282D01*
X167947612Y-83785534D01*
X167961662Y-83789299D01*
X167961664Y-83789299D01*
X167961667Y-83789300D01*
X167961669Y-83789300D01*
X168108931Y-83789300D01*
X168108933Y-83789300D01*
X168135119Y-83782283D01*
X168197206Y-83785534D01*
X168245526Y-83824660D01*
X168261620Y-83884715D01*
X168258330Y-83905491D01*
X168238000Y-83981361D01*
X168238000Y-84128635D01*
X168276117Y-84270885D01*
X168349749Y-84398418D01*
X168453881Y-84502550D01*
X168453880Y-84502550D01*
X168581414Y-84576182D01*
X168581415Y-84576182D01*
X168581418Y-84576184D01*
X168723667Y-84614300D01*
X168723669Y-84614300D01*
X168870931Y-84614300D01*
X168870933Y-84614300D01*
X169013182Y-84576184D01*
X169140718Y-84502551D01*
X169244851Y-84398418D01*
X169318484Y-84270882D01*
X169356600Y-84128633D01*
X169356600Y-83981367D01*
X169318484Y-83839118D01*
X169244851Y-83711582D01*
X169140718Y-83607449D01*
X169140719Y-83607449D01*
X169013185Y-83533817D01*
X169013182Y-83533816D01*
X168975071Y-83523604D01*
X168870935Y-83495700D01*
X168870933Y-83495700D01*
X168723667Y-83495700D01*
X168723664Y-83495700D01*
X168697479Y-83502717D01*
X168635389Y-83499463D01*
X168587071Y-83460336D01*
X168570979Y-83400280D01*
X168574269Y-83379507D01*
X168590370Y-83319418D01*
X168594600Y-83303633D01*
X168594600Y-83156367D01*
X168556484Y-83014118D01*
X168554318Y-83010367D01*
X168517198Y-82946073D01*
X168491963Y-82902364D01*
X169254000Y-82902364D01*
X169254000Y-83049635D01*
X169292117Y-83191885D01*
X169365749Y-83319418D01*
X169469881Y-83423550D01*
X169469880Y-83423550D01*
X169597414Y-83497182D01*
X169597415Y-83497182D01*
X169597418Y-83497184D01*
X169739667Y-83535300D01*
X169739669Y-83535300D01*
X169886931Y-83535300D01*
X169886933Y-83535300D01*
X170029182Y-83497184D01*
X170156718Y-83423551D01*
X170260851Y-83319418D01*
X170334484Y-83191882D01*
X170372600Y-83049633D01*
X170372600Y-82902367D01*
X170334484Y-82760118D01*
X170260851Y-82632582D01*
X170156718Y-82528449D01*
X170156719Y-82528449D01*
X170029185Y-82454817D01*
X170029182Y-82454816D01*
X169981618Y-82442071D01*
X169886935Y-82416700D01*
X169886933Y-82416700D01*
X169739667Y-82416700D01*
X169739664Y-82416700D01*
X169597414Y-82454817D01*
X169469881Y-82528449D01*
X169365749Y-82632581D01*
X169292117Y-82760114D01*
X169254000Y-82902364D01*
X168491963Y-82902364D01*
X168482851Y-82886582D01*
X168378718Y-82782449D01*
X168378719Y-82782449D01*
X168251185Y-82708817D01*
X168251182Y-82708816D01*
X168189399Y-82692261D01*
X168108935Y-82670700D01*
X168108933Y-82670700D01*
X167961667Y-82670700D01*
X167961664Y-82670700D01*
X167819414Y-82708817D01*
X167691881Y-82782449D01*
X167587749Y-82886581D01*
X167514117Y-83014114D01*
X167476000Y-83156364D01*
X167476000Y-83303638D01*
X167496330Y-83379508D01*
X167493076Y-83441597D01*
X167453948Y-83489915D01*
X167393893Y-83506007D01*
X167373120Y-83502717D01*
X167346935Y-83495700D01*
X167346933Y-83495700D01*
X167199667Y-83495700D01*
X167199664Y-83495700D01*
X167057414Y-83533817D01*
X166929881Y-83607449D01*
X166825749Y-83711581D01*
X166752117Y-83839114D01*
X166714000Y-83981364D01*
X152608700Y-83981364D01*
X152608700Y-83626939D01*
X152627913Y-83567808D01*
X152678213Y-83531263D01*
X152740387Y-83531263D01*
X152780435Y-83555804D01*
X152831781Y-83607150D01*
X152831780Y-83607150D01*
X152959314Y-83680782D01*
X152959315Y-83680782D01*
X152959318Y-83680784D01*
X153101567Y-83718900D01*
X153101569Y-83718900D01*
X153248831Y-83718900D01*
X153248833Y-83718900D01*
X153391082Y-83680784D01*
X153518618Y-83607151D01*
X153622751Y-83503018D01*
X153696384Y-83375482D01*
X153734500Y-83233233D01*
X153734500Y-83085967D01*
X153696384Y-82943718D01*
X153622751Y-82816182D01*
X153518618Y-82712049D01*
X153518619Y-82712049D01*
X153391085Y-82638417D01*
X153391082Y-82638416D01*
X153352971Y-82628204D01*
X153248835Y-82600300D01*
X153248833Y-82600300D01*
X153101567Y-82600300D01*
X153101564Y-82600300D01*
X152959314Y-82638417D01*
X152831781Y-82712049D01*
X152780435Y-82763396D01*
X152725037Y-82791622D01*
X152663629Y-82781896D01*
X152619665Y-82737932D01*
X152608700Y-82692261D01*
X152608700Y-82026739D01*
X152627913Y-81967608D01*
X152678213Y-81931063D01*
X152740387Y-81931063D01*
X152780435Y-81955604D01*
X152831781Y-82006950D01*
X152831780Y-82006950D01*
X152959314Y-82080582D01*
X152959315Y-82080582D01*
X152959318Y-82080584D01*
X153101567Y-82118700D01*
X153101569Y-82118700D01*
X153248831Y-82118700D01*
X153248833Y-82118700D01*
X153391082Y-82080584D01*
X153518618Y-82006951D01*
X153622751Y-81902818D01*
X153696384Y-81775282D01*
X153734500Y-81633033D01*
X153734500Y-81485767D01*
X153696384Y-81343518D01*
X153622751Y-81215982D01*
X153518618Y-81111849D01*
X153518619Y-81111849D01*
X153506347Y-81104764D01*
X165238700Y-81104764D01*
X165238700Y-81252035D01*
X165276817Y-81394285D01*
X165350449Y-81521818D01*
X165454581Y-81625950D01*
X165454580Y-81625950D01*
X165582114Y-81699582D01*
X165582115Y-81699582D01*
X165582118Y-81699584D01*
X165724367Y-81737700D01*
X165724369Y-81737700D01*
X165871631Y-81737700D01*
X165871633Y-81737700D01*
X166013882Y-81699584D01*
X166141418Y-81625951D01*
X166245551Y-81521818D01*
X166319184Y-81394282D01*
X166357300Y-81252033D01*
X166357300Y-81104767D01*
X166319184Y-80962518D01*
X166298657Y-80926964D01*
X169085700Y-80926964D01*
X169085700Y-81074235D01*
X169123817Y-81216485D01*
X169197449Y-81344018D01*
X169301581Y-81448150D01*
X169301580Y-81448150D01*
X169429114Y-81521782D01*
X169429115Y-81521782D01*
X169429118Y-81521784D01*
X169571367Y-81559900D01*
X169571369Y-81559900D01*
X169718631Y-81559900D01*
X169718633Y-81559900D01*
X169860882Y-81521784D01*
X169988418Y-81448151D01*
X170092551Y-81344018D01*
X170166184Y-81216482D01*
X170204300Y-81074233D01*
X170204300Y-80926967D01*
X170166184Y-80784718D01*
X170092551Y-80657182D01*
X169988418Y-80553049D01*
X169988419Y-80553049D01*
X169860885Y-80479417D01*
X169860882Y-80479416D01*
X169822771Y-80469204D01*
X169718635Y-80441300D01*
X169718633Y-80441300D01*
X169571367Y-80441300D01*
X169571364Y-80441300D01*
X169429114Y-80479417D01*
X169301581Y-80553049D01*
X169197449Y-80657181D01*
X169123817Y-80784714D01*
X169085700Y-80926964D01*
X166298657Y-80926964D01*
X166245551Y-80834982D01*
X166141418Y-80730849D01*
X166141419Y-80730849D01*
X166013885Y-80657217D01*
X166013882Y-80657216D01*
X165975771Y-80647004D01*
X165871635Y-80619100D01*
X165871633Y-80619100D01*
X165724367Y-80619100D01*
X165724364Y-80619100D01*
X165582114Y-80657217D01*
X165454581Y-80730849D01*
X165350449Y-80834981D01*
X165276817Y-80962514D01*
X165238700Y-81104764D01*
X153506347Y-81104764D01*
X153391085Y-81038217D01*
X153391082Y-81038216D01*
X153352971Y-81028004D01*
X153248835Y-81000100D01*
X153248833Y-81000100D01*
X153101567Y-81000100D01*
X153101564Y-81000100D01*
X152959314Y-81038217D01*
X152831781Y-81111849D01*
X152780435Y-81163196D01*
X152725037Y-81191422D01*
X152663629Y-81181696D01*
X152619665Y-81137732D01*
X152608700Y-81092061D01*
X152608700Y-77849999D01*
X152602769Y-77794836D01*
X152591386Y-77742506D01*
X152589797Y-77736714D01*
X152584034Y-77715709D01*
X152533931Y-77627722D01*
X152487438Y-77574066D01*
X152454149Y-77541944D01*
X152364430Y-77495013D01*
X152364427Y-77495012D01*
X152296311Y-77475011D01*
X152296297Y-77475008D01*
X152230607Y-77465565D01*
X152223200Y-77464500D01*
X152223199Y-77464500D01*
X114695445Y-77464500D01*
X114636314Y-77445287D01*
X114599769Y-77394987D01*
X114599769Y-77332813D01*
X114600184Y-77331561D01*
X114601127Y-77328781D01*
X114601133Y-77328767D01*
X114667852Y-77079768D01*
X114701500Y-76824191D01*
X114701500Y-76566409D01*
X114701500Y-76566407D01*
X165968500Y-76566407D01*
X165968500Y-76824192D01*
X166002147Y-77079762D01*
X166002148Y-77079770D01*
X166068866Y-77328767D01*
X166068867Y-77328769D01*
X166167515Y-77566926D01*
X166296404Y-77790169D01*
X166296406Y-77790172D01*
X166296407Y-77790173D01*
X166453335Y-77994685D01*
X166635615Y-78176965D01*
X166840127Y-78333893D01*
X166840130Y-78333895D01*
X167063373Y-78462784D01*
X167301530Y-78561432D01*
X167301532Y-78561433D01*
X167445290Y-78599952D01*
X167550532Y-78628152D01*
X167763512Y-78656192D01*
X167806108Y-78661800D01*
X167806109Y-78661800D01*
X168063892Y-78661800D01*
X168100402Y-78656993D01*
X168319468Y-78628152D01*
X168568467Y-78561433D01*
X168806627Y-78462784D01*
X169029873Y-78333893D01*
X169234385Y-78176965D01*
X169416665Y-77994685D01*
X169573593Y-77790173D01*
X169702484Y-77566927D01*
X169801133Y-77328767D01*
X169867852Y-77079768D01*
X169901500Y-76824191D01*
X169901500Y-76566409D01*
X169867852Y-76310832D01*
X169801133Y-76061833D01*
X169800505Y-76060318D01*
X169702484Y-75823673D01*
X169573595Y-75600430D01*
X169505460Y-75511635D01*
X169416665Y-75395915D01*
X169234385Y-75213635D01*
X169029873Y-75056707D01*
X169029872Y-75056706D01*
X169029869Y-75056704D01*
X168806626Y-74927815D01*
X168568469Y-74829167D01*
X168568467Y-74829166D01*
X168319470Y-74762448D01*
X168319462Y-74762447D01*
X168063892Y-74728800D01*
X168063891Y-74728800D01*
X167806109Y-74728800D01*
X167806108Y-74728800D01*
X167550537Y-74762447D01*
X167550529Y-74762448D01*
X167301532Y-74829166D01*
X167301530Y-74829167D01*
X167063373Y-74927815D01*
X166840130Y-75056704D01*
X166635611Y-75213638D01*
X166453338Y-75395911D01*
X166296404Y-75600430D01*
X166167515Y-75823673D01*
X166068867Y-76061830D01*
X166068866Y-76061832D01*
X166002148Y-76310829D01*
X166002147Y-76310837D01*
X165968500Y-76566407D01*
X114701500Y-76566407D01*
X114667852Y-76310832D01*
X114601133Y-76061833D01*
X114600505Y-76060318D01*
X114502484Y-75823673D01*
X114373595Y-75600430D01*
X114305460Y-75511635D01*
X114216665Y-75395915D01*
X114034385Y-75213635D01*
X113829873Y-75056707D01*
X113829872Y-75056706D01*
X113829869Y-75056704D01*
X113606626Y-74927815D01*
X113368469Y-74829167D01*
X113368467Y-74829166D01*
X113119468Y-74762448D01*
X113119460Y-74762447D01*
X113115462Y-74761920D01*
X113059346Y-74735153D01*
X113029680Y-74680513D01*
X113029020Y-74647870D01*
X113035500Y-74602800D01*
X113035500Y-66281024D01*
X114121700Y-66281024D01*
X114121700Y-66428295D01*
X114159817Y-66570545D01*
X114233449Y-66698078D01*
X114337581Y-66802210D01*
X114337580Y-66802210D01*
X114465114Y-66875842D01*
X114465115Y-66875842D01*
X114465118Y-66875844D01*
X114607367Y-66913960D01*
X114607369Y-66913960D01*
X114754631Y-66913960D01*
X114754633Y-66913960D01*
X114896882Y-66875844D01*
X115024418Y-66802211D01*
X115128551Y-66698078D01*
X115202184Y-66570542D01*
X115240300Y-66428293D01*
X115240300Y-66281027D01*
X115217822Y-66197140D01*
X124402399Y-66197140D01*
X124402399Y-66344411D01*
X124440516Y-66486661D01*
X124514148Y-66614194D01*
X124533457Y-66633503D01*
X124561683Y-66688901D01*
X124551957Y-66750309D01*
X124533459Y-66775771D01*
X124520449Y-66788781D01*
X124446817Y-66916314D01*
X124408700Y-67058564D01*
X124408700Y-67205835D01*
X124446817Y-67348085D01*
X124520449Y-67475618D01*
X124537696Y-67492865D01*
X124565922Y-67548263D01*
X124556196Y-67609671D01*
X124537696Y-67635135D01*
X124520449Y-67652381D01*
X124446817Y-67779914D01*
X124408700Y-67922164D01*
X124408700Y-68069435D01*
X124446817Y-68211685D01*
X124520449Y-68339218D01*
X124624581Y-68443350D01*
X124624580Y-68443350D01*
X124752114Y-68516982D01*
X124752115Y-68516982D01*
X124752118Y-68516984D01*
X124894367Y-68555100D01*
X124894369Y-68555100D01*
X125041631Y-68555100D01*
X125041633Y-68555100D01*
X125183882Y-68516984D01*
X125311418Y-68443351D01*
X125415551Y-68339218D01*
X125489184Y-68211682D01*
X125527300Y-68069433D01*
X125527300Y-67922167D01*
X125489184Y-67779918D01*
X125415551Y-67652382D01*
X125398304Y-67635135D01*
X125370078Y-67579737D01*
X125379804Y-67518329D01*
X125398304Y-67492865D01*
X125415551Y-67475618D01*
X125489184Y-67348082D01*
X125527300Y-67205833D01*
X125527300Y-67058567D01*
X125489184Y-66916318D01*
X125415551Y-66788782D01*
X125396241Y-66769472D01*
X125368015Y-66714074D01*
X125377741Y-66652666D01*
X125396240Y-66627203D01*
X125409250Y-66614194D01*
X125482883Y-66486658D01*
X125520999Y-66344409D01*
X125520999Y-66197143D01*
X125482883Y-66054894D01*
X125457680Y-66011242D01*
X125409249Y-65927357D01*
X125305117Y-65823225D01*
X125305118Y-65823225D01*
X125177584Y-65749593D01*
X125177581Y-65749592D01*
X125139470Y-65739380D01*
X125035334Y-65711476D01*
X125035332Y-65711476D01*
X124888066Y-65711476D01*
X124888063Y-65711476D01*
X124745813Y-65749593D01*
X124618280Y-65823225D01*
X124514148Y-65927357D01*
X124440516Y-66054890D01*
X124402399Y-66197140D01*
X115217822Y-66197140D01*
X115202184Y-66138778D01*
X115128551Y-66011242D01*
X115024418Y-65907109D01*
X115024419Y-65907109D01*
X114896885Y-65833477D01*
X114896882Y-65833476D01*
X114858625Y-65823225D01*
X114754635Y-65795360D01*
X114754633Y-65795360D01*
X114607367Y-65795360D01*
X114607364Y-65795360D01*
X114465114Y-65833477D01*
X114337581Y-65907109D01*
X114233449Y-66011241D01*
X114159817Y-66138774D01*
X114121700Y-66281024D01*
X113035500Y-66281024D01*
X113035500Y-61362160D01*
X113030376Y-61314501D01*
X113043158Y-61253657D01*
X113089263Y-61211944D01*
X113117267Y-61204010D01*
X113146840Y-61200117D01*
X113413565Y-61128648D01*
X113668680Y-61022976D01*
X113907820Y-60884909D01*
X114126892Y-60716809D01*
X114322149Y-60521552D01*
X114490249Y-60302480D01*
X114628316Y-60063340D01*
X114733988Y-59808225D01*
X114805457Y-59541500D01*
X114841500Y-59267727D01*
X114841500Y-59052231D01*
X165828500Y-59052231D01*
X165828500Y-59328368D01*
X165864542Y-59602134D01*
X165864543Y-59602142D01*
X165936011Y-59868865D01*
X165936012Y-59868867D01*
X166041683Y-60123979D01*
X166179748Y-60363116D01*
X166179750Y-60363119D01*
X166179751Y-60363120D01*
X166347851Y-60582192D01*
X166543108Y-60777449D01*
X166762180Y-60945549D01*
X166762183Y-60945551D01*
X167001320Y-61083616D01*
X167256432Y-61189287D01*
X167256434Y-61189288D01*
X167311374Y-61204009D01*
X167523160Y-61260757D01*
X167751304Y-61290792D01*
X167796932Y-61296800D01*
X167796933Y-61296800D01*
X168073068Y-61296800D01*
X168112177Y-61291651D01*
X168346840Y-61260757D01*
X168613565Y-61189288D01*
X168868680Y-61083616D01*
X169107820Y-60945549D01*
X169326892Y-60777449D01*
X169522149Y-60582192D01*
X169690249Y-60363120D01*
X169828316Y-60123980D01*
X169933988Y-59868865D01*
X170005457Y-59602140D01*
X170041500Y-59328367D01*
X170041500Y-59052233D01*
X170005457Y-58778460D01*
X169933988Y-58511735D01*
X169828316Y-58256620D01*
X169690249Y-58017480D01*
X169522149Y-57798408D01*
X169326892Y-57603151D01*
X169107820Y-57435051D01*
X169107819Y-57435050D01*
X169107816Y-57435048D01*
X168868679Y-57296983D01*
X168613567Y-57191312D01*
X168613565Y-57191311D01*
X168346842Y-57119843D01*
X168346834Y-57119842D01*
X168073068Y-57083800D01*
X168073067Y-57083800D01*
X167796933Y-57083800D01*
X167796932Y-57083800D01*
X167523165Y-57119842D01*
X167523157Y-57119843D01*
X167256434Y-57191311D01*
X167256432Y-57191312D01*
X167001320Y-57296983D01*
X166762183Y-57435048D01*
X166543104Y-57603154D01*
X166347854Y-57798404D01*
X166179748Y-58017483D01*
X166041683Y-58256620D01*
X165936012Y-58511732D01*
X165936011Y-58511734D01*
X165864543Y-58778457D01*
X165864542Y-58778465D01*
X165828500Y-59052231D01*
X114841500Y-59052231D01*
X114841500Y-58991593D01*
X114805457Y-58717820D01*
X114775250Y-58605087D01*
X114733988Y-58451094D01*
X114733987Y-58451092D01*
X114628316Y-58195980D01*
X114490251Y-57956843D01*
X114490249Y-57956840D01*
X114322149Y-57737768D01*
X114126892Y-57542511D01*
X113907820Y-57374411D01*
X113907819Y-57374410D01*
X113907816Y-57374408D01*
X113668679Y-57236343D01*
X113413567Y-57130672D01*
X113413565Y-57130671D01*
X113203204Y-57074306D01*
X113146840Y-57059203D01*
X113137999Y-57058039D01*
X113115633Y-57055094D01*
X113059517Y-57028326D01*
X113029851Y-56973685D01*
X113029191Y-56941041D01*
X113035500Y-56897160D01*
X113035500Y-53840339D01*
X175745500Y-53840339D01*
X175745500Y-54109660D01*
X175780652Y-54376667D01*
X175780653Y-54376675D01*
X175850357Y-54636814D01*
X175850358Y-54636816D01*
X175953421Y-54885631D01*
X176088082Y-55118870D01*
X176088087Y-55118877D01*
X176252026Y-55332527D01*
X176442472Y-55522973D01*
X176656122Y-55686912D01*
X176656129Y-55686917D01*
X176889368Y-55821578D01*
X177138183Y-55924641D01*
X177138185Y-55924642D01*
X177288378Y-55964886D01*
X177398327Y-55994347D01*
X177620838Y-56023641D01*
X177665340Y-56029500D01*
X177665341Y-56029500D01*
X177934660Y-56029500D01*
X177972803Y-56024478D01*
X178201673Y-55994347D01*
X178461814Y-55924642D01*
X178710632Y-55821578D01*
X178943868Y-55686919D01*
X179157532Y-55522969D01*
X179347969Y-55332532D01*
X179511919Y-55118868D01*
X179646578Y-54885632D01*
X179749642Y-54636814D01*
X179819347Y-54376673D01*
X179854500Y-54109659D01*
X179854500Y-53840341D01*
X179819347Y-53573327D01*
X179749642Y-53313186D01*
X179646578Y-53064368D01*
X179511919Y-52831132D01*
X179511917Y-52831129D01*
X179511912Y-52831122D01*
X179347973Y-52617472D01*
X179157527Y-52427026D01*
X178943877Y-52263087D01*
X178943870Y-52263082D01*
X178710631Y-52128421D01*
X178461816Y-52025358D01*
X178461814Y-52025357D01*
X178201675Y-51955653D01*
X178201667Y-51955652D01*
X177934660Y-51920500D01*
X177934659Y-51920500D01*
X177665341Y-51920500D01*
X177665340Y-51920500D01*
X177398332Y-51955652D01*
X177398324Y-51955653D01*
X177138185Y-52025357D01*
X177138183Y-52025358D01*
X176889368Y-52128421D01*
X176656129Y-52263082D01*
X176656122Y-52263087D01*
X176442472Y-52427026D01*
X176252026Y-52617472D01*
X176088087Y-52831122D01*
X176088082Y-52831129D01*
X175953421Y-53064368D01*
X175850358Y-53313183D01*
X175850357Y-53313185D01*
X175780653Y-53573324D01*
X175780652Y-53573332D01*
X175745500Y-53840339D01*
X113035500Y-53840339D01*
X113035500Y-52323500D01*
X113035500Y-52323493D01*
X113033926Y-52308856D01*
X113046706Y-52248009D01*
X113092811Y-52206296D01*
X113133949Y-52197500D01*
X170865223Y-52197500D01*
X170865225Y-52197500D01*
X170962254Y-52171501D01*
X171049247Y-52121276D01*
X171120276Y-52050247D01*
X173864558Y-49305965D01*
X173919956Y-49277739D01*
X173935693Y-49276500D01*
X176983149Y-49276500D01*
X177036292Y-49276500D01*
X177039727Y-49276559D01*
G37*
%TD.AperFunction*%
%TD*%
M02*
