%TF.GenerationSoftware,KiCad,Pcbnew,9.0.7*%
%TF.CreationDate,2026-02-05T16:51:58-05:00*%
%TF.ProjectId,Avionics-SolarPanels,4176696f-6e69-4637-932d-536f6c617250,rev?*%
%TF.SameCoordinates,Original*%
%TF.FileFunction,Legend,Top*%
%TF.FilePolarity,Positive*%
%FSLAX46Y46*%
G04 Gerber Fmt 4.6, Leading zero omitted, Abs format (unit mm)*
G04 Created by KiCad (PCBNEW 9.0.7) date 2026-02-05 16:51:58*
%MOMM*%
%LPD*%
G01*
G04 APERTURE LIST*
%ADD10C,0.228600*%
%ADD11C,0.127000*%
%ADD12C,0.120000*%
%ADD13C,0.152400*%
%ADD14C,0.100000*%
%ADD15C,0.200000*%
G04 APERTURE END LIST*
D10*
G36*
X147278707Y-50561339D02*
G01*
X146981423Y-50561339D01*
X146917400Y-50374729D01*
X146519118Y-50374729D01*
X146455095Y-50561339D01*
X146157811Y-50561339D01*
X146310252Y-50160327D01*
X146593067Y-50160327D01*
X146843451Y-50160327D01*
X146718259Y-49803982D01*
X146593067Y-50160327D01*
X146310252Y-50160327D01*
X146566081Y-49487342D01*
X146870437Y-49487342D01*
X147278707Y-50561339D01*
G37*
G36*
X147918291Y-49496295D02*
G01*
X147988481Y-49515693D01*
X148050222Y-49547441D01*
X148098473Y-49587595D01*
X148136386Y-49636610D01*
X148163737Y-49692935D01*
X148180115Y-49754322D01*
X148185698Y-49821043D01*
X148178531Y-49900748D01*
X148158474Y-49965998D01*
X148126638Y-50019687D01*
X148082645Y-50063782D01*
X148025520Y-50098250D01*
X147952437Y-50122856D01*
X148289549Y-50563324D01*
X147942511Y-50563324D01*
X147677486Y-50149905D01*
X147677486Y-50563324D01*
X147399557Y-50563324D01*
X147399557Y-49968879D01*
X147677486Y-49968879D01*
X147729907Y-49968879D01*
X147783705Y-49964512D01*
X147824771Y-49952704D01*
X147855906Y-49934696D01*
X147879972Y-49909046D01*
X147894622Y-49876930D01*
X147899829Y-49836304D01*
X147894621Y-49795681D01*
X147879970Y-49763587D01*
X147855906Y-49737974D01*
X147824766Y-49719932D01*
X147783699Y-49708103D01*
X147729907Y-49703730D01*
X147677486Y-49703730D01*
X147677486Y-49968879D01*
X147399557Y-49968879D01*
X147399557Y-49489327D01*
X147832332Y-49489327D01*
X147918291Y-49496295D01*
G37*
G36*
X148917247Y-49961806D02*
G01*
X149469134Y-49961806D01*
X149467257Y-50045390D01*
X149462000Y-50117149D01*
X149451187Y-50185248D01*
X149433586Y-50246807D01*
X149397973Y-50326765D01*
X149352441Y-50395760D01*
X149296713Y-50455324D01*
X149232274Y-50504016D01*
X149160355Y-50542097D01*
X149080778Y-50570272D01*
X148996831Y-50587308D01*
X148907259Y-50593102D01*
X148824689Y-50588312D01*
X148748909Y-50574378D01*
X148679022Y-50551723D01*
X148612883Y-50520053D01*
X148554099Y-50481352D01*
X148501966Y-50435464D01*
X148456698Y-50382723D01*
X148418330Y-50323063D01*
X148386762Y-50255741D01*
X148364181Y-50184757D01*
X148350285Y-50107776D01*
X148345507Y-50023906D01*
X148350185Y-49940965D01*
X148363818Y-49864438D01*
X148386018Y-49793498D01*
X148417280Y-49726233D01*
X148455641Y-49666837D01*
X148501222Y-49614519D01*
X148553838Y-49569127D01*
X148613550Y-49530633D01*
X148681131Y-49498943D01*
X148752422Y-49476344D01*
X148830368Y-49462382D01*
X148915944Y-49457564D01*
X148999648Y-49462391D01*
X149076006Y-49476393D01*
X149145974Y-49499091D01*
X149210375Y-49530334D01*
X149269114Y-49570638D01*
X149321935Y-49620891D01*
X149369205Y-49682079D01*
X149410943Y-49755593D01*
X149147096Y-49865896D01*
X149118177Y-49809598D01*
X149085964Y-49768001D01*
X149050566Y-49738471D01*
X149009550Y-49717104D01*
X148964846Y-49704183D01*
X148915510Y-49699759D01*
X148854718Y-49705806D01*
X148801112Y-49723333D01*
X148753450Y-49751849D01*
X148713205Y-49790458D01*
X148681182Y-49837615D01*
X148656068Y-49895426D01*
X148640733Y-49959036D01*
X148635347Y-50032529D01*
X148639938Y-50099415D01*
X148653214Y-50159582D01*
X148675853Y-50214798D01*
X148706815Y-50261014D01*
X148746678Y-50298864D01*
X148795467Y-50327394D01*
X148851151Y-50344741D01*
X148918425Y-50350907D01*
X148959366Y-50348602D01*
X148998454Y-50341787D01*
X149035375Y-50329653D01*
X149067750Y-50312133D01*
X149095728Y-50288765D01*
X149118497Y-50259215D01*
X149134947Y-50224246D01*
X149145669Y-50180179D01*
X148917247Y-50180179D01*
X148917247Y-49961806D01*
G37*
G36*
X149922753Y-49487342D02*
G01*
X149922753Y-50071861D01*
X149926290Y-50168082D01*
X149933570Y-50215625D01*
X149947569Y-50257168D01*
X149970287Y-50293137D01*
X150003589Y-50321997D01*
X150030315Y-50335059D01*
X150065507Y-50343722D01*
X150111410Y-50346936D01*
X150157233Y-50343708D01*
X150192105Y-50335035D01*
X150218363Y-50321997D01*
X150251257Y-50293214D01*
X150274383Y-50257168D01*
X150288929Y-50215584D01*
X150296344Y-50168082D01*
X150299943Y-50071861D01*
X150299943Y-49487342D01*
X150577871Y-49487342D01*
X150577871Y-50110821D01*
X150572288Y-50215189D01*
X150556814Y-50301400D01*
X150532985Y-50372303D01*
X150501775Y-50430352D01*
X150463536Y-50477526D01*
X150416577Y-50516657D01*
X150359836Y-50548275D01*
X150291643Y-50572185D01*
X150209887Y-50587582D01*
X150112092Y-50593102D01*
X150014337Y-50587591D01*
X149932490Y-50572210D01*
X149864111Y-50548308D01*
X149807112Y-50516682D01*
X149759842Y-50477526D01*
X149721348Y-50430312D01*
X149689951Y-50372237D01*
X149665990Y-50301331D01*
X149650436Y-50215142D01*
X149644825Y-50110821D01*
X149644825Y-49487342D01*
X149922753Y-49487342D01*
G37*
G36*
X151393419Y-49764526D02*
G01*
X151346400Y-49731675D01*
X151301479Y-49709685D01*
X151255543Y-49696137D01*
X151212517Y-49691818D01*
X151161595Y-49698625D01*
X151123493Y-49717440D01*
X151104136Y-49736574D01*
X151092899Y-49758541D01*
X151089062Y-49784379D01*
X151093490Y-49810731D01*
X151106246Y-49831403D01*
X151125586Y-49848230D01*
X151151472Y-49863415D01*
X151214564Y-49886927D01*
X151284170Y-49908268D01*
X151372933Y-49944607D01*
X151438635Y-49985378D01*
X151485731Y-50029986D01*
X151512908Y-50069528D01*
X151532785Y-50115032D01*
X151545245Y-50167589D01*
X151549630Y-50228568D01*
X151542440Y-50308433D01*
X151521775Y-50378079D01*
X151500304Y-50420715D01*
X151473302Y-50458785D01*
X151440505Y-50492725D01*
X151382071Y-50534424D01*
X151309296Y-50566736D01*
X151228403Y-50586204D01*
X151133109Y-50593102D01*
X151033178Y-50585508D01*
X150937586Y-50562921D01*
X150845208Y-50525106D01*
X150755113Y-50471136D01*
X150874163Y-50245567D01*
X150938474Y-50294987D01*
X150998487Y-50327891D01*
X151060444Y-50348315D01*
X151120019Y-50354877D01*
X151164787Y-50350843D01*
X151197941Y-50340026D01*
X151222257Y-50323548D01*
X151241358Y-50301009D01*
X151252223Y-50277525D01*
X151255819Y-50252329D01*
X151253568Y-50229196D01*
X151247258Y-50210329D01*
X151236264Y-50193725D01*
X151218721Y-50177573D01*
X151196828Y-50163714D01*
X151166671Y-50149781D01*
X151088876Y-50121305D01*
X150982543Y-50083586D01*
X150933039Y-50059373D01*
X150889797Y-50028745D01*
X150853397Y-49990507D01*
X150824161Y-49942575D01*
X150805994Y-49886408D01*
X150799222Y-49810807D01*
X150806030Y-49733602D01*
X150825588Y-49666259D01*
X150857583Y-49605720D01*
X150899785Y-49555149D01*
X150952166Y-49514443D01*
X151016726Y-49483186D01*
X151088628Y-49464208D01*
X151171572Y-49457564D01*
X151252037Y-49462972D01*
X151338453Y-49479836D01*
X151423603Y-49507277D01*
X151505397Y-49545223D01*
X151393419Y-49764526D01*
G37*
G36*
X152976993Y-49846354D02*
G01*
X152924233Y-49793186D01*
X152867533Y-49756682D01*
X152805870Y-49734950D01*
X152737589Y-49727552D01*
X152676655Y-49733382D01*
X152621455Y-49750444D01*
X152571477Y-49777666D01*
X152529577Y-49812730D01*
X152495446Y-49855510D01*
X152469028Y-49906531D01*
X152452561Y-49962533D01*
X152446943Y-50023906D01*
X152452589Y-50086475D01*
X152469028Y-50142708D01*
X152495551Y-50193813D01*
X152530259Y-50237254D01*
X152572699Y-50272942D01*
X152622137Y-50300222D01*
X152676564Y-50317301D01*
X152736162Y-50323114D01*
X152800215Y-50316235D01*
X152860913Y-50295639D01*
X152919545Y-50260446D01*
X152976993Y-50208592D01*
X152976993Y-50539129D01*
X152948641Y-50549055D01*
X152885354Y-50569187D01*
X152829219Y-50582431D01*
X152773876Y-50590462D01*
X152719784Y-50593102D01*
X152646754Y-50588404D01*
X152576145Y-50574411D01*
X152507367Y-50551040D01*
X152442109Y-50519044D01*
X152382597Y-50479658D01*
X152328327Y-50432610D01*
X152280440Y-50378971D01*
X152239042Y-50318792D01*
X152204003Y-50251460D01*
X152178179Y-50180241D01*
X152162464Y-50104213D01*
X152157103Y-50022479D01*
X152162403Y-49940726D01*
X152177892Y-49865187D01*
X152203259Y-49794925D01*
X152237895Y-49728560D01*
X152279058Y-49669334D01*
X152326900Y-49616629D01*
X152381107Y-49570484D01*
X152440838Y-49531572D01*
X152506623Y-49499688D01*
X152575900Y-49476302D01*
X152647230Y-49462278D01*
X152721211Y-49457564D01*
X152784713Y-49460954D01*
X152846962Y-49471088D01*
X152909097Y-49487871D01*
X152976993Y-49512964D01*
X152976993Y-49846354D01*
G37*
G36*
X153430612Y-49487342D02*
G01*
X153430612Y-50071861D01*
X153434148Y-50168082D01*
X153441429Y-50215625D01*
X153455427Y-50257168D01*
X153478146Y-50293137D01*
X153511447Y-50321997D01*
X153538174Y-50335059D01*
X153573366Y-50343722D01*
X153619269Y-50346936D01*
X153665092Y-50343708D01*
X153699964Y-50335035D01*
X153726222Y-50321997D01*
X153759116Y-50293214D01*
X153782242Y-50257168D01*
X153796788Y-50215584D01*
X153804203Y-50168082D01*
X153807801Y-50071861D01*
X153807801Y-49487342D01*
X154085730Y-49487342D01*
X154085730Y-50110821D01*
X154080147Y-50215189D01*
X154064673Y-50301400D01*
X154040844Y-50372303D01*
X154009634Y-50430352D01*
X153971395Y-50477526D01*
X153924436Y-50516657D01*
X153867694Y-50548275D01*
X153799502Y-50572185D01*
X153717745Y-50587582D01*
X153619951Y-50593102D01*
X153522196Y-50587591D01*
X153440349Y-50572210D01*
X153371969Y-50548308D01*
X153314970Y-50516682D01*
X153267701Y-50477526D01*
X153229207Y-50430312D01*
X153197809Y-50372237D01*
X153173849Y-50301331D01*
X153158294Y-50215142D01*
X153152683Y-50110821D01*
X153152683Y-49487342D01*
X153430612Y-49487342D01*
G37*
G36*
X154799347Y-49490541D02*
G01*
X154859885Y-49504904D01*
X154909172Y-49527196D01*
X154949171Y-49556948D01*
X154981557Y-49595018D01*
X155005303Y-49640914D01*
X155020350Y-49696245D01*
X155025725Y-49763162D01*
X155022174Y-49817008D01*
X155012283Y-49861583D01*
X154996878Y-49898466D01*
X154974810Y-49931767D01*
X154945802Y-49961995D01*
X154908970Y-49989351D01*
X154966046Y-50004309D01*
X155011084Y-50024216D01*
X155049785Y-50050746D01*
X155079636Y-50081849D01*
X155102254Y-50118010D01*
X155117479Y-50158714D01*
X155126023Y-50202310D01*
X155128956Y-50249723D01*
X155122108Y-50322264D01*
X155102652Y-50383539D01*
X155070866Y-50437405D01*
X155028641Y-50481682D01*
X154976807Y-50516027D01*
X154912692Y-50541424D01*
X154841965Y-50556126D01*
X154759149Y-50561339D01*
X154311051Y-50561339D01*
X154311051Y-50342966D01*
X154588980Y-50342966D01*
X154650273Y-50342966D01*
X154721010Y-50339186D01*
X154769482Y-50329554D01*
X154801397Y-50316104D01*
X154826557Y-50294804D01*
X154841662Y-50266789D01*
X154847057Y-50229809D01*
X154841659Y-50192791D01*
X154826551Y-50164780D01*
X154801397Y-50143515D01*
X154769482Y-50130064D01*
X154721010Y-50120432D01*
X154650273Y-50116652D01*
X154588980Y-50116652D01*
X154588980Y-50342966D01*
X154311051Y-50342966D01*
X154311051Y-49910191D01*
X154588980Y-49910191D01*
X154640409Y-49910191D01*
X154692328Y-49904973D01*
X154727962Y-49891338D01*
X154751794Y-49870851D01*
X154766340Y-49842911D01*
X154771619Y-49804913D01*
X154766343Y-49766969D01*
X154751803Y-49739065D01*
X154727976Y-49718598D01*
X154692340Y-49704974D01*
X154640409Y-49699759D01*
X154588980Y-49699759D01*
X154588980Y-49910191D01*
X154311051Y-49910191D01*
X154311051Y-49485357D01*
X154725091Y-49485357D01*
X154799347Y-49490541D01*
G37*
G36*
X155904179Y-49723582D02*
G01*
X155572649Y-49723582D01*
X155572649Y-49902250D01*
X155886312Y-49902250D01*
X155886312Y-50140475D01*
X155572649Y-50140475D01*
X155572649Y-50323114D01*
X155904179Y-50323114D01*
X155904179Y-50561339D01*
X155294721Y-50561339D01*
X155294721Y-49485357D01*
X155904179Y-49485357D01*
X155904179Y-49723582D01*
G37*
G36*
X156694911Y-49764526D02*
G01*
X156647892Y-49731675D01*
X156602971Y-49709685D01*
X156557035Y-49696137D01*
X156514009Y-49691818D01*
X156463087Y-49698625D01*
X156424985Y-49717440D01*
X156405628Y-49736574D01*
X156394392Y-49758541D01*
X156390554Y-49784379D01*
X156394982Y-49810731D01*
X156407739Y-49831403D01*
X156427078Y-49848230D01*
X156452964Y-49863415D01*
X156516056Y-49886927D01*
X156585663Y-49908268D01*
X156674425Y-49944607D01*
X156740127Y-49985378D01*
X156787223Y-50029986D01*
X156814400Y-50069528D01*
X156834277Y-50115032D01*
X156846737Y-50167589D01*
X156851122Y-50228568D01*
X156843932Y-50308433D01*
X156823267Y-50378079D01*
X156801796Y-50420715D01*
X156774794Y-50458785D01*
X156741998Y-50492725D01*
X156683563Y-50534424D01*
X156610788Y-50566736D01*
X156529896Y-50586204D01*
X156434601Y-50593102D01*
X156334670Y-50585508D01*
X156239078Y-50562921D01*
X156146700Y-50525106D01*
X156056605Y-50471136D01*
X156175656Y-50245567D01*
X156239966Y-50294987D01*
X156299979Y-50327891D01*
X156361937Y-50348315D01*
X156421511Y-50354877D01*
X156466279Y-50350843D01*
X156499433Y-50340026D01*
X156523749Y-50323548D01*
X156542850Y-50301009D01*
X156553716Y-50277525D01*
X156557311Y-50252329D01*
X156555060Y-50229196D01*
X156548750Y-50210329D01*
X156537756Y-50193725D01*
X156520213Y-50177573D01*
X156498320Y-50163714D01*
X156468163Y-50149781D01*
X156390368Y-50121305D01*
X156284035Y-50083586D01*
X156234531Y-50059373D01*
X156191289Y-50028745D01*
X156154889Y-49990507D01*
X156125653Y-49942575D01*
X156107486Y-49886408D01*
X156100714Y-49810807D01*
X156107522Y-49733602D01*
X156127080Y-49666259D01*
X156159075Y-49605720D01*
X156201277Y-49555149D01*
X156253659Y-49514443D01*
X156318218Y-49483186D01*
X156390120Y-49464208D01*
X156473064Y-49457564D01*
X156553529Y-49462972D01*
X156639946Y-49479836D01*
X156725096Y-49507277D01*
X156806889Y-49545223D01*
X156694911Y-49764526D01*
G37*
G36*
X158022642Y-50561339D02*
G01*
X157725357Y-50561339D01*
X157661334Y-50374729D01*
X157263052Y-50374729D01*
X157199029Y-50561339D01*
X156901745Y-50561339D01*
X157054186Y-50160327D01*
X157337001Y-50160327D01*
X157587385Y-50160327D01*
X157462193Y-49803982D01*
X157337001Y-50160327D01*
X157054186Y-50160327D01*
X157310015Y-49487342D01*
X157614372Y-49487342D01*
X158022642Y-50561339D01*
G37*
G36*
X158504798Y-49723582D02*
G01*
X158504798Y-50561339D01*
X158226870Y-50561339D01*
X158226870Y-49723582D01*
X157996586Y-49723582D01*
X157996586Y-49485357D01*
X158735082Y-49485357D01*
X158735082Y-49723582D01*
X158504798Y-49723582D01*
G37*
D11*
X151276340Y-53754258D02*
X151276340Y-54268305D01*
X151276340Y-54268305D02*
X151306578Y-54328781D01*
X151306578Y-54328781D02*
X151336816Y-54359020D01*
X151336816Y-54359020D02*
X151397292Y-54389258D01*
X151397292Y-54389258D02*
X151518245Y-54389258D01*
X151518245Y-54389258D02*
X151578721Y-54359020D01*
X151578721Y-54359020D02*
X151608959Y-54328781D01*
X151608959Y-54328781D02*
X151639197Y-54268305D01*
X151639197Y-54268305D02*
X151639197Y-53754258D01*
X152274197Y-54389258D02*
X151911340Y-54389258D01*
X152092768Y-54389258D02*
X152092768Y-53754258D01*
X152092768Y-53754258D02*
X152032292Y-53844972D01*
X152032292Y-53844972D02*
X151971816Y-53905448D01*
X151971816Y-53905448D02*
X151911340Y-53935686D01*
X112888609Y-67562889D02*
X113402656Y-67562889D01*
X113402656Y-67562889D02*
X113463132Y-67532651D01*
X113463132Y-67532651D02*
X113493371Y-67502413D01*
X113493371Y-67502413D02*
X113523609Y-67441937D01*
X113523609Y-67441937D02*
X113523609Y-67320984D01*
X113523609Y-67320984D02*
X113493371Y-67260508D01*
X113493371Y-67260508D02*
X113463132Y-67230270D01*
X113463132Y-67230270D02*
X113402656Y-67200032D01*
X113402656Y-67200032D02*
X112888609Y-67200032D01*
X113523609Y-66565032D02*
X113523609Y-66927889D01*
X113523609Y-66746461D02*
X112888609Y-66746461D01*
X112888609Y-66746461D02*
X112979323Y-66806937D01*
X112979323Y-66806937D02*
X113039799Y-66867413D01*
X113039799Y-66867413D02*
X113070037Y-66927889D01*
X113523609Y-65960270D02*
X113523609Y-66323127D01*
X113523609Y-66141699D02*
X112888609Y-66141699D01*
X112888609Y-66141699D02*
X112979323Y-66202175D01*
X112979323Y-66202175D02*
X113039799Y-66262651D01*
X113039799Y-66262651D02*
X113070037Y-66323127D01*
X112828235Y-71702381D02*
X112797997Y-71732620D01*
X112797997Y-71732620D02*
X112707283Y-71762858D01*
X112707283Y-71762858D02*
X112646807Y-71762858D01*
X112646807Y-71762858D02*
X112556092Y-71732620D01*
X112556092Y-71732620D02*
X112495616Y-71672143D01*
X112495616Y-71672143D02*
X112465378Y-71611667D01*
X112465378Y-71611667D02*
X112435140Y-71490715D01*
X112435140Y-71490715D02*
X112435140Y-71400000D01*
X112435140Y-71400000D02*
X112465378Y-71279048D01*
X112465378Y-71279048D02*
X112495616Y-71218572D01*
X112495616Y-71218572D02*
X112556092Y-71158096D01*
X112556092Y-71158096D02*
X112646807Y-71127858D01*
X112646807Y-71127858D02*
X112707283Y-71127858D01*
X112707283Y-71127858D02*
X112797997Y-71158096D01*
X112797997Y-71158096D02*
X112828235Y-71188334D01*
X113372521Y-71339524D02*
X113372521Y-71762858D01*
X113221330Y-71097620D02*
X113070140Y-71551191D01*
X113070140Y-71551191D02*
X113463235Y-71551191D01*
X113977283Y-71127858D02*
X113856330Y-71127858D01*
X113856330Y-71127858D02*
X113795854Y-71158096D01*
X113795854Y-71158096D02*
X113765616Y-71188334D01*
X113765616Y-71188334D02*
X113705140Y-71279048D01*
X113705140Y-71279048D02*
X113674902Y-71400000D01*
X113674902Y-71400000D02*
X113674902Y-71641905D01*
X113674902Y-71641905D02*
X113705140Y-71702381D01*
X113705140Y-71702381D02*
X113735378Y-71732620D01*
X113735378Y-71732620D02*
X113795854Y-71762858D01*
X113795854Y-71762858D02*
X113916807Y-71762858D01*
X113916807Y-71762858D02*
X113977283Y-71732620D01*
X113977283Y-71732620D02*
X114007521Y-71702381D01*
X114007521Y-71702381D02*
X114037759Y-71641905D01*
X114037759Y-71641905D02*
X114037759Y-71490715D01*
X114037759Y-71490715D02*
X114007521Y-71430239D01*
X114007521Y-71430239D02*
X113977283Y-71400000D01*
X113977283Y-71400000D02*
X113916807Y-71369762D01*
X113916807Y-71369762D02*
X113795854Y-71369762D01*
X113795854Y-71369762D02*
X113735378Y-71400000D01*
X113735378Y-71400000D02*
X113705140Y-71430239D01*
X113705140Y-71430239D02*
X113674902Y-71490715D01*
X145909755Y-56360781D02*
X145879517Y-56391020D01*
X145879517Y-56391020D02*
X145788803Y-56421258D01*
X145788803Y-56421258D02*
X145728327Y-56421258D01*
X145728327Y-56421258D02*
X145637612Y-56391020D01*
X145637612Y-56391020D02*
X145577136Y-56330543D01*
X145577136Y-56330543D02*
X145546898Y-56270067D01*
X145546898Y-56270067D02*
X145516660Y-56149115D01*
X145516660Y-56149115D02*
X145516660Y-56058400D01*
X145516660Y-56058400D02*
X145546898Y-55937448D01*
X145546898Y-55937448D02*
X145577136Y-55876972D01*
X145577136Y-55876972D02*
X145637612Y-55816496D01*
X145637612Y-55816496D02*
X145728327Y-55786258D01*
X145728327Y-55786258D02*
X145788803Y-55786258D01*
X145788803Y-55786258D02*
X145879517Y-55816496D01*
X145879517Y-55816496D02*
X145909755Y-55846734D01*
X146514517Y-56421258D02*
X146151660Y-56421258D01*
X146333088Y-56421258D02*
X146333088Y-55786258D01*
X146333088Y-55786258D02*
X146272612Y-55876972D01*
X146272612Y-55876972D02*
X146212136Y-55937448D01*
X146212136Y-55937448D02*
X146151660Y-55967686D01*
X148906955Y-59278259D02*
X148695288Y-58975878D01*
X148544098Y-59278259D02*
X148544098Y-58643259D01*
X148544098Y-58643259D02*
X148786003Y-58643259D01*
X148786003Y-58643259D02*
X148846479Y-58673497D01*
X148846479Y-58673497D02*
X148876717Y-58703735D01*
X148876717Y-58703735D02*
X148906955Y-58764211D01*
X148906955Y-58764211D02*
X148906955Y-58854925D01*
X148906955Y-58854925D02*
X148876717Y-58915401D01*
X148876717Y-58915401D02*
X148846479Y-58945640D01*
X148846479Y-58945640D02*
X148786003Y-58975878D01*
X148786003Y-58975878D02*
X148544098Y-58975878D01*
X149148860Y-58703735D02*
X149179098Y-58673497D01*
X149179098Y-58673497D02*
X149239574Y-58643259D01*
X149239574Y-58643259D02*
X149390765Y-58643259D01*
X149390765Y-58643259D02*
X149451241Y-58673497D01*
X149451241Y-58673497D02*
X149481479Y-58703735D01*
X149481479Y-58703735D02*
X149511717Y-58764211D01*
X149511717Y-58764211D02*
X149511717Y-58824687D01*
X149511717Y-58824687D02*
X149481479Y-58915401D01*
X149481479Y-58915401D02*
X149118622Y-59278259D01*
X149118622Y-59278259D02*
X149511717Y-59278259D01*
X189815159Y-120316058D02*
X189815159Y-119681058D01*
X189815159Y-119681058D02*
X189966349Y-119681058D01*
X189966349Y-119681058D02*
X190057064Y-119711296D01*
X190057064Y-119711296D02*
X190117540Y-119771772D01*
X190117540Y-119771772D02*
X190147778Y-119832248D01*
X190147778Y-119832248D02*
X190178016Y-119953200D01*
X190178016Y-119953200D02*
X190178016Y-120043915D01*
X190178016Y-120043915D02*
X190147778Y-120164867D01*
X190147778Y-120164867D02*
X190117540Y-120225343D01*
X190117540Y-120225343D02*
X190057064Y-120285820D01*
X190057064Y-120285820D02*
X189966349Y-120316058D01*
X189966349Y-120316058D02*
X189815159Y-120316058D01*
X190752540Y-119681058D02*
X190450159Y-119681058D01*
X190450159Y-119681058D02*
X190419921Y-119983439D01*
X190419921Y-119983439D02*
X190450159Y-119953200D01*
X190450159Y-119953200D02*
X190510635Y-119922962D01*
X190510635Y-119922962D02*
X190661826Y-119922962D01*
X190661826Y-119922962D02*
X190722302Y-119953200D01*
X190722302Y-119953200D02*
X190752540Y-119983439D01*
X190752540Y-119983439D02*
X190782778Y-120043915D01*
X190782778Y-120043915D02*
X190782778Y-120195105D01*
X190782778Y-120195105D02*
X190752540Y-120255581D01*
X190752540Y-120255581D02*
X190722302Y-120285820D01*
X190722302Y-120285820D02*
X190661826Y-120316058D01*
X190661826Y-120316058D02*
X190510635Y-120316058D01*
X190510635Y-120316058D02*
X190450159Y-120285820D01*
X190450159Y-120285820D02*
X190419921Y-120255581D01*
X189815159Y-78316058D02*
X189815159Y-77681058D01*
X189815159Y-77681058D02*
X189966349Y-77681058D01*
X189966349Y-77681058D02*
X190057064Y-77711296D01*
X190057064Y-77711296D02*
X190117540Y-77771772D01*
X190117540Y-77771772D02*
X190147778Y-77832248D01*
X190147778Y-77832248D02*
X190178016Y-77953200D01*
X190178016Y-77953200D02*
X190178016Y-78043915D01*
X190178016Y-78043915D02*
X190147778Y-78164867D01*
X190147778Y-78164867D02*
X190117540Y-78225343D01*
X190117540Y-78225343D02*
X190057064Y-78285820D01*
X190057064Y-78285820D02*
X189966349Y-78316058D01*
X189966349Y-78316058D02*
X189815159Y-78316058D01*
X190722302Y-77892724D02*
X190722302Y-78316058D01*
X190571111Y-77650820D02*
X190419921Y-78104391D01*
X190419921Y-78104391D02*
X190813016Y-78104391D01*
X112767759Y-120316058D02*
X112767759Y-119681058D01*
X112767759Y-119681058D02*
X112918949Y-119681058D01*
X112918949Y-119681058D02*
X113009664Y-119711296D01*
X113009664Y-119711296D02*
X113070140Y-119771772D01*
X113070140Y-119771772D02*
X113100378Y-119832248D01*
X113100378Y-119832248D02*
X113130616Y-119953200D01*
X113130616Y-119953200D02*
X113130616Y-120043915D01*
X113130616Y-120043915D02*
X113100378Y-120164867D01*
X113100378Y-120164867D02*
X113070140Y-120225343D01*
X113070140Y-120225343D02*
X113009664Y-120285820D01*
X113009664Y-120285820D02*
X112918949Y-120316058D01*
X112918949Y-120316058D02*
X112767759Y-120316058D01*
X113372521Y-119741534D02*
X113402759Y-119711296D01*
X113402759Y-119711296D02*
X113463235Y-119681058D01*
X113463235Y-119681058D02*
X113614426Y-119681058D01*
X113614426Y-119681058D02*
X113674902Y-119711296D01*
X113674902Y-119711296D02*
X113705140Y-119741534D01*
X113705140Y-119741534D02*
X113735378Y-119802010D01*
X113735378Y-119802010D02*
X113735378Y-119862486D01*
X113735378Y-119862486D02*
X113705140Y-119953200D01*
X113705140Y-119953200D02*
X113342283Y-120316058D01*
X113342283Y-120316058D02*
X113735378Y-120316058D01*
X168741259Y-140977858D02*
X168741259Y-140342858D01*
X168741259Y-140342858D02*
X168892449Y-140342858D01*
X168892449Y-140342858D02*
X168983164Y-140373096D01*
X168983164Y-140373096D02*
X169043640Y-140433572D01*
X169043640Y-140433572D02*
X169073878Y-140494048D01*
X169073878Y-140494048D02*
X169104116Y-140615000D01*
X169104116Y-140615000D02*
X169104116Y-140705715D01*
X169104116Y-140705715D02*
X169073878Y-140826667D01*
X169073878Y-140826667D02*
X169043640Y-140887143D01*
X169043640Y-140887143D02*
X168983164Y-140947620D01*
X168983164Y-140947620D02*
X168892449Y-140977858D01*
X168892449Y-140977858D02*
X168741259Y-140977858D01*
X169315783Y-140342858D02*
X169708878Y-140342858D01*
X169708878Y-140342858D02*
X169497211Y-140584762D01*
X169497211Y-140584762D02*
X169587926Y-140584762D01*
X169587926Y-140584762D02*
X169648402Y-140615000D01*
X169648402Y-140615000D02*
X169678640Y-140645239D01*
X169678640Y-140645239D02*
X169708878Y-140705715D01*
X169708878Y-140705715D02*
X169708878Y-140856905D01*
X169708878Y-140856905D02*
X169678640Y-140917381D01*
X169678640Y-140917381D02*
X169648402Y-140947620D01*
X169648402Y-140947620D02*
X169587926Y-140977858D01*
X169587926Y-140977858D02*
X169406497Y-140977858D01*
X169406497Y-140977858D02*
X169346021Y-140947620D01*
X169346021Y-140947620D02*
X169315783Y-140917381D01*
X112767759Y-78316058D02*
X112767759Y-77681058D01*
X112767759Y-77681058D02*
X112918949Y-77681058D01*
X112918949Y-77681058D02*
X113009664Y-77711296D01*
X113009664Y-77711296D02*
X113070140Y-77771772D01*
X113070140Y-77771772D02*
X113100378Y-77832248D01*
X113100378Y-77832248D02*
X113130616Y-77953200D01*
X113130616Y-77953200D02*
X113130616Y-78043915D01*
X113130616Y-78043915D02*
X113100378Y-78164867D01*
X113100378Y-78164867D02*
X113070140Y-78225343D01*
X113070140Y-78225343D02*
X113009664Y-78285820D01*
X113009664Y-78285820D02*
X112918949Y-78316058D01*
X112918949Y-78316058D02*
X112767759Y-78316058D01*
X113735378Y-78316058D02*
X113372521Y-78316058D01*
X113553949Y-78316058D02*
X113553949Y-77681058D01*
X113553949Y-77681058D02*
X113493473Y-77771772D01*
X113493473Y-77771772D02*
X113432997Y-77832248D01*
X113432997Y-77832248D02*
X113372521Y-77862486D01*
X148906955Y-53564257D02*
X148695288Y-53261876D01*
X148544098Y-53564257D02*
X148544098Y-52929257D01*
X148544098Y-52929257D02*
X148786003Y-52929257D01*
X148786003Y-52929257D02*
X148846479Y-52959495D01*
X148846479Y-52959495D02*
X148876717Y-52989733D01*
X148876717Y-52989733D02*
X148906955Y-53050209D01*
X148906955Y-53050209D02*
X148906955Y-53140923D01*
X148906955Y-53140923D02*
X148876717Y-53201399D01*
X148876717Y-53201399D02*
X148846479Y-53231638D01*
X148846479Y-53231638D02*
X148786003Y-53261876D01*
X148786003Y-53261876D02*
X148544098Y-53261876D01*
X149511717Y-53564257D02*
X149148860Y-53564257D01*
X149330288Y-53564257D02*
X149330288Y-52929257D01*
X149330288Y-52929257D02*
X149269812Y-53019971D01*
X149269812Y-53019971D02*
X149209336Y-53080447D01*
X149209336Y-53080447D02*
X149148860Y-53110685D01*
D12*
%TO.C,H10*%
X113936450Y-130853899D02*
G75*
G02*
X112536450Y-130853899I-700000J0D01*
G01*
X112536450Y-130853899D02*
G75*
G02*
X113936450Y-130853899I700000J0D01*
G01*
D13*
%TO.C,U1*%
X150579050Y-57315199D02*
X152941250Y-57315199D01*
X152941250Y-54952999D02*
X150579050Y-54952999D01*
X149859528Y-55092699D02*
G75*
G02*
X149749172Y-55092699I-55178J0D01*
G01*
X149749172Y-55092699D02*
G75*
G02*
X149859528Y-55092699I55178J0D01*
G01*
D14*
%TO.C,SC4*%
X164783850Y-53853900D02*
X164783850Y-95853898D01*
D15*
X176283850Y-65103899D02*
X176283850Y-63103899D01*
X176283850Y-84603899D02*
X176283850Y-86603899D01*
X177283850Y-85603899D02*
X175283850Y-85603899D01*
D14*
X187783850Y-53853900D02*
X164783850Y-53853900D01*
X187783850Y-53853900D02*
X187783850Y-95853898D01*
X187783850Y-95853898D02*
X164783850Y-95853898D01*
D12*
%TO.C,H13*%
X113936450Y-102853899D02*
G75*
G02*
X112536450Y-102853899I-700000J0D01*
G01*
X112536450Y-102853899D02*
G75*
G02*
X113936450Y-102853899I700000J0D01*
G01*
D14*
%TO.C,SC5*%
X164783850Y-95853899D02*
X164783850Y-137853899D01*
D15*
X176283850Y-107103899D02*
X176283850Y-105103899D01*
X176283850Y-126603899D02*
X176283850Y-128603899D01*
X177283850Y-127603899D02*
X175283850Y-127603899D01*
D14*
X187783850Y-95853899D02*
X164783850Y-95853899D01*
X187783850Y-95853899D02*
X187783850Y-137853899D01*
X187783850Y-137853899D02*
X164783850Y-137853899D01*
D12*
%TO.C,U11*%
X111886450Y-64226699D02*
X111886450Y-69026699D01*
X112186450Y-69326699D02*
X114586450Y-69326699D01*
X114586450Y-64226699D02*
X111886450Y-64226699D01*
X114586450Y-69326699D02*
X114586450Y-64226699D01*
X111886450Y-69606699D02*
X111606450Y-69326699D01*
X111886450Y-69326699D01*
X111886450Y-69606699D01*
G36*
X111886450Y-69606699D02*
G01*
X111606450Y-69326699D01*
X111886450Y-69326699D01*
X111886450Y-69606699D01*
G37*
%TO.C,C46*%
X113377030Y-69695699D02*
X113095870Y-69695699D01*
X113377030Y-70715699D02*
X113095870Y-70715699D01*
D14*
%TO.C,SC1*%
X115736450Y-53853899D02*
X115736450Y-95853899D01*
D15*
X127236450Y-65103899D02*
X127236450Y-63103899D01*
X127236450Y-84603899D02*
X127236450Y-86603899D01*
X128236450Y-85603899D02*
X126236450Y-85603899D01*
D14*
X138736450Y-53853899D02*
X115736450Y-53853899D01*
X138736450Y-53853899D02*
X138736450Y-95853899D01*
X138736450Y-95853899D02*
X115736450Y-95853899D01*
D12*
%TO.C,C1*%
X147029589Y-55993519D02*
X147029589Y-56274679D01*
X148049589Y-55993519D02*
X148049589Y-56274679D01*
%TO.C,H12*%
X190983850Y-88853899D02*
G75*
G02*
X189583850Y-88853899I-700000J0D01*
G01*
X189583850Y-88853899D02*
G75*
G02*
X190983850Y-88853899I700000J0D01*
G01*
%TO.C,R2*%
X148490289Y-57196358D02*
X148490289Y-56721842D01*
X149535289Y-57196358D02*
X149535289Y-56721842D01*
%TO.C,H19*%
X190983850Y-130853899D02*
G75*
G02*
X189583850Y-130853899I-700000J0D01*
G01*
X189583850Y-130853899D02*
G75*
G02*
X190983850Y-130853899I700000J0D01*
G01*
D15*
%TO.C,SC3*%
X151760150Y-128112299D02*
X151760150Y-130112299D01*
D14*
X140260150Y-142598499D02*
X163260150Y-142598499D01*
X163260150Y-72598499D01*
X140260150Y-72598499D01*
X140260150Y-142598499D01*
D12*
%TO.C,H14*%
X190983850Y-102853899D02*
G75*
G02*
X189583850Y-102853899I-700000J0D01*
G01*
X189583850Y-102853899D02*
G75*
G02*
X190983850Y-102853899I700000J0D01*
G01*
%TO.C,H16*%
X190983850Y-95853899D02*
G75*
G02*
X189583850Y-95853899I-700000J0D01*
G01*
X189583850Y-95853899D02*
G75*
G02*
X190983850Y-95853899I700000J0D01*
G01*
%TO.C,D5*%
X189273850Y-115853899D02*
X189273850Y-119163899D01*
X191293850Y-119163899D02*
X189273850Y-119163899D01*
X191293850Y-119163899D02*
X191293850Y-115853899D01*
%TO.C,H8*%
X113936450Y-60853899D02*
G75*
G02*
X112536450Y-60853899I-700000J0D01*
G01*
X112536450Y-60853899D02*
G75*
G02*
X113936450Y-60853899I700000J0D01*
G01*
D14*
%TO.C,SC6*%
X140260150Y-100598499D02*
X163260150Y-100598499D01*
X140260150Y-142598499D02*
X140260150Y-100598499D01*
X140260150Y-142598499D02*
X163260150Y-142598499D01*
D15*
X150760150Y-110848499D02*
X152760150Y-110848499D01*
X151760150Y-111848499D02*
X151760150Y-109848499D01*
X151760150Y-131348499D02*
X151760150Y-133348499D01*
D14*
X163260150Y-142598499D02*
X163260150Y-100598499D01*
D12*
%TO.C,D4*%
X189273850Y-73853899D02*
X189273850Y-77163899D01*
X191293850Y-77163899D02*
X189273850Y-77163899D01*
X191293850Y-77163899D02*
X191293850Y-73853899D01*
%TO.C,D2*%
X112226450Y-115853899D02*
X112226450Y-119163899D01*
X114246450Y-119163899D02*
X112226450Y-119163899D01*
X114246450Y-119163899D02*
X114246450Y-115853899D01*
%TO.C,D3*%
X165034950Y-141700699D02*
X168344950Y-141700699D01*
X168344950Y-139680699D02*
X165034950Y-139680699D01*
X168344950Y-139680699D02*
X168344950Y-141700699D01*
%TO.C,D1*%
X112226450Y-73853899D02*
X112226450Y-77163899D01*
X114246450Y-77163899D02*
X112226450Y-77163899D01*
X114246450Y-77163899D02*
X114246450Y-73853899D01*
%TO.C,H11*%
X190983850Y-60853899D02*
G75*
G02*
X189583850Y-60853899I-700000J0D01*
G01*
X189583850Y-60853899D02*
G75*
G02*
X190983850Y-60853899I700000J0D01*
G01*
%TO.C,R1*%
X148490289Y-55546356D02*
X148490289Y-55071840D01*
X149535289Y-55546356D02*
X149535289Y-55071840D01*
%TO.C,H9*%
X113936450Y-88853899D02*
G75*
G02*
X112536450Y-88853899I-700000J0D01*
G01*
X112536450Y-88853899D02*
G75*
G02*
X113936450Y-88853899I700000J0D01*
G01*
D14*
%TO.C,SC2*%
X115736450Y-95853899D02*
X115736450Y-137853899D01*
D15*
X127236450Y-107103899D02*
X127236450Y-105103899D01*
X127236450Y-126603899D02*
X127236450Y-128603899D01*
X128236450Y-127603899D02*
X126236450Y-127603899D01*
D14*
X138736450Y-95853899D02*
X115736450Y-95853899D01*
X138736450Y-95853899D02*
X138736450Y-137853899D01*
X138736450Y-137853899D02*
X115736450Y-137853899D01*
D12*
%TO.C,H15*%
X113936450Y-95853899D02*
G75*
G02*
X112536450Y-95853899I-700000J0D01*
G01*
X112536450Y-95853899D02*
G75*
G02*
X113936450Y-95853899I700000J0D01*
G01*
%TD*%
M02*
