%TF.GenerationSoftware,KiCad,Pcbnew,9.0.7*%
%TF.CreationDate,2026-02-05T16:51:58-05:00*%
%TF.ProjectId,Avionics-SolarPanels,4176696f-6e69-4637-932d-536f6c617250,rev?*%
%TF.SameCoordinates,Original*%
%TF.FileFunction,Copper,L3,Inr*%
%TF.FilePolarity,Positive*%
%FSLAX46Y46*%
G04 Gerber Fmt 4.6, Leading zero omitted, Abs format (unit mm)*
G04 Created by KiCad (PCBNEW 9.0.7) date 2026-02-05 16:51:58*
%MOMM*%
%LPD*%
G01*
G04 APERTURE LIST*
%TA.AperFunction,ComponentPad*%
%ADD10C,3.800000*%
%TD*%
%TA.AperFunction,ComponentPad*%
%ADD11O,3.600000X5.600000*%
%TD*%
%TA.AperFunction,ComponentPad*%
%ADD12C,2.600000*%
%TD*%
%TA.AperFunction,ComponentPad*%
%ADD13C,3.600000*%
%TD*%
%TA.AperFunction,ViaPad*%
%ADD14C,0.609600*%
%TD*%
%TA.AperFunction,ViaPad*%
%ADD15C,0.762000*%
%TD*%
%TA.AperFunction,Conductor*%
%ADD16C,0.508000*%
%TD*%
%TA.AperFunction,Conductor*%
%ADD17C,0.368300*%
%TD*%
G04 APERTURE END LIST*
D10*
%TO.N,GND*%
%TO.C,H7*%
X141260150Y-82862879D03*
X162260150Y-82862879D03*
%TD*%
D11*
%TO.N,GND*%
%TO.C,H1*%
X184160150Y-50130000D03*
%TD*%
D12*
%TO.N,GND*%
%TO.C,H5*%
X141260150Y-66235679D03*
%TD*%
D13*
%TO.N,GND*%
%TO.C,H2*%
X184160150Y-141530000D03*
%TD*%
%TO.N,GND*%
%TO.C,H3*%
X119360150Y-141530000D03*
%TD*%
D11*
%TO.N,GND*%
%TO.C,H4*%
X119360150Y-50130000D03*
%TD*%
D12*
%TO.N,GND*%
%TO.C,H6*%
X162260150Y-66235679D03*
%TD*%
D14*
%TO.N,GND*%
X129712950Y-80645099D03*
X132913350Y-108808199D03*
X169844949Y-69215099D03*
X171267350Y-116015099D03*
X169758550Y-111170399D03*
X175636150Y-121843899D03*
X156535350Y-126986899D03*
X158745150Y-100458900D03*
X157221150Y-116015099D03*
X159481750Y-126986899D03*
X149550351Y-89052699D03*
X140253950Y-116015099D03*
X162336749Y-117322699D03*
X128400141Y-110802299D03*
X157221150Y-100458900D03*
X149255749Y-128422499D03*
X139505150Y-123545699D03*
X146667951Y-95859699D03*
X144648150Y-121843899D03*
X138716950Y-113131699D03*
X146842749Y-117322699D03*
X154999150Y-123545699D03*
X170493150Y-119126099D03*
X155747950Y-116015099D03*
X133649950Y-73863299D03*
X173807350Y-85318699D03*
X154999150Y-119126099D03*
X138690650Y-111170399D03*
X143987750Y-126986899D03*
X139640650Y-111170399D03*
X141727150Y-116015099D03*
X154239150Y-111170399D03*
X158008550Y-126936899D03*
X176398150Y-121843899D03*
X160142150Y-121843899D03*
X133675350Y-85318699D03*
X128400141Y-111818299D03*
X170708550Y-111170399D03*
X141041350Y-126986899D03*
X169844950Y-80645099D03*
X127400140Y-111818299D03*
X146667951Y-94386499D03*
X139505150Y-119126099D03*
X149255750Y-126466699D03*
X174874150Y-121843899D03*
X157983150Y-100458900D03*
X170493150Y-123545699D03*
X143886150Y-121843899D03*
X127400140Y-110802299D03*
X169755750Y-113131699D03*
X142514550Y-126936899D03*
X155189150Y-111170399D03*
X129687550Y-69215099D03*
X164724350Y-126466699D03*
X159380150Y-121843899D03*
X151760151Y-94132499D03*
X164724349Y-128422499D03*
X154236350Y-113131699D03*
X172740550Y-116015099D03*
X173807350Y-73888699D03*
X160904150Y-121843899D03*
X145410150Y-121843899D03*
%TO.N,/Solar Charger/MPPT/VCC*%
X168579800Y-126986800D03*
X173604150Y-123748899D03*
X170493150Y-120599299D03*
%TO.N,/Solar Charger/Charge OR-ing/IN*%
X175956151Y-117322699D03*
X170493150Y-122072499D03*
%TO.N,/Solar Charger/MPPT1/VCC*%
X158008550Y-125386899D03*
X154999150Y-120599299D03*
X153593800Y-126986800D03*
%TO.N,/Solar Charger/Charge OR-ing1/IN*%
X154999150Y-122072499D03*
X160436751Y-117322699D03*
%TO.N,/Light Sensor/LS_3V3*%
X166302148Y-71551899D03*
X162047150Y-62230099D03*
X166339649Y-76225499D03*
X171826150Y-71551899D03*
X177375549Y-71551899D03*
X166390549Y-74840700D03*
X177287149Y-68263099D03*
%TO.N,/Solar Charger/MPPT2/VCC*%
X138099800Y-126986800D03*
X139505150Y-120599299D03*
X142514550Y-125386899D03*
%TO.N,/Solar Charger/Charge OR-ing2/IN*%
X139505150Y-122072499D03*
X144942751Y-117322699D03*
%TO.N,Net-(D5-K)*%
X168605099Y-128549400D03*
%TO.N,3V3_P*%
X166302150Y-82981899D03*
X129400141Y-111310299D03*
X171826150Y-82981899D03*
X137218150Y-82981899D03*
X131694150Y-82981899D03*
X137129750Y-79693100D03*
X127782650Y-76200099D03*
X177375549Y-82981899D03*
X130400140Y-111310299D03*
X146667951Y-92913299D03*
X129624350Y-108966099D03*
X167914651Y-76225499D03*
X177287150Y-79693099D03*
X126233150Y-86270700D03*
X151023551Y-89052699D03*
X126144751Y-82981899D03*
X165107350Y-86270699D03*
X155265351Y-93307499D03*
%TO.N,VBATT*%
X160107949Y-92862498D03*
X129585950Y-114096899D03*
X129585950Y-114858899D03*
X160996949Y-92862498D03*
X161885848Y-92862499D03*
X129585950Y-115620899D03*
%TO.N,/Coil Driver/SCL_M*%
X151928492Y-91719499D03*
X171826150Y-81470099D03*
%TO.N,SCL*%
X171826150Y-79820099D03*
X131694150Y-79820099D03*
X133863350Y-108808199D03*
X171826150Y-74713699D03*
X131668750Y-74703500D03*
%TO.N,/Coil Driver/SDA_M*%
X171826150Y-84493699D03*
X151150551Y-91719499D03*
%TO.N,SDA*%
X171826150Y-86143699D03*
X131963350Y-108808199D03*
X171826149Y-68390099D03*
X131668750Y-68390099D03*
X131694150Y-86143699D03*
%TO.N,/Light Sensor/SDA_LS*%
X171826149Y-70040099D03*
X160853350Y-62230099D03*
%TO.N,/Solar Charger/I2C Single Protection2/DEVICE*%
X131694150Y-84493699D03*
X131567150Y-100126899D03*
%TO.N,/Light Sensor/SCL_LS*%
X159634150Y-62230099D03*
X171826150Y-73063699D03*
%TO.N,/Solar Charger/I2C Single Protection3/DEVICE*%
X131694150Y-81470099D03*
X134207351Y-99593499D03*
%TO.N,/Coil Driver/coil*%
X151760150Y-46431200D03*
D15*
X149143951Y-100406299D03*
X154452551Y-100406299D03*
D14*
%TO.N,COIL_DRIVER_EN*%
X171537949Y-95287699D03*
X131400140Y-111310299D03*
%TO.N,/Deployment Sensor/DS_3V3*%
X137104351Y-68263099D03*
X131694150Y-71551899D03*
X126207650Y-76200099D03*
X138044150Y-66941299D03*
X126119351Y-71551900D03*
X137218150Y-71551899D03*
X138044150Y-63944099D03*
X126233150Y-74815299D03*
%TO.N,/Deployment Sensor/SDA_DS*%
X131668750Y-70040099D03*
%TO.N,/Deployment Sensor/SCL_DS*%
X131668750Y-73053500D03*
%TO.N,Net-(U11-GPIO1)*%
X138044150Y-65291299D03*
%TO.N,Net-(U11-XSHUT)*%
X138044150Y-62294099D03*
%TD*%
D16*
%TO.N,/Solar Charger/Charge OR-ing/IN*%
X171206351Y-122072499D02*
X175956151Y-117322699D01*
X170493150Y-122072499D02*
X171206351Y-122072499D01*
%TO.N,/Solar Charger/Charge OR-ing1/IN*%
X160436751Y-117322699D02*
X155686951Y-122072499D01*
X155686951Y-122072499D02*
X154999150Y-122072499D01*
%TO.N,/Light Sensor/LS_3V3*%
X165201798Y-63373000D02*
X165481000Y-63373000D01*
X165481000Y-63373000D02*
X166141400Y-64033400D01*
X166141400Y-64033400D02*
X166141400Y-65176400D01*
X162529750Y-63373099D02*
X165201699Y-63373099D01*
X162047150Y-62890499D02*
X162529750Y-63373099D01*
X165201699Y-63373099D02*
X165201798Y-63373000D01*
X162047150Y-62230099D02*
X162047150Y-62890499D01*
%TO.N,/Solar Charger/Charge OR-ing2/IN*%
X139505150Y-122072499D02*
X139530550Y-122097899D01*
X139530550Y-122097899D02*
X140167551Y-122097899D01*
X140167551Y-122097899D02*
X144942751Y-117322699D01*
D17*
%TO.N,/Coil Driver/coil*%
X158886111Y-56914099D02*
X158085750Y-56113738D01*
X126236150Y-57013899D02*
X126235989Y-57013738D01*
X141885750Y-144533738D02*
X161625750Y-144533738D01*
X156705750Y-54913738D02*
X156105750Y-55513738D01*
X142875750Y-138723738D02*
X143885750Y-139733738D01*
X146095750Y-57993738D02*
X145375750Y-58713738D01*
X145635750Y-135533738D02*
X157875750Y-135533738D01*
X179091350Y-49114099D02*
X179090989Y-49113738D01*
X158885750Y-134523738D02*
X171280589Y-134523738D01*
X143875750Y-55113738D02*
X130436311Y-55113738D01*
X159085750Y-53713738D02*
X156205750Y-53713738D01*
X161385750Y-140523738D02*
X177280589Y-140523738D01*
X146635750Y-133133738D02*
X156875750Y-133133738D01*
X125036150Y-49713899D02*
X125036150Y-55813899D01*
X118545750Y-60613738D02*
X118545750Y-131053738D01*
X126242311Y-140523738D02*
X142125750Y-140523738D01*
X123345750Y-126253738D02*
X134639189Y-126253738D01*
X170080911Y-127453738D02*
X181375750Y-127453738D01*
X123239189Y-137653738D02*
X123240750Y-137655299D01*
X136440750Y-124455299D02*
X136440750Y-130325299D01*
X179575750Y-125653738D02*
X179575750Y-66013738D01*
X123235989Y-54013738D02*
X111945750Y-54013738D01*
X180889550Y-47316569D02*
X162888581Y-47316569D01*
X129840750Y-131055299D02*
X129840750Y-136923738D01*
X130440750Y-136323738D02*
X143875750Y-136323738D01*
X155855750Y-54913738D02*
X144925750Y-54913738D01*
X176080750Y-139323899D02*
X176080750Y-133453899D01*
X153605750Y-49513738D02*
X142675750Y-49513738D01*
X158585750Y-54913738D02*
X156705750Y-54913738D01*
X126242311Y-134656860D02*
X126242311Y-140523738D01*
X134636311Y-59313738D02*
X134636150Y-59313899D01*
X172480911Y-129853738D02*
X183775750Y-129853738D01*
X134036311Y-58713738D02*
X134036150Y-58713899D01*
X160009731Y-53787718D02*
X160135750Y-53913738D01*
X180291350Y-54014099D02*
X180291350Y-47914099D01*
X178375750Y-124453738D02*
X178375750Y-101803299D01*
X161386111Y-50914099D02*
X160585750Y-50113738D01*
X155345750Y-53713738D02*
X144425750Y-53713738D01*
X179691350Y-54614099D02*
X179691350Y-48514099D01*
X191575750Y-54013738D02*
X180291711Y-54013738D01*
X142925750Y-50113738D02*
X142125750Y-50913738D01*
X111945750Y-137653738D02*
X123239189Y-137653738D01*
X145135750Y-136733738D02*
X158375750Y-136733738D01*
X132840750Y-128055299D02*
X132840750Y-133923738D01*
X144635750Y-137933738D02*
X158875750Y-137933738D01*
X142425750Y-48913738D02*
X141625750Y-49713738D01*
X177880750Y-135253899D02*
X177880911Y-135253738D01*
X129236311Y-53913738D02*
X129236150Y-53913899D01*
X127435989Y-58213738D02*
X116145750Y-58213738D01*
X175480911Y-132853738D02*
X186775750Y-132853738D01*
X160635750Y-138723738D02*
X175480589Y-138723738D01*
X145175750Y-55513738D02*
X144375750Y-56313738D01*
X122745750Y-126853738D02*
X134039189Y-126853738D01*
X122145750Y-127453738D02*
X133439189Y-127453738D01*
X145925750Y-57313738D02*
X145125750Y-58113738D01*
X171280589Y-134523738D02*
X171280750Y-134523899D01*
X141685750Y-47113738D02*
X140885750Y-47913738D01*
X125036150Y-55813899D02*
X125035989Y-55813738D01*
X128036150Y-58813899D02*
X128035989Y-58813738D01*
X144375750Y-135123738D02*
X145385750Y-136133738D01*
X157695750Y-59113738D02*
X146675750Y-59113738D01*
X159385750Y-135723738D02*
X172480589Y-135723738D01*
X141875750Y-141123738D02*
X142885750Y-142133738D01*
X140393422Y-47316408D02*
X140389531Y-47320299D01*
X143425750Y-51313738D02*
X142625589Y-52113899D01*
X181975750Y-128053738D02*
X181975750Y-63613738D01*
X160386111Y-53314099D02*
X159585750Y-52513738D01*
X180878950Y-138252299D02*
X180879111Y-138252138D01*
X154955750Y-50713738D02*
X154355750Y-51313738D01*
X141125751Y-142923738D02*
X141458131Y-143256118D01*
X130435989Y-61213738D02*
X119145750Y-61213738D01*
X128639189Y-132253738D02*
X128640750Y-132255299D01*
X132835989Y-63613738D02*
X121545750Y-63613738D01*
X158375750Y-136733738D02*
X159385750Y-135723738D01*
X142625589Y-52113899D02*
X127436150Y-52113899D01*
X127436150Y-52113899D02*
X127436150Y-58213899D01*
X131635989Y-62413738D02*
X120345750Y-62413738D01*
X174280911Y-131653738D02*
X185575750Y-131653738D01*
X129240750Y-131655299D02*
X129240750Y-137523738D01*
X127440750Y-133455299D02*
X127440750Y-139323738D01*
X160825750Y-49513738D02*
X154455750Y-49513738D01*
X170080750Y-133323899D02*
X170080750Y-127453899D01*
X160625750Y-142133738D02*
X161635750Y-141123738D01*
X126835989Y-57613738D02*
X115545750Y-57613738D01*
X165892950Y-130323738D02*
X165892950Y-124453899D01*
X184375750Y-61213738D02*
X173091711Y-61213738D01*
X151652117Y-46513738D02*
X141436510Y-46513738D01*
X158385750Y-133323738D02*
X170080589Y-133323738D01*
X141625750Y-49713738D02*
X125036311Y-49713738D01*
X172491350Y-55714099D02*
X159386111Y-55714099D01*
X178480750Y-135853899D02*
X178480911Y-135853738D01*
X156455750Y-54313738D02*
X155855750Y-54913738D01*
X181975750Y-63613738D02*
X170691711Y-63613738D01*
X176680589Y-139923738D02*
X176680750Y-139923899D01*
X146135750Y-60513738D02*
X135836311Y-60513738D01*
X178480911Y-135853738D02*
X189775750Y-135853738D01*
X128640750Y-132255299D02*
X128640750Y-138123738D01*
X159875750Y-140333738D02*
X160885750Y-139323738D01*
X160125750Y-140933738D02*
X161135750Y-139923738D01*
X123240750Y-143523738D02*
X140875750Y-143523738D01*
X171291350Y-56914099D02*
X158886111Y-56914099D01*
X124435989Y-55213738D02*
X113145750Y-55213738D01*
X161625750Y-144533738D02*
X162635750Y-143523738D01*
X154205750Y-48913738D02*
X153605750Y-49513738D01*
X134640750Y-126255299D02*
X134640750Y-132125299D01*
X125639189Y-135253738D02*
X125640750Y-135255299D01*
X131640750Y-129255299D02*
X131640750Y-135123738D01*
X158835750Y-54313738D02*
X156455750Y-54313738D01*
X183175750Y-129253738D02*
X183175750Y-62413738D01*
X156625750Y-132533738D02*
X157635750Y-131523738D01*
X167109711Y-131523738D02*
X167112150Y-131521299D01*
X122636589Y-53416138D02*
X111340390Y-53416138D01*
X140633956Y-144123428D02*
X141649935Y-145139407D01*
X135839189Y-125053738D02*
X135840750Y-125055299D01*
X190375750Y-136453738D02*
X190375750Y-55213738D01*
X175491711Y-58813738D02*
X175491350Y-58814099D01*
X154455750Y-49513738D02*
X153855750Y-50113738D01*
X152845750Y-47713738D02*
X141925750Y-47713738D01*
X125640750Y-135255299D02*
X125640750Y-141123738D01*
X171280750Y-134523899D02*
X171280750Y-128653899D01*
X131036311Y-55713738D02*
X131036150Y-55713899D01*
X122636750Y-53416299D02*
X122636589Y-53416138D01*
X170091350Y-58114099D02*
X158396111Y-58114099D01*
X156945750Y-55513738D02*
X156345750Y-56113738D01*
X128640750Y-138123738D02*
X143125750Y-138123738D01*
X143375750Y-137523738D02*
X144385750Y-138533738D01*
X182575750Y-63013738D02*
X171291711Y-63013738D01*
X116145750Y-58213738D02*
X116145750Y-133453738D01*
X184975750Y-60613738D02*
X173691711Y-60613738D01*
X167691711Y-66613738D02*
X167691350Y-66614099D01*
X129235989Y-60013738D02*
X117955750Y-60013738D01*
X189175750Y-56413738D02*
X177891711Y-56413738D01*
X190975750Y-54613738D02*
X179691711Y-54613738D01*
X160135750Y-137523738D02*
X174280589Y-137523738D01*
X174291711Y-60013738D02*
X174291350Y-60014099D01*
X151760150Y-46431200D02*
X151734655Y-46431200D01*
X171880750Y-135123899D02*
X171880750Y-129253899D01*
X153345750Y-48913738D02*
X142425750Y-48913738D01*
X156205750Y-53713738D02*
X155605750Y-54313738D01*
X186775750Y-58813738D02*
X175491711Y-58813738D01*
X176691711Y-57613738D02*
X176691350Y-57614099D01*
X173680750Y-131053899D02*
X173680911Y-131053738D01*
X154705750Y-50113738D02*
X154105750Y-50713738D01*
X162386111Y-48514099D02*
X161585750Y-47713738D01*
X171880750Y-129253899D02*
X171880911Y-129253738D01*
X178491350Y-49714099D02*
X161886111Y-49714099D01*
X144885750Y-137333738D02*
X158625750Y-137333738D01*
X131036150Y-55713899D02*
X131036150Y-61813899D01*
X187375750Y-58213738D02*
X176091711Y-58213738D01*
X170080750Y-127453899D02*
X170080911Y-127453738D01*
X123839189Y-137053738D02*
X123840750Y-137055299D01*
X157125750Y-133733738D02*
X158135750Y-132723738D01*
X142625750Y-139323738D02*
X143635750Y-140333738D01*
X135236311Y-59913738D02*
X135236150Y-59913899D01*
X126840750Y-134055299D02*
X126840750Y-139923738D01*
X180291350Y-47914099D02*
X162636111Y-47914099D01*
X131640750Y-135123738D02*
X144375750Y-135123738D01*
X173680750Y-136923899D02*
X173680750Y-131053899D01*
X136439189Y-124453738D02*
X136440750Y-124455299D01*
X161635750Y-141123738D02*
X177880589Y-141123738D01*
X122745750Y-64813738D02*
X122745750Y-126853738D01*
X161885750Y-141723738D02*
X178480589Y-141723738D01*
X174880750Y-138123899D02*
X174880750Y-132253899D01*
X159375750Y-139133738D02*
X160385750Y-138123738D01*
X173691711Y-60613738D02*
X173691350Y-60614099D01*
X125036311Y-49713738D02*
X125036150Y-49713899D01*
X175491350Y-58814099D02*
X175491350Y-52714099D01*
X171291711Y-63013738D02*
X171291350Y-63014099D01*
X183775750Y-129853738D02*
X183775750Y-61813738D01*
X186175750Y-59413738D02*
X174891711Y-59413738D01*
X134640750Y-132125299D02*
X145624189Y-132125299D01*
X143385750Y-140933738D02*
X160125750Y-140933738D01*
X145875750Y-59913738D02*
X135236311Y-59913738D01*
X169491350Y-64814099D02*
X169491350Y-58714099D01*
X132836311Y-57513738D02*
X132836150Y-57513899D01*
X140885750Y-47913738D02*
X123236311Y-47913738D01*
X166502550Y-130923899D02*
X166502550Y-125053899D01*
X135239189Y-125653738D02*
X135240750Y-125655299D01*
X173080589Y-136323738D02*
X173080750Y-136323899D01*
X177880589Y-141123738D02*
X177880750Y-141123899D01*
X155945750Y-53113738D02*
X155345750Y-53713738D01*
X132240750Y-128655299D02*
X132240750Y-134523738D01*
X121545750Y-128053738D02*
X132839189Y-128053738D01*
X176680911Y-134053738D02*
X187975750Y-134053738D01*
X190375750Y-55213738D02*
X179091711Y-55213738D01*
X135236150Y-66013899D02*
X135235989Y-66013738D01*
X161136111Y-51514099D02*
X160335750Y-50713738D01*
X117345750Y-132253738D02*
X128639189Y-132253738D01*
X135836150Y-66613899D02*
X135835989Y-66613738D01*
X182575750Y-128653738D02*
X182575750Y-63013738D01*
X157885750Y-132123738D02*
X167721750Y-132123738D01*
X157205750Y-60313738D02*
X147185750Y-60313738D01*
X184975750Y-131053738D02*
X184975750Y-60613738D01*
X126235989Y-57013738D02*
X114945750Y-57013738D01*
X153945750Y-48313738D02*
X153345750Y-48913738D01*
X177291350Y-57014099D02*
X177291350Y-50914099D01*
X174280750Y-131653899D02*
X174280911Y-131653738D01*
X143125589Y-53313899D02*
X128636150Y-53313899D01*
X143375750Y-53913738D02*
X129236311Y-53913738D01*
X161125750Y-143333738D02*
X162135750Y-142323738D01*
X153175750Y-46513738D02*
X152575750Y-47113738D01*
X143135750Y-141533738D02*
X160375750Y-141533738D01*
X180775750Y-126853738D02*
X180775750Y-64813738D01*
X134635989Y-65413738D02*
X123345750Y-65413738D01*
X130436311Y-55113738D02*
X130436150Y-55113899D01*
X136436150Y-67213899D02*
X136435989Y-67213738D01*
X178480750Y-141723899D02*
X178480750Y-135853899D01*
X177880750Y-141123899D02*
X177880750Y-135253899D01*
X132240750Y-134523738D02*
X144625750Y-134523738D01*
X142385750Y-143333738D02*
X161125750Y-143333738D01*
X174891350Y-59414099D02*
X174891350Y-53314099D01*
X131035989Y-61813738D02*
X119745750Y-61813738D01*
X146885750Y-132533738D02*
X156625750Y-132533738D01*
X131639189Y-129253738D02*
X131640750Y-129255299D01*
X157645750Y-57363738D02*
X157095750Y-57913738D01*
X112545750Y-137053738D02*
X123839189Y-137053738D01*
X159136111Y-56314099D02*
X158335750Y-55513738D01*
X126836311Y-51513738D02*
X126836150Y-51513899D01*
X158625750Y-137333738D02*
X159635750Y-136323738D01*
X162135750Y-49113738D02*
X161335750Y-48313738D01*
X119745750Y-61813738D02*
X119745750Y-129853738D01*
X114945750Y-134653738D02*
X126239189Y-134653738D01*
X171291350Y-63014099D02*
X171291350Y-56914099D01*
X170091711Y-64213738D02*
X170091350Y-64214099D01*
X147385750Y-131333738D02*
X156125750Y-131333738D01*
X145425750Y-56113738D02*
X144625750Y-56913738D01*
X129240750Y-137523738D02*
X143375750Y-137523738D01*
X159835750Y-51913738D02*
X155455750Y-51913738D01*
X167691350Y-60514099D02*
X157406111Y-60514099D01*
X158396111Y-58114099D02*
X157645750Y-57363738D01*
X111945750Y-54013738D02*
X111945750Y-137653738D01*
X111340390Y-138252138D02*
X122642911Y-138252138D01*
X145125750Y-58113738D02*
X133436311Y-58113738D01*
X144135750Y-139133738D02*
X159375750Y-139133738D01*
X160636111Y-52714099D02*
X159835750Y-51913738D01*
X113745750Y-55813738D02*
X113745750Y-135853738D01*
X174880589Y-138123738D02*
X174880750Y-138123899D01*
X156875750Y-133133738D02*
X157885750Y-132123738D01*
X114345750Y-135253738D02*
X125639189Y-135253738D01*
X173680589Y-136923738D02*
X173680750Y-136923899D01*
X133436150Y-64213899D02*
X133435989Y-64213738D01*
X173091350Y-55114099D02*
X159636111Y-55114099D01*
X135840750Y-130923738D02*
X146125750Y-130923738D01*
X122636750Y-47320299D02*
X122636750Y-53416299D01*
X146675750Y-59113738D02*
X145875750Y-59913738D01*
X145615750Y-59313738D02*
X134636311Y-59313738D01*
X129236150Y-60013899D02*
X129235989Y-60013738D01*
X180879111Y-138252138D02*
X192179610Y-138252138D01*
X157445750Y-59713738D02*
X146935750Y-59713738D01*
X161870418Y-145139171D02*
X162886361Y-144123228D01*
X159625750Y-139733738D02*
X160635750Y-138723738D01*
X176691350Y-57614099D02*
X176691350Y-51514099D01*
X180775750Y-64813738D02*
X169491711Y-64813738D01*
X120945750Y-128653738D02*
X132239189Y-128653738D01*
X124436150Y-55213899D02*
X124435989Y-55213738D01*
X144175750Y-53113738D02*
X143375750Y-53913738D01*
X180280750Y-137653899D02*
X180280911Y-137653738D01*
X154855750Y-52513738D02*
X143925750Y-52513738D01*
X159335750Y-53113738D02*
X155945750Y-53113738D01*
X131036150Y-61813899D02*
X131035989Y-61813738D01*
X183175750Y-62413738D02*
X171891711Y-62413738D01*
X179091350Y-55214099D02*
X179091350Y-49114099D01*
X136435989Y-67213738D02*
X125145750Y-67213738D01*
X189775750Y-55813738D02*
X178491711Y-55813738D01*
X175480750Y-132853899D02*
X175480911Y-132853738D01*
X171280750Y-128653899D02*
X171280911Y-128653738D01*
X157646111Y-59914099D02*
X157445750Y-59713738D01*
X155705750Y-52513738D02*
X155105750Y-53113738D01*
X141933931Y-142881918D02*
X142385750Y-143333738D01*
X130439189Y-130453738D02*
X130440750Y-130455299D01*
X143125750Y-138123738D02*
X144135750Y-139133738D01*
X157095750Y-57913738D02*
X146185750Y-57913738D01*
X123836150Y-48513899D02*
X123836150Y-54613899D01*
X132836150Y-57513899D02*
X132836150Y-63613899D01*
X162635750Y-143523738D02*
X180280589Y-143523738D01*
X117945750Y-131653738D02*
X129239189Y-131653738D01*
X157635750Y-131523738D02*
X167109711Y-131523738D01*
X129839189Y-131053738D02*
X129840750Y-131055299D01*
X145125750Y-133323738D02*
X146135750Y-134333738D01*
X173091350Y-61214099D02*
X173091350Y-55114099D01*
X141925750Y-47713738D02*
X141125589Y-48513899D01*
X143625750Y-54513738D02*
X129836311Y-54513738D01*
X176680750Y-134053899D02*
X176680911Y-134053738D01*
X179691350Y-48514099D02*
X162386111Y-48514099D01*
X159636111Y-55114099D02*
X158835750Y-54313738D01*
X128036150Y-52713899D02*
X128036150Y-58813899D01*
X143875750Y-136323738D02*
X144885750Y-137333738D01*
X145885750Y-134933738D02*
X157625750Y-134933738D01*
X160875750Y-142733738D02*
X161885750Y-141723738D01*
X135240750Y-131525299D02*
X145874189Y-131525299D01*
X125145750Y-124453738D02*
X136439189Y-124453738D01*
X128039189Y-132853738D02*
X128040750Y-132855299D01*
X178975750Y-125053738D02*
X178975750Y-66613738D01*
X144675750Y-54313738D02*
X143875750Y-55113738D01*
X142125750Y-50913738D02*
X126236311Y-50913738D01*
X141375750Y-142323738D02*
X141933931Y-142881918D01*
X172480750Y-129853899D02*
X172480911Y-129853738D01*
X168891711Y-65413738D02*
X168891350Y-65414099D01*
X179575750Y-66013738D02*
X168291711Y-66013738D01*
X122642911Y-138252138D02*
X122642911Y-144123428D01*
X144125750Y-135723738D02*
X145135750Y-136733738D01*
X154355750Y-51313738D02*
X143425750Y-51313738D01*
X131636311Y-56313738D02*
X131636150Y-56313899D01*
X180878950Y-144123228D02*
X180878950Y-138252299D01*
X143625750Y-136923738D02*
X144635750Y-137933738D01*
X125035989Y-55813738D02*
X113745750Y-55813738D01*
X132836150Y-63613899D02*
X132835989Y-63613738D01*
X170680589Y-133923738D02*
X170680750Y-133923899D01*
X178491711Y-55813738D02*
X178491350Y-55814099D01*
X185575750Y-60013738D02*
X174291711Y-60013738D01*
X167112150Y-131521299D02*
X167112150Y-125653899D01*
X120345750Y-62413738D02*
X120345750Y-129253738D01*
X122642911Y-144123428D02*
X140633956Y-144123428D01*
X125636150Y-50313899D02*
X125636150Y-56413899D01*
X179080911Y-136453738D02*
X190375750Y-136453738D01*
X119145750Y-61213738D02*
X119145750Y-130453738D01*
X173691350Y-54514099D02*
X159886111Y-54514099D01*
X153445750Y-47113738D02*
X152845750Y-47713738D01*
X178975750Y-66613738D02*
X167691711Y-66613738D01*
X125040750Y-141723738D02*
X141625750Y-141723738D01*
X143675750Y-51913738D02*
X142875589Y-52713899D01*
X180175750Y-126253738D02*
X180175750Y-65413738D01*
X174291350Y-60014099D02*
X174291350Y-53914099D01*
X179691711Y-54613738D02*
X179691350Y-54614099D01*
X130436150Y-55113899D02*
X130436150Y-61213899D01*
X160009731Y-53787718D02*
X159335750Y-53113738D01*
X168291350Y-59914099D02*
X157646111Y-59914099D01*
X146415750Y-58513738D02*
X145615750Y-59313738D01*
X176080750Y-133453899D02*
X176080911Y-133453738D01*
X166502389Y-130923738D02*
X166502550Y-130923899D01*
X134040750Y-132723738D02*
X145375750Y-132723738D01*
X158646111Y-57514099D02*
X157845750Y-56713738D01*
X160885750Y-139323738D02*
X176080589Y-139323738D01*
X141375750Y-49113738D02*
X124436311Y-49113738D01*
X136440750Y-130325299D02*
X146377311Y-130325299D01*
X171880589Y-135123738D02*
X171880750Y-135123899D01*
X177280911Y-134653738D02*
X188575750Y-134653738D01*
X142875589Y-52713899D02*
X128036150Y-52713899D01*
X117345750Y-59413738D02*
X117345750Y-132253738D01*
X119145750Y-130453738D02*
X130439189Y-130453738D01*
X173691350Y-60614099D02*
X173691350Y-54514099D01*
X174880911Y-132253738D02*
X186175750Y-132253738D01*
X113145750Y-136453738D02*
X124439189Y-136453738D01*
X121545750Y-63613738D02*
X121545750Y-128053738D01*
X179680750Y-142923899D02*
X179680750Y-137053899D01*
X125039189Y-135853738D02*
X125040750Y-135855299D01*
X132236311Y-56913738D02*
X132236150Y-56913899D01*
X125636311Y-50313738D02*
X125636150Y-50313899D01*
X126239189Y-134653738D02*
X126242311Y-134656860D01*
X181375750Y-127453738D02*
X181375750Y-64213738D01*
X146105750Y-57993738D02*
X146095750Y-57993738D01*
X116145750Y-133453738D02*
X127439189Y-133453738D01*
X140875750Y-143523738D02*
X141885750Y-144533738D01*
X161835750Y-47113738D02*
X153445750Y-47113738D01*
X158146111Y-58714099D02*
X157945750Y-58513738D01*
X123945750Y-66013738D02*
X123945750Y-125653738D01*
X159585750Y-52513738D02*
X155705750Y-52513738D01*
X118545750Y-131053738D02*
X129839189Y-131053738D01*
X157625750Y-134933738D02*
X158635750Y-133923738D01*
X165892950Y-124453899D02*
X165893111Y-124453738D01*
X143175750Y-50713738D02*
X142375750Y-51513738D01*
X183775750Y-61813738D02*
X172491711Y-61813738D01*
X132236150Y-63013899D02*
X132235989Y-63013738D01*
X176080911Y-133453738D02*
X187375750Y-133453738D01*
X146125750Y-130923738D02*
X147135750Y-131933738D01*
X184375750Y-130453738D02*
X184375750Y-61213738D01*
X141458131Y-143256118D02*
X142135750Y-143933738D01*
X145375750Y-132723738D02*
X146385750Y-133733738D01*
X145875750Y-131523738D02*
X146885750Y-132533738D01*
X123945750Y-125653738D02*
X135239189Y-125653738D01*
X166502550Y-125053899D02*
X166502711Y-125053738D01*
X135835989Y-66613738D02*
X124545750Y-66613738D01*
X124440150Y-141791538D02*
X124440150Y-142323738D01*
X128040750Y-138723738D02*
X142875750Y-138723738D01*
X124545750Y-125053738D02*
X135839189Y-125053738D01*
X142635750Y-142733738D02*
X160875750Y-142733738D01*
X125636150Y-56413899D02*
X125635989Y-56413738D01*
X129835989Y-60613738D02*
X118545750Y-60613738D01*
X189775750Y-135853738D02*
X189775750Y-55813738D01*
X123835989Y-54613738D02*
X112545750Y-54613738D01*
X156281351Y-98577499D02*
X154452551Y-100406299D01*
X158635750Y-133923738D02*
X170680589Y-133923738D01*
X170680750Y-133923899D02*
X170680750Y-128053899D01*
X124439189Y-136453738D02*
X124440750Y-136455299D01*
X157445750Y-56713738D02*
X156845750Y-57313738D01*
X167721750Y-132123738D02*
X167721750Y-126253899D01*
X174891711Y-59413738D02*
X174891350Y-59414099D01*
X157385750Y-130923738D02*
X166502389Y-130923738D01*
X161335750Y-48313738D02*
X153945750Y-48313738D01*
X156125750Y-131333738D02*
X157135750Y-130323738D01*
X142125750Y-140523738D02*
X143135750Y-141533738D01*
X136436150Y-61113738D02*
X136436150Y-67213899D01*
X116745750Y-58813738D02*
X116745750Y-132853738D01*
X145624189Y-132125299D02*
X145625750Y-132123738D01*
X144875750Y-133923738D02*
X145885750Y-134933738D01*
X132239189Y-128653738D02*
X132240750Y-128655299D01*
X179680750Y-137053899D02*
X179680911Y-137053738D01*
X141375751Y-142323738D02*
X141933931Y-142881918D01*
X157135750Y-130323738D02*
X165892950Y-130323738D01*
X159125750Y-138533738D02*
X160135750Y-137523738D01*
X126840750Y-139923738D02*
X142375750Y-139923738D01*
X143635750Y-140333738D02*
X159875750Y-140333738D01*
X157896111Y-59314099D02*
X157695750Y-59113738D01*
X174891350Y-53314099D02*
X160386111Y-53314099D01*
X147135750Y-131933738D02*
X156375750Y-131933738D01*
X160585750Y-50113738D02*
X154705750Y-50113738D01*
X180280911Y-137653738D02*
X191575750Y-137653738D01*
X187975750Y-57613738D02*
X176691711Y-57613738D01*
X192179610Y-138252138D02*
X192179610Y-53424198D01*
X168291350Y-66014099D02*
X168291350Y-59914099D01*
X180280589Y-143523738D02*
X180280750Y-143523899D01*
X177891711Y-56413738D02*
X177891350Y-56414099D01*
X188575750Y-134653738D02*
X188575750Y-57013738D01*
X124436150Y-49113899D02*
X124436150Y-55213899D01*
X125640750Y-141123738D02*
X141875750Y-141123738D01*
X160335750Y-50713738D02*
X154955750Y-50713738D01*
X127439189Y-133453738D02*
X127440750Y-133455299D01*
X186175750Y-132253738D02*
X186175750Y-59413738D01*
X142885750Y-142133738D02*
X160625750Y-142133738D01*
X178480589Y-141723738D02*
X178480750Y-141723899D01*
X129836311Y-54513738D02*
X129836150Y-54513899D01*
X170091350Y-64214099D02*
X170091350Y-58114099D01*
X128636150Y-53313899D02*
X128636150Y-59413738D01*
X167112150Y-125653899D02*
X167112311Y-125653738D01*
X177291350Y-50914099D02*
X161386111Y-50914099D01*
X115545750Y-134053738D02*
X126839189Y-134053738D01*
X142135750Y-143933738D02*
X161375750Y-143933738D01*
X133440750Y-127455299D02*
X133440750Y-133323738D01*
X169480911Y-126853738D02*
X180775750Y-126853738D01*
X174880750Y-132253899D02*
X174880911Y-132253738D01*
X170691350Y-63614099D02*
X170691350Y-57514099D01*
X154105750Y-50713738D02*
X143175750Y-50713738D01*
X115545750Y-57613738D02*
X115545750Y-134053738D01*
X173080750Y-136323899D02*
X173080750Y-130453899D01*
X143925750Y-52513738D02*
X143125589Y-53313899D01*
X145874189Y-131525299D02*
X145875750Y-131523738D01*
X160375750Y-141533738D02*
X161385750Y-140523738D01*
X129236150Y-53913899D02*
X129236150Y-60013899D01*
X178491350Y-55814099D02*
X178491350Y-49714099D01*
X129836150Y-54513899D02*
X129836150Y-60613899D01*
X160136112Y-53914099D02*
X160009731Y-53787718D01*
X153855750Y-50113738D02*
X142925750Y-50113738D01*
X162636111Y-47914099D02*
X161835750Y-47113738D01*
X125040750Y-135855299D02*
X125040750Y-141723738D01*
X177891350Y-50314099D02*
X161626111Y-50314099D01*
X142375750Y-51513738D02*
X126836311Y-51513738D01*
X161135750Y-139923738D02*
X176680589Y-139923738D01*
X156105750Y-55513738D02*
X145175750Y-55513738D01*
X168291711Y-66013738D02*
X168291350Y-66014099D01*
X120345750Y-129253738D02*
X131639189Y-129253738D01*
X169491711Y-64813738D02*
X169491350Y-64814099D01*
X180889550Y-53416499D02*
X180889550Y-47316569D01*
X146377311Y-130325299D02*
X147385750Y-131333738D01*
X135240750Y-125655299D02*
X135240750Y-131525299D01*
X119745750Y-129853738D02*
X131039189Y-129853738D01*
X123345750Y-65413738D02*
X123345750Y-126253738D01*
X145675750Y-56713738D02*
X144875750Y-57513738D01*
X113745750Y-135853738D02*
X125039189Y-135853738D01*
X131040750Y-135723738D02*
X144125750Y-135723738D01*
X135836150Y-60513899D02*
X135836150Y-66613899D01*
X154605750Y-51913738D02*
X143675750Y-51913738D01*
X187975750Y-134053738D02*
X187975750Y-57613738D01*
X130436150Y-61213899D02*
X130435989Y-61213738D01*
X124440750Y-136455299D02*
X124440750Y-141790938D01*
X189175750Y-135253738D02*
X189175750Y-56413738D01*
X134039189Y-126853738D02*
X134040750Y-126855299D01*
X179080589Y-142323738D02*
X179080750Y-142323899D01*
X128636150Y-59413738D02*
X117345750Y-59413738D01*
X124440150Y-142323738D02*
X141375751Y-142323738D01*
X177891350Y-56414099D02*
X177891350Y-50314099D01*
X146185750Y-57913738D02*
X146105750Y-57993738D01*
X162886361Y-144123228D02*
X180878950Y-144123228D01*
X134035989Y-64813738D02*
X122745750Y-64813738D01*
X144625750Y-56913738D02*
X132236311Y-56913738D01*
X132235989Y-63013738D02*
X120945750Y-63013738D01*
X132839189Y-128053738D02*
X132840750Y-128055299D01*
X133440750Y-133323738D02*
X145125750Y-133323738D01*
X147185750Y-60313738D02*
X146385750Y-61113738D01*
X167721911Y-126253738D02*
X180175750Y-126253738D01*
X162135750Y-142323738D02*
X179080589Y-142323738D01*
X176091350Y-58214099D02*
X176091350Y-52114099D01*
X176080589Y-139323738D02*
X176080750Y-139323899D01*
X120945750Y-63013738D02*
X120945750Y-128653738D01*
X160385750Y-138123738D02*
X174880589Y-138123738D01*
X167721750Y-126253899D02*
X167721911Y-126253738D01*
X127436150Y-58213899D02*
X127435989Y-58213738D01*
X116745750Y-132853738D02*
X128039189Y-132853738D01*
X146385750Y-133733738D02*
X157125750Y-133733738D01*
X146935750Y-59713738D02*
X146135750Y-60513738D01*
X134636150Y-59313899D02*
X134636150Y-65413899D01*
X185575750Y-131653738D02*
X185575750Y-60013738D01*
X179680911Y-137053738D02*
X190975750Y-137053738D01*
X172480589Y-135723738D02*
X172480750Y-135723899D01*
X153685750Y-47713738D02*
X153085750Y-48313738D01*
X123840750Y-137055299D02*
X123840750Y-142923738D01*
X135836311Y-60513738D02*
X135836150Y-60513899D01*
X171891711Y-62413738D02*
X171891350Y-62414099D01*
X128035989Y-58813738D02*
X116745750Y-58813738D01*
X169480589Y-132723738D02*
X169480750Y-132723899D01*
X156375750Y-131933738D02*
X157385750Y-130923738D01*
X159135750Y-135123738D02*
X171880589Y-135123738D01*
X144385750Y-138533738D02*
X159125750Y-138533738D01*
X160886111Y-52114099D02*
X160085750Y-51313738D01*
X175480589Y-138723738D02*
X175480750Y-138723899D01*
X135236150Y-59913899D02*
X135236150Y-66013899D01*
X155205750Y-51313738D02*
X154605750Y-51913738D01*
X192171550Y-53416138D02*
X180889911Y-53416138D01*
X162888581Y-47316569D02*
X162085750Y-46513738D01*
X161375750Y-143933738D02*
X162385750Y-142923738D01*
X131636150Y-56313899D02*
X131636150Y-62413899D01*
X170680750Y-128053899D02*
X170680911Y-128053738D01*
X175480750Y-138723899D02*
X175480750Y-132853899D01*
X112545750Y-54613738D02*
X112545750Y-137053738D01*
X158125750Y-136133738D02*
X159135750Y-135123738D01*
X175491350Y-52714099D02*
X160636111Y-52714099D01*
X126236150Y-50913899D02*
X126236150Y-57013899D01*
X125635989Y-56413738D02*
X114345750Y-56413738D01*
X176091711Y-58213738D02*
X176091350Y-58214099D01*
X177291711Y-57013738D02*
X177291350Y-57014099D01*
X177280750Y-134653899D02*
X177280911Y-134653738D01*
X186775750Y-132853738D02*
X186775750Y-58813738D01*
X169491350Y-58714099D02*
X158146111Y-58714099D01*
X176680750Y-139923899D02*
X176680750Y-134053899D01*
X157375750Y-134333738D02*
X158385750Y-133323738D01*
X159885750Y-136923738D02*
X173680589Y-136923738D01*
X129836150Y-60613899D02*
X129835989Y-60613738D01*
X190975750Y-137053738D02*
X190975750Y-54613738D01*
X129239189Y-131653738D02*
X129240750Y-131655299D01*
X123236150Y-54013899D02*
X123235989Y-54013738D01*
X134036150Y-64813899D02*
X134035989Y-64813738D01*
X126236311Y-50913738D02*
X126236150Y-50913899D01*
X114345750Y-56413738D02*
X114345750Y-135253738D01*
X170691711Y-63613738D02*
X170691350Y-63614099D01*
X144625750Y-134523738D02*
X145635750Y-135533738D01*
X131636150Y-62413899D02*
X131635989Y-62413738D01*
X128040750Y-132855299D02*
X128040750Y-138723738D01*
X142675750Y-49513738D02*
X141875750Y-50313738D01*
X159386111Y-55714099D02*
X158585750Y-54913738D01*
X145385750Y-136133738D02*
X158125750Y-136133738D01*
X176091350Y-52114099D02*
X160886111Y-52114099D01*
X157875750Y-135533738D02*
X158885750Y-134523738D01*
X133439189Y-127453738D02*
X133440750Y-127455299D01*
X180291711Y-54013738D02*
X180291350Y-54014099D01*
X146385750Y-61113738D02*
X136436150Y-61113738D01*
X192179610Y-53424198D02*
X192171550Y-53416138D01*
X179090989Y-49113738D02*
X162135750Y-49113738D01*
X131039189Y-129853738D02*
X131040750Y-129855299D01*
X127440750Y-139323738D02*
X142625750Y-139323738D01*
X141625750Y-141723738D02*
X142635750Y-142733738D01*
X180280750Y-143523899D02*
X180280750Y-137653899D01*
X144125750Y-55713738D02*
X131036311Y-55713738D01*
X125145750Y-67213738D02*
X125145750Y-124453738D01*
X141649935Y-145139407D02*
X148356481Y-145139407D01*
X161085750Y-48913738D02*
X154205750Y-48913738D01*
X172491350Y-61814099D02*
X172491350Y-55714099D01*
X133436311Y-58113738D02*
X133436150Y-58113899D01*
X152575750Y-47113738D02*
X141685750Y-47113738D01*
X114945750Y-57013738D02*
X114945750Y-134653738D01*
X133436150Y-58113899D02*
X133436150Y-64213899D01*
X188575750Y-57013738D02*
X177291711Y-57013738D01*
X117945750Y-60023738D02*
X117945750Y-131653738D01*
X123240750Y-137655299D02*
X123240750Y-143523738D01*
X170080589Y-133323738D02*
X170080750Y-133323899D01*
X180175750Y-65413738D02*
X168891711Y-65413738D01*
X156595750Y-56713738D02*
X145675750Y-56713738D01*
X117955750Y-60013738D02*
X117945750Y-60023738D01*
X141436510Y-46513738D02*
X140633828Y-47316420D01*
X141125750Y-142923738D02*
X141458131Y-143256118D01*
X158335750Y-55513738D02*
X156945750Y-55513738D01*
X113145750Y-55213738D02*
X113145750Y-136453738D01*
X156345750Y-56113738D02*
X145425750Y-56113738D01*
X169480750Y-126853899D02*
X169480911Y-126853738D01*
X174291350Y-53914099D02*
X160136112Y-53914099D01*
X157195750Y-56113738D02*
X156595750Y-56713738D01*
X135235989Y-66013738D02*
X123945750Y-66013738D01*
X123236150Y-47913899D02*
X123236150Y-54013899D01*
X171880911Y-129253738D02*
X183175750Y-129253738D01*
X145625750Y-132123738D02*
X146635750Y-133133738D01*
X158875750Y-137933738D02*
X159885750Y-136923738D01*
X177280750Y-140523899D02*
X177280750Y-134653899D01*
X153085750Y-48313738D02*
X142175750Y-48313738D01*
X132840750Y-133923738D02*
X144875750Y-133923738D01*
X158085750Y-56113738D02*
X157195750Y-56113738D01*
X157406111Y-60514099D02*
X157205750Y-60313738D01*
X191575750Y-137653738D02*
X191575750Y-54013738D01*
X177880911Y-135253738D02*
X189175750Y-135253738D01*
X144925750Y-54913738D02*
X144125750Y-55713738D01*
X134639189Y-126253738D02*
X134640750Y-126255299D01*
X159635750Y-136323738D02*
X173080589Y-136323738D01*
X145375750Y-58713738D02*
X134036311Y-58713738D01*
X134636150Y-65413899D02*
X134635989Y-65413738D01*
X134040750Y-126855299D02*
X134040750Y-132723738D01*
X158135750Y-132723738D02*
X169480589Y-132723738D01*
X179080750Y-136453899D02*
X179080911Y-136453738D01*
X124545750Y-66613738D02*
X124545750Y-125053738D01*
X170691350Y-57514099D02*
X158646111Y-57514099D01*
X180889911Y-53416138D02*
X180889550Y-53416499D01*
X143885750Y-139733738D02*
X159625750Y-139733738D01*
X142175750Y-48313738D02*
X141375750Y-49113738D01*
X129840750Y-136923738D02*
X143625750Y-136923738D01*
X167691350Y-66614099D02*
X167691350Y-60514099D01*
X166502711Y-125053738D02*
X178975750Y-125053738D01*
X159886111Y-54514099D02*
X159085750Y-53713738D01*
X174280589Y-137523738D02*
X174280750Y-137523899D01*
X157945750Y-58513738D02*
X146415750Y-58513738D01*
X126839189Y-134053738D02*
X126840750Y-134055299D01*
X181375750Y-64213738D02*
X170091711Y-64213738D01*
X157845750Y-56713738D02*
X157445750Y-56713738D01*
X171891350Y-62414099D02*
X171891350Y-56314099D01*
X179680589Y-142923738D02*
X179680750Y-142923899D01*
X144425750Y-53713738D02*
X143625750Y-54513738D01*
X140389531Y-47320299D02*
X122636750Y-47320299D01*
X168891350Y-59314099D02*
X157896111Y-59314099D01*
X161585750Y-47713738D02*
X153685750Y-47713738D01*
X111340390Y-53416138D02*
X111340390Y-138252138D01*
X173080911Y-130453738D02*
X184375750Y-130453738D01*
X172491711Y-61813738D02*
X172491350Y-61814099D01*
X133435989Y-64213738D02*
X122145750Y-64213738D01*
X161886111Y-49714099D02*
X161085750Y-48913738D01*
X175149950Y-98577499D02*
X156281351Y-98577499D01*
X155605750Y-54313738D02*
X144675750Y-54313738D01*
X155105750Y-53113738D02*
X144175750Y-53113738D01*
X151734655Y-46431200D02*
X151652117Y-46513738D01*
X156845750Y-57313738D02*
X145925750Y-57313738D01*
X124440750Y-141790938D02*
X124440150Y-141791538D01*
X141875750Y-50313738D02*
X125636311Y-50313738D01*
X171891350Y-56314099D02*
X159136111Y-56314099D01*
X167112311Y-125653738D02*
X179575750Y-125653738D01*
X130440750Y-130455299D02*
X130440750Y-136323738D01*
X161626111Y-50314099D02*
X160825750Y-49513738D01*
X170680911Y-128053738D02*
X181975750Y-128053738D01*
X146135750Y-134333738D02*
X157375750Y-134333738D01*
X176691350Y-51514099D02*
X161136111Y-51514099D01*
X131040750Y-129855299D02*
X131040750Y-135723738D01*
X135840750Y-125055299D02*
X135840750Y-130923738D01*
X124436311Y-49113738D02*
X124436150Y-49113899D01*
X148356481Y-145139407D02*
X161870418Y-145139171D01*
X173080750Y-130453899D02*
X173080911Y-130453738D01*
X165893111Y-124453738D02*
X178375750Y-124453738D01*
X172480750Y-135723899D02*
X172480750Y-129853899D01*
X179080750Y-142323899D02*
X179080750Y-136453899D01*
X126836150Y-57613899D02*
X126835989Y-57613738D01*
X144875750Y-57513738D02*
X132836311Y-57513738D01*
X173091711Y-61213738D02*
X173091350Y-61214099D01*
X144375750Y-56313738D02*
X131636311Y-56313738D01*
X142375750Y-139923738D02*
X143385750Y-140933738D01*
X162085750Y-46513738D02*
X153175750Y-46513738D01*
X134036150Y-58713899D02*
X134036150Y-64813899D01*
X155455750Y-51913738D02*
X154855750Y-52513738D01*
X178375750Y-101803299D02*
X175149950Y-98577499D01*
X187375750Y-133453738D02*
X187375750Y-58213738D01*
X123840750Y-142923738D02*
X141125751Y-142923738D01*
X126836150Y-51513899D02*
X126836150Y-57613899D01*
X140633828Y-47316420D02*
X140393422Y-47316408D01*
X123836150Y-54613899D02*
X123835989Y-54613738D01*
X179091711Y-55213738D02*
X179091350Y-55214099D01*
X177280589Y-140523738D02*
X177280750Y-140523899D01*
X173680911Y-131053738D02*
X184975750Y-131053738D01*
X160085750Y-51313738D02*
X155205750Y-51313738D01*
X141125589Y-48513899D02*
X123836150Y-48513899D01*
X132236150Y-56913899D02*
X132236150Y-63013899D01*
X169480750Y-132723899D02*
X169480750Y-126853899D01*
X122145750Y-64213738D02*
X122145750Y-127453738D01*
X171280911Y-128653738D02*
X182575750Y-128653738D01*
X174280750Y-137523899D02*
X174280750Y-131653899D01*
X168891350Y-65414099D02*
X168891350Y-59314099D01*
X162385750Y-142923738D02*
X179680589Y-142923738D01*
%TD*%
%TA.AperFunction,Conductor*%
%TO.N,GND*%
G36*
X111296017Y-138589188D02*
G01*
X111384763Y-138589188D01*
X122205261Y-138589188D01*
X122264392Y-138608401D01*
X122300937Y-138658701D01*
X122305861Y-138689788D01*
X122305861Y-144079054D01*
X122305861Y-144079055D01*
X122305861Y-144167801D01*
X122328777Y-144253324D01*
X122328832Y-144253526D01*
X122373088Y-144330181D01*
X122373204Y-144330381D01*
X122403590Y-144360767D01*
X122431815Y-144416163D01*
X122422089Y-144477571D01*
X122378125Y-144521535D01*
X122332454Y-144532500D01*
X117225770Y-144532500D01*
X117128752Y-144558496D01*
X117128747Y-144558498D01*
X117046887Y-144605758D01*
X117046888Y-144605759D01*
X117041752Y-144608724D01*
X116131442Y-145519035D01*
X116076044Y-145547261D01*
X116060307Y-145548500D01*
X111765646Y-145548500D01*
X111754382Y-145547867D01*
X111633637Y-145534262D01*
X111611675Y-145529250D01*
X111502341Y-145490992D01*
X111482045Y-145481218D01*
X111383969Y-145419593D01*
X111366356Y-145405547D01*
X111284452Y-145323643D01*
X111270406Y-145306030D01*
X111208781Y-145207954D01*
X111199007Y-145187658D01*
X111160749Y-145078324D01*
X111155738Y-145056373D01*
X111142131Y-144935601D01*
X111141500Y-144924354D01*
X111141500Y-138678889D01*
X111160713Y-138619758D01*
X111211013Y-138583213D01*
X111268139Y-138581718D01*
X111296017Y-138589188D01*
G37*
%TD.AperFunction*%
%TA.AperFunction,Conductor*%
G36*
X192313949Y-138584970D02*
G01*
X192362268Y-138624095D01*
X192378500Y-138678889D01*
X192378500Y-144924354D01*
X192377867Y-144935618D01*
X192364262Y-145056362D01*
X192359250Y-145078324D01*
X192320992Y-145187658D01*
X192311218Y-145207954D01*
X192249593Y-145306030D01*
X192235547Y-145323643D01*
X192153643Y-145405547D01*
X192136030Y-145419593D01*
X192037954Y-145481218D01*
X192017658Y-145490992D01*
X191908324Y-145529250D01*
X191886362Y-145534262D01*
X191765618Y-145547867D01*
X191754354Y-145548500D01*
X187459693Y-145548500D01*
X187400562Y-145529287D01*
X187388558Y-145519035D01*
X186478247Y-144608724D01*
X186473112Y-144605759D01*
X186473112Y-144605758D01*
X186391252Y-144558498D01*
X186391247Y-144558496D01*
X186294229Y-144532500D01*
X186294225Y-144532500D01*
X181189207Y-144532500D01*
X181130076Y-144513287D01*
X181093531Y-144462987D01*
X181093531Y-144400813D01*
X181118070Y-144360767D01*
X181148657Y-144330181D01*
X181193030Y-144253324D01*
X181216000Y-144167601D01*
X181216000Y-138689788D01*
X181235213Y-138630657D01*
X181285513Y-138594112D01*
X181316600Y-138589188D01*
X192223983Y-138589188D01*
X192251860Y-138581718D01*
X192313949Y-138584970D01*
G37*
%TD.AperFunction*%
%TA.AperFunction,Conductor*%
G36*
X178570022Y-91762151D02*
G01*
X178620001Y-91799134D01*
X178638700Y-91857552D01*
X178638700Y-101346718D01*
X178619487Y-101405849D01*
X178569187Y-101442394D01*
X178507013Y-101442394D01*
X178466965Y-101417853D01*
X175356903Y-98307791D01*
X175280046Y-98263419D01*
X175194324Y-98240449D01*
X175194323Y-98240449D01*
X156325725Y-98240449D01*
X156236977Y-98240449D01*
X156151254Y-98263419D01*
X156074397Y-98307791D01*
X154539255Y-99842934D01*
X154483857Y-99871160D01*
X154468120Y-99872399D01*
X154382256Y-99872399D01*
X154246476Y-99908781D01*
X154246475Y-99908781D01*
X154124728Y-99979073D01*
X154025325Y-100078476D01*
X153955033Y-100200223D01*
X153955033Y-100200224D01*
X153918651Y-100336004D01*
X153918651Y-100476593D01*
X153955033Y-100612373D01*
X153955033Y-100612374D01*
X153955035Y-100612377D01*
X154025325Y-100734121D01*
X154124729Y-100833525D01*
X154246473Y-100903815D01*
X154246475Y-100903816D01*
X154382256Y-100940198D01*
X154382260Y-100940198D01*
X154382262Y-100940199D01*
X154382264Y-100940199D01*
X154522838Y-100940199D01*
X154522840Y-100940199D01*
X154522842Y-100940198D01*
X154522845Y-100940198D01*
X154658625Y-100903816D01*
X154658626Y-100903816D01*
X154658626Y-100903815D01*
X154658629Y-100903815D01*
X154780373Y-100833525D01*
X154879777Y-100734121D01*
X154950067Y-100612377D01*
X154986451Y-100476588D01*
X154986451Y-100390730D01*
X155005664Y-100331599D01*
X155015916Y-100319595D01*
X156391497Y-98944014D01*
X156446895Y-98915788D01*
X156462632Y-98914549D01*
X174968669Y-98914549D01*
X175027800Y-98933762D01*
X175039804Y-98944014D01*
X178009235Y-101913445D01*
X178037461Y-101968843D01*
X178038700Y-101984580D01*
X178038700Y-124016088D01*
X178019487Y-124075219D01*
X177969187Y-124111764D01*
X177938100Y-124116688D01*
X174094557Y-124116688D01*
X174035426Y-124097475D01*
X173998881Y-124047175D01*
X173998881Y-123985001D01*
X174007435Y-123965788D01*
X174030656Y-123925567D01*
X174030655Y-123925567D01*
X174030658Y-123925564D01*
X174061850Y-123809156D01*
X174061850Y-123688642D01*
X174030658Y-123572234D01*
X173970401Y-123467865D01*
X173885184Y-123382648D01*
X173885181Y-123382646D01*
X173780818Y-123322392D01*
X173780815Y-123322391D01*
X173749628Y-123314034D01*
X173664409Y-123291199D01*
X173664407Y-123291199D01*
X173543893Y-123291199D01*
X173543890Y-123291199D01*
X173427481Y-123322392D01*
X173323118Y-123382646D01*
X173323117Y-123382647D01*
X173323116Y-123382648D01*
X173237899Y-123467865D01*
X173237898Y-123467866D01*
X173237897Y-123467867D01*
X173177643Y-123572230D01*
X173146450Y-123688639D01*
X173146450Y-123809158D01*
X173177643Y-123925567D01*
X173200865Y-123965788D01*
X173213792Y-124026604D01*
X173188503Y-124083403D01*
X173134659Y-124114490D01*
X173113743Y-124116688D01*
X165848737Y-124116688D01*
X165763014Y-124139658D01*
X165686157Y-124184030D01*
X165623244Y-124246943D01*
X165579074Y-124323451D01*
X165578966Y-124323636D01*
X165578872Y-124323796D01*
X165578870Y-124323803D01*
X165555900Y-124409523D01*
X165555900Y-129886088D01*
X165536687Y-129945219D01*
X165486387Y-129981764D01*
X165455300Y-129986688D01*
X157091376Y-129986688D01*
X157005653Y-130009658D01*
X156928796Y-130054030D01*
X156015604Y-130967223D01*
X155960206Y-130995449D01*
X155944469Y-130996688D01*
X147567031Y-130996688D01*
X147507900Y-130977475D01*
X147495896Y-130967223D01*
X146584264Y-130055591D01*
X146507407Y-130011219D01*
X146421685Y-129988249D01*
X146421684Y-129988249D01*
X136878400Y-129988249D01*
X136819269Y-129969036D01*
X136782724Y-129918736D01*
X136777800Y-129887649D01*
X136777800Y-126926540D01*
X137642100Y-126926540D01*
X137642100Y-127047059D01*
X137673293Y-127163468D01*
X137733547Y-127267831D01*
X137733549Y-127267834D01*
X137818766Y-127353051D01*
X137818768Y-127353052D01*
X137923131Y-127413306D01*
X137923135Y-127413308D01*
X138039543Y-127444500D01*
X138160057Y-127444500D01*
X138276465Y-127413308D01*
X138380834Y-127353051D01*
X138466051Y-127267834D01*
X138526308Y-127163465D01*
X138557500Y-127047057D01*
X138557500Y-126926543D01*
X138557499Y-126926540D01*
X153136100Y-126926540D01*
X153136100Y-127047059D01*
X153167293Y-127163468D01*
X153227547Y-127267831D01*
X153227549Y-127267834D01*
X153312766Y-127353051D01*
X153312768Y-127353052D01*
X153417131Y-127413306D01*
X153417135Y-127413308D01*
X153533543Y-127444500D01*
X153654057Y-127444500D01*
X153770465Y-127413308D01*
X153874834Y-127353051D01*
X153960051Y-127267834D01*
X154020308Y-127163465D01*
X154051500Y-127047057D01*
X154051500Y-126926543D01*
X154020308Y-126810135D01*
X154019956Y-126809526D01*
X153960052Y-126705768D01*
X153960051Y-126705766D01*
X153874834Y-126620549D01*
X153874831Y-126620547D01*
X153770468Y-126560293D01*
X153770465Y-126560292D01*
X153739278Y-126551935D01*
X153654059Y-126529100D01*
X153654057Y-126529100D01*
X153533543Y-126529100D01*
X153533540Y-126529100D01*
X153417131Y-126560293D01*
X153312768Y-126620547D01*
X153312767Y-126620548D01*
X153312766Y-126620549D01*
X153227549Y-126705766D01*
X153227548Y-126705767D01*
X153227547Y-126705768D01*
X153167293Y-126810131D01*
X153136100Y-126926540D01*
X138557499Y-126926540D01*
X138526308Y-126810135D01*
X138525956Y-126809526D01*
X138466052Y-126705768D01*
X138466051Y-126705766D01*
X138380834Y-126620549D01*
X138380831Y-126620547D01*
X138276468Y-126560293D01*
X138276465Y-126560292D01*
X138245278Y-126551935D01*
X138160059Y-126529100D01*
X138160057Y-126529100D01*
X138039543Y-126529100D01*
X138039540Y-126529100D01*
X137923131Y-126560293D01*
X137818768Y-126620547D01*
X137818767Y-126620548D01*
X137818766Y-126620549D01*
X137733549Y-126705766D01*
X137733548Y-126705767D01*
X137733547Y-126705768D01*
X137673293Y-126810131D01*
X137642100Y-126926540D01*
X136777800Y-126926540D01*
X136777800Y-125326639D01*
X142056850Y-125326639D01*
X142056850Y-125447158D01*
X142088043Y-125563567D01*
X142148297Y-125667930D01*
X142148299Y-125667933D01*
X142233516Y-125753150D01*
X142233518Y-125753151D01*
X142337881Y-125813405D01*
X142337885Y-125813407D01*
X142454293Y-125844599D01*
X142574807Y-125844599D01*
X142691215Y-125813407D01*
X142795584Y-125753150D01*
X142880801Y-125667933D01*
X142941058Y-125563564D01*
X142972250Y-125447156D01*
X142972250Y-125326642D01*
X142972249Y-125326639D01*
X157550850Y-125326639D01*
X157550850Y-125447158D01*
X157582043Y-125563567D01*
X157642297Y-125667930D01*
X157642299Y-125667933D01*
X157727516Y-125753150D01*
X157727518Y-125753151D01*
X157831881Y-125813405D01*
X157831885Y-125813407D01*
X157948293Y-125844599D01*
X158068807Y-125844599D01*
X158185215Y-125813407D01*
X158289584Y-125753150D01*
X158374801Y-125667933D01*
X158435058Y-125563564D01*
X158466250Y-125447156D01*
X158466250Y-125326642D01*
X158435058Y-125210234D01*
X158374801Y-125105865D01*
X158289584Y-125020648D01*
X158289581Y-125020646D01*
X158185218Y-124960392D01*
X158185215Y-124960391D01*
X158154028Y-124952034D01*
X158068809Y-124929199D01*
X158068807Y-124929199D01*
X157948293Y-124929199D01*
X157948290Y-124929199D01*
X157831881Y-124960392D01*
X157727518Y-125020646D01*
X157727517Y-125020647D01*
X157727516Y-125020648D01*
X157642299Y-125105865D01*
X157642298Y-125105866D01*
X157642297Y-125105867D01*
X157582043Y-125210230D01*
X157550850Y-125326639D01*
X142972249Y-125326639D01*
X142941058Y-125210234D01*
X142880801Y-125105865D01*
X142795584Y-125020648D01*
X142795581Y-125020646D01*
X142691218Y-124960392D01*
X142691215Y-124960391D01*
X142660028Y-124952034D01*
X142574809Y-124929199D01*
X142574807Y-124929199D01*
X142454293Y-124929199D01*
X142454290Y-124929199D01*
X142337881Y-124960392D01*
X142233518Y-125020646D01*
X142233517Y-125020647D01*
X142233516Y-125020648D01*
X142148299Y-125105865D01*
X142148298Y-125105866D01*
X142148297Y-125105867D01*
X142088043Y-125210230D01*
X142056850Y-125326639D01*
X136777800Y-125326639D01*
X136777800Y-124410926D01*
X136777799Y-124410922D01*
X136754830Y-124325204D01*
X136754828Y-124325199D01*
X136753929Y-124323642D01*
X136753923Y-124323633D01*
X136710457Y-124248345D01*
X136646142Y-124184030D01*
X136569285Y-124139658D01*
X136483563Y-124116688D01*
X136483562Y-124116688D01*
X125583400Y-124116688D01*
X125524269Y-124097475D01*
X125487724Y-124047175D01*
X125482800Y-124016088D01*
X125482800Y-122012239D01*
X139047450Y-122012239D01*
X139047450Y-122132758D01*
X139078643Y-122249167D01*
X139138897Y-122353530D01*
X139138899Y-122353533D01*
X139224116Y-122438750D01*
X139224118Y-122438751D01*
X139328481Y-122499005D01*
X139328485Y-122499007D01*
X139444893Y-122530199D01*
X139565407Y-122530199D01*
X139647406Y-122508227D01*
X139673444Y-122504799D01*
X140221121Y-122504799D01*
X140324609Y-122477069D01*
X140417394Y-122423500D01*
X140828655Y-122012239D01*
X154541450Y-122012239D01*
X154541450Y-122132758D01*
X154572643Y-122249167D01*
X154632897Y-122353530D01*
X154632899Y-122353533D01*
X154718116Y-122438750D01*
X154718118Y-122438751D01*
X154822481Y-122499005D01*
X154822485Y-122499007D01*
X154938893Y-122530199D01*
X155059407Y-122530199D01*
X155175815Y-122499007D01*
X155175817Y-122499006D01*
X155186433Y-122492877D01*
X155236733Y-122479399D01*
X155740521Y-122479399D01*
X155844009Y-122451669D01*
X155936794Y-122398100D01*
X156322655Y-122012239D01*
X170035450Y-122012239D01*
X170035450Y-122132758D01*
X170066643Y-122249167D01*
X170126897Y-122353530D01*
X170126899Y-122353533D01*
X170212116Y-122438750D01*
X170212118Y-122438751D01*
X170316481Y-122499005D01*
X170316485Y-122499007D01*
X170432893Y-122530199D01*
X170553407Y-122530199D01*
X170669815Y-122499007D01*
X170669817Y-122499006D01*
X170680433Y-122492877D01*
X170730733Y-122479399D01*
X171259921Y-122479399D01*
X171363409Y-122451669D01*
X171456194Y-122398100D01*
X176075876Y-117778415D01*
X176120975Y-117752379D01*
X176132816Y-117749207D01*
X176237185Y-117688950D01*
X176322402Y-117603733D01*
X176382659Y-117499364D01*
X176413851Y-117382956D01*
X176413851Y-117262442D01*
X176382659Y-117146034D01*
X176322402Y-117041665D01*
X176237185Y-116956448D01*
X176237182Y-116956446D01*
X176132819Y-116896192D01*
X176132816Y-116896191D01*
X176101629Y-116887834D01*
X176016410Y-116864999D01*
X176016408Y-116864999D01*
X175895894Y-116864999D01*
X175895891Y-116864999D01*
X175779482Y-116896192D01*
X175675119Y-116956446D01*
X175675118Y-116956447D01*
X175675117Y-116956448D01*
X175589900Y-117041665D01*
X175589899Y-117041666D01*
X175589898Y-117041667D01*
X175529643Y-117146032D01*
X175526468Y-117157881D01*
X175500432Y-117202973D01*
X171067272Y-121636134D01*
X171011874Y-121664360D01*
X170996137Y-121665599D01*
X170730733Y-121665599D01*
X170680433Y-121652121D01*
X170669817Y-121645991D01*
X170553409Y-121614799D01*
X170553407Y-121614799D01*
X170432893Y-121614799D01*
X170432890Y-121614799D01*
X170316481Y-121645992D01*
X170212118Y-121706246D01*
X170212117Y-121706247D01*
X170212116Y-121706248D01*
X170126899Y-121791465D01*
X170126898Y-121791466D01*
X170126897Y-121791467D01*
X170066643Y-121895830D01*
X170035450Y-122012239D01*
X156322655Y-122012239D01*
X157795854Y-120539039D01*
X170035450Y-120539039D01*
X170035450Y-120659558D01*
X170066643Y-120775967D01*
X170126897Y-120880330D01*
X170126899Y-120880333D01*
X170212116Y-120965550D01*
X170212118Y-120965551D01*
X170316481Y-121025805D01*
X170316485Y-121025807D01*
X170432893Y-121056999D01*
X170553407Y-121056999D01*
X170669815Y-121025807D01*
X170774184Y-120965550D01*
X170859401Y-120880333D01*
X170919658Y-120775964D01*
X170950850Y-120659556D01*
X170950850Y-120539042D01*
X170919658Y-120422634D01*
X170859401Y-120318265D01*
X170774184Y-120233048D01*
X170774181Y-120233046D01*
X170669818Y-120172792D01*
X170669815Y-120172791D01*
X170638628Y-120164434D01*
X170553409Y-120141599D01*
X170553407Y-120141599D01*
X170432893Y-120141599D01*
X170432890Y-120141599D01*
X170316481Y-120172792D01*
X170212118Y-120233046D01*
X170212117Y-120233047D01*
X170212116Y-120233048D01*
X170126899Y-120318265D01*
X170126898Y-120318266D01*
X170126897Y-120318267D01*
X170066643Y-120422630D01*
X170035450Y-120539039D01*
X157795854Y-120539039D01*
X160556476Y-117778415D01*
X160601575Y-117752379D01*
X160613416Y-117749207D01*
X160717785Y-117688950D01*
X160803002Y-117603733D01*
X160863259Y-117499364D01*
X160894451Y-117382956D01*
X160894451Y-117262442D01*
X160863259Y-117146034D01*
X160803002Y-117041665D01*
X160717785Y-116956448D01*
X160717782Y-116956446D01*
X160613419Y-116896192D01*
X160613416Y-116896191D01*
X160582229Y-116887834D01*
X160497010Y-116864999D01*
X160497008Y-116864999D01*
X160376494Y-116864999D01*
X160376491Y-116864999D01*
X160260082Y-116896192D01*
X160155719Y-116956446D01*
X160155718Y-116956447D01*
X160155717Y-116956448D01*
X160070500Y-117041665D01*
X160070499Y-117041666D01*
X160070498Y-117041667D01*
X160010243Y-117146032D01*
X160007068Y-117157881D01*
X159981032Y-117202973D01*
X155547872Y-121636134D01*
X155492474Y-121664360D01*
X155476737Y-121665599D01*
X155236733Y-121665599D01*
X155186433Y-121652121D01*
X155175817Y-121645991D01*
X155059409Y-121614799D01*
X155059407Y-121614799D01*
X154938893Y-121614799D01*
X154938890Y-121614799D01*
X154822481Y-121645992D01*
X154718118Y-121706246D01*
X154718117Y-121706247D01*
X154718116Y-121706248D01*
X154632899Y-121791465D01*
X154632898Y-121791466D01*
X154632897Y-121791467D01*
X154572643Y-121895830D01*
X154541450Y-122012239D01*
X140828655Y-122012239D01*
X142301854Y-120539039D01*
X154541450Y-120539039D01*
X154541450Y-120659558D01*
X154572643Y-120775967D01*
X154632897Y-120880330D01*
X154632899Y-120880333D01*
X154718116Y-120965550D01*
X154718118Y-120965551D01*
X154822481Y-121025805D01*
X154822485Y-121025807D01*
X154938893Y-121056999D01*
X155059407Y-121056999D01*
X155175815Y-121025807D01*
X155280184Y-120965550D01*
X155365401Y-120880333D01*
X155425658Y-120775964D01*
X155456850Y-120659556D01*
X155456850Y-120539042D01*
X155425658Y-120422634D01*
X155365401Y-120318265D01*
X155280184Y-120233048D01*
X155280181Y-120233046D01*
X155175818Y-120172792D01*
X155175815Y-120172791D01*
X155144628Y-120164434D01*
X155059409Y-120141599D01*
X155059407Y-120141599D01*
X154938893Y-120141599D01*
X154938890Y-120141599D01*
X154822481Y-120172792D01*
X154718118Y-120233046D01*
X154718117Y-120233047D01*
X154718116Y-120233048D01*
X154632899Y-120318265D01*
X154632898Y-120318266D01*
X154632897Y-120318267D01*
X154572643Y-120422630D01*
X154541450Y-120539039D01*
X142301854Y-120539039D01*
X145062476Y-117778415D01*
X145107575Y-117752379D01*
X145119416Y-117749207D01*
X145223785Y-117688950D01*
X145309002Y-117603733D01*
X145369259Y-117499364D01*
X145400451Y-117382956D01*
X145400451Y-117262442D01*
X145369259Y-117146034D01*
X145309002Y-117041665D01*
X145223785Y-116956448D01*
X145223782Y-116956446D01*
X145119419Y-116896192D01*
X145119416Y-116896191D01*
X145088229Y-116887834D01*
X145003010Y-116864999D01*
X145003008Y-116864999D01*
X144882494Y-116864999D01*
X144882491Y-116864999D01*
X144766082Y-116896192D01*
X144661719Y-116956446D01*
X144661718Y-116956447D01*
X144661717Y-116956448D01*
X144576500Y-117041665D01*
X144576499Y-117041666D01*
X144576498Y-117041667D01*
X144516243Y-117146032D01*
X144513068Y-117157881D01*
X144487032Y-117202973D01*
X140028472Y-121661534D01*
X140021238Y-121665219D01*
X140016468Y-121671786D01*
X139994062Y-121679065D01*
X139973074Y-121689760D01*
X139957337Y-121690999D01*
X139786727Y-121690999D01*
X139736428Y-121677521D01*
X139681819Y-121645993D01*
X139681817Y-121645992D01*
X139681815Y-121645991D01*
X139614609Y-121627982D01*
X139565409Y-121614799D01*
X139565407Y-121614799D01*
X139444893Y-121614799D01*
X139444890Y-121614799D01*
X139328481Y-121645992D01*
X139224118Y-121706246D01*
X139224117Y-121706247D01*
X139224116Y-121706248D01*
X139138899Y-121791465D01*
X139138898Y-121791466D01*
X139138897Y-121791467D01*
X139078643Y-121895830D01*
X139047450Y-122012239D01*
X125482800Y-122012239D01*
X125482800Y-120539039D01*
X139047450Y-120539039D01*
X139047450Y-120659558D01*
X139078643Y-120775967D01*
X139138897Y-120880330D01*
X139138899Y-120880333D01*
X139224116Y-120965550D01*
X139224118Y-120965551D01*
X139328481Y-121025805D01*
X139328485Y-121025807D01*
X139444893Y-121056999D01*
X139565407Y-121056999D01*
X139681815Y-121025807D01*
X139786184Y-120965550D01*
X139871401Y-120880333D01*
X139931658Y-120775964D01*
X139962850Y-120659556D01*
X139962850Y-120539042D01*
X139931658Y-120422634D01*
X139871401Y-120318265D01*
X139786184Y-120233048D01*
X139786181Y-120233046D01*
X139681818Y-120172792D01*
X139681815Y-120172791D01*
X139650628Y-120164434D01*
X139565409Y-120141599D01*
X139565407Y-120141599D01*
X139444893Y-120141599D01*
X139444890Y-120141599D01*
X139328481Y-120172792D01*
X139224118Y-120233046D01*
X139224117Y-120233047D01*
X139224116Y-120233048D01*
X139138899Y-120318265D01*
X139138898Y-120318266D01*
X139138897Y-120318267D01*
X139078643Y-120422630D01*
X139047450Y-120539039D01*
X125482800Y-120539039D01*
X125482800Y-109783399D01*
X125502013Y-109724268D01*
X125552313Y-109687723D01*
X125583400Y-109682799D01*
X128692450Y-109682799D01*
X128751581Y-109702012D01*
X128788126Y-109752312D01*
X128793050Y-109783399D01*
X128793050Y-112497688D01*
X128793651Y-112511477D01*
X128794791Y-112524511D01*
X128794792Y-112524516D01*
X128815345Y-112589705D01*
X128841064Y-112634252D01*
X128856854Y-112656802D01*
X128856856Y-112656804D01*
X128923807Y-112703683D01*
X128923808Y-112703683D01*
X128923809Y-112703684D01*
X128952657Y-112714183D01*
X128972141Y-112721275D01*
X128972144Y-112721276D01*
X128972147Y-112721277D01*
X129026150Y-112730799D01*
X129026154Y-112730799D01*
X130780740Y-112730799D01*
X130780750Y-112730799D01*
X130794507Y-112730199D01*
X130807565Y-112729057D01*
X130832248Y-112721275D01*
X130872756Y-112708504D01*
X130872756Y-112708503D01*
X130872757Y-112708503D01*
X130917306Y-112682783D01*
X130939854Y-112666994D01*
X130986735Y-112600040D01*
X131004328Y-112551702D01*
X131013850Y-112497699D01*
X131013850Y-111790024D01*
X131033063Y-111730893D01*
X131083363Y-111694348D01*
X131145537Y-111694348D01*
X131164747Y-111702900D01*
X131223475Y-111736807D01*
X131339883Y-111767999D01*
X131460397Y-111767999D01*
X131576805Y-111736807D01*
X131681174Y-111676550D01*
X131766391Y-111591333D01*
X131826648Y-111486964D01*
X131857840Y-111370556D01*
X131857840Y-111250042D01*
X131826648Y-111133634D01*
X131825087Y-111130931D01*
X131774442Y-111043210D01*
X131766391Y-111029265D01*
X131681174Y-110944048D01*
X131681171Y-110944046D01*
X131576808Y-110883792D01*
X131576805Y-110883791D01*
X131527573Y-110870599D01*
X131460399Y-110852599D01*
X131460397Y-110852599D01*
X131339883Y-110852599D01*
X131339880Y-110852599D01*
X131223470Y-110883792D01*
X131223469Y-110883793D01*
X131164749Y-110917695D01*
X131103934Y-110930622D01*
X131047135Y-110905333D01*
X131016048Y-110851488D01*
X131013850Y-110830573D01*
X131013850Y-109783399D01*
X131033063Y-109724268D01*
X131083363Y-109687723D01*
X131114450Y-109682799D01*
X132451650Y-109682799D01*
X132510781Y-109702012D01*
X132547326Y-109752312D01*
X132552250Y-109783399D01*
X132552250Y-113381199D01*
X132533037Y-113440330D01*
X132482737Y-113476875D01*
X132451650Y-113481799D01*
X129000750Y-113481799D01*
X128986993Y-113482399D01*
X128986992Y-113482399D01*
X128986971Y-113482400D01*
X128973937Y-113483540D01*
X128973932Y-113483541D01*
X128908743Y-113504093D01*
X128908743Y-113504094D01*
X128864196Y-113529813D01*
X128841646Y-113545603D01*
X128841644Y-113545605D01*
X128794765Y-113612556D01*
X128777173Y-113660890D01*
X128777172Y-113660893D01*
X128767650Y-113714901D01*
X128767650Y-116002888D01*
X128768251Y-116016677D01*
X128769391Y-116029711D01*
X128769392Y-116029716D01*
X128789945Y-116094905D01*
X128815664Y-116139452D01*
X128831454Y-116162002D01*
X128831456Y-116162004D01*
X128898407Y-116208883D01*
X128898408Y-116208883D01*
X128898409Y-116208884D01*
X128927257Y-116219383D01*
X128946741Y-116226475D01*
X128946744Y-116226476D01*
X128946747Y-116226477D01*
X129000750Y-116235999D01*
X129000754Y-116235999D01*
X139721040Y-116235999D01*
X139721050Y-116235999D01*
X139734807Y-116235399D01*
X139747865Y-116234257D01*
X139772548Y-116226475D01*
X139813056Y-116213704D01*
X139813056Y-116213703D01*
X139813057Y-116213703D01*
X139857606Y-116187983D01*
X139880154Y-116172194D01*
X139927035Y-116105240D01*
X139944628Y-116056902D01*
X139954150Y-116002899D01*
X139954150Y-115988873D01*
X139957576Y-115962843D01*
X139971155Y-115912162D01*
X139981197Y-115887919D01*
X140007435Y-115842474D01*
X140023413Y-115821651D01*
X140060501Y-115784563D01*
X140081332Y-115768580D01*
X140126758Y-115742353D01*
X140151023Y-115732302D01*
X140201694Y-115718726D01*
X140227729Y-115715299D01*
X140280175Y-115715299D01*
X140306209Y-115718726D01*
X140356873Y-115732301D01*
X140381135Y-115742351D01*
X140426563Y-115768579D01*
X140447399Y-115784567D01*
X140484484Y-115821653D01*
X140500470Y-115842487D01*
X140526696Y-115887912D01*
X140536746Y-115912173D01*
X140550322Y-115962835D01*
X140553750Y-115988874D01*
X140553750Y-116002888D01*
X140554351Y-116016677D01*
X140555491Y-116029711D01*
X140555492Y-116029716D01*
X140576045Y-116094905D01*
X140601764Y-116139452D01*
X140617554Y-116162002D01*
X140617556Y-116162004D01*
X140684507Y-116208883D01*
X140684508Y-116208883D01*
X140684509Y-116208884D01*
X140713357Y-116219383D01*
X140732841Y-116226475D01*
X140732844Y-116226476D01*
X140732847Y-116226477D01*
X140786850Y-116235999D01*
X140786854Y-116235999D01*
X141194240Y-116235999D01*
X141194250Y-116235999D01*
X141208007Y-116235399D01*
X141221065Y-116234257D01*
X141245748Y-116226475D01*
X141286256Y-116213704D01*
X141286256Y-116213703D01*
X141286257Y-116213703D01*
X141330806Y-116187983D01*
X141353354Y-116172194D01*
X141400235Y-116105240D01*
X141417828Y-116056902D01*
X141427350Y-116002899D01*
X141427350Y-115988873D01*
X141430776Y-115962843D01*
X141444355Y-115912162D01*
X141454397Y-115887919D01*
X141480635Y-115842474D01*
X141496613Y-115821651D01*
X141533701Y-115784563D01*
X141554532Y-115768580D01*
X141599958Y-115742353D01*
X141624223Y-115732302D01*
X141674894Y-115718726D01*
X141700929Y-115715299D01*
X141753374Y-115715299D01*
X141779411Y-115718727D01*
X141830074Y-115732302D01*
X141854337Y-115742352D01*
X141859977Y-115745608D01*
X141916400Y-115778184D01*
X141916401Y-115778184D01*
X141916404Y-115778186D01*
X141967923Y-115796937D01*
X141967924Y-115796937D01*
X141967929Y-115796939D01*
X141967933Y-115796939D01*
X141967938Y-115796941D01*
X142018566Y-115805869D01*
X142018577Y-115805870D01*
X142018587Y-115805872D01*
X142035343Y-115807338D01*
X142046006Y-115808271D01*
X142046006Y-115808270D01*
X142046007Y-115808271D01*
X142124957Y-115787117D01*
X142169506Y-115761397D01*
X142192054Y-115745608D01*
X142238935Y-115678654D01*
X142256528Y-115630316D01*
X142266050Y-115576313D01*
X142266050Y-100336004D01*
X148610051Y-100336004D01*
X148610051Y-100476593D01*
X148646433Y-100612373D01*
X148646433Y-100612374D01*
X148646435Y-100612377D01*
X148716725Y-100734121D01*
X148816129Y-100833525D01*
X148937873Y-100903815D01*
X148937875Y-100903816D01*
X149073656Y-100940198D01*
X149073660Y-100940198D01*
X149073662Y-100940199D01*
X149073664Y-100940199D01*
X149214238Y-100940199D01*
X149214240Y-100940199D01*
X149214242Y-100940198D01*
X149214245Y-100940198D01*
X149350025Y-100903816D01*
X149350026Y-100903816D01*
X149350026Y-100903815D01*
X149350029Y-100903815D01*
X149471773Y-100833525D01*
X149571177Y-100734121D01*
X149641467Y-100612377D01*
X149677851Y-100476588D01*
X149677851Y-100336010D01*
X149677850Y-100336008D01*
X149677850Y-100336004D01*
X149641468Y-100200224D01*
X149641468Y-100200223D01*
X149571176Y-100078476D01*
X149471773Y-99979073D01*
X149350026Y-99908781D01*
X149214245Y-99872399D01*
X149214240Y-99872399D01*
X149073662Y-99872399D01*
X149073656Y-99872399D01*
X148937876Y-99908781D01*
X148937875Y-99908781D01*
X148816128Y-99979073D01*
X148716725Y-100078476D01*
X148646433Y-100200223D01*
X148646433Y-100200224D01*
X148610051Y-100336004D01*
X142266050Y-100336004D01*
X142266050Y-97819999D01*
X142285263Y-97760868D01*
X142335563Y-97724323D01*
X142366650Y-97719399D01*
X162860940Y-97719399D01*
X162860950Y-97719399D01*
X162874707Y-97718799D01*
X162887765Y-97717657D01*
X162910612Y-97710453D01*
X162952956Y-97697104D01*
X162952956Y-97697103D01*
X162952957Y-97697103D01*
X162997506Y-97671383D01*
X163020054Y-97655594D01*
X163066935Y-97588640D01*
X163084528Y-97540302D01*
X163094050Y-97486299D01*
X163094050Y-95227439D01*
X171080249Y-95227439D01*
X171080249Y-95347958D01*
X171111442Y-95464367D01*
X171168576Y-95563326D01*
X171171698Y-95568733D01*
X171256915Y-95653950D01*
X171278225Y-95666253D01*
X171361280Y-95714205D01*
X171361284Y-95714207D01*
X171477692Y-95745399D01*
X171598206Y-95745399D01*
X171714614Y-95714207D01*
X171818983Y-95653950D01*
X171904200Y-95568733D01*
X171964457Y-95464364D01*
X171995649Y-95347956D01*
X171995649Y-95227442D01*
X171964457Y-95111034D01*
X171904200Y-95006665D01*
X171818983Y-94921448D01*
X171818980Y-94921446D01*
X171714617Y-94861192D01*
X171714614Y-94861191D01*
X171683427Y-94852834D01*
X171598208Y-94829999D01*
X171598206Y-94829999D01*
X171477692Y-94829999D01*
X171477689Y-94829999D01*
X171361280Y-94861192D01*
X171256917Y-94921446D01*
X171256916Y-94921447D01*
X171256915Y-94921448D01*
X171171698Y-95006665D01*
X171171697Y-95006666D01*
X171171696Y-95006667D01*
X171111442Y-95111030D01*
X171080249Y-95227439D01*
X163094050Y-95227439D01*
X163094050Y-91876399D01*
X163113263Y-91817268D01*
X163163563Y-91780723D01*
X163194650Y-91775799D01*
X178441540Y-91775799D01*
X178441550Y-91775799D01*
X178455307Y-91775199D01*
X178468365Y-91774057D01*
X178507850Y-91761608D01*
X178570022Y-91762151D01*
G37*
%TD.AperFunction*%
%TA.AperFunction,Conductor*%
G36*
X138769209Y-112835326D02*
G01*
X138819873Y-112848901D01*
X138844135Y-112858951D01*
X138889563Y-112885179D01*
X138910399Y-112901167D01*
X138947484Y-112938253D01*
X138963470Y-112959087D01*
X138989695Y-113004510D01*
X138999745Y-113028771D01*
X139013321Y-113079436D01*
X139013322Y-113079437D01*
X139016750Y-113105476D01*
X139016750Y-113157920D01*
X139013322Y-113183959D01*
X138999745Y-113234625D01*
X138989695Y-113258886D01*
X138963469Y-113304311D01*
X138947482Y-113325146D01*
X138910397Y-113362231D01*
X138889562Y-113378218D01*
X138844137Y-113404444D01*
X138819877Y-113414493D01*
X138769212Y-113428070D01*
X138743172Y-113431499D01*
X138690729Y-113431499D01*
X138664693Y-113428071D01*
X138636999Y-113420650D01*
X138614023Y-113414494D01*
X138589763Y-113404445D01*
X138544339Y-113378220D01*
X138523504Y-113362233D01*
X138486418Y-113325148D01*
X138470430Y-113304312D01*
X138444202Y-113258884D01*
X138434152Y-113234620D01*
X138420578Y-113183959D01*
X138417150Y-113157923D01*
X138417150Y-113105472D01*
X138420575Y-113079445D01*
X138434155Y-113028763D01*
X138444202Y-113004510D01*
X138470434Y-112959075D01*
X138486414Y-112938250D01*
X138523501Y-112901163D01*
X138544332Y-112885180D01*
X138589758Y-112858953D01*
X138614023Y-112848902D01*
X138664694Y-112835326D01*
X138690729Y-112831899D01*
X138743175Y-112831899D01*
X138769209Y-112835326D01*
G37*
%TD.AperFunction*%
%TA.AperFunction,Conductor*%
G36*
X138742909Y-110874026D02*
G01*
X138793573Y-110887601D01*
X138817835Y-110897651D01*
X138863263Y-110923879D01*
X138884099Y-110939867D01*
X138921182Y-110976951D01*
X138937168Y-110997784D01*
X138948664Y-111017696D01*
X138948678Y-111017719D01*
X138963782Y-111043878D01*
X138999028Y-111085882D01*
X138999034Y-111085887D01*
X138999036Y-111085889D01*
X139007909Y-111093335D01*
X139040856Y-111146062D01*
X139036518Y-111208084D01*
X139007908Y-111247462D01*
X138999036Y-111254906D01*
X138999035Y-111254906D01*
X138963779Y-111296924D01*
X138937170Y-111343011D01*
X138921184Y-111363844D01*
X138884097Y-111400931D01*
X138863262Y-111416918D01*
X138817837Y-111443144D01*
X138793577Y-111453193D01*
X138742912Y-111466770D01*
X138716872Y-111470199D01*
X138664429Y-111470199D01*
X138638393Y-111466771D01*
X138610699Y-111459350D01*
X138587723Y-111453194D01*
X138563463Y-111443145D01*
X138518039Y-111416920D01*
X138497204Y-111400933D01*
X138460118Y-111363848D01*
X138444130Y-111343012D01*
X138417902Y-111297584D01*
X138407852Y-111273320D01*
X138394278Y-111222659D01*
X138390850Y-111196623D01*
X138390850Y-111144172D01*
X138394275Y-111118145D01*
X138407855Y-111067463D01*
X138417902Y-111043210D01*
X138444134Y-110997775D01*
X138460114Y-110976950D01*
X138497201Y-110939863D01*
X138518032Y-110923880D01*
X138563458Y-110897653D01*
X138587723Y-110887602D01*
X138638394Y-110874026D01*
X138664429Y-110870599D01*
X138716875Y-110870599D01*
X138742909Y-110874026D01*
G37*
%TD.AperFunction*%
%TA.AperFunction,Conductor*%
G36*
X139692909Y-110874026D02*
G01*
X139743573Y-110887601D01*
X139767835Y-110897651D01*
X139813263Y-110923879D01*
X139834099Y-110939867D01*
X139871184Y-110976953D01*
X139887170Y-110997787D01*
X139913395Y-111043210D01*
X139923445Y-111067471D01*
X139929268Y-111089203D01*
X139937021Y-111118136D01*
X139937022Y-111118137D01*
X139940449Y-111144172D01*
X139940450Y-111144176D01*
X139940450Y-111196620D01*
X139937022Y-111222659D01*
X139923445Y-111273325D01*
X139913395Y-111297586D01*
X139887169Y-111343011D01*
X139871182Y-111363846D01*
X139834097Y-111400931D01*
X139813262Y-111416918D01*
X139767837Y-111443144D01*
X139743577Y-111453193D01*
X139692912Y-111466770D01*
X139666872Y-111470199D01*
X139614429Y-111470199D01*
X139588393Y-111466771D01*
X139560699Y-111459350D01*
X139537723Y-111453194D01*
X139513463Y-111443145D01*
X139468039Y-111416920D01*
X139447204Y-111400933D01*
X139410116Y-111363846D01*
X139394129Y-111343011D01*
X139367520Y-111296923D01*
X139367519Y-111296921D01*
X139367518Y-111296920D01*
X139332271Y-111254915D01*
X139332261Y-111254906D01*
X139323389Y-111247461D01*
X139290442Y-111194734D01*
X139294780Y-111132712D01*
X139323391Y-111093334D01*
X139332272Y-111085882D01*
X139367520Y-111043874D01*
X139394133Y-110997776D01*
X139410113Y-110976951D01*
X139447201Y-110939863D01*
X139468032Y-110923880D01*
X139513458Y-110897653D01*
X139537723Y-110887602D01*
X139588394Y-110874026D01*
X139614429Y-110870599D01*
X139666875Y-110870599D01*
X139692909Y-110874026D01*
G37*
%TD.AperFunction*%
%TA.AperFunction,Conductor*%
G36*
X132965609Y-108511826D02*
G01*
X133016273Y-108525401D01*
X133040535Y-108535451D01*
X133085963Y-108561679D01*
X133106799Y-108577667D01*
X133143882Y-108614751D01*
X133159868Y-108635584D01*
X133171364Y-108655496D01*
X133171378Y-108655519D01*
X133186482Y-108681678D01*
X133221728Y-108723682D01*
X133221734Y-108723687D01*
X133221736Y-108723689D01*
X133230609Y-108731135D01*
X133263556Y-108783862D01*
X133259218Y-108845884D01*
X133230608Y-108885262D01*
X133221736Y-108892706D01*
X133221735Y-108892706D01*
X133186479Y-108934724D01*
X133159870Y-108980811D01*
X133143884Y-109001644D01*
X133106797Y-109038731D01*
X133085962Y-109054718D01*
X133040537Y-109080944D01*
X133016277Y-109090993D01*
X132965612Y-109104570D01*
X132939572Y-109107999D01*
X132887129Y-109107999D01*
X132861093Y-109104571D01*
X132833399Y-109097150D01*
X132810423Y-109090994D01*
X132786163Y-109080945D01*
X132740739Y-109054720D01*
X132719904Y-109038733D01*
X132682816Y-109001646D01*
X132666829Y-108980811D01*
X132640220Y-108934723D01*
X132640219Y-108934721D01*
X132640218Y-108934720D01*
X132604971Y-108892715D01*
X132604961Y-108892706D01*
X132596089Y-108885261D01*
X132563142Y-108832534D01*
X132567480Y-108770512D01*
X132596091Y-108731134D01*
X132604972Y-108723682D01*
X132640220Y-108681674D01*
X132666833Y-108635576D01*
X132682813Y-108614751D01*
X132719901Y-108577663D01*
X132740732Y-108561680D01*
X132786158Y-108535453D01*
X132810423Y-108525402D01*
X132861094Y-108511826D01*
X132887129Y-108508399D01*
X132939575Y-108508399D01*
X132965609Y-108511826D01*
G37*
%TD.AperFunction*%
%TA.AperFunction,Conductor*%
G36*
X146720210Y-95563326D02*
G01*
X146770874Y-95576901D01*
X146795136Y-95586951D01*
X146840564Y-95613179D01*
X146861400Y-95629167D01*
X146898485Y-95666253D01*
X146914471Y-95687087D01*
X146940696Y-95732510D01*
X146950746Y-95756771D01*
X146964322Y-95807436D01*
X146964323Y-95807437D01*
X146967750Y-95833472D01*
X146967751Y-95833476D01*
X146967751Y-95885920D01*
X146964323Y-95911959D01*
X146950746Y-95962625D01*
X146940696Y-95986886D01*
X146914470Y-96032311D01*
X146898483Y-96053146D01*
X146861398Y-96090231D01*
X146840563Y-96106218D01*
X146795138Y-96132444D01*
X146770878Y-96142493D01*
X146720213Y-96156070D01*
X146694173Y-96159499D01*
X146641730Y-96159499D01*
X146615694Y-96156071D01*
X146588000Y-96148650D01*
X146565024Y-96142494D01*
X146540764Y-96132445D01*
X146495340Y-96106220D01*
X146474505Y-96090233D01*
X146437419Y-96053148D01*
X146421431Y-96032312D01*
X146395203Y-95986884D01*
X146385153Y-95962620D01*
X146371579Y-95911959D01*
X146368151Y-95885923D01*
X146368151Y-95833472D01*
X146371576Y-95807445D01*
X146385156Y-95756763D01*
X146395203Y-95732510D01*
X146421435Y-95687075D01*
X146437415Y-95666250D01*
X146474502Y-95629163D01*
X146495333Y-95613180D01*
X146540759Y-95586953D01*
X146565024Y-95576902D01*
X146615695Y-95563326D01*
X146641730Y-95559899D01*
X146694176Y-95559899D01*
X146720210Y-95563326D01*
G37*
%TD.AperFunction*%
%TA.AperFunction,Conductor*%
G36*
X146721900Y-94086733D02*
G01*
X146721992Y-94086705D01*
X146724705Y-94086735D01*
X146726599Y-94086860D01*
X146736934Y-94087199D01*
X146765498Y-94087199D01*
X146766026Y-94087205D01*
X146794964Y-94096972D01*
X146824015Y-94106412D01*
X146824367Y-94106897D01*
X146824935Y-94107089D01*
X146847290Y-94130096D01*
X146874759Y-94169325D01*
X146898482Y-94193048D01*
X146914468Y-94213882D01*
X146914470Y-94213884D01*
X146940697Y-94259312D01*
X146950745Y-94283571D01*
X146964322Y-94334236D01*
X146967751Y-94360276D01*
X146967751Y-94412720D01*
X146964323Y-94438759D01*
X146950746Y-94489425D01*
X146940696Y-94513686D01*
X146914470Y-94559111D01*
X146898483Y-94579946D01*
X146861398Y-94617031D01*
X146840563Y-94633018D01*
X146795138Y-94659244D01*
X146770878Y-94669293D01*
X146720213Y-94682870D01*
X146694173Y-94686299D01*
X146641730Y-94686299D01*
X146615694Y-94682871D01*
X146588000Y-94675450D01*
X146565024Y-94669294D01*
X146540764Y-94659245D01*
X146495340Y-94633020D01*
X146474505Y-94617033D01*
X146437419Y-94579948D01*
X146421431Y-94559112D01*
X146395203Y-94513684D01*
X146385153Y-94489420D01*
X146371579Y-94438759D01*
X146368151Y-94412723D01*
X146368151Y-94360272D01*
X146371576Y-94334245D01*
X146385156Y-94283563D01*
X146395203Y-94259310D01*
X146401608Y-94248216D01*
X146421433Y-94213878D01*
X146437416Y-94193049D01*
X146461142Y-94169326D01*
X146474759Y-94153800D01*
X146486710Y-94138226D01*
X146486712Y-94138220D01*
X146487704Y-94136547D01*
X146488613Y-94135745D01*
X146490390Y-94133431D01*
X146490845Y-94133780D01*
X146534362Y-94095453D01*
X146574270Y-94087199D01*
X146598965Y-94087199D01*
X146598968Y-94087199D01*
X146609303Y-94086860D01*
X146609305Y-94086859D01*
X146610947Y-94086806D01*
X146610947Y-94086833D01*
X146615052Y-94086699D01*
X146720850Y-94086699D01*
X146721900Y-94086733D01*
G37*
%TD.AperFunction*%
%TA.AperFunction,Conductor*%
G36*
X151812412Y-93836127D02*
G01*
X151863078Y-93849703D01*
X151887339Y-93859751D01*
X151932762Y-93885976D01*
X151953595Y-93901962D01*
X151959800Y-93908167D01*
X151998541Y-93936573D01*
X151998544Y-93936574D01*
X151998553Y-93936581D01*
X152000927Y-93938058D01*
X152001508Y-93938748D01*
X152001639Y-93938844D01*
X152001615Y-93938875D01*
X152040989Y-93985604D01*
X152048009Y-94014711D01*
X152052394Y-94064827D01*
X152052395Y-94064834D01*
X152056523Y-94080238D01*
X152059951Y-94106275D01*
X152059951Y-94158720D01*
X152056523Y-94184759D01*
X152042946Y-94235425D01*
X152032896Y-94259686D01*
X152006670Y-94305111D01*
X151990683Y-94325946D01*
X151953598Y-94363031D01*
X151932763Y-94379018D01*
X151887338Y-94405244D01*
X151863078Y-94415293D01*
X151812413Y-94428870D01*
X151786373Y-94432299D01*
X151733930Y-94432299D01*
X151707894Y-94428871D01*
X151680200Y-94421450D01*
X151657224Y-94415294D01*
X151632964Y-94405245D01*
X151587540Y-94379020D01*
X151566705Y-94363033D01*
X151529619Y-94325948D01*
X151513631Y-94305112D01*
X151487403Y-94259684D01*
X151477353Y-94235420D01*
X151463779Y-94184759D01*
X151460351Y-94158723D01*
X151460351Y-94106275D01*
X151463779Y-94080237D01*
X151464153Y-94078841D01*
X151467908Y-94064829D01*
X151473138Y-94030849D01*
X151473754Y-94016746D01*
X151478258Y-94004697D01*
X151478018Y-93991837D01*
X151488430Y-93977487D01*
X151495525Y-93958509D01*
X151513617Y-93940863D01*
X151516056Y-93939019D01*
X151516290Y-93938911D01*
X151561212Y-93907456D01*
X151571638Y-93897029D01*
X151577199Y-93892828D01*
X151579764Y-93891941D01*
X151587533Y-93885978D01*
X151632965Y-93859748D01*
X151657211Y-93849705D01*
X151707896Y-93836125D01*
X151733926Y-93832699D01*
X151786375Y-93832699D01*
X151812412Y-93836127D01*
G37*
%TD.AperFunction*%
%TA.AperFunction,Conductor*%
G36*
X149602610Y-88756326D02*
G01*
X149653274Y-88769901D01*
X149677536Y-88779951D01*
X149722964Y-88806179D01*
X149743800Y-88822167D01*
X149780885Y-88859253D01*
X149796871Y-88880087D01*
X149823096Y-88925510D01*
X149833146Y-88949771D01*
X149846722Y-89000436D01*
X149846723Y-89000437D01*
X149850150Y-89026472D01*
X149850151Y-89026476D01*
X149850151Y-89078920D01*
X149846723Y-89104959D01*
X149833146Y-89155625D01*
X149823096Y-89179886D01*
X149796870Y-89225311D01*
X149780883Y-89246146D01*
X149743798Y-89283231D01*
X149722963Y-89299218D01*
X149677538Y-89325444D01*
X149653278Y-89335493D01*
X149602613Y-89349070D01*
X149576573Y-89352499D01*
X149524130Y-89352499D01*
X149498094Y-89349071D01*
X149470400Y-89341650D01*
X149447424Y-89335494D01*
X149423164Y-89325445D01*
X149377740Y-89299220D01*
X149356905Y-89283233D01*
X149319819Y-89246148D01*
X149303831Y-89225312D01*
X149277603Y-89179884D01*
X149267553Y-89155620D01*
X149253979Y-89104959D01*
X149250551Y-89078923D01*
X149250551Y-89026472D01*
X149253976Y-89000445D01*
X149267556Y-88949763D01*
X149277603Y-88925510D01*
X149303835Y-88880075D01*
X149319815Y-88859250D01*
X149356902Y-88822163D01*
X149377733Y-88806180D01*
X149423159Y-88779953D01*
X149447424Y-88769902D01*
X149498095Y-88756326D01*
X149524130Y-88752899D01*
X149576576Y-88752899D01*
X149602610Y-88756326D01*
G37*
%TD.AperFunction*%
%TA.AperFunction,Conductor*%
G36*
X133727609Y-85022326D02*
G01*
X133778273Y-85035901D01*
X133802535Y-85045951D01*
X133847963Y-85072179D01*
X133868799Y-85088167D01*
X133905884Y-85125253D01*
X133921870Y-85146087D01*
X133948095Y-85191510D01*
X133958145Y-85215771D01*
X133959209Y-85219741D01*
X133971721Y-85266436D01*
X133971722Y-85266437D01*
X133975149Y-85292472D01*
X133975150Y-85292476D01*
X133975150Y-85344920D01*
X133971722Y-85370959D01*
X133958145Y-85421625D01*
X133948095Y-85445886D01*
X133921869Y-85491311D01*
X133905882Y-85512146D01*
X133868797Y-85549231D01*
X133847962Y-85565218D01*
X133802537Y-85591444D01*
X133778277Y-85601493D01*
X133727612Y-85615070D01*
X133701572Y-85618499D01*
X133649129Y-85618499D01*
X133623093Y-85615071D01*
X133595399Y-85607650D01*
X133572423Y-85601494D01*
X133548163Y-85591445D01*
X133502739Y-85565220D01*
X133481904Y-85549233D01*
X133444818Y-85512148D01*
X133428830Y-85491312D01*
X133402602Y-85445884D01*
X133392552Y-85421620D01*
X133378978Y-85370959D01*
X133375550Y-85344923D01*
X133375550Y-85292472D01*
X133378975Y-85266445D01*
X133392555Y-85215763D01*
X133402602Y-85191510D01*
X133428834Y-85146075D01*
X133444814Y-85125250D01*
X133481901Y-85088163D01*
X133502732Y-85072180D01*
X133548158Y-85045953D01*
X133572423Y-85035902D01*
X133623094Y-85022326D01*
X133649129Y-85018899D01*
X133701575Y-85018899D01*
X133727609Y-85022326D01*
G37*
%TD.AperFunction*%
%TA.AperFunction,Conductor*%
G36*
X173859609Y-85022326D02*
G01*
X173910273Y-85035901D01*
X173934535Y-85045951D01*
X173979963Y-85072179D01*
X174000799Y-85088167D01*
X174037884Y-85125253D01*
X174053870Y-85146087D01*
X174080095Y-85191510D01*
X174090145Y-85215771D01*
X174091209Y-85219741D01*
X174103721Y-85266436D01*
X174103722Y-85266437D01*
X174107149Y-85292472D01*
X174107150Y-85292476D01*
X174107150Y-85344920D01*
X174103722Y-85370959D01*
X174090145Y-85421625D01*
X174080095Y-85445886D01*
X174053869Y-85491311D01*
X174037882Y-85512146D01*
X174000797Y-85549231D01*
X173979962Y-85565218D01*
X173934537Y-85591444D01*
X173910277Y-85601493D01*
X173859612Y-85615070D01*
X173833572Y-85618499D01*
X173781129Y-85618499D01*
X173755093Y-85615071D01*
X173727399Y-85607650D01*
X173704423Y-85601494D01*
X173680163Y-85591445D01*
X173634739Y-85565220D01*
X173613904Y-85549233D01*
X173576818Y-85512148D01*
X173560830Y-85491312D01*
X173534602Y-85445884D01*
X173524552Y-85421620D01*
X173510978Y-85370959D01*
X173507550Y-85344923D01*
X173507550Y-85292472D01*
X173510975Y-85266445D01*
X173524555Y-85215763D01*
X173534602Y-85191510D01*
X173560834Y-85146075D01*
X173576814Y-85125250D01*
X173613901Y-85088163D01*
X173634732Y-85072180D01*
X173680158Y-85045953D01*
X173704423Y-85035902D01*
X173755094Y-85022326D01*
X173781129Y-85018899D01*
X173833575Y-85018899D01*
X173859609Y-85022326D01*
G37*
%TD.AperFunction*%
%TA.AperFunction,Conductor*%
G36*
X150147740Y-60670001D02*
G01*
X150184285Y-60720301D01*
X150184285Y-60782475D01*
X150147740Y-60832775D01*
X150119696Y-60847064D01*
X149808521Y-60948170D01*
X149808485Y-60948184D01*
X149399659Y-61117525D01*
X149399652Y-61117529D01*
X149005376Y-61318422D01*
X149005360Y-61318431D01*
X148628048Y-61549648D01*
X148270042Y-61809755D01*
X148270038Y-61809758D01*
X147933548Y-62097147D01*
X147620627Y-62410068D01*
X147333238Y-62746558D01*
X147333235Y-62746562D01*
X147073128Y-63104568D01*
X146841911Y-63481880D01*
X146841902Y-63481896D01*
X146641009Y-63876172D01*
X146641005Y-63876179D01*
X146471664Y-64285005D01*
X146471650Y-64285041D01*
X146334914Y-64705872D01*
X146334909Y-64705889D01*
X146231611Y-65136155D01*
X146231605Y-65136186D01*
X146162380Y-65573253D01*
X146162379Y-65573260D01*
X146127660Y-66014407D01*
X146127660Y-66456952D01*
X146162379Y-66898099D01*
X146162380Y-66898106D01*
X146231605Y-67335173D01*
X146231611Y-67335204D01*
X146334909Y-67765470D01*
X146334914Y-67765487D01*
X146471650Y-68186318D01*
X146471664Y-68186354D01*
X146641005Y-68595180D01*
X146641009Y-68595187D01*
X146839407Y-68984567D01*
X146841908Y-68989474D01*
X147051082Y-69330816D01*
X147073128Y-69366791D01*
X147333235Y-69724797D01*
X147333238Y-69724801D01*
X147620627Y-70061291D01*
X147933548Y-70374212D01*
X148144161Y-70554092D01*
X148270042Y-70661604D01*
X148628052Y-70921714D01*
X149005366Y-71152932D01*
X149399659Y-71353834D01*
X149808498Y-71523181D01*
X149808512Y-71523185D01*
X149808521Y-71523189D01*
X150161678Y-71637936D01*
X150229364Y-71659929D01*
X150424251Y-71706717D01*
X150659635Y-71763228D01*
X150659640Y-71763229D01*
X150659661Y-71763234D01*
X151096737Y-71832460D01*
X151537898Y-71867180D01*
X151537908Y-71867180D01*
X151980412Y-71867180D01*
X151980422Y-71867180D01*
X152421583Y-71832460D01*
X152858659Y-71763234D01*
X153288956Y-71659929D01*
X153574450Y-71567166D01*
X153709798Y-71523189D01*
X153709801Y-71523187D01*
X153709822Y-71523181D01*
X154118661Y-71353834D01*
X154512954Y-71152932D01*
X154890268Y-70921714D01*
X155248278Y-70661604D01*
X155584776Y-70374208D01*
X155897688Y-70061296D01*
X156185084Y-69724798D01*
X156445194Y-69366788D01*
X156676412Y-68989474D01*
X156877314Y-68595181D01*
X157046661Y-68186342D01*
X157183409Y-67765476D01*
X157286714Y-67335179D01*
X157355940Y-66898103D01*
X157390660Y-66456942D01*
X157390660Y-66014418D01*
X157355940Y-65573257D01*
X157286714Y-65136181D01*
X157260696Y-65027810D01*
X157230197Y-64900771D01*
X157183409Y-64705884D01*
X157075114Y-64372586D01*
X157046669Y-64285041D01*
X157046665Y-64285032D01*
X157046661Y-64285018D01*
X156877314Y-63876179D01*
X156676412Y-63481886D01*
X156445194Y-63104572D01*
X156185084Y-62746562D01*
X156164068Y-62721955D01*
X155897692Y-62410068D01*
X155657463Y-62169839D01*
X159176450Y-62169839D01*
X159176450Y-62290358D01*
X159207643Y-62406767D01*
X159267897Y-62511130D01*
X159267899Y-62511133D01*
X159353116Y-62596350D01*
X159353118Y-62596351D01*
X159457481Y-62656605D01*
X159457485Y-62656607D01*
X159573893Y-62687799D01*
X159694407Y-62687799D01*
X159810815Y-62656607D01*
X159915184Y-62596350D01*
X160000401Y-62511133D01*
X160060658Y-62406764D01*
X160091850Y-62290356D01*
X160091850Y-62169842D01*
X160091849Y-62169839D01*
X160395650Y-62169839D01*
X160395650Y-62290358D01*
X160426843Y-62406767D01*
X160487097Y-62511130D01*
X160487099Y-62511133D01*
X160572316Y-62596350D01*
X160572318Y-62596351D01*
X160676681Y-62656605D01*
X160676685Y-62656607D01*
X160793093Y-62687799D01*
X160913607Y-62687799D01*
X161030015Y-62656607D01*
X161134384Y-62596350D01*
X161219601Y-62511133D01*
X161279858Y-62406764D01*
X161311050Y-62290356D01*
X161311050Y-62169842D01*
X161279858Y-62053434D01*
X161219601Y-61949065D01*
X161134384Y-61863848D01*
X161086841Y-61836399D01*
X161030018Y-61803592D01*
X161030015Y-61803591D01*
X160998828Y-61795234D01*
X160913609Y-61772399D01*
X160913607Y-61772399D01*
X160793093Y-61772399D01*
X160793090Y-61772399D01*
X160676681Y-61803592D01*
X160572318Y-61863846D01*
X160572317Y-61863847D01*
X160572316Y-61863848D01*
X160487099Y-61949065D01*
X160487098Y-61949066D01*
X160487097Y-61949067D01*
X160426843Y-62053430D01*
X160395650Y-62169839D01*
X160091849Y-62169839D01*
X160060658Y-62053434D01*
X160000401Y-61949065D01*
X159915184Y-61863848D01*
X159867641Y-61836399D01*
X159810818Y-61803592D01*
X159810815Y-61803591D01*
X159779628Y-61795234D01*
X159694409Y-61772399D01*
X159694407Y-61772399D01*
X159573893Y-61772399D01*
X159573890Y-61772399D01*
X159457481Y-61803592D01*
X159353118Y-61863846D01*
X159353117Y-61863847D01*
X159353116Y-61863848D01*
X159267899Y-61949065D01*
X159267898Y-61949066D01*
X159267897Y-61949067D01*
X159207643Y-62053430D01*
X159176450Y-62169839D01*
X155657463Y-62169839D01*
X155584771Y-62097147D01*
X155248281Y-61809758D01*
X155248277Y-61809755D01*
X154890271Y-61549648D01*
X154796617Y-61492257D01*
X154512954Y-61318428D01*
X154512950Y-61318426D01*
X154512943Y-61318422D01*
X154118667Y-61117529D01*
X154118660Y-61117525D01*
X153709834Y-60948184D01*
X153709835Y-60948184D01*
X153709822Y-60948179D01*
X153709816Y-60948177D01*
X153709798Y-60948170D01*
X153398624Y-60847064D01*
X153348324Y-60810519D01*
X153329111Y-60751388D01*
X153348324Y-60692257D01*
X153398624Y-60655712D01*
X153429711Y-60650788D01*
X157024469Y-60650788D01*
X157083600Y-60670001D01*
X157095604Y-60680253D01*
X157199157Y-60783806D01*
X157199159Y-60783807D01*
X157276011Y-60828178D01*
X157276013Y-60828178D01*
X157276014Y-60828179D01*
X157298978Y-60834331D01*
X157298982Y-60834334D01*
X157298983Y-60834333D01*
X157312245Y-60837886D01*
X157361738Y-60851149D01*
X167253700Y-60851149D01*
X167312831Y-60870362D01*
X167349376Y-60920662D01*
X167354300Y-60951749D01*
X167354300Y-64638599D01*
X167335087Y-64697730D01*
X167284787Y-64734275D01*
X167253700Y-64739199D01*
X166648900Y-64739199D01*
X166589769Y-64719986D01*
X166553224Y-64669686D01*
X166548300Y-64638599D01*
X166548300Y-63979831D01*
X166548299Y-63979828D01*
X166520570Y-63876343D01*
X166520475Y-63876179D01*
X166467002Y-63783560D01*
X166467001Y-63783558D01*
X166435710Y-63752267D01*
X166391242Y-63707798D01*
X166391242Y-63707799D01*
X165730843Y-63047399D01*
X165730840Y-63047397D01*
X165638061Y-62993831D01*
X165638058Y-62993830D01*
X165610332Y-62986400D01*
X165534572Y-62966100D01*
X165534570Y-62966100D01*
X165534569Y-62966100D01*
X165255368Y-62966100D01*
X165148228Y-62966100D01*
X165142383Y-62966100D01*
X165140875Y-62966199D01*
X162739963Y-62966199D01*
X162680832Y-62946986D01*
X162668828Y-62936734D01*
X162483515Y-62751420D01*
X162455289Y-62696022D01*
X162454050Y-62680285D01*
X162454050Y-62467681D01*
X162467529Y-62417379D01*
X162471750Y-62410068D01*
X162473658Y-62406764D01*
X162504850Y-62290356D01*
X162504850Y-62169842D01*
X162473658Y-62053434D01*
X162413401Y-61949065D01*
X162328184Y-61863848D01*
X162280641Y-61836399D01*
X162223818Y-61803592D01*
X162223815Y-61803591D01*
X162192628Y-61795234D01*
X162107409Y-61772399D01*
X162107407Y-61772399D01*
X161986893Y-61772399D01*
X161986890Y-61772399D01*
X161870481Y-61803592D01*
X161766118Y-61863846D01*
X161766117Y-61863847D01*
X161766116Y-61863848D01*
X161680899Y-61949065D01*
X161680898Y-61949066D01*
X161680897Y-61949067D01*
X161620643Y-62053430D01*
X161589450Y-62169839D01*
X161589450Y-62290358D01*
X161620642Y-62406765D01*
X161626771Y-62417379D01*
X161640250Y-62467681D01*
X161640250Y-62944071D01*
X161667981Y-63047560D01*
X161721549Y-63140342D01*
X162204149Y-63622941D01*
X162204148Y-63622941D01*
X162279904Y-63698696D01*
X162279908Y-63698700D01*
X162279910Y-63698701D01*
X162372689Y-63752267D01*
X162372693Y-63752269D01*
X162476181Y-63779999D01*
X165261114Y-63779999D01*
X165262622Y-63779900D01*
X165270786Y-63779900D01*
X165329917Y-63799113D01*
X165341921Y-63809365D01*
X165705035Y-64172478D01*
X165733261Y-64227876D01*
X165734500Y-64243613D01*
X165734500Y-64907636D01*
X165732972Y-64925104D01*
X165724650Y-64972301D01*
X165724650Y-76886888D01*
X165725251Y-76900677D01*
X165726391Y-76913711D01*
X165726392Y-76913716D01*
X165746944Y-76978905D01*
X165753137Y-76989630D01*
X165766064Y-77050445D01*
X165752796Y-77085955D01*
X165754812Y-77087004D01*
X165751765Y-77092857D01*
X165734173Y-77141190D01*
X165734172Y-77141193D01*
X165724650Y-77195201D01*
X165724650Y-83231399D01*
X165705437Y-83290530D01*
X165655137Y-83327075D01*
X165624050Y-83331999D01*
X164272720Y-83331999D01*
X164235189Y-83336524D01*
X164235185Y-83336524D01*
X164235184Y-83336525D01*
X164200479Y-83345017D01*
X164200465Y-83345021D01*
X164190517Y-83347803D01*
X164190516Y-83347803D01*
X164190514Y-83347804D01*
X164121582Y-83391718D01*
X164121579Y-83391720D01*
X164086834Y-83429637D01*
X164086826Y-83429648D01*
X164057362Y-83475896D01*
X163965892Y-83696725D01*
X163960072Y-83708527D01*
X163842462Y-83912233D01*
X163835151Y-83923174D01*
X163691959Y-84109785D01*
X163683283Y-84119678D01*
X163539282Y-84263681D01*
X163539277Y-84263687D01*
X163516943Y-84286018D01*
X163507061Y-84294684D01*
X163493966Y-84304733D01*
X163489487Y-84308171D01*
X163320439Y-84437884D01*
X163309505Y-84445191D01*
X163293850Y-84454230D01*
X163293848Y-84454231D01*
X163105798Y-84562801D01*
X163093996Y-84568621D01*
X162876677Y-84658637D01*
X162864216Y-84662867D01*
X162637003Y-84723748D01*
X162624098Y-84726315D01*
X162430488Y-84751805D01*
X162390894Y-84757018D01*
X162377765Y-84757879D01*
X162142538Y-84757879D01*
X162129407Y-84757018D01*
X161896201Y-84726315D01*
X161883295Y-84723748D01*
X161656082Y-84662867D01*
X161643621Y-84658637D01*
X161426302Y-84568621D01*
X161414500Y-84562801D01*
X161226451Y-84454231D01*
X161210789Y-84445188D01*
X161199854Y-84437882D01*
X161013234Y-84294683D01*
X161003347Y-84286012D01*
X160837017Y-84119682D01*
X160828347Y-84109796D01*
X160685139Y-83923164D01*
X160677837Y-83912235D01*
X160560228Y-83708532D01*
X160554408Y-83696730D01*
X160541917Y-83666575D01*
X160462937Y-83475896D01*
X160444394Y-83442954D01*
X160434638Y-83429648D01*
X160423256Y-83414124D01*
X160416876Y-83405996D01*
X160349920Y-83359113D01*
X160301588Y-83341522D01*
X160301585Y-83341521D01*
X160279981Y-83337712D01*
X160247580Y-83331999D01*
X159742250Y-83331999D01*
X159683119Y-83312786D01*
X159646574Y-83262486D01*
X159641650Y-83231399D01*
X159641650Y-81417728D01*
X159641651Y-81417725D01*
X159641650Y-81362874D01*
X159641650Y-81312654D01*
X159641650Y-81306293D01*
X159641619Y-81305846D01*
X159641619Y-81239556D01*
X159609425Y-80995031D01*
X159561911Y-80817711D01*
X159545590Y-80756802D01*
X159451205Y-80528939D01*
X159327893Y-80315354D01*
X159327891Y-80315351D01*
X159327888Y-80315346D01*
X159177747Y-80119676D01*
X159003351Y-79945277D01*
X159003322Y-79945255D01*
X158807681Y-79795130D01*
X158594095Y-79671811D01*
X158366234Y-79577422D01*
X158366235Y-79577422D01*
X158128011Y-79513584D01*
X158128007Y-79513583D01*
X157883473Y-79481382D01*
X157883485Y-79481382D01*
X157814541Y-79481380D01*
X157814541Y-79481379D01*
X157810375Y-79481379D01*
X157760164Y-79481379D01*
X157760155Y-79481378D01*
X157705311Y-79481377D01*
X157705310Y-79481377D01*
X157698317Y-79481377D01*
X157698289Y-79481379D01*
X145822001Y-79481379D01*
X145814993Y-79481378D01*
X145814989Y-79481377D01*
X145805363Y-79481377D01*
X145801823Y-79481377D01*
X145801736Y-79481349D01*
X145760137Y-79481350D01*
X145759041Y-79481350D01*
X145636818Y-79481353D01*
X145392287Y-79513554D01*
X145392283Y-79513555D01*
X145154056Y-79577394D01*
X145154049Y-79577396D01*
X144926194Y-79671783D01*
X144712602Y-79795106D01*
X144516930Y-79945254D01*
X144342531Y-80119656D01*
X144192385Y-80315333D01*
X144069068Y-80528926D01*
X143974681Y-80756795D01*
X143910847Y-80995021D01*
X143910846Y-80995027D01*
X143878651Y-81239553D01*
X143878650Y-81305833D01*
X143878650Y-81312650D01*
X143878650Y-81312654D01*
X143878650Y-81354378D01*
X143878650Y-81362874D01*
X143878649Y-81417725D01*
X143878650Y-81417728D01*
X143878650Y-83231399D01*
X143859437Y-83290530D01*
X143809137Y-83327075D01*
X143778050Y-83331999D01*
X143272720Y-83331999D01*
X143235189Y-83336524D01*
X143235185Y-83336524D01*
X143235184Y-83336525D01*
X143200479Y-83345017D01*
X143200465Y-83345021D01*
X143190517Y-83347803D01*
X143190516Y-83347803D01*
X143190514Y-83347804D01*
X143121582Y-83391718D01*
X143121579Y-83391720D01*
X143086834Y-83429637D01*
X143086826Y-83429648D01*
X143057362Y-83475896D01*
X142965892Y-83696725D01*
X142960072Y-83708527D01*
X142842462Y-83912233D01*
X142835151Y-83923175D01*
X142691958Y-84109787D01*
X142683282Y-84119680D01*
X142516951Y-84286011D01*
X142507058Y-84294687D01*
X142489484Y-84308172D01*
X142320449Y-84437878D01*
X142320446Y-84437880D01*
X142309504Y-84445191D01*
X142105798Y-84562801D01*
X142093996Y-84568621D01*
X141876677Y-84658637D01*
X141864216Y-84662867D01*
X141637003Y-84723748D01*
X141624098Y-84726315D01*
X141430488Y-84751805D01*
X141390894Y-84757018D01*
X141377765Y-84757879D01*
X141142538Y-84757879D01*
X141129407Y-84757018D01*
X140896201Y-84726315D01*
X140883295Y-84723748D01*
X140656082Y-84662867D01*
X140643621Y-84658637D01*
X140426302Y-84568621D01*
X140414500Y-84562801D01*
X140226451Y-84454231D01*
X140210789Y-84445188D01*
X140199854Y-84437882D01*
X140013234Y-84294683D01*
X140003347Y-84286012D01*
X139837017Y-84119682D01*
X139828347Y-84109796D01*
X139685139Y-83923164D01*
X139677837Y-83912235D01*
X139560228Y-83708532D01*
X139554408Y-83696730D01*
X139541917Y-83666575D01*
X139462937Y-83475896D01*
X139444394Y-83442954D01*
X139434638Y-83429648D01*
X139423256Y-83414124D01*
X139416876Y-83405996D01*
X139349920Y-83359113D01*
X139301588Y-83341522D01*
X139301585Y-83341521D01*
X139279981Y-83337712D01*
X139247580Y-83331999D01*
X139247577Y-83331999D01*
X138099450Y-83331999D01*
X138040319Y-83312786D01*
X138003774Y-83262486D01*
X137998850Y-83231399D01*
X137998850Y-75746933D01*
X137998263Y-75733351D01*
X137998263Y-75733344D01*
X137997147Y-75720434D01*
X137976737Y-75655357D01*
X137970244Y-75644059D01*
X137957439Y-75583221D01*
X137970713Y-75547889D01*
X137968689Y-75546836D01*
X137971734Y-75540985D01*
X137971733Y-75540985D01*
X137971735Y-75540984D01*
X137989328Y-75492646D01*
X137998850Y-75438643D01*
X137998850Y-67713718D01*
X138018063Y-67654587D01*
X138068363Y-67618042D01*
X138096577Y-67613159D01*
X138661409Y-67597022D01*
X138663268Y-67596900D01*
X138672895Y-67596274D01*
X138683805Y-67595163D01*
X138683813Y-67595160D01*
X138683815Y-67595160D01*
X138746751Y-67574823D01*
X138746751Y-67574822D01*
X138746757Y-67574821D01*
X138791306Y-67549101D01*
X138813854Y-67533312D01*
X138860735Y-67466358D01*
X138878328Y-67418020D01*
X138887850Y-67364017D01*
X138887850Y-63575438D01*
X138887236Y-63561528D01*
X138886069Y-63548332D01*
X138865382Y-63483039D01*
X138839580Y-63438539D01*
X138823752Y-63416023D01*
X138797274Y-63397555D01*
X138756710Y-63369263D01*
X138708347Y-63351762D01*
X138708344Y-63351761D01*
X138708343Y-63351761D01*
X138673284Y-63345646D01*
X138654320Y-63342338D01*
X138654319Y-63342338D01*
X138648931Y-63342348D01*
X136873987Y-63345646D01*
X136814820Y-63326543D01*
X136778182Y-63276311D01*
X136773200Y-63245046D01*
X136773200Y-62233839D01*
X137586450Y-62233839D01*
X137586450Y-62354358D01*
X137617643Y-62470767D01*
X137677897Y-62575130D01*
X137677899Y-62575133D01*
X137763116Y-62660350D01*
X137797645Y-62680285D01*
X137867481Y-62720605D01*
X137867485Y-62720607D01*
X137983893Y-62751799D01*
X138104407Y-62751799D01*
X138220815Y-62720607D01*
X138325184Y-62660350D01*
X138410401Y-62575133D01*
X138470658Y-62470764D01*
X138501850Y-62354356D01*
X138501850Y-62233842D01*
X138470658Y-62117434D01*
X138458945Y-62097147D01*
X138410402Y-62013067D01*
X138410401Y-62013065D01*
X138325184Y-61927848D01*
X138306859Y-61917268D01*
X138220818Y-61867592D01*
X138220815Y-61867591D01*
X138189628Y-61859234D01*
X138104409Y-61836399D01*
X138104407Y-61836399D01*
X137983893Y-61836399D01*
X137983890Y-61836399D01*
X137867481Y-61867592D01*
X137763118Y-61927846D01*
X137763117Y-61927847D01*
X137763116Y-61927848D01*
X137677899Y-62013065D01*
X137677898Y-62013066D01*
X137677897Y-62013067D01*
X137617643Y-62117430D01*
X137586450Y-62233839D01*
X136773200Y-62233839D01*
X136773200Y-61551388D01*
X136792413Y-61492257D01*
X136842713Y-61455712D01*
X136873800Y-61450788D01*
X146430124Y-61450788D01*
X146515846Y-61427818D01*
X146592704Y-61383445D01*
X147295896Y-60680253D01*
X147351294Y-60652027D01*
X147367031Y-60650788D01*
X150088609Y-60650788D01*
X150147740Y-60670001D01*
G37*
%TD.AperFunction*%
%TA.AperFunction,Conductor*%
G36*
X129765209Y-80348726D02*
G01*
X129815873Y-80362301D01*
X129840135Y-80372351D01*
X129885563Y-80398579D01*
X129906399Y-80414567D01*
X129943484Y-80451653D01*
X129959470Y-80472487D01*
X129985695Y-80517910D01*
X129995745Y-80542171D01*
X130009321Y-80592836D01*
X130009322Y-80592837D01*
X130012750Y-80618876D01*
X130012750Y-80671320D01*
X130009322Y-80697359D01*
X129995745Y-80748025D01*
X129985695Y-80772286D01*
X129959469Y-80817711D01*
X129943482Y-80838546D01*
X129906397Y-80875631D01*
X129885562Y-80891618D01*
X129840137Y-80917844D01*
X129815877Y-80927893D01*
X129765212Y-80941470D01*
X129739172Y-80944899D01*
X129686729Y-80944899D01*
X129660693Y-80941471D01*
X129632999Y-80934050D01*
X129610023Y-80927894D01*
X129585763Y-80917845D01*
X129540339Y-80891620D01*
X129519504Y-80875633D01*
X129482418Y-80838548D01*
X129466430Y-80817712D01*
X129440202Y-80772284D01*
X129430152Y-80748020D01*
X129416578Y-80697359D01*
X129413150Y-80671323D01*
X129413150Y-80618872D01*
X129416575Y-80592845D01*
X129430155Y-80542163D01*
X129440202Y-80517910D01*
X129466434Y-80472475D01*
X129482414Y-80451650D01*
X129519501Y-80414563D01*
X129540332Y-80398580D01*
X129585758Y-80372353D01*
X129610023Y-80362302D01*
X129660694Y-80348726D01*
X129686729Y-80345299D01*
X129739175Y-80345299D01*
X129765209Y-80348726D01*
G37*
%TD.AperFunction*%
%TA.AperFunction,Conductor*%
G36*
X169897209Y-80348726D02*
G01*
X169947873Y-80362301D01*
X169972135Y-80372351D01*
X170017563Y-80398579D01*
X170038399Y-80414567D01*
X170075484Y-80451653D01*
X170091470Y-80472487D01*
X170117695Y-80517910D01*
X170127745Y-80542171D01*
X170141321Y-80592836D01*
X170141322Y-80592837D01*
X170144749Y-80618872D01*
X170144750Y-80618876D01*
X170144750Y-80671320D01*
X170141322Y-80697359D01*
X170127745Y-80748025D01*
X170117695Y-80772286D01*
X170091469Y-80817711D01*
X170075482Y-80838546D01*
X170038397Y-80875631D01*
X170017562Y-80891618D01*
X169972137Y-80917844D01*
X169947877Y-80927893D01*
X169897212Y-80941470D01*
X169871172Y-80944899D01*
X169818729Y-80944899D01*
X169792693Y-80941471D01*
X169764999Y-80934050D01*
X169742023Y-80927894D01*
X169717763Y-80917845D01*
X169672339Y-80891620D01*
X169651504Y-80875633D01*
X169614418Y-80838548D01*
X169598430Y-80817712D01*
X169572202Y-80772284D01*
X169562152Y-80748020D01*
X169548578Y-80697359D01*
X169545150Y-80671323D01*
X169545150Y-80618872D01*
X169548575Y-80592845D01*
X169562155Y-80542163D01*
X169572202Y-80517910D01*
X169598434Y-80472475D01*
X169614414Y-80451650D01*
X169651501Y-80414563D01*
X169672332Y-80398580D01*
X169717758Y-80372353D01*
X169742023Y-80362302D01*
X169792694Y-80348726D01*
X169818729Y-80345299D01*
X169871175Y-80345299D01*
X169897209Y-80348726D01*
G37*
%TD.AperFunction*%
%TA.AperFunction,Conductor*%
G36*
X173859609Y-73592326D02*
G01*
X173910273Y-73605901D01*
X173934535Y-73615951D01*
X173979963Y-73642179D01*
X174000799Y-73658167D01*
X174037884Y-73695253D01*
X174053870Y-73716087D01*
X174080095Y-73761510D01*
X174090145Y-73785771D01*
X174103721Y-73836436D01*
X174103722Y-73836437D01*
X174107149Y-73862472D01*
X174107150Y-73862476D01*
X174107150Y-73914920D01*
X174103722Y-73940959D01*
X174090145Y-73991625D01*
X174080095Y-74015886D01*
X174053869Y-74061311D01*
X174037882Y-74082146D01*
X174000797Y-74119231D01*
X173979962Y-74135218D01*
X173934537Y-74161444D01*
X173910277Y-74171493D01*
X173859612Y-74185070D01*
X173833572Y-74188499D01*
X173781129Y-74188499D01*
X173755093Y-74185071D01*
X173727399Y-74177650D01*
X173704423Y-74171494D01*
X173680163Y-74161445D01*
X173636168Y-74136045D01*
X173634736Y-74135218D01*
X173613904Y-74119233D01*
X173576818Y-74082148D01*
X173560830Y-74061312D01*
X173534602Y-74015884D01*
X173524552Y-73991620D01*
X173510978Y-73940959D01*
X173507550Y-73914923D01*
X173507550Y-73862472D01*
X173510975Y-73836445D01*
X173524555Y-73785763D01*
X173534602Y-73761510D01*
X173560834Y-73716075D01*
X173576814Y-73695250D01*
X173613901Y-73658163D01*
X173634732Y-73642180D01*
X173680158Y-73615953D01*
X173704423Y-73605902D01*
X173755094Y-73592326D01*
X173781129Y-73588899D01*
X173833575Y-73588899D01*
X173859609Y-73592326D01*
G37*
%TD.AperFunction*%
%TA.AperFunction,Conductor*%
G36*
X133702209Y-73566926D02*
G01*
X133752873Y-73580501D01*
X133777135Y-73590551D01*
X133822563Y-73616779D01*
X133843399Y-73632767D01*
X133880484Y-73669853D01*
X133896470Y-73690687D01*
X133922695Y-73736110D01*
X133932745Y-73760371D01*
X133946321Y-73811036D01*
X133946322Y-73811037D01*
X133949750Y-73837076D01*
X133949750Y-73889520D01*
X133946322Y-73915559D01*
X133932745Y-73966225D01*
X133922695Y-73990486D01*
X133896469Y-74035911D01*
X133880482Y-74056746D01*
X133843397Y-74093831D01*
X133822562Y-74109818D01*
X133777137Y-74136044D01*
X133752877Y-74146093D01*
X133702212Y-74159670D01*
X133676172Y-74163099D01*
X133623729Y-74163099D01*
X133597693Y-74159671D01*
X133569999Y-74152250D01*
X133547023Y-74146094D01*
X133522763Y-74136045D01*
X133477339Y-74109820D01*
X133456504Y-74093833D01*
X133419418Y-74056748D01*
X133403430Y-74035912D01*
X133377202Y-73990484D01*
X133367152Y-73966220D01*
X133353578Y-73915559D01*
X133350150Y-73889523D01*
X133350150Y-73837072D01*
X133353575Y-73811045D01*
X133367155Y-73760363D01*
X133377202Y-73736110D01*
X133403434Y-73690675D01*
X133419414Y-73669850D01*
X133456501Y-73632763D01*
X133477332Y-73616780D01*
X133478765Y-73615953D01*
X133522758Y-73590553D01*
X133547023Y-73580502D01*
X133597694Y-73566926D01*
X133623729Y-73563499D01*
X133676175Y-73563499D01*
X133702209Y-73566926D01*
G37*
%TD.AperFunction*%
%TA.AperFunction,Conductor*%
G36*
X129739809Y-68918726D02*
G01*
X129790473Y-68932301D01*
X129814735Y-68942351D01*
X129860163Y-68968579D01*
X129880999Y-68984567D01*
X129918084Y-69021653D01*
X129934070Y-69042487D01*
X129960295Y-69087910D01*
X129970345Y-69112171D01*
X129983921Y-69162836D01*
X129983922Y-69162837D01*
X129987349Y-69188872D01*
X129987350Y-69188876D01*
X129987350Y-69241320D01*
X129983922Y-69267359D01*
X129970345Y-69318025D01*
X129960295Y-69342286D01*
X129934069Y-69387711D01*
X129918082Y-69408546D01*
X129880997Y-69445631D01*
X129860162Y-69461618D01*
X129814737Y-69487844D01*
X129790477Y-69497893D01*
X129739812Y-69511470D01*
X129713772Y-69514899D01*
X129661329Y-69514899D01*
X129635293Y-69511471D01*
X129607599Y-69504050D01*
X129584623Y-69497894D01*
X129560363Y-69487845D01*
X129514939Y-69461620D01*
X129494104Y-69445633D01*
X129457018Y-69408548D01*
X129441030Y-69387712D01*
X129414802Y-69342284D01*
X129404752Y-69318020D01*
X129391178Y-69267359D01*
X129387750Y-69241323D01*
X129387750Y-69188872D01*
X129391175Y-69162845D01*
X129404755Y-69112163D01*
X129414802Y-69087910D01*
X129441034Y-69042475D01*
X129457014Y-69021650D01*
X129494101Y-68984563D01*
X129514932Y-68968580D01*
X129560358Y-68942353D01*
X129584623Y-68932302D01*
X129635294Y-68918726D01*
X129661329Y-68915299D01*
X129713775Y-68915299D01*
X129739809Y-68918726D01*
G37*
%TD.AperFunction*%
%TA.AperFunction,Conductor*%
G36*
X169897208Y-68918726D02*
G01*
X169947872Y-68932301D01*
X169972134Y-68942351D01*
X170017562Y-68968579D01*
X170038398Y-68984567D01*
X170075483Y-69021653D01*
X170091469Y-69042487D01*
X170117694Y-69087910D01*
X170127744Y-69112171D01*
X170141320Y-69162836D01*
X170141321Y-69162837D01*
X170144748Y-69188872D01*
X170144749Y-69188876D01*
X170144749Y-69241320D01*
X170141321Y-69267359D01*
X170127744Y-69318025D01*
X170117694Y-69342286D01*
X170091468Y-69387711D01*
X170075481Y-69408546D01*
X170038396Y-69445631D01*
X170017561Y-69461618D01*
X169972136Y-69487844D01*
X169947876Y-69497893D01*
X169897211Y-69511470D01*
X169871171Y-69514899D01*
X169818728Y-69514899D01*
X169792692Y-69511471D01*
X169764998Y-69504050D01*
X169742022Y-69497894D01*
X169717762Y-69487845D01*
X169672338Y-69461620D01*
X169651503Y-69445633D01*
X169614417Y-69408548D01*
X169598429Y-69387712D01*
X169572201Y-69342284D01*
X169562151Y-69318020D01*
X169548577Y-69267359D01*
X169545149Y-69241323D01*
X169545149Y-69188872D01*
X169548574Y-69162845D01*
X169562154Y-69112163D01*
X169572201Y-69087910D01*
X169598433Y-69042475D01*
X169614413Y-69021650D01*
X169651500Y-68984563D01*
X169672331Y-68968580D01*
X169717757Y-68942353D01*
X169742022Y-68932302D01*
X169792693Y-68918726D01*
X169818728Y-68915299D01*
X169871174Y-68915299D01*
X169897208Y-68918726D01*
G37*
%TD.AperFunction*%
%TA.AperFunction,Conductor*%
G36*
X191765601Y-46112131D02*
G01*
X191886373Y-46125738D01*
X191908320Y-46130748D01*
X192017659Y-46169007D01*
X192037952Y-46178780D01*
X192071179Y-46199658D01*
X192136030Y-46240406D01*
X192153643Y-46254452D01*
X192235547Y-46336356D01*
X192249593Y-46353969D01*
X192311218Y-46452045D01*
X192320992Y-46472341D01*
X192359250Y-46581675D01*
X192364262Y-46603637D01*
X192377867Y-46724381D01*
X192378500Y-46735645D01*
X192378500Y-52991545D01*
X192359287Y-53050676D01*
X192308987Y-53087221D01*
X192251863Y-53088717D01*
X192215929Y-53079088D01*
X192215924Y-53079088D01*
X192215923Y-53079088D01*
X181327200Y-53079088D01*
X181268069Y-53059875D01*
X181231524Y-53009575D01*
X181226600Y-52978488D01*
X181226600Y-47272196D01*
X181226599Y-47272190D01*
X181221762Y-47254140D01*
X181225014Y-47192051D01*
X181264140Y-47143731D01*
X181318933Y-47127500D01*
X186294223Y-47127500D01*
X186294225Y-47127500D01*
X186391254Y-47101501D01*
X186478247Y-47051276D01*
X186549276Y-46980247D01*
X187388558Y-46140965D01*
X187443956Y-46112739D01*
X187459693Y-46111500D01*
X191705149Y-46111500D01*
X191754354Y-46111500D01*
X191765601Y-46112131D01*
G37*
%TD.AperFunction*%
%TA.AperFunction,Conductor*%
G36*
X116119438Y-46130713D02*
G01*
X116131442Y-46140965D01*
X116970724Y-46980247D01*
X116970723Y-46980247D01*
X117041749Y-47051272D01*
X117041753Y-47051276D01*
X117128746Y-47101501D01*
X117128749Y-47101501D01*
X117128752Y-47101503D01*
X117225770Y-47127499D01*
X117225772Y-47127499D01*
X117225775Y-47127500D01*
X122208366Y-47127500D01*
X122267497Y-47146713D01*
X122304042Y-47197013D01*
X122305538Y-47254138D01*
X122299700Y-47275923D01*
X122299700Y-52978488D01*
X122280487Y-53037619D01*
X122230187Y-53074164D01*
X122199100Y-53079088D01*
X111296013Y-53079088D01*
X111268138Y-53086558D01*
X111206049Y-53083304D01*
X111157730Y-53044177D01*
X111141500Y-52989386D01*
X111141500Y-46735645D01*
X111142131Y-46724399D01*
X111155739Y-46603622D01*
X111160747Y-46581680D01*
X111199009Y-46472336D01*
X111208778Y-46452050D01*
X111270409Y-46353964D01*
X111284448Y-46336360D01*
X111366360Y-46254448D01*
X111383964Y-46240409D01*
X111482050Y-46178778D01*
X111502336Y-46169009D01*
X111611680Y-46130747D01*
X111633624Y-46125739D01*
X111754398Y-46112131D01*
X111765646Y-46111500D01*
X111814851Y-46111500D01*
X116060307Y-46111500D01*
X116119438Y-46130713D01*
G37*
%TD.AperFunction*%
%TD*%
%TA.AperFunction,Conductor*%
%TO.N,3V3_P*%
G36*
X130855950Y-112497699D02*
G01*
X130838357Y-112546037D01*
X130793808Y-112571757D01*
X130780750Y-112572899D01*
X129026150Y-112572899D01*
X128977812Y-112555306D01*
X128952092Y-112510757D01*
X128950950Y-112497699D01*
X128950950Y-109524899D01*
X130855950Y-109524899D01*
X130855950Y-112497699D01*
G37*
%TD.AperFunction*%
%TD*%
%TA.AperFunction,Conductor*%
%TO.N,/Deployment Sensor/DS_3V3*%
G36*
X126842750Y-75491997D02*
G01*
X126842750Y-76886899D01*
X126825157Y-76935237D01*
X126780608Y-76960957D01*
X126767550Y-76962099D01*
X125558000Y-76962099D01*
X125509662Y-76944506D01*
X125483942Y-76899957D01*
X125482800Y-76886899D01*
X125482800Y-75489277D01*
X126842750Y-75491997D01*
G37*
%TD.AperFunction*%
%TD*%
%TA.AperFunction,Conductor*%
%TO.N,3V3_P*%
G36*
X178489888Y-75664392D02*
G01*
X178515608Y-75708941D01*
X178516750Y-75721999D01*
X178516750Y-91542699D01*
X178499157Y-91591037D01*
X178454608Y-91616757D01*
X178441550Y-91617899D01*
X157094149Y-91617899D01*
X157087899Y-91624148D01*
X157076557Y-91655312D01*
X157056550Y-91672099D01*
X157032801Y-91685810D01*
X157032790Y-91685817D01*
X157010245Y-91701604D01*
X156963366Y-91768554D01*
X156945771Y-91816896D01*
X156936250Y-91870894D01*
X156936250Y-93696199D01*
X156918657Y-93744537D01*
X156874108Y-93770257D01*
X156861050Y-93771399D01*
X152277549Y-93771399D01*
X152243390Y-93775139D01*
X152243367Y-93775143D01*
X152211621Y-93782181D01*
X152204901Y-93783825D01*
X152162225Y-93808465D01*
X152111567Y-93817398D01*
X152071452Y-93796515D01*
X152041185Y-93766248D01*
X152003580Y-93744537D01*
X151936817Y-93705991D01*
X151898013Y-93695593D01*
X151820408Y-93674799D01*
X151699894Y-93674799D01*
X151641690Y-93690395D01*
X151583484Y-93705991D01*
X151479118Y-93766247D01*
X151479116Y-93766248D01*
X151449560Y-93795804D01*
X151402939Y-93817543D01*
X151353255Y-93804230D01*
X151345094Y-93798516D01*
X151345093Y-93798515D01*
X151345091Y-93798514D01*
X151327497Y-93792110D01*
X151296752Y-93780920D01*
X151242754Y-93771399D01*
X151242750Y-93771399D01*
X147039585Y-93771399D01*
X147039576Y-93771399D01*
X147018999Y-93772747D01*
X147018987Y-93772748D01*
X147018980Y-93772748D01*
X147018978Y-93772749D01*
X147000822Y-93775139D01*
X146999515Y-93775311D01*
X146999512Y-93775312D01*
X146929553Y-93802516D01*
X146887416Y-93832022D01*
X146866335Y-93849711D01*
X146866334Y-93849713D01*
X146842091Y-93891701D01*
X146824424Y-93906525D01*
X146802688Y-93924764D01*
X146776968Y-93929299D01*
X146736934Y-93929299D01*
X146729311Y-93928799D01*
X146728208Y-93928799D01*
X146607694Y-93928799D01*
X146606591Y-93928799D01*
X146598968Y-93929299D01*
X146560242Y-93929299D01*
X146511904Y-93911706D01*
X146495117Y-93891699D01*
X146481405Y-93867950D01*
X146481398Y-93867939D01*
X146465612Y-93845395D01*
X146465611Y-93845394D01*
X146398660Y-93798515D01*
X146398661Y-93798515D01*
X146350319Y-93780920D01*
X146296321Y-93771399D01*
X146296317Y-93771399D01*
X138170150Y-93771399D01*
X138162909Y-93771714D01*
X138156384Y-93771999D01*
X138144640Y-93773026D01*
X138143335Y-93773141D01*
X138078143Y-93793695D01*
X138078142Y-93793695D01*
X138033594Y-93819414D01*
X138033590Y-93819417D01*
X138011045Y-93835204D01*
X137964166Y-93902154D01*
X137946571Y-93950496D01*
X137937050Y-94004494D01*
X137937050Y-109444199D01*
X137919457Y-109492537D01*
X137874908Y-109518257D01*
X137861850Y-109519399D01*
X132785350Y-109519399D01*
X132778109Y-109519714D01*
X132771584Y-109519999D01*
X132758533Y-109521141D01*
X132757653Y-109521419D01*
X132755369Y-109521770D01*
X132754507Y-109521942D01*
X132754499Y-109521904D01*
X132735042Y-109524899D01*
X125558000Y-109524899D01*
X125509662Y-109507306D01*
X125483942Y-109462757D01*
X125482800Y-109449699D01*
X125482800Y-108747942D01*
X131505650Y-108747942D01*
X131505650Y-108868456D01*
X131526444Y-108946061D01*
X131536842Y-108984865D01*
X131597098Y-109089231D01*
X131597102Y-109089237D01*
X131682311Y-109174446D01*
X131682314Y-109174448D01*
X131682316Y-109174450D01*
X131786685Y-109234707D01*
X131903093Y-109265899D01*
X131903095Y-109265899D01*
X132023605Y-109265899D01*
X132023607Y-109265899D01*
X132140015Y-109234707D01*
X132244384Y-109174450D01*
X132329601Y-109089233D01*
X132373225Y-109013672D01*
X132412630Y-108980608D01*
X132464069Y-108980608D01*
X132503475Y-109013673D01*
X132547098Y-109089231D01*
X132547102Y-109089237D01*
X132632311Y-109174446D01*
X132632314Y-109174448D01*
X132632316Y-109174450D01*
X132736685Y-109234707D01*
X132853093Y-109265899D01*
X132853095Y-109265899D01*
X132973605Y-109265899D01*
X132973607Y-109265899D01*
X133090015Y-109234707D01*
X133194384Y-109174450D01*
X133279601Y-109089233D01*
X133323225Y-109013672D01*
X133362630Y-108980608D01*
X133414069Y-108980608D01*
X133453475Y-109013673D01*
X133497098Y-109089231D01*
X133497102Y-109089237D01*
X133582311Y-109174446D01*
X133582314Y-109174448D01*
X133582316Y-109174450D01*
X133686685Y-109234707D01*
X133803093Y-109265899D01*
X133803095Y-109265899D01*
X133923605Y-109265899D01*
X133923607Y-109265899D01*
X134040015Y-109234707D01*
X134144384Y-109174450D01*
X134229601Y-109089233D01*
X134289858Y-108984864D01*
X134321050Y-108868456D01*
X134321050Y-108747942D01*
X134289858Y-108631534D01*
X134229601Y-108527165D01*
X134229599Y-108527163D01*
X134229597Y-108527160D01*
X134144388Y-108441951D01*
X134144382Y-108441947D01*
X134040016Y-108381691D01*
X134001212Y-108371293D01*
X133923607Y-108350499D01*
X133803093Y-108350499D01*
X133744889Y-108366095D01*
X133686683Y-108381691D01*
X133582317Y-108441947D01*
X133582311Y-108441951D01*
X133497102Y-108527160D01*
X133497098Y-108527166D01*
X133453475Y-108602724D01*
X133414070Y-108635789D01*
X133362630Y-108635789D01*
X133323225Y-108602724D01*
X133307314Y-108575167D01*
X133279601Y-108527165D01*
X133279599Y-108527163D01*
X133279597Y-108527160D01*
X133194388Y-108441951D01*
X133194382Y-108441947D01*
X133090016Y-108381691D01*
X133051212Y-108371293D01*
X132973607Y-108350499D01*
X132853093Y-108350499D01*
X132794889Y-108366095D01*
X132736683Y-108381691D01*
X132632317Y-108441947D01*
X132632311Y-108441951D01*
X132547102Y-108527160D01*
X132547098Y-108527166D01*
X132503475Y-108602724D01*
X132464070Y-108635789D01*
X132412630Y-108635789D01*
X132373225Y-108602724D01*
X132357314Y-108575167D01*
X132329601Y-108527165D01*
X132329599Y-108527163D01*
X132329597Y-108527160D01*
X132244388Y-108441951D01*
X132244382Y-108441947D01*
X132140016Y-108381691D01*
X132101212Y-108371293D01*
X132023607Y-108350499D01*
X131903093Y-108350499D01*
X131844889Y-108366095D01*
X131786683Y-108381691D01*
X131682317Y-108441947D01*
X131682311Y-108441951D01*
X131597102Y-108527160D01*
X131597098Y-108527166D01*
X131536842Y-108631532D01*
X131516047Y-108709139D01*
X131505650Y-108747942D01*
X125482800Y-108747942D01*
X125482800Y-100066642D01*
X131109450Y-100066642D01*
X131109450Y-100187156D01*
X131112951Y-100200221D01*
X131140642Y-100303565D01*
X131166909Y-100349060D01*
X131195535Y-100398643D01*
X131200898Y-100407931D01*
X131200902Y-100407937D01*
X131286111Y-100493146D01*
X131286114Y-100493148D01*
X131286116Y-100493150D01*
X131390485Y-100553407D01*
X131506893Y-100584599D01*
X131506895Y-100584599D01*
X131627405Y-100584599D01*
X131627407Y-100584599D01*
X131743815Y-100553407D01*
X131848184Y-100493150D01*
X131933401Y-100407933D01*
X131993658Y-100303564D01*
X132024850Y-100187156D01*
X132024850Y-100066642D01*
X131993658Y-99950234D01*
X131933401Y-99845865D01*
X131933399Y-99845863D01*
X131933397Y-99845860D01*
X131848188Y-99760651D01*
X131848182Y-99760647D01*
X131743816Y-99700391D01*
X131705012Y-99689993D01*
X131627407Y-99669199D01*
X131506893Y-99669199D01*
X131448689Y-99684795D01*
X131390483Y-99700391D01*
X131286117Y-99760647D01*
X131286111Y-99760651D01*
X131200902Y-99845860D01*
X131200898Y-99845866D01*
X131140642Y-99950232D01*
X131138093Y-99959746D01*
X131109450Y-100066642D01*
X125482800Y-100066642D01*
X125482800Y-99533242D01*
X133749651Y-99533242D01*
X133749651Y-99653756D01*
X133753789Y-99669199D01*
X133780843Y-99770165D01*
X133841099Y-99874531D01*
X133841103Y-99874537D01*
X133926312Y-99959746D01*
X133926315Y-99959748D01*
X133926317Y-99959750D01*
X134030686Y-100020007D01*
X134147094Y-100051199D01*
X134147096Y-100051199D01*
X134267606Y-100051199D01*
X134267608Y-100051199D01*
X134384016Y-100020007D01*
X134488385Y-99959750D01*
X134573602Y-99874533D01*
X134633859Y-99770164D01*
X134665051Y-99653756D01*
X134665051Y-99533242D01*
X134633859Y-99416834D01*
X134573602Y-99312465D01*
X134573600Y-99312463D01*
X134573598Y-99312460D01*
X134488389Y-99227251D01*
X134488383Y-99227247D01*
X134384017Y-99166991D01*
X134345213Y-99156593D01*
X134267608Y-99135799D01*
X134147094Y-99135799D01*
X134088890Y-99151395D01*
X134030684Y-99166991D01*
X133926318Y-99227247D01*
X133926312Y-99227251D01*
X133841103Y-99312460D01*
X133841099Y-99312466D01*
X133780843Y-99416832D01*
X133760048Y-99494439D01*
X133749651Y-99533242D01*
X125482800Y-99533242D01*
X125482800Y-91659242D01*
X150692851Y-91659242D01*
X150692851Y-91779756D01*
X150702803Y-91816896D01*
X150724043Y-91896165D01*
X150784299Y-92000531D01*
X150784303Y-92000537D01*
X150869512Y-92085746D01*
X150869515Y-92085748D01*
X150869517Y-92085750D01*
X150973886Y-92146007D01*
X151090294Y-92177199D01*
X151090296Y-92177199D01*
X151210806Y-92177199D01*
X151210808Y-92177199D01*
X151327216Y-92146007D01*
X151431585Y-92085750D01*
X151486347Y-92030987D01*
X151532966Y-92009248D01*
X151582653Y-92022561D01*
X151592695Y-92030988D01*
X151647453Y-92085746D01*
X151647456Y-92085748D01*
X151647458Y-92085750D01*
X151751827Y-92146007D01*
X151868235Y-92177199D01*
X151868237Y-92177199D01*
X151988747Y-92177199D01*
X151988749Y-92177199D01*
X152105157Y-92146007D01*
X152209526Y-92085750D01*
X152294743Y-92000533D01*
X152355000Y-91896164D01*
X152386192Y-91779756D01*
X152386192Y-91659242D01*
X152355000Y-91542834D01*
X152294743Y-91438465D01*
X152294741Y-91438463D01*
X152294739Y-91438460D01*
X152209530Y-91353251D01*
X152209524Y-91353247D01*
X152105158Y-91292991D01*
X152066354Y-91282593D01*
X151988749Y-91261799D01*
X151868235Y-91261799D01*
X151810031Y-91277395D01*
X151751825Y-91292991D01*
X151647459Y-91353247D01*
X151647457Y-91353248D01*
X151592695Y-91408010D01*
X151546074Y-91429749D01*
X151496388Y-91416435D01*
X151486347Y-91408009D01*
X151431589Y-91353251D01*
X151431583Y-91353247D01*
X151327217Y-91292991D01*
X151288413Y-91282593D01*
X151210808Y-91261799D01*
X151090294Y-91261799D01*
X151032090Y-91277395D01*
X150973884Y-91292991D01*
X150869518Y-91353247D01*
X150869512Y-91353251D01*
X150784303Y-91438460D01*
X150784299Y-91438466D01*
X150724043Y-91542832D01*
X150711127Y-91591037D01*
X150692851Y-91659242D01*
X125482800Y-91659242D01*
X125482800Y-88992442D01*
X149092651Y-88992442D01*
X149092651Y-89112956D01*
X149113445Y-89190561D01*
X149123843Y-89229365D01*
X149184099Y-89333731D01*
X149184103Y-89333737D01*
X149269312Y-89418946D01*
X149269315Y-89418948D01*
X149269317Y-89418950D01*
X149373686Y-89479207D01*
X149490094Y-89510399D01*
X149490096Y-89510399D01*
X149610606Y-89510399D01*
X149610608Y-89510399D01*
X149727016Y-89479207D01*
X149831385Y-89418950D01*
X149916602Y-89333733D01*
X149976859Y-89229364D01*
X150008051Y-89112956D01*
X150008051Y-88992442D01*
X149976859Y-88876034D01*
X149916602Y-88771665D01*
X149916600Y-88771663D01*
X149916598Y-88771660D01*
X149831389Y-88686451D01*
X149831383Y-88686447D01*
X149727017Y-88626191D01*
X149688213Y-88615793D01*
X149610608Y-88594999D01*
X149490094Y-88594999D01*
X149431890Y-88610595D01*
X149373684Y-88626191D01*
X149269318Y-88686447D01*
X149269312Y-88686451D01*
X149184103Y-88771660D01*
X149184099Y-88771666D01*
X149123843Y-88876032D01*
X149103048Y-88953639D01*
X149092651Y-88992442D01*
X125482800Y-88992442D01*
X125482800Y-86083442D01*
X131236450Y-86083442D01*
X131236450Y-86203956D01*
X131247301Y-86244450D01*
X131267642Y-86320365D01*
X131327898Y-86424731D01*
X131327902Y-86424737D01*
X131413111Y-86509946D01*
X131413114Y-86509948D01*
X131413116Y-86509950D01*
X131517485Y-86570207D01*
X131633893Y-86601399D01*
X131633895Y-86601399D01*
X131754405Y-86601399D01*
X131754407Y-86601399D01*
X131870815Y-86570207D01*
X131975184Y-86509950D01*
X132060401Y-86424733D01*
X132120658Y-86320364D01*
X132151850Y-86203956D01*
X132151850Y-86083442D01*
X132120658Y-85967034D01*
X132060401Y-85862665D01*
X132060399Y-85862663D01*
X132060397Y-85862660D01*
X131975188Y-85777451D01*
X131975182Y-85777447D01*
X131870816Y-85717191D01*
X131832012Y-85706793D01*
X131754407Y-85685999D01*
X131633893Y-85685999D01*
X131575689Y-85701595D01*
X131517483Y-85717191D01*
X131413117Y-85777447D01*
X131413111Y-85777451D01*
X131327902Y-85862660D01*
X131327898Y-85862666D01*
X131267642Y-85967032D01*
X131255221Y-86013389D01*
X131236450Y-86083442D01*
X125482800Y-86083442D01*
X125482800Y-85258442D01*
X133217650Y-85258442D01*
X133217650Y-85378956D01*
X133238444Y-85456561D01*
X133248842Y-85495365D01*
X133309098Y-85599731D01*
X133309102Y-85599737D01*
X133394311Y-85684946D01*
X133394314Y-85684948D01*
X133394316Y-85684950D01*
X133498685Y-85745207D01*
X133615093Y-85776399D01*
X133615095Y-85776399D01*
X133735605Y-85776399D01*
X133735607Y-85776399D01*
X133852015Y-85745207D01*
X133956384Y-85684950D01*
X134041601Y-85599733D01*
X134101858Y-85495364D01*
X134133050Y-85378956D01*
X134133050Y-85258442D01*
X134101858Y-85142034D01*
X134041601Y-85037665D01*
X134041599Y-85037663D01*
X134041597Y-85037660D01*
X133956388Y-84952451D01*
X133956382Y-84952447D01*
X133852016Y-84892191D01*
X133808948Y-84880651D01*
X133735607Y-84860999D01*
X133615093Y-84860999D01*
X133556889Y-84876595D01*
X133498683Y-84892191D01*
X133394317Y-84952447D01*
X133394311Y-84952451D01*
X133309102Y-85037660D01*
X133309098Y-85037666D01*
X133248842Y-85142032D01*
X133234156Y-85196841D01*
X133217650Y-85258442D01*
X125482800Y-85258442D01*
X125482800Y-84433442D01*
X131236450Y-84433442D01*
X131236450Y-84553956D01*
X131241678Y-84573466D01*
X131267642Y-84670365D01*
X131327898Y-84774731D01*
X131327902Y-84774737D01*
X131413111Y-84859946D01*
X131413114Y-84859948D01*
X131413116Y-84859950D01*
X131517485Y-84920207D01*
X131633893Y-84951399D01*
X131633895Y-84951399D01*
X131754405Y-84951399D01*
X131754407Y-84951399D01*
X131870815Y-84920207D01*
X131975184Y-84859950D01*
X132060401Y-84774733D01*
X132120658Y-84670364D01*
X132151850Y-84553956D01*
X132151850Y-84433442D01*
X132120658Y-84317034D01*
X132060401Y-84212665D01*
X132060399Y-84212663D01*
X132060397Y-84212660D01*
X131975188Y-84127451D01*
X131975182Y-84127447D01*
X131870816Y-84067191D01*
X131832012Y-84056793D01*
X131754407Y-84035999D01*
X131633893Y-84035999D01*
X131575689Y-84051595D01*
X131517483Y-84067191D01*
X131413117Y-84127447D01*
X131413111Y-84127451D01*
X131327902Y-84212660D01*
X131327898Y-84212666D01*
X131267642Y-84317032D01*
X131262388Y-84336642D01*
X131236450Y-84433442D01*
X125482800Y-84433442D01*
X125482800Y-81409842D01*
X131236450Y-81409842D01*
X131236450Y-81530356D01*
X131257244Y-81607961D01*
X131267642Y-81646765D01*
X131327898Y-81751131D01*
X131327902Y-81751137D01*
X131413111Y-81836346D01*
X131413114Y-81836348D01*
X131413116Y-81836350D01*
X131517485Y-81896607D01*
X131633893Y-81927799D01*
X131633895Y-81927799D01*
X131754405Y-81927799D01*
X131754407Y-81927799D01*
X131870815Y-81896607D01*
X131975184Y-81836350D01*
X132060401Y-81751133D01*
X132120658Y-81646764D01*
X132151850Y-81530356D01*
X132151850Y-81409842D01*
X132120658Y-81293434D01*
X132060401Y-81189065D01*
X132060399Y-81189063D01*
X132060397Y-81189060D01*
X131975188Y-81103851D01*
X131975182Y-81103847D01*
X131870816Y-81043591D01*
X131832012Y-81033193D01*
X131754407Y-81012399D01*
X131633893Y-81012399D01*
X131575689Y-81027995D01*
X131517483Y-81043591D01*
X131413117Y-81103847D01*
X131413111Y-81103851D01*
X131327902Y-81189060D01*
X131327898Y-81189066D01*
X131267642Y-81293432D01*
X131249298Y-81361894D01*
X131236450Y-81409842D01*
X125482800Y-81409842D01*
X125482800Y-80584842D01*
X129255250Y-80584842D01*
X129255250Y-80705356D01*
X129269032Y-80756791D01*
X129286442Y-80821765D01*
X129346698Y-80926131D01*
X129346702Y-80926137D01*
X129431911Y-81011346D01*
X129431914Y-81011348D01*
X129431916Y-81011350D01*
X129536285Y-81071607D01*
X129652693Y-81102799D01*
X129652695Y-81102799D01*
X129773205Y-81102799D01*
X129773207Y-81102799D01*
X129889615Y-81071607D01*
X129993984Y-81011350D01*
X130079201Y-80926133D01*
X130139458Y-80821764D01*
X130170650Y-80705356D01*
X130170650Y-80584842D01*
X130139458Y-80468434D01*
X130079201Y-80364065D01*
X130079199Y-80364063D01*
X130079197Y-80364060D01*
X129993988Y-80278851D01*
X129993982Y-80278847D01*
X129889616Y-80218591D01*
X129850812Y-80208193D01*
X129773207Y-80187399D01*
X129652693Y-80187399D01*
X129594489Y-80202995D01*
X129536283Y-80218591D01*
X129431917Y-80278847D01*
X129431911Y-80278851D01*
X129346702Y-80364060D01*
X129346698Y-80364066D01*
X129286442Y-80468432D01*
X129270233Y-80528926D01*
X129255250Y-80584842D01*
X125482800Y-80584842D01*
X125482800Y-79759842D01*
X131236450Y-79759842D01*
X131236450Y-79880356D01*
X131253840Y-79945255D01*
X131267642Y-79996765D01*
X131327898Y-80101131D01*
X131327902Y-80101137D01*
X131413111Y-80186346D01*
X131413114Y-80186348D01*
X131413116Y-80186350D01*
X131517485Y-80246607D01*
X131633893Y-80277799D01*
X131633895Y-80277799D01*
X131754405Y-80277799D01*
X131754407Y-80277799D01*
X131870815Y-80246607D01*
X131975184Y-80186350D01*
X132060401Y-80101133D01*
X132120658Y-79996764D01*
X132151850Y-79880356D01*
X132151850Y-79759842D01*
X132120658Y-79643434D01*
X132060401Y-79539065D01*
X132060399Y-79539063D01*
X132060397Y-79539060D01*
X131975188Y-79453851D01*
X131975182Y-79453847D01*
X131870816Y-79393591D01*
X131832012Y-79383193D01*
X131754407Y-79362399D01*
X131633893Y-79362399D01*
X131575689Y-79377995D01*
X131517483Y-79393591D01*
X131413117Y-79453847D01*
X131413111Y-79453851D01*
X131327902Y-79539060D01*
X131327898Y-79539066D01*
X131267642Y-79643432D01*
X131260045Y-79671785D01*
X131236450Y-79759842D01*
X125482800Y-79759842D01*
X125482800Y-77195199D01*
X125500393Y-77146861D01*
X125544942Y-77121141D01*
X125558000Y-77119999D01*
X126767540Y-77119999D01*
X126767550Y-77119999D01*
X126781307Y-77119399D01*
X126794365Y-77118257D01*
X126859557Y-77097703D01*
X126904106Y-77071983D01*
X126926654Y-77056194D01*
X126973535Y-76989240D01*
X126991128Y-76940902D01*
X127000649Y-76886903D01*
X127000650Y-76886903D01*
X127000650Y-75725563D01*
X127018243Y-75677225D01*
X127062792Y-75651505D01*
X127075992Y-75650363D01*
X137765284Y-75671743D01*
X137765311Y-75671741D01*
X137765900Y-75671743D01*
X137814203Y-75689433D01*
X137839834Y-75734033D01*
X137840950Y-75746943D01*
X137840950Y-83489899D01*
X139247580Y-83489899D01*
X139295918Y-83507492D01*
X139317056Y-83536321D01*
X139415009Y-83772803D01*
X139549564Y-84005858D01*
X139713381Y-84219348D01*
X139713393Y-84219362D01*
X139903666Y-84409635D01*
X139903680Y-84409647D01*
X140095849Y-84557104D01*
X140117173Y-84573466D01*
X140350227Y-84708020D01*
X140598851Y-84811003D01*
X140858790Y-84880653D01*
X141125596Y-84915779D01*
X141125599Y-84915779D01*
X141394701Y-84915779D01*
X141394704Y-84915779D01*
X141661510Y-84880653D01*
X141921449Y-84811003D01*
X142170073Y-84708020D01*
X142403127Y-84573466D01*
X142616625Y-84409643D01*
X142806914Y-84219354D01*
X142970737Y-84005856D01*
X143105291Y-83772802D01*
X143203244Y-83536320D01*
X143237996Y-83498396D01*
X143272720Y-83489899D01*
X143803451Y-83489899D01*
X143851789Y-83507492D01*
X143877509Y-83552041D01*
X143878650Y-83565096D01*
X143878651Y-84308022D01*
X143878650Y-84362874D01*
X143878651Y-84362874D01*
X143878651Y-84417495D01*
X143878719Y-84418548D01*
X143878719Y-84486189D01*
X143878719Y-84486191D01*
X143890208Y-84573464D01*
X143910907Y-84730711D01*
X143910907Y-84730713D01*
X143974735Y-84968942D01*
X143974736Y-84968946D01*
X144069116Y-85196810D01*
X144192430Y-85410406D01*
X144342557Y-85606065D01*
X144342562Y-85606070D01*
X144342566Y-85606075D01*
X144516958Y-85780476D01*
X144712623Y-85930622D01*
X144926211Y-86053945D01*
X145154068Y-86148334D01*
X145392297Y-86212175D01*
X145636815Y-86244374D01*
X145636818Y-86244375D01*
X145636822Y-86244375D01*
X145709922Y-86244377D01*
X145709925Y-86244378D01*
X145729357Y-86244378D01*
X145760137Y-86244379D01*
X145814989Y-86244381D01*
X145814992Y-86244379D01*
X145820455Y-86244380D01*
X145820496Y-86244378D01*
X157697662Y-86244378D01*
X157705304Y-86244378D01*
X157705311Y-86244381D01*
X157728949Y-86244380D01*
X157729143Y-86244450D01*
X157760163Y-86244449D01*
X157760163Y-86244450D01*
X157883480Y-86244446D01*
X157883485Y-86244446D01*
X157883486Y-86244445D01*
X158128017Y-86212245D01*
X158366254Y-86148401D01*
X158523067Y-86083442D01*
X171368450Y-86083442D01*
X171368450Y-86203956D01*
X171379301Y-86244450D01*
X171399642Y-86320365D01*
X171459898Y-86424731D01*
X171459902Y-86424737D01*
X171545111Y-86509946D01*
X171545114Y-86509948D01*
X171545116Y-86509950D01*
X171649485Y-86570207D01*
X171765893Y-86601399D01*
X171765895Y-86601399D01*
X171886405Y-86601399D01*
X171886407Y-86601399D01*
X172002815Y-86570207D01*
X172107184Y-86509950D01*
X172192401Y-86424733D01*
X172252658Y-86320364D01*
X172283850Y-86203956D01*
X172283850Y-86083442D01*
X172252658Y-85967034D01*
X172192401Y-85862665D01*
X172192399Y-85862663D01*
X172192397Y-85862660D01*
X172107188Y-85777451D01*
X172107182Y-85777447D01*
X172002816Y-85717191D01*
X171964012Y-85706793D01*
X171886407Y-85685999D01*
X171765893Y-85685999D01*
X171707689Y-85701595D01*
X171649483Y-85717191D01*
X171545117Y-85777447D01*
X171545111Y-85777451D01*
X171459902Y-85862660D01*
X171459898Y-85862666D01*
X171399642Y-85967032D01*
X171387221Y-86013389D01*
X171368450Y-86083442D01*
X158523067Y-86083442D01*
X158594121Y-86054008D01*
X158807717Y-85930681D01*
X159003389Y-85780529D01*
X159177788Y-85606121D01*
X159327931Y-85410443D01*
X159415683Y-85258442D01*
X173349650Y-85258442D01*
X173349650Y-85378956D01*
X173370444Y-85456561D01*
X173380842Y-85495365D01*
X173441098Y-85599731D01*
X173441102Y-85599737D01*
X173526311Y-85684946D01*
X173526314Y-85684948D01*
X173526316Y-85684950D01*
X173630685Y-85745207D01*
X173747093Y-85776399D01*
X173747095Y-85776399D01*
X173867605Y-85776399D01*
X173867607Y-85776399D01*
X173984015Y-85745207D01*
X174088384Y-85684950D01*
X174173601Y-85599733D01*
X174233858Y-85495364D01*
X174265050Y-85378956D01*
X174265050Y-85258442D01*
X174233858Y-85142034D01*
X174173601Y-85037665D01*
X174173599Y-85037663D01*
X174173597Y-85037660D01*
X174088388Y-84952451D01*
X174088382Y-84952447D01*
X173984016Y-84892191D01*
X173940948Y-84880651D01*
X173867607Y-84860999D01*
X173747093Y-84860999D01*
X173688889Y-84876595D01*
X173630683Y-84892191D01*
X173526317Y-84952447D01*
X173526311Y-84952451D01*
X173441102Y-85037660D01*
X173441098Y-85037666D01*
X173380842Y-85142032D01*
X173366156Y-85196841D01*
X173349650Y-85258442D01*
X159415683Y-85258442D01*
X159421706Y-85248010D01*
X159440237Y-85215914D01*
X159440238Y-85215913D01*
X159451246Y-85196844D01*
X159451247Y-85196843D01*
X159451261Y-85196809D01*
X159545630Y-84968970D01*
X159609462Y-84730729D01*
X159641652Y-84486195D01*
X159641650Y-84362874D01*
X159641650Y-84336642D01*
X159641650Y-83565099D01*
X159659243Y-83516761D01*
X159703792Y-83491041D01*
X159716850Y-83489899D01*
X160247580Y-83489899D01*
X160295918Y-83507492D01*
X160317056Y-83536321D01*
X160415009Y-83772803D01*
X160549564Y-84005858D01*
X160713381Y-84219348D01*
X160713393Y-84219362D01*
X160903666Y-84409635D01*
X160903680Y-84409647D01*
X161095849Y-84557104D01*
X161117173Y-84573466D01*
X161350227Y-84708020D01*
X161598851Y-84811003D01*
X161858790Y-84880653D01*
X162125596Y-84915779D01*
X162125599Y-84915779D01*
X162394701Y-84915779D01*
X162394704Y-84915779D01*
X162661510Y-84880653D01*
X162921449Y-84811003D01*
X163170073Y-84708020D01*
X163403127Y-84573466D01*
X163585610Y-84433442D01*
X171368450Y-84433442D01*
X171368450Y-84553956D01*
X171373678Y-84573466D01*
X171399642Y-84670365D01*
X171459898Y-84774731D01*
X171459902Y-84774737D01*
X171545111Y-84859946D01*
X171545114Y-84859948D01*
X171545116Y-84859950D01*
X171649485Y-84920207D01*
X171765893Y-84951399D01*
X171765895Y-84951399D01*
X171886405Y-84951399D01*
X171886407Y-84951399D01*
X172002815Y-84920207D01*
X172107184Y-84859950D01*
X172192401Y-84774733D01*
X172252658Y-84670364D01*
X172283850Y-84553956D01*
X172283850Y-84433442D01*
X172252658Y-84317034D01*
X172192401Y-84212665D01*
X172192399Y-84212663D01*
X172192397Y-84212660D01*
X172107188Y-84127451D01*
X172107182Y-84127447D01*
X172002816Y-84067191D01*
X171964012Y-84056793D01*
X171886407Y-84035999D01*
X171765893Y-84035999D01*
X171707689Y-84051595D01*
X171649483Y-84067191D01*
X171545117Y-84127447D01*
X171545111Y-84127451D01*
X171459902Y-84212660D01*
X171459898Y-84212666D01*
X171399642Y-84317032D01*
X171394388Y-84336642D01*
X171368450Y-84433442D01*
X163585610Y-84433442D01*
X163616625Y-84409643D01*
X163616633Y-84409635D01*
X163650930Y-84375339D01*
X163806906Y-84219362D01*
X163806914Y-84219354D01*
X163970737Y-84005856D01*
X164105291Y-83772802D01*
X164203244Y-83536320D01*
X164237996Y-83498396D01*
X164272720Y-83489899D01*
X165882550Y-83489899D01*
X165882550Y-81409842D01*
X171368450Y-81409842D01*
X171368450Y-81530356D01*
X171389244Y-81607961D01*
X171399642Y-81646765D01*
X171459898Y-81751131D01*
X171459902Y-81751137D01*
X171545111Y-81836346D01*
X171545114Y-81836348D01*
X171545116Y-81836350D01*
X171649485Y-81896607D01*
X171765893Y-81927799D01*
X171765895Y-81927799D01*
X171886405Y-81927799D01*
X171886407Y-81927799D01*
X172002815Y-81896607D01*
X172107184Y-81836350D01*
X172192401Y-81751133D01*
X172252658Y-81646764D01*
X172283850Y-81530356D01*
X172283850Y-81409842D01*
X172252658Y-81293434D01*
X172192401Y-81189065D01*
X172192399Y-81189063D01*
X172192397Y-81189060D01*
X172107188Y-81103851D01*
X172107182Y-81103847D01*
X172002816Y-81043591D01*
X171964012Y-81033193D01*
X171886407Y-81012399D01*
X171765893Y-81012399D01*
X171707689Y-81027995D01*
X171649483Y-81043591D01*
X171545117Y-81103847D01*
X171545111Y-81103851D01*
X171459902Y-81189060D01*
X171459898Y-81189066D01*
X171399642Y-81293432D01*
X171381298Y-81361894D01*
X171368450Y-81409842D01*
X165882550Y-81409842D01*
X165882550Y-80584842D01*
X169387250Y-80584842D01*
X169387250Y-80705356D01*
X169401032Y-80756791D01*
X169418442Y-80821765D01*
X169478698Y-80926131D01*
X169478702Y-80926137D01*
X169563911Y-81011346D01*
X169563914Y-81011348D01*
X169563916Y-81011350D01*
X169668285Y-81071607D01*
X169784693Y-81102799D01*
X169784695Y-81102799D01*
X169905205Y-81102799D01*
X169905207Y-81102799D01*
X170021615Y-81071607D01*
X170125984Y-81011350D01*
X170211201Y-80926133D01*
X170271458Y-80821764D01*
X170302650Y-80705356D01*
X170302650Y-80584842D01*
X170271458Y-80468434D01*
X170211201Y-80364065D01*
X170211199Y-80364063D01*
X170211197Y-80364060D01*
X170125988Y-80278851D01*
X170125982Y-80278847D01*
X170021616Y-80218591D01*
X169982812Y-80208193D01*
X169905207Y-80187399D01*
X169784693Y-80187399D01*
X169726489Y-80202995D01*
X169668283Y-80218591D01*
X169563917Y-80278847D01*
X169563911Y-80278851D01*
X169478702Y-80364060D01*
X169478698Y-80364066D01*
X169418442Y-80468432D01*
X169402233Y-80528926D01*
X169387250Y-80584842D01*
X165882550Y-80584842D01*
X165882550Y-79759842D01*
X171368450Y-79759842D01*
X171368450Y-79880356D01*
X171385840Y-79945255D01*
X171399642Y-79996765D01*
X171459898Y-80101131D01*
X171459902Y-80101137D01*
X171545111Y-80186346D01*
X171545114Y-80186348D01*
X171545116Y-80186350D01*
X171649485Y-80246607D01*
X171765893Y-80277799D01*
X171765895Y-80277799D01*
X171886405Y-80277799D01*
X171886407Y-80277799D01*
X172002815Y-80246607D01*
X172107184Y-80186350D01*
X172192401Y-80101133D01*
X172252658Y-79996764D01*
X172283850Y-79880356D01*
X172283850Y-79759842D01*
X172252658Y-79643434D01*
X172192401Y-79539065D01*
X172192399Y-79539063D01*
X172192397Y-79539060D01*
X172107188Y-79453851D01*
X172107182Y-79453847D01*
X172002816Y-79393591D01*
X171964012Y-79383193D01*
X171886407Y-79362399D01*
X171765893Y-79362399D01*
X171707689Y-79377995D01*
X171649483Y-79393591D01*
X171545117Y-79453847D01*
X171545111Y-79453851D01*
X171459902Y-79539060D01*
X171459898Y-79539066D01*
X171399642Y-79643432D01*
X171392045Y-79671785D01*
X171368450Y-79759842D01*
X165882550Y-79759842D01*
X165882550Y-77195199D01*
X165900143Y-77146861D01*
X165944692Y-77121141D01*
X165957750Y-77119999D01*
X167051940Y-77119999D01*
X167051950Y-77119999D01*
X167065707Y-77119399D01*
X167078765Y-77118257D01*
X167143957Y-77097703D01*
X167188506Y-77071983D01*
X167211054Y-77056194D01*
X167257935Y-76989240D01*
X167275528Y-76940902D01*
X167285049Y-76886903D01*
X167285050Y-76886903D01*
X167285050Y-75721999D01*
X167302643Y-75673661D01*
X167347192Y-75647941D01*
X167360250Y-75646799D01*
X178441550Y-75646799D01*
X178489888Y-75664392D01*
G37*
%TD.AperFunction*%
%TD*%
%TA.AperFunction,Conductor*%
%TO.N,/Deployment Sensor/DS_3V3*%
G36*
X138702981Y-63517742D02*
G01*
X138728783Y-63562242D01*
X138729950Y-63575438D01*
X138729950Y-67364017D01*
X138712357Y-67412355D01*
X138667808Y-67438075D01*
X138656898Y-67439186D01*
X137840950Y-67462498D01*
X137840950Y-75438643D01*
X137823357Y-75486981D01*
X137778808Y-75512701D01*
X137765600Y-75513843D01*
X126842750Y-75491997D01*
X125482800Y-75489277D01*
X125482800Y-74643243D01*
X131211050Y-74643243D01*
X131211050Y-74763757D01*
X131231844Y-74841362D01*
X131242242Y-74880166D01*
X131302498Y-74984532D01*
X131302502Y-74984538D01*
X131387711Y-75069747D01*
X131387714Y-75069749D01*
X131387716Y-75069751D01*
X131492085Y-75130008D01*
X131608493Y-75161200D01*
X131608495Y-75161200D01*
X131729005Y-75161200D01*
X131729007Y-75161200D01*
X131845415Y-75130008D01*
X131949784Y-75069751D01*
X132035001Y-74984534D01*
X132095258Y-74880165D01*
X132126450Y-74763757D01*
X132126450Y-74643243D01*
X132095258Y-74526835D01*
X132035001Y-74422466D01*
X132034999Y-74422464D01*
X132034997Y-74422461D01*
X131949788Y-74337252D01*
X131949782Y-74337248D01*
X131845416Y-74276992D01*
X131806612Y-74266594D01*
X131729007Y-74245800D01*
X131608493Y-74245800D01*
X131550289Y-74261396D01*
X131492083Y-74276992D01*
X131387717Y-74337248D01*
X131387711Y-74337252D01*
X131302502Y-74422461D01*
X131302498Y-74422467D01*
X131242242Y-74526833D01*
X131221447Y-74604440D01*
X131211050Y-74643243D01*
X125482800Y-74643243D01*
X125482800Y-73803042D01*
X133192250Y-73803042D01*
X133192250Y-73923556D01*
X133213044Y-74001161D01*
X133223442Y-74039965D01*
X133283698Y-74144331D01*
X133283702Y-74144337D01*
X133368911Y-74229546D01*
X133368914Y-74229548D01*
X133368916Y-74229550D01*
X133473285Y-74289807D01*
X133589693Y-74320999D01*
X133589695Y-74320999D01*
X133710205Y-74320999D01*
X133710207Y-74320999D01*
X133826615Y-74289807D01*
X133930984Y-74229550D01*
X134016201Y-74144333D01*
X134076458Y-74039964D01*
X134107650Y-73923556D01*
X134107650Y-73803042D01*
X134076458Y-73686634D01*
X134016201Y-73582265D01*
X134016199Y-73582263D01*
X134016197Y-73582260D01*
X133930988Y-73497051D01*
X133930982Y-73497047D01*
X133826616Y-73436791D01*
X133787812Y-73426393D01*
X133710207Y-73405599D01*
X133589693Y-73405599D01*
X133536893Y-73419747D01*
X133473283Y-73436791D01*
X133368917Y-73497047D01*
X133368911Y-73497051D01*
X133283702Y-73582260D01*
X133283698Y-73582266D01*
X133223442Y-73686632D01*
X133202647Y-73764239D01*
X133192250Y-73803042D01*
X125482800Y-73803042D01*
X125482800Y-72993243D01*
X131211050Y-72993243D01*
X131211050Y-73113757D01*
X131231844Y-73191362D01*
X131242242Y-73230166D01*
X131302498Y-73334532D01*
X131302502Y-73334538D01*
X131387711Y-73419747D01*
X131387714Y-73419749D01*
X131387716Y-73419751D01*
X131492085Y-73480008D01*
X131608493Y-73511200D01*
X131608495Y-73511200D01*
X131729005Y-73511200D01*
X131729007Y-73511200D01*
X131845415Y-73480008D01*
X131949784Y-73419751D01*
X132035001Y-73334534D01*
X132095258Y-73230165D01*
X132126450Y-73113757D01*
X132126450Y-72993243D01*
X132095258Y-72876835D01*
X132035001Y-72772466D01*
X132034999Y-72772464D01*
X132034997Y-72772461D01*
X131949788Y-72687252D01*
X131949782Y-72687248D01*
X131845416Y-72626992D01*
X131806612Y-72616594D01*
X131729007Y-72595800D01*
X131608493Y-72595800D01*
X131550289Y-72611396D01*
X131492083Y-72626992D01*
X131387717Y-72687248D01*
X131387711Y-72687252D01*
X131302502Y-72772461D01*
X131302498Y-72772467D01*
X131242242Y-72876833D01*
X131221447Y-72954440D01*
X131211050Y-72993243D01*
X125482800Y-72993243D01*
X125482800Y-69979842D01*
X131211050Y-69979842D01*
X131211050Y-70100356D01*
X131231844Y-70177961D01*
X131242242Y-70216765D01*
X131302498Y-70321131D01*
X131302502Y-70321137D01*
X131387711Y-70406346D01*
X131387714Y-70406348D01*
X131387716Y-70406350D01*
X131492085Y-70466607D01*
X131608493Y-70497799D01*
X131608495Y-70497799D01*
X131729005Y-70497799D01*
X131729007Y-70497799D01*
X131845415Y-70466607D01*
X131949784Y-70406350D01*
X132035001Y-70321133D01*
X132095258Y-70216764D01*
X132126450Y-70100356D01*
X132126450Y-69979842D01*
X132095258Y-69863434D01*
X132035001Y-69759065D01*
X132034999Y-69759063D01*
X132034997Y-69759060D01*
X131949788Y-69673851D01*
X131949782Y-69673847D01*
X131845416Y-69613591D01*
X131806612Y-69603193D01*
X131729007Y-69582399D01*
X131608493Y-69582399D01*
X131550289Y-69597995D01*
X131492083Y-69613591D01*
X131387717Y-69673847D01*
X131387711Y-69673851D01*
X131302502Y-69759060D01*
X131302498Y-69759066D01*
X131242242Y-69863432D01*
X131221447Y-69941039D01*
X131211050Y-69979842D01*
X125482800Y-69979842D01*
X125482800Y-69154842D01*
X129229850Y-69154842D01*
X129229850Y-69275356D01*
X129250644Y-69352961D01*
X129261042Y-69391765D01*
X129321298Y-69496131D01*
X129321302Y-69496137D01*
X129406511Y-69581346D01*
X129406514Y-69581348D01*
X129406516Y-69581350D01*
X129510885Y-69641607D01*
X129627293Y-69672799D01*
X129627295Y-69672799D01*
X129747805Y-69672799D01*
X129747807Y-69672799D01*
X129864215Y-69641607D01*
X129968584Y-69581350D01*
X130053801Y-69496133D01*
X130114058Y-69391764D01*
X130145250Y-69275356D01*
X130145250Y-69154842D01*
X130114058Y-69038434D01*
X130053801Y-68934065D01*
X130053799Y-68934063D01*
X130053797Y-68934060D01*
X129968588Y-68848851D01*
X129968582Y-68848847D01*
X129864216Y-68788591D01*
X129825412Y-68778193D01*
X129747807Y-68757399D01*
X129627293Y-68757399D01*
X129569089Y-68772995D01*
X129510883Y-68788591D01*
X129406517Y-68848847D01*
X129406511Y-68848851D01*
X129321302Y-68934060D01*
X129321298Y-68934066D01*
X129261042Y-69038432D01*
X129240247Y-69116039D01*
X129229850Y-69154842D01*
X125482800Y-69154842D01*
X125482800Y-68329842D01*
X131211050Y-68329842D01*
X131211050Y-68450356D01*
X131231844Y-68527961D01*
X131242242Y-68566765D01*
X131302498Y-68671131D01*
X131302502Y-68671137D01*
X131387711Y-68756346D01*
X131387714Y-68756348D01*
X131387716Y-68756350D01*
X131492085Y-68816607D01*
X131608493Y-68847799D01*
X131608495Y-68847799D01*
X131729005Y-68847799D01*
X131729007Y-68847799D01*
X131845415Y-68816607D01*
X131949784Y-68756350D01*
X132035001Y-68671133D01*
X132095258Y-68566764D01*
X132126450Y-68450356D01*
X132126450Y-68329842D01*
X132095258Y-68213434D01*
X132035001Y-68109065D01*
X132034999Y-68109063D01*
X132034997Y-68109060D01*
X131949788Y-68023851D01*
X131949782Y-68023847D01*
X131845416Y-67963591D01*
X131806612Y-67953193D01*
X131729007Y-67932399D01*
X131608493Y-67932399D01*
X131550289Y-67947995D01*
X131492083Y-67963591D01*
X131387717Y-68023847D01*
X131387711Y-68023851D01*
X131302502Y-68109060D01*
X131302498Y-68109066D01*
X131242242Y-68213432D01*
X131221447Y-68291039D01*
X131211050Y-68329842D01*
X125482800Y-68329842D01*
X125482800Y-67625988D01*
X125500393Y-67577650D01*
X125544942Y-67551930D01*
X125558000Y-67550788D01*
X136385625Y-67550788D01*
X136388083Y-67550949D01*
X136391776Y-67550949D01*
X136480521Y-67550949D01*
X136480523Y-67550949D01*
X136480524Y-67550949D01*
X136566247Y-67527979D01*
X136643104Y-67483606D01*
X136705857Y-67420853D01*
X136750230Y-67343996D01*
X136773200Y-67258273D01*
X136773200Y-67169525D01*
X136773200Y-65231042D01*
X137586450Y-65231042D01*
X137586450Y-65351556D01*
X137591222Y-65369365D01*
X137617642Y-65467965D01*
X137677898Y-65572331D01*
X137677902Y-65572337D01*
X137763111Y-65657546D01*
X137763114Y-65657548D01*
X137763116Y-65657550D01*
X137867485Y-65717807D01*
X137983893Y-65748999D01*
X137983895Y-65748999D01*
X138104405Y-65748999D01*
X138104407Y-65748999D01*
X138220815Y-65717807D01*
X138325184Y-65657550D01*
X138410401Y-65572333D01*
X138470658Y-65467964D01*
X138501850Y-65351556D01*
X138501850Y-65231042D01*
X138470658Y-65114634D01*
X138410401Y-65010265D01*
X138410399Y-65010263D01*
X138410397Y-65010260D01*
X138325188Y-64925051D01*
X138325182Y-64925047D01*
X138220816Y-64864791D01*
X138182012Y-64854393D01*
X138104407Y-64833599D01*
X137983893Y-64833599D01*
X137925689Y-64849195D01*
X137867483Y-64864791D01*
X137763117Y-64925047D01*
X137763111Y-64925051D01*
X137677902Y-65010260D01*
X137677898Y-65010266D01*
X137617642Y-65114632D01*
X137614109Y-65127818D01*
X137586450Y-65231042D01*
X136773200Y-65231042D01*
X136773200Y-63578794D01*
X136790793Y-63530456D01*
X136835342Y-63504736D01*
X136848243Y-63503595D01*
X138654612Y-63500238D01*
X138702981Y-63517742D01*
G37*
%TD.AperFunction*%
%TD*%
%TA.AperFunction,Conductor*%
%TO.N,/Light Sensor/LS_3V3*%
G36*
X167327438Y-64914692D02*
G01*
X167353158Y-64959241D01*
X167354300Y-64972299D01*
X167354300Y-66658473D01*
X167377269Y-66744194D01*
X167421642Y-66821051D01*
X167421646Y-66821057D01*
X167484391Y-66883802D01*
X167484394Y-66883804D01*
X167484396Y-66883806D01*
X167561254Y-66928179D01*
X167646975Y-66951149D01*
X167646976Y-66951149D01*
X167737885Y-66951149D01*
X167743396Y-66950788D01*
X178441550Y-66950788D01*
X178489888Y-66968381D01*
X178515608Y-67012930D01*
X178516750Y-67025988D01*
X178516750Y-75413699D01*
X178499157Y-75462037D01*
X178454608Y-75487757D01*
X178441550Y-75488899D01*
X165882550Y-75488899D01*
X165882550Y-74653442D01*
X171368450Y-74653442D01*
X171368450Y-74773956D01*
X171389244Y-74851561D01*
X171399642Y-74890365D01*
X171459898Y-74994731D01*
X171459902Y-74994737D01*
X171545111Y-75079946D01*
X171545114Y-75079948D01*
X171545116Y-75079950D01*
X171649485Y-75140207D01*
X171765893Y-75171399D01*
X171765895Y-75171399D01*
X171886405Y-75171399D01*
X171886407Y-75171399D01*
X172002815Y-75140207D01*
X172107184Y-75079950D01*
X172192401Y-74994733D01*
X172252658Y-74890364D01*
X172283850Y-74773956D01*
X172283850Y-74653442D01*
X172252658Y-74537034D01*
X172192401Y-74432665D01*
X172192399Y-74432663D01*
X172192397Y-74432660D01*
X172107188Y-74347451D01*
X172107182Y-74347447D01*
X172002816Y-74287191D01*
X171964012Y-74276793D01*
X171886407Y-74255999D01*
X171765893Y-74255999D01*
X171707689Y-74271595D01*
X171649483Y-74287191D01*
X171545117Y-74347447D01*
X171545111Y-74347451D01*
X171459902Y-74432660D01*
X171459898Y-74432666D01*
X171399642Y-74537032D01*
X171378847Y-74614639D01*
X171368450Y-74653442D01*
X165882550Y-74653442D01*
X165882550Y-73828442D01*
X173349650Y-73828442D01*
X173349650Y-73948956D01*
X173370444Y-74026561D01*
X173380842Y-74065365D01*
X173441098Y-74169731D01*
X173441102Y-74169737D01*
X173526311Y-74254946D01*
X173526314Y-74254948D01*
X173526316Y-74254950D01*
X173630685Y-74315207D01*
X173747093Y-74346399D01*
X173747095Y-74346399D01*
X173867605Y-74346399D01*
X173867607Y-74346399D01*
X173984015Y-74315207D01*
X174088384Y-74254950D01*
X174173601Y-74169733D01*
X174233858Y-74065364D01*
X174265050Y-73948956D01*
X174265050Y-73828442D01*
X174233858Y-73712034D01*
X174173601Y-73607665D01*
X174173599Y-73607663D01*
X174173597Y-73607660D01*
X174088388Y-73522451D01*
X174088382Y-73522447D01*
X173984016Y-73462191D01*
X173945212Y-73451793D01*
X173867607Y-73430999D01*
X173747093Y-73430999D01*
X173688889Y-73446595D01*
X173630683Y-73462191D01*
X173526317Y-73522447D01*
X173526311Y-73522451D01*
X173441102Y-73607660D01*
X173441098Y-73607666D01*
X173380842Y-73712032D01*
X173360047Y-73789639D01*
X173349650Y-73828442D01*
X165882550Y-73828442D01*
X165882550Y-73003442D01*
X171368450Y-73003442D01*
X171368450Y-73123956D01*
X171389244Y-73201561D01*
X171399642Y-73240365D01*
X171459898Y-73344731D01*
X171459902Y-73344737D01*
X171545111Y-73429946D01*
X171545114Y-73429948D01*
X171545116Y-73429950D01*
X171649485Y-73490207D01*
X171765893Y-73521399D01*
X171765895Y-73521399D01*
X171886405Y-73521399D01*
X171886407Y-73521399D01*
X172002815Y-73490207D01*
X172107184Y-73429950D01*
X172192401Y-73344733D01*
X172252658Y-73240364D01*
X172283850Y-73123956D01*
X172283850Y-73003442D01*
X172252658Y-72887034D01*
X172192401Y-72782665D01*
X172192399Y-72782663D01*
X172192397Y-72782660D01*
X172107188Y-72697451D01*
X172107182Y-72697447D01*
X172002816Y-72637191D01*
X171964012Y-72626793D01*
X171886407Y-72605999D01*
X171765893Y-72605999D01*
X171707689Y-72621595D01*
X171649483Y-72637191D01*
X171545117Y-72697447D01*
X171545111Y-72697451D01*
X171459902Y-72782660D01*
X171459898Y-72782666D01*
X171399642Y-72887032D01*
X171378847Y-72964639D01*
X171368450Y-73003442D01*
X165882550Y-73003442D01*
X165882550Y-69979842D01*
X171368449Y-69979842D01*
X171368449Y-70100356D01*
X171389243Y-70177961D01*
X171399641Y-70216765D01*
X171459897Y-70321131D01*
X171459901Y-70321137D01*
X171545110Y-70406346D01*
X171545113Y-70406348D01*
X171545115Y-70406350D01*
X171649484Y-70466607D01*
X171765892Y-70497799D01*
X171765894Y-70497799D01*
X171886404Y-70497799D01*
X171886406Y-70497799D01*
X172002814Y-70466607D01*
X172107183Y-70406350D01*
X172192400Y-70321133D01*
X172252657Y-70216764D01*
X172283849Y-70100356D01*
X172283849Y-69979842D01*
X172252657Y-69863434D01*
X172192400Y-69759065D01*
X172192398Y-69759063D01*
X172192396Y-69759060D01*
X172107187Y-69673851D01*
X172107181Y-69673847D01*
X172002815Y-69613591D01*
X171964011Y-69603193D01*
X171886406Y-69582399D01*
X171765892Y-69582399D01*
X171707688Y-69597995D01*
X171649482Y-69613591D01*
X171545116Y-69673847D01*
X171545110Y-69673851D01*
X171459901Y-69759060D01*
X171459897Y-69759066D01*
X171399641Y-69863432D01*
X171378846Y-69941039D01*
X171368449Y-69979842D01*
X165882550Y-69979842D01*
X165882550Y-69154842D01*
X169387249Y-69154842D01*
X169387249Y-69275356D01*
X169408043Y-69352961D01*
X169418441Y-69391765D01*
X169478697Y-69496131D01*
X169478701Y-69496137D01*
X169563910Y-69581346D01*
X169563913Y-69581348D01*
X169563915Y-69581350D01*
X169668284Y-69641607D01*
X169784692Y-69672799D01*
X169784694Y-69672799D01*
X169905204Y-69672799D01*
X169905206Y-69672799D01*
X170021614Y-69641607D01*
X170125983Y-69581350D01*
X170211200Y-69496133D01*
X170271457Y-69391764D01*
X170302649Y-69275356D01*
X170302649Y-69154842D01*
X170271457Y-69038434D01*
X170211200Y-68934065D01*
X170211198Y-68934063D01*
X170211196Y-68934060D01*
X170125987Y-68848851D01*
X170125981Y-68848847D01*
X170021615Y-68788591D01*
X169982811Y-68778193D01*
X169905206Y-68757399D01*
X169784692Y-68757399D01*
X169726488Y-68772995D01*
X169668282Y-68788591D01*
X169563916Y-68848847D01*
X169563910Y-68848851D01*
X169478701Y-68934060D01*
X169478697Y-68934066D01*
X169418441Y-69038432D01*
X169397646Y-69116039D01*
X169387249Y-69154842D01*
X165882550Y-69154842D01*
X165882550Y-68329842D01*
X171368449Y-68329842D01*
X171368449Y-68450356D01*
X171389243Y-68527961D01*
X171399641Y-68566765D01*
X171459897Y-68671131D01*
X171459901Y-68671137D01*
X171545110Y-68756346D01*
X171545113Y-68756348D01*
X171545115Y-68756350D01*
X171649484Y-68816607D01*
X171765892Y-68847799D01*
X171765894Y-68847799D01*
X171886404Y-68847799D01*
X171886406Y-68847799D01*
X172002814Y-68816607D01*
X172107183Y-68756350D01*
X172192400Y-68671133D01*
X172252657Y-68566764D01*
X172283849Y-68450356D01*
X172283849Y-68329842D01*
X172252657Y-68213434D01*
X172192400Y-68109065D01*
X172192398Y-68109063D01*
X172192396Y-68109060D01*
X172107187Y-68023851D01*
X172107181Y-68023847D01*
X172002815Y-67963591D01*
X171964011Y-67953193D01*
X171886406Y-67932399D01*
X171765892Y-67932399D01*
X171707688Y-67947995D01*
X171649482Y-67963591D01*
X171545116Y-68023847D01*
X171545110Y-68023851D01*
X171459901Y-68109060D01*
X171459897Y-68109066D01*
X171399641Y-68213432D01*
X171378846Y-68291039D01*
X171368449Y-68329842D01*
X165882550Y-68329842D01*
X165882550Y-64972299D01*
X165900143Y-64923961D01*
X165944692Y-64898241D01*
X165957750Y-64897099D01*
X167279100Y-64897099D01*
X167327438Y-64914692D01*
G37*
%TD.AperFunction*%
%TD*%
%TA.AperFunction,Conductor*%
%TO.N,VBATT*%
G36*
X162909288Y-91813292D02*
G01*
X162935008Y-91857841D01*
X162936150Y-91870899D01*
X162936150Y-97486299D01*
X162918557Y-97534637D01*
X162874008Y-97560357D01*
X162860950Y-97561499D01*
X138094950Y-97561499D01*
X138094950Y-95799442D01*
X146210251Y-95799442D01*
X146210251Y-95919956D01*
X146231045Y-95997561D01*
X146241443Y-96036365D01*
X146301699Y-96140731D01*
X146301703Y-96140737D01*
X146386912Y-96225946D01*
X146386915Y-96225948D01*
X146386917Y-96225950D01*
X146491286Y-96286207D01*
X146607694Y-96317399D01*
X146607696Y-96317399D01*
X146728206Y-96317399D01*
X146728208Y-96317399D01*
X146844616Y-96286207D01*
X146948985Y-96225950D01*
X147034202Y-96140733D01*
X147094459Y-96036364D01*
X147125651Y-95919956D01*
X147125651Y-95799442D01*
X147094459Y-95683034D01*
X147034202Y-95578665D01*
X147034200Y-95578663D01*
X147034198Y-95578660D01*
X146948989Y-95493451D01*
X146948983Y-95493447D01*
X146844617Y-95433191D01*
X146805813Y-95422793D01*
X146728208Y-95401999D01*
X146607694Y-95401999D01*
X146549490Y-95417595D01*
X146491284Y-95433191D01*
X146386918Y-95493447D01*
X146386912Y-95493451D01*
X146301703Y-95578660D01*
X146301699Y-95578666D01*
X146241443Y-95683032D01*
X146220648Y-95760639D01*
X146210251Y-95799442D01*
X138094950Y-95799442D01*
X138094950Y-94004499D01*
X138112543Y-93956161D01*
X138157092Y-93930441D01*
X138170150Y-93929299D01*
X146296317Y-93929299D01*
X146344655Y-93946892D01*
X146370375Y-93991441D01*
X146361442Y-94042099D01*
X146349491Y-94057673D01*
X146301703Y-94105460D01*
X146301699Y-94105466D01*
X146241443Y-94209832D01*
X146220648Y-94287439D01*
X146210251Y-94326242D01*
X146210251Y-94446756D01*
X146224182Y-94498746D01*
X146241443Y-94563165D01*
X146301699Y-94667531D01*
X146301703Y-94667537D01*
X146386912Y-94752746D01*
X146386915Y-94752748D01*
X146386917Y-94752750D01*
X146491286Y-94813007D01*
X146607694Y-94844199D01*
X146607696Y-94844199D01*
X146728206Y-94844199D01*
X146728208Y-94844199D01*
X146844616Y-94813007D01*
X146948985Y-94752750D01*
X147034202Y-94667533D01*
X147094459Y-94563164D01*
X147125651Y-94446756D01*
X147125651Y-94326242D01*
X147094459Y-94209834D01*
X147034202Y-94105465D01*
X147034200Y-94105463D01*
X147034198Y-94105460D01*
X146986411Y-94057673D01*
X146964671Y-94011053D01*
X146977985Y-93961366D01*
X147020122Y-93931861D01*
X147039585Y-93929299D01*
X151242750Y-93929299D01*
X151291088Y-93946892D01*
X151316808Y-93991441D01*
X151315388Y-94023961D01*
X151302451Y-94072242D01*
X151302451Y-94192756D01*
X151323245Y-94270361D01*
X151333643Y-94309165D01*
X151393899Y-94413531D01*
X151393903Y-94413537D01*
X151479112Y-94498746D01*
X151479115Y-94498748D01*
X151479117Y-94498750D01*
X151583486Y-94559007D01*
X151699894Y-94590199D01*
X151699896Y-94590199D01*
X151820406Y-94590199D01*
X151820408Y-94590199D01*
X151936816Y-94559007D01*
X152041185Y-94498750D01*
X152126402Y-94413533D01*
X152186659Y-94309164D01*
X152217851Y-94192756D01*
X152217851Y-94072242D01*
X152204914Y-94023961D01*
X152209398Y-93972718D01*
X152245771Y-93936345D01*
X152277552Y-93929299D01*
X157094150Y-93929299D01*
X157094150Y-91870899D01*
X157111743Y-91822561D01*
X157156292Y-91796841D01*
X157169350Y-91795699D01*
X162860950Y-91795699D01*
X162909288Y-91813292D01*
G37*
%TD.AperFunction*%
%TD*%
%TA.AperFunction,Conductor*%
%TO.N,VBATT*%
G36*
X142108150Y-115576313D02*
G01*
X142090557Y-115624651D01*
X142046008Y-115650371D01*
X141995350Y-115641438D01*
X141903816Y-115588591D01*
X141857994Y-115576313D01*
X141787407Y-115557399D01*
X141666893Y-115557399D01*
X141608689Y-115572995D01*
X141550483Y-115588591D01*
X141446117Y-115648847D01*
X141446111Y-115648851D01*
X141360902Y-115734060D01*
X141360898Y-115734066D01*
X141300642Y-115838432D01*
X141269450Y-115954843D01*
X141269450Y-116002899D01*
X141251857Y-116051237D01*
X141207308Y-116076957D01*
X141194250Y-116078099D01*
X140786850Y-116078099D01*
X140738512Y-116060506D01*
X140712792Y-116015957D01*
X140711650Y-116002899D01*
X140711650Y-115954843D01*
X140680457Y-115838432D01*
X140667723Y-115816377D01*
X140620201Y-115734065D01*
X140620199Y-115734063D01*
X140620197Y-115734060D01*
X140534988Y-115648851D01*
X140534982Y-115648847D01*
X140430616Y-115588591D01*
X140384794Y-115576313D01*
X140314207Y-115557399D01*
X140193693Y-115557399D01*
X140135489Y-115572995D01*
X140077283Y-115588591D01*
X139972917Y-115648847D01*
X139972911Y-115648851D01*
X139887702Y-115734060D01*
X139887698Y-115734066D01*
X139827442Y-115838432D01*
X139796250Y-115954843D01*
X139796250Y-116002899D01*
X139778657Y-116051237D01*
X139734108Y-116076957D01*
X139721050Y-116078099D01*
X129000750Y-116078099D01*
X128952412Y-116060506D01*
X128926692Y-116015957D01*
X128925550Y-116002899D01*
X128925550Y-113714899D01*
X128943143Y-113666561D01*
X128987692Y-113640841D01*
X129000750Y-113639699D01*
X132710150Y-113639699D01*
X132710150Y-113071442D01*
X138259250Y-113071442D01*
X138259250Y-113191956D01*
X138280044Y-113269561D01*
X138290442Y-113308365D01*
X138350698Y-113412731D01*
X138350702Y-113412737D01*
X138435911Y-113497946D01*
X138435914Y-113497948D01*
X138435916Y-113497950D01*
X138540285Y-113558207D01*
X138656693Y-113589399D01*
X138656695Y-113589399D01*
X138777205Y-113589399D01*
X138777207Y-113589399D01*
X138893615Y-113558207D01*
X138997984Y-113497950D01*
X139083201Y-113412733D01*
X139143458Y-113308364D01*
X139174650Y-113191956D01*
X139174650Y-113071442D01*
X139143458Y-112955034D01*
X139083201Y-112850665D01*
X139083199Y-112850663D01*
X139083197Y-112850660D01*
X138997988Y-112765451D01*
X138997982Y-112765447D01*
X138893616Y-112705191D01*
X138854812Y-112694793D01*
X138777207Y-112673999D01*
X138656693Y-112673999D01*
X138598489Y-112689595D01*
X138540283Y-112705191D01*
X138435917Y-112765447D01*
X138435911Y-112765451D01*
X138350702Y-112850660D01*
X138350698Y-112850666D01*
X138290442Y-112955032D01*
X138269647Y-113032639D01*
X138259250Y-113071442D01*
X132710150Y-113071442D01*
X132710150Y-111110142D01*
X138232950Y-111110142D01*
X138232950Y-111230656D01*
X138238145Y-111250042D01*
X138264142Y-111347065D01*
X138324398Y-111451431D01*
X138324402Y-111451437D01*
X138409611Y-111536646D01*
X138409614Y-111536648D01*
X138409616Y-111536650D01*
X138513985Y-111596907D01*
X138630393Y-111628099D01*
X138630395Y-111628099D01*
X138750905Y-111628099D01*
X138750907Y-111628099D01*
X138867315Y-111596907D01*
X138971684Y-111536650D01*
X139056901Y-111451433D01*
X139100525Y-111375872D01*
X139139930Y-111342808D01*
X139191369Y-111342808D01*
X139230775Y-111375873D01*
X139274398Y-111451431D01*
X139274402Y-111451437D01*
X139359611Y-111536646D01*
X139359614Y-111536648D01*
X139359616Y-111536650D01*
X139463985Y-111596907D01*
X139580393Y-111628099D01*
X139580395Y-111628099D01*
X139700905Y-111628099D01*
X139700907Y-111628099D01*
X139817315Y-111596907D01*
X139921684Y-111536650D01*
X140006901Y-111451433D01*
X140067158Y-111347064D01*
X140098350Y-111230656D01*
X140098350Y-111110142D01*
X140067158Y-110993734D01*
X140006901Y-110889365D01*
X140006899Y-110889363D01*
X140006897Y-110889360D01*
X139921688Y-110804151D01*
X139921682Y-110804147D01*
X139817316Y-110743891D01*
X139778512Y-110733493D01*
X139700907Y-110712699D01*
X139580393Y-110712699D01*
X139522189Y-110728295D01*
X139463983Y-110743891D01*
X139359617Y-110804147D01*
X139359611Y-110804151D01*
X139274402Y-110889360D01*
X139274398Y-110889366D01*
X139230775Y-110964924D01*
X139191370Y-110997989D01*
X139139930Y-110997989D01*
X139100525Y-110964924D01*
X139084614Y-110937367D01*
X139056901Y-110889365D01*
X139056899Y-110889363D01*
X139056897Y-110889360D01*
X138971688Y-110804151D01*
X138971682Y-110804147D01*
X138867316Y-110743891D01*
X138828512Y-110733493D01*
X138750907Y-110712699D01*
X138630393Y-110712699D01*
X138572189Y-110728295D01*
X138513983Y-110743891D01*
X138409617Y-110804147D01*
X138409611Y-110804151D01*
X138324402Y-110889360D01*
X138324398Y-110889366D01*
X138264142Y-110993732D01*
X138254621Y-111029265D01*
X138232950Y-111110142D01*
X132710150Y-111110142D01*
X132710150Y-109752499D01*
X132727743Y-109704161D01*
X132772292Y-109678441D01*
X132785350Y-109677299D01*
X138094950Y-109677299D01*
X138094950Y-97561499D01*
X142108150Y-97561499D01*
X142108150Y-115576313D01*
G37*
%TD.AperFunction*%
%TD*%
%TA.AperFunction,Conductor*%
%TO.N,/Light Sensor/LS_3V3*%
G36*
X167127150Y-76886899D02*
G01*
X167109557Y-76935237D01*
X167065008Y-76960957D01*
X167051950Y-76962099D01*
X165957750Y-76962099D01*
X165909412Y-76944506D01*
X165883692Y-76899957D01*
X165882550Y-76886899D01*
X165882550Y-75488899D01*
X167127150Y-75488899D01*
X167127150Y-76886899D01*
G37*
%TD.AperFunction*%
%TD*%
M02*
