%TF.GenerationSoftware,KiCad,Pcbnew,9.0.7*%
%TF.CreationDate,2026-02-05T16:51:58-05:00*%
%TF.ProjectId,Avionics-SolarPanels,4176696f-6e69-4637-932d-536f6c617250,rev?*%
%TF.SameCoordinates,Original*%
%TF.FileFunction,Paste,Top*%
%TF.FilePolarity,Positive*%
%FSLAX46Y46*%
G04 Gerber Fmt 4.6, Leading zero omitted, Abs format (unit mm)*
G04 Created by KiCad (PCBNEW 9.0.7) date 2026-02-05 16:51:58*
%MOMM*%
%LPD*%
G01*
G04 APERTURE LIST*
G04 Aperture macros list*
%AMRoundRect*
0 Rectangle with rounded corners*
0 $1 Rounding radius*
0 $2 $3 $4 $5 $6 $7 $8 $9 X,Y pos of 4 corners*
0 Add a 4 corners polygon primitive as box body*
4,1,4,$2,$3,$4,$5,$6,$7,$8,$9,$2,$3,0*
0 Add four circle primitives for the rounded corners*
1,1,$1+$1,$2,$3*
1,1,$1+$1,$4,$5*
1,1,$1+$1,$6,$7*
1,1,$1+$1,$8,$9*
0 Add four rect primitives between the rounded corners*
20,1,$1+$1,$2,$3,$4,$5,0*
20,1,$1+$1,$4,$5,$6,$7,0*
20,1,$1+$1,$6,$7,$8,$9,0*
20,1,$1+$1,$8,$9,$2,$3,0*%
G04 Aperture macros list end*
%ADD10R,0.660400X0.254000*%
%ADD11R,0.762000X1.447800*%
%ADD12C,3.200000*%
%ADD13RoundRect,0.062500X0.062500X-0.127500X0.062500X0.127500X-0.062500X0.127500X-0.062500X-0.127500X0*%
%ADD14RoundRect,0.125000X0.125000X-0.125000X0.125000X0.125000X-0.125000X0.125000X-0.125000X-0.125000X0*%
%ADD15RoundRect,0.225000X0.225000X0.250000X-0.225000X0.250000X-0.225000X-0.250000X0.225000X-0.250000X0*%
%ADD16RoundRect,0.225000X-0.250000X0.225000X-0.250000X-0.225000X0.250000X-0.225000X0.250000X0.225000X0*%
%ADD17RoundRect,0.200000X0.275000X-0.200000X0.275000X0.200000X-0.275000X0.200000X-0.275000X-0.200000X0*%
%ADD18RoundRect,0.250000X-0.500000X0.950000X-0.500000X-0.950000X0.500000X-0.950000X0.500000X0.950000X0*%
%ADD19RoundRect,0.250000X-0.500000X0.275000X-0.500000X-0.275000X0.500000X-0.275000X0.500000X0.275000X0*%
%ADD20RoundRect,0.250000X-0.950000X-0.500000X0.950000X-0.500000X0.950000X0.500000X-0.950000X0.500000X0*%
%ADD21RoundRect,0.250000X-0.275000X-0.500000X0.275000X-0.500000X0.275000X0.500000X-0.275000X0.500000X0*%
G04 APERTURE END LIST*
D10*
%TO.C,U1*%
X150731450Y-55484100D03*
X150731450Y-56134099D03*
X150731450Y-56784098D03*
X152788850Y-56784098D03*
X152788850Y-56134099D03*
X152788850Y-55484100D03*
D11*
X151760150Y-56134099D03*
%TD*%
D12*
%TO.C,SC4*%
X176283850Y-88853899D03*
X176283850Y-92853899D03*
X176283850Y-56853899D03*
X176283850Y-60853899D03*
%TD*%
%TO.C,SC5*%
X176283850Y-130853899D03*
X176283850Y-134853899D03*
X176283850Y-98853899D03*
X176283850Y-102853899D03*
%TD*%
D13*
%TO.C,U11*%
X112561450Y-68516699D03*
D14*
X112436450Y-68376699D03*
X112436450Y-67576699D03*
X112436451Y-66776699D03*
X112436450Y-65976699D03*
X112436450Y-65176699D03*
X113236450Y-65176699D03*
X114036450Y-65176699D03*
X114036450Y-65976699D03*
X114036449Y-66776699D03*
X114036450Y-67576699D03*
X114036450Y-68376699D03*
X113236450Y-68376699D03*
%TD*%
D15*
%TO.C,C46*%
X114011450Y-70205699D03*
X112461450Y-70205699D03*
%TD*%
D12*
%TO.C,SC1*%
X127236450Y-88853899D03*
X127236450Y-92853899D03*
X127236450Y-56853899D03*
X127236450Y-60853899D03*
%TD*%
D16*
%TO.C,C1*%
X147539589Y-55359099D03*
X147539589Y-56909099D03*
%TD*%
D17*
%TO.C,R2*%
X149012789Y-57784100D03*
X149012789Y-56134100D03*
%TD*%
D12*
%TO.C,SC3*%
X151760150Y-75598499D03*
X151760150Y-139598499D03*
X151760150Y-132598499D03*
%TD*%
D18*
%TO.C,D5*%
X190283850Y-117703899D03*
D19*
X190283850Y-115328899D03*
%TD*%
D12*
%TO.C,SC6*%
X151760150Y-107598499D03*
X151760150Y-103598499D03*
X151760150Y-139598499D03*
X151760150Y-135598499D03*
%TD*%
D18*
%TO.C,D4*%
X190283850Y-75703899D03*
D19*
X190283850Y-73328899D03*
%TD*%
D18*
%TO.C,D2*%
X113236450Y-117703899D03*
D19*
X113236450Y-115328899D03*
%TD*%
D20*
%TO.C,D3*%
X166884950Y-140690699D03*
D21*
X164509950Y-140690699D03*
%TD*%
D18*
%TO.C,D1*%
X113236450Y-75703899D03*
D19*
X113236450Y-73328899D03*
%TD*%
D17*
%TO.C,R1*%
X149012789Y-56134098D03*
X149012789Y-54484098D03*
%TD*%
D12*
%TO.C,SC2*%
X127236450Y-130853899D03*
X127236450Y-134853899D03*
X127236450Y-98853899D03*
X127236450Y-102853899D03*
%TD*%
M02*
