%TF.GenerationSoftware,KiCad,Pcbnew,9.0.7*%
%TF.CreationDate,2026-02-05T16:51:58-05:00*%
%TF.ProjectId,Avionics-SolarPanels,4176696f-6e69-4637-932d-536f6c617250,rev?*%
%TF.SameCoordinates,Original*%
%TF.FileFunction,Paste,Bot*%
%TF.FilePolarity,Positive*%
%FSLAX46Y46*%
G04 Gerber Fmt 4.6, Leading zero omitted, Abs format (unit mm)*
G04 Created by KiCad (PCBNEW 9.0.7) date 2026-02-05 16:51:58*
%MOMM*%
%LPD*%
G01*
G04 APERTURE LIST*
G04 Aperture macros list*
%AMRoundRect*
0 Rectangle with rounded corners*
0 $1 Rounding radius*
0 $2 $3 $4 $5 $6 $7 $8 $9 X,Y pos of 4 corners*
0 Add a 4 corners polygon primitive as box body*
4,1,4,$2,$3,$4,$5,$6,$7,$8,$9,$2,$3,0*
0 Add four circle primitives for the rounded corners*
1,1,$1+$1,$2,$3*
1,1,$1+$1,$4,$5*
1,1,$1+$1,$6,$7*
1,1,$1+$1,$8,$9*
0 Add four rect primitives between the rounded corners*
20,1,$1+$1,$2,$3,$4,$5,0*
20,1,$1+$1,$4,$5,$6,$7,0*
20,1,$1+$1,$6,$7,$8,$9,0*
20,1,$1+$1,$8,$9,$2,$3,0*%
%AMFreePoly0*
4,1,11,1.015000,1.170000,0.435000,0.575000,0.435000,-0.575000,1.015000,-1.170000,1.015000,-1.945000,0.125000,-1.945000,-0.435000,-1.395000,-0.435000,1.395000,0.125000,1.945000,1.015000,1.945000,1.015000,1.170000,1.015000,1.170000,$1*%
%AMFreePoly1*
4,1,11,0.435000,1.395000,0.435000,-1.395000,-0.125000,-1.945000,-1.015000,-1.945000,-1.015000,-1.170000,-0.435000,-0.575000,-0.435000,0.575000,-1.015000,1.170000,-1.015000,1.945000,-0.125000,1.945000,0.435000,1.395000,0.435000,1.395000,$1*%
G04 Aperture macros list end*
%ADD10RoundRect,0.100000X-0.100000X0.225000X-0.100000X-0.225000X0.100000X-0.225000X0.100000X0.225000X0*%
%ADD11RoundRect,0.200000X-0.200000X-0.275000X0.200000X-0.275000X0.200000X0.275000X-0.200000X0.275000X0*%
%ADD12RoundRect,0.250000X-0.300000X0.300000X-0.300000X-0.300000X0.300000X-0.300000X0.300000X0.300000X0*%
%ADD13RoundRect,0.225000X0.250000X-0.225000X0.250000X0.225000X-0.250000X0.225000X-0.250000X-0.225000X0*%
%ADD14RoundRect,0.200000X-0.275000X0.200000X-0.275000X-0.200000X0.275000X-0.200000X0.275000X0.200000X0*%
%ADD15RoundRect,0.150000X0.150000X-0.512500X0.150000X0.512500X-0.150000X0.512500X-0.150000X-0.512500X0*%
%ADD16FreePoly0,90.000000*%
%ADD17FreePoly1,90.000000*%
%ADD18RoundRect,0.100000X0.100000X-0.225000X0.100000X0.225000X-0.100000X0.225000X-0.100000X-0.225000X0*%
%ADD19RoundRect,0.250000X-1.100000X0.325000X-1.100000X-0.325000X1.100000X-0.325000X1.100000X0.325000X0*%
%ADD20RoundRect,0.225000X0.225000X0.250000X-0.225000X0.250000X-0.225000X-0.250000X0.225000X-0.250000X0*%
%ADD21RoundRect,0.225000X-0.250000X0.225000X-0.250000X-0.225000X0.250000X-0.225000X0.250000X0.225000X0*%
%ADD22RoundRect,0.200000X0.200000X0.275000X-0.200000X0.275000X-0.200000X-0.275000X0.200000X-0.275000X0*%
%ADD23RoundRect,0.218750X-0.256250X0.218750X-0.256250X-0.218750X0.256250X-0.218750X0.256250X0.218750X0*%
%ADD24RoundRect,0.250000X-0.250000X-0.475000X0.250000X-0.475000X0.250000X0.475000X-0.250000X0.475000X0*%
%ADD25RoundRect,0.200000X0.275000X-0.200000X0.275000X0.200000X-0.275000X0.200000X-0.275000X-0.200000X0*%
%ADD26R,0.610000X1.270000*%
%ADD27R,3.910000X3.810000*%
%ADD28R,0.610000X1.020000*%
%ADD29RoundRect,0.218750X0.218750X0.256250X-0.218750X0.256250X-0.218750X-0.256250X0.218750X-0.256250X0*%
%ADD30RoundRect,0.250000X-0.325000X-1.100000X0.325000X-1.100000X0.325000X1.100000X-0.325000X1.100000X0*%
%ADD31RoundRect,0.218750X0.256250X-0.218750X0.256250X0.218750X-0.256250X0.218750X-0.256250X-0.218750X0*%
%ADD32RoundRect,0.075000X-0.275000X0.390000X-0.275000X-0.390000X0.275000X-0.390000X0.275000X0.390000X0*%
%ADD33RoundRect,0.075000X-0.275000X0.075000X-0.275000X-0.075000X0.275000X-0.075000X0.275000X0.075000X0*%
%ADD34RoundRect,0.218750X-0.218750X-0.256250X0.218750X-0.256250X0.218750X0.256250X-0.218750X0.256250X0*%
%ADD35RoundRect,0.167500X0.367500X-0.167500X0.367500X0.167500X-0.367500X0.167500X-0.367500X-0.167500X0*%
%ADD36RoundRect,0.062500X0.062500X-0.362500X0.062500X0.362500X-0.062500X0.362500X-0.062500X-0.362500X0*%
%ADD37RoundRect,0.062500X0.362500X-0.062500X0.362500X0.062500X-0.362500X0.062500X-0.362500X-0.062500X0*%
%ADD38R,0.812800X0.254000*%
%ADD39R,0.254000X0.812800*%
%ADD40R,1.752600X1.752600*%
%ADD41RoundRect,0.150000X0.150000X-0.587500X0.150000X0.587500X-0.150000X0.587500X-0.150000X-0.587500X0*%
%ADD42R,0.600000X1.900000*%
%ADD43R,2.100000X2.800000*%
%ADD44RoundRect,0.250000X-1.425000X0.362500X-1.425000X-0.362500X1.425000X-0.362500X1.425000X0.362500X0*%
%ADD45RoundRect,0.225000X-0.225000X-0.250000X0.225000X-0.250000X0.225000X0.250000X-0.225000X0.250000X0*%
%ADD46RoundRect,0.087500X-0.725000X-0.087500X0.725000X-0.087500X0.725000X0.087500X-0.725000X0.087500X0*%
G04 APERTURE END LIST*
D10*
%TO.C,Q4*%
X173157350Y-72938699D03*
X173807350Y-72938700D03*
X174457350Y-72938699D03*
X174457350Y-74838699D03*
X173807350Y-74838698D03*
X173157350Y-74838699D03*
%TD*%
D11*
%TO.C,R86*%
X146667951Y-94386499D03*
X148317951Y-94386499D03*
%TD*%
D12*
%TO.C,D6*%
X173756550Y-108632899D03*
X173756550Y-111432899D03*
%TD*%
D13*
%TO.C,C41*%
X153969951Y-90652698D03*
X153969951Y-89102698D03*
%TD*%
D14*
%TO.C,R48*%
X135656550Y-79693100D03*
X135656550Y-81343100D03*
%TD*%
D15*
%TO.C,U5*%
X140590650Y-111170399D03*
X139640650Y-111170399D03*
X138690650Y-111170399D03*
X138690650Y-108895399D03*
X139640650Y-108895399D03*
X140590650Y-108895399D03*
%TD*%
D16*
%TO.C,L1*%
X182494150Y-123608899D03*
D17*
X182494150Y-120078899D03*
%TD*%
D14*
%TO.C,R72*%
X175813950Y-79693099D03*
X175813950Y-81343099D03*
%TD*%
D18*
%TO.C,Q19*%
X130337550Y-70165099D03*
X129687550Y-70165098D03*
X129037550Y-70165099D03*
X129037550Y-68265099D03*
X129687550Y-68265100D03*
X130337550Y-68265099D03*
%TD*%
D19*
%TO.C,C8*%
X175763150Y-128649299D03*
X175763150Y-131599299D03*
%TD*%
D20*
%TO.C,C39*%
X167902150Y-79781499D03*
X166352150Y-79781499D03*
%TD*%
D14*
%TO.C,R14*%
X171826150Y-73063699D03*
X171826150Y-74713699D03*
%TD*%
D18*
%TO.C,Q10*%
X170494950Y-81595099D03*
X169844950Y-81595098D03*
X169194950Y-81595099D03*
X169194950Y-79695099D03*
X169844950Y-79695100D03*
X170494950Y-79695099D03*
%TD*%
D21*
%TO.C,C15*%
X173527950Y-125386899D03*
X173527950Y-126936899D03*
%TD*%
D20*
%TO.C,C4*%
X129802150Y-98221899D03*
X128252150Y-98221899D03*
%TD*%
D22*
%TO.C,R93*%
X137218150Y-71551899D03*
X135568150Y-71551899D03*
%TD*%
D20*
%TO.C,C35*%
X155786350Y-113131699D03*
X154236350Y-113131699D03*
%TD*%
D23*
%TO.C,F3*%
X154350950Y-130251199D03*
X154350950Y-131826199D03*
%TD*%
D24*
%TO.C,C31*%
X144942750Y-117322699D03*
X146842750Y-117322699D03*
%TD*%
D14*
%TO.C,R3*%
X177287149Y-68263099D03*
X177287149Y-69913099D03*
%TD*%
D20*
%TO.C,C44*%
X127719350Y-68351499D03*
X126169350Y-68351499D03*
%TD*%
D14*
%TO.C,R55*%
X172740550Y-116015099D03*
X172740550Y-117665099D03*
%TD*%
D19*
%TO.C,C37*%
X157983150Y-97508899D03*
X157983150Y-100458899D03*
%TD*%
%TO.C,C26*%
X144775150Y-128649299D03*
X144775150Y-131599299D03*
%TD*%
D18*
%TO.C,Q5*%
X130362950Y-86268699D03*
X129712950Y-86268698D03*
X129062950Y-86268699D03*
X129062950Y-84368699D03*
X129712950Y-84368700D03*
X130362950Y-84368699D03*
%TD*%
D22*
%TO.C,R80*%
X177375550Y-84683699D03*
X175725550Y-84683699D03*
%TD*%
D25*
%TO.C,R118*%
X153593800Y-126986800D03*
X153593800Y-125336800D03*
%TD*%
D11*
%TO.C,R34*%
X139505150Y-122072499D03*
X141155150Y-122072499D03*
%TD*%
D25*
%TO.C,R54*%
X171267350Y-117665099D03*
X171267350Y-116015099D03*
%TD*%
D26*
%TO.C,Q17*%
X145029150Y-106473898D03*
X146299150Y-106473899D03*
X147569150Y-106473899D03*
X148839150Y-106473898D03*
D27*
X146934150Y-109833899D03*
D28*
X148839150Y-111938899D03*
X147569150Y-111938899D03*
X146299150Y-111938899D03*
X145029150Y-111938899D03*
%TD*%
D25*
%TO.C,R33*%
X143200350Y-117665099D03*
X143200350Y-116015099D03*
%TD*%
D11*
%TO.C,R50*%
X126144751Y-81280099D03*
X127794751Y-81280099D03*
%TD*%
D25*
%TO.C,R51*%
X131694150Y-81470099D03*
X131694150Y-79820099D03*
%TD*%
D14*
%TO.C,R5*%
X175813949Y-68263099D03*
X175813949Y-69913099D03*
%TD*%
D24*
%TO.C,C19*%
X162824350Y-126466699D03*
X164724350Y-126466699D03*
%TD*%
D11*
%TO.C,R101*%
X126119351Y-69850099D03*
X127769351Y-69850099D03*
%TD*%
D29*
%TO.C,F2*%
X170180100Y-128549400D03*
X168605100Y-128549400D03*
%TD*%
D11*
%TO.C,R74*%
X166302150Y-81280098D03*
X167952150Y-81280098D03*
%TD*%
D18*
%TO.C,Q3*%
X170494949Y-74838699D03*
X169844949Y-74838698D03*
X169194949Y-74838699D03*
X169194949Y-72938699D03*
X169844949Y-72938700D03*
X170494949Y-72938699D03*
%TD*%
D10*
%TO.C,Q6*%
X133025350Y-84368699D03*
X133675350Y-84368700D03*
X134325350Y-84368699D03*
X134325350Y-86268699D03*
X133675350Y-86268698D03*
X133025350Y-86268699D03*
%TD*%
D13*
%TO.C,C42*%
X152496751Y-90652699D03*
X152496751Y-89102699D03*
%TD*%
%TO.C,C21*%
X163952150Y-120764699D03*
X163952150Y-119214699D03*
%TD*%
D22*
%TO.C,R56*%
X156649150Y-120599299D03*
X154999150Y-120599299D03*
%TD*%
D24*
%TO.C,C18*%
X162824350Y-128422499D03*
X164724350Y-128422499D03*
%TD*%
D25*
%TO.C,R64*%
X171537949Y-95287699D03*
X171537949Y-93637699D03*
%TD*%
D14*
%TO.C,R70*%
X177287150Y-79693099D03*
X177287150Y-81343099D03*
%TD*%
D30*
%TO.C,C32*%
X145001950Y-114731899D03*
X147951950Y-114731899D03*
%TD*%
D25*
%TO.C,R9*%
X166390549Y-74840700D03*
X166390549Y-73190700D03*
%TD*%
D16*
%TO.C,L2*%
X167000150Y-123608899D03*
D17*
X167000150Y-120078899D03*
%TD*%
D22*
%TO.C,R71*%
X170923950Y-82981899D03*
X169273950Y-82981899D03*
%TD*%
D25*
%TO.C,R91*%
X127706350Y-74815299D03*
X127706350Y-73165299D03*
%TD*%
%TO.C,R22*%
X155062150Y-126986899D03*
X155062150Y-125336899D03*
%TD*%
D20*
%TO.C,C2*%
X167902149Y-68351499D03*
X166352149Y-68351499D03*
%TD*%
D21*
%TO.C,C24*%
X158008550Y-125386899D03*
X158008550Y-126936899D03*
%TD*%
D14*
%TO.C,R98*%
X137104351Y-68263099D03*
X137104351Y-69913099D03*
%TD*%
D22*
%TO.C,R102*%
X137218150Y-73268900D03*
X135568150Y-73268900D03*
%TD*%
D31*
%TO.C,F6*%
X122600950Y-100482599D03*
X122600950Y-98907599D03*
%TD*%
D12*
%TO.C,D8*%
X142688650Y-108632899D03*
X142688650Y-111432899D03*
%TD*%
D18*
%TO.C,Q2*%
X170494949Y-70165099D03*
X169844949Y-70165098D03*
X169194949Y-70165099D03*
X169194949Y-68265099D03*
X169844949Y-68265100D03*
X170494949Y-68265099D03*
%TD*%
D22*
%TO.C,R52*%
X172143150Y-120599299D03*
X170493150Y-120599299D03*
%TD*%
D14*
%TO.C,R63*%
X141727150Y-116015099D03*
X141727150Y-117665099D03*
%TD*%
D11*
%TO.C,R6*%
X166302150Y-71551899D03*
X167952150Y-71551899D03*
%TD*%
D20*
%TO.C,C36*%
X140266950Y-113131699D03*
X138716950Y-113131699D03*
%TD*%
D25*
%TO.C,R62*%
X140253950Y-117665099D03*
X140253950Y-116015099D03*
%TD*%
D24*
%TO.C,C10*%
X178292950Y-128422499D03*
X180192950Y-128422499D03*
%TD*%
D25*
%TO.C,R17*%
X176474350Y-126986899D03*
X176474350Y-125336899D03*
%TD*%
D26*
%TO.C,Q15*%
X176042550Y-106473898D03*
X177312550Y-106473899D03*
X178582550Y-106473899D03*
X179852550Y-106473898D03*
D27*
X177947550Y-109833899D03*
D28*
X179852550Y-111938899D03*
X178582550Y-111938899D03*
X177312550Y-111938899D03*
X176042550Y-111938899D03*
%TD*%
D25*
%TO.C,R11*%
X167863749Y-74840699D03*
X167863749Y-73190699D03*
%TD*%
D10*
%TO.C,Q21*%
X132999950Y-72928500D03*
X133649950Y-72928501D03*
X134299950Y-72928500D03*
X134299950Y-74828500D03*
X133649950Y-74828499D03*
X132999950Y-74828500D03*
%TD*%
D24*
%TO.C,C28*%
X147355750Y-128422499D03*
X149255750Y-128422499D03*
%TD*%
D14*
%TO.C,R81*%
X171826150Y-84493699D03*
X171826150Y-86143699D03*
%TD*%
D22*
%TO.C,R60*%
X141155150Y-120599299D03*
X139505150Y-120599299D03*
%TD*%
D32*
%TO.C,D10*%
X160573950Y-97682900D03*
D33*
X160573950Y-98567899D03*
%TD*%
D22*
%TO.C,R21*%
X172143150Y-123545699D03*
X170493150Y-123545699D03*
%TD*%
D25*
%TO.C,R42*%
X127706350Y-86270699D03*
X127706350Y-84620699D03*
%TD*%
D14*
%TO.C,R23*%
X156535350Y-125336899D03*
X156535350Y-126986899D03*
%TD*%
D23*
%TO.C,F5*%
X122600950Y-102463599D03*
X122600950Y-104038599D03*
%TD*%
D22*
%TO.C,R79*%
X177375550Y-82981899D03*
X175725550Y-82981899D03*
%TD*%
D25*
%TO.C,R29*%
X139568150Y-126986899D03*
X139568150Y-125336899D03*
%TD*%
D34*
%TO.C,F8*%
X157195650Y-113131699D03*
X158770650Y-113131699D03*
%TD*%
D14*
%TO.C,R68*%
X155265351Y-93307499D03*
X155265351Y-94957499D03*
%TD*%
D11*
%TO.C,R27*%
X154999150Y-122072499D03*
X156649150Y-122072499D03*
%TD*%
D30*
%TO.C,C14*%
X176015350Y-114731899D03*
X178965350Y-114731899D03*
%TD*%
D20*
%TO.C,C38*%
X152789152Y-97637699D03*
X151239152Y-97637699D03*
%TD*%
D15*
%TO.C,U3*%
X171658550Y-111170399D03*
X170708550Y-111170399D03*
X169758550Y-111170399D03*
X169758550Y-108895399D03*
X170708550Y-108895399D03*
X171658550Y-108895399D03*
%TD*%
D25*
%TO.C,R119*%
X138099800Y-126986800D03*
X138099800Y-125336800D03*
%TD*%
D30*
%TO.C,C23*%
X160495950Y-114731899D03*
X163445950Y-114731899D03*
%TD*%
D10*
%TO.C,Q9*%
X173157350Y-79695099D03*
X173807350Y-79695100D03*
X174457350Y-79695099D03*
X174457350Y-81595099D03*
X173807350Y-81595098D03*
X173157350Y-81595099D03*
%TD*%
D35*
%TO.C,U8*%
X143988150Y-122253899D03*
X145308150Y-122253899D03*
X143988150Y-121433899D03*
X145308150Y-121433899D03*
D36*
X145898150Y-123293899D03*
X145398150Y-123293899D03*
X144898150Y-123293899D03*
X144398150Y-123293899D03*
X143898150Y-123293899D03*
X143398150Y-123293899D03*
D37*
X142698150Y-122593899D03*
X142698150Y-122093899D03*
X142698150Y-121593899D03*
X142698150Y-121093899D03*
D36*
X143398150Y-120393899D03*
X143898150Y-120393899D03*
X144398150Y-120393899D03*
X144898150Y-120393899D03*
X145398150Y-120393899D03*
X145898150Y-120393899D03*
D37*
X146598150Y-121093899D03*
X146598150Y-121593899D03*
X146598150Y-122093899D03*
X146598150Y-122593899D03*
%TD*%
D13*
%TO.C,C30*%
X148458150Y-120764699D03*
X148458150Y-119214699D03*
%TD*%
D22*
%TO.C,R65*%
X173087349Y-96672499D03*
X171437349Y-96672499D03*
%TD*%
D21*
%TO.C,C11*%
X179446150Y-122923099D03*
X179446150Y-124473099D03*
%TD*%
D11*
%TO.C,R87*%
X146667951Y-95859700D03*
X148317951Y-95859700D03*
%TD*%
D18*
%TO.C,Q11*%
X170494950Y-86268699D03*
X169844950Y-86268698D03*
X169194950Y-86268699D03*
X169194950Y-84368699D03*
X169844950Y-84368700D03*
X170494950Y-84368699D03*
%TD*%
D34*
%TO.C,F11*%
X126207650Y-76200099D03*
X127782650Y-76200099D03*
%TD*%
D38*
%TO.C,U9*%
X153233351Y-93382498D03*
X153233351Y-93882499D03*
X153233351Y-94382499D03*
X153233351Y-94882500D03*
D39*
X152510152Y-95605699D03*
X152010151Y-95605699D03*
X151510151Y-95605699D03*
X151010150Y-95605699D03*
D38*
X150286951Y-94882500D03*
X150286951Y-94382499D03*
X150286951Y-93882499D03*
X150286951Y-93382498D03*
D39*
X151010150Y-92659299D03*
X151510151Y-92659299D03*
X152010151Y-92659299D03*
X152510152Y-92659299D03*
D40*
X151760151Y-94132499D03*
%TD*%
D25*
%TO.C,R24*%
X160954950Y-126986899D03*
X160954950Y-125336899D03*
%TD*%
D19*
%TO.C,C16*%
X160243750Y-128649299D03*
X160243750Y-131599299D03*
%TD*%
D25*
%TO.C,R19*%
X174213750Y-117665099D03*
X174213750Y-116015099D03*
%TD*%
D11*
%TO.C,R77*%
X172753750Y-82981899D03*
X174403750Y-82981899D03*
%TD*%
D22*
%TO.C,R84*%
X151760150Y-99669699D03*
X150110150Y-99669699D03*
%TD*%
D35*
%TO.C,U6*%
X174976150Y-122253899D03*
X176296150Y-122253899D03*
X174976150Y-121433899D03*
X176296150Y-121433899D03*
D36*
X176886150Y-123293899D03*
X176386150Y-123293899D03*
X175886150Y-123293899D03*
X175386150Y-123293899D03*
X174886150Y-123293899D03*
X174386150Y-123293899D03*
D37*
X173686150Y-122593899D03*
X173686150Y-122093899D03*
X173686150Y-121593899D03*
X173686150Y-121093899D03*
D36*
X174386150Y-120393899D03*
X174886150Y-120393899D03*
X175386150Y-120393899D03*
X175886150Y-120393899D03*
X176386150Y-120393899D03*
X176886150Y-120393899D03*
D37*
X177586150Y-121093899D03*
X177586150Y-121593899D03*
X177586150Y-122093899D03*
X177586150Y-122593899D03*
%TD*%
D22*
%TO.C,R39*%
X133255750Y-98247299D03*
X131605750Y-98247299D03*
%TD*%
D14*
%TO.C,R30*%
X141041350Y-125336899D03*
X141041350Y-126986899D03*
%TD*%
D41*
%TO.C,Q13*%
X170024149Y-94942900D03*
X168124149Y-94942900D03*
X169074149Y-93067900D03*
%TD*%
D35*
%TO.C,U7*%
X159482150Y-122253899D03*
X160802150Y-122253899D03*
X159482150Y-121433899D03*
X160802150Y-121433899D03*
D36*
X161392150Y-123293899D03*
X160892150Y-123293899D03*
X160392150Y-123293899D03*
X159892150Y-123293899D03*
X159392150Y-123293899D03*
X158892150Y-123293899D03*
D37*
X158192150Y-122593899D03*
X158192150Y-122093899D03*
X158192150Y-121593899D03*
X158192150Y-121093899D03*
D36*
X158892150Y-120393899D03*
X159392150Y-120393899D03*
X159892150Y-120393899D03*
X160392150Y-120393899D03*
X160892150Y-120393899D03*
X161392150Y-120393899D03*
D37*
X162092150Y-121093899D03*
X162092150Y-121593899D03*
X162092150Y-122093899D03*
X162092150Y-122593899D03*
%TD*%
D20*
%TO.C,C34*%
X171305750Y-113131699D03*
X169755750Y-113131699D03*
%TD*%
D11*
%TO.C,R20*%
X170493150Y-122072499D03*
X172143150Y-122072499D03*
%TD*%
D19*
%TO.C,C7*%
X172562750Y-128649299D03*
X172562750Y-131599299D03*
%TD*%
D14*
%TO.C,R16*%
X172054750Y-125336899D03*
X172054750Y-126986899D03*
%TD*%
D29*
%TO.C,F10*%
X163460849Y-92862499D03*
X161885849Y-92862499D03*
%TD*%
D22*
%TO.C,R100*%
X130741150Y-71551900D03*
X129091150Y-71551900D03*
%TD*%
D11*
%TO.C,R94*%
X126119351Y-71551900D03*
X127769351Y-71551900D03*
%TD*%
D21*
%TO.C,C33*%
X142514550Y-125386899D03*
X142514550Y-126936899D03*
%TD*%
D16*
%TO.C,L3*%
X151506150Y-123608899D03*
D17*
X151506150Y-120078899D03*
%TD*%
D42*
%TO.C,J1*%
X156260140Y-134170299D03*
X155260140Y-134170299D03*
X154260140Y-134170299D03*
X153260140Y-134170299D03*
X152260141Y-134170299D03*
X151260141Y-134170299D03*
X150260140Y-134170299D03*
X149260140Y-134170299D03*
X148260140Y-134170299D03*
X147260140Y-134170299D03*
D43*
X159410140Y-136520299D03*
X144110160Y-136520299D03*
%TD*%
D14*
%TO.C,R18*%
X175001150Y-125336899D03*
X175001150Y-126986899D03*
%TD*%
D23*
%TO.C,F4*%
X149093150Y-130251199D03*
X149093150Y-131826199D03*
%TD*%
D24*
%TO.C,C22*%
X160436750Y-117322699D03*
X162336750Y-117322699D03*
%TD*%
D25*
%TO.C,R90*%
X149550351Y-90702698D03*
X149550351Y-89052698D03*
%TD*%
D21*
%TO.C,C20*%
X163952150Y-122923099D03*
X163952150Y-124473099D03*
%TD*%
D15*
%TO.C,U10*%
X133863350Y-108808199D03*
X132913350Y-108808199D03*
X131963350Y-108808199D03*
X131963350Y-106533199D03*
X132913350Y-106533199D03*
X133863350Y-106533199D03*
%TD*%
D11*
%TO.C,R36*%
X128202150Y-103208300D03*
X129852150Y-103208300D03*
%TD*%
D44*
%TO.C,R38*%
X125400150Y-98510599D03*
X125400150Y-104435599D03*
%TD*%
D25*
%TO.C,R58*%
X155747950Y-117665099D03*
X155747950Y-116015099D03*
%TD*%
D22*
%TO.C,R69*%
X148317951Y-92913299D03*
X146667951Y-92913299D03*
%TD*%
D12*
%TO.C,D7*%
X158211750Y-108632899D03*
X158211750Y-111432899D03*
%TD*%
D14*
%TO.C,R95*%
X131668750Y-73053500D03*
X131668750Y-74703500D03*
%TD*%
D18*
%TO.C,Q8*%
X130362950Y-81595099D03*
X129712950Y-81595098D03*
X129062950Y-81595099D03*
X129062950Y-79695099D03*
X129712950Y-79695100D03*
X130362950Y-79695099D03*
%TD*%
D45*
%TO.C,C3*%
X175775547Y-74752299D03*
X177325547Y-74752299D03*
%TD*%
D25*
%TO.C,R26*%
X158694350Y-117665099D03*
X158694350Y-116015099D03*
%TD*%
D45*
%TO.C,C5*%
X135618150Y-86182299D03*
X137168150Y-86182299D03*
%TD*%
D22*
%TO.C,R37*%
X133255750Y-103208300D03*
X131605750Y-103208300D03*
%TD*%
D25*
%TO.C,R88*%
X155443151Y-90702699D03*
X155443151Y-89052699D03*
%TD*%
D20*
%TO.C,C43*%
X129624350Y-108966099D03*
X128074350Y-108966099D03*
%TD*%
D26*
%TO.C,Q16*%
X160523150Y-106473898D03*
X161793150Y-106473899D03*
X163063150Y-106473899D03*
X164333150Y-106473898D03*
D27*
X162428150Y-109833899D03*
D28*
X164333150Y-111938899D03*
X163063150Y-111938899D03*
X161793150Y-111938899D03*
X160523150Y-111938899D03*
%TD*%
D25*
%TO.C,R75*%
X171826150Y-81470099D03*
X171826150Y-79820099D03*
%TD*%
D22*
%TO.C,R35*%
X141155150Y-123545699D03*
X139505150Y-123545699D03*
%TD*%
D46*
%TO.C,U2*%
X128616450Y-101719100D03*
X128616450Y-101219100D03*
X128616450Y-100719100D03*
X128616450Y-100219100D03*
X128616450Y-99719100D03*
X132841450Y-99719100D03*
X132841450Y-100219100D03*
X132841450Y-100719100D03*
X132841450Y-101219100D03*
X132841450Y-101719100D03*
%TD*%
D14*
%TO.C,R92*%
X135631150Y-68263099D03*
X135631150Y-69913099D03*
%TD*%
D25*
%TO.C,R78*%
X167863750Y-86270699D03*
X167863750Y-84620699D03*
%TD*%
D10*
%TO.C,Q18*%
X132999950Y-68265099D03*
X133649950Y-68265100D03*
X134299950Y-68265099D03*
X134299950Y-70165099D03*
X133649950Y-70165098D03*
X132999950Y-70165099D03*
%TD*%
D14*
%TO.C,R59*%
X157221150Y-116015099D03*
X157221150Y-117665099D03*
%TD*%
%TO.C,R32*%
X143987750Y-125336899D03*
X143987750Y-126986899D03*
%TD*%
D22*
%TO.C,R12*%
X177375550Y-71551899D03*
X175725550Y-71551899D03*
%TD*%
D25*
%TO.C,R104*%
X138044150Y-63969499D03*
X138044150Y-62319499D03*
%TD*%
D22*
%TO.C,R47*%
X130766550Y-82981900D03*
X129116550Y-82981900D03*
%TD*%
D11*
%TO.C,R41*%
X132596351Y-82981900D03*
X134246351Y-82981900D03*
%TD*%
D22*
%TO.C,R4*%
X170923948Y-71551899D03*
X169273948Y-71551899D03*
%TD*%
D45*
%TO.C,C40*%
X175775550Y-86182299D03*
X177325550Y-86182299D03*
%TD*%
D25*
%TO.C,R97*%
X126233150Y-74815299D03*
X126233150Y-73165299D03*
%TD*%
D34*
%TO.C,F9*%
X141676250Y-113131699D03*
X143251250Y-113131699D03*
%TD*%
D10*
%TO.C,Q7*%
X133025350Y-79695099D03*
X133675350Y-79695100D03*
X134325350Y-79695099D03*
X134325350Y-81595099D03*
X133675350Y-81595098D03*
X133025350Y-81595099D03*
%TD*%
D34*
%TO.C,F1*%
X166339650Y-76225499D03*
X167914650Y-76225499D03*
%TD*%
D19*
%TO.C,C17*%
X157043350Y-128649299D03*
X157043350Y-131599299D03*
%TD*%
D20*
%TO.C,C6*%
X127744750Y-79781499D03*
X126194750Y-79781499D03*
%TD*%
D11*
%TO.C,R7*%
X166302149Y-69850099D03*
X167952149Y-69850099D03*
%TD*%
D25*
%TO.C,R120*%
X168579800Y-126986800D03*
X168579800Y-125336800D03*
%TD*%
D22*
%TO.C,R67*%
X166470149Y-92862499D03*
X164820149Y-92862499D03*
%TD*%
D25*
%TO.C,R40*%
X126233150Y-86270700D03*
X126233150Y-84620700D03*
%TD*%
%TO.C,R15*%
X170581550Y-126986899D03*
X170581550Y-125336899D03*
%TD*%
D10*
%TO.C,Q1*%
X173157349Y-68265099D03*
X173807349Y-68265100D03*
X174457349Y-68265099D03*
X174457349Y-70165099D03*
X173807349Y-70165098D03*
X173157349Y-70165099D03*
%TD*%
D22*
%TO.C,R53*%
X172143150Y-119126099D03*
X170493150Y-119126099D03*
%TD*%
%TO.C,R66*%
X170127749Y-96672499D03*
X168477749Y-96672499D03*
%TD*%
D26*
%TO.C,Q14*%
X162301150Y-94705498D03*
X163571150Y-94705499D03*
X164841150Y-94705499D03*
X166111150Y-94705498D03*
D27*
X164206150Y-98065499D03*
D28*
X166111150Y-100170499D03*
X164841150Y-100170499D03*
X163571150Y-100170499D03*
X162301150Y-100170499D03*
%TD*%
D34*
%TO.C,F7*%
X172715050Y-113131699D03*
X174290050Y-113131699D03*
%TD*%
D31*
%TO.C,D9*%
X173011149Y-95250199D03*
X173011149Y-93675199D03*
%TD*%
D13*
%TO.C,C12*%
X179446150Y-120764699D03*
X179446150Y-119214699D03*
%TD*%
D42*
%TO.C,J2*%
X133400140Y-111310299D03*
X132400140Y-111310299D03*
X131400140Y-111310299D03*
X130400140Y-111310299D03*
X129400141Y-111310299D03*
X128400141Y-111310299D03*
X127400140Y-111310299D03*
X126400140Y-111310299D03*
X125400140Y-111310299D03*
X124400140Y-111310299D03*
D43*
X136550140Y-113660299D03*
X121250160Y-113660299D03*
%TD*%
D11*
%TO.C,R49*%
X126144751Y-82981900D03*
X127794751Y-82981900D03*
%TD*%
D25*
%TO.C,R31*%
X145460950Y-126986899D03*
X145460950Y-125336899D03*
%TD*%
D11*
%TO.C,R83*%
X150110151Y-101142899D03*
X151760151Y-101142899D03*
%TD*%
D25*
%TO.C,R8*%
X171826149Y-70040099D03*
X171826149Y-68390099D03*
%TD*%
D22*
%TO.C,R28*%
X156649150Y-123545699D03*
X154999150Y-123545699D03*
%TD*%
D11*
%TO.C,R73*%
X166302150Y-82981899D03*
X167952150Y-82981899D03*
%TD*%
D15*
%TO.C,U4*%
X156139150Y-111170399D03*
X155189150Y-111170399D03*
X154239150Y-111170399D03*
X154239150Y-108895399D03*
X155189150Y-108895399D03*
X156139150Y-108895399D03*
%TD*%
D22*
%TO.C,R43*%
X137218151Y-82981900D03*
X135568151Y-82981900D03*
%TD*%
D45*
%TO.C,C45*%
X135618150Y-74742099D03*
X137168150Y-74742099D03*
%TD*%
D24*
%TO.C,C13*%
X175956150Y-117322699D03*
X177856150Y-117322699D03*
%TD*%
D14*
%TO.C,R89*%
X151023551Y-89052699D03*
X151023551Y-90702699D03*
%TD*%
%TO.C,R46*%
X137129750Y-79693100D03*
X137129750Y-81343100D03*
%TD*%
D22*
%TO.C,R61*%
X141155150Y-119126099D03*
X139505150Y-119126099D03*
%TD*%
D14*
%TO.C,R25*%
X159481750Y-125336899D03*
X159481750Y-126986899D03*
%TD*%
D22*
%TO.C,R85*%
X153410152Y-99669699D03*
X151760152Y-99669699D03*
%TD*%
D10*
%TO.C,Q12*%
X173157350Y-84368699D03*
X173807350Y-84368700D03*
X174457350Y-84368699D03*
X174457350Y-86268699D03*
X173807350Y-86268698D03*
X173157350Y-86268699D03*
%TD*%
D25*
%TO.C,R96*%
X131668750Y-70040099D03*
X131668750Y-68390099D03*
%TD*%
D19*
%TO.C,C25*%
X141574750Y-128649299D03*
X141574750Y-131599299D03*
%TD*%
D14*
%TO.C,R45*%
X131694150Y-84493699D03*
X131694150Y-86143699D03*
%TD*%
D22*
%TO.C,R13*%
X177375549Y-73253699D03*
X175725549Y-73253699D03*
%TD*%
D11*
%TO.C,R10*%
X172753750Y-71551899D03*
X174403750Y-71551899D03*
%TD*%
D21*
%TO.C,C29*%
X148458150Y-122923099D03*
X148458150Y-124473099D03*
%TD*%
D24*
%TO.C,C9*%
X178292950Y-126466699D03*
X180192950Y-126466699D03*
%TD*%
D11*
%TO.C,R82*%
X151760151Y-101142899D03*
X153410151Y-101142899D03*
%TD*%
D22*
%TO.C,R57*%
X156649150Y-119126099D03*
X154999150Y-119126099D03*
%TD*%
D18*
%TO.C,Q20*%
X130337550Y-74828500D03*
X129687550Y-74828499D03*
X129037550Y-74828500D03*
X129037550Y-72928500D03*
X129687550Y-72928501D03*
X130337550Y-72928500D03*
%TD*%
D22*
%TO.C,R44*%
X137218150Y-84683700D03*
X135568150Y-84683700D03*
%TD*%
D25*
%TO.C,R76*%
X166390550Y-86270698D03*
X166390550Y-84620698D03*
%TD*%
D11*
%TO.C,R99*%
X132596350Y-71551899D03*
X134246350Y-71551899D03*
%TD*%
D24*
%TO.C,C27*%
X147355750Y-126466699D03*
X149255750Y-126466699D03*
%TD*%
D25*
%TO.C,R103*%
X138044150Y-66941299D03*
X138044150Y-65291299D03*
%TD*%
M02*
