M48
; DRILL file {KiCad 9.0.7} date 2026-02-05T16:51:59-0500
; FORMAT={-:-/ absolute / inch / decimal}
; #@! TF.CreationDate,2026-02-05T16:51:59-05:00
; #@! TF.GenerationSoftware,Kicad,Pcbnew,9.0.7
; #@! TF.FileFunction,Plated,1,4,PTH
FMAT,2
INCH
; #@! TA.AperFunction,Plated,PTH,ViaDrill
T1C0.0120
; #@! TA.AperFunction,Plated,PTH,ViaDrill
T2C0.0150
; #@! TA.AperFunction,Plated,PTH,ComponentDrill
T3C0.0866
; #@! TA.AperFunction,Plated,PTH,ComponentDrill
T4C0.1260
%
G90
G05
T1
X4.9653Y-2.817
X4.9663Y-3.267
X4.9688Y-3.0
X4.9698Y-2.9455
X4.9698Y-3.3965
X5.0158Y-4.3623
X5.0158Y-4.4023
X5.0308Y-3.0
X5.0551Y-4.3623
X5.0551Y-4.4023
X5.0945Y-4.3823
X5.1018Y-4.492
X5.1018Y-4.522
X5.1018Y-4.552
X5.1033Y-4.29
X5.1058Y-2.725
X5.1068Y-3.175
X5.1339Y-4.3823
X5.1732Y-4.3823
X5.1798Y-3.942
X5.1838Y-2.6925
X5.1838Y-2.7575
X5.1838Y-2.8761
X5.1838Y-2.9411
X5.1848Y-2.817
X5.1848Y-3.1425
X5.1848Y-3.2075
X5.1848Y-3.267
X5.1848Y-3.3265
X5.1848Y-3.3915
X5.1954Y-4.2838
X5.2328Y-4.2838
X5.2618Y-2.908
X5.2628Y-3.359
X5.2702Y-4.2838
X5.2838Y-3.921
X5.3978Y-2.6875
X5.3988Y-3.1375
X5.4023Y-2.817
X5.4023Y-3.267
X5.4348Y-2.4525
X5.4348Y-2.5175
X5.4348Y-2.5705
X5.4348Y-2.6355
X5.437Y-4.9995
X5.4603Y-4.3768
X5.4613Y-4.454
X5.4923Y-4.69
X5.4923Y-4.748
X5.4923Y-4.806
X5.4923Y-4.864
X5.4977Y-4.3768
X5.5218Y-4.5675
X5.5528Y-4.9995
X5.5798Y-4.5675
X5.6108Y-4.9365
X5.6108Y-4.9975
X5.6648Y-4.797
X5.6688Y-4.9995
X5.6948Y-4.797
X5.7064Y-4.619
X5.7248Y-4.797
X5.7743Y-3.658
X5.7743Y-3.716
X5.7743Y-3.774
X5.7812Y-4.619
X5.8762Y-5.056
X5.8762Y-4.979
X5.8878Y-3.506
X5.9458Y-3.506
X5.9508Y-3.611
X5.9748Y-1.828
X5.9748Y-3.706
X5.9814Y-3.611
X6.047Y-4.9995
X6.0723Y-4.454
X6.0724Y-4.3768
X6.1023Y-4.69
X6.1023Y-4.748
X6.1023Y-4.806
X6.1023Y-4.864
X6.1098Y-4.3768
X6.1128Y-3.6735
X6.1318Y-4.5675
X6.1628Y-4.9995
X6.1898Y-3.9551
X6.1898Y-4.5675
X6.2198Y-3.9551
X6.2208Y-4.9365
X6.2208Y-4.9975
X6.2498Y-3.9551
X6.2748Y-4.797
X6.2788Y-4.9995
X6.2848Y-2.45
X6.3035Y-3.656
X6.3048Y-4.797
X6.3164Y-4.619
X6.3328Y-2.45
X6.3348Y-4.797
X6.3385Y-3.656
X6.3735Y-3.656
X6.3798Y-2.45
X6.3912Y-4.619
X6.4852Y-5.056
X6.4852Y-4.979
X6.5003Y-3.3965
X6.5473Y-2.817
X6.5473Y-3.267
X6.5488Y-3.001
X6.5508Y-2.9465
X6.6108Y-3.001
X6.637Y-4.9995
X6.638Y-5.061
X6.6833Y-4.454
X6.6834Y-4.3768
X6.6868Y-2.725
X6.6868Y-3.175
X6.7123Y-4.69
X6.7123Y-4.748
X6.7123Y-4.806
X6.7123Y-4.864
X6.7208Y-4.3768
X6.7428Y-4.5675
X6.7535Y-3.7515
X6.7648Y-2.6925
X6.7648Y-2.7575
X6.7648Y-2.817
X6.7648Y-2.8765
X6.7648Y-2.9415
X6.7648Y-3.1425
X6.7648Y-3.2075
X6.7648Y-3.267
X6.7648Y-3.3265
X6.7648Y-3.3915
X6.8008Y-4.5675
X6.8348Y-4.872
X6.8428Y-2.909
X6.8428Y-3.359
X6.8848Y-4.797
X6.9148Y-4.797
X6.9274Y-4.619
X6.9448Y-4.797
X6.9798Y-2.6875
X6.9798Y-3.1375
X6.9833Y-2.817
X6.9833Y-3.267
T2
X5.8718Y-3.953
X6.0808Y-3.953
T3
X5.5614Y-2.6077
X5.5614Y-3.2623
X6.3882Y-2.6077
X6.3882Y-3.2623
T4
X4.6992Y-5.572
X7.2504Y-5.572
T4
G00X4.6992Y-1.9343
M15
G01X4.6992Y-2.013
M16
G05
G00X7.2504Y-1.9343
M15
G01X7.2504Y-2.013
M16
G05
M30
