%TF.GenerationSoftware,KiCad,Pcbnew,9.0.7*%
%TF.CreationDate,2026-02-05T17:20:20-05:00*%
%TF.ProjectId,Avionics-MAX17205-Programmer,4176696f-6e69-4637-932d-4d4158313732,rev?*%
%TF.SameCoordinates,Original*%
%TF.FileFunction,Legend,Top*%
%TF.FilePolarity,Positive*%
%FSLAX46Y46*%
G04 Gerber Fmt 4.6, Leading zero omitted, Abs format (unit mm)*
G04 Created by KiCad (PCBNEW 9.0.7) date 2026-02-05 17:20:20*
%MOMM*%
%LPD*%
G01*
G04 APERTURE LIST*
%ADD10C,0.152400*%
%ADD11C,0.254000*%
G04 APERTURE END LIST*
D10*
X152670805Y-112082326D02*
X153033663Y-112082326D01*
X152598234Y-112300040D02*
X152852234Y-111538040D01*
X152852234Y-111538040D02*
X153106234Y-112300040D01*
X150675091Y-112372612D02*
X150602520Y-112336326D01*
X150602520Y-112336326D02*
X150529948Y-112263755D01*
X150529948Y-112263755D02*
X150421091Y-112154897D01*
X150421091Y-112154897D02*
X150348520Y-112118612D01*
X150348520Y-112118612D02*
X150275948Y-112118612D01*
X150312234Y-112300040D02*
X150239663Y-112263755D01*
X150239663Y-112263755D02*
X150167091Y-112191183D01*
X150167091Y-112191183D02*
X150130805Y-112046040D01*
X150130805Y-112046040D02*
X150130805Y-111792040D01*
X150130805Y-111792040D02*
X150167091Y-111646897D01*
X150167091Y-111646897D02*
X150239663Y-111574326D01*
X150239663Y-111574326D02*
X150312234Y-111538040D01*
X150312234Y-111538040D02*
X150457377Y-111538040D01*
X150457377Y-111538040D02*
X150529948Y-111574326D01*
X150529948Y-111574326D02*
X150602520Y-111646897D01*
X150602520Y-111646897D02*
X150638805Y-111792040D01*
X150638805Y-111792040D02*
X150638805Y-112046040D01*
X150638805Y-112046040D02*
X150602520Y-112191183D01*
X150602520Y-112191183D02*
X150529948Y-112263755D01*
X150529948Y-112263755D02*
X150457377Y-112300040D01*
X150457377Y-112300040D02*
X150312234Y-112300040D01*
X145087091Y-112300040D02*
X145087091Y-111538040D01*
X145087091Y-111538040D02*
X145268520Y-111538040D01*
X145268520Y-111538040D02*
X145377377Y-111574326D01*
X145377377Y-111574326D02*
X145449948Y-111646897D01*
X145449948Y-111646897D02*
X145486234Y-111719469D01*
X145486234Y-111719469D02*
X145522520Y-111864612D01*
X145522520Y-111864612D02*
X145522520Y-111973469D01*
X145522520Y-111973469D02*
X145486234Y-112118612D01*
X145486234Y-112118612D02*
X145449948Y-112191183D01*
X145449948Y-112191183D02*
X145377377Y-112263755D01*
X145377377Y-112263755D02*
X145268520Y-112300040D01*
X145268520Y-112300040D02*
X145087091Y-112300040D01*
X142982520Y-112227469D02*
X142946234Y-112263755D01*
X142946234Y-112263755D02*
X142837377Y-112300040D01*
X142837377Y-112300040D02*
X142764805Y-112300040D01*
X142764805Y-112300040D02*
X142655948Y-112263755D01*
X142655948Y-112263755D02*
X142583377Y-112191183D01*
X142583377Y-112191183D02*
X142547091Y-112118612D01*
X142547091Y-112118612D02*
X142510805Y-111973469D01*
X142510805Y-111973469D02*
X142510805Y-111864612D01*
X142510805Y-111864612D02*
X142547091Y-111719469D01*
X142547091Y-111719469D02*
X142583377Y-111646897D01*
X142583377Y-111646897D02*
X142655948Y-111574326D01*
X142655948Y-111574326D02*
X142764805Y-111538040D01*
X142764805Y-111538040D02*
X142837377Y-111538040D01*
X142837377Y-111538040D02*
X142946234Y-111574326D01*
X142946234Y-111574326D02*
X142982520Y-111610612D01*
X148026234Y-111574326D02*
X147953663Y-111538040D01*
X147953663Y-111538040D02*
X147844805Y-111538040D01*
X147844805Y-111538040D02*
X147735948Y-111574326D01*
X147735948Y-111574326D02*
X147663377Y-111646897D01*
X147663377Y-111646897D02*
X147627091Y-111719469D01*
X147627091Y-111719469D02*
X147590805Y-111864612D01*
X147590805Y-111864612D02*
X147590805Y-111973469D01*
X147590805Y-111973469D02*
X147627091Y-112118612D01*
X147627091Y-112118612D02*
X147663377Y-112191183D01*
X147663377Y-112191183D02*
X147735948Y-112263755D01*
X147735948Y-112263755D02*
X147844805Y-112300040D01*
X147844805Y-112300040D02*
X147917377Y-112300040D01*
X147917377Y-112300040D02*
X148026234Y-112263755D01*
X148026234Y-112263755D02*
X148062520Y-112227469D01*
X148062520Y-112227469D02*
X148062520Y-111973469D01*
X148062520Y-111973469D02*
X147917377Y-111973469D01*
D11*
X147105067Y-99228538D02*
X147105067Y-100135681D01*
X147105067Y-100135681D02*
X147044590Y-100317109D01*
X147044590Y-100317109D02*
X146923638Y-100438062D01*
X146923638Y-100438062D02*
X146742209Y-100498538D01*
X146742209Y-100498538D02*
X146621257Y-100498538D01*
X147649352Y-99349490D02*
X147709828Y-99289014D01*
X147709828Y-99289014D02*
X147830781Y-99228538D01*
X147830781Y-99228538D02*
X148133162Y-99228538D01*
X148133162Y-99228538D02*
X148254114Y-99289014D01*
X148254114Y-99289014D02*
X148314590Y-99349490D01*
X148314590Y-99349490D02*
X148375067Y-99470442D01*
X148375067Y-99470442D02*
X148375067Y-99591395D01*
X148375067Y-99591395D02*
X148314590Y-99772823D01*
X148314590Y-99772823D02*
X147588876Y-100498538D01*
X147588876Y-100498538D02*
X148375067Y-100498538D01*
%TO.C,J2*%
X141248400Y-89235220D02*
X141248400Y-98455220D01*
X141248400Y-109805220D02*
X141248400Y-101455220D01*
X141248400Y-109805220D02*
X154458400Y-109805220D01*
X154458400Y-89235220D02*
X141248400Y-89235220D01*
X154458400Y-89235220D02*
X154458400Y-98455220D01*
X154458400Y-109805220D02*
X154458400Y-101455220D01*
X151581560Y-110396220D02*
G75*
G02*
X151353240Y-110396220I-114160J0D01*
G01*
X151353240Y-110396220D02*
G75*
G02*
X151581560Y-110396220I114160J0D01*
G01*
%TD*%
M02*
