%TF.GenerationSoftware,KiCad,Pcbnew,9.0.7*%
%TF.CreationDate,2026-02-05T12:44:44-05:00*%
%TF.ProjectId,+Z,2b5a2e6b-6963-4616-945f-706362585858,rev?*%
%TF.SameCoordinates,Original*%
%TF.FileFunction,Soldermask,Bot*%
%TF.FilePolarity,Negative*%
%FSLAX46Y46*%
G04 Gerber Fmt 4.6, Leading zero omitted, Abs format (unit mm)*
G04 Created by KiCad (PCBNEW 9.0.7) date 2026-02-05 12:44:44*
%MOMM*%
%LPD*%
G01*
G04 APERTURE LIST*
G04 Aperture macros list*
%AMRoundRect*
0 Rectangle with rounded corners*
0 $1 Rounding radius*
0 $2 $3 $4 $5 $6 $7 $8 $9 X,Y pos of 4 corners*
0 Add a 4 corners polygon primitive as box body*
4,1,4,$2,$3,$4,$5,$6,$7,$8,$9,$2,$3,0*
0 Add four circle primitives for the rounded corners*
1,1,$1+$1,$2,$3*
1,1,$1+$1,$4,$5*
1,1,$1+$1,$6,$7*
1,1,$1+$1,$8,$9*
0 Add four rect primitives between the rounded corners*
20,1,$1+$1,$2,$3,$4,$5,0*
20,1,$1+$1,$4,$5,$6,$7,0*
20,1,$1+$1,$6,$7,$8,$9,0*
20,1,$1+$1,$8,$9,$2,$3,0*%
%AMFreePoly0*
4,1,11,1.015000,1.170000,0.435000,0.575000,0.435000,-0.575000,1.015000,-1.170000,1.015000,-1.945000,0.125000,-1.945000,-0.435000,-1.395000,-0.435000,1.395000,0.125000,1.945000,1.015000,1.945000,1.015000,1.170000,1.015000,1.170000,$1*%
%AMFreePoly1*
4,1,11,0.435000,1.395000,0.435000,-1.395000,-0.125000,-1.945000,-1.015000,-1.945000,-1.015000,-1.170000,-0.435000,-0.575000,-0.435000,0.575000,-1.015000,1.170000,-1.015000,1.945000,-0.125000,1.945000,0.435000,1.395000,0.435000,1.395000,$1*%
G04 Aperture macros list end*
%ADD10C,0.381002*%
%ADD11C,0.381001*%
%ADD12C,0.762000*%
%ADD13C,3.800000*%
%ADD14C,5.600000*%
%ADD15C,2.000000*%
%ADD16RoundRect,0.225000X-0.225000X-0.250000X0.225000X-0.250000X0.225000X0.250000X-0.225000X0.250000X0*%
%ADD17RoundRect,0.100000X0.225000X0.100000X-0.225000X0.100000X-0.225000X-0.100000X0.225000X-0.100000X0*%
%ADD18RoundRect,0.200000X-0.200000X-0.275000X0.200000X-0.275000X0.200000X0.275000X-0.200000X0.275000X0*%
%ADD19RoundRect,0.200000X0.275000X-0.200000X0.275000X0.200000X-0.275000X0.200000X-0.275000X-0.200000X0*%
%ADD20RoundRect,0.100000X-0.225000X-0.100000X0.225000X-0.100000X0.225000X0.100000X-0.225000X0.100000X0*%
%ADD21RoundRect,0.200000X0.200000X0.275000X-0.200000X0.275000X-0.200000X-0.275000X0.200000X-0.275000X0*%
%ADD22RoundRect,0.250000X0.325000X1.100000X-0.325000X1.100000X-0.325000X-1.100000X0.325000X-1.100000X0*%
%ADD23RoundRect,0.250000X-0.950000X-0.500000X0.950000X-0.500000X0.950000X0.500000X-0.950000X0.500000X0*%
%ADD24RoundRect,0.250000X-0.275000X-0.500000X0.275000X-0.500000X0.275000X0.500000X-0.275000X0.500000X0*%
%ADD25RoundRect,0.102000X0.300000X0.950000X-0.300000X0.950000X-0.300000X-0.950000X0.300000X-0.950000X0*%
%ADD26RoundRect,0.102000X1.050000X1.400000X-1.050000X1.400000X-1.050000X-1.400000X1.050000X-1.400000X0*%
%ADD27RoundRect,0.200000X-0.275000X0.200000X-0.275000X-0.200000X0.275000X-0.200000X0.275000X0.200000X0*%
%ADD28RoundRect,0.218750X0.218750X0.256250X-0.218750X0.256250X-0.218750X-0.256250X0.218750X-0.256250X0*%
%ADD29RoundRect,0.150000X0.150000X-0.512500X0.150000X0.512500X-0.150000X0.512500X-0.150000X-0.512500X0*%
%ADD30RoundRect,0.218750X0.256250X-0.218750X0.256250X0.218750X-0.256250X0.218750X-0.256250X-0.218750X0*%
%ADD31RoundRect,0.062500X-0.062500X0.362500X-0.062500X-0.362500X0.062500X-0.362500X0.062500X0.362500X0*%
%ADD32RoundRect,0.062500X-0.362500X0.062500X-0.362500X-0.062500X0.362500X-0.062500X0.362500X0.062500X0*%
%ADD33R,2.650000X1.650000*%
%ADD34RoundRect,0.218750X-0.256250X0.218750X-0.256250X-0.218750X0.256250X-0.218750X0.256250X0.218750X0*%
%ADD35RoundRect,0.218750X-0.218750X-0.256250X0.218750X-0.256250X0.218750X0.256250X-0.218750X0.256250X0*%
%ADD36RoundRect,0.250000X0.300000X-0.300000X0.300000X0.300000X-0.300000X0.300000X-0.300000X-0.300000X0*%
%ADD37RoundRect,0.225000X0.225000X0.250000X-0.225000X0.250000X-0.225000X-0.250000X0.225000X-0.250000X0*%
%ADD38RoundRect,0.062500X0.362500X0.062500X-0.362500X0.062500X-0.362500X-0.062500X0.362500X-0.062500X0*%
%ADD39R,1.650000X2.380000*%
%ADD40R,0.812800X0.254000*%
%ADD41R,0.254000X0.812800*%
%ADD42R,1.752600X1.752600*%
%ADD43RoundRect,0.150000X-0.150000X0.512500X-0.150000X-0.512500X0.150000X-0.512500X0.150000X0.512500X0*%
%ADD44RoundRect,0.250000X1.100000X-0.325000X1.100000X0.325000X-1.100000X0.325000X-1.100000X-0.325000X0*%
%ADD45RoundRect,0.225000X0.250000X-0.225000X0.250000X0.225000X-0.250000X0.225000X-0.250000X-0.225000X0*%
%ADD46RoundRect,0.250000X0.250000X0.475000X-0.250000X0.475000X-0.250000X-0.475000X0.250000X-0.475000X0*%
%ADD47RoundRect,0.075000X-0.275000X0.390000X-0.275000X-0.390000X0.275000X-0.390000X0.275000X0.390000X0*%
%ADD48RoundRect,0.075000X-0.275000X0.075000X-0.275000X-0.075000X0.275000X-0.075000X0.275000X0.075000X0*%
%ADD49RoundRect,0.250000X-1.100000X0.325000X-1.100000X-0.325000X1.100000X-0.325000X1.100000X0.325000X0*%
%ADD50RoundRect,0.150000X0.150000X-0.587500X0.150000X0.587500X-0.150000X0.587500X-0.150000X-0.587500X0*%
%ADD51FreePoly0,270.000000*%
%ADD52FreePoly1,270.000000*%
%ADD53RoundRect,0.225000X-0.250000X0.225000X-0.250000X-0.225000X0.250000X-0.225000X0.250000X0.225000X0*%
%ADD54RoundRect,0.250000X-0.500000X0.950000X-0.500000X-0.950000X0.500000X-0.950000X0.500000X0.950000X0*%
%ADD55RoundRect,0.250000X-0.500000X0.275000X-0.500000X-0.275000X0.500000X-0.275000X0.500000X0.275000X0*%
%ADD56R,0.610000X1.270000*%
%ADD57R,3.910000X3.810000*%
%ADD58R,0.610000X1.020000*%
%ADD59RoundRect,0.087500X-0.725000X-0.087500X0.725000X-0.087500X0.725000X0.087500X-0.725000X0.087500X0*%
%ADD60RoundRect,0.250000X-1.425000X0.362500X-1.425000X-0.362500X1.425000X-0.362500X1.425000X0.362500X0*%
G04 APERTURE END LIST*
D10*
X149823502Y-99546600D02*
G75*
G02*
X149442500Y-99546600I-190501J0D01*
G01*
X149442500Y-99546600D02*
G75*
G02*
X149823502Y-99546600I190501J0D01*
G01*
G36*
X128296999Y-102810499D02*
G01*
X129947999Y-102810499D01*
X129947999Y-105172699D01*
X128296999Y-105172699D01*
X128296999Y-102810499D01*
G37*
D11*
X155157500Y-99546600D02*
G75*
G02*
X154776500Y-99546600I-190500J0D01*
G01*
X154776500Y-99546600D02*
G75*
G02*
X155157500Y-99546600I190500J0D01*
G01*
G36*
X132538799Y-102823199D02*
G01*
X134189799Y-102823199D01*
X134189799Y-105185399D01*
X132538799Y-105185399D01*
X132538799Y-102823199D01*
G37*
D12*
%TO.C,H4*%
X108700000Y-116000000D03*
X108055750Y-117555750D03*
X108055750Y-114444250D03*
X106500000Y-118200000D03*
D13*
X106500000Y-116000000D03*
D14*
X106500000Y-116000000D03*
D12*
X106500000Y-113800000D03*
X104944250Y-117555750D03*
X104944250Y-114444250D03*
X104300000Y-116000000D03*
%TD*%
%TO.C,H2*%
X108700000Y-74000000D03*
X108055750Y-75555750D03*
X108055750Y-72444250D03*
X106500000Y-76200000D03*
D13*
X106500000Y-74000000D03*
D14*
X106500000Y-74000000D03*
D12*
X106500000Y-71800000D03*
X104944250Y-75555750D03*
X104944250Y-72444250D03*
X104300000Y-74000000D03*
%TD*%
%TO.C,H5*%
X175500000Y-49200000D03*
X174855750Y-50755750D03*
X174855750Y-47644250D03*
X173300000Y-51400000D03*
D13*
X173300000Y-49200000D03*
D14*
X173300000Y-49200000D03*
D12*
X173300000Y-47000000D03*
X171744250Y-50755750D03*
X171744250Y-47644250D03*
X171100000Y-49200000D03*
%TD*%
D15*
%TO.C,U2*%
X196999613Y-88999999D03*
X196999613Y-100999999D03*
%TD*%
D12*
%TO.C,H1*%
X200300000Y-116000000D03*
X199655750Y-117555750D03*
X199655750Y-114444250D03*
X198100000Y-118200000D03*
D13*
X198100000Y-116000000D03*
D14*
X198100000Y-116000000D03*
D12*
X198100000Y-113800000D03*
X196544250Y-117555750D03*
X196544250Y-114444250D03*
X195900000Y-116000000D03*
%TD*%
D15*
%TO.C,U4*%
X107600299Y-100999999D03*
X107600299Y-88999999D03*
%TD*%
%TO.C,U1*%
X158299999Y-139698080D03*
X146299999Y-139698080D03*
%TD*%
%TO.C,U3*%
X146300000Y-50301220D03*
X158300000Y-50301220D03*
%TD*%
D12*
%TO.C,H3*%
X200300000Y-74000000D03*
X199655750Y-75555750D03*
X199655750Y-72444250D03*
X198100000Y-76200000D03*
D13*
X198100000Y-74000000D03*
D14*
X198100000Y-74000000D03*
D12*
X198100000Y-71800000D03*
X196544250Y-75555750D03*
X196544250Y-72444250D03*
X195900000Y-74000000D03*
%TD*%
%TO.C,H6*%
X133500000Y-140800000D03*
X132855750Y-142355750D03*
X132855750Y-139244250D03*
X131300000Y-143000000D03*
D13*
X131300000Y-140800000D03*
D14*
X131300000Y-140800000D03*
D12*
X131300000Y-138600000D03*
X129744250Y-142355750D03*
X129744250Y-139244250D03*
X129100000Y-140800000D03*
%TD*%
%TO.C,H8*%
X175500000Y-140800000D03*
X174855750Y-142355750D03*
X174855750Y-139244250D03*
X173300000Y-143000000D03*
D13*
X173300000Y-140800000D03*
D14*
X173300000Y-140800000D03*
D12*
X173300000Y-138600000D03*
X171744250Y-142355750D03*
X171744250Y-139244250D03*
X171100000Y-140800000D03*
%TD*%
%TO.C,H7*%
X133500000Y-49200000D03*
X132855750Y-50755750D03*
X132855750Y-47644250D03*
X131300000Y-51400000D03*
D13*
X131300000Y-49200000D03*
D14*
X131300000Y-49200000D03*
D12*
X131300000Y-47000000D03*
X129744250Y-50755750D03*
X129744250Y-47644250D03*
X129100000Y-49200000D03*
%TD*%
D16*
%TO.C,C27*%
X151270999Y-102315199D03*
X152820999Y-102315199D03*
%TD*%
D17*
%TO.C,Q19*%
X172960399Y-114543000D03*
X172960399Y-115193000D03*
X172960399Y-115843000D03*
X171060399Y-115843000D03*
X171060399Y-115193000D03*
X171060399Y-114543000D03*
%TD*%
D18*
%TO.C,R116*%
X146039399Y-83544599D03*
X147689399Y-83544599D03*
%TD*%
D19*
%TO.C,R109*%
X149074200Y-80661200D03*
X149074200Y-79011200D03*
%TD*%
D20*
%TO.C,Q26*%
X161154399Y-111880599D03*
X161154399Y-111230599D03*
X161154399Y-110580599D03*
X163054399Y-110580599D03*
X163054399Y-111230599D03*
X163054399Y-111880599D03*
%TD*%
D19*
%TO.C,R36*%
X164441200Y-76216198D03*
X164441200Y-74566198D03*
%TD*%
%TO.C,R93*%
X153036600Y-110900200D03*
X153036600Y-109250200D03*
%TD*%
D21*
%TO.C,R82*%
X139711299Y-115087199D03*
X138061299Y-115087199D03*
%TD*%
D22*
%TO.C,C21*%
X132535200Y-88728400D03*
X129585200Y-88728400D03*
%TD*%
D23*
%TO.C,D5*%
X149300000Y-89500000D03*
D24*
X146925000Y-89500000D03*
%TD*%
D20*
%TO.C,Q9*%
X161154401Y-75787199D03*
X161154401Y-75137199D03*
X161154401Y-74487199D03*
X163054401Y-74487199D03*
X163054401Y-75137199D03*
X163054401Y-75787199D03*
%TD*%
D21*
%TO.C,R73*%
X172835399Y-113211799D03*
X171185399Y-113211799D03*
%TD*%
D25*
%TO.C,J1*%
X156799989Y-120601199D03*
X155799989Y-120601199D03*
X154799989Y-120601199D03*
X153799989Y-120601199D03*
X152799990Y-120601199D03*
X151799990Y-120601199D03*
X150799989Y-120601199D03*
X149799989Y-120601199D03*
X148799989Y-120601199D03*
X147799989Y-120601199D03*
D26*
X159949989Y-122951199D03*
X144650009Y-122951199D03*
%TD*%
D17*
%TO.C,Q14*%
X163054400Y-96483599D03*
X163054400Y-97133599D03*
X163054400Y-97783599D03*
X161154400Y-97783599D03*
X161154400Y-97133599D03*
X161154400Y-96483599D03*
%TD*%
D27*
%TO.C,R78*%
X176049000Y-107687801D03*
X176049000Y-109337801D03*
%TD*%
D21*
%TO.C,R7*%
X177635999Y-99114799D03*
X175985999Y-99114799D03*
%TD*%
D17*
%TO.C,Q27*%
X163054400Y-114543000D03*
X163054400Y-115193000D03*
X163054400Y-115843000D03*
X161154400Y-115843000D03*
X161154400Y-115193000D03*
X161154400Y-114543000D03*
%TD*%
D28*
%TO.C,F3*%
X167692499Y-84230399D03*
X166117499Y-84230399D03*
%TD*%
D17*
%TO.C,Q1*%
X177634001Y-96483601D03*
X177634001Y-97133601D03*
X177634001Y-97783601D03*
X175734001Y-97783601D03*
X175734001Y-97133601D03*
X175734001Y-96483601D03*
%TD*%
D29*
%TO.C,U9*%
X157261799Y-117767238D03*
X156311799Y-117767238D03*
X155361799Y-117767238D03*
X155361799Y-115492238D03*
X156311799Y-115492238D03*
X157261799Y-115492238D03*
%TD*%
D18*
%TO.C,R63*%
X136407399Y-79914599D03*
X138057399Y-79914599D03*
%TD*%
D19*
%TO.C,R26*%
X174347199Y-82667799D03*
X174347199Y-81017799D03*
%TD*%
D27*
%TO.C,R8*%
X174347200Y-89602999D03*
X174347200Y-91252999D03*
%TD*%
D18*
%TO.C,R100*%
X165953000Y-113211799D03*
X167603000Y-113211799D03*
%TD*%
D17*
%TO.C,Q15*%
X167728001Y-96483599D03*
X167728001Y-97133599D03*
X167728001Y-97783599D03*
X165828001Y-97783599D03*
X165828001Y-97133599D03*
X165828001Y-96483599D03*
%TD*%
D18*
%TO.C,R117*%
X146039400Y-82059200D03*
X147689400Y-82059200D03*
%TD*%
D30*
%TO.C,F7*%
X123140800Y-103712299D03*
X123140800Y-102137299D03*
%TD*%
D20*
%TO.C,Q18*%
X171060399Y-111880599D03*
X171060399Y-111230599D03*
X171060399Y-110580599D03*
X172960399Y-110580599D03*
X172960399Y-111230599D03*
X172960399Y-111880599D03*
%TD*%
D19*
%TO.C,R80*%
X141121500Y-113702399D03*
X141121500Y-112052399D03*
%TD*%
D17*
%TO.C,Q11*%
X167728000Y-78449599D03*
X167728000Y-79099599D03*
X167728000Y-79749599D03*
X165828000Y-79749599D03*
X165828000Y-79099599D03*
X165828000Y-78449599D03*
%TD*%
D31*
%TO.C,U6*%
X131664400Y-80166400D03*
X132164400Y-80166400D03*
X132664400Y-80166400D03*
X133164400Y-80166400D03*
X133664400Y-80166400D03*
X134164400Y-80166400D03*
D32*
X134864400Y-80866400D03*
X134864400Y-81366400D03*
X134864400Y-81866400D03*
X134864400Y-82366400D03*
D31*
X134164400Y-83066400D03*
X133664400Y-83066400D03*
X133164400Y-83066400D03*
X132664400Y-83066400D03*
X132164400Y-83066400D03*
X131664400Y-83066400D03*
D32*
X130964400Y-82366400D03*
X130964400Y-81866400D03*
X130964400Y-81366400D03*
X130964400Y-80866400D03*
D33*
X132914400Y-81616400D03*
%TD*%
D34*
%TO.C,F6*%
X123140800Y-105769500D03*
X123140800Y-107344500D03*
%TD*%
D17*
%TO.C,Q5*%
X177633999Y-78449599D03*
X177633999Y-79099599D03*
X177633999Y-79749599D03*
X175733999Y-79749599D03*
X175733999Y-79099599D03*
X175733999Y-78449599D03*
%TD*%
D19*
%TO.C,R48*%
X164441198Y-94250199D03*
X164441198Y-92600199D03*
%TD*%
D27*
%TO.C,R39*%
X166142999Y-71594398D03*
X166142999Y-73244398D03*
%TD*%
D21*
%TO.C,R81*%
X142670899Y-115087199D03*
X141020899Y-115087199D03*
%TD*%
D27*
%TO.C,R108*%
X149074200Y-81983000D03*
X149074200Y-83633000D03*
%TD*%
D21*
%TO.C,R113*%
X155436400Y-79074199D03*
X153786400Y-79074199D03*
%TD*%
%TO.C,R5*%
X177636000Y-100588000D03*
X175986000Y-100588000D03*
%TD*%
D35*
%TO.C,F1*%
X171121300Y-102315200D03*
X172696300Y-102315200D03*
%TD*%
D21*
%TO.C,R95*%
X167729999Y-118672799D03*
X166079999Y-118672799D03*
%TD*%
D19*
%TO.C,R67*%
X135810000Y-87445199D03*
X135810000Y-85795199D03*
%TD*%
D36*
%TO.C,D7*%
X134794000Y-94827398D03*
X134794000Y-92027400D03*
%TD*%
D18*
%TO.C,R89*%
X150650000Y-98810001D03*
X152300000Y-98810001D03*
%TD*%
D37*
%TO.C,C32*%
X153124399Y-118001338D03*
X151574399Y-118001338D03*
%TD*%
D18*
%TO.C,R41*%
X161152400Y-89716799D03*
X162802400Y-89716799D03*
%TD*%
%TO.C,R52*%
X165953000Y-95152400D03*
X167603000Y-95152400D03*
%TD*%
D21*
%TO.C,R106*%
X162929399Y-113211799D03*
X161279399Y-113211799D03*
%TD*%
D19*
%TO.C,R58*%
X136501200Y-78123400D03*
X136501200Y-76473400D03*
%TD*%
D18*
%TO.C,R10*%
X175859001Y-95152400D03*
X177509001Y-95152400D03*
%TD*%
D21*
%TO.C,R37*%
X167729999Y-81106199D03*
X166079999Y-81106199D03*
%TD*%
D27*
%TO.C,R92*%
X148617001Y-109250200D03*
X148617001Y-110900200D03*
%TD*%
D21*
%TO.C,R28*%
X172835399Y-77118399D03*
X171185399Y-77118399D03*
%TD*%
D27*
%TO.C,R38*%
X164441200Y-71594398D03*
X164441200Y-73244398D03*
%TD*%
D18*
%TO.C,R40*%
X165953000Y-77118399D03*
X167603000Y-77118399D03*
%TD*%
D37*
%TO.C,C13*%
X130316599Y-101502399D03*
X128766599Y-101502399D03*
%TD*%
D38*
%TO.C,U10*%
X153749999Y-80563299D03*
X153749999Y-81063299D03*
X153749999Y-81563299D03*
X153749999Y-82063299D03*
X153749999Y-82563299D03*
X150849999Y-82563299D03*
X150849999Y-82063299D03*
X150849999Y-81563299D03*
X150849999Y-81063299D03*
X150849999Y-80563299D03*
D39*
X152299999Y-81563299D03*
%TD*%
D17*
%TO.C,Q24*%
X167728000Y-114543000D03*
X167728000Y-115193000D03*
X167728000Y-115843000D03*
X165828000Y-115843000D03*
X165828000Y-115193000D03*
X165828000Y-114543000D03*
%TD*%
D21*
%TO.C,R112*%
X152464600Y-79074199D03*
X150814600Y-79074199D03*
%TD*%
D20*
%TO.C,Q12*%
X165828000Y-75787199D03*
X165828000Y-75137199D03*
X165828000Y-74487199D03*
X167728000Y-74487199D03*
X167728000Y-75137199D03*
X167728000Y-75787199D03*
%TD*%
D40*
%TO.C,U8*%
X150826799Y-106570400D03*
X150826799Y-106070399D03*
X150826799Y-105570399D03*
X150826799Y-105070398D03*
D41*
X151549998Y-104347199D03*
X152049999Y-104347199D03*
X152549999Y-104347199D03*
X153050000Y-104347199D03*
D40*
X153773199Y-105070398D03*
X153773199Y-105570399D03*
X153773199Y-106070399D03*
X153773199Y-106570400D03*
D41*
X153050000Y-107293599D03*
X152549999Y-107293599D03*
X152049999Y-107293599D03*
X151549998Y-107293599D03*
D42*
X152299999Y-105820399D03*
%TD*%
D18*
%TO.C,R23*%
X171058400Y-71682799D03*
X172708400Y-71682799D03*
%TD*%
D43*
%TO.C,U7*%
X136891999Y-92289899D03*
X137841999Y-92289899D03*
X138791999Y-92289899D03*
X138791999Y-94564899D03*
X137841999Y-94564899D03*
X136891999Y-94564899D03*
%TD*%
D27*
%TO.C,R12*%
X174347199Y-96054599D03*
X174347199Y-97704599D03*
%TD*%
D21*
%TO.C,R111*%
X155436399Y-77601000D03*
X153786399Y-77601000D03*
%TD*%
D44*
%TO.C,C14*%
X135987801Y-74811000D03*
X135987801Y-71861000D03*
%TD*%
D19*
%TO.C,R15*%
X172645399Y-100676399D03*
X172645399Y-99026399D03*
%TD*%
%TO.C,R32*%
X164441200Y-82667798D03*
X164441200Y-81017798D03*
%TD*%
D18*
%TO.C,R103*%
X161152400Y-109249399D03*
X162802400Y-109249399D03*
%TD*%
D20*
%TO.C,Q7*%
X171060399Y-75787199D03*
X171060399Y-75137199D03*
X171060399Y-74487199D03*
X172960399Y-74487199D03*
X172960399Y-75137199D03*
X172960399Y-75787199D03*
%TD*%
D45*
%TO.C,C25*%
X177547600Y-109287799D03*
X177547600Y-107737799D03*
%TD*%
D19*
%TO.C,R18*%
X174347199Y-76216199D03*
X174347199Y-74566199D03*
%TD*%
D27*
%TO.C,R94*%
X154509799Y-109250198D03*
X154509799Y-110900198D03*
%TD*%
D17*
%TO.C,Q4*%
X172960399Y-96483600D03*
X172960399Y-97133600D03*
X172960399Y-97783600D03*
X171060399Y-97783600D03*
X171060399Y-97133600D03*
X171060399Y-96483600D03*
%TD*%
D46*
%TO.C,C17*%
X130257599Y-75037799D03*
X128357599Y-75037799D03*
%TD*%
D18*
%TO.C,R11*%
X171058401Y-89691399D03*
X172708401Y-89691399D03*
%TD*%
D17*
%TO.C,Q8*%
X172960399Y-78449599D03*
X172960399Y-79099599D03*
X172960399Y-79749599D03*
X171060399Y-79749599D03*
X171060399Y-79099599D03*
X171060399Y-78449599D03*
%TD*%
D19*
%TO.C,R104*%
X164441199Y-118761199D03*
X164441199Y-117111199D03*
%TD*%
D45*
%TO.C,C10*%
X167641600Y-73194398D03*
X167641600Y-71644398D03*
%TD*%
D19*
%TO.C,R105*%
X162739399Y-118761199D03*
X162739399Y-117111199D03*
%TD*%
%TO.C,R72*%
X172645400Y-118761200D03*
X172645400Y-117111200D03*
%TD*%
D45*
%TO.C,C30*%
X167641600Y-109287800D03*
X167641600Y-107737800D03*
%TD*%
D27*
%TO.C,R9*%
X176049000Y-89602999D03*
X176049000Y-91252999D03*
%TD*%
D47*
%TO.C,D9*%
X143536999Y-103757400D03*
D48*
X143536999Y-104642399D03*
%TD*%
D49*
%TO.C,C26*%
X146051599Y-102745199D03*
X146051599Y-105695199D03*
%TD*%
D27*
%TO.C,R59*%
X132076200Y-76473400D03*
X132076200Y-78123400D03*
%TD*%
D45*
%TO.C,C18*%
X129104400Y-80537199D03*
X129104400Y-78987199D03*
%TD*%
D21*
%TO.C,R87*%
X157392200Y-104093199D03*
X155742200Y-104093199D03*
%TD*%
D27*
%TO.C,R99*%
X166143000Y-107687799D03*
X166143000Y-109337799D03*
%TD*%
D50*
%TO.C,Q22*%
X139607699Y-113361899D03*
X137707699Y-113361899D03*
X138657699Y-111486899D03*
%TD*%
D51*
%TO.C,L1*%
X126056400Y-79851401D03*
D52*
X126056400Y-83381399D03*
%TD*%
D53*
%TO.C,C28*%
X150090201Y-109300198D03*
X150090201Y-110850198D03*
%TD*%
%TO.C,C19*%
X129104400Y-82695600D03*
X129104400Y-84245600D03*
%TD*%
%TO.C,C24*%
X171146799Y-117161200D03*
X171146799Y-118711200D03*
%TD*%
D27*
%TO.C,R61*%
X134336800Y-85795200D03*
X134336800Y-87445200D03*
%TD*%
D20*
%TO.C,Q6*%
X175733999Y-75787199D03*
X175733999Y-75137199D03*
X175733999Y-74487199D03*
X177633999Y-74487199D03*
X177633999Y-75137199D03*
X177633999Y-75787199D03*
%TD*%
D18*
%TO.C,R54*%
X132120200Y-101502399D03*
X133770200Y-101502399D03*
%TD*%
D53*
%TO.C,C29*%
X151563399Y-109300199D03*
X151563399Y-110850199D03*
%TD*%
D28*
%TO.C,F5*%
X130303699Y-73206799D03*
X128728699Y-73206799D03*
%TD*%
D18*
%TO.C,R114*%
X146039400Y-79099599D03*
X147689400Y-79099599D03*
%TD*%
D27*
%TO.C,R24*%
X174347199Y-78045999D03*
X174347199Y-79695999D03*
%TD*%
D18*
%TO.C,R43*%
X161152399Y-91189999D03*
X162802399Y-91189999D03*
%TD*%
D19*
%TO.C,R33*%
X162739400Y-82667798D03*
X162739400Y-81017798D03*
%TD*%
D28*
%TO.C,F10*%
X157100701Y-83544599D03*
X155525701Y-83544599D03*
%TD*%
D27*
%TO.C,R98*%
X164441199Y-107687799D03*
X164441199Y-109337799D03*
%TD*%
D21*
%TO.C,R49*%
X167729999Y-99140199D03*
X166079999Y-99140199D03*
%TD*%
D53*
%TO.C,C8*%
X171146799Y-81067800D03*
X171146799Y-82617800D03*
%TD*%
D21*
%TO.C,R46*%
X162929400Y-95152399D03*
X161279400Y-95152399D03*
%TD*%
D27*
%TO.C,R57*%
X137974399Y-76473400D03*
X137974399Y-78123400D03*
%TD*%
D45*
%TO.C,C7*%
X177547600Y-73194399D03*
X177547600Y-71644399D03*
%TD*%
D54*
%TO.C,D2*%
X180200000Y-95000000D03*
D55*
X180200000Y-92625000D03*
%TD*%
D30*
%TO.C,D8*%
X142594699Y-113664899D03*
X142594699Y-112089899D03*
%TD*%
D19*
%TO.C,R44*%
X164441199Y-100701799D03*
X164441199Y-99051799D03*
%TD*%
D18*
%TO.C,R83*%
X137615400Y-109664600D03*
X139265400Y-109664600D03*
%TD*%
D19*
%TO.C,R27*%
X172645400Y-82667800D03*
X172645400Y-81017800D03*
%TD*%
D17*
%TO.C,Q10*%
X163054399Y-78449598D03*
X163054399Y-79099598D03*
X163054399Y-79749598D03*
X161154399Y-79749598D03*
X161154399Y-79099598D03*
X161154399Y-78449598D03*
%TD*%
%TO.C,Q20*%
X177634000Y-114543000D03*
X177634000Y-115193000D03*
X177634000Y-115843000D03*
X175734000Y-115843000D03*
X175734000Y-115193000D03*
X175734000Y-114543000D03*
%TD*%
D18*
%TO.C,R55*%
X128716599Y-106480800D03*
X130366599Y-106480800D03*
%TD*%
%TO.C,R91*%
X150650000Y-100283200D03*
X152300000Y-100283200D03*
%TD*%
D21*
%TO.C,R17*%
X177636000Y-82579399D03*
X175986000Y-82579399D03*
%TD*%
D19*
%TO.C,R84*%
X148794800Y-106645400D03*
X148794800Y-104995400D03*
%TD*%
D18*
%TO.C,R13*%
X171058401Y-91164598D03*
X172708401Y-91164598D03*
%TD*%
%TO.C,R90*%
X152300000Y-100283199D03*
X153950000Y-100283199D03*
%TD*%
D45*
%TO.C,C5*%
X177547599Y-91202998D03*
X177547599Y-89652998D03*
%TD*%
D19*
%TO.C,R60*%
X133549399Y-78123399D03*
X133549399Y-76473399D03*
%TD*%
D27*
%TO.C,R77*%
X174347199Y-107687799D03*
X174347199Y-109337799D03*
%TD*%
D56*
%TO.C,Q17*%
X132513399Y-97238200D03*
X131243399Y-97238199D03*
X129973399Y-97238199D03*
X128703399Y-97238200D03*
D57*
X130608399Y-93878199D03*
D58*
X128703399Y-91773199D03*
X129973399Y-91773199D03*
X131243399Y-91773199D03*
X132513399Y-91773199D03*
%TD*%
D18*
%TO.C,R88*%
X152300000Y-98810000D03*
X153950000Y-98810000D03*
%TD*%
%TO.C,R115*%
X146039400Y-80585999D03*
X147689400Y-80585999D03*
%TD*%
D20*
%TO.C,Q21*%
X175733999Y-111880599D03*
X175733999Y-111230599D03*
X175733999Y-110580599D03*
X177633999Y-110580599D03*
X177633999Y-111230599D03*
X177633999Y-111880599D03*
%TD*%
D53*
%TO.C,C6*%
X171146799Y-99076399D03*
X171146799Y-100626399D03*
%TD*%
D27*
%TO.C,R21*%
X176049000Y-71594400D03*
X176049000Y-73244400D03*
%TD*%
D18*
%TO.C,R68*%
X171058400Y-107776200D03*
X172708400Y-107776200D03*
%TD*%
D20*
%TO.C,Q13*%
X161154401Y-93821200D03*
X161154401Y-93171200D03*
X161154401Y-92521200D03*
X163054401Y-92521200D03*
X163054401Y-93171200D03*
X163054401Y-93821200D03*
%TD*%
D27*
%TO.C,R66*%
X137283200Y-85795200D03*
X137283200Y-87445200D03*
%TD*%
D46*
%TO.C,C16*%
X130257600Y-76993599D03*
X128357600Y-76993599D03*
%TD*%
D53*
%TO.C,C9*%
X161240800Y-81067800D03*
X161240800Y-82617800D03*
%TD*%
D59*
%TO.C,U5*%
X129130900Y-105000899D03*
X129130900Y-104500899D03*
X129130900Y-104000899D03*
X129130900Y-103500899D03*
X129130900Y-103000899D03*
X133355900Y-103000899D03*
X133355900Y-103500899D03*
X133355900Y-104000899D03*
X133355900Y-104500899D03*
X133355900Y-105000899D03*
%TD*%
D27*
%TO.C,R20*%
X174347199Y-71594399D03*
X174347199Y-73244399D03*
%TD*%
D21*
%TO.C,R107*%
X153124999Y-84052599D03*
X151474999Y-84052599D03*
%TD*%
%TO.C,R62*%
X138057400Y-81387800D03*
X136407400Y-81387800D03*
%TD*%
D19*
%TO.C,R71*%
X174347199Y-118761199D03*
X174347199Y-117111199D03*
%TD*%
%TO.C,R14*%
X174347200Y-100676399D03*
X174347200Y-99026399D03*
%TD*%
D18*
%TO.C,R70*%
X171058400Y-109249399D03*
X172708400Y-109249399D03*
%TD*%
D35*
%TO.C,F2*%
X171121300Y-84230399D03*
X172696300Y-84230399D03*
%TD*%
D16*
%TO.C,C23*%
X137244799Y-90328599D03*
X138794799Y-90328599D03*
%TD*%
D53*
%TO.C,C11*%
X161240798Y-99101799D03*
X161240798Y-100651799D03*
%TD*%
D21*
%TO.C,R110*%
X152464600Y-77600999D03*
X150814600Y-77600999D03*
%TD*%
D46*
%TO.C,C20*%
X132594399Y-86137599D03*
X130694399Y-86137599D03*
%TD*%
D27*
%TO.C,R30*%
X164441200Y-78045999D03*
X164441200Y-79695999D03*
%TD*%
D18*
%TO.C,R101*%
X161152399Y-107776200D03*
X162802399Y-107776200D03*
%TD*%
D20*
%TO.C,Q2*%
X175733999Y-93821198D03*
X175733999Y-93171198D03*
X175733999Y-92521198D03*
X177633999Y-92521198D03*
X177633999Y-93171198D03*
X177633999Y-93821198D03*
%TD*%
D18*
%TO.C,R64*%
X136407400Y-82860999D03*
X138057400Y-82860999D03*
%TD*%
%TO.C,R22*%
X175858999Y-77118399D03*
X177508999Y-77118399D03*
%TD*%
D27*
%TO.C,R42*%
X164441199Y-96079999D03*
X164441199Y-97729999D03*
%TD*%
D18*
%TO.C,R25*%
X171058399Y-73155999D03*
X172708399Y-73155999D03*
%TD*%
D19*
%TO.C,R96*%
X164441199Y-112309599D03*
X164441199Y-110659599D03*
%TD*%
D21*
%TO.C,R97*%
X167729999Y-117199599D03*
X166079999Y-117199599D03*
%TD*%
D27*
%TO.C,R118*%
X139447599Y-76473400D03*
X139447599Y-78123400D03*
%TD*%
D20*
%TO.C,Q3*%
X171060399Y-93821198D03*
X171060399Y-93171198D03*
X171060399Y-92521198D03*
X172960399Y-92521198D03*
X172960399Y-93171198D03*
X172960399Y-93821198D03*
%TD*%
%TO.C,Q16*%
X165828000Y-93821198D03*
X165828000Y-93171198D03*
X165828000Y-92521198D03*
X167728000Y-92521198D03*
X167728000Y-93171198D03*
X167728000Y-93821198D03*
%TD*%
D21*
%TO.C,R74*%
X177636000Y-118672799D03*
X175986000Y-118672799D03*
%TD*%
D28*
%TO.C,F8*%
X135835499Y-90328599D03*
X134260499Y-90328599D03*
%TD*%
D20*
%TO.C,Q25*%
X165828000Y-111880599D03*
X165828000Y-111230599D03*
X165828000Y-110580599D03*
X167728000Y-110580599D03*
X167728000Y-111230599D03*
X167728000Y-111880599D03*
%TD*%
D45*
%TO.C,C12*%
X167641601Y-91228399D03*
X167641601Y-89678399D03*
%TD*%
D18*
%TO.C,R29*%
X161152399Y-71682798D03*
X162802399Y-71682798D03*
%TD*%
D21*
%TO.C,R76*%
X177636000Y-117199600D03*
X175986000Y-117199600D03*
%TD*%
D16*
%TO.C,C33*%
X155538200Y-82059200D03*
X157088200Y-82059200D03*
%TD*%
D18*
%TO.C,R79*%
X175858999Y-113211799D03*
X177508999Y-113211799D03*
%TD*%
D27*
%TO.C,R102*%
X164441200Y-114139400D03*
X164441200Y-115789400D03*
%TD*%
D21*
%TO.C,R56*%
X133770199Y-106490099D03*
X132120199Y-106490099D03*
%TD*%
D19*
%TO.C,R6*%
X174347199Y-94224799D03*
X174347199Y-92574799D03*
%TD*%
D21*
%TO.C,R35*%
X167729999Y-82579398D03*
X166079999Y-82579398D03*
%TD*%
D35*
%TO.C,F9*%
X140624700Y-109664600D03*
X142199700Y-109664600D03*
%TD*%
D19*
%TO.C,R75*%
X174347199Y-112309599D03*
X174347199Y-110659599D03*
%TD*%
D21*
%TO.C,R86*%
X157392199Y-105566399D03*
X155742199Y-105566399D03*
%TD*%
D56*
%TO.C,Q23*%
X141784399Y-107674600D03*
X140514399Y-107674599D03*
X139244399Y-107674599D03*
X137974399Y-107674600D03*
D57*
X139879399Y-104314599D03*
D58*
X137974399Y-102209599D03*
X139244399Y-102209599D03*
X140514399Y-102209599D03*
X141784399Y-102209599D03*
%TD*%
D44*
%TO.C,C15*%
X132787401Y-74811000D03*
X132787401Y-71861000D03*
%TD*%
D21*
%TO.C,R16*%
X172835399Y-95152400D03*
X171185399Y-95152400D03*
%TD*%
D27*
%TO.C,R69*%
X174347199Y-114139399D03*
X174347199Y-115789399D03*
%TD*%
D18*
%TO.C,R85*%
X155742200Y-107039600D03*
X157392200Y-107039600D03*
%TD*%
D19*
%TO.C,R45*%
X162739399Y-100701799D03*
X162739399Y-99051799D03*
%TD*%
D18*
%TO.C,R65*%
X136407399Y-84334199D03*
X138057399Y-84334199D03*
%TD*%
D21*
%TO.C,R34*%
X162929399Y-77118398D03*
X161279399Y-77118398D03*
%TD*%
D27*
%TO.C,R51*%
X166143000Y-89628399D03*
X166143000Y-91278399D03*
%TD*%
D21*
%TO.C,R19*%
X177635999Y-81106199D03*
X175985999Y-81106199D03*
%TD*%
D18*
%TO.C,R31*%
X161152400Y-73155999D03*
X162802400Y-73155999D03*
%TD*%
D27*
%TO.C,R50*%
X164441199Y-89628399D03*
X164441199Y-91278399D03*
%TD*%
D53*
%TO.C,C31*%
X161240800Y-117161200D03*
X161240800Y-118711200D03*
%TD*%
D45*
%TO.C,C22*%
X135022600Y-78073400D03*
X135022600Y-76523400D03*
%TD*%
D21*
%TO.C,R47*%
X167729999Y-100613400D03*
X166079999Y-100613400D03*
%TD*%
D28*
%TO.C,F4*%
X167667099Y-102315200D03*
X166092099Y-102315200D03*
%TD*%
D60*
%TO.C,R53*%
X125934800Y-101774999D03*
X125934800Y-107699999D03*
%TD*%
M02*
