%TF.GenerationSoftware,KiCad,Pcbnew,9.0.7*%
%TF.CreationDate,2026-02-05T12:44:44-05:00*%
%TF.ProjectId,+Z,2b5a2e6b-6963-4616-945f-706362585858,rev?*%
%TF.SameCoordinates,Original*%
%TF.FileFunction,Soldermask,Top*%
%TF.FilePolarity,Negative*%
%FSLAX46Y46*%
G04 Gerber Fmt 4.6, Leading zero omitted, Abs format (unit mm)*
G04 Created by KiCad (PCBNEW 9.0.7) date 2026-02-05 12:44:44*
%MOMM*%
%LPD*%
G01*
G04 APERTURE LIST*
G04 Aperture macros list*
%AMRoundRect*
0 Rectangle with rounded corners*
0 $1 Rounding radius*
0 $2 $3 $4 $5 $6 $7 $8 $9 X,Y pos of 4 corners*
0 Add a 4 corners polygon primitive as box body*
4,1,4,$2,$3,$4,$5,$6,$7,$8,$9,$2,$3,0*
0 Add four circle primitives for the rounded corners*
1,1,$1+$1,$2,$3*
1,1,$1+$1,$4,$5*
1,1,$1+$1,$6,$7*
1,1,$1+$1,$8,$9*
0 Add four rect primitives between the rounded corners*
20,1,$1+$1,$2,$3,$4,$5,0*
20,1,$1+$1,$4,$5,$6,$7,0*
20,1,$1+$1,$6,$7,$8,$9,0*
20,1,$1+$1,$8,$9,$2,$3,0*%
G04 Aperture macros list end*
%ADD10C,0.762000*%
%ADD11C,3.800000*%
%ADD12C,5.600000*%
%ADD13C,1.000000*%
%ADD14RoundRect,0.250000X0.950000X0.500000X-0.950000X0.500000X-0.950000X-0.500000X0.950000X-0.500000X0*%
%ADD15RoundRect,0.250000X0.275000X0.500000X-0.275000X0.500000X-0.275000X-0.500000X0.275000X-0.500000X0*%
%ADD16RoundRect,0.200000X-0.275000X0.200000X-0.275000X-0.200000X0.275000X-0.200000X0.275000X0.200000X0*%
%ADD17C,2.000000*%
%ADD18R,2.516000X1.500000*%
%ADD19C,3.200000*%
%ADD20RoundRect,0.225000X0.250000X-0.225000X0.250000X0.225000X-0.250000X0.225000X-0.250000X-0.225000X0*%
%ADD21R,1.500000X2.516000*%
%ADD22RoundRect,0.200000X-0.200000X-0.275000X0.200000X-0.275000X0.200000X0.275000X-0.200000X0.275000X0*%
%ADD23RoundRect,0.225000X-0.250000X0.225000X-0.250000X-0.225000X0.250000X-0.225000X0.250000X0.225000X0*%
%ADD24RoundRect,0.225000X-0.225000X-0.250000X0.225000X-0.250000X0.225000X0.250000X-0.225000X0.250000X0*%
%ADD25RoundRect,0.225000X0.225000X0.250000X-0.225000X0.250000X-0.225000X-0.250000X0.225000X-0.250000X0*%
%ADD26RoundRect,0.200000X0.200000X0.275000X-0.200000X0.275000X-0.200000X-0.275000X0.200000X-0.275000X0*%
G04 APERTURE END LIST*
D10*
%TO.C,H4*%
X108700000Y-116000000D03*
X108055750Y-117555750D03*
X108055750Y-114444250D03*
X106500000Y-118200000D03*
D11*
X106500000Y-116000000D03*
D12*
X106500000Y-116000000D03*
D10*
X106500000Y-113800000D03*
X104944250Y-117555750D03*
X104944250Y-114444250D03*
X104300000Y-116000000D03*
%TD*%
D13*
%TO.C,H20*%
X112800000Y-132000000D03*
%TD*%
%TO.C,H18*%
X112800000Y-58000000D03*
%TD*%
D14*
%TO.C,D3*%
X172450000Y-132000000D03*
D15*
X174825000Y-132000000D03*
%TD*%
D10*
%TO.C,H2*%
X108700000Y-74000000D03*
X108055750Y-75555750D03*
X108055750Y-72444250D03*
X106500000Y-76200000D03*
D11*
X106500000Y-74000000D03*
D12*
X106500000Y-74000000D03*
D10*
X106500000Y-71800000D03*
X104944250Y-75555750D03*
X104944250Y-72444250D03*
X104300000Y-74000000D03*
%TD*%
D16*
%TO.C,R1*%
X140133399Y-138872300D03*
X140133399Y-140522300D03*
%TD*%
D10*
%TO.C,H5*%
X175500000Y-49200000D03*
X174855750Y-50755750D03*
X174855750Y-47644250D03*
X173300000Y-51400000D03*
D11*
X173300000Y-49200000D03*
D12*
X173300000Y-49200000D03*
D10*
X173300000Y-47000000D03*
X171744250Y-50755750D03*
X171744250Y-47644250D03*
X171100000Y-49200000D03*
%TD*%
D13*
%TO.C,H16*%
X161300000Y-132000000D03*
%TD*%
D17*
%TO.C,U2*%
X196999613Y-88999999D03*
X196999613Y-100999999D03*
D18*
X198655613Y-86999999D03*
X198655613Y-90999999D03*
X198655613Y-94999999D03*
X198655613Y-98999999D03*
X198655613Y-102999999D03*
%TD*%
D14*
%TO.C,D6*%
X130450000Y-58000000D03*
D15*
X132825000Y-58000000D03*
%TD*%
D14*
%TO.C,D4*%
X130450000Y-132000000D03*
D15*
X132825000Y-132000000D03*
%TD*%
D19*
%TO.C,SC5*%
X145300000Y-95000000D03*
X149300000Y-95000000D03*
X113300000Y-95000000D03*
X117300000Y-95000000D03*
%TD*%
D20*
%TO.C,C1*%
X164466600Y-140472301D03*
X164466600Y-138922301D03*
%TD*%
D19*
%TO.C,SC3*%
X159300000Y-118000000D03*
X155300000Y-118000000D03*
X191300000Y-118000000D03*
X187300000Y-118000000D03*
%TD*%
D13*
%TO.C,H17*%
X191800000Y-58000000D03*
%TD*%
%TO.C,H9*%
X185300000Y-58000000D03*
%TD*%
%TO.C,H15*%
X119300000Y-58000000D03*
%TD*%
D19*
%TO.C,SC1*%
X159300000Y-72000000D03*
X155300000Y-72000000D03*
X191300000Y-72000000D03*
X187300000Y-72000000D03*
%TD*%
D16*
%TO.C,R3*%
X164476675Y-49477000D03*
X164476675Y-51127000D03*
%TD*%
D10*
%TO.C,H1*%
X200300000Y-116000000D03*
X199655750Y-117555750D03*
X199655750Y-114444250D03*
X198100000Y-118200000D03*
D11*
X198100000Y-116000000D03*
D12*
X198100000Y-116000000D03*
D10*
X198100000Y-113800000D03*
X196544250Y-117555750D03*
X196544250Y-114444250D03*
X195900000Y-116000000D03*
%TD*%
D13*
%TO.C,H14*%
X143300000Y-58000000D03*
%TD*%
%TO.C,H19*%
X191800000Y-132000000D03*
%TD*%
D17*
%TO.C,U4*%
X107600299Y-100999999D03*
X107600299Y-88999999D03*
D18*
X105944299Y-102999999D03*
X105944299Y-98999999D03*
X105944299Y-94999999D03*
X105944299Y-90999999D03*
X105944299Y-86999999D03*
%TD*%
D17*
%TO.C,U1*%
X158299999Y-139698080D03*
X146299999Y-139698080D03*
D21*
X160299999Y-141354080D03*
X156299999Y-141354080D03*
X152299999Y-141354080D03*
X148299999Y-141354080D03*
X144299999Y-141354080D03*
%TD*%
D22*
%TO.C,R4*%
X106776080Y-82836860D03*
X108426080Y-82836860D03*
%TD*%
D17*
%TO.C,U3*%
X146300000Y-50301220D03*
X158300000Y-50301220D03*
D21*
X144300000Y-48645220D03*
X148300000Y-48645220D03*
X152300000Y-48645220D03*
X156300000Y-48645220D03*
X160300000Y-48645220D03*
%TD*%
D13*
%TO.C,H12*%
X143300000Y-132000000D03*
%TD*%
D19*
%TO.C,SC4*%
X117300000Y-118000000D03*
X113300000Y-118000000D03*
X149300000Y-118000000D03*
X145300000Y-118000000D03*
%TD*%
%TO.C,SC2*%
X187300000Y-95000000D03*
X191300000Y-95000000D03*
X155300000Y-95000000D03*
X159300000Y-95000000D03*
%TD*%
%TO.C,SC6*%
X117300000Y-72000000D03*
X113300000Y-72000000D03*
X149300000Y-72000000D03*
X145300000Y-72000000D03*
%TD*%
D23*
%TO.C,C3*%
X140118073Y-49527000D03*
X140118073Y-51077000D03*
%TD*%
D10*
%TO.C,H3*%
X200300000Y-74000000D03*
X199655750Y-75555750D03*
X199655750Y-72444250D03*
X198100000Y-76200000D03*
D11*
X198100000Y-74000000D03*
D12*
X198100000Y-74000000D03*
D10*
X198100000Y-71800000D03*
X196544250Y-75555750D03*
X196544250Y-72444250D03*
X195900000Y-74000000D03*
%TD*%
D13*
%TO.C,H11*%
X185300000Y-132000000D03*
%TD*%
D10*
%TO.C,H6*%
X133500000Y-140800000D03*
X132855750Y-142355750D03*
X132855750Y-139244250D03*
X131300000Y-143000000D03*
D11*
X131300000Y-140800000D03*
D12*
X131300000Y-140800000D03*
D10*
X131300000Y-138600000D03*
X129744250Y-142355750D03*
X129744250Y-139244250D03*
X129100000Y-140800000D03*
%TD*%
D24*
%TO.C,C4*%
X106826079Y-107170060D03*
X108376079Y-107170060D03*
%TD*%
D10*
%TO.C,H8*%
X175500000Y-140800000D03*
X174855750Y-142355750D03*
X174855750Y-139244250D03*
X173300000Y-143000000D03*
D11*
X173300000Y-140800000D03*
D12*
X173300000Y-140800000D03*
D10*
X173300000Y-138600000D03*
X171744250Y-142355750D03*
X171744250Y-139244250D03*
X171100000Y-140800000D03*
%TD*%
%TO.C,H7*%
X133500000Y-49200000D03*
X132855750Y-50755750D03*
X132855750Y-47644250D03*
X131300000Y-51400000D03*
D11*
X131300000Y-49200000D03*
D12*
X131300000Y-49200000D03*
D10*
X131300000Y-47000000D03*
X129744250Y-50755750D03*
X129744250Y-47644250D03*
X129100000Y-49200000D03*
%TD*%
D13*
%TO.C,H10*%
X161300000Y-58000000D03*
%TD*%
D14*
%TO.C,D1*%
X172450000Y-58000000D03*
D15*
X174825000Y-58000000D03*
%TD*%
D13*
%TO.C,H13*%
X119300000Y-132000000D03*
%TD*%
D25*
%TO.C,C2*%
X197773919Y-82836860D03*
X196223919Y-82836860D03*
%TD*%
D26*
%TO.C,R2*%
X197823920Y-107144661D03*
X196173920Y-107144661D03*
%TD*%
M02*
