M48
; DRILL file {KiCad 9.0.7} date 2026-02-05T12:44:46-0500
; FORMAT={-:-/ absolute / inch / decimal}
; #@! TF.CreationDate,2026-02-05T12:44:46-05:00
; #@! TF.GenerationSoftware,Kicad,Pcbnew,9.0.7
; #@! TF.FileFunction,Plated,1,4,PTH
FMAT,2
INCH
; #@! TA.AperFunction,Plated,PTH,ViaDrill
T1C0.0120
; #@! TA.AperFunction,Plated,PTH,ViaDrill
T2C0.0150
; #@! TA.AperFunction,Plated,PTH,ComponentDrill
T3C0.0150
; #@! TA.AperFunction,Plated,PTH,ComponentDrill
T4C0.1260
%
G90
G05
T1
X4.2081Y-3.5822
X4.2081Y-4.0382
X4.2081Y-3.4422
X4.9031Y-3.4512
X4.9031Y-3.5162
X4.9031Y-3.3992
X5.0534Y-2.9542
X5.0534Y-3.0312
X5.0676Y-4.1922
X5.0681Y-2.848
X5.0681Y-2.822
X5.1306Y-3.9962
X5.1454Y-3.3912
X5.2029Y-3.2132
X5.2203Y-3.3912
X5.2329Y-3.2132
X5.2491Y-4.5912
X5.2579Y-3.0108
X5.2629Y-3.2132
X5.2665Y-4.1925
X5.2741Y-4.5912
X5.2991Y-4.5912
X5.3081Y-4.0492
X5.3081Y-4.0802
X5.3159Y-3.0127
X5.3159Y-3.0738
X5.3469Y-3.4427
X5.3741Y-3.0108
X5.4049Y-3.4427
X5.4353Y-3.1462
X5.4353Y-3.2042
X5.4353Y-3.2622
X5.4353Y-3.3202
X5.4901Y-3.0107
X5.552Y-4.531
X5.5906Y-3.5236
X5.5981Y-4.3182
X5.622Y-3.5236
X5.6331Y-4.3182
X5.6535Y-3.5236
X5.6681Y-4.3182
X5.6981Y-5.5282
X5.6981Y-1.9522
X5.7636Y-4.4572
X5.7783Y-3.3417
X5.7787Y-3.0614
X5.8145Y-3.1142
X5.8145Y-3.2892
X5.8145Y-4.4982
X5.8391Y-5.5282
X5.8581Y-4.1986
X5.8691Y-3.1107
X5.8691Y-3.2926
X5.878Y-3.5079
X5.878Y-3.5394
X5.937Y-4.7282
X5.937Y-4.7682
X5.9376Y-3.0552
X5.9376Y-3.1132
X5.9636Y-3.3092
X5.9763Y-4.7682
X5.9763Y-4.7282
X5.9911Y-4.2662
X5.9961Y-3.1862
X5.9961Y-3.2112
X5.9961Y-3.2362
X5.9961Y-4.1662
X6.0157Y-4.7282
X6.0157Y-4.7682
X6.0166Y-4.0282
X6.0241Y-4.2662
X6.0251Y-4.3661
X6.0311Y-2.6732
X6.0551Y-4.7282
X6.0551Y-4.7682
X6.0944Y-4.7682
X6.1041Y-2.6732
X6.1339Y-4.7682
X6.1531Y-1.9522
X6.1531Y-2.6732
X6.1732Y-4.7682
X6.1851Y-3.2892
X6.1965Y-4.2142
X6.2271Y-4.4572
X6.2271Y-4.4982
X6.2751Y-3.8662
X6.2941Y-1.9522
X6.2941Y-5.5282
X6.3446Y-4.2432
X6.3446Y-3.5322
X6.3496Y-3.0362
X6.3496Y-4.4572
X6.3821Y-3.1142
X6.3821Y-4.5352
X6.4145Y-3.0362
X6.4145Y-3.7462
X6.4145Y-4.4572
X6.4741Y-3.5287
X6.4741Y-3.7462
X6.4741Y-3.0362
X6.4741Y-3.9646
X6.4741Y-4.2397
X6.4741Y-2.8187
X6.4741Y-3.2546
X6.4741Y-4.4562
X6.4741Y-4.6756
X6.5336Y-3.0362
X6.5336Y-3.7462
X6.5336Y-4.4572
X6.5391Y-4.0282
X6.5401Y-3.3162
X6.5661Y-2.9582
X6.5661Y-3.6682
X6.5661Y-4.3792
X6.5985Y-3.0362
X6.5985Y-3.7462
X6.5985Y-4.4572
X6.6011Y-4.0282
X6.6021Y-3.3162
X6.6035Y-3.9612
X6.6035Y-4.6722
X6.6035Y-3.2512
X6.7346Y-2.8222
X6.7346Y-3.5312
X6.7346Y-4.2432
X6.7371Y-3.3162
X6.7371Y-4.0282
X6.7393Y-3.0359
X6.7396Y-3.7462
X6.7396Y-4.4572
X6.7721Y-3.1142
X6.7721Y-3.8242
X6.7721Y-4.5352
X6.7991Y-4.0282
X6.7991Y-3.3162
X6.8045Y-3.0362
X6.8045Y-3.7462
X6.8045Y-4.4572
X6.8641Y-2.8187
X6.8641Y-3.0362
X6.8641Y-3.2546
X6.8641Y-3.5277
X6.8641Y-3.7462
X6.8641Y-4.2397
X6.8641Y-4.4572
X6.8641Y-4.6756
X6.8641Y-3.9636
X6.9236Y-3.0362
X6.9236Y-4.4572
X6.9236Y-3.7462
X6.9561Y-2.9582
X6.9561Y-4.3792
X6.9561Y-3.6682
X6.9885Y-3.0362
X6.9885Y-3.7462
X6.9885Y-4.4572
X6.9935Y-3.2512
X6.9935Y-3.9602
X6.9935Y-4.6722
X7.0551Y-4.0802
X7.0551Y-4.1272
X7.0945Y-3.6024
X7.0945Y-3.6339
X7.0945Y-3.7402
X7.0945Y-3.7717
X7.1024Y-3.3832
X7.1024Y-3.4272
X7.3141Y-5.6412
X7.7841Y-3.8972
X7.7841Y-3.4422
X7.7851Y-4.0392
T2
X5.8911Y-3.9192
X6.1011Y-3.9192
T3
X4.1063Y-2.9134
X4.1063Y-4.5669
X4.1317Y-2.8521
X4.1317Y-2.9746
X4.1317Y-4.5057
X4.1317Y-4.6282
X4.1929Y-2.8268
X4.1929Y-3.0
X4.1929Y-4.4803
X4.1929Y-4.6535
X4.2542Y-2.8521
X4.2542Y-2.9746
X4.2542Y-4.5057
X4.2542Y-4.6282
X4.2795Y-2.9134
X4.2795Y-4.5669
X5.0827Y-1.937
X5.0827Y-5.5433
X5.108Y-1.8758
X5.108Y-1.9983
X5.108Y-5.4821
X5.108Y-5.6046
X5.1693Y-1.8504
X5.1693Y-2.0236
X5.1693Y-5.4567
X5.1693Y-5.6299
X5.2305Y-1.8758
X5.2305Y-1.9983
X5.2305Y-5.4821
X5.2305Y-5.6046
X5.2559Y-1.937
X5.2559Y-5.5433
X6.7362Y-1.937
X6.7362Y-5.5433
X6.7616Y-1.8758
X6.7616Y-1.9983
X6.7616Y-5.4821
X6.7616Y-5.6046
X6.8228Y-1.8504
X6.8228Y-2.0236
X6.8228Y-5.4567
X6.8228Y-5.6299
X6.8841Y-1.8758
X6.8841Y-1.9983
X6.8841Y-5.4821
X6.8841Y-5.6046
X6.9094Y-1.937
X6.9094Y-5.5433
X7.7126Y-2.9134
X7.7126Y-4.5669
X7.738Y-2.8521
X7.738Y-2.9746
X7.738Y-4.5057
X7.738Y-4.6282
X7.7992Y-2.8268
X7.7992Y-3.0
X7.7992Y-4.4803
X7.7992Y-4.6535
X7.8605Y-2.8521
X7.8605Y-2.9746
X7.8605Y-4.5057
X7.8605Y-4.6282
X7.8858Y-2.9134
X7.8858Y-4.5669
T4
X4.1929Y-2.9134
X4.1929Y-4.5669
X5.1693Y-1.937
X5.1693Y-5.5433
X6.8228Y-1.937
X6.8228Y-5.5433
X7.7992Y-2.9134
X7.7992Y-4.5669
M30
