%TF.GenerationSoftware,KiCad,Pcbnew,9.0.7*%
%TF.CreationDate,2026-02-05T12:33:28-05:00*%
%TF.ProjectId,Cell Backer,43656c6c-2042-4616-936b-65722e6b6963,rev?*%
%TF.SameCoordinates,Original*%
%TF.FileFunction,Profile,NP*%
%FSLAX46Y46*%
G04 Gerber Fmt 4.6, Leading zero omitted, Abs format (unit mm)*
G04 Created by KiCad (PCBNEW 9.0.7) date 2026-02-05 12:33:28*
%MOMM*%
%LPD*%
G01*
G04 APERTURE LIST*
%TA.AperFunction,Profile*%
%ADD10C,0.050000*%
%TD*%
G04 APERTURE END LIST*
D10*
X190000000Y-109250001D02*
G75*
G02*
X187500000Y-111750000I-2500000J1D01*
G01*
X143500000Y-101999999D02*
X139000000Y-102000000D01*
X134500000Y-125000000D02*
G75*
G02*
X132000000Y-122500000I0J2500000D01*
G01*
X134500000Y-125000000D02*
X139000000Y-125000000D01*
X113500000Y-134500000D02*
X116000000Y-134500000D01*
X185000000Y-60000000D02*
X185000001Y-64500001D01*
X166500000Y-101999999D02*
G75*
G02*
X169000001Y-104499999I0J-2500001D01*
G01*
X187500000Y-92249999D02*
G75*
G02*
X190000001Y-94749999I0J-2500001D01*
G01*
X166500000Y-69500000D02*
X162000000Y-69500000D01*
X178000000Y-72000000D02*
X178000000Y-89749999D01*
X116000000Y-139500000D02*
X116000000Y-144000000D01*
X166500000Y-69500000D02*
G75*
G02*
X169000000Y-72000001I0J-2500000D01*
G01*
X180500000Y-92249999D02*
G75*
G02*
X178000001Y-89749999I0J2499999D01*
G01*
X134500000Y-92500001D02*
G75*
G02*
X131999999Y-90000001I0J2500001D01*
G01*
X155000000Y-104500001D02*
G75*
G02*
X157500000Y-102000000I2500000J1D01*
G01*
X132000000Y-90000000D02*
X132000000Y-72000001D01*
X169000000Y-122000000D02*
G75*
G02*
X166500000Y-124500000I-2500000J0D01*
G01*
X116000000Y-69500000D02*
X113500000Y-69500000D01*
X113500000Y-139500000D02*
G75*
G02*
X111000000Y-137000000I0J2500000D01*
G01*
X185000000Y-69500000D02*
X187500000Y-69500000D01*
X185000000Y-92249999D02*
X187500000Y-92249999D01*
X113500000Y-111500001D02*
X116000000Y-111500001D01*
X169000000Y-90000000D02*
G75*
G02*
X166500000Y-92500000I-2500000J0D01*
G01*
X146000000Y-104499999D02*
X146000000Y-122500000D01*
X169000000Y-104499999D02*
X169000000Y-122000000D01*
X123000000Y-132000000D02*
G75*
G02*
X120500000Y-134500000I-2500000J0D01*
G01*
X120500000Y-69500000D02*
X116000000Y-69500000D01*
X162000000Y-134500000D02*
X139000000Y-134500000D01*
X180500000Y-69500000D02*
X185000000Y-69500000D01*
X178000000Y-114250002D02*
G75*
G02*
X180500000Y-111750000I2500000J2D01*
G01*
X180500000Y-92249999D02*
X185000000Y-92249999D01*
X113500000Y-111500001D02*
G75*
G02*
X110999999Y-109000001I0J2500001D01*
G01*
X134500000Y-92500001D02*
X139000000Y-92500000D01*
X111000000Y-137000000D02*
G75*
G02*
X113500000Y-134500000I2500000J0D01*
G01*
X132000000Y-104500000D02*
G75*
G02*
X134500000Y-102000000I2500000J0D01*
G01*
X111000000Y-67000000D02*
G75*
G02*
X113500000Y-64500000I2500000J0D01*
G01*
X180500000Y-134499999D02*
G75*
G02*
X178000001Y-131999999I0J2499999D01*
G01*
X187500000Y-64500000D02*
G75*
G02*
X190000000Y-67000000I0J-2500000D01*
G01*
X113500000Y-92500000D02*
X116000000Y-92500000D01*
X120500000Y-92500000D02*
X116000000Y-92500000D01*
X166500000Y-92500000D02*
X162000000Y-92500000D01*
X166500000Y-124500000D02*
X162000000Y-124499999D01*
X190000000Y-67000000D02*
G75*
G02*
X187500000Y-69500000I-2500000J0D01*
G01*
X123000000Y-90000000D02*
G75*
G02*
X120500000Y-92500000I-2500000J0D01*
G01*
X116000000Y-64500000D02*
X113500000Y-64500000D01*
X116000000Y-60000000D02*
X139000000Y-60000000D01*
X116000000Y-64500000D02*
X116000000Y-60000000D01*
X169000000Y-90000000D02*
X169000000Y-72000001D01*
X185000001Y-64500001D02*
X187500000Y-64500000D01*
X155000000Y-122000000D02*
X155000000Y-104500001D01*
X139000000Y-92500000D02*
X162000000Y-92500000D01*
X123000000Y-114000000D02*
X123000000Y-132000000D01*
X139000000Y-69500000D02*
X139000000Y-60000000D01*
X185000000Y-144000000D02*
X185000000Y-139500000D01*
X185000000Y-139500000D02*
X187500000Y-139500000D01*
X157500000Y-102000001D02*
X162000000Y-102000000D01*
X132000000Y-122500000D02*
X132000000Y-104500000D01*
X113500000Y-69500000D02*
G75*
G02*
X111000000Y-67000000I0J2500000D01*
G01*
X162000000Y-144000000D02*
X162000000Y-134500000D01*
X143500000Y-125000000D02*
X139000000Y-124999999D01*
X111000000Y-95000000D02*
X111000000Y-109000000D01*
X180500000Y-134499999D02*
X185000000Y-134499999D01*
X187500000Y-111750001D02*
X185000000Y-111750001D01*
X134500000Y-102000000D02*
X139000000Y-102000000D01*
X132000000Y-72000001D02*
G75*
G02*
X134500000Y-69500000I2500000J1D01*
G01*
X162000000Y-60000000D02*
X185000000Y-60000000D01*
X146000000Y-122500000D02*
G75*
G02*
X143500000Y-125000000I-2500000J0D01*
G01*
X187500000Y-134500000D02*
X185000000Y-134499999D01*
X178000000Y-72000000D02*
G75*
G02*
X180500000Y-69500000I2500000J0D01*
G01*
X143500000Y-101999999D02*
G75*
G02*
X146000001Y-104499999I0J-2500001D01*
G01*
X187500000Y-134500000D02*
G75*
G02*
X190000000Y-137000000I0J-2500000D01*
G01*
X134500000Y-69500000D02*
X139000000Y-69500000D01*
X120500000Y-111500001D02*
X116000000Y-111500001D01*
X185000000Y-144000000D02*
X162000000Y-144000000D01*
X166500000Y-101999999D02*
X162000000Y-102000000D01*
X178000000Y-132000000D02*
X178000000Y-114250002D01*
X139000000Y-144000000D02*
X116000000Y-144000000D01*
X157500000Y-124500000D02*
X162000000Y-124500000D01*
X120500000Y-111500000D02*
G75*
G02*
X123000000Y-114000000I0J-2500000D01*
G01*
X123000000Y-72000000D02*
X123000000Y-90000000D01*
X180500000Y-111750002D02*
X185000000Y-111750001D01*
X120500000Y-69500000D02*
G75*
G02*
X123000000Y-72000000I0J-2500000D01*
G01*
X162000000Y-69500000D02*
X162000000Y-60000000D01*
X190000000Y-109250001D02*
X190000000Y-94750001D01*
X190000000Y-137000000D02*
G75*
G02*
X187500000Y-139500000I-2500000J0D01*
G01*
X111000000Y-95000000D02*
G75*
G02*
X113500000Y-92500000I2500000J0D01*
G01*
X116000000Y-139500000D02*
X113500000Y-139500000D01*
X139000000Y-134500000D02*
X139000000Y-144000000D01*
X157500000Y-124500000D02*
G75*
G02*
X155000000Y-122000000I0J2500000D01*
G01*
X120500000Y-134500001D02*
X116000000Y-134500000D01*
M02*
