%TF.GenerationSoftware,KiCad,Pcbnew,9.0.7*%
%TF.CreationDate,2026-02-05T12:33:28-05:00*%
%TF.ProjectId,Cell Backer,43656c6c-2042-4616-936b-65722e6b6963,rev?*%
%TF.SameCoordinates,Original*%
%TF.FileFunction,Copper,L2,Bot*%
%TF.FilePolarity,Positive*%
%FSLAX46Y46*%
G04 Gerber Fmt 4.6, Leading zero omitted, Abs format (unit mm)*
G04 Created by KiCad (PCBNEW 9.0.7) date 2026-02-05 12:33:28*
%MOMM*%
%LPD*%
G01*
G04 APERTURE LIST*
%TA.AperFunction,ComponentPad*%
%ADD10C,1.700000*%
%TD*%
%TA.AperFunction,ComponentPad*%
%ADD11C,4.000000*%
%TD*%
G04 APERTURE END LIST*
D10*
%TO.P,H9,1,1*%
%TO.N,GND*%
X113500000Y-102000000D03*
%TD*%
%TO.P,H4,1,1*%
%TO.N,Net-(SC1-+)*%
X113500000Y-109000000D03*
%TD*%
D11*
%TO.P,SC2,1,+*%
%TO.N,Net-(SC2-+)*%
X127500000Y-137000000D03*
X127500000Y-141000000D03*
%TO.P,SC2,2,-*%
%TO.N,Net-(SC1-+)*%
X127500000Y-105000000D03*
X127500000Y-109000000D03*
%TD*%
D10*
%TO.P,H5,1,1*%
%TO.N,Net-(SC2-+)*%
X113500000Y-137000000D03*
%TD*%
%TO.P,H6,1,1*%
%TO.N,Net-(SC3-+)*%
X187500000Y-67000001D03*
%TD*%
%TO.P,H10,1,1*%
%TO.N,GND*%
X187500000Y-102000000D03*
%TD*%
%TO.P,H2,1,1*%
%TO.N,Net-(SC4-+)*%
X187500000Y-109000000D03*
%TD*%
%TO.P,H8,1,1*%
%TO.N,VSOLAR*%
X187500000Y-137000000D03*
%TD*%
D11*
%TO.P,SC3,1,+*%
%TO.N,Net-(SC3-+)*%
X150500000Y-99500000D03*
X150500000Y-95500000D03*
%TO.P,SC3,2,-*%
%TO.N,Net-(SC2-+)*%
X150500000Y-131500000D03*
X150500000Y-127500000D03*
%TD*%
D10*
%TO.P,H7,1,1*%
%TO.N,Net-(SC4-+)*%
X187500000Y-95000000D03*
%TD*%
%TO.P,H1,1,1*%
%TO.N,Net-(SC1-+)*%
X113500000Y-95000000D03*
%TD*%
D11*
%TO.P,SC5,1,+*%
%TO.N,VSOLAR*%
X173500000Y-137000000D03*
X173500000Y-141000000D03*
%TO.P,SC5,2,-*%
%TO.N,Net-(SC4-+)*%
X173500000Y-105000000D03*
X173500000Y-109000000D03*
%TD*%
%TO.P,SC4,1,+*%
%TO.N,Net-(SC4-+)*%
X173500000Y-95000000D03*
X173500000Y-99000000D03*
%TO.P,SC4,2,-*%
%TO.N,Net-(SC3-+)*%
X173500000Y-63000000D03*
X173500000Y-67000000D03*
%TD*%
D10*
%TO.P,H3,1,1*%
%TO.N,GND*%
X113500000Y-67000000D03*
%TD*%
D11*
%TO.P,SC1,1,+*%
%TO.N,Net-(SC1-+)*%
X127500000Y-95000000D03*
X127500000Y-99000000D03*
%TO.P,SC1,2,-*%
%TO.N,GND*%
X127500000Y-63000000D03*
X127500000Y-67000000D03*
%TD*%
%TA.AperFunction,Conductor*%
%TO.N,GND*%
G36*
X138560621Y-60401502D02*
G01*
X138607114Y-60455158D01*
X138618500Y-60507500D01*
X138618500Y-68992500D01*
X138598498Y-69060621D01*
X138544842Y-69107114D01*
X138492500Y-69118500D01*
X134338176Y-69118500D01*
X134016566Y-69154737D01*
X133701034Y-69226755D01*
X133395577Y-69333640D01*
X133395550Y-69333651D01*
X133103964Y-69474071D01*
X132829930Y-69646259D01*
X132576893Y-69848049D01*
X132348048Y-70076894D01*
X132146256Y-70329933D01*
X132146252Y-70329940D01*
X131974072Y-70603963D01*
X131974071Y-70603966D01*
X131833647Y-70895558D01*
X131833639Y-70895578D01*
X131726755Y-71201036D01*
X131654737Y-71516567D01*
X131618500Y-71838178D01*
X131618500Y-89947809D01*
X131618499Y-89947812D01*
X131618499Y-90161824D01*
X131654736Y-90483434D01*
X131669693Y-90548963D01*
X131726753Y-90798960D01*
X131726755Y-90798966D01*
X131726754Y-90798966D01*
X131833639Y-91104423D01*
X131833647Y-91104443D01*
X131974071Y-91396035D01*
X131974072Y-91396037D01*
X132146260Y-91670073D01*
X132146264Y-91670079D01*
X132348045Y-91923102D01*
X132348054Y-91923112D01*
X132576893Y-92151951D01*
X132576896Y-92151953D01*
X132576897Y-92151954D01*
X132829931Y-92353742D01*
X132897595Y-92396258D01*
X133103964Y-92525929D01*
X133103967Y-92525930D01*
X133103968Y-92525931D01*
X133395560Y-92666354D01*
X133395576Y-92666359D01*
X133395577Y-92666360D01*
X133701035Y-92773245D01*
X133701038Y-92773245D01*
X133701042Y-92773247D01*
X134016570Y-92845264D01*
X134244618Y-92870959D01*
X134338176Y-92881501D01*
X134338178Y-92881501D01*
X134607034Y-92881501D01*
X134607043Y-92881500D01*
X166661824Y-92881500D01*
X166743501Y-92872296D01*
X166983430Y-92845263D01*
X167298958Y-92773246D01*
X167604440Y-92666353D01*
X167896032Y-92525930D01*
X168170069Y-92353741D01*
X168423103Y-92151953D01*
X168651953Y-91923103D01*
X168853741Y-91670069D01*
X169025930Y-91396032D01*
X169166353Y-91104440D01*
X169273246Y-90798958D01*
X169345263Y-90483430D01*
X169381500Y-90161822D01*
X169381500Y-90000000D01*
X169381500Y-89945149D01*
X169381500Y-71949776D01*
X169381500Y-71949775D01*
X169381500Y-71838180D01*
X169345263Y-71516571D01*
X169273246Y-71201043D01*
X169273243Y-71201035D01*
X169166360Y-70895578D01*
X169166359Y-70895576D01*
X169166354Y-70895561D01*
X169025930Y-70603969D01*
X169025927Y-70603964D01*
X169025927Y-70603963D01*
X168853747Y-70329940D01*
X168853743Y-70329933D01*
X168651951Y-70076894D01*
X168423106Y-69848049D01*
X168170069Y-69646259D01*
X167896035Y-69474071D01*
X167604449Y-69333651D01*
X167604444Y-69333649D01*
X167604440Y-69333647D01*
X167604434Y-69333644D01*
X167604422Y-69333640D01*
X167298965Y-69226755D01*
X166983433Y-69154737D01*
X166661824Y-69118500D01*
X166661822Y-69118500D01*
X166550225Y-69118500D01*
X162507500Y-69118500D01*
X162439379Y-69098498D01*
X162392886Y-69044842D01*
X162381500Y-68992500D01*
X162381500Y-62852230D01*
X171245500Y-62852230D01*
X171245500Y-63147769D01*
X171284074Y-63440767D01*
X171284075Y-63440773D01*
X171284076Y-63440775D01*
X171360566Y-63726240D01*
X171473662Y-63999279D01*
X171473663Y-63999280D01*
X171473668Y-63999290D01*
X171621427Y-64255216D01*
X171621429Y-64255218D01*
X171621430Y-64255220D01*
X171718622Y-64381883D01*
X171801336Y-64489678D01*
X171801355Y-64489699D01*
X172010300Y-64698644D01*
X172010310Y-64698653D01*
X172010316Y-64698659D01*
X172244780Y-64878570D01*
X172244785Y-64878573D01*
X172244788Y-64878575D01*
X172266103Y-64890882D01*
X172315096Y-64942265D01*
X172328531Y-65011979D01*
X172302144Y-65077889D01*
X172266103Y-65109118D01*
X172244788Y-65121424D01*
X172244777Y-65121432D01*
X172010321Y-65301336D01*
X172010300Y-65301355D01*
X171801355Y-65510300D01*
X171801336Y-65510321D01*
X171621432Y-65744777D01*
X171621427Y-65744783D01*
X171473668Y-66000709D01*
X171473663Y-66000719D01*
X171473662Y-66000721D01*
X171473571Y-66000940D01*
X171360566Y-66273760D01*
X171284074Y-66559232D01*
X171245500Y-66852230D01*
X171245500Y-67147769D01*
X171284074Y-67440767D01*
X171284075Y-67440773D01*
X171284076Y-67440775D01*
X171360566Y-67726240D01*
X171473662Y-67999279D01*
X171473663Y-67999280D01*
X171473668Y-67999290D01*
X171621427Y-68255216D01*
X171621429Y-68255218D01*
X171621430Y-68255220D01*
X171718622Y-68381883D01*
X171801336Y-68489678D01*
X171801355Y-68489699D01*
X172010300Y-68698644D01*
X172010310Y-68698653D01*
X172010316Y-68698659D01*
X172244780Y-68878570D01*
X172500721Y-69026338D01*
X172773760Y-69139434D01*
X173059225Y-69215924D01*
X173059231Y-69215924D01*
X173059232Y-69215925D01*
X173087417Y-69219635D01*
X173352232Y-69254500D01*
X173352239Y-69254500D01*
X173647761Y-69254500D01*
X173647768Y-69254500D01*
X173940775Y-69215924D01*
X174226240Y-69139434D01*
X174499279Y-69026338D01*
X174755220Y-68878570D01*
X174989684Y-68698659D01*
X175198659Y-68489684D01*
X175378570Y-68255220D01*
X175526338Y-67999279D01*
X175639434Y-67726240D01*
X175715924Y-67440775D01*
X175754500Y-67147768D01*
X175754500Y-66913075D01*
X186395500Y-66913075D01*
X186395500Y-67086927D01*
X186412300Y-67192993D01*
X186422698Y-67258643D01*
X186442620Y-67319958D01*
X186476420Y-67423982D01*
X186555215Y-67578625D01*
X186555349Y-67578888D01*
X186657536Y-67719536D01*
X186780464Y-67842464D01*
X186780467Y-67842466D01*
X186921116Y-67944654D01*
X187076019Y-68023581D01*
X187241362Y-68077304D01*
X187413074Y-68104501D01*
X187413077Y-68104501D01*
X187586923Y-68104501D01*
X187586926Y-68104501D01*
X187758638Y-68077304D01*
X187923981Y-68023581D01*
X188078884Y-67944654D01*
X188219533Y-67842466D01*
X188342465Y-67719534D01*
X188444653Y-67578885D01*
X188523580Y-67423982D01*
X188577303Y-67258639D01*
X188604500Y-67086927D01*
X188604500Y-66913075D01*
X188577303Y-66741363D01*
X188523580Y-66576020D01*
X188444653Y-66421117D01*
X188342465Y-66280468D01*
X188342463Y-66280465D01*
X188219535Y-66157537D01*
X188078887Y-66055350D01*
X188078886Y-66055349D01*
X188078884Y-66055348D01*
X187923981Y-65976421D01*
X187923978Y-65976420D01*
X187923976Y-65976419D01*
X187758642Y-65922699D01*
X187758640Y-65922698D01*
X187758638Y-65922698D01*
X187586926Y-65895501D01*
X187413074Y-65895501D01*
X187241362Y-65922698D01*
X187241360Y-65922698D01*
X187241357Y-65922699D01*
X187076023Y-65976419D01*
X187076017Y-65976422D01*
X186921112Y-66055350D01*
X186780464Y-66157537D01*
X186657536Y-66280465D01*
X186555349Y-66421113D01*
X186476421Y-66576018D01*
X186476418Y-66576024D01*
X186422698Y-66741358D01*
X186422697Y-66741361D01*
X186422697Y-66741363D01*
X186395500Y-66913075D01*
X175754500Y-66913075D01*
X175754500Y-66852232D01*
X175715924Y-66559225D01*
X175639434Y-66273760D01*
X175526338Y-66000721D01*
X175442705Y-65855864D01*
X175378572Y-65744783D01*
X175378570Y-65744780D01*
X175198659Y-65510316D01*
X175198653Y-65510310D01*
X175198644Y-65510300D01*
X174989699Y-65301355D01*
X174989678Y-65301336D01*
X174807663Y-65161671D01*
X174755220Y-65121430D01*
X174755218Y-65121429D01*
X174755216Y-65121427D01*
X174733897Y-65109119D01*
X174684904Y-65057737D01*
X174671467Y-64988023D01*
X174697854Y-64922112D01*
X174733897Y-64890881D01*
X174755211Y-64878575D01*
X174755220Y-64878570D01*
X174989684Y-64698659D01*
X175198659Y-64489684D01*
X175378570Y-64255220D01*
X175526338Y-63999279D01*
X175639434Y-63726240D01*
X175715924Y-63440775D01*
X175754500Y-63147768D01*
X175754500Y-62852232D01*
X175715924Y-62559225D01*
X175639434Y-62273760D01*
X175526338Y-62000721D01*
X175442705Y-61855864D01*
X175378572Y-61744783D01*
X175378570Y-61744780D01*
X175198659Y-61510316D01*
X175198653Y-61510310D01*
X175198644Y-61510300D01*
X174989699Y-61301355D01*
X174989678Y-61301336D01*
X174854327Y-61197478D01*
X174755220Y-61121430D01*
X174755218Y-61121429D01*
X174755216Y-61121427D01*
X174499290Y-60973668D01*
X174499285Y-60973665D01*
X174499279Y-60973662D01*
X174226240Y-60860566D01*
X173940775Y-60784076D01*
X173940773Y-60784075D01*
X173940767Y-60784074D01*
X173647769Y-60745500D01*
X173647768Y-60745500D01*
X173352232Y-60745500D01*
X173352230Y-60745500D01*
X173059232Y-60784074D01*
X172773760Y-60860566D01*
X172500719Y-60973663D01*
X172500709Y-60973668D01*
X172244783Y-61121427D01*
X172244777Y-61121432D01*
X172010321Y-61301336D01*
X172010300Y-61301355D01*
X171801355Y-61510300D01*
X171801336Y-61510321D01*
X171621432Y-61744777D01*
X171621427Y-61744783D01*
X171473668Y-62000709D01*
X171473663Y-62000719D01*
X171473662Y-62000721D01*
X171473571Y-62000940D01*
X171360566Y-62273760D01*
X171284074Y-62559232D01*
X171245500Y-62852230D01*
X162381500Y-62852230D01*
X162381500Y-60507500D01*
X162401502Y-60439379D01*
X162455158Y-60392886D01*
X162507500Y-60381500D01*
X184492500Y-60381500D01*
X184560621Y-60401502D01*
X184607114Y-60455158D01*
X184618500Y-60507500D01*
X184618500Y-64550224D01*
X184644501Y-64647259D01*
X184694722Y-64734244D01*
X184694730Y-64734254D01*
X184765747Y-64805271D01*
X184765752Y-64805275D01*
X184765754Y-64805277D01*
X184765755Y-64805278D01*
X184765757Y-64805279D01*
X184852742Y-64855500D01*
X184852744Y-64855500D01*
X184852747Y-64855502D01*
X184949776Y-64881501D01*
X184949778Y-64881501D01*
X185102409Y-64881501D01*
X185102418Y-64881500D01*
X187495878Y-64881500D01*
X187504118Y-64881770D01*
X187534109Y-64883735D01*
X187768288Y-64899084D01*
X187784604Y-64901232D01*
X188040216Y-64952076D01*
X188056127Y-64956340D01*
X188302903Y-65040109D01*
X188318110Y-65046408D01*
X188551851Y-65161676D01*
X188566108Y-65169907D01*
X188762812Y-65301341D01*
X188782795Y-65314693D01*
X188795870Y-65324726D01*
X188991796Y-65496548D01*
X189003451Y-65508203D01*
X189175273Y-65704129D01*
X189185306Y-65717204D01*
X189330087Y-65933883D01*
X189338326Y-65948153D01*
X189375146Y-66022816D01*
X189453587Y-66181879D01*
X189459894Y-66197106D01*
X189543658Y-66443869D01*
X189547924Y-66459788D01*
X189571044Y-66576018D01*
X189591735Y-66680041D01*
X189598765Y-66715380D01*
X189600916Y-66731722D01*
X189617959Y-66991760D01*
X189617959Y-67008240D01*
X189600916Y-67268277D01*
X189598765Y-67284619D01*
X189547924Y-67540211D01*
X189543658Y-67556130D01*
X189459894Y-67802893D01*
X189453587Y-67818120D01*
X189338328Y-68051842D01*
X189330087Y-68066116D01*
X189185306Y-68282795D01*
X189175273Y-68295870D01*
X189003451Y-68491796D01*
X188991796Y-68503451D01*
X188795870Y-68675273D01*
X188782795Y-68685306D01*
X188566116Y-68830087D01*
X188551842Y-68838328D01*
X188318120Y-68953587D01*
X188302893Y-68959894D01*
X188056130Y-69043658D01*
X188040211Y-69047924D01*
X187784619Y-69098765D01*
X187768278Y-69100916D01*
X187504119Y-69118230D01*
X187495878Y-69118500D01*
X180338176Y-69118500D01*
X180016566Y-69154737D01*
X179701035Y-69226755D01*
X179395577Y-69333640D01*
X179395550Y-69333651D01*
X179103964Y-69474071D01*
X178829930Y-69646259D01*
X178576893Y-69848049D01*
X178348049Y-70076893D01*
X178146259Y-70329930D01*
X177974071Y-70603964D01*
X177833651Y-70895550D01*
X177833640Y-70895577D01*
X177726755Y-71201035D01*
X177654737Y-71516566D01*
X177618500Y-71838176D01*
X177618500Y-89810374D01*
X177618501Y-89810387D01*
X177618501Y-89911821D01*
X177654738Y-90233431D01*
X177669546Y-90298307D01*
X177726755Y-90548957D01*
X177726757Y-90548963D01*
X177726756Y-90548963D01*
X177833640Y-90854421D01*
X177833648Y-90854441D01*
X177974072Y-91146033D01*
X177974073Y-91146035D01*
X178064320Y-91289662D01*
X178131157Y-91396033D01*
X178146261Y-91420070D01*
X178146264Y-91420074D01*
X178348042Y-91673098D01*
X178576900Y-91901956D01*
X178829930Y-92103739D01*
X179103964Y-92275927D01*
X179103967Y-92275928D01*
X179103968Y-92275929D01*
X179395560Y-92416352D01*
X179395576Y-92416357D01*
X179395577Y-92416358D01*
X179701035Y-92523243D01*
X179701038Y-92523243D01*
X179701042Y-92523245D01*
X180016570Y-92595262D01*
X180244618Y-92620957D01*
X180338176Y-92631499D01*
X180338178Y-92631499D01*
X180449775Y-92631499D01*
X184949775Y-92631499D01*
X187445149Y-92631499D01*
X187495878Y-92631499D01*
X187504118Y-92631769D01*
X187534109Y-92633734D01*
X187768288Y-92649083D01*
X187784604Y-92651231D01*
X188040216Y-92702075D01*
X188056127Y-92706339D01*
X188302903Y-92790108D01*
X188318110Y-92796407D01*
X188551851Y-92911675D01*
X188566108Y-92919906D01*
X188745998Y-93040105D01*
X188782795Y-93064692D01*
X188795861Y-93074717D01*
X188991793Y-93246544D01*
X189003446Y-93258198D01*
X189175276Y-93454131D01*
X189185306Y-93467201D01*
X189276690Y-93603968D01*
X189330087Y-93683883D01*
X189338327Y-93698155D01*
X189453589Y-93931884D01*
X189459892Y-93947100D01*
X189478090Y-94000709D01*
X189543660Y-94193870D01*
X189547926Y-94209791D01*
X189598766Y-94465381D01*
X189600917Y-94481721D01*
X189618230Y-94745863D01*
X189618500Y-94754104D01*
X189618500Y-109245879D01*
X189618230Y-109254120D01*
X189600916Y-109518279D01*
X189598765Y-109534620D01*
X189547924Y-109790211D01*
X189543658Y-109806130D01*
X189459894Y-110052893D01*
X189453587Y-110068120D01*
X189338328Y-110301842D01*
X189330087Y-110316116D01*
X189185309Y-110532791D01*
X189175276Y-110545867D01*
X189003450Y-110741797D01*
X188991796Y-110753451D01*
X188795867Y-110925276D01*
X188782791Y-110935309D01*
X188566116Y-111080087D01*
X188551842Y-111088328D01*
X188318120Y-111203587D01*
X188302893Y-111209894D01*
X188056130Y-111293658D01*
X188040211Y-111297924D01*
X187784619Y-111348765D01*
X187768278Y-111350916D01*
X187504098Y-111368231D01*
X187495857Y-111368501D01*
X180552192Y-111368501D01*
X180552189Y-111368500D01*
X180500000Y-111368500D01*
X180338178Y-111368500D01*
X180338176Y-111368500D01*
X180016566Y-111404737D01*
X179701034Y-111476755D01*
X179395577Y-111583640D01*
X179395550Y-111583651D01*
X179103971Y-111724068D01*
X179103962Y-111724073D01*
X178829930Y-111896259D01*
X178576892Y-112098050D01*
X178348041Y-112326901D01*
X178146258Y-112579931D01*
X177974071Y-112853965D01*
X177833650Y-113145551D01*
X177833639Y-113145579D01*
X177726755Y-113451036D01*
X177654736Y-113766568D01*
X177618500Y-114088179D01*
X177618500Y-132060375D01*
X177618501Y-132060388D01*
X177618501Y-132161821D01*
X177654738Y-132483431D01*
X177658358Y-132499290D01*
X177726755Y-132798957D01*
X177726757Y-132798963D01*
X177726756Y-132798963D01*
X177833640Y-133104421D01*
X177833645Y-133104435D01*
X177833647Y-133104439D01*
X177833648Y-133104441D01*
X177974072Y-133396033D01*
X177974073Y-133396035D01*
X178146261Y-133670070D01*
X178146264Y-133670074D01*
X178348042Y-133923098D01*
X178576900Y-134151956D01*
X178829930Y-134353739D01*
X179103964Y-134525927D01*
X179103967Y-134525928D01*
X179103968Y-134525929D01*
X179395560Y-134666352D01*
X179395576Y-134666357D01*
X179395577Y-134666358D01*
X179701035Y-134773243D01*
X179701038Y-134773243D01*
X179701042Y-134773245D01*
X180016570Y-134845262D01*
X180244618Y-134870957D01*
X180338176Y-134881499D01*
X180338178Y-134881499D01*
X180449775Y-134881499D01*
X184949775Y-134881499D01*
X187420086Y-134881499D01*
X187445148Y-134881499D01*
X187445149Y-134881500D01*
X187495880Y-134881500D01*
X187504118Y-134881770D01*
X187534109Y-134883735D01*
X187768288Y-134899084D01*
X187784604Y-134901232D01*
X188040216Y-134952076D01*
X188056127Y-134956340D01*
X188302903Y-135040109D01*
X188318110Y-135046408D01*
X188551851Y-135161676D01*
X188566108Y-135169907D01*
X188762812Y-135301341D01*
X188782795Y-135314693D01*
X188795870Y-135324726D01*
X188991796Y-135496548D01*
X189003451Y-135508203D01*
X189175273Y-135704129D01*
X189185306Y-135717204D01*
X189322612Y-135922697D01*
X189330087Y-135933883D01*
X189338326Y-135948153D01*
X189391188Y-136055347D01*
X189453587Y-136181879D01*
X189459894Y-136197106D01*
X189543658Y-136443869D01*
X189547924Y-136459788D01*
X189598765Y-136715380D01*
X189600916Y-136731722D01*
X189617959Y-136991760D01*
X189617959Y-137008240D01*
X189600916Y-137268277D01*
X189598765Y-137284619D01*
X189547924Y-137540211D01*
X189543658Y-137556130D01*
X189459894Y-137802893D01*
X189453587Y-137818120D01*
X189338328Y-138051842D01*
X189330087Y-138066116D01*
X189185306Y-138282795D01*
X189175273Y-138295870D01*
X189003451Y-138491796D01*
X188991796Y-138503451D01*
X188795870Y-138675273D01*
X188782795Y-138685306D01*
X188566116Y-138830087D01*
X188551842Y-138838328D01*
X188318120Y-138953587D01*
X188302893Y-138959894D01*
X188056130Y-139043658D01*
X188040211Y-139047924D01*
X187784619Y-139098765D01*
X187768278Y-139100916D01*
X187504119Y-139118230D01*
X187495878Y-139118500D01*
X185050225Y-139118500D01*
X184949775Y-139118500D01*
X184890390Y-139134412D01*
X184852741Y-139144500D01*
X184765756Y-139194721D01*
X184765746Y-139194729D01*
X184694729Y-139265746D01*
X184694721Y-139265756D01*
X184644500Y-139352741D01*
X184618500Y-139449776D01*
X184618500Y-143492500D01*
X184598498Y-143560621D01*
X184544842Y-143607114D01*
X184492500Y-143618500D01*
X162507500Y-143618500D01*
X162439379Y-143598498D01*
X162392886Y-143544842D01*
X162381500Y-143492500D01*
X162381500Y-136852230D01*
X171245500Y-136852230D01*
X171245500Y-137147769D01*
X171284074Y-137440767D01*
X171284075Y-137440773D01*
X171284076Y-137440775D01*
X171360566Y-137726240D01*
X171473662Y-137999279D01*
X171473663Y-137999280D01*
X171473668Y-137999290D01*
X171621427Y-138255216D01*
X171621432Y-138255222D01*
X171801336Y-138489678D01*
X171801355Y-138489699D01*
X172010300Y-138698644D01*
X172010310Y-138698653D01*
X172010316Y-138698659D01*
X172244780Y-138878570D01*
X172244785Y-138878573D01*
X172244788Y-138878575D01*
X172266103Y-138890882D01*
X172315096Y-138942265D01*
X172328531Y-139011979D01*
X172302144Y-139077889D01*
X172266103Y-139109118D01*
X172244788Y-139121424D01*
X172244777Y-139121432D01*
X172010321Y-139301336D01*
X172010300Y-139301355D01*
X171801355Y-139510300D01*
X171801336Y-139510321D01*
X171621432Y-139744777D01*
X171621427Y-139744783D01*
X171473668Y-140000709D01*
X171473663Y-140000719D01*
X171360566Y-140273760D01*
X171284074Y-140559232D01*
X171245500Y-140852230D01*
X171245500Y-141147769D01*
X171284074Y-141440767D01*
X171284075Y-141440773D01*
X171284076Y-141440775D01*
X171360566Y-141726240D01*
X171473662Y-141999279D01*
X171473663Y-141999280D01*
X171473668Y-141999290D01*
X171621427Y-142255216D01*
X171621432Y-142255222D01*
X171801336Y-142489678D01*
X171801355Y-142489699D01*
X172010300Y-142698644D01*
X172010310Y-142698653D01*
X172010316Y-142698659D01*
X172244780Y-142878570D01*
X172500721Y-143026338D01*
X172773760Y-143139434D01*
X173059225Y-143215924D01*
X173059231Y-143215924D01*
X173059232Y-143215925D01*
X173087417Y-143219635D01*
X173352232Y-143254500D01*
X173352239Y-143254500D01*
X173647761Y-143254500D01*
X173647768Y-143254500D01*
X173940775Y-143215924D01*
X174226240Y-143139434D01*
X174499279Y-143026338D01*
X174755220Y-142878570D01*
X174989684Y-142698659D01*
X175198659Y-142489684D01*
X175378570Y-142255220D01*
X175526338Y-141999279D01*
X175639434Y-141726240D01*
X175715924Y-141440775D01*
X175754500Y-141147768D01*
X175754500Y-140852232D01*
X175715924Y-140559225D01*
X175639434Y-140273760D01*
X175526338Y-140000721D01*
X175378570Y-139744780D01*
X175198659Y-139510316D01*
X175198653Y-139510310D01*
X175198644Y-139510300D01*
X174989699Y-139301355D01*
X174989678Y-139301336D01*
X174785284Y-139144499D01*
X174755220Y-139121430D01*
X174755218Y-139121429D01*
X174755216Y-139121427D01*
X174733897Y-139109119D01*
X174684904Y-139057737D01*
X174671467Y-138988023D01*
X174697854Y-138922112D01*
X174733897Y-138890881D01*
X174755211Y-138878575D01*
X174755220Y-138878570D01*
X174989684Y-138698659D01*
X175198659Y-138489684D01*
X175378570Y-138255220D01*
X175526338Y-137999279D01*
X175639434Y-137726240D01*
X175715924Y-137440775D01*
X175754500Y-137147768D01*
X175754500Y-136913074D01*
X186395500Y-136913074D01*
X186395500Y-137086926D01*
X186405137Y-137147768D01*
X186422698Y-137258642D01*
X186431138Y-137284619D01*
X186476420Y-137423981D01*
X186555347Y-137578884D01*
X186555349Y-137578887D01*
X186657536Y-137719535D01*
X186780464Y-137842463D01*
X186780467Y-137842465D01*
X186921116Y-137944653D01*
X187076019Y-138023580D01*
X187241362Y-138077303D01*
X187413074Y-138104500D01*
X187413077Y-138104500D01*
X187586923Y-138104500D01*
X187586926Y-138104500D01*
X187758638Y-138077303D01*
X187923981Y-138023580D01*
X188078884Y-137944653D01*
X188219533Y-137842465D01*
X188342465Y-137719533D01*
X188444653Y-137578884D01*
X188523580Y-137423981D01*
X188577303Y-137258638D01*
X188604500Y-137086926D01*
X188604500Y-136913074D01*
X188577303Y-136741362D01*
X188523580Y-136576019D01*
X188444653Y-136421116D01*
X188342465Y-136280467D01*
X188342463Y-136280464D01*
X188219535Y-136157536D01*
X188078887Y-136055349D01*
X188078886Y-136055348D01*
X188078884Y-136055347D01*
X187923981Y-135976420D01*
X187923978Y-135976419D01*
X187923976Y-135976418D01*
X187758642Y-135922698D01*
X187758640Y-135922697D01*
X187758638Y-135922697D01*
X187586926Y-135895500D01*
X187413074Y-135895500D01*
X187241362Y-135922697D01*
X187241360Y-135922697D01*
X187241357Y-135922698D01*
X187076023Y-135976418D01*
X187076017Y-135976421D01*
X186921112Y-136055349D01*
X186780464Y-136157536D01*
X186657536Y-136280464D01*
X186555349Y-136421112D01*
X186476421Y-136576017D01*
X186476418Y-136576023D01*
X186422698Y-136741357D01*
X186422697Y-136741360D01*
X186422697Y-136741362D01*
X186395500Y-136913074D01*
X175754500Y-136913074D01*
X175754500Y-136852232D01*
X175715924Y-136559225D01*
X175639434Y-136273760D01*
X175526338Y-136000721D01*
X175465623Y-135895560D01*
X175378572Y-135744783D01*
X175378570Y-135744780D01*
X175198659Y-135510316D01*
X175198653Y-135510310D01*
X175198644Y-135510300D01*
X174989699Y-135301355D01*
X174989678Y-135301336D01*
X174807663Y-135161671D01*
X174755220Y-135121430D01*
X174755218Y-135121429D01*
X174755216Y-135121427D01*
X174499290Y-134973668D01*
X174499285Y-134973665D01*
X174499279Y-134973662D01*
X174226240Y-134860566D01*
X173940775Y-134784076D01*
X173940773Y-134784075D01*
X173940767Y-134784074D01*
X173647769Y-134745500D01*
X173647768Y-134745500D01*
X173352232Y-134745500D01*
X173352230Y-134745500D01*
X173059232Y-134784074D01*
X173059225Y-134784076D01*
X172773760Y-134860566D01*
X172675579Y-134901234D01*
X172500719Y-134973663D01*
X172500709Y-134973668D01*
X172244783Y-135121427D01*
X172244777Y-135121432D01*
X172010321Y-135301336D01*
X172010300Y-135301355D01*
X171801355Y-135510300D01*
X171801336Y-135510321D01*
X171621432Y-135744777D01*
X171621427Y-135744783D01*
X171473668Y-136000709D01*
X171473663Y-136000719D01*
X171473662Y-136000721D01*
X171408708Y-136157535D01*
X171360566Y-136273760D01*
X171284074Y-136559232D01*
X171245500Y-136852230D01*
X162381500Y-136852230D01*
X162381500Y-134449776D01*
X162381500Y-134449775D01*
X162355501Y-134352746D01*
X162355499Y-134352743D01*
X162355499Y-134352741D01*
X162305278Y-134265756D01*
X162305270Y-134265746D01*
X162234253Y-134194729D01*
X162234243Y-134194721D01*
X162147258Y-134144500D01*
X162135792Y-134141427D01*
X162050225Y-134118500D01*
X139050225Y-134118500D01*
X138949775Y-134118500D01*
X138890390Y-134134412D01*
X138852741Y-134144500D01*
X138765756Y-134194721D01*
X138765746Y-134194729D01*
X138694729Y-134265746D01*
X138694721Y-134265756D01*
X138644500Y-134352741D01*
X138618500Y-134449776D01*
X138618500Y-143492500D01*
X138598498Y-143560621D01*
X138544842Y-143607114D01*
X138492500Y-143618500D01*
X116507500Y-143618500D01*
X116439379Y-143598498D01*
X116392886Y-143544842D01*
X116381500Y-143492500D01*
X116381500Y-139449776D01*
X116381500Y-139449775D01*
X116355501Y-139352746D01*
X116355499Y-139352743D01*
X116355499Y-139352741D01*
X116305278Y-139265756D01*
X116305270Y-139265746D01*
X116234253Y-139194729D01*
X116234243Y-139194721D01*
X116147258Y-139144500D01*
X116135792Y-139141427D01*
X116050225Y-139118500D01*
X116050223Y-139118500D01*
X113504122Y-139118500D01*
X113495881Y-139118230D01*
X113231721Y-139100916D01*
X113215382Y-139098765D01*
X113110430Y-139077889D01*
X112959788Y-139047924D01*
X112943869Y-139043658D01*
X112697106Y-138959894D01*
X112681879Y-138953587D01*
X112448153Y-138838326D01*
X112433887Y-138830089D01*
X112217204Y-138685306D01*
X112204129Y-138675273D01*
X112008203Y-138503451D01*
X111996548Y-138491796D01*
X111991145Y-138485635D01*
X111824725Y-138295868D01*
X111814693Y-138282795D01*
X111669907Y-138066108D01*
X111661676Y-138051851D01*
X111546408Y-137818110D01*
X111540109Y-137802903D01*
X111456340Y-137556127D01*
X111452075Y-137540211D01*
X111401232Y-137284604D01*
X111399084Y-137268288D01*
X111382040Y-137008238D01*
X111382040Y-136991759D01*
X111387197Y-136913074D01*
X112395500Y-136913074D01*
X112395500Y-137086926D01*
X112405137Y-137147768D01*
X112422698Y-137258642D01*
X112431138Y-137284619D01*
X112476420Y-137423981D01*
X112555347Y-137578884D01*
X112555349Y-137578887D01*
X112657536Y-137719535D01*
X112780464Y-137842463D01*
X112780467Y-137842465D01*
X112921116Y-137944653D01*
X113076019Y-138023580D01*
X113241362Y-138077303D01*
X113413074Y-138104500D01*
X113413077Y-138104500D01*
X113586923Y-138104500D01*
X113586926Y-138104500D01*
X113758638Y-138077303D01*
X113923981Y-138023580D01*
X114078884Y-137944653D01*
X114219533Y-137842465D01*
X114342465Y-137719533D01*
X114444653Y-137578884D01*
X114523580Y-137423981D01*
X114577303Y-137258638D01*
X114604500Y-137086926D01*
X114604500Y-136913074D01*
X114594863Y-136852230D01*
X125245500Y-136852230D01*
X125245500Y-137147769D01*
X125284074Y-137440767D01*
X125284075Y-137440773D01*
X125284076Y-137440775D01*
X125360566Y-137726240D01*
X125473662Y-137999279D01*
X125473663Y-137999280D01*
X125473668Y-137999290D01*
X125621427Y-138255216D01*
X125621432Y-138255222D01*
X125801336Y-138489678D01*
X125801355Y-138489699D01*
X126010300Y-138698644D01*
X126010310Y-138698653D01*
X126010316Y-138698659D01*
X126244780Y-138878570D01*
X126244785Y-138878573D01*
X126244788Y-138878575D01*
X126266103Y-138890882D01*
X126315096Y-138942265D01*
X126328531Y-139011979D01*
X126302144Y-139077889D01*
X126266103Y-139109118D01*
X126244788Y-139121424D01*
X126244777Y-139121432D01*
X126010321Y-139301336D01*
X126010300Y-139301355D01*
X125801355Y-139510300D01*
X125801336Y-139510321D01*
X125621432Y-139744777D01*
X125621427Y-139744783D01*
X125473668Y-140000709D01*
X125473663Y-140000719D01*
X125360566Y-140273760D01*
X125284074Y-140559232D01*
X125245500Y-140852230D01*
X125245500Y-141147769D01*
X125284074Y-141440767D01*
X125284075Y-141440773D01*
X125284076Y-141440775D01*
X125360566Y-141726240D01*
X125473662Y-141999279D01*
X125473663Y-141999280D01*
X125473668Y-141999290D01*
X125621427Y-142255216D01*
X125621432Y-142255222D01*
X125801336Y-142489678D01*
X125801355Y-142489699D01*
X126010300Y-142698644D01*
X126010310Y-142698653D01*
X126010316Y-142698659D01*
X126244780Y-142878570D01*
X126500721Y-143026338D01*
X126773760Y-143139434D01*
X127059225Y-143215924D01*
X127059231Y-143215924D01*
X127059232Y-143215925D01*
X127087417Y-143219635D01*
X127352232Y-143254500D01*
X127352239Y-143254500D01*
X127647761Y-143254500D01*
X127647768Y-143254500D01*
X127940775Y-143215924D01*
X128226240Y-143139434D01*
X128499279Y-143026338D01*
X128755220Y-142878570D01*
X128989684Y-142698659D01*
X129198659Y-142489684D01*
X129378570Y-142255220D01*
X129526338Y-141999279D01*
X129639434Y-141726240D01*
X129715924Y-141440775D01*
X129754500Y-141147768D01*
X129754500Y-140852232D01*
X129715924Y-140559225D01*
X129639434Y-140273760D01*
X129526338Y-140000721D01*
X129378570Y-139744780D01*
X129198659Y-139510316D01*
X129198653Y-139510310D01*
X129198644Y-139510300D01*
X128989699Y-139301355D01*
X128989678Y-139301336D01*
X128785284Y-139144499D01*
X128755220Y-139121430D01*
X128755218Y-139121429D01*
X128755216Y-139121427D01*
X128733897Y-139109119D01*
X128684904Y-139057737D01*
X128671467Y-138988023D01*
X128697854Y-138922112D01*
X128733897Y-138890881D01*
X128755211Y-138878575D01*
X128755220Y-138878570D01*
X128989684Y-138698659D01*
X129198659Y-138489684D01*
X129378570Y-138255220D01*
X129526338Y-137999279D01*
X129639434Y-137726240D01*
X129715924Y-137440775D01*
X129754500Y-137147768D01*
X129754500Y-136852232D01*
X129715924Y-136559225D01*
X129639434Y-136273760D01*
X129526338Y-136000721D01*
X129465623Y-135895560D01*
X129378572Y-135744783D01*
X129378570Y-135744780D01*
X129198659Y-135510316D01*
X129198653Y-135510310D01*
X129198644Y-135510300D01*
X128989699Y-135301355D01*
X128989678Y-135301336D01*
X128807663Y-135161671D01*
X128755220Y-135121430D01*
X128755218Y-135121429D01*
X128755216Y-135121427D01*
X128499290Y-134973668D01*
X128499285Y-134973665D01*
X128499279Y-134973662D01*
X128226240Y-134860566D01*
X127940775Y-134784076D01*
X127940773Y-134784075D01*
X127940767Y-134784074D01*
X127647769Y-134745500D01*
X127647768Y-134745500D01*
X127352232Y-134745500D01*
X127352230Y-134745500D01*
X127059232Y-134784074D01*
X127059225Y-134784076D01*
X126773760Y-134860566D01*
X126675579Y-134901234D01*
X126500719Y-134973663D01*
X126500709Y-134973668D01*
X126244783Y-135121427D01*
X126244777Y-135121432D01*
X126010321Y-135301336D01*
X126010300Y-135301355D01*
X125801355Y-135510300D01*
X125801336Y-135510321D01*
X125621432Y-135744777D01*
X125621427Y-135744783D01*
X125473668Y-136000709D01*
X125473663Y-136000719D01*
X125473662Y-136000721D01*
X125408708Y-136157535D01*
X125360566Y-136273760D01*
X125284074Y-136559232D01*
X125245500Y-136852230D01*
X114594863Y-136852230D01*
X114577303Y-136741362D01*
X114523580Y-136576019D01*
X114444653Y-136421116D01*
X114342465Y-136280467D01*
X114342463Y-136280464D01*
X114219535Y-136157536D01*
X114078887Y-136055349D01*
X114078886Y-136055348D01*
X114078884Y-136055347D01*
X113923981Y-135976420D01*
X113923978Y-135976419D01*
X113923976Y-135976418D01*
X113758642Y-135922698D01*
X113758640Y-135922697D01*
X113758638Y-135922697D01*
X113586926Y-135895500D01*
X113413074Y-135895500D01*
X113241362Y-135922697D01*
X113241360Y-135922697D01*
X113241357Y-135922698D01*
X113076023Y-135976418D01*
X113076017Y-135976421D01*
X112921112Y-136055349D01*
X112780464Y-136157536D01*
X112657536Y-136280464D01*
X112555349Y-136421112D01*
X112476421Y-136576017D01*
X112476418Y-136576023D01*
X112422698Y-136741357D01*
X112422697Y-136741360D01*
X112422697Y-136741362D01*
X112395500Y-136913074D01*
X111387197Y-136913074D01*
X111388062Y-136899882D01*
X111388062Y-136899881D01*
X111399084Y-136731709D01*
X111401231Y-136715397D01*
X111452077Y-136459779D01*
X111456338Y-136443876D01*
X111540111Y-136197090D01*
X111546405Y-136181894D01*
X111661679Y-135948141D01*
X111669903Y-135933898D01*
X111814700Y-135717194D01*
X111824718Y-135704138D01*
X111996555Y-135508195D01*
X112008195Y-135496555D01*
X112204138Y-135324718D01*
X112217194Y-135314700D01*
X112433898Y-135169903D01*
X112448141Y-135161679D01*
X112681894Y-135046405D01*
X112697090Y-135040111D01*
X112943876Y-134956338D01*
X112959779Y-134952077D01*
X113215397Y-134901231D01*
X113231709Y-134899084D01*
X113468107Y-134883590D01*
X113495882Y-134881770D01*
X113504122Y-134881500D01*
X113554851Y-134881500D01*
X115949775Y-134881500D01*
X120445148Y-134881500D01*
X120445149Y-134881501D01*
X120500000Y-134881501D01*
X120500000Y-134881500D01*
X120550225Y-134881501D01*
X120550229Y-134881500D01*
X120552191Y-134881500D01*
X120552200Y-134881502D01*
X120552213Y-134881500D01*
X120661824Y-134881500D01*
X120743501Y-134872296D01*
X120983430Y-134845263D01*
X121298958Y-134773246D01*
X121604440Y-134666353D01*
X121896032Y-134525930D01*
X122170069Y-134353741D01*
X122423103Y-134151953D01*
X122651953Y-133923103D01*
X122853741Y-133670069D01*
X123025930Y-133396032D01*
X123166353Y-133104440D01*
X123273246Y-132798958D01*
X123345263Y-132483430D01*
X123381500Y-132161822D01*
X123381500Y-132000000D01*
X123381500Y-131945149D01*
X123381500Y-131945148D01*
X123381500Y-127352230D01*
X148245500Y-127352230D01*
X148245500Y-127647769D01*
X148284074Y-127940767D01*
X148284075Y-127940773D01*
X148284076Y-127940775D01*
X148360566Y-128226240D01*
X148473662Y-128499279D01*
X148473663Y-128499280D01*
X148473668Y-128499290D01*
X148621427Y-128755216D01*
X148621432Y-128755222D01*
X148801336Y-128989678D01*
X148801355Y-128989699D01*
X149010300Y-129198644D01*
X149010310Y-129198653D01*
X149010316Y-129198659D01*
X149244780Y-129378570D01*
X149244785Y-129378573D01*
X149244788Y-129378575D01*
X149266103Y-129390882D01*
X149315096Y-129442265D01*
X149328531Y-129511979D01*
X149302144Y-129577889D01*
X149266103Y-129609118D01*
X149244788Y-129621424D01*
X149244777Y-129621432D01*
X149010321Y-129801336D01*
X149010300Y-129801355D01*
X148801355Y-130010300D01*
X148801336Y-130010321D01*
X148621432Y-130244777D01*
X148621427Y-130244783D01*
X148473668Y-130500709D01*
X148473663Y-130500719D01*
X148360566Y-130773760D01*
X148284074Y-131059232D01*
X148245500Y-131352230D01*
X148245500Y-131647769D01*
X148284074Y-131940767D01*
X148284075Y-131940773D01*
X148284076Y-131940775D01*
X148360566Y-132226240D01*
X148473662Y-132499279D01*
X148473663Y-132499280D01*
X148473668Y-132499290D01*
X148621427Y-132755216D01*
X148621429Y-132755218D01*
X148621430Y-132755220D01*
X148654996Y-132798964D01*
X148801336Y-132989678D01*
X148801355Y-132989699D01*
X149010300Y-133198644D01*
X149010310Y-133198653D01*
X149010316Y-133198659D01*
X149244780Y-133378570D01*
X149244781Y-133378571D01*
X149244783Y-133378572D01*
X149275030Y-133396035D01*
X149500721Y-133526338D01*
X149773760Y-133639434D01*
X150059225Y-133715924D01*
X150059231Y-133715924D01*
X150059232Y-133715925D01*
X150087417Y-133719635D01*
X150352232Y-133754500D01*
X150352239Y-133754500D01*
X150647761Y-133754500D01*
X150647768Y-133754500D01*
X150940775Y-133715924D01*
X151226240Y-133639434D01*
X151499279Y-133526338D01*
X151755220Y-133378570D01*
X151989684Y-133198659D01*
X152198659Y-132989684D01*
X152378570Y-132755220D01*
X152526338Y-132499279D01*
X152639434Y-132226240D01*
X152715924Y-131940775D01*
X152754500Y-131647768D01*
X152754500Y-131352232D01*
X152715924Y-131059225D01*
X152639434Y-130773760D01*
X152526338Y-130500721D01*
X152378570Y-130244780D01*
X152198659Y-130010316D01*
X152198653Y-130010310D01*
X152198644Y-130010300D01*
X151989699Y-129801355D01*
X151989678Y-129801336D01*
X151881883Y-129718622D01*
X151755220Y-129621430D01*
X151755218Y-129621429D01*
X151755216Y-129621427D01*
X151733897Y-129609119D01*
X151684904Y-129557737D01*
X151671467Y-129488023D01*
X151697854Y-129422112D01*
X151733897Y-129390881D01*
X151755211Y-129378575D01*
X151755220Y-129378570D01*
X151989684Y-129198659D01*
X152198659Y-128989684D01*
X152378570Y-128755220D01*
X152526338Y-128499279D01*
X152639434Y-128226240D01*
X152715924Y-127940775D01*
X152754500Y-127647768D01*
X152754500Y-127352232D01*
X152715924Y-127059225D01*
X152639434Y-126773760D01*
X152526338Y-126500721D01*
X152378570Y-126244780D01*
X152198659Y-126010316D01*
X152198653Y-126010310D01*
X152198644Y-126010300D01*
X151989699Y-125801355D01*
X151989678Y-125801336D01*
X151881883Y-125718622D01*
X151755220Y-125621430D01*
X151755218Y-125621429D01*
X151755216Y-125621427D01*
X151499290Y-125473668D01*
X151499285Y-125473665D01*
X151499279Y-125473662D01*
X151226240Y-125360566D01*
X150940775Y-125284076D01*
X150940773Y-125284075D01*
X150940767Y-125284074D01*
X150647769Y-125245500D01*
X150647768Y-125245500D01*
X150352232Y-125245500D01*
X150352230Y-125245500D01*
X150059232Y-125284074D01*
X149773760Y-125360566D01*
X149500719Y-125473663D01*
X149500709Y-125473668D01*
X149244783Y-125621427D01*
X149244777Y-125621432D01*
X149010321Y-125801336D01*
X149010300Y-125801355D01*
X148801355Y-126010300D01*
X148801336Y-126010321D01*
X148621432Y-126244777D01*
X148621427Y-126244783D01*
X148473668Y-126500709D01*
X148473663Y-126500719D01*
X148360566Y-126773760D01*
X148284074Y-127059232D01*
X148245500Y-127352230D01*
X123381500Y-127352230D01*
X123381500Y-113949775D01*
X123381500Y-113838178D01*
X123345263Y-113516570D01*
X123273246Y-113201042D01*
X123166353Y-112895560D01*
X123025930Y-112603968D01*
X123025929Y-112603967D01*
X123025928Y-112603964D01*
X122853740Y-112329930D01*
X122851324Y-112326901D01*
X122695498Y-112131501D01*
X122651950Y-112076893D01*
X122423106Y-111848049D01*
X122170069Y-111646259D01*
X121896035Y-111474071D01*
X121604449Y-111333651D01*
X121604444Y-111333649D01*
X121604440Y-111333647D01*
X121604434Y-111333644D01*
X121604422Y-111333640D01*
X121298964Y-111226755D01*
X120983433Y-111154737D01*
X120661824Y-111118500D01*
X120661822Y-111118500D01*
X120500000Y-111118500D01*
X120445149Y-111118500D01*
X120434998Y-111118500D01*
X120434986Y-111118501D01*
X113504122Y-111118501D01*
X113495881Y-111118231D01*
X113231721Y-111100917D01*
X113215382Y-111098766D01*
X113121475Y-111080087D01*
X112959788Y-111047925D01*
X112943869Y-111043659D01*
X112697106Y-110959895D01*
X112681879Y-110953588D01*
X112644813Y-110935309D01*
X112448153Y-110838327D01*
X112433887Y-110830090D01*
X112217204Y-110685307D01*
X112204136Y-110675280D01*
X112008204Y-110503453D01*
X111996553Y-110491801D01*
X111824723Y-110295868D01*
X111814695Y-110282800D01*
X111669911Y-110066115D01*
X111661672Y-110051844D01*
X111546406Y-109818108D01*
X111540110Y-109802907D01*
X111456336Y-109556121D01*
X111452075Y-109540216D01*
X111401231Y-109284607D01*
X111399083Y-109268289D01*
X111381770Y-109004134D01*
X111381500Y-108995894D01*
X111381500Y-108913074D01*
X112395500Y-108913074D01*
X112395500Y-109086926D01*
X112422697Y-109258638D01*
X112422698Y-109258642D01*
X112472469Y-109411823D01*
X112476420Y-109423981D01*
X112543753Y-109556129D01*
X112555349Y-109578887D01*
X112657536Y-109719535D01*
X112780464Y-109842463D01*
X112780467Y-109842465D01*
X112921116Y-109944653D01*
X113076019Y-110023580D01*
X113241362Y-110077303D01*
X113413074Y-110104500D01*
X113413077Y-110104500D01*
X113586923Y-110104500D01*
X113586926Y-110104500D01*
X113758638Y-110077303D01*
X113923981Y-110023580D01*
X114078884Y-109944653D01*
X114219533Y-109842465D01*
X114342465Y-109719533D01*
X114444653Y-109578884D01*
X114523580Y-109423981D01*
X114577303Y-109258638D01*
X114604500Y-109086926D01*
X114604500Y-108913074D01*
X114577303Y-108741362D01*
X114523580Y-108576019D01*
X114444653Y-108421116D01*
X114342465Y-108280467D01*
X114342463Y-108280464D01*
X114219535Y-108157536D01*
X114078887Y-108055349D01*
X114078886Y-108055348D01*
X114078884Y-108055347D01*
X113923981Y-107976420D01*
X113923978Y-107976419D01*
X113923976Y-107976418D01*
X113758642Y-107922698D01*
X113758640Y-107922697D01*
X113758638Y-107922697D01*
X113586926Y-107895500D01*
X113413074Y-107895500D01*
X113241362Y-107922697D01*
X113241360Y-107922697D01*
X113241357Y-107922698D01*
X113076023Y-107976418D01*
X113076017Y-107976421D01*
X112921112Y-108055349D01*
X112780464Y-108157536D01*
X112657536Y-108280464D01*
X112555349Y-108421112D01*
X112476421Y-108576017D01*
X112476418Y-108576023D01*
X112422698Y-108741357D01*
X112422697Y-108741360D01*
X112422697Y-108741362D01*
X112395500Y-108913074D01*
X111381500Y-108913074D01*
X111381500Y-104852230D01*
X125245500Y-104852230D01*
X125245500Y-105147769D01*
X125284074Y-105440767D01*
X125284075Y-105440773D01*
X125284076Y-105440775D01*
X125360566Y-105726240D01*
X125473662Y-105999279D01*
X125473663Y-105999280D01*
X125473668Y-105999290D01*
X125621427Y-106255216D01*
X125621432Y-106255222D01*
X125801336Y-106489678D01*
X125801355Y-106489699D01*
X126010300Y-106698644D01*
X126010310Y-106698653D01*
X126010316Y-106698659D01*
X126244780Y-106878570D01*
X126244785Y-106878573D01*
X126244788Y-106878575D01*
X126266103Y-106890882D01*
X126315096Y-106942265D01*
X126328531Y-107011979D01*
X126302144Y-107077889D01*
X126266103Y-107109118D01*
X126244788Y-107121424D01*
X126244777Y-107121432D01*
X126010321Y-107301336D01*
X126010300Y-107301355D01*
X125801355Y-107510300D01*
X125801336Y-107510321D01*
X125621432Y-107744777D01*
X125621427Y-107744783D01*
X125473668Y-108000709D01*
X125473663Y-108000719D01*
X125473662Y-108000721D01*
X125408708Y-108157535D01*
X125360566Y-108273760D01*
X125284074Y-108559232D01*
X125245500Y-108852230D01*
X125245500Y-109147769D01*
X125284074Y-109440767D01*
X125284075Y-109440773D01*
X125284076Y-109440775D01*
X125360566Y-109726240D01*
X125473662Y-109999279D01*
X125473663Y-109999280D01*
X125473668Y-109999290D01*
X125621427Y-110255216D01*
X125621429Y-110255218D01*
X125621430Y-110255220D01*
X125697564Y-110354440D01*
X125801336Y-110489678D01*
X125801355Y-110489699D01*
X126010300Y-110698644D01*
X126010310Y-110698653D01*
X126010316Y-110698659D01*
X126244780Y-110878570D01*
X126244781Y-110878571D01*
X126244783Y-110878572D01*
X126381040Y-110957240D01*
X126500721Y-111026338D01*
X126773760Y-111139434D01*
X127059225Y-111215924D01*
X127059231Y-111215924D01*
X127059232Y-111215925D01*
X127087417Y-111219635D01*
X127352232Y-111254500D01*
X127352239Y-111254500D01*
X127647761Y-111254500D01*
X127647768Y-111254500D01*
X127940775Y-111215924D01*
X128226240Y-111139434D01*
X128499279Y-111026338D01*
X128755220Y-110878570D01*
X128989684Y-110698659D01*
X129198659Y-110489684D01*
X129378570Y-110255220D01*
X129526338Y-109999279D01*
X129639434Y-109726240D01*
X129715924Y-109440775D01*
X129754500Y-109147768D01*
X129754500Y-108852232D01*
X129715924Y-108559225D01*
X129639434Y-108273760D01*
X129526338Y-108000721D01*
X129481291Y-107922697D01*
X129378572Y-107744783D01*
X129378570Y-107744780D01*
X129198659Y-107510316D01*
X129198653Y-107510310D01*
X129198644Y-107510300D01*
X128989699Y-107301355D01*
X128989678Y-107301336D01*
X128881883Y-107218622D01*
X128755220Y-107121430D01*
X128755218Y-107121429D01*
X128755216Y-107121427D01*
X128733897Y-107109119D01*
X128684904Y-107057737D01*
X128671467Y-106988023D01*
X128697854Y-106922112D01*
X128733897Y-106890881D01*
X128755211Y-106878575D01*
X128755220Y-106878570D01*
X128989684Y-106698659D01*
X129198659Y-106489684D01*
X129378570Y-106255220D01*
X129526338Y-105999279D01*
X129639434Y-105726240D01*
X129715924Y-105440775D01*
X129754500Y-105147768D01*
X129754500Y-104852232D01*
X129715924Y-104559225D01*
X129656694Y-104338176D01*
X131618500Y-104338176D01*
X131618500Y-122661823D01*
X131654737Y-122983433D01*
X131682359Y-123104449D01*
X131726754Y-123298958D01*
X131726756Y-123298964D01*
X131726755Y-123298964D01*
X131833640Y-123604422D01*
X131833651Y-123604449D01*
X131974071Y-123896035D01*
X132146259Y-124170069D01*
X132348049Y-124423106D01*
X132576893Y-124651950D01*
X132699339Y-124749597D01*
X132829931Y-124853741D01*
X132945007Y-124926048D01*
X133103964Y-125025928D01*
X133103967Y-125025929D01*
X133103968Y-125025930D01*
X133395560Y-125166353D01*
X133395576Y-125166358D01*
X133395577Y-125166359D01*
X133701035Y-125273244D01*
X133701038Y-125273244D01*
X133701042Y-125273246D01*
X134016570Y-125345263D01*
X134244618Y-125370958D01*
X134338176Y-125381500D01*
X134338178Y-125381500D01*
X139060376Y-125381500D01*
X139060388Y-125381499D01*
X143420084Y-125381499D01*
X143420088Y-125381500D01*
X143445149Y-125381500D01*
X143661824Y-125381500D01*
X143743501Y-125372296D01*
X143983430Y-125345263D01*
X144298958Y-125273246D01*
X144604440Y-125166353D01*
X144896032Y-125025930D01*
X145170069Y-124853741D01*
X145423103Y-124651953D01*
X145651953Y-124423103D01*
X145853741Y-124170069D01*
X146025930Y-123896032D01*
X146166353Y-123604440D01*
X146273246Y-123298958D01*
X146345263Y-122983430D01*
X146381500Y-122661822D01*
X146381500Y-122500000D01*
X146381500Y-122445149D01*
X146381500Y-104499999D01*
X146381501Y-104499999D01*
X146381501Y-104338178D01*
X154618500Y-104338178D01*
X154618500Y-122161823D01*
X154654737Y-122483433D01*
X154669545Y-122548308D01*
X154726754Y-122798958D01*
X154726756Y-122798964D01*
X154726755Y-122798964D01*
X154833640Y-123104422D01*
X154833651Y-123104449D01*
X154974071Y-123396035D01*
X155146259Y-123670069D01*
X155348049Y-123923106D01*
X155576893Y-124151950D01*
X155576897Y-124151953D01*
X155829931Y-124353741D01*
X155940320Y-124423103D01*
X156103964Y-124525928D01*
X156103967Y-124525929D01*
X156103968Y-124525930D01*
X156395560Y-124666353D01*
X156395576Y-124666358D01*
X156395577Y-124666359D01*
X156701035Y-124773244D01*
X156701038Y-124773244D01*
X156701042Y-124773246D01*
X157016570Y-124845263D01*
X157244618Y-124870958D01*
X157338176Y-124881500D01*
X157338178Y-124881500D01*
X162060376Y-124881500D01*
X162060388Y-124881499D01*
X166420084Y-124881499D01*
X166420088Y-124881500D01*
X166445149Y-124881500D01*
X166661824Y-124881500D01*
X166743501Y-124872296D01*
X166983430Y-124845263D01*
X167298958Y-124773246D01*
X167604440Y-124666353D01*
X167896032Y-124525930D01*
X168170069Y-124353741D01*
X168423103Y-124151953D01*
X168651953Y-123923103D01*
X168853741Y-123670069D01*
X169025930Y-123396032D01*
X169166353Y-123104440D01*
X169273246Y-122798958D01*
X169345263Y-122483430D01*
X169381500Y-122161822D01*
X169381500Y-122000000D01*
X169381500Y-121945149D01*
X169381500Y-104852230D01*
X171245500Y-104852230D01*
X171245500Y-105147769D01*
X171284074Y-105440767D01*
X171284075Y-105440773D01*
X171284076Y-105440775D01*
X171360566Y-105726240D01*
X171473662Y-105999279D01*
X171473663Y-105999280D01*
X171473668Y-105999290D01*
X171621427Y-106255216D01*
X171621432Y-106255222D01*
X171801336Y-106489678D01*
X171801355Y-106489699D01*
X172010300Y-106698644D01*
X172010310Y-106698653D01*
X172010316Y-106698659D01*
X172244780Y-106878570D01*
X172244785Y-106878573D01*
X172244788Y-106878575D01*
X172266103Y-106890882D01*
X172315096Y-106942265D01*
X172328531Y-107011979D01*
X172302144Y-107077889D01*
X172266103Y-107109118D01*
X172244788Y-107121424D01*
X172244777Y-107121432D01*
X172010321Y-107301336D01*
X172010300Y-107301355D01*
X171801355Y-107510300D01*
X171801336Y-107510321D01*
X171621432Y-107744777D01*
X171621427Y-107744783D01*
X171473668Y-108000709D01*
X171473663Y-108000719D01*
X171473662Y-108000721D01*
X171408708Y-108157535D01*
X171360566Y-108273760D01*
X171284074Y-108559232D01*
X171245500Y-108852230D01*
X171245500Y-109147769D01*
X171284074Y-109440767D01*
X171284075Y-109440773D01*
X171284076Y-109440775D01*
X171360566Y-109726240D01*
X171473662Y-109999279D01*
X171473663Y-109999280D01*
X171473668Y-109999290D01*
X171621427Y-110255216D01*
X171621429Y-110255218D01*
X171621430Y-110255220D01*
X171697564Y-110354440D01*
X171801336Y-110489678D01*
X171801355Y-110489699D01*
X172010300Y-110698644D01*
X172010310Y-110698653D01*
X172010316Y-110698659D01*
X172244780Y-110878570D01*
X172244781Y-110878571D01*
X172244783Y-110878572D01*
X172381040Y-110957240D01*
X172500721Y-111026338D01*
X172773760Y-111139434D01*
X173059225Y-111215924D01*
X173059231Y-111215924D01*
X173059232Y-111215925D01*
X173087417Y-111219635D01*
X173352232Y-111254500D01*
X173352239Y-111254500D01*
X173647761Y-111254500D01*
X173647768Y-111254500D01*
X173940775Y-111215924D01*
X174226240Y-111139434D01*
X174499279Y-111026338D01*
X174755220Y-110878570D01*
X174989684Y-110698659D01*
X175198659Y-110489684D01*
X175378570Y-110255220D01*
X175526338Y-109999279D01*
X175639434Y-109726240D01*
X175715924Y-109440775D01*
X175754500Y-109147768D01*
X175754500Y-108913074D01*
X186395500Y-108913074D01*
X186395500Y-109086926D01*
X186422697Y-109258638D01*
X186422698Y-109258642D01*
X186472469Y-109411823D01*
X186476420Y-109423981D01*
X186543753Y-109556129D01*
X186555349Y-109578887D01*
X186657536Y-109719535D01*
X186780464Y-109842463D01*
X186780467Y-109842465D01*
X186921116Y-109944653D01*
X187076019Y-110023580D01*
X187241362Y-110077303D01*
X187413074Y-110104500D01*
X187413077Y-110104500D01*
X187586923Y-110104500D01*
X187586926Y-110104500D01*
X187758638Y-110077303D01*
X187923981Y-110023580D01*
X188078884Y-109944653D01*
X188219533Y-109842465D01*
X188342465Y-109719533D01*
X188444653Y-109578884D01*
X188523580Y-109423981D01*
X188577303Y-109258638D01*
X188604500Y-109086926D01*
X188604500Y-108913074D01*
X188577303Y-108741362D01*
X188523580Y-108576019D01*
X188444653Y-108421116D01*
X188342465Y-108280467D01*
X188342463Y-108280464D01*
X188219535Y-108157536D01*
X188078887Y-108055349D01*
X188078886Y-108055348D01*
X188078884Y-108055347D01*
X187923981Y-107976420D01*
X187923978Y-107976419D01*
X187923976Y-107976418D01*
X187758642Y-107922698D01*
X187758640Y-107922697D01*
X187758638Y-107922697D01*
X187586926Y-107895500D01*
X187413074Y-107895500D01*
X187241362Y-107922697D01*
X187241360Y-107922697D01*
X187241357Y-107922698D01*
X187076023Y-107976418D01*
X187076017Y-107976421D01*
X186921112Y-108055349D01*
X186780464Y-108157536D01*
X186657536Y-108280464D01*
X186555349Y-108421112D01*
X186476421Y-108576017D01*
X186476418Y-108576023D01*
X186422698Y-108741357D01*
X186422697Y-108741360D01*
X186422697Y-108741362D01*
X186395500Y-108913074D01*
X175754500Y-108913074D01*
X175754500Y-108852232D01*
X175715924Y-108559225D01*
X175639434Y-108273760D01*
X175526338Y-108000721D01*
X175481291Y-107922697D01*
X175378572Y-107744783D01*
X175378570Y-107744780D01*
X175198659Y-107510316D01*
X175198653Y-107510310D01*
X175198644Y-107510300D01*
X174989699Y-107301355D01*
X174989678Y-107301336D01*
X174881883Y-107218622D01*
X174755220Y-107121430D01*
X174755218Y-107121429D01*
X174755216Y-107121427D01*
X174733897Y-107109119D01*
X174684904Y-107057737D01*
X174671467Y-106988023D01*
X174697854Y-106922112D01*
X174733897Y-106890881D01*
X174755211Y-106878575D01*
X174755220Y-106878570D01*
X174989684Y-106698659D01*
X175198659Y-106489684D01*
X175378570Y-106255220D01*
X175526338Y-105999279D01*
X175639434Y-105726240D01*
X175715924Y-105440775D01*
X175754500Y-105147768D01*
X175754500Y-104852232D01*
X175715924Y-104559225D01*
X175639434Y-104273760D01*
X175526338Y-104000721D01*
X175378570Y-103744780D01*
X175198659Y-103510316D01*
X175198653Y-103510310D01*
X175198644Y-103510300D01*
X174989699Y-103301355D01*
X174989678Y-103301336D01*
X174871087Y-103210338D01*
X174755220Y-103121430D01*
X174755218Y-103121429D01*
X174755216Y-103121427D01*
X174610368Y-103037799D01*
X174499290Y-102973668D01*
X174499285Y-102973665D01*
X174499279Y-102973662D01*
X174226240Y-102860566D01*
X173940775Y-102784076D01*
X173940773Y-102784075D01*
X173940767Y-102784074D01*
X173647769Y-102745500D01*
X173647768Y-102745500D01*
X173352232Y-102745500D01*
X173352230Y-102745500D01*
X173059232Y-102784074D01*
X172888088Y-102829932D01*
X172773760Y-102860566D01*
X172503819Y-102972379D01*
X172500719Y-102973663D01*
X172500709Y-102973668D01*
X172244783Y-103121427D01*
X172244777Y-103121432D01*
X172010321Y-103301336D01*
X172010300Y-103301355D01*
X171801355Y-103510300D01*
X171801336Y-103510321D01*
X171621432Y-103744777D01*
X171621427Y-103744783D01*
X171473668Y-104000709D01*
X171473663Y-104000719D01*
X171473662Y-104000721D01*
X171467098Y-104016569D01*
X171360566Y-104273760D01*
X171284074Y-104559232D01*
X171245500Y-104852230D01*
X169381500Y-104852230D01*
X169381500Y-104552191D01*
X169381501Y-104552187D01*
X169381501Y-104338175D01*
X169345264Y-104016570D01*
X169345264Y-104016569D01*
X169273247Y-103701040D01*
X169269134Y-103689286D01*
X169166360Y-103395576D01*
X169166359Y-103395574D01*
X169166354Y-103395559D01*
X169025930Y-103103967D01*
X169025927Y-103103963D01*
X169025927Y-103103962D01*
X168943248Y-102972379D01*
X168853742Y-102829930D01*
X168853739Y-102829926D01*
X168853735Y-102829920D01*
X168651954Y-102576897D01*
X168651945Y-102576887D01*
X168423106Y-102348048D01*
X168170069Y-102146258D01*
X167960933Y-102014849D01*
X167896035Y-101974070D01*
X167769462Y-101913116D01*
X186396000Y-101913116D01*
X186396000Y-102086883D01*
X186423185Y-102258524D01*
X186476883Y-102423789D01*
X186527620Y-102523366D01*
X187000000Y-102050986D01*
X187000000Y-102065826D01*
X187034075Y-102192993D01*
X187099901Y-102307007D01*
X187192993Y-102400099D01*
X187307007Y-102465925D01*
X187434174Y-102500000D01*
X187449012Y-102500000D01*
X186976631Y-102972379D01*
X187076203Y-103023113D01*
X187076211Y-103023116D01*
X187241475Y-103076814D01*
X187413116Y-103104000D01*
X187586884Y-103104000D01*
X187758526Y-103076814D01*
X187923785Y-103023118D01*
X188023366Y-102972378D01*
X188023367Y-102972378D01*
X187550989Y-102500000D01*
X187565826Y-102500000D01*
X187692993Y-102465925D01*
X187807007Y-102400099D01*
X187900099Y-102307007D01*
X187965925Y-102192993D01*
X188000000Y-102065826D01*
X188000000Y-102050989D01*
X188472378Y-102523367D01*
X188472378Y-102523366D01*
X188523118Y-102423785D01*
X188576814Y-102258526D01*
X188604000Y-102086883D01*
X188604000Y-101913116D01*
X188576814Y-101741475D01*
X188523116Y-101576211D01*
X188523113Y-101576203D01*
X188472379Y-101476631D01*
X188000000Y-101949010D01*
X188000000Y-101934174D01*
X187965925Y-101807007D01*
X187900099Y-101692993D01*
X187807007Y-101599901D01*
X187692993Y-101534075D01*
X187565826Y-101500000D01*
X187550988Y-101500000D01*
X188023366Y-101027620D01*
X188023366Y-101027619D01*
X187923789Y-100976883D01*
X187758524Y-100923185D01*
X187586884Y-100896000D01*
X187413116Y-100896000D01*
X187241475Y-100923185D01*
X187076205Y-100976885D01*
X186976632Y-101027619D01*
X186976632Y-101027621D01*
X187449011Y-101500000D01*
X187434174Y-101500000D01*
X187307007Y-101534075D01*
X187192993Y-101599901D01*
X187099901Y-101692993D01*
X187034075Y-101807007D01*
X187000000Y-101934174D01*
X187000000Y-101949011D01*
X186527621Y-101476632D01*
X186527619Y-101476632D01*
X186476885Y-101576205D01*
X186423185Y-101741475D01*
X186396000Y-101913116D01*
X167769462Y-101913116D01*
X167604449Y-101833650D01*
X167604442Y-101833647D01*
X167604440Y-101833646D01*
X167604434Y-101833643D01*
X167604422Y-101833639D01*
X167298964Y-101726754D01*
X166983433Y-101654736D01*
X166661824Y-101618499D01*
X166661822Y-101618499D01*
X166500000Y-101618499D01*
X166445149Y-101618499D01*
X166445148Y-101618499D01*
X161949775Y-101618500D01*
X157338176Y-101618500D01*
X157016566Y-101654737D01*
X156701034Y-101726755D01*
X156395577Y-101833640D01*
X156395550Y-101833651D01*
X156103964Y-101974071D01*
X155829930Y-102146259D01*
X155576893Y-102348049D01*
X155348048Y-102576894D01*
X155146256Y-102829933D01*
X155146252Y-102829940D01*
X154974072Y-103103963D01*
X154974071Y-103103966D01*
X154833647Y-103395558D01*
X154833639Y-103395578D01*
X154726755Y-103701036D01*
X154654737Y-104016567D01*
X154618500Y-104338178D01*
X146381501Y-104338178D01*
X146381501Y-104338177D01*
X146345264Y-104016569D01*
X146273247Y-103701040D01*
X146269134Y-103689286D01*
X146166360Y-103395576D01*
X146166359Y-103395574D01*
X146166354Y-103395559D01*
X146025930Y-103103967D01*
X146025927Y-103103963D01*
X146025927Y-103103962D01*
X145943248Y-102972379D01*
X145853742Y-102829930D01*
X145853739Y-102829926D01*
X145853735Y-102829920D01*
X145651954Y-102576897D01*
X145651945Y-102576887D01*
X145423106Y-102348048D01*
X145170069Y-102146258D01*
X144896035Y-101974070D01*
X144604449Y-101833650D01*
X144604442Y-101833647D01*
X144604440Y-101833646D01*
X144604434Y-101833643D01*
X144604422Y-101833639D01*
X144298964Y-101726754D01*
X143983433Y-101654736D01*
X143661824Y-101618499D01*
X143661822Y-101618499D01*
X143500000Y-101618499D01*
X143445149Y-101618499D01*
X143445148Y-101618499D01*
X138949775Y-101618500D01*
X134338176Y-101618500D01*
X134016566Y-101654737D01*
X133701035Y-101726755D01*
X133395577Y-101833640D01*
X133395550Y-101833651D01*
X133103964Y-101974071D01*
X132829930Y-102146259D01*
X132576893Y-102348049D01*
X132348049Y-102576893D01*
X132146259Y-102829930D01*
X131974071Y-103103964D01*
X131833651Y-103395550D01*
X131833640Y-103395577D01*
X131726755Y-103701035D01*
X131654737Y-104016566D01*
X131618500Y-104338176D01*
X129656694Y-104338176D01*
X129639434Y-104273760D01*
X129526338Y-104000721D01*
X129378570Y-103744780D01*
X129198659Y-103510316D01*
X129198653Y-103510310D01*
X129198644Y-103510300D01*
X128989699Y-103301355D01*
X128989678Y-103301336D01*
X128871087Y-103210338D01*
X128755220Y-103121430D01*
X128755218Y-103121429D01*
X128755216Y-103121427D01*
X128499290Y-102973668D01*
X128499285Y-102973665D01*
X128499279Y-102973662D01*
X128226240Y-102860566D01*
X127940775Y-102784076D01*
X127940773Y-102784075D01*
X127940767Y-102784074D01*
X127647769Y-102745500D01*
X127647768Y-102745500D01*
X127352232Y-102745500D01*
X127352230Y-102745500D01*
X127059232Y-102784074D01*
X126888088Y-102829932D01*
X126773760Y-102860566D01*
X126503819Y-102972379D01*
X126500719Y-102973663D01*
X126500709Y-102973668D01*
X126244783Y-103121427D01*
X126244777Y-103121432D01*
X126010321Y-103301336D01*
X126010300Y-103301355D01*
X125801355Y-103510300D01*
X125801336Y-103510321D01*
X125621432Y-103744777D01*
X125621427Y-103744783D01*
X125473668Y-104000709D01*
X125473663Y-104000719D01*
X125473662Y-104000721D01*
X125467098Y-104016569D01*
X125360566Y-104273760D01*
X125284074Y-104559232D01*
X125245500Y-104852230D01*
X111381500Y-104852230D01*
X111381500Y-101913116D01*
X112396000Y-101913116D01*
X112396000Y-102086883D01*
X112423185Y-102258524D01*
X112476883Y-102423789D01*
X112527620Y-102523366D01*
X113000000Y-102050986D01*
X113000000Y-102065826D01*
X113034075Y-102192993D01*
X113099901Y-102307007D01*
X113192993Y-102400099D01*
X113307007Y-102465925D01*
X113434174Y-102500000D01*
X113449012Y-102500000D01*
X112976631Y-102972379D01*
X113076203Y-103023113D01*
X113076211Y-103023116D01*
X113241475Y-103076814D01*
X113413116Y-103104000D01*
X113586884Y-103104000D01*
X113758526Y-103076814D01*
X113923785Y-103023118D01*
X114023366Y-102972378D01*
X114023367Y-102972378D01*
X113550989Y-102500000D01*
X113565826Y-102500000D01*
X113692993Y-102465925D01*
X113807007Y-102400099D01*
X113900099Y-102307007D01*
X113965925Y-102192993D01*
X114000000Y-102065826D01*
X114000000Y-102050989D01*
X114472378Y-102523367D01*
X114472378Y-102523366D01*
X114523118Y-102423785D01*
X114576814Y-102258526D01*
X114604000Y-102086883D01*
X114604000Y-101913116D01*
X114576814Y-101741475D01*
X114523116Y-101576211D01*
X114523113Y-101576203D01*
X114472379Y-101476631D01*
X114000000Y-101949010D01*
X114000000Y-101934174D01*
X113965925Y-101807007D01*
X113900099Y-101692993D01*
X113807007Y-101599901D01*
X113692993Y-101534075D01*
X113565826Y-101500000D01*
X113550988Y-101500000D01*
X114023366Y-101027620D01*
X114023366Y-101027619D01*
X113923789Y-100976883D01*
X113758524Y-100923185D01*
X113586884Y-100896000D01*
X113413116Y-100896000D01*
X113241475Y-100923185D01*
X113076205Y-100976885D01*
X112976632Y-101027619D01*
X112976632Y-101027621D01*
X113449011Y-101500000D01*
X113434174Y-101500000D01*
X113307007Y-101534075D01*
X113192993Y-101599901D01*
X113099901Y-101692993D01*
X113034075Y-101807007D01*
X113000000Y-101934174D01*
X113000000Y-101949011D01*
X112527621Y-101476632D01*
X112527619Y-101476632D01*
X112476885Y-101576205D01*
X112423185Y-101741475D01*
X112396000Y-101913116D01*
X111381500Y-101913116D01*
X111381500Y-95004121D01*
X111381770Y-94995880D01*
X111387197Y-94913074D01*
X112395500Y-94913074D01*
X112395500Y-95086926D01*
X112405137Y-95147768D01*
X112422698Y-95258642D01*
X112453109Y-95352239D01*
X112476420Y-95423981D01*
X112484977Y-95440775D01*
X112555349Y-95578887D01*
X112657536Y-95719535D01*
X112780464Y-95842463D01*
X112780467Y-95842465D01*
X112921116Y-95944653D01*
X113076019Y-96023580D01*
X113241362Y-96077303D01*
X113413074Y-96104500D01*
X113413077Y-96104500D01*
X113586923Y-96104500D01*
X113586926Y-96104500D01*
X113758638Y-96077303D01*
X113923981Y-96023580D01*
X114078884Y-95944653D01*
X114219533Y-95842465D01*
X114342465Y-95719533D01*
X114444653Y-95578884D01*
X114523580Y-95423981D01*
X114577303Y-95258638D01*
X114604500Y-95086926D01*
X114604500Y-94913074D01*
X114594863Y-94852230D01*
X125245500Y-94852230D01*
X125245500Y-95147769D01*
X125284074Y-95440767D01*
X125284075Y-95440773D01*
X125284076Y-95440775D01*
X125360566Y-95726240D01*
X125473662Y-95999279D01*
X125473663Y-95999280D01*
X125473668Y-95999290D01*
X125621427Y-96255216D01*
X125621432Y-96255222D01*
X125801336Y-96489678D01*
X125801355Y-96489699D01*
X126010300Y-96698644D01*
X126010310Y-96698653D01*
X126010316Y-96698659D01*
X126244780Y-96878570D01*
X126244785Y-96878573D01*
X126244788Y-96878575D01*
X126266103Y-96890882D01*
X126315096Y-96942265D01*
X126328531Y-97011979D01*
X126302144Y-97077889D01*
X126266103Y-97109118D01*
X126244788Y-97121424D01*
X126244777Y-97121432D01*
X126010321Y-97301336D01*
X126010300Y-97301355D01*
X125801355Y-97510300D01*
X125801336Y-97510321D01*
X125621432Y-97744777D01*
X125621427Y-97744783D01*
X125473668Y-98000709D01*
X125473663Y-98000719D01*
X125360566Y-98273760D01*
X125284074Y-98559232D01*
X125245500Y-98852230D01*
X125245500Y-99147769D01*
X125284074Y-99440767D01*
X125284075Y-99440773D01*
X125284076Y-99440775D01*
X125360566Y-99726240D01*
X125473662Y-99999279D01*
X125473663Y-99999280D01*
X125473668Y-99999290D01*
X125621427Y-100255216D01*
X125621432Y-100255222D01*
X125801336Y-100489678D01*
X125801355Y-100489699D01*
X126010300Y-100698644D01*
X126010310Y-100698653D01*
X126010316Y-100698659D01*
X126244780Y-100878570D01*
X126244781Y-100878571D01*
X126244783Y-100878572D01*
X126322055Y-100923185D01*
X126500721Y-101026338D01*
X126773760Y-101139434D01*
X127059225Y-101215924D01*
X127059231Y-101215924D01*
X127059232Y-101215925D01*
X127087417Y-101219635D01*
X127352232Y-101254500D01*
X127352239Y-101254500D01*
X127647761Y-101254500D01*
X127647768Y-101254500D01*
X127940775Y-101215924D01*
X128226240Y-101139434D01*
X128499279Y-101026338D01*
X128755220Y-100878570D01*
X128989684Y-100698659D01*
X129198659Y-100489684D01*
X129378570Y-100255220D01*
X129526338Y-99999279D01*
X129639434Y-99726240D01*
X129715924Y-99440775D01*
X129754500Y-99147768D01*
X129754500Y-98852232D01*
X129715924Y-98559225D01*
X129639434Y-98273760D01*
X129526338Y-98000721D01*
X129378570Y-97744780D01*
X129198659Y-97510316D01*
X129198653Y-97510310D01*
X129198644Y-97510300D01*
X128989699Y-97301355D01*
X128989678Y-97301336D01*
X128855872Y-97198663D01*
X128755220Y-97121430D01*
X128755218Y-97121429D01*
X128755216Y-97121427D01*
X128733897Y-97109119D01*
X128684904Y-97057737D01*
X128671467Y-96988023D01*
X128697854Y-96922112D01*
X128733897Y-96890881D01*
X128755211Y-96878575D01*
X128755220Y-96878570D01*
X128989684Y-96698659D01*
X129198659Y-96489684D01*
X129378570Y-96255220D01*
X129526338Y-95999279D01*
X129639434Y-95726240D01*
X129715924Y-95440775D01*
X129718136Y-95423976D01*
X129727582Y-95352230D01*
X148245500Y-95352230D01*
X148245500Y-95647769D01*
X148284074Y-95940767D01*
X148284075Y-95940773D01*
X148284076Y-95940775D01*
X148360566Y-96226240D01*
X148473662Y-96499279D01*
X148473663Y-96499280D01*
X148473668Y-96499290D01*
X148621427Y-96755216D01*
X148621432Y-96755222D01*
X148801336Y-96989678D01*
X148801355Y-96989699D01*
X149010300Y-97198644D01*
X149010310Y-97198653D01*
X149010316Y-97198659D01*
X149244780Y-97378570D01*
X149244785Y-97378573D01*
X149244788Y-97378575D01*
X149266103Y-97390882D01*
X149315096Y-97442265D01*
X149328531Y-97511979D01*
X149302144Y-97577889D01*
X149266103Y-97609118D01*
X149244788Y-97621424D01*
X149244777Y-97621432D01*
X149010321Y-97801336D01*
X149010300Y-97801355D01*
X148801355Y-98010300D01*
X148801336Y-98010321D01*
X148621432Y-98244777D01*
X148621427Y-98244783D01*
X148473668Y-98500709D01*
X148473663Y-98500719D01*
X148360566Y-98773760D01*
X148284074Y-99059232D01*
X148245500Y-99352230D01*
X148245500Y-99647769D01*
X148284074Y-99940767D01*
X148284075Y-99940773D01*
X148284076Y-99940775D01*
X148360566Y-100226240D01*
X148473662Y-100499279D01*
X148473663Y-100499280D01*
X148473668Y-100499290D01*
X148621427Y-100755216D01*
X148621432Y-100755222D01*
X148801336Y-100989678D01*
X148801355Y-100989699D01*
X149010300Y-101198644D01*
X149010310Y-101198653D01*
X149010316Y-101198659D01*
X149244780Y-101378570D01*
X149500721Y-101526338D01*
X149773760Y-101639434D01*
X150059225Y-101715924D01*
X150059231Y-101715924D01*
X150059232Y-101715925D01*
X150087417Y-101719635D01*
X150352232Y-101754500D01*
X150352239Y-101754500D01*
X150647761Y-101754500D01*
X150647768Y-101754500D01*
X150940775Y-101715924D01*
X151226240Y-101639434D01*
X151499279Y-101526338D01*
X151755220Y-101378570D01*
X151989684Y-101198659D01*
X152198659Y-100989684D01*
X152378570Y-100755220D01*
X152526338Y-100499279D01*
X152639434Y-100226240D01*
X152715924Y-99940775D01*
X152754500Y-99647768D01*
X152754500Y-99352232D01*
X152715924Y-99059225D01*
X152639434Y-98773760D01*
X152526338Y-98500721D01*
X152378570Y-98244780D01*
X152198659Y-98010316D01*
X152198653Y-98010310D01*
X152198644Y-98010300D01*
X151989699Y-97801355D01*
X151989678Y-97801336D01*
X151881883Y-97718622D01*
X151755220Y-97621430D01*
X151755218Y-97621429D01*
X151755216Y-97621427D01*
X151733897Y-97609119D01*
X151684904Y-97557737D01*
X151671467Y-97488023D01*
X151697854Y-97422112D01*
X151733897Y-97390881D01*
X151755211Y-97378575D01*
X151755220Y-97378570D01*
X151989684Y-97198659D01*
X152198659Y-96989684D01*
X152378570Y-96755220D01*
X152526338Y-96499279D01*
X152639434Y-96226240D01*
X152715924Y-95940775D01*
X152754500Y-95647768D01*
X152754500Y-95352232D01*
X152715924Y-95059225D01*
X152660460Y-94852230D01*
X171245500Y-94852230D01*
X171245500Y-95147769D01*
X171284074Y-95440767D01*
X171284075Y-95440773D01*
X171284076Y-95440775D01*
X171360566Y-95726240D01*
X171473662Y-95999279D01*
X171473663Y-95999280D01*
X171473668Y-95999290D01*
X171621427Y-96255216D01*
X171621432Y-96255222D01*
X171801336Y-96489678D01*
X171801355Y-96489699D01*
X172010300Y-96698644D01*
X172010310Y-96698653D01*
X172010316Y-96698659D01*
X172244780Y-96878570D01*
X172244785Y-96878573D01*
X172244788Y-96878575D01*
X172266103Y-96890882D01*
X172315096Y-96942265D01*
X172328531Y-97011979D01*
X172302144Y-97077889D01*
X172266103Y-97109118D01*
X172244788Y-97121424D01*
X172244777Y-97121432D01*
X172010321Y-97301336D01*
X172010300Y-97301355D01*
X171801355Y-97510300D01*
X171801336Y-97510321D01*
X171621432Y-97744777D01*
X171621427Y-97744783D01*
X171473668Y-98000709D01*
X171473663Y-98000719D01*
X171360566Y-98273760D01*
X171284074Y-98559232D01*
X171245500Y-98852230D01*
X171245500Y-99147769D01*
X171284074Y-99440767D01*
X171284075Y-99440773D01*
X171284076Y-99440775D01*
X171360566Y-99726240D01*
X171473662Y-99999279D01*
X171473663Y-99999280D01*
X171473668Y-99999290D01*
X171621427Y-100255216D01*
X171621432Y-100255222D01*
X171801336Y-100489678D01*
X171801355Y-100489699D01*
X172010300Y-100698644D01*
X172010310Y-100698653D01*
X172010316Y-100698659D01*
X172244780Y-100878570D01*
X172244781Y-100878571D01*
X172244783Y-100878572D01*
X172322055Y-100923185D01*
X172500721Y-101026338D01*
X172773760Y-101139434D01*
X173059225Y-101215924D01*
X173059231Y-101215924D01*
X173059232Y-101215925D01*
X173087417Y-101219635D01*
X173352232Y-101254500D01*
X173352239Y-101254500D01*
X173647761Y-101254500D01*
X173647768Y-101254500D01*
X173940775Y-101215924D01*
X174226240Y-101139434D01*
X174499279Y-101026338D01*
X174511337Y-101019376D01*
X174610370Y-100962200D01*
X174725030Y-100896000D01*
X174755220Y-100878570D01*
X174989684Y-100698659D01*
X175198659Y-100489684D01*
X175378570Y-100255220D01*
X175526338Y-99999279D01*
X175639434Y-99726240D01*
X175715924Y-99440775D01*
X175754500Y-99147768D01*
X175754500Y-98852232D01*
X175715924Y-98559225D01*
X175639434Y-98273760D01*
X175526338Y-98000721D01*
X175378570Y-97744780D01*
X175198659Y-97510316D01*
X175198653Y-97510310D01*
X175198644Y-97510300D01*
X174989699Y-97301355D01*
X174989678Y-97301336D01*
X174855872Y-97198663D01*
X174755220Y-97121430D01*
X174755218Y-97121429D01*
X174755216Y-97121427D01*
X174733897Y-97109119D01*
X174684904Y-97057737D01*
X174671467Y-96988023D01*
X174697854Y-96922112D01*
X174733897Y-96890881D01*
X174755211Y-96878575D01*
X174755220Y-96878570D01*
X174989684Y-96698659D01*
X175198659Y-96489684D01*
X175378570Y-96255220D01*
X175526338Y-95999279D01*
X175639434Y-95726240D01*
X175715924Y-95440775D01*
X175754500Y-95147768D01*
X175754500Y-94913074D01*
X186395500Y-94913074D01*
X186395500Y-95086926D01*
X186405137Y-95147768D01*
X186422698Y-95258642D01*
X186453109Y-95352239D01*
X186476420Y-95423981D01*
X186484977Y-95440775D01*
X186555349Y-95578887D01*
X186657536Y-95719535D01*
X186780464Y-95842463D01*
X186780467Y-95842465D01*
X186921116Y-95944653D01*
X187076019Y-96023580D01*
X187241362Y-96077303D01*
X187413074Y-96104500D01*
X187413077Y-96104500D01*
X187586923Y-96104500D01*
X187586926Y-96104500D01*
X187758638Y-96077303D01*
X187923981Y-96023580D01*
X188078884Y-95944653D01*
X188219533Y-95842465D01*
X188342465Y-95719533D01*
X188444653Y-95578884D01*
X188523580Y-95423981D01*
X188577303Y-95258638D01*
X188604500Y-95086926D01*
X188604500Y-94913074D01*
X188577303Y-94741362D01*
X188523580Y-94576019D01*
X188444653Y-94421116D01*
X188342465Y-94280467D01*
X188342463Y-94280464D01*
X188219535Y-94157536D01*
X188078887Y-94055349D01*
X188078886Y-94055348D01*
X188078884Y-94055347D01*
X187923981Y-93976420D01*
X187923978Y-93976419D01*
X187923976Y-93976418D01*
X187758642Y-93922698D01*
X187758640Y-93922697D01*
X187758638Y-93922697D01*
X187586926Y-93895500D01*
X187413074Y-93895500D01*
X187241362Y-93922697D01*
X187241360Y-93922697D01*
X187241357Y-93922698D01*
X187076023Y-93976418D01*
X187076017Y-93976421D01*
X186921112Y-94055349D01*
X186780464Y-94157536D01*
X186657536Y-94280464D01*
X186555349Y-94421112D01*
X186476421Y-94576017D01*
X186476418Y-94576023D01*
X186422698Y-94741357D01*
X186422697Y-94741360D01*
X186422697Y-94741362D01*
X186395500Y-94913074D01*
X175754500Y-94913074D01*
X175754500Y-94852232D01*
X175715924Y-94559225D01*
X175639434Y-94273760D01*
X175526338Y-94000721D01*
X175465623Y-93895560D01*
X175378572Y-93744783D01*
X175378570Y-93744780D01*
X175198659Y-93510316D01*
X175198653Y-93510310D01*
X175198644Y-93510300D01*
X174989699Y-93301355D01*
X174989678Y-93301336D01*
X174807663Y-93161671D01*
X174755220Y-93121430D01*
X174755218Y-93121429D01*
X174755216Y-93121427D01*
X174499290Y-92973668D01*
X174499285Y-92973665D01*
X174499279Y-92973662D01*
X174226240Y-92860566D01*
X173940775Y-92784076D01*
X173940773Y-92784075D01*
X173940767Y-92784074D01*
X173647769Y-92745500D01*
X173647768Y-92745500D01*
X173352232Y-92745500D01*
X173352230Y-92745500D01*
X173059232Y-92784074D01*
X173013190Y-92796411D01*
X172773760Y-92860566D01*
X172675579Y-92901234D01*
X172500719Y-92973663D01*
X172500709Y-92973668D01*
X172244783Y-93121427D01*
X172244777Y-93121432D01*
X172010321Y-93301336D01*
X172010300Y-93301355D01*
X171801355Y-93510300D01*
X171801336Y-93510321D01*
X171621432Y-93744777D01*
X171621427Y-93744783D01*
X171473668Y-94000709D01*
X171473663Y-94000719D01*
X171473662Y-94000721D01*
X171408708Y-94157535D01*
X171360566Y-94273760D01*
X171284074Y-94559232D01*
X171245500Y-94852230D01*
X152660460Y-94852230D01*
X152639434Y-94773760D01*
X152526338Y-94500721D01*
X152378570Y-94244780D01*
X152198659Y-94010316D01*
X152198653Y-94010310D01*
X152198644Y-94010300D01*
X151989699Y-93801355D01*
X151989678Y-93801336D01*
X151786665Y-93645559D01*
X151755220Y-93621430D01*
X151755218Y-93621429D01*
X151755216Y-93621427D01*
X151499290Y-93473668D01*
X151499285Y-93473665D01*
X151499279Y-93473662D01*
X151226240Y-93360566D01*
X150940775Y-93284076D01*
X150940773Y-93284075D01*
X150940767Y-93284074D01*
X150647769Y-93245500D01*
X150647768Y-93245500D01*
X150352232Y-93245500D01*
X150352230Y-93245500D01*
X150059232Y-93284074D01*
X149798388Y-93353967D01*
X149773760Y-93360566D01*
X149516303Y-93467208D01*
X149500719Y-93473663D01*
X149500709Y-93473668D01*
X149244783Y-93621427D01*
X149244777Y-93621432D01*
X149010321Y-93801336D01*
X149010300Y-93801355D01*
X148801355Y-94010300D01*
X148801336Y-94010321D01*
X148621432Y-94244777D01*
X148621427Y-94244783D01*
X148473668Y-94500709D01*
X148473663Y-94500719D01*
X148360566Y-94773760D01*
X148284074Y-95059232D01*
X148245500Y-95352230D01*
X129727582Y-95352230D01*
X129730290Y-95331660D01*
X129730290Y-95331659D01*
X129739903Y-95258638D01*
X129754500Y-95147768D01*
X129754500Y-94852232D01*
X129715924Y-94559225D01*
X129639434Y-94273760D01*
X129526338Y-94000721D01*
X129465623Y-93895560D01*
X129378572Y-93744783D01*
X129378570Y-93744780D01*
X129198659Y-93510316D01*
X129198653Y-93510310D01*
X129198644Y-93510300D01*
X128989699Y-93301355D01*
X128989678Y-93301336D01*
X128807663Y-93161671D01*
X128755220Y-93121430D01*
X128755218Y-93121429D01*
X128755216Y-93121427D01*
X128499290Y-92973668D01*
X128499285Y-92973665D01*
X128499279Y-92973662D01*
X128226240Y-92860566D01*
X127940775Y-92784076D01*
X127940773Y-92784075D01*
X127940767Y-92784074D01*
X127647769Y-92745500D01*
X127647768Y-92745500D01*
X127352232Y-92745500D01*
X127352230Y-92745500D01*
X127059232Y-92784074D01*
X127013190Y-92796411D01*
X126773760Y-92860566D01*
X126675579Y-92901234D01*
X126500719Y-92973663D01*
X126500709Y-92973668D01*
X126244783Y-93121427D01*
X126244777Y-93121432D01*
X126010321Y-93301336D01*
X126010300Y-93301355D01*
X125801355Y-93510300D01*
X125801336Y-93510321D01*
X125621432Y-93744777D01*
X125621427Y-93744783D01*
X125473668Y-94000709D01*
X125473663Y-94000719D01*
X125473662Y-94000721D01*
X125408708Y-94157535D01*
X125360566Y-94273760D01*
X125284074Y-94559232D01*
X125245500Y-94852230D01*
X114594863Y-94852230D01*
X114577303Y-94741362D01*
X114523580Y-94576019D01*
X114444653Y-94421116D01*
X114342465Y-94280467D01*
X114342463Y-94280464D01*
X114219535Y-94157536D01*
X114078887Y-94055349D01*
X114078886Y-94055348D01*
X114078884Y-94055347D01*
X113923981Y-93976420D01*
X113923978Y-93976419D01*
X113923976Y-93976418D01*
X113758642Y-93922698D01*
X113758640Y-93922697D01*
X113758638Y-93922697D01*
X113586926Y-93895500D01*
X113413074Y-93895500D01*
X113241362Y-93922697D01*
X113241360Y-93922697D01*
X113241357Y-93922698D01*
X113076023Y-93976418D01*
X113076017Y-93976421D01*
X112921112Y-94055349D01*
X112780464Y-94157536D01*
X112657536Y-94280464D01*
X112555349Y-94421112D01*
X112476421Y-94576017D01*
X112476418Y-94576023D01*
X112422698Y-94741357D01*
X112422697Y-94741360D01*
X112422697Y-94741362D01*
X112395500Y-94913074D01*
X111387197Y-94913074D01*
X111388062Y-94899882D01*
X111388062Y-94899881D01*
X111389318Y-94880718D01*
X111399084Y-94731709D01*
X111401231Y-94715397D01*
X111452077Y-94459779D01*
X111456338Y-94443876D01*
X111540111Y-94197090D01*
X111546405Y-94181894D01*
X111661679Y-93948141D01*
X111669903Y-93933898D01*
X111814700Y-93717194D01*
X111824718Y-93704138D01*
X111996555Y-93508195D01*
X112008195Y-93496555D01*
X112204138Y-93324718D01*
X112217194Y-93314700D01*
X112433898Y-93169903D01*
X112448141Y-93161679D01*
X112681894Y-93046405D01*
X112697090Y-93040111D01*
X112943876Y-92956338D01*
X112959779Y-92952077D01*
X113215397Y-92901231D01*
X113231709Y-92899084D01*
X113468107Y-92883590D01*
X113495882Y-92881770D01*
X113504122Y-92881500D01*
X120661824Y-92881500D01*
X120743501Y-92872296D01*
X120983430Y-92845263D01*
X121298958Y-92773246D01*
X121604440Y-92666353D01*
X121896032Y-92525930D01*
X122170069Y-92353741D01*
X122423103Y-92151953D01*
X122651953Y-91923103D01*
X122853741Y-91670069D01*
X123025930Y-91396032D01*
X123166353Y-91104440D01*
X123273246Y-90798958D01*
X123345263Y-90483430D01*
X123381500Y-90161822D01*
X123381500Y-90000000D01*
X123381500Y-89945149D01*
X123381500Y-71949775D01*
X123381500Y-71838178D01*
X123345263Y-71516570D01*
X123273246Y-71201042D01*
X123269132Y-71189286D01*
X123166359Y-70895577D01*
X123166358Y-70895576D01*
X123166353Y-70895560D01*
X123025930Y-70603968D01*
X123025929Y-70603966D01*
X123025928Y-70603964D01*
X122926048Y-70445007D01*
X122853741Y-70329931D01*
X122651953Y-70076897D01*
X122651950Y-70076893D01*
X122423106Y-69848049D01*
X122170069Y-69646259D01*
X121896035Y-69474071D01*
X121604449Y-69333651D01*
X121604444Y-69333649D01*
X121604440Y-69333647D01*
X121604434Y-69333644D01*
X121604422Y-69333640D01*
X121298964Y-69226755D01*
X120983433Y-69154737D01*
X120661824Y-69118500D01*
X120661822Y-69118500D01*
X120550225Y-69118500D01*
X116050225Y-69118500D01*
X113504122Y-69118500D01*
X113495881Y-69118230D01*
X113231721Y-69100916D01*
X113215382Y-69098765D01*
X113132223Y-69082223D01*
X112959788Y-69047924D01*
X112943869Y-69043658D01*
X112697106Y-68959894D01*
X112681879Y-68953587D01*
X112448146Y-68838322D01*
X112433887Y-68830089D01*
X112217204Y-68685306D01*
X112204129Y-68675273D01*
X112008203Y-68503451D01*
X111996548Y-68491796D01*
X111971352Y-68463065D01*
X111824725Y-68295868D01*
X111814693Y-68282795D01*
X111669907Y-68066108D01*
X111661676Y-68051851D01*
X111546408Y-67818110D01*
X111540109Y-67802903D01*
X111456340Y-67556127D01*
X111452075Y-67540210D01*
X111432296Y-67440775D01*
X111401231Y-67284602D01*
X111399084Y-67268288D01*
X111382040Y-67008238D01*
X111382040Y-66991760D01*
X111387197Y-66913075D01*
X111399084Y-66731710D01*
X111401232Y-66715393D01*
X111407775Y-66682501D01*
X112442347Y-66682501D01*
X113110393Y-66682501D01*
X113099901Y-66692993D01*
X113034075Y-66807007D01*
X113000000Y-66934174D01*
X113000000Y-67065826D01*
X113034075Y-67192993D01*
X113099901Y-67307007D01*
X113110393Y-67317499D01*
X112442347Y-67317499D01*
X112476881Y-67423785D01*
X112555776Y-67578625D01*
X112657917Y-67719210D01*
X112780789Y-67842082D01*
X112921377Y-67944225D01*
X113076219Y-68023120D01*
X113182500Y-68057652D01*
X113182501Y-68057651D01*
X113182501Y-67389607D01*
X113192993Y-67400099D01*
X113307007Y-67465925D01*
X113434174Y-67500000D01*
X113565826Y-67500000D01*
X113692993Y-67465925D01*
X113807007Y-67400099D01*
X113817499Y-67389607D01*
X113817499Y-68057652D01*
X113923780Y-68023120D01*
X114078622Y-67944225D01*
X114219210Y-67842082D01*
X114342082Y-67719210D01*
X114444223Y-67578625D01*
X114523118Y-67423785D01*
X114557653Y-67317499D01*
X113889607Y-67317499D01*
X113900099Y-67307007D01*
X113965925Y-67192993D01*
X114000000Y-67065826D01*
X114000000Y-66934174D01*
X113965925Y-66807007D01*
X113900099Y-66692993D01*
X113889607Y-66682501D01*
X114557652Y-66682501D01*
X114523118Y-66576214D01*
X114444223Y-66421374D01*
X114342082Y-66280789D01*
X114219210Y-66157917D01*
X114078625Y-66055776D01*
X113923785Y-65976881D01*
X113817499Y-65942347D01*
X113817499Y-66610393D01*
X113807007Y-66599901D01*
X113692993Y-66534075D01*
X113565826Y-66500000D01*
X113434174Y-66500000D01*
X113307007Y-66534075D01*
X113192993Y-66599901D01*
X113182501Y-66610393D01*
X113182501Y-65942347D01*
X113076214Y-65976881D01*
X112921374Y-66055776D01*
X112780789Y-66157917D01*
X112657917Y-66280789D01*
X112555776Y-66421374D01*
X112476881Y-66576214D01*
X112442347Y-66682501D01*
X111407775Y-66682501D01*
X111452077Y-66459779D01*
X111456338Y-66443876D01*
X111540111Y-66197090D01*
X111546405Y-66181894D01*
X111661679Y-65948141D01*
X111669903Y-65933898D01*
X111814700Y-65717194D01*
X111824718Y-65704138D01*
X111996555Y-65508195D01*
X112008195Y-65496555D01*
X112204138Y-65324718D01*
X112217194Y-65314700D01*
X112433898Y-65169903D01*
X112448141Y-65161679D01*
X112681894Y-65046405D01*
X112697090Y-65040111D01*
X112943876Y-64956338D01*
X112959779Y-64952077D01*
X113215397Y-64901231D01*
X113231709Y-64899084D01*
X113468107Y-64883590D01*
X113495882Y-64881770D01*
X113504122Y-64881500D01*
X116050223Y-64881500D01*
X116050225Y-64881500D01*
X116147254Y-64855501D01*
X116147257Y-64855499D01*
X116147258Y-64855499D01*
X116190750Y-64830388D01*
X116234247Y-64805276D01*
X116305276Y-64734247D01*
X116355501Y-64647254D01*
X116381500Y-64550225D01*
X116381500Y-62852262D01*
X125246000Y-62852262D01*
X125246000Y-63147737D01*
X125284565Y-63440669D01*
X125361040Y-63726078D01*
X125474113Y-63999059D01*
X125474118Y-63999069D01*
X125621844Y-64254938D01*
X125621848Y-64254944D01*
X125697478Y-64353506D01*
X125697479Y-64353507D01*
X126237170Y-63813816D01*
X126355864Y-63977184D01*
X126522816Y-64144136D01*
X126686182Y-64262828D01*
X126146491Y-64802519D01*
X126146491Y-64802520D01*
X126245061Y-64878155D01*
X126267102Y-64890881D01*
X126316095Y-64942264D01*
X126329531Y-65011977D01*
X126303145Y-65077888D01*
X126267104Y-65109118D01*
X126245061Y-65121844D01*
X126146491Y-65197479D01*
X126686182Y-65737170D01*
X126522816Y-65855864D01*
X126355864Y-66022816D01*
X126237170Y-66186182D01*
X125697479Y-65646491D01*
X125621844Y-65745061D01*
X125474118Y-66000930D01*
X125474113Y-66000940D01*
X125361040Y-66273921D01*
X125284565Y-66559330D01*
X125246000Y-66852262D01*
X125246000Y-67147737D01*
X125284565Y-67440669D01*
X125361040Y-67726078D01*
X125474113Y-67999059D01*
X125474118Y-67999069D01*
X125621844Y-68254938D01*
X125621848Y-68254944D01*
X125697478Y-68353506D01*
X125697479Y-68353507D01*
X126237170Y-67813816D01*
X126355864Y-67977184D01*
X126522816Y-68144136D01*
X126686182Y-68262828D01*
X126146491Y-68802519D01*
X126146491Y-68802520D01*
X126245054Y-68878150D01*
X126245061Y-68878155D01*
X126500930Y-69025881D01*
X126500940Y-69025886D01*
X126773921Y-69138959D01*
X127059330Y-69215434D01*
X127352262Y-69253999D01*
X127352272Y-69254000D01*
X127647728Y-69254000D01*
X127647737Y-69253999D01*
X127940669Y-69215434D01*
X128226078Y-69138959D01*
X128499059Y-69025886D01*
X128499070Y-69025881D01*
X128754938Y-68878155D01*
X128853507Y-68802520D01*
X128853507Y-68802519D01*
X128313817Y-68262828D01*
X128477184Y-68144136D01*
X128644136Y-67977184D01*
X128762829Y-67813817D01*
X129302519Y-68353507D01*
X129302520Y-68353507D01*
X129378155Y-68254938D01*
X129525881Y-67999070D01*
X129525886Y-67999059D01*
X129638959Y-67726078D01*
X129715434Y-67440669D01*
X129753999Y-67147737D01*
X129754000Y-67147728D01*
X129754000Y-66852272D01*
X129753999Y-66852262D01*
X129715434Y-66559330D01*
X129638959Y-66273921D01*
X129525886Y-66000940D01*
X129525881Y-66000930D01*
X129378155Y-65745061D01*
X129378150Y-65745054D01*
X129302519Y-65646491D01*
X128762828Y-66186182D01*
X128644136Y-66022816D01*
X128477184Y-65855864D01*
X128313816Y-65737170D01*
X128853507Y-65197479D01*
X128853506Y-65197478D01*
X128754944Y-65121848D01*
X128754937Y-65121844D01*
X128732898Y-65109120D01*
X128683904Y-65057738D01*
X128670466Y-64988025D01*
X128696852Y-64922114D01*
X128732898Y-64890880D01*
X128754937Y-64878155D01*
X128754944Y-64878151D01*
X128853507Y-64802520D01*
X128853507Y-64802519D01*
X128313817Y-64262828D01*
X128477184Y-64144136D01*
X128644136Y-63977184D01*
X128762829Y-63813817D01*
X129302519Y-64353507D01*
X129302520Y-64353507D01*
X129378155Y-64254938D01*
X129525881Y-63999070D01*
X129525886Y-63999059D01*
X129638959Y-63726078D01*
X129715434Y-63440669D01*
X129753999Y-63147737D01*
X129754000Y-63147728D01*
X129754000Y-62852272D01*
X129753999Y-62852262D01*
X129715434Y-62559330D01*
X129638959Y-62273921D01*
X129525886Y-62000940D01*
X129525881Y-62000930D01*
X129378155Y-61745061D01*
X129378150Y-61745054D01*
X129302519Y-61646491D01*
X128762828Y-62186182D01*
X128644136Y-62022816D01*
X128477184Y-61855864D01*
X128313816Y-61737170D01*
X128853507Y-61197479D01*
X128853506Y-61197478D01*
X128754944Y-61121848D01*
X128754938Y-61121844D01*
X128499069Y-60974118D01*
X128499059Y-60974113D01*
X128226078Y-60861040D01*
X127940669Y-60784565D01*
X127647737Y-60746000D01*
X127352262Y-60746000D01*
X127059330Y-60784565D01*
X126773921Y-60861040D01*
X126500940Y-60974113D01*
X126500930Y-60974118D01*
X126245061Y-61121844D01*
X126146491Y-61197479D01*
X126686182Y-61737170D01*
X126522816Y-61855864D01*
X126355864Y-62022816D01*
X126237170Y-62186182D01*
X125697479Y-61646491D01*
X125621844Y-61745061D01*
X125474118Y-62000930D01*
X125474113Y-62000940D01*
X125361040Y-62273921D01*
X125284565Y-62559330D01*
X125246000Y-62852262D01*
X116381500Y-62852262D01*
X116381500Y-60507500D01*
X116401502Y-60439379D01*
X116455158Y-60392886D01*
X116507500Y-60381500D01*
X138492500Y-60381500D01*
X138560621Y-60401502D01*
G37*
%TD.AperFunction*%
%TD*%
M02*
