%TF.GenerationSoftware,KiCad,Pcbnew,9.0.7*%
%TF.CreationDate,2026-02-05T12:33:28-05:00*%
%TF.ProjectId,Cell Backer,43656c6c-2042-4616-936b-65722e6b6963,rev?*%
%TF.SameCoordinates,Original*%
%TF.FileFunction,Legend,Bot*%
%TF.FilePolarity,Positive*%
%FSLAX46Y46*%
G04 Gerber Fmt 4.6, Leading zero omitted, Abs format (unit mm)*
G04 Created by KiCad (PCBNEW 9.0.7) date 2026-02-05 12:33:28*
%MOMM*%
%LPD*%
G01*
G04 APERTURE LIST*
%ADD10C,0.177800*%
G04 APERTURE END LIST*
D10*
X149104723Y-105410496D02*
X149104723Y-105894306D01*
X149395008Y-105313734D02*
X148379008Y-105652401D01*
X148379008Y-105652401D02*
X149395008Y-105991068D01*
X149395008Y-106329734D02*
X148717675Y-106329734D01*
X148911199Y-106329734D02*
X148814437Y-106378115D01*
X148814437Y-106378115D02*
X148766056Y-106426496D01*
X148766056Y-106426496D02*
X148717675Y-106523258D01*
X148717675Y-106523258D02*
X148717675Y-106620020D01*
X148717675Y-107394115D02*
X149540151Y-107394115D01*
X149540151Y-107394115D02*
X149636913Y-107345734D01*
X149636913Y-107345734D02*
X149685294Y-107297353D01*
X149685294Y-107297353D02*
X149733675Y-107200591D01*
X149733675Y-107200591D02*
X149733675Y-107055448D01*
X149733675Y-107055448D02*
X149685294Y-106958686D01*
X149346628Y-107394115D02*
X149395008Y-107297353D01*
X149395008Y-107297353D02*
X149395008Y-107103829D01*
X149395008Y-107103829D02*
X149346628Y-107007067D01*
X149346628Y-107007067D02*
X149298247Y-106958686D01*
X149298247Y-106958686D02*
X149201485Y-106910305D01*
X149201485Y-106910305D02*
X148911199Y-106910305D01*
X148911199Y-106910305D02*
X148814437Y-106958686D01*
X148814437Y-106958686D02*
X148766056Y-107007067D01*
X148766056Y-107007067D02*
X148717675Y-107103829D01*
X148717675Y-107103829D02*
X148717675Y-107297353D01*
X148717675Y-107297353D02*
X148766056Y-107394115D01*
X148717675Y-108313353D02*
X149395008Y-108313353D01*
X148717675Y-107877924D02*
X149249866Y-107877924D01*
X149249866Y-107877924D02*
X149346628Y-107926305D01*
X149346628Y-107926305D02*
X149395008Y-108023067D01*
X149395008Y-108023067D02*
X149395008Y-108168210D01*
X149395008Y-108168210D02*
X149346628Y-108264972D01*
X149346628Y-108264972D02*
X149298247Y-108313353D01*
X149346628Y-108748781D02*
X149395008Y-108845543D01*
X149395008Y-108845543D02*
X149395008Y-109039067D01*
X149395008Y-109039067D02*
X149346628Y-109135829D01*
X149346628Y-109135829D02*
X149249866Y-109184210D01*
X149249866Y-109184210D02*
X149201485Y-109184210D01*
X149201485Y-109184210D02*
X149104723Y-109135829D01*
X149104723Y-109135829D02*
X149056342Y-109039067D01*
X149056342Y-109039067D02*
X149056342Y-108893924D01*
X149056342Y-108893924D02*
X149007961Y-108797162D01*
X149007961Y-108797162D02*
X148911199Y-108748781D01*
X148911199Y-108748781D02*
X148862818Y-108748781D01*
X148862818Y-108748781D02*
X148766056Y-108797162D01*
X148766056Y-108797162D02*
X148717675Y-108893924D01*
X148717675Y-108893924D02*
X148717675Y-109039067D01*
X148717675Y-109039067D02*
X148766056Y-109135829D01*
X149298247Y-110974305D02*
X149346628Y-110925924D01*
X149346628Y-110925924D02*
X149395008Y-110780781D01*
X149395008Y-110780781D02*
X149395008Y-110684019D01*
X149395008Y-110684019D02*
X149346628Y-110538876D01*
X149346628Y-110538876D02*
X149249866Y-110442114D01*
X149249866Y-110442114D02*
X149153104Y-110393733D01*
X149153104Y-110393733D02*
X148959580Y-110345352D01*
X148959580Y-110345352D02*
X148814437Y-110345352D01*
X148814437Y-110345352D02*
X148620913Y-110393733D01*
X148620913Y-110393733D02*
X148524151Y-110442114D01*
X148524151Y-110442114D02*
X148427389Y-110538876D01*
X148427389Y-110538876D02*
X148379008Y-110684019D01*
X148379008Y-110684019D02*
X148379008Y-110780781D01*
X148379008Y-110780781D02*
X148427389Y-110925924D01*
X148427389Y-110925924D02*
X148475770Y-110974305D01*
X148717675Y-111845162D02*
X149395008Y-111845162D01*
X148717675Y-111409733D02*
X149249866Y-111409733D01*
X149249866Y-111409733D02*
X149346628Y-111458114D01*
X149346628Y-111458114D02*
X149395008Y-111554876D01*
X149395008Y-111554876D02*
X149395008Y-111700019D01*
X149395008Y-111700019D02*
X149346628Y-111796781D01*
X149346628Y-111796781D02*
X149298247Y-111845162D01*
X149395008Y-112328971D02*
X148379008Y-112328971D01*
X148766056Y-112328971D02*
X148717675Y-112425733D01*
X148717675Y-112425733D02*
X148717675Y-112619257D01*
X148717675Y-112619257D02*
X148766056Y-112716019D01*
X148766056Y-112716019D02*
X148814437Y-112764400D01*
X148814437Y-112764400D02*
X148911199Y-112812781D01*
X148911199Y-112812781D02*
X149201485Y-112812781D01*
X149201485Y-112812781D02*
X149298247Y-112764400D01*
X149298247Y-112764400D02*
X149346628Y-112716019D01*
X149346628Y-112716019D02*
X149395008Y-112619257D01*
X149395008Y-112619257D02*
X149395008Y-112425733D01*
X149395008Y-112425733D02*
X149346628Y-112328971D01*
X149346628Y-113635257D02*
X149395008Y-113538495D01*
X149395008Y-113538495D02*
X149395008Y-113344971D01*
X149395008Y-113344971D02*
X149346628Y-113248209D01*
X149346628Y-113248209D02*
X149249866Y-113199828D01*
X149249866Y-113199828D02*
X148862818Y-113199828D01*
X148862818Y-113199828D02*
X148766056Y-113248209D01*
X148766056Y-113248209D02*
X148717675Y-113344971D01*
X148717675Y-113344971D02*
X148717675Y-113538495D01*
X148717675Y-113538495D02*
X148766056Y-113635257D01*
X148766056Y-113635257D02*
X148862818Y-113683638D01*
X148862818Y-113683638D02*
X148959580Y-113683638D01*
X148959580Y-113683638D02*
X149056342Y-113199828D01*
X149346628Y-114070685D02*
X149395008Y-114215828D01*
X149395008Y-114215828D02*
X149395008Y-114457733D01*
X149395008Y-114457733D02*
X149346628Y-114554495D01*
X149346628Y-114554495D02*
X149298247Y-114602876D01*
X149298247Y-114602876D02*
X149201485Y-114651257D01*
X149201485Y-114651257D02*
X149104723Y-114651257D01*
X149104723Y-114651257D02*
X149007961Y-114602876D01*
X149007961Y-114602876D02*
X148959580Y-114554495D01*
X148959580Y-114554495D02*
X148911199Y-114457733D01*
X148911199Y-114457733D02*
X148862818Y-114264209D01*
X148862818Y-114264209D02*
X148814437Y-114167447D01*
X148814437Y-114167447D02*
X148766056Y-114119066D01*
X148766056Y-114119066D02*
X148669294Y-114070685D01*
X148669294Y-114070685D02*
X148572532Y-114070685D01*
X148572532Y-114070685D02*
X148475770Y-114119066D01*
X148475770Y-114119066D02*
X148427389Y-114167447D01*
X148427389Y-114167447D02*
X148379008Y-114264209D01*
X148379008Y-114264209D02*
X148379008Y-114506114D01*
X148379008Y-114506114D02*
X148427389Y-114651257D01*
X149395008Y-115522114D02*
X148862818Y-115522114D01*
X148862818Y-115522114D02*
X148766056Y-115473733D01*
X148766056Y-115473733D02*
X148717675Y-115376971D01*
X148717675Y-115376971D02*
X148717675Y-115183447D01*
X148717675Y-115183447D02*
X148766056Y-115086685D01*
X149346628Y-115522114D02*
X149395008Y-115425352D01*
X149395008Y-115425352D02*
X149395008Y-115183447D01*
X149395008Y-115183447D02*
X149346628Y-115086685D01*
X149346628Y-115086685D02*
X149249866Y-115038304D01*
X149249866Y-115038304D02*
X149153104Y-115038304D01*
X149153104Y-115038304D02*
X149056342Y-115086685D01*
X149056342Y-115086685D02*
X149007961Y-115183447D01*
X149007961Y-115183447D02*
X149007961Y-115425352D01*
X149007961Y-115425352D02*
X148959580Y-115522114D01*
X148717675Y-115860780D02*
X148717675Y-116247828D01*
X148379008Y-116005923D02*
X149249866Y-116005923D01*
X149249866Y-116005923D02*
X149346628Y-116054304D01*
X149346628Y-116054304D02*
X149395008Y-116151066D01*
X149395008Y-116151066D02*
X149395008Y-116247828D01*
X151030711Y-105458877D02*
X150014711Y-105458877D01*
X150014711Y-105458877D02*
X150014711Y-105700782D01*
X150014711Y-105700782D02*
X150063092Y-105845925D01*
X150063092Y-105845925D02*
X150159854Y-105942687D01*
X150159854Y-105942687D02*
X150256616Y-105991068D01*
X150256616Y-105991068D02*
X150450140Y-106039449D01*
X150450140Y-106039449D02*
X150595283Y-106039449D01*
X150595283Y-106039449D02*
X150788807Y-105991068D01*
X150788807Y-105991068D02*
X150885569Y-105942687D01*
X150885569Y-105942687D02*
X150982331Y-105845925D01*
X150982331Y-105845925D02*
X151030711Y-105700782D01*
X151030711Y-105700782D02*
X151030711Y-105458877D01*
X150982331Y-106861925D02*
X151030711Y-106765163D01*
X151030711Y-106765163D02*
X151030711Y-106571639D01*
X151030711Y-106571639D02*
X150982331Y-106474877D01*
X150982331Y-106474877D02*
X150885569Y-106426496D01*
X150885569Y-106426496D02*
X150498521Y-106426496D01*
X150498521Y-106426496D02*
X150401759Y-106474877D01*
X150401759Y-106474877D02*
X150353378Y-106571639D01*
X150353378Y-106571639D02*
X150353378Y-106765163D01*
X150353378Y-106765163D02*
X150401759Y-106861925D01*
X150401759Y-106861925D02*
X150498521Y-106910306D01*
X150498521Y-106910306D02*
X150595283Y-106910306D01*
X150595283Y-106910306D02*
X150692045Y-106426496D01*
X150353378Y-107345734D02*
X151369378Y-107345734D01*
X150401759Y-107345734D02*
X150353378Y-107442496D01*
X150353378Y-107442496D02*
X150353378Y-107636020D01*
X150353378Y-107636020D02*
X150401759Y-107732782D01*
X150401759Y-107732782D02*
X150450140Y-107781163D01*
X150450140Y-107781163D02*
X150546902Y-107829544D01*
X150546902Y-107829544D02*
X150837188Y-107829544D01*
X150837188Y-107829544D02*
X150933950Y-107781163D01*
X150933950Y-107781163D02*
X150982331Y-107732782D01*
X150982331Y-107732782D02*
X151030711Y-107636020D01*
X151030711Y-107636020D02*
X151030711Y-107442496D01*
X151030711Y-107442496D02*
X150982331Y-107345734D01*
X151030711Y-108410115D02*
X150982331Y-108313353D01*
X150982331Y-108313353D02*
X150885569Y-108264972D01*
X150885569Y-108264972D02*
X150014711Y-108264972D01*
X151030711Y-108942305D02*
X150982331Y-108845543D01*
X150982331Y-108845543D02*
X150933950Y-108797162D01*
X150933950Y-108797162D02*
X150837188Y-108748781D01*
X150837188Y-108748781D02*
X150546902Y-108748781D01*
X150546902Y-108748781D02*
X150450140Y-108797162D01*
X150450140Y-108797162D02*
X150401759Y-108845543D01*
X150401759Y-108845543D02*
X150353378Y-108942305D01*
X150353378Y-108942305D02*
X150353378Y-109087448D01*
X150353378Y-109087448D02*
X150401759Y-109184210D01*
X150401759Y-109184210D02*
X150450140Y-109232591D01*
X150450140Y-109232591D02*
X150546902Y-109280972D01*
X150546902Y-109280972D02*
X150837188Y-109280972D01*
X150837188Y-109280972D02*
X150933950Y-109232591D01*
X150933950Y-109232591D02*
X150982331Y-109184210D01*
X150982331Y-109184210D02*
X151030711Y-109087448D01*
X151030711Y-109087448D02*
X151030711Y-108942305D01*
X150353378Y-109619638D02*
X151030711Y-109861543D01*
X150353378Y-110103448D02*
X151030711Y-109861543D01*
X151030711Y-109861543D02*
X151272616Y-109764781D01*
X151272616Y-109764781D02*
X151320997Y-109716400D01*
X151320997Y-109716400D02*
X151369378Y-109619638D01*
X151030711Y-110925924D02*
X150498521Y-110925924D01*
X150498521Y-110925924D02*
X150401759Y-110877543D01*
X150401759Y-110877543D02*
X150353378Y-110780781D01*
X150353378Y-110780781D02*
X150353378Y-110587257D01*
X150353378Y-110587257D02*
X150401759Y-110490495D01*
X150982331Y-110925924D02*
X151030711Y-110829162D01*
X151030711Y-110829162D02*
X151030711Y-110587257D01*
X151030711Y-110587257D02*
X150982331Y-110490495D01*
X150982331Y-110490495D02*
X150885569Y-110442114D01*
X150885569Y-110442114D02*
X150788807Y-110442114D01*
X150788807Y-110442114D02*
X150692045Y-110490495D01*
X150692045Y-110490495D02*
X150643664Y-110587257D01*
X150643664Y-110587257D02*
X150643664Y-110829162D01*
X150643664Y-110829162D02*
X150595283Y-110925924D01*
X151030711Y-111409733D02*
X150014711Y-111409733D01*
X150401759Y-111409733D02*
X150353378Y-111506495D01*
X150353378Y-111506495D02*
X150353378Y-111700019D01*
X150353378Y-111700019D02*
X150401759Y-111796781D01*
X150401759Y-111796781D02*
X150450140Y-111845162D01*
X150450140Y-111845162D02*
X150546902Y-111893543D01*
X150546902Y-111893543D02*
X150837188Y-111893543D01*
X150837188Y-111893543D02*
X150933950Y-111845162D01*
X150933950Y-111845162D02*
X150982331Y-111796781D01*
X150982331Y-111796781D02*
X151030711Y-111700019D01*
X151030711Y-111700019D02*
X151030711Y-111506495D01*
X151030711Y-111506495D02*
X150982331Y-111409733D01*
X151030711Y-112474114D02*
X150982331Y-112377352D01*
X150982331Y-112377352D02*
X150885569Y-112328971D01*
X150885569Y-112328971D02*
X150014711Y-112328971D01*
X150982331Y-113248209D02*
X151030711Y-113151447D01*
X151030711Y-113151447D02*
X151030711Y-112957923D01*
X151030711Y-112957923D02*
X150982331Y-112861161D01*
X150982331Y-112861161D02*
X150885569Y-112812780D01*
X150885569Y-112812780D02*
X150498521Y-112812780D01*
X150498521Y-112812780D02*
X150401759Y-112861161D01*
X150401759Y-112861161D02*
X150353378Y-112957923D01*
X150353378Y-112957923D02*
X150353378Y-113151447D01*
X150353378Y-113151447D02*
X150401759Y-113248209D01*
X150401759Y-113248209D02*
X150498521Y-113296590D01*
X150498521Y-113296590D02*
X150595283Y-113296590D01*
X150595283Y-113296590D02*
X150692045Y-112812780D01*
X150498521Y-114844780D02*
X150546902Y-114989923D01*
X150546902Y-114989923D02*
X150595283Y-115038304D01*
X150595283Y-115038304D02*
X150692045Y-115086685D01*
X150692045Y-115086685D02*
X150837188Y-115086685D01*
X150837188Y-115086685D02*
X150933950Y-115038304D01*
X150933950Y-115038304D02*
X150982331Y-114989923D01*
X150982331Y-114989923D02*
X151030711Y-114893161D01*
X151030711Y-114893161D02*
X151030711Y-114506113D01*
X151030711Y-114506113D02*
X150014711Y-114506113D01*
X150014711Y-114506113D02*
X150014711Y-114844780D01*
X150014711Y-114844780D02*
X150063092Y-114941542D01*
X150063092Y-114941542D02*
X150111473Y-114989923D01*
X150111473Y-114989923D02*
X150208235Y-115038304D01*
X150208235Y-115038304D02*
X150304997Y-115038304D01*
X150304997Y-115038304D02*
X150401759Y-114989923D01*
X150401759Y-114989923D02*
X150450140Y-114941542D01*
X150450140Y-114941542D02*
X150498521Y-114844780D01*
X150498521Y-114844780D02*
X150498521Y-114506113D01*
X151030711Y-115957542D02*
X150498521Y-115957542D01*
X150498521Y-115957542D02*
X150401759Y-115909161D01*
X150401759Y-115909161D02*
X150353378Y-115812399D01*
X150353378Y-115812399D02*
X150353378Y-115618875D01*
X150353378Y-115618875D02*
X150401759Y-115522113D01*
X150982331Y-115957542D02*
X151030711Y-115860780D01*
X151030711Y-115860780D02*
X151030711Y-115618875D01*
X151030711Y-115618875D02*
X150982331Y-115522113D01*
X150982331Y-115522113D02*
X150885569Y-115473732D01*
X150885569Y-115473732D02*
X150788807Y-115473732D01*
X150788807Y-115473732D02*
X150692045Y-115522113D01*
X150692045Y-115522113D02*
X150643664Y-115618875D01*
X150643664Y-115618875D02*
X150643664Y-115860780D01*
X150643664Y-115860780D02*
X150595283Y-115957542D01*
X150982331Y-116876780D02*
X151030711Y-116780018D01*
X151030711Y-116780018D02*
X151030711Y-116586494D01*
X151030711Y-116586494D02*
X150982331Y-116489732D01*
X150982331Y-116489732D02*
X150933950Y-116441351D01*
X150933950Y-116441351D02*
X150837188Y-116392970D01*
X150837188Y-116392970D02*
X150546902Y-116392970D01*
X150546902Y-116392970D02*
X150450140Y-116441351D01*
X150450140Y-116441351D02*
X150401759Y-116489732D01*
X150401759Y-116489732D02*
X150353378Y-116586494D01*
X150353378Y-116586494D02*
X150353378Y-116780018D01*
X150353378Y-116780018D02*
X150401759Y-116876780D01*
X151030711Y-117312208D02*
X150014711Y-117312208D01*
X150643664Y-117408970D02*
X151030711Y-117699256D01*
X150353378Y-117699256D02*
X150740426Y-117312208D01*
X150982331Y-118521732D02*
X151030711Y-118424970D01*
X151030711Y-118424970D02*
X151030711Y-118231446D01*
X151030711Y-118231446D02*
X150982331Y-118134684D01*
X150982331Y-118134684D02*
X150885569Y-118086303D01*
X150885569Y-118086303D02*
X150498521Y-118086303D01*
X150498521Y-118086303D02*
X150401759Y-118134684D01*
X150401759Y-118134684D02*
X150353378Y-118231446D01*
X150353378Y-118231446D02*
X150353378Y-118424970D01*
X150353378Y-118424970D02*
X150401759Y-118521732D01*
X150401759Y-118521732D02*
X150498521Y-118570113D01*
X150498521Y-118570113D02*
X150595283Y-118570113D01*
X150595283Y-118570113D02*
X150692045Y-118086303D01*
X151030711Y-119005541D02*
X150353378Y-119005541D01*
X150546902Y-119005541D02*
X150450140Y-119053922D01*
X150450140Y-119053922D02*
X150401759Y-119102303D01*
X150401759Y-119102303D02*
X150353378Y-119199065D01*
X150353378Y-119199065D02*
X150353378Y-119295827D01*
X151989081Y-105362115D02*
X152666414Y-105604020D01*
X152666414Y-105604020D02*
X151989081Y-105845925D01*
X152666414Y-106765163D02*
X152666414Y-106184591D01*
X152666414Y-106474877D02*
X151650414Y-106474877D01*
X151650414Y-106474877D02*
X151795557Y-106378115D01*
X151795557Y-106378115D02*
X151892319Y-106281353D01*
X151892319Y-106281353D02*
X151940700Y-106184591D01*
X152569653Y-107200591D02*
X152618034Y-107248972D01*
X152618034Y-107248972D02*
X152666414Y-107200591D01*
X152666414Y-107200591D02*
X152618034Y-107152210D01*
X152618034Y-107152210D02*
X152569653Y-107200591D01*
X152569653Y-107200591D02*
X152666414Y-107200591D01*
X151650414Y-107877925D02*
X151650414Y-107974687D01*
X151650414Y-107974687D02*
X151698795Y-108071449D01*
X151698795Y-108071449D02*
X151747176Y-108119830D01*
X151747176Y-108119830D02*
X151843938Y-108168211D01*
X151843938Y-108168211D02*
X152037462Y-108216592D01*
X152037462Y-108216592D02*
X152279367Y-108216592D01*
X152279367Y-108216592D02*
X152472891Y-108168211D01*
X152472891Y-108168211D02*
X152569653Y-108119830D01*
X152569653Y-108119830D02*
X152618034Y-108071449D01*
X152618034Y-108071449D02*
X152666414Y-107974687D01*
X152666414Y-107974687D02*
X152666414Y-107877925D01*
X152666414Y-107877925D02*
X152618034Y-107781163D01*
X152618034Y-107781163D02*
X152569653Y-107732782D01*
X152569653Y-107732782D02*
X152472891Y-107684401D01*
X152472891Y-107684401D02*
X152279367Y-107636020D01*
X152279367Y-107636020D02*
X152037462Y-107636020D01*
X152037462Y-107636020D02*
X151843938Y-107684401D01*
X151843938Y-107684401D02*
X151747176Y-107732782D01*
X151747176Y-107732782D02*
X151698795Y-107781163D01*
X151698795Y-107781163D02*
X151650414Y-107877925D01*
M02*
