%TF.GenerationSoftware,KiCad,Pcbnew,9.0.7*%
%TF.CreationDate,2026-02-05T17:24:16-05:00*%
%TF.ProjectId,jetson-orin-baseboard,6a657473-6f6e-42d6-9f72-696e2d626173,v1*%
%TF.SameCoordinates,Original*%
%TF.FileFunction,Profile,NP*%
%FSLAX46Y46*%
G04 Gerber Fmt 4.6, Leading zero omitted, Abs format (unit mm)*
G04 Created by KiCad (PCBNEW 9.0.7) date 2026-02-05 17:24:16*
%MOMM*%
%LPD*%
G01*
G04 APERTURE LIST*
%TA.AperFunction,Profile*%
%ADD10C,0.025400*%
%TD*%
G04 APERTURE END LIST*
D10*
X183283000Y-52305600D02*
X180362000Y-55226600D01*
X106797000Y-112890700D02*
X106797000Y-87605500D01*
X135239400Y-145269600D02*
X137239400Y-143269600D01*
X183283000Y-148190600D02*
X192967000Y-148190600D01*
X192967000Y-69377240D02*
X194967000Y-67377240D01*
X194967000Y-146190600D02*
G75*
G02*
X192967000Y-148190600I-2000000J0D01*
G01*
X162524600Y-57226600D02*
X137239400Y-57226600D01*
X104797000Y-85605500D02*
X106797000Y-87605500D01*
X192967000Y-69377240D02*
X192967000Y-87605500D01*
X119402000Y-55226600D02*
X116481000Y-52305600D01*
X194967000Y-114890700D02*
X192967000Y-112890700D01*
X194967000Y-67377240D02*
X194967000Y-54305600D01*
X192967000Y-52305600D02*
G75*
G02*
X194967000Y-54305600I0J-2000000D01*
G01*
X180362000Y-145269600D02*
X164524600Y-145269600D01*
X162524600Y-143269600D02*
X137239400Y-143269600D01*
X192967000Y-112890700D02*
X192967000Y-87605500D01*
X116481000Y-148190600D02*
X106797000Y-148190600D01*
X164524600Y-55226600D02*
X180362000Y-55226600D01*
X104797000Y-54305600D02*
G75*
G02*
X106797000Y-52305600I2000000J0D01*
G01*
X106797000Y-112890700D02*
X104797000Y-114890700D01*
X162524600Y-143269600D02*
X164524600Y-145269600D01*
X183283000Y-52305600D02*
X192967000Y-52305600D01*
X104797000Y-114890700D02*
X104797000Y-146190600D01*
X137239400Y-57226600D02*
X135239400Y-55226600D01*
X119402000Y-55226600D02*
X135239400Y-55226600D01*
X116481000Y-148190600D02*
X119402000Y-145269600D01*
X183283000Y-148190600D02*
X180362000Y-145269600D01*
X116481000Y-52305600D02*
X106797000Y-52305600D01*
X164524600Y-55226600D02*
X162524600Y-57226600D01*
X194967000Y-146190600D02*
X194967000Y-114890700D01*
X135239400Y-145269600D02*
X119402000Y-145269600D01*
X104797000Y-85605500D02*
X104797000Y-54305600D01*
X106797000Y-148190600D02*
G75*
G02*
X104797000Y-146190600I0J2000000D01*
G01*
M02*
