M48
; DRILL file {KiCad 9.0.7} date 2026-02-05T17:24:18-0500
; FORMAT={-:-/ absolute / inch / decimal}
; #@! TF.CreationDate,2026-02-05T17:24:18-05:00
; #@! TF.GenerationSoftware,Kicad,Pcbnew,9.0.7
; #@! TF.FileFunction,Plated,1,8,PTH
FMAT,2
INCH
; #@! TA.AperFunction,Plated,PTH,ViaDrill
T1C0.0100
; #@! TA.AperFunction,Plated,PTH,ComponentDrill
T2C0.0122
; #@! TA.AperFunction,Plated,PTH,ComponentDrill
T3C0.0150
; #@! TA.AperFunction,Plated,PTH,ComponentDrill
T4C0.0236
; #@! TA.AperFunction,Plated,PTH,ComponentDrill
T5C0.0551
; #@! TA.AperFunction,Plated,PTH,ComponentDrill
T6C0.1063
; #@! TA.AperFunction,Plated,PTH,ComponentDrill
T7C0.1250
%
G90
G05
T1
X4.1524Y-2.5985
X4.1705Y-2.4565
X4.177Y-2.5178
X4.1778Y-2.7921
X4.1778Y-2.9868
X4.2089Y-2.9128
X4.2089Y-3.2626
X4.2099Y-2.6268
X4.2408Y-2.9868
X4.2549Y-3.0971
X4.2649Y-2.8498
X4.2659Y-3.4488
X4.2664Y-3.3911
X4.2669Y-4.1508
X4.2669Y-4.1758
X4.2782Y-2.7335
X4.2939Y-4.9525
X4.2939Y-4.9785
X4.3114Y-4.9055
X4.3114Y-5.0265
X4.3115Y-2.569
X4.3115Y-2.625
X4.3119Y-2.8073
X4.3247Y-3.9146
X4.3247Y-3.9396
X4.3274Y-3.3911
X4.3279Y-2.8828
X4.3449Y-3.2301
X4.3636Y-3.2577
X4.3636Y-3.2951
X4.3685Y-3.7108
X4.3685Y-3.7508
X4.3709Y-3.1366
X4.3724Y-4.8665
X4.3724Y-5.0265
X4.3774Y-3.5472
X4.3774Y-4.5456
X4.3774Y-5.148
X4.3814Y-3.3911
X4.3835Y-2.4935
X4.4027Y-3.644
X4.4027Y-3.67
X4.4035Y-2.5465
X4.4067Y-4.709
X4.4068Y-4.7483
X4.4068Y-4.7881
X4.4073Y-5.148
X4.4074Y-4.5456
X4.4074Y-3.5472
X4.4074Y-4.3464
X4.4079Y-4.8668
X4.4086Y-3.7499
X4.4086Y-3.7108
X4.4089Y-4.9475
X4.4089Y-4.9815
X4.4189Y-4.0327
X4.4189Y-4.0577
X4.4243Y-2.9061
X4.4299Y-3.6447
X4.4299Y-3.6697
X4.4374Y-3.5472
X4.4374Y-4.3464
X4.4374Y-5.148
X4.4386Y-3.082
X4.4386Y-3.119
X4.4389Y-3.7893
X4.4389Y-3.8287
X4.4389Y-3.868
X4.4389Y-3.9858
X4.4389Y-4.1048
X4.4389Y-4.2224
X4.4438Y-3.1983
X4.4439Y-3.3123
X4.4477Y-3.626
X4.4477Y-3.689
X4.4548Y-2.5952
X4.4727Y-5.025
X4.4736Y-4.6698
X4.4736Y-4.8273
X4.4736Y-4.9061
X4.4787Y-2.99
X4.4787Y-3.036
X4.4919Y-5.1014
X4.4919Y-5.1265
X4.4919Y-5.1605
X4.4919Y-5.1855
X4.4919Y-5.2195
X4.4919Y-5.2445
X4.4969Y-4.4348
X4.4969Y-4.4938
X4.4969Y-4.5528
X4.4977Y-4.589
X4.5107Y-3.074
X4.5107Y-3.099
X4.5129Y-3.1718
X4.5129Y-3.1968
X4.5139Y-3.4508
X4.5139Y-3.5095
X4.5139Y-3.5686
X4.514Y-3.6277
X4.5147Y-3.332
X4.5155Y-5.2025
X4.5155Y-5.1434
X4.5155Y-5.2615
X4.5156Y-5.0844
X4.5161Y-2.919
X4.6167Y-3.8836
X4.6169Y-3.6738
X4.6169Y-3.7578
X4.6169Y-3.9428
X4.6169Y-4.0018
X4.6169Y-4.0408
X4.6169Y-4.1001
X4.6169Y-4.1592
X4.6169Y-4.2182
X4.6244Y-5.1434
X4.6245Y-4.9243
X4.6245Y-4.9493
X4.6245Y-4.9833
X4.6245Y-5.0085
X4.6245Y-5.0424
X4.6245Y-5.0674
X4.6245Y-5.2025
X4.6249Y-4.7988
X4.6249Y-4.8482
X4.6249Y-4.8978
X4.6253Y-3.2143
X4.6253Y-3.7038
X4.6253Y-3.7288
X4.6254Y-4.688
X4.6254Y-4.713
X4.6255Y-3.3475
X4.6255Y-3.3725
X4.6255Y-4.7471
X4.6255Y-4.7721
X4.6257Y-4.5084
X4.6257Y-4.5384
X4.6257Y-2.877
X4.6257Y-3.301
X4.6257Y-4.5674
X4.6257Y-4.5974
X4.6258Y-4.4493
X4.6258Y-4.4793
X4.6259Y-2.8405
X4.6259Y-3.4065
X4.6259Y-3.4375
X4.6259Y-4.4151
X4.6357Y-3.9006
X4.6357Y-3.9258
X4.6357Y-3.9596
X4.6357Y-3.9846
X4.6357Y-4.1172
X4.6357Y-4.1422
X4.6357Y-4.1762
X4.6357Y-4.2012
X4.6515Y-2.5465
X4.6515Y-2.5735
X4.6547Y-3.8836
X4.6547Y-3.943
X4.6547Y-4.002
X4.6547Y-4.1001
X4.6547Y-4.159
X4.6547Y-4.2182
X4.6715Y-4.3065
X4.6785Y-2.5465
X4.6785Y-2.5735
X4.7275Y-4.3265
X4.7479Y-2.4008
X4.7669Y-5.2096
X4.7669Y-5.2346
X4.7775Y-2.5465
X4.7775Y-2.5735
X4.7955Y-4.9144
X4.7955Y-4.9394
X4.7955Y-4.9735
X4.7955Y-4.9985
X4.7955Y-5.0325
X4.7955Y-5.0575
X4.7955Y-5.0916
X4.7955Y-5.1166
X4.7955Y-5.1505
X4.7955Y-5.1755
X4.8009Y-2.8718
X4.8065Y-4.6265
X4.8065Y-4.6565
X4.8155Y-5.2715
X4.8165Y-4.1295
X4.8165Y-4.2435
X4.8295Y-4.38
X4.8325Y-3.2185
X4.8325Y-3.6546
X4.8325Y-3.6796
X4.8325Y-3.7136
X4.8325Y-3.7386
X4.8325Y-3.8711
X4.8325Y-3.8961
X4.8325Y-3.9301
X4.8325Y-3.9551
X4.8327Y-3.846
X4.8327Y-3.9801
X4.8329Y-3.2459
X4.8339Y-2.8718
X4.8345Y-2.8218
X4.8345Y-2.8468
X4.8376Y-5.1927
X4.8379Y-4.7208
X4.8379Y-4.7878
X4.8379Y-4.9564
X4.8379Y-5.0155
X4.8379Y-5.0745
X4.8379Y-5.1336
X4.8379Y-4.8383
X4.838Y-4.8974
X4.8394Y-3.0614
X4.8395Y-4.0605
X4.8396Y-3.0864
X4.8397Y-3.1257
X4.8417Y-3.4406
X4.8465Y-5.2715
X4.9315Y-5.4427
X4.9341Y-2.4393
X4.9418Y-3.2459
X4.9425Y-4.4249
X4.9425Y-4.484
X4.9425Y-4.5485
X4.9425Y-4.6021
X4.9425Y-4.6612
X4.9426Y-4.2675
X4.9435Y-3.106
X4.9435Y-3.1455
X4.9443Y-3.7556
X4.9443Y-3.4603
X4.9443Y-3.6966
X4.9444Y-3.5194
X4.9444Y-3.6375
X4.9444Y-3.5784
X4.9445Y-3.9131
X4.9449Y-3.3467
X4.9455Y-3.3885
X4.9479Y-5.0718
X4.9479Y-5.2248
X4.9479Y-5.2518
X4.9664Y-4.5683
X4.9675Y-4.7132
X4.9675Y-4.7742
X4.9725Y-4.8527
X4.9739Y-5.3146
X4.9815Y-2.4395
X4.9944Y-4.5683
X5.0011Y-5.2342
X5.0067Y-2.86
X5.015Y-2.9403
X5.015Y-2.9783
X5.015Y-3.0163
X5.015Y-3.0543
X5.0158Y-3.2459
X5.0175Y-3.3465
X5.0287Y-2.4395
X5.0394Y-4.4295
X5.0471Y-5.3515
X5.0566Y-5.2584
X5.0575Y-4.979
X5.0694Y-4.4295
X5.0759Y-2.4393
X5.0869Y-5.3515
X5.0898Y-3.2459
X5.0929Y-3.3467
X5.0955Y-4.7132
X5.0955Y-4.7742
X5.0981Y-4.0505
X5.0985Y-4.2415
X5.099Y-2.9335
X5.1Y-3.0615
X5.1015Y-2.4008
X5.1118Y-5.2342
X5.1144Y-4.2843
X5.1231Y-2.4393
X5.1409Y-2.6448
X5.1424Y-4.2843
X5.1439Y-5.118
X5.1539Y-2.3606
X5.1539Y-2.4008
X5.1591Y-4.0505
X5.1595Y-4.2415
X5.16Y-2.9335
X5.161Y-3.0615
X5.1619Y-3.28
X5.1655Y-4.9657
X5.1669Y-3.3467
X5.1759Y-2.4393
X5.1825Y-5.4427
X5.1885Y-4.2415
X5.1949Y-2.6003
X5.201Y-4.9488
X5.2019Y-5.1195
X5.2164Y-4.2415
X5.2235Y-5.242
X5.2239Y-2.4395
X5.2373Y-3.302
X5.2455Y-4.1105
X5.2489Y-2.9288
X5.2489Y-3.1068
X5.249Y-2.9853
X5.249Y-3.0119
X5.249Y-3.0383
X5.2579Y-4.2705
X5.262Y-4.9207
X5.262Y-5.0367
X5.2815Y-5.242
X5.3004Y-2.7368
X5.3039Y-5.5793
X5.3121Y-2.9313
X5.3403Y-3.0638
X5.3445Y-2.4313
X5.3449Y-2.3133
X5.3449Y-2.3783
X5.3614Y-2.7368
X5.3687Y-4.089
X5.3687Y-4.117
X5.375Y-3.2098
X5.4014Y-3.0638
X5.4029Y-2.3133
X5.4029Y-2.3783
X5.4029Y-2.4943
X5.4029Y-5.5795
X5.4033Y-5.09
X5.4155Y-3.765
X5.4155Y-3.79
X5.4368Y-5.0209
X5.4609Y-5.1527
X5.4613Y-3.1549
X5.4613Y-5.092
X5.4615Y-3.2203
X5.4695Y-2.9313
X5.4697Y-3.025
X5.4697Y-3.068
X5.4865Y-3.0463
X5.4957Y-5.1
X5.4995Y-3.2203
X5.4995Y-3.3203
X5.4995Y-3.3833
X5.5013Y-2.4258
X5.5013Y-2.4558
X5.5013Y-2.4858
X5.5013Y-5.4078
X5.5013Y-5.4378
X5.5013Y-5.4678
X5.5017Y-4.963
X5.5115Y-3.0463
X5.5209Y-5.3398
X5.5285Y-2.9313
X5.5287Y-3.025
X5.5287Y-3.068
X5.5463Y-2.8253
X5.5713Y-2.8253
X5.5876Y-2.9313
X5.5877Y-3.025
X5.5877Y-3.068
X5.5975Y-3.2203
X5.6046Y-3.0463
X5.6225Y-3.2203
X5.625Y-5.1225
X5.6253Y-2.6038
X5.6296Y-3.0463
X5.6465Y-2.9313
X5.6467Y-3.025
X5.6467Y-3.068
X5.6495Y-3.2203
X5.6633Y-2.8253
X5.6677Y-3.7536
X5.6677Y-3.783
X5.6677Y-3.849
X5.6677Y-3.877
X5.6718Y-2.6078
X5.6883Y-2.8253
X5.6899Y-5.2017
X5.6968Y-2.6078
X5.7057Y-2.9313
X5.7057Y-3.025
X5.7057Y-3.068
X5.7227Y-3.0463
X5.7269Y-5.2018
X5.7434Y-2.6038
X5.7434Y-5.2868
X5.7477Y-3.0463
X5.7647Y-3.025
X5.7647Y-3.068
X5.7648Y-2.9313
X5.7759Y-3.9163
X5.7759Y-3.9773
X5.7823Y-2.8253
X5.7829Y-5.2868
X5.7899Y-2.6078
X5.8073Y-2.8253
X5.8149Y-2.6078
X5.8221Y-5.4035
X5.8235Y-2.9313
X5.8237Y-3.025
X5.8237Y-3.068
X5.8237Y-3.862
X5.8237Y-3.89
X5.8355Y-3.4308
X5.841Y-3.0463
X5.8619Y-2.4938
X5.866Y-3.0463
X5.8687Y-5.4108
X5.8704Y-4.0548
X5.8728Y-3.744
X5.8743Y-3.1906
X5.8827Y-3.025
X5.8827Y-3.068
X5.8829Y-2.9313
X5.887Y-2.34
X5.8937Y-5.4108
X5.9003Y-2.8253
X5.9079Y-2.6078
X5.9253Y-2.8253
X5.9314Y-4.0548
X5.9329Y-2.6078
X5.9399Y-5.2878
X5.9417Y-3.025
X5.9417Y-3.068
X5.942Y-2.9313
X5.959Y-3.0463
X5.9735Y-3.1893
X5.9796Y-2.4938
X5.984Y-3.0463
X5.9868Y-5.4109
X5.9873Y-2.4483
X5.9905Y-3.4308
X6.0007Y-3.025
X6.0007Y-3.068
X6.0011Y-2.9313
X6.0057Y-4.771
X6.0097Y-2.405
X6.0097Y-3.84
X6.01Y-3.747
X6.0118Y-5.4109
X6.0307Y-4.771
X6.0366Y-2.6075
X6.0458Y-3.676
X6.0458Y-3.638
X6.0485Y-3.4653
X6.0485Y-3.4933
X6.0485Y-3.5213
X6.0522Y-3.885
X6.0583Y-2.405
X6.0583Y-5.4038
X6.064Y-2.9843
X6.064Y-3.0119
X6.064Y-3.0393
X6.1049Y-5.4108
X6.1157Y-2.618
X6.1299Y-5.4108
X6.1337Y-2.6809
X6.1659Y-5.2418
X6.1731Y-2.6189
X6.1765Y-5.4038
X6.1997Y-2.619
X6.2354Y-2.34
X6.2561Y-2.5854
X6.3005Y-2.4258
X6.3005Y-2.4558
X6.3005Y-2.4858
X6.3005Y-5.4078
X6.3005Y-5.4378
X6.3005Y-5.4678
X6.3085Y-2.9045
X6.3085Y-2.9315
X6.3085Y-2.9585
X6.3085Y-3.3165
X6.3085Y-3.3435
X6.3085Y-3.3705
X6.3085Y-3.5245
X6.3085Y-3.5515
X6.3085Y-3.5785
X6.3085Y-3.7875
X6.3085Y-3.8145
X6.3085Y-3.8415
X6.3093Y-3.9882
X6.3355Y-2.9045
X6.3355Y-2.9315
X6.3355Y-2.9585
X6.3355Y-3.3165
X6.3355Y-3.3435
X6.3355Y-3.3705
X6.3355Y-3.5245
X6.3355Y-3.5515
X6.3355Y-3.5785
X6.3355Y-3.7875
X6.3355Y-3.8145
X6.3355Y-3.8415
X6.3625Y-2.9045
X6.3625Y-2.9315
X6.3625Y-2.9585
X6.3625Y-3.3165
X6.3625Y-3.3435
X6.3625Y-3.3705
X6.3625Y-3.5245
X6.3625Y-3.5515
X6.3625Y-3.5785
X6.3625Y-3.7875
X6.3625Y-3.8145
X6.3625Y-3.8415
X6.3895Y-3.3165
X6.3895Y-3.3435
X6.3895Y-3.3705
X6.3895Y-3.7875
X6.3895Y-3.8145
X6.3895Y-3.8415
X6.396Y-5.5958
X6.3989Y-2.3148
X6.4165Y-3.3165
X6.4165Y-3.3435
X6.4165Y-3.3705
X6.4165Y-3.7875
X6.4165Y-3.8145
X6.4165Y-3.8415
X6.4303Y-5.445
X6.4435Y-3.3165
X6.4435Y-3.3435
X6.4435Y-3.3705
X6.4435Y-3.7875
X6.4435Y-3.8145
X6.4435Y-3.8415
X6.4568Y-4.0667
X6.4569Y-2.3153
X6.4569Y-2.3763
X6.4569Y-2.4303
X6.461Y-5.5958
X6.4885Y-2.5505
X6.4885Y-2.5775
X6.4885Y-2.6045
X6.5155Y-2.5505
X6.5155Y-2.5775
X6.5155Y-2.6045
X6.5175Y-5.5955
X6.5175Y-5.4494
X6.518Y-5.4095
X6.5194Y-3.1535
X6.5409Y-3.5153
X6.5409Y-3.5738
X6.5409Y-3.7518
X6.5418Y-3.9901
X6.5425Y-2.5505
X6.5425Y-2.5775
X6.5425Y-2.6045
X6.5425Y-2.716
X6.5425Y-2.777
X6.5429Y-3.0128
X6.5529Y-2.4126
X6.5595Y-3.1545
X6.5654Y-4.8226
X6.5666Y-4.7856
X6.5695Y-2.5505
X6.5695Y-2.5775
X6.5695Y-2.6045
X6.5785Y-5.5955
X6.5853Y-2.2578
X6.5965Y-2.5505
X6.5965Y-2.5775
X6.5965Y-2.6045
X6.5999Y-3.3965
X6.5999Y-3.6348
X6.5999Y-3.7518
X6.6009Y-2.6563
X6.6009Y-2.8958
X6.6009Y-3.0128
X6.6055Y-3.2205
X6.6055Y-3.2475
X6.6055Y-3.2745
X6.619Y-4.6485
X6.6235Y-2.5505
X6.6235Y-2.5775
X6.6235Y-2.6045
X6.6261Y-5.0965
X6.6325Y-3.2205
X6.6325Y-3.2475
X6.6325Y-3.2745
X6.6341Y-4.0187
X6.6341Y-4.0437
X6.644Y-4.6485
X6.6464Y-2.4198
X6.6479Y-2.3028
X6.6595Y-3.2205
X6.6595Y-3.2475
X6.6595Y-3.2745
X6.6627Y-4.187
X6.6739Y-5.4757
X6.695Y-4.6495
X6.696Y-5.4095
X6.6965Y-4.7646
X6.7055Y-5.0965
X6.7092Y-4.9468
X6.7095Y-4.8426
X6.7113Y-5.4757
X6.7113Y-2.3038
X6.7113Y-2.3618
X6.7141Y-5.6207
X6.72Y-4.6495
X6.7209Y-3.2173
X6.7285Y-2.779
X6.7294Y-3.5158
X6.7301Y-2.4765
X6.7325Y-5.0965
X6.7352Y-4.9468
X6.7404Y-5.5055
X6.7455Y-4.8426
X6.7455Y-5.1426
X6.7585Y-5.0965
X6.7615Y-5.1896
X6.7643Y-5.6207
X6.7645Y-4.6945
X6.7675Y-3.5965
X6.7675Y-3.6275
X6.7675Y-3.6585
X6.7675Y-3.6895
X6.7675Y-3.7205
X6.7675Y-3.7515
X6.7675Y-3.7825
X6.7691Y-2.8555
X6.7691Y-2.8865
X6.7691Y-2.9175
X6.7691Y-2.9485
X6.7691Y-2.9795
X6.7691Y-3.0105
X6.7691Y-3.0415
X6.7765Y-5.3566
X6.7815Y-4.8427
X6.7845Y-5.0965
X6.7865Y-5.1896
X6.8044Y-5.6207
X6.8047Y-5.48
X6.8079Y-3.4833
X6.8124Y-2.7518
X6.8224Y-3.2168
X6.8226Y-5.0962
X6.8235Y-2.4455
X6.8399Y-3.3987
X6.8403Y-2.6614
X6.8405Y-4.7646
X6.8405Y-4.7896
X6.8455Y-5.5082
X6.8457Y-5.5418
X6.8457Y-5.582
X6.8485Y-5.0962
X6.8505Y-5.0177
X6.8575Y-4.8456
X6.8641Y-4.6718
X6.8641Y-5.1838
X6.8844Y-4.8636
X6.8844Y-4.9006
X6.8885Y-5.0177
X6.9234Y-4.7516
X6.9447Y-4.3034
X6.9551Y-4.8368
X6.9551Y-4.8638
X6.9551Y-4.9008
X6.9894Y-4.2385
X6.9894Y-4.3613
X6.9894Y-4.4262
X7.0055Y-3.4705
X7.0076Y-3.5429
X7.0205Y-2.4355
X7.0205Y-2.4625
X7.0205Y-2.4895
X7.0475Y-2.4355
X7.0475Y-2.4625
X7.0475Y-2.4895
X7.0523Y-3.6568
X7.0573Y-4.4515
X7.0593Y-4.3935
X7.0675Y-3.106
X7.0745Y-2.4355
X7.0745Y-2.4625
X7.0745Y-2.4895
X7.0797Y-3.4917
X7.0898Y-4.2385
X7.1015Y-2.4355
X7.1015Y-2.4625
X7.1015Y-2.4895
X7.1103Y-3.3343
X7.1103Y-3.3993
X7.1203Y-4.3935
X7.1279Y-4.1835
X7.1285Y-2.4355
X7.1285Y-2.4625
X7.1285Y-2.4895
X7.1387Y-3.602
X7.1449Y-3.5429
X7.1555Y-2.4355
X7.1555Y-2.4625
X7.1555Y-2.4895
X7.1753Y-3.6568
X7.1985Y-3.4715
X7.2009Y-4.1425
X7.2009Y-4.1835
X7.2023Y-4.8561
X7.2033Y-4.7878
X7.2033Y-4.8231
X7.2319Y-3.8358
X7.2319Y-3.8608
X7.2329Y-3.954
X7.2329Y-3.979
X7.2429Y-4.0649
X7.2525Y-2.5805
X7.2529Y-2.6115
X7.2723Y-3.4917
X7.2757Y-3.297
X7.3023Y-3.3338
X7.3023Y-3.3988
X7.3023Y-3.6298
X7.3609Y-3.6712
X7.3609Y-3.7888
X7.3609Y-3.9078
X7.3609Y-4.0255
X7.3644Y-4.5456
X7.3644Y-5.148
X7.3644Y-3.5472
X7.3644Y-4.3464
X7.3669Y-4.6696
X7.3709Y-3.7177
X7.3709Y-3.7427
X7.373Y-3.0616
X7.3759Y-4.7162
X7.3759Y-4.7412
X7.3944Y-4.5456
X7.3944Y-5.148
X7.3944Y-3.5472
X7.3944Y-4.3464
X7.4019Y-2.5633
X7.413Y-3.0616
X7.4244Y-4.5456
X7.4244Y-5.148
X7.4244Y-3.5472
X7.4244Y-4.3464
X7.4751Y-3.2098
X7.4907Y-2.721
X7.4907Y-2.748
X7.4907Y-2.775
X7.4907Y-3.04
X7.4907Y-3.067
X7.4907Y-3.094
X7.5177Y-2.721
X7.5177Y-2.748
X7.5177Y-2.775
X7.5177Y-3.04
X7.5177Y-3.067
X7.5177Y-3.094
X7.5355Y-4.4448
X7.5447Y-2.721
X7.5447Y-2.748
X7.5447Y-2.775
X7.5447Y-3.04
X7.5447Y-3.067
X7.5447Y-3.094
X7.5717Y-2.721
X7.5717Y-2.748
X7.5717Y-2.775
X7.5717Y-3.04
X7.5717Y-3.067
X7.5717Y-3.094
T2
X6.6352Y-5.289
X6.6509Y-5.3166
X6.6667Y-5.289
X6.6824Y-5.3166
X6.6981Y-5.289
X6.7139Y-5.3166
X6.7296Y-5.289
X6.7612Y-5.289
X6.7769Y-5.3166
X6.7927Y-5.289
X6.8084Y-5.3166
X6.8242Y-5.289
X6.8399Y-5.3166
X6.8556Y-5.289
T3
X4.2321Y-5.6343
X4.2596Y-5.568
X4.2596Y-5.7006
X4.3259Y-5.5405
X4.3259Y-5.728
X4.3821Y-2.2593
X4.3922Y-5.568
X4.3922Y-5.7006
X4.4096Y-2.193
X4.4096Y-2.3256
X4.4196Y-5.6343
X4.4759Y-2.1655
X4.4759Y-2.353
X4.5422Y-2.193
X4.5422Y-2.3256
X4.5696Y-2.2593
X7.2821Y-2.2593
X7.3096Y-2.193
X7.3096Y-2.3256
X7.3759Y-2.1655
X7.3759Y-2.353
X7.3821Y-5.6343
X7.4096Y-5.568
X7.4096Y-5.7006
X7.4422Y-2.193
X7.4422Y-2.3256
X7.4696Y-2.2593
X7.4759Y-5.5405
X7.4759Y-5.728
X7.5422Y-5.568
X7.5422Y-5.7006
X7.5696Y-5.6343
T5
X7.5049Y-2.8583
X7.5049Y-2.9583
T6
X5.6564Y-4.7631
X6.382Y-2.6966
X6.3825Y-5.2005
T7
X4.3259Y-5.6343
X4.4759Y-2.2593
X7.3759Y-2.2593
X7.4759Y-5.6343
T4
G00X4.8623Y-2.2734
M15
G01X4.8623Y-2.2459
M16
G05
G00X4.8623Y-2.4506
M15
G01X4.8623Y-2.423
M16
G05
G00X4.8864Y-5.4068
M15
G01X4.8864Y-5.4501
M16
G05
G00X4.8864Y-5.5773
M15
G01X4.8864Y-5.6088
M16
G05
G00X5.2265Y-5.4068
M15
G01X5.2265Y-5.4501
M16
G05
G00X5.2265Y-5.5773
M15
G01X5.2265Y-5.6088
M16
G05
G00X5.2894Y-2.2734
M15
G01X5.2894Y-2.2459
M16
G05
G00X5.2894Y-2.4506
M15
G01X5.2894Y-2.423
M16
G05
G00X6.5773Y-5.3224
M15
G01X6.5773Y-5.3461
M16
G05
G00X6.5773Y-5.5087
M15
G01X6.5773Y-5.5323
M16
G05
G00X6.9135Y-5.3224
M15
G01X6.9135Y-5.3461
M16
G05
G00X6.9135Y-5.5087
M15
G01X6.9135Y-5.5323
M16
G05
M30
