%TF.GenerationSoftware,KiCad,Pcbnew,9.0.7*%
%TF.CreationDate,2026-02-05T17:24:16-05:00*%
%TF.ProjectId,jetson-orin-baseboard,6a657473-6f6e-42d6-9f72-696e2d626173,v1*%
%TF.SameCoordinates,Original*%
%TF.FileFunction,Copper,L6,Inr*%
%TF.FilePolarity,Positive*%
%FSLAX46Y46*%
G04 Gerber Fmt 4.6, Leading zero omitted, Abs format (unit mm)*
G04 Created by KiCad (PCBNEW 9.0.7) date 2026-02-05 17:24:16*
%MOMM*%
%LPD*%
G01*
G04 APERTURE LIST*
%TA.AperFunction,ComponentPad*%
%ADD10C,0.650000*%
%TD*%
%TA.AperFunction,ComponentPad*%
%ADD11O,1.000000X1.600000*%
%TD*%
%TA.AperFunction,ComponentPad*%
%ADD12C,0.762000*%
%TD*%
%TA.AperFunction,ComponentPad*%
%ADD13C,6.350000*%
%TD*%
%TA.AperFunction,ComponentPad*%
%ADD14O,1.000000X2.100000*%
%TD*%
%TA.AperFunction,ComponentPad*%
%ADD15O,1.000000X1.800000*%
%TD*%
%TA.AperFunction,ComponentPad*%
%ADD16O,1.200000X1.900000*%
%TD*%
%TA.AperFunction,ComponentPad*%
%ADD17O,1.200000X1.700000*%
%TD*%
%TA.AperFunction,ComponentPad*%
%ADD18C,3.100000*%
%TD*%
%TA.AperFunction,ComponentPad*%
%ADD19R,2.400000X2.200000*%
%TD*%
%TA.AperFunction,ComponentPad*%
%ADD20O,2.400000X2.200000*%
%TD*%
%TA.AperFunction,ViaPad*%
%ADD21C,0.508000*%
%TD*%
%TA.AperFunction,Conductor*%
%ADD22C,0.130810*%
%TD*%
%TA.AperFunction,Conductor*%
%ADD23C,0.203200*%
%TD*%
%TA.AperFunction,Conductor*%
%ADD24C,0.304800*%
%TD*%
%TA.AperFunction,Conductor*%
%ADD25C,0.154940*%
%TD*%
%TA.AperFunction,Conductor*%
%ADD26C,0.150000*%
%TD*%
%TA.AperFunction,Conductor*%
%ADD27C,0.150114*%
%TD*%
%TA.AperFunction,Conductor*%
%ADD28C,0.144272*%
%TD*%
G04 APERTURE END LIST*
D10*
%TO.N,GND*%
%TO.C,J5*%
X174132840Y-134340080D03*
%TO.N,/USB3\u002C Recovery/USBC1_CONN_TX2_N*%
X173732840Y-135041080D03*
%TO.N,/USB3\u002C Recovery/USBC1_CONN_TX2_P*%
X172932840Y-135041080D03*
%TO.N,/USB3\u002C Recovery/USBC1_VBUS*%
X172533840Y-134340080D03*
%TO.N,/USB3\u002C Recovery/USBC1_CC2*%
X172133840Y-135041080D03*
%TO.N,USB0_D_P*%
X171733840Y-134340080D03*
%TO.N,USB0_D_N*%
X170932840Y-134340080D03*
%TO.N,unconnected-(J5-SBU2-PadB8)*%
X170532840Y-135041080D03*
%TO.N,/USB3\u002C Recovery/USBC1_VBUS*%
X170132840Y-134340080D03*
%TO.N,/USB3\u002C Recovery/USBC1_RX1_N*%
X169733840Y-135041080D03*
%TO.N,/USB3\u002C Recovery/USBC1_RX1_P*%
X168932840Y-135041080D03*
%TO.N,GND*%
X168532840Y-134340080D03*
D11*
X167063840Y-135490080D03*
X167063840Y-140220080D03*
D10*
X169333840Y-134340080D03*
X173333840Y-134340080D03*
D11*
X175603840Y-135490080D03*
X175603840Y-140220080D03*
%TD*%
D12*
%TO.N,GND*%
%TO.C,H2*%
X107495750Y-143110600D03*
X108193202Y-141426802D03*
X108193202Y-144794398D03*
X109877000Y-140729350D03*
D13*
X109877000Y-143110600D03*
D12*
X109877000Y-145491850D03*
X111560798Y-141426802D03*
X111560798Y-144794398D03*
X112258250Y-143110600D03*
%TD*%
D14*
%TO.N,GND*%
%TO.C,J3*%
X124114240Y-137882261D03*
D15*
X124114240Y-142062261D03*
D14*
X132754240Y-137882261D03*
D15*
X132754240Y-142062261D03*
%TD*%
D12*
%TO.N,GND*%
%TO.C,H3*%
X111305750Y-57385600D03*
X112003202Y-55701802D03*
X112003202Y-59069398D03*
X113687000Y-55004350D03*
D13*
X113687000Y-57385600D03*
D12*
X113687000Y-59766850D03*
X115370798Y-55701802D03*
X115370798Y-59069398D03*
X116068250Y-57385600D03*
%TD*%
%TO.N,GND*%
%TO.C,H1*%
X187505750Y-143110600D03*
X188203202Y-141426802D03*
X188203202Y-144794398D03*
X189887000Y-140729350D03*
D13*
X189887000Y-143110600D03*
D12*
X189887000Y-145491850D03*
X191570798Y-141426802D03*
X191570798Y-144794398D03*
X192268250Y-143110600D03*
%TD*%
%TO.N,GND*%
%TO.C,H4*%
X184965750Y-57385600D03*
X185663202Y-55701802D03*
X185663202Y-59069398D03*
X187347000Y-55004350D03*
D13*
X187347000Y-57385600D03*
D12*
X187347000Y-59766850D03*
X189030798Y-55701802D03*
X189030798Y-59069398D03*
X189728250Y-57385600D03*
%TD*%
D16*
%TO.N,GND*%
%TO.C,J13*%
X134352000Y-61894600D03*
D17*
X134352000Y-57394600D03*
D16*
X123503000Y-61894600D03*
D17*
X123503000Y-57394600D03*
%TD*%
D18*
%TO.N,GND*%
%TO.C,H6*%
X162114640Y-132092080D03*
%TD*%
D19*
%TO.N,GND*%
%TO.C,J4*%
X190624060Y-72600499D03*
D20*
%TO.N,VBATT*%
X190624060Y-75140501D03*
%TD*%
D18*
%TO.N,GND*%
%TO.C,H5*%
X143673800Y-120981820D03*
%TD*%
%TO.N,GND*%
%TO.C,H7*%
X162101940Y-68493020D03*
%TD*%
D21*
%TO.N,GND*%
X161606640Y-85610080D03*
X187055000Y-130758090D03*
X150925799Y-74454100D03*
X187055002Y-110398086D03*
X111829600Y-92557600D03*
X140423040Y-74454100D03*
X114652200Y-89142500D03*
X184222799Y-66331480D03*
X181479360Y-89988800D03*
X162292440Y-84924280D03*
X166864440Y-66153680D03*
X125587820Y-92393500D03*
X123100240Y-133895581D03*
X114692840Y-132142880D03*
X105470042Y-66001280D03*
X122881800Y-119907700D03*
X188579000Y-115458110D03*
X118147240Y-64680480D03*
X171334840Y-130621480D03*
X171893640Y-92137880D03*
X126529000Y-61962920D03*
X134718200Y-141713701D03*
X164004400Y-60357700D03*
X118230400Y-107143536D03*
X125675800Y-133395100D03*
X162292440Y-85610080D03*
X153882015Y-137255900D03*
X118230400Y-105638600D03*
X167778840Y-83171680D03*
X114652200Y-87649700D03*
X147923000Y-76835000D03*
X133324800Y-77171900D03*
X149425800Y-74454100D03*
X180377240Y-62546880D03*
X171934400Y-72529200D03*
X118833040Y-65366280D03*
X163664040Y-85610080D03*
X180377240Y-61861080D03*
X135749440Y-61754100D03*
X106115360Y-75864100D03*
X125538640Y-118393499D03*
X179005640Y-61861080D03*
X109511240Y-65252600D03*
X144925800Y-77927200D03*
X179256561Y-113067480D03*
X160235040Y-97573480D03*
X118833040Y-64680480D03*
X191400840Y-112897300D03*
X190950600Y-70485000D03*
X112747200Y-104261300D03*
X131634640Y-138244061D03*
X171934400Y-73316600D03*
X117483400Y-81643500D03*
X165492840Y-65467880D03*
X152078620Y-62186600D03*
X113629600Y-118613800D03*
X170537939Y-142765580D03*
X149168600Y-95097600D03*
X106115360Y-70918501D03*
X179823760Y-88688800D03*
X164807040Y-65467880D03*
X160031986Y-137357602D03*
X179691440Y-63232680D03*
X167778840Y-81800080D03*
X185479600Y-92196600D03*
X139732014Y-61614598D03*
X171893640Y-92925280D03*
X122744640Y-81749280D03*
X160257401Y-101299701D03*
X180081561Y-107657280D03*
X117268400Y-95447500D03*
X186966000Y-102248100D03*
X149421600Y-77927200D03*
X175853440Y-120690080D03*
X160235040Y-96201880D03*
X106905200Y-82869920D03*
X117268400Y-107142500D03*
X166864440Y-64782080D03*
X168236040Y-66153680D03*
X173742600Y-67598801D03*
X179005640Y-62546880D03*
X192322200Y-69113400D03*
X162978240Y-96887680D03*
X150920200Y-76835000D03*
X160920840Y-84924280D03*
X190264800Y-70485000D03*
X108073600Y-78667000D03*
X166138000Y-90773600D03*
X184212640Y-65544080D03*
X140430000Y-77927200D03*
X169150440Y-83171680D03*
X181748840Y-62546880D03*
X160031986Y-61614598D03*
X160235040Y-84924280D03*
X160920840Y-85610080D03*
X122881800Y-121609500D03*
X165492840Y-64782080D03*
X117268400Y-102635700D03*
X164807040Y-64782080D03*
X160031986Y-138119602D03*
X167550240Y-65467880D03*
X171934400Y-77253600D03*
X149107000Y-102991300D03*
X170468200Y-58515900D03*
X140430000Y-76835000D03*
X118147240Y-65366280D03*
X129838801Y-132949781D03*
X160235040Y-85610080D03*
X146707000Y-99473100D03*
X129492040Y-102882280D03*
X114220400Y-114141900D03*
X162978240Y-84238480D03*
X137232800Y-63354100D03*
X161606640Y-84924280D03*
X125585859Y-87892499D03*
X146424400Y-77927200D03*
X162531200Y-58795199D03*
X117471600Y-124403500D03*
X178319840Y-61861080D03*
X113151180Y-65917959D03*
X181748840Y-63232680D03*
X109508400Y-124598700D03*
X118230400Y-100152200D03*
X143420240Y-74454100D03*
X112709742Y-90098114D03*
X121347640Y-64680480D03*
X166138000Y-95295400D03*
X171893640Y-96074880D03*
X191636400Y-69113400D03*
X177531401Y-112425880D03*
X138924440Y-74454100D03*
X125538640Y-113893500D03*
X111848040Y-64680480D03*
X182962960Y-122506120D03*
X125538640Y-115531280D03*
X151881986Y-63341900D03*
X133654240Y-124985261D03*
X158378620Y-59436600D03*
X160235040Y-96887680D03*
X170078440Y-137400680D03*
X117268400Y-93313900D03*
X186966000Y-93248100D03*
X182937560Y-123344320D03*
X117268400Y-104143500D03*
X147916040Y-74454100D03*
X170420440Y-123001480D03*
X146424800Y-74454100D03*
X174347280Y-131667960D03*
X126173640Y-119714461D03*
X160235040Y-84238480D03*
X143427200Y-77927200D03*
X168236040Y-65467880D03*
X128927000Y-61957600D03*
X166178640Y-68985480D03*
X171205640Y-139839080D03*
X190264800Y-69113400D03*
X143427200Y-76835000D03*
X161606640Y-96201880D03*
X165492840Y-66153680D03*
X174001840Y-127448479D03*
X178319840Y-63232680D03*
X163664040Y-96201880D03*
X163664040Y-84924280D03*
X132676040Y-133145981D03*
X165544840Y-142125080D03*
X166161400Y-101349301D03*
X122881800Y-127393499D03*
X162292440Y-96887680D03*
X166188800Y-76524800D03*
X162978240Y-97573480D03*
X114652200Y-90642500D03*
X166178640Y-66153680D03*
X105929840Y-62394480D03*
X122881800Y-128893501D03*
X133324800Y-76501080D03*
X167636600Y-95295400D03*
X113629600Y-124613800D03*
X118230400Y-101650800D03*
X172249240Y-123004479D03*
X180377240Y-63232680D03*
X154025800Y-75800300D03*
X191636400Y-69799200D03*
X108352899Y-87598900D03*
X118230400Y-104143500D03*
X192322200Y-69799200D03*
X191636400Y-70485000D03*
X142881986Y-66135900D03*
X167778840Y-82485880D03*
X112972600Y-92100400D03*
X111185742Y-90098114D03*
X111185742Y-130758090D03*
X117268400Y-105642500D03*
X171893640Y-93712680D03*
X125675800Y-132709300D03*
X187118400Y-118608100D03*
X182962960Y-121609500D03*
X111829600Y-93218000D03*
X163329359Y-138302120D03*
X173732600Y-86326399D03*
X150872600Y-134309500D03*
X114242600Y-116560600D03*
X168302080Y-129450480D03*
X133324800Y-75825700D03*
X154025800Y-76501080D03*
X109511240Y-66673880D03*
X188579002Y-110398086D03*
X166442800Y-61279000D03*
X141924800Y-74454100D03*
X171893640Y-95287480D03*
X131050440Y-107733480D03*
X188579000Y-130758090D03*
X160031986Y-63138598D03*
X131949600Y-66047000D03*
X171934400Y-76466200D03*
X111185742Y-115458110D03*
X150920200Y-77927200D03*
X114695020Y-129143500D03*
X112747200Y-107248114D03*
X139732014Y-138881602D03*
X117268400Y-100146500D03*
X122312840Y-133895581D03*
X188579002Y-90098114D03*
X179691440Y-61861080D03*
X128460000Y-126465581D03*
X125259240Y-138244061D03*
X117263000Y-98642500D03*
X109915400Y-86133320D03*
X160920840Y-96887680D03*
X162292440Y-84238480D03*
X139732014Y-138119602D03*
X149528620Y-59436600D03*
X125589440Y-99393500D03*
X113629600Y-122613800D03*
X168464640Y-82485880D03*
X162978240Y-85610080D03*
X133654240Y-127931661D03*
X114220400Y-112643300D03*
X165556640Y-137400680D03*
X117461440Y-132142880D03*
X179005640Y-63232680D03*
X187055002Y-90098114D03*
X130127000Y-61957600D03*
X147882014Y-137249286D03*
X181063040Y-63232680D03*
X141928600Y-76835000D03*
X117460660Y-130643500D03*
X163664040Y-97573480D03*
X181063040Y-62546880D03*
X113607600Y-127635000D03*
X130578000Y-67177300D03*
X108327600Y-72384300D03*
X112709742Y-110398086D03*
X152418800Y-77927200D03*
X138931400Y-77927200D03*
X188290819Y-77765500D03*
X187055000Y-115458110D03*
X190264800Y-69799200D03*
X164807040Y-66153680D03*
X135644700Y-77819900D03*
X161606640Y-96887680D03*
X169150440Y-81800080D03*
X122883100Y-122893500D03*
X160920840Y-96201880D03*
X162292440Y-97573480D03*
X187274819Y-77765500D03*
X181063040Y-61861080D03*
X112747200Y-101238700D03*
X110836700Y-83694920D03*
X111947742Y-110398086D03*
X117471600Y-121888900D03*
X106905200Y-73984500D03*
X162978240Y-96201880D03*
X114693860Y-133642500D03*
X156882014Y-137255900D03*
X166178640Y-64782080D03*
X171934400Y-74104000D03*
X161606640Y-97573480D03*
X126336200Y-134989780D03*
X125586420Y-93893500D03*
X117471600Y-123143500D03*
X122884500Y-124393500D03*
X134149240Y-133145980D03*
X169517940Y-139082580D03*
X117268400Y-101645100D03*
X139732014Y-137357602D03*
X160031986Y-138881602D03*
X114693620Y-130643500D03*
X111058400Y-127672100D03*
X141928600Y-77927200D03*
X112709742Y-130758090D03*
X152647400Y-97536000D03*
X192322200Y-70485000D03*
X186966000Y-99257500D03*
X187817000Y-115458110D03*
X171893640Y-91350480D03*
X181748840Y-61861080D03*
X167662000Y-76524800D03*
X138716160Y-129337101D03*
X144925800Y-76835000D03*
X168236040Y-64782080D03*
X179306561Y-111594280D03*
X125585021Y-95393499D03*
X154025800Y-77197300D03*
X160031986Y-62376598D03*
X171893640Y-94500080D03*
X129424840Y-121264461D03*
X139732014Y-63138598D03*
X189868700Y-81528799D03*
X111947742Y-90098114D03*
X125538640Y-116893500D03*
X114220400Y-115640500D03*
X148220840Y-87141700D03*
X163664040Y-96887680D03*
X166760840Y-122493480D03*
X167267800Y-57347500D03*
X111947000Y-115458110D03*
X171934400Y-75678800D03*
X161606640Y-84238480D03*
X138094360Y-127531500D03*
X184803800Y-83743800D03*
X127728000Y-61962800D03*
X178319840Y-62546880D03*
X187817000Y-130758090D03*
X142876260Y-130112101D03*
X125540801Y-108393501D03*
X166178640Y-65467880D03*
X160920840Y-84238480D03*
X169150440Y-82485880D03*
X122751600Y-97688400D03*
X155339800Y-66497200D03*
X184715320Y-88688800D03*
X106930600Y-66720100D03*
X152157840Y-87141700D03*
X166864440Y-65467880D03*
X187817002Y-90098114D03*
X162978240Y-84924280D03*
X111946060Y-130758090D03*
X138931400Y-76835000D03*
X147923000Y-77927200D03*
X149421600Y-76835000D03*
X177993200Y-89988800D03*
X118230400Y-98642500D03*
X136179000Y-69514100D03*
X122751638Y-101095464D03*
X125327001Y-61957600D03*
X167550240Y-66153680D03*
X114655200Y-92142500D03*
X137232800Y-141718781D03*
X186966000Y-96234900D03*
X134926800Y-74454100D03*
X131088840Y-77761480D03*
X181324000Y-91490800D03*
X160920840Y-97573480D03*
X125588660Y-90892500D03*
X144925800Y-74454100D03*
X148891400Y-63341900D03*
X139732014Y-62376598D03*
X137242960Y-129287101D03*
X179691440Y-62546880D03*
X125538640Y-112393500D03*
X129513440Y-74510280D03*
X190950600Y-69799200D03*
X128438600Y-133563581D03*
X121347640Y-65366280D03*
X122881800Y-125893500D03*
X146424400Y-76835000D03*
X163664040Y-84238480D03*
X152418800Y-76835000D03*
X187817002Y-110398086D03*
X167550240Y-64782080D03*
X190950600Y-69113400D03*
X162292440Y-96201880D03*
X168464640Y-83171680D03*
X168464640Y-81800080D03*
X145881985Y-66135900D03*
X127027201Y-132949781D03*
X114709600Y-74143500D03*
X171334840Y-123001480D03*
X179513640Y-78892080D03*
X122876260Y-131893500D03*
X125587261Y-89392501D03*
X171934400Y-74891400D03*
X112747200Y-98248114D03*
X112972600Y-93700600D03*
X152426800Y-74454100D03*
X122881800Y-130393500D03*
%TO.N,CSI1_D0_N*%
X108378400Y-106065614D03*
X114093400Y-133210003D03*
%TO.N,CSI0_D0_N*%
X155698600Y-137433700D03*
X121078400Y-132960001D03*
%TO.N,CSI1_D0_P*%
X108378400Y-105430614D03*
X114093400Y-132575000D03*
%TO.N,CSI0_D0_P*%
X121078400Y-132325001D03*
X155063600Y-137433700D03*
%TO.N,CSI1_CLK_N*%
X109848400Y-100065615D03*
X114093400Y-131711080D03*
%TO.N,CSI0_CLK_N*%
X149699500Y-137433700D03*
X121804840Y-131457080D03*
%TO.N,CSI1_CLK_P*%
X109848400Y-99430615D03*
X114093400Y-131076080D03*
%TO.N,CSI0_CLK_P*%
X121804840Y-130822077D03*
X149064500Y-137433700D03*
%TO.N,CSI1_D1_N*%
X114093400Y-130212480D03*
X112239200Y-103065614D03*
%TO.N,CSI0_D1_N*%
X121804840Y-129961000D03*
X152699514Y-137435723D03*
%TO.N,CSI1_D1_P*%
X114093400Y-129576000D03*
X112239200Y-102430614D03*
%TO.N,CSI0_D1_P*%
X121804840Y-129326000D03*
X152064514Y-137435723D03*
%TO.N,CSI3_D0_N*%
X117461440Y-128711000D03*
X144064486Y-66238920D03*
%TO.N,CSI2_D0_N*%
X121804840Y-128461000D03*
X187220000Y-94430586D03*
%TO.N,CSI3_D0_P*%
X117461440Y-128076000D03*
X144699486Y-66238920D03*
%TO.N,CSI2_D0_P*%
X187220000Y-95065586D03*
X121804840Y-127826000D03*
%TO.N,CSI3_CLK_N*%
X117461440Y-127215280D03*
X150059800Y-66237500D03*
%TO.N,CSI2_CLK_N*%
X183714800Y-100430585D03*
X121804840Y-126961001D03*
%TO.N,CSI3_CLK_P*%
X150694800Y-66237500D03*
X117461440Y-126576000D03*
%TO.N,CSI2_CLK_P*%
X183714800Y-101065585D03*
X121804840Y-126326001D03*
%TO.N,CSI3_D1_N*%
X147062600Y-66237500D03*
X117461440Y-125711000D03*
%TO.N,CSI2_D1_N*%
X121804840Y-125461000D03*
X183689400Y-97430586D03*
%TO.N,CSI3_D1_P*%
X147697600Y-66237500D03*
X117461440Y-125076000D03*
%TO.N,CSI2_D1_P*%
X121804840Y-124826000D03*
X183689400Y-98065586D03*
%TO.N,USB0_D_N*%
X171741240Y-131815280D03*
X117747800Y-106710003D03*
X171665040Y-129450480D03*
%TO.N,PCIE0_RX0_N*%
X117747800Y-101210000D03*
X142992801Y-77375100D03*
%TO.N,PCIE0_RX0_P*%
X142357801Y-77375100D03*
X117747800Y-100575000D03*
%TO.N,PCIE0_RX1_N*%
X117747800Y-99714700D03*
X145992800Y-77375100D03*
%TO.N,PCIE0_RX1_P*%
X145357800Y-77375100D03*
X117747800Y-99075500D03*
%TO.N,PCIE0_RX2_N*%
X117483546Y-94711000D03*
X148995540Y-77375100D03*
%TO.N,PCIE0_RX2_P*%
X148360540Y-77375100D03*
X117483546Y-94076000D03*
%TO.N,PCIE0_RX3_N*%
X112518600Y-93211000D03*
X151993800Y-77375100D03*
%TO.N,PCIE0_RX3_P*%
X112518600Y-92576000D03*
X151358800Y-77375100D03*
%TO.N,PCIE0_CLK_N*%
X139992800Y-77375100D03*
X137552840Y-96265380D03*
%TO.N,PCIE0_CLK_P*%
X137552840Y-95630380D03*
X139357800Y-77375100D03*
%TO.N,SDA_CAM*%
X153563799Y-93370399D03*
X114572800Y-78079600D03*
%TO.N,/SoM/~{FORCE_RECOVERY}*%
X107715360Y-75864100D03*
X122925420Y-78393500D03*
%TO.N,SCL_CAM*%
X153563800Y-92405201D03*
X114572800Y-78714603D03*
%TO.N,~{RESET}*%
X170710000Y-81718800D03*
X117497000Y-72148080D03*
X164003400Y-103293300D03*
X165592441Y-80098281D03*
X111340040Y-63334280D03*
%TO.N,+3V3*%
X160920840Y-89521680D03*
X164004400Y-61729500D03*
X146707000Y-101023100D03*
X160235040Y-90207480D03*
X108365400Y-86133320D03*
X150657000Y-102991300D03*
X149206000Y-81042319D03*
X134629000Y-69514100D03*
X131063440Y-74510280D03*
X111058400Y-123608100D03*
X153631040Y-88017700D03*
X160920840Y-90207480D03*
X153631040Y-89440100D03*
X131042040Y-102882280D03*
X170090240Y-121020280D03*
X144522600Y-132123101D03*
X180856561Y-111594280D03*
X161606640Y-89521680D03*
X111287200Y-86133320D03*
X145462400Y-132125100D03*
X160235040Y-90893280D03*
X133027700Y-83870800D03*
X161606640Y-90893280D03*
X181047800Y-106260280D03*
X137194700Y-77819900D03*
X166790840Y-121553680D03*
X176658680Y-122854160D03*
X138706000Y-130879181D03*
X160920840Y-90893280D03*
X155797000Y-68093699D03*
X153631040Y-88728900D03*
X126173640Y-121264461D03*
X110959602Y-95269700D03*
X160235040Y-89521680D03*
X110959602Y-94253700D03*
X138715801Y-80134261D03*
X161606640Y-90207480D03*
X164004400Y-58807700D03*
%TO.N,+5V*%
X167093640Y-142125080D03*
X153328620Y-66229720D03*
%TO.N,+1V8*%
X168506900Y-102710202D03*
X129424840Y-119714461D03*
X172832138Y-142765580D03*
X112740002Y-79222600D03*
X170468200Y-59989100D03*
X168506900Y-102075202D03*
X153726399Y-98679000D03*
X139744360Y-126059401D03*
X152653561Y-95174880D03*
X158905760Y-65669521D03*
X137232800Y-60407700D03*
X111020000Y-79669520D03*
X109508400Y-127672100D03*
X173881800Y-141782800D03*
X173875440Y-139907198D03*
X129501040Y-107733480D03*
X129538840Y-77761480D03*
X176394481Y-109307280D03*
%TO.N,USB_FLASH_ID*%
X117497000Y-112143500D03*
X164108638Y-142134480D03*
%TO.N,3V3_STDB*%
X180602800Y-84691600D03*
X185479600Y-84678400D03*
X166612439Y-80123680D03*
X106095040Y-63951281D03*
X112740000Y-78282800D03*
X188007400Y-65107400D03*
X179129600Y-92881600D03*
X182253800Y-92881600D03*
X170943801Y-62903601D03*
X109521400Y-71304300D03*
X112377400Y-73814320D03*
%TO.N,Net-(D1-K)*%
X151726040Y-81007300D03*
%TO.N,USBSS2_RX_N*%
X117486840Y-121211000D03*
X168123540Y-118071280D03*
%TO.N,Net-(U1-V_{CC})*%
X170903040Y-70585480D03*
X173034100Y-69895100D03*
X166178640Y-70535480D03*
X173316040Y-62115080D03*
%TO.N,USBSS2_RX_P*%
X117486840Y-120576000D03*
X168758540Y-118071280D03*
%TO.N,USBSS2_TX_N*%
X117485609Y-119711000D03*
X170053940Y-118096680D03*
%TO.N,/SoM/DEBUG_TXD_1V8*%
X122780200Y-72943100D03*
%TO.N,USBSS2_TX_P*%
X117485609Y-119076000D03*
X170688940Y-118096680D03*
%TO.N,Net-(U29-V_{CC})*%
X173288800Y-81706599D03*
X170926600Y-89300200D03*
X172919800Y-88475200D03*
X166138000Y-89288000D03*
%TO.N,/M.2/M2_M_SMB_CLK*%
X143496440Y-81794700D03*
%TO.N,/M.2/M2_M_SMB_DATA*%
X142810643Y-81794700D03*
%TO.N,/M.2/~{M2_M_ALERT}*%
X142175640Y-81794700D03*
%TO.N,/M.2/M2_M_SUSCLK*%
X136525598Y-81528300D03*
%TO.N,SYS_SDA*%
X176658680Y-124479760D03*
X117486840Y-85025880D03*
%TO.N,SYS_SCL*%
X117486840Y-85660880D03*
X176658680Y-123539960D03*
%TO.N,DP1_TXD0_HDMI_TX2_N*%
X122084240Y-118274500D03*
%TO.N,/USB Debug\u002C USB2/FTDI_3V3*%
X125675800Y-128823100D03*
X132104241Y-125698900D03*
X130654200Y-129997181D03*
X126300640Y-123258061D03*
%TO.N,/CSI/SDA_CAM0*%
X152545797Y-121183400D03*
%TO.N,/CSI/SCL_CAM0*%
X153180800Y-121183400D03*
%TO.N,/SoM/DEBUG_RXD_1V8*%
X122795440Y-72308103D03*
%TO.N,/CSI/SDA_CAM1*%
X136366000Y-103860600D03*
X111979600Y-94253700D03*
%TO.N,/CSI/SCL_CAM1*%
X111977601Y-95248100D03*
X136366000Y-104571800D03*
%TO.N,/CSI/SDA_CAM2*%
X147923000Y-98806000D03*
X182902000Y-106260280D03*
%TO.N,/CSI/SCL_CAM2*%
X182902000Y-105218880D03*
X147923000Y-98094800D03*
%TO.N,/CSI/SDA_CAM3*%
X143960600Y-96088200D03*
%TO.N,/CSI/SCL_CAM3*%
X143960600Y-95342599D03*
%TO.N,/CSI/VSYNC_CAM0_3V3*%
X146884800Y-134284100D03*
X133549800Y-108470080D03*
%TO.N,DP1_TXD0_HDMI_TX2_P*%
X122084240Y-117512500D03*
%TO.N,/CSI/VSYNC_CAM1_3V3*%
X133234840Y-104406080D03*
X112747200Y-97248114D03*
%TO.N,DP1_TXD1_HDMI_TX1_N*%
X126856900Y-116034200D03*
X117493800Y-116774500D03*
%TO.N,/CSI/VSYNC_CAM3_3V3*%
X152647400Y-61087000D03*
X133321200Y-74390900D03*
%TO.N,/CSI/VSYNC_CAM2_3V3*%
X133321200Y-78912100D03*
X183968800Y-103248086D03*
%TO.N,DP1_TXD1_HDMI_TX1_P*%
X117493800Y-116012500D03*
X126145700Y-116034200D03*
%TO.N,DP1_TXD2_HDMI_TX0_N*%
X128761900Y-112508680D03*
X117493183Y-115274500D03*
%TO.N,DP1_TXD2_HDMI_TX0_P*%
X127999900Y-112508680D03*
X117493183Y-114512500D03*
%TO.N,DP1_TXD3_HDMI_TXC_N*%
X117495404Y-113774500D03*
X130616100Y-108820600D03*
%TO.N,DP1_TXD3_HDMI_TXC_P*%
X117495404Y-113012500D03*
X129904900Y-108820600D03*
%TO.N,DP1_HPD*%
X121942000Y-72943100D03*
X120077640Y-109892480D03*
X137232800Y-58757700D03*
%TO.N,DP1_HDMI_AUX_P*%
X131787040Y-107733480D03*
%TO.N,DP1_HDMI_AUX_N*%
X132495700Y-107733480D03*
%TO.N,USB0_D_P*%
X171004640Y-129450480D03*
X117747800Y-106075000D03*
%TO.N,USB1_D_N*%
X117747800Y-105211000D03*
X187347000Y-119790600D03*
%TO.N,USB1_D_P*%
X187347000Y-120425600D03*
X117747800Y-104576000D03*
%TO.N,PCIE0_TX0_N*%
X122744640Y-100460500D03*
X141509800Y-71761700D03*
%TO.N,PCIE0_TX0_P*%
X140874800Y-71761700D03*
X122744640Y-99825500D03*
%TO.N,PCIE0_TX1_N*%
X144481600Y-71761700D03*
X122744640Y-98960001D03*
%TO.N,PCIE0_TX1_P*%
X143846600Y-71761700D03*
X122744640Y-98325001D03*
%TO.N,PCIE0_TX2_N*%
X147504200Y-71761700D03*
X122744640Y-94961001D03*
%TO.N,PCIE0_TX2_P*%
X122744640Y-94326001D03*
X146869200Y-71761700D03*
%TO.N,PCIE0_TX3_N*%
X122744640Y-93461000D03*
X150501400Y-71761700D03*
%TO.N,PCIE0_TX3_P*%
X122744640Y-92826000D03*
X149866400Y-71761700D03*
%TO.N,PCIE_WAKE\u002A*%
X117497000Y-87311880D03*
X139686440Y-85936899D03*
%TO.N,PCIE0_CLKREQ\u002A*%
X138721240Y-81794700D03*
X125614840Y-86067280D03*
%TO.N,PCIE0_RST\u002A*%
X139686440Y-81794700D03*
X117497000Y-86524480D03*
%TO.N,UART1_TXD*%
X114626800Y-81198103D03*
X109064200Y-126452900D03*
%TO.N,UART1_RXD*%
X109064200Y-125792500D03*
X114626800Y-80563100D03*
%TO.N,FAN_TACH*%
X156797560Y-66520120D03*
X125564040Y-79895080D03*
%TO.N,FAN_PWM*%
X157473000Y-66522600D03*
X127171200Y-72644000D03*
%TO.N,~{SHUTDOWN_REQ}*%
X117493800Y-73075800D03*
X113760000Y-75946000D03*
%TO.N,/HDMI/5V_HDMI*%
X130908200Y-59959702D03*
%TO.N,USBC1_FLG*%
X156613000Y-133141100D03*
X170467939Y-139082580D03*
%TO.N,/HDMI/HDMI_SDA_5V*%
X131467000Y-61957600D03*
%TO.N,/HDMI/HDMI_SCL_5V*%
X130908200Y-60979700D03*
%TO.N,/HDMI/HDMI_CEC_5V*%
X120595800Y-60979700D03*
X129577240Y-60979700D03*
%TO.N,/HDMI/HDMI_HPD_5V*%
X135759600Y-58757700D03*
X132686200Y-61963400D03*
%TO.N,/M.2/PCIE_WAKE_SEL0*%
X139686440Y-84334700D03*
%TO.N,USBC1_PEN*%
X171812140Y-142765580D03*
X118655240Y-109384480D03*
%TO.N,/HDMI/HDMI_HPD_5V_R*%
X135759600Y-60407700D03*
%TO.N,/USB3\u002C Recovery/USBC1_VBUS*%
X171817440Y-119240281D03*
X165545440Y-138414681D03*
%TO.N,JETSON_EN*%
X109927800Y-73222500D03*
X111959800Y-123616100D03*
%TO.N,/USB Debug\u002C USB2/USBC3_D_P*%
X128196400Y-135927581D03*
X129206400Y-135927581D03*
%TO.N,Net-(Q2-D)*%
X129359799Y-85005272D03*
X125522400Y-82445527D03*
X131112700Y-83312000D03*
X129281600Y-82445528D03*
X125600599Y-85005272D03*
X122755087Y-82445527D03*
X127443640Y-85000480D03*
X127401000Y-82445527D03*
X131240399Y-85005272D03*
%TO.N,/Supply/5V_OUT*%
X167662000Y-67469400D03*
X167662000Y-73553000D03*
%TO.N,/Supply/3V3_OUT*%
X167636600Y-92323600D03*
X167636600Y-86270480D03*
%TO.N,5V_SoM*%
X161606640Y-75145280D03*
X160920840Y-75145280D03*
X160235040Y-75145280D03*
X160235040Y-73773680D03*
X160235040Y-74459480D03*
X160920840Y-74459480D03*
X161606640Y-73773680D03*
X160920840Y-73773680D03*
X161606640Y-74459480D03*
%TO.N,I2C1_SCL*%
X114674400Y-84632800D03*
X143960600Y-97764600D03*
%TO.N,I2C1_SDA*%
X143960600Y-98475800D03*
X117493800Y-83845400D03*
%TO.N,/USB Debug\u002C USB2/FTDI_LED_RX*%
X132127401Y-130034678D03*
X131202840Y-126128261D03*
%TO.N,Net-(J15E-HDMI_CEC)*%
X122668440Y-111252000D03*
%TO.N,Net-(J15A-CLK_32K_OUT)*%
X122928860Y-79393500D03*
%TO.N,VBATT*%
X191636400Y-77216000D03*
X190264800Y-78587600D03*
X190264800Y-77216000D03*
X191636400Y-77901800D03*
X190264800Y-77901800D03*
X191636400Y-78587600D03*
X190950600Y-77216000D03*
X190950600Y-77901800D03*
X192322200Y-78587600D03*
X192322200Y-77216000D03*
X190950600Y-78587600D03*
X192322200Y-77901800D03*
%TO.N,/USB3\u002C Recovery/USBC1_CC2*%
X172325440Y-129450480D03*
X172376243Y-131815280D03*
X172122240Y-136057080D03*
X173747840Y-121655280D03*
%TO.N,/USB3\u002C Recovery/USBC1_RX2_N*%
X170413793Y-125649686D03*
X173292962Y-129443107D03*
%TO.N,/USB3\u002C Recovery/USBC1_CC1*%
X170318840Y-129450480D03*
X173747840Y-121020277D03*
%TO.N,/USB3\u002C Recovery/USBC1_RX2_P*%
X171074193Y-125649686D03*
X173952840Y-129443107D03*
%TO.N,MCLK_CAM1*%
X112747200Y-96248113D03*
X122922440Y-103136080D03*
%TO.N,MCLK_CAM0*%
X145882013Y-134284100D03*
X122338240Y-107784280D03*
%TO.N,MCLK_CAM2*%
X122338240Y-104888680D03*
X169233600Y-106349800D03*
%TO.N,SLEEP{slash}~{WAKE}*%
X122795440Y-71673100D03*
%TO.N,MCLK_CAM3*%
X153881987Y-61087000D03*
X122922016Y-77758506D03*
%TO.N,~{USBC1_INT}*%
X125564040Y-78893500D03*
X174967040Y-127448479D03*
X173881800Y-140762802D03*
%TO.N,~{MOD_SLEEP}*%
X122980200Y-87392500D03*
%TO.N,/USB3\u002C Recovery/USBC1_ID*%
X172840400Y-139192000D03*
X162458639Y-142134480D03*
X174179640Y-123077680D03*
X174347280Y-118663160D03*
%TO.N,PWR_SCL*%
X180602800Y-86341600D03*
%TO.N,MB_SCL*%
X177938840Y-88150080D03*
X111932000Y-121616600D03*
%TO.N,PWR_SDA*%
X185479600Y-86328400D03*
%TO.N,MB_SDA*%
X182841040Y-88175480D03*
X111932000Y-120606600D03*
%TO.N,CAM0_PEN*%
X139591800Y-129540000D03*
X140230000Y-135630300D03*
X112874200Y-84131800D03*
%TO.N,CAM1_FLG*%
X110836700Y-82744921D03*
%TO.N,CAM1_PEN*%
X110359600Y-82043920D03*
%TO.N,CAM2_PEN*%
X177531401Y-110775880D03*
X127381599Y-77578600D03*
%TO.N,CAM0_FLG*%
X112872200Y-81236200D03*
%TO.N,/USB3\u002C Recovery/USBC1_I2C_SDA*%
X174863440Y-124474680D03*
%TO.N,/USB3\u002C Recovery/USBC1_ISC_SCL*%
X174863440Y-123534880D03*
%TO.N,CAM3_PEN*%
X127381599Y-75648200D03*
X168855800Y-58490500D03*
%TO.N,CAM2_FLG*%
X177531401Y-107657280D03*
X127381599Y-74683000D03*
%TO.N,CAM3_FLG*%
X127381599Y-76613400D03*
X168818200Y-61462300D03*
%TO.N,MB_JETSON_RX*%
X111985200Y-125665500D03*
%TO.N,MB_JETSON_TX*%
X111985200Y-126529100D03*
%TO.N,/Peripherals/SHUTDOWN_REQ_MB*%
X113760000Y-77114400D03*
X111931200Y-119608600D03*
%TO.N,Net-(R14-Pad1)*%
X108665200Y-69430500D03*
%TD*%
D22*
%TO.N,CSI1_D0_N*%
X109686125Y-133021407D02*
X108727907Y-133021407D01*
X110719395Y-133309255D02*
X110719395Y-133168502D01*
X108566994Y-105877020D02*
X108378400Y-106065614D01*
X109015520Y-105877020D02*
X108566994Y-105877020D01*
X112099395Y-133309267D02*
X112099395Y-133168502D01*
X110572300Y-133021407D02*
X110434300Y-133021407D01*
X106291495Y-114902921D02*
X109262295Y-111932121D01*
X109262295Y-111932121D02*
X109262295Y-106123795D01*
X106290495Y-130583995D02*
X106290495Y-115013105D01*
X113047205Y-133168502D02*
X113047205Y-133309267D01*
X106291495Y-115012105D02*
X106291495Y-114902921D01*
X110434300Y-133021407D02*
X109686125Y-133021407D01*
X113904804Y-133021407D02*
X113194300Y-133021407D01*
X114093400Y-133210003D02*
X113904804Y-133021407D01*
X108727907Y-133021407D02*
X106290495Y-130583995D01*
X111262300Y-133714160D02*
X111124300Y-133714160D01*
X111952300Y-133021407D02*
X111814300Y-133021407D01*
X112642300Y-133714172D02*
X112504300Y-133714172D01*
X109262295Y-106123795D02*
X109015520Y-105877020D01*
X106290495Y-115013105D02*
X106291495Y-115012105D01*
X111667205Y-133168502D02*
X111667205Y-133309255D01*
X113047205Y-133309267D02*
G75*
G02*
X112642300Y-133714205I-404905J-33D01*
G01*
X112099395Y-133168502D02*
G75*
G03*
X111952300Y-133021405I-147095J2D01*
G01*
X112504300Y-133714172D02*
G75*
G02*
X112099428Y-133309267I0J404872D01*
G01*
X111814300Y-133021407D02*
G75*
G03*
X111667207Y-133168502I0J-147093D01*
G01*
X111667205Y-133309255D02*
G75*
G02*
X111262300Y-133714205I-404905J-45D01*
G01*
X110719395Y-133168502D02*
G75*
G03*
X110572300Y-133021405I-147095J2D01*
G01*
X111124300Y-133714160D02*
G75*
G02*
X110719440Y-133309255I0J404860D01*
G01*
X113194300Y-133021407D02*
G75*
G03*
X113047207Y-133168502I0J-147093D01*
G01*
%TO.N,CSI0_D0_N*%
X123667107Y-132771407D02*
X121266994Y-132771407D01*
X139741605Y-140743305D02*
X154808995Y-140743305D01*
X121266994Y-132771407D02*
X121078400Y-132960001D01*
X155510906Y-140041394D02*
X155510906Y-137621394D01*
X138599295Y-135879195D02*
X137096656Y-134376556D01*
X138599295Y-139600995D02*
X138599295Y-135879195D01*
X155510906Y-137621394D02*
X155698600Y-137433700D01*
X139741605Y-140743305D02*
X138599295Y-139600995D01*
X154808995Y-140743305D02*
X155510906Y-140041394D01*
X125272256Y-134376556D02*
X123667107Y-132771407D01*
X137096656Y-134376556D02*
X125272256Y-134376556D01*
%TO.N,CSI1_D0_P*%
X113904804Y-132763596D02*
X113194300Y-132763596D01*
X112357205Y-133309267D02*
X112357205Y-133168502D01*
X111952300Y-132763597D02*
X111814300Y-132763597D01*
X109686125Y-132763596D02*
X108834696Y-132763596D01*
X112642300Y-133456362D02*
X112504300Y-133456362D01*
X111409395Y-133168502D02*
X111409395Y-133309255D01*
X111262300Y-133456350D02*
X111124300Y-133456350D01*
X110434300Y-132763597D02*
X109686125Y-132763596D01*
X112789395Y-133168502D02*
X112789395Y-133309267D01*
X109519105Y-112038495D02*
X109519105Y-111809895D01*
X109520105Y-106017005D02*
X109122308Y-105619208D01*
X114093400Y-132575000D02*
X113904804Y-132763596D01*
X106548305Y-115009295D02*
X109519105Y-112038495D01*
X108834696Y-132763596D02*
X106548305Y-130477205D01*
X106548305Y-130477205D02*
X106548305Y-115009295D01*
X108566994Y-105619208D02*
X108378400Y-105430614D01*
X113194300Y-132763596D02*
X113194300Y-132763597D01*
X109519105Y-111809895D02*
X109520105Y-111808895D01*
X110977205Y-133309255D02*
X110977205Y-133168502D01*
X109520105Y-111808895D02*
X109520105Y-106017005D01*
X110572300Y-132763597D02*
X110434300Y-132763597D01*
X109122308Y-105619208D02*
X108566994Y-105619208D01*
X112357205Y-133168502D02*
G75*
G03*
X111952300Y-132763595I-404905J2D01*
G01*
X111124300Y-133456350D02*
G75*
G02*
X110977250Y-133309255I0J147050D01*
G01*
X112789395Y-133309267D02*
G75*
G02*
X112642300Y-133456395I-147095J-33D01*
G01*
X113194300Y-132763597D02*
G75*
G03*
X112789397Y-133168502I0J-404903D01*
G01*
X111409395Y-133309255D02*
G75*
G02*
X111262300Y-133456395I-147095J-45D01*
G01*
X112504300Y-133456362D02*
G75*
G02*
X112357238Y-133309267I0J147062D01*
G01*
X110977205Y-133168502D02*
G75*
G03*
X110572300Y-132763595I-404905J2D01*
G01*
X111814300Y-132763597D02*
G75*
G03*
X111409397Y-133168502I0J-404903D01*
G01*
%TO.N,CSI0_D0_P*%
X124384720Y-132863140D02*
X124370046Y-132877815D01*
X154702205Y-140485495D02*
X155253094Y-139934606D01*
X155253094Y-137623194D02*
X155063600Y-137433700D01*
X139848395Y-140485495D02*
X154702205Y-140485495D01*
X125350344Y-134090044D02*
X137191144Y-134090044D01*
X124370045Y-133109745D02*
X125350344Y-134090044D01*
X155253094Y-139934606D02*
X155253094Y-137623194D01*
X138857105Y-139494205D02*
X139848395Y-140485495D01*
X124080134Y-132587903D02*
X124094807Y-132573227D01*
X121266994Y-132513595D02*
X123773895Y-132513595D01*
X124326739Y-132573228D02*
X124384721Y-132631210D01*
X123773895Y-132513595D02*
X123848202Y-132587902D01*
X138857105Y-135756005D02*
X138857105Y-139494205D01*
X121078400Y-132325001D02*
X121266994Y-132513595D01*
X137191144Y-134090044D02*
X138857105Y-135756005D01*
X124384721Y-132631210D02*
G75*
G02*
X124384746Y-132863166I-115921J-115990D01*
G01*
X124094807Y-132573227D02*
G75*
G02*
X124326766Y-132573200I115993J-115973D01*
G01*
X124370046Y-132877815D02*
G75*
G03*
X124370025Y-133109765I115954J-115985D01*
G01*
X123848202Y-132587902D02*
G75*
G03*
X124080165Y-132587935I115998J116002D01*
G01*
%TO.N,CSI1_CLK_N*%
X107967895Y-115995121D02*
X110989495Y-112973521D01*
X114093400Y-131711080D02*
X113904806Y-131522486D01*
X107966895Y-129847395D02*
X107966895Y-116079905D01*
X107966895Y-116079905D02*
X107967895Y-116078905D01*
X110583095Y-104320395D02*
X110583095Y-100154795D01*
X110305321Y-99877021D02*
X110036994Y-99877021D01*
X113904806Y-131522486D02*
X109641986Y-131522486D01*
X110989495Y-104726795D02*
X110583095Y-104320395D01*
X107967895Y-116078905D02*
X107967895Y-115995121D01*
X110036994Y-99877021D02*
X109848400Y-100065615D01*
X110583095Y-100154795D02*
X110305321Y-99877021D01*
X109641986Y-131522486D02*
X107966895Y-129847395D01*
X110989495Y-112973521D02*
X110989495Y-104726795D01*
%TO.N,CSI0_CLK_N*%
X127376621Y-130908010D02*
X127376621Y-131013557D01*
X128796621Y-131013557D02*
X128796621Y-131271369D01*
X145143505Y-138414695D02*
X145143505Y-137909550D01*
X141449295Y-135554195D02*
X141449295Y-138309455D01*
X126924433Y-131271369D02*
X126924433Y-131013557D01*
X127376621Y-131013557D02*
X127376621Y-131271369D01*
X129869980Y-130802463D02*
X130111074Y-130802463D01*
X138223400Y-132328300D02*
X141449295Y-135554195D01*
X144529600Y-138866600D02*
X144691600Y-138866600D01*
X128344433Y-131271369D02*
X128344433Y-131013557D01*
X131184433Y-131013557D02*
X131184433Y-130908010D01*
X131184433Y-131376916D02*
X131184433Y-131271369D01*
X149023770Y-138866600D02*
X149508904Y-138381466D01*
X126319980Y-131740275D02*
X126561074Y-131740275D01*
X134819800Y-132328300D02*
X138223400Y-132328300D01*
X128449980Y-130802463D02*
X128691074Y-130802463D01*
X129764433Y-131013557D02*
X129764433Y-130908010D01*
X126924433Y-131013557D02*
X126924433Y-130908010D01*
X146311600Y-138866600D02*
X147662606Y-138866600D01*
X130216621Y-131013557D02*
X130216621Y-131271369D01*
X149508904Y-137624296D02*
X149699500Y-137433700D01*
X131184433Y-131271369D02*
X131184433Y-131013557D01*
X141449295Y-138309455D02*
X142006440Y-138866600D01*
X121990551Y-131271369D02*
X125851074Y-131271369D01*
X145697695Y-137909550D02*
X145697695Y-138414695D01*
X128344433Y-131376916D02*
X128344433Y-131271369D01*
X128796621Y-131271369D02*
X128796621Y-131376916D01*
X129764433Y-131271369D02*
X129764433Y-131013557D01*
X131636621Y-131248010D02*
X131636621Y-131376916D01*
X131289980Y-130802463D02*
X131531074Y-130802463D01*
X128344433Y-131013557D02*
X128344433Y-130908010D01*
X134655950Y-132164450D02*
X134819800Y-132328300D01*
X146149600Y-138866600D02*
X146311600Y-138866600D01*
X147662606Y-138866600D02*
X149023770Y-138866600D01*
X126924433Y-131376916D02*
X126924433Y-131271369D01*
X149508904Y-138381466D02*
X149508904Y-137624296D01*
X131636621Y-130908010D02*
X131636621Y-131013557D01*
X133762869Y-131271369D02*
X134655950Y-132164450D01*
X121804840Y-131457080D02*
X121990551Y-131271369D01*
X132951074Y-131271369D02*
X133762869Y-131271369D01*
X143719600Y-137713459D02*
X143881600Y-137713459D01*
X127029980Y-130802463D02*
X127271074Y-130802463D01*
X129764433Y-131376916D02*
X129764433Y-131271369D01*
X143523505Y-138414695D02*
X143523505Y-137909554D01*
X145339600Y-137713455D02*
X145501600Y-137713455D01*
X142006440Y-138866600D02*
X143071600Y-138866600D01*
X127376621Y-131271369D02*
X127376621Y-131376916D01*
X131999980Y-131740275D02*
X132241074Y-131740275D01*
X144077695Y-137909554D02*
X144077695Y-138414695D01*
X127739980Y-131740275D02*
X127981074Y-131740275D01*
X129159980Y-131740275D02*
X129401074Y-131740275D01*
X130216621Y-130908010D02*
X130216621Y-131013557D01*
X130216621Y-131271369D02*
X130216621Y-131376916D01*
X131636621Y-131013557D02*
X131636621Y-131248010D01*
X130579980Y-131740275D02*
X130821074Y-131740275D01*
X132709980Y-131271369D02*
X132951074Y-131271369D01*
X128796621Y-130908010D02*
X128796621Y-131013557D01*
X130821074Y-131740275D02*
G75*
G03*
X131184475Y-131376916I26J363375D01*
G01*
X128691074Y-130802463D02*
G75*
G02*
X128796637Y-130908010I26J-105537D01*
G01*
X129764433Y-130908010D02*
G75*
G02*
X129869980Y-130802433I105567J10D01*
G01*
X131636621Y-131376916D02*
G75*
G03*
X131999980Y-131740279I363379J16D01*
G01*
X145143505Y-137909550D02*
G75*
G02*
X145339600Y-137713505I196095J-50D01*
G01*
X145697695Y-138414695D02*
G75*
G03*
X146149600Y-138866605I451905J-5D01*
G01*
X127981074Y-131740275D02*
G75*
G03*
X128344475Y-131376916I26J363375D01*
G01*
X143071600Y-138866600D02*
G75*
G03*
X143523500Y-138414695I0J451900D01*
G01*
X126924433Y-130908010D02*
G75*
G02*
X127029980Y-130802433I105567J10D01*
G01*
X130111074Y-130802463D02*
G75*
G02*
X130216637Y-130908010I26J-105537D01*
G01*
X143881600Y-137713459D02*
G75*
G02*
X144077741Y-137909554I0J-196141D01*
G01*
X127376621Y-131376916D02*
G75*
G03*
X127739980Y-131740279I363379J16D01*
G01*
X125956621Y-131376916D02*
G75*
G03*
X126319980Y-131740279I363379J16D01*
G01*
X132604433Y-131376916D02*
G75*
G02*
X132709980Y-131271333I105567J16D01*
G01*
X125851074Y-131271369D02*
G75*
G02*
X125956631Y-131376916I26J-105531D01*
G01*
X127271074Y-130802463D02*
G75*
G02*
X127376637Y-130908010I26J-105537D01*
G01*
X128796621Y-131376916D02*
G75*
G03*
X129159980Y-131740279I363379J16D01*
G01*
X145501600Y-137713455D02*
G75*
G02*
X145697745Y-137909550I0J-196145D01*
G01*
X132241074Y-131740275D02*
G75*
G03*
X132604475Y-131376916I26J363375D01*
G01*
X143523505Y-137909554D02*
G75*
G02*
X143719600Y-137713505I196095J-46D01*
G01*
X144077695Y-138414695D02*
G75*
G03*
X144529600Y-138866605I451905J-5D01*
G01*
X128344433Y-130908010D02*
G75*
G02*
X128449980Y-130802433I105567J10D01*
G01*
X126561074Y-131740275D02*
G75*
G03*
X126924475Y-131376916I26J363375D01*
G01*
X144691600Y-138866600D02*
G75*
G03*
X145143500Y-138414695I0J451900D01*
G01*
X131531074Y-130802463D02*
G75*
G02*
X131636637Y-130908010I26J-105537D01*
G01*
X131184433Y-130908010D02*
G75*
G02*
X131289980Y-130802433I105567J10D01*
G01*
X129401074Y-131740275D02*
G75*
G03*
X129764475Y-131376916I26J363375D01*
G01*
X130216621Y-131376916D02*
G75*
G03*
X130579980Y-131740279I363379J16D01*
G01*
%TO.N,CSI1_CLK_P*%
X110840905Y-104213605D02*
X110840905Y-100048005D01*
X114093400Y-131076080D02*
X113904806Y-131264674D01*
X110840905Y-100048005D02*
X110412109Y-99619209D01*
X108224705Y-116101495D02*
X111247305Y-113078895D01*
X113904806Y-131264674D02*
X109748774Y-131264674D01*
X110036994Y-99619209D02*
X109848400Y-99430615D01*
X108224705Y-129740605D02*
X108224705Y-116101495D01*
X111247305Y-104620005D02*
X110840905Y-104213605D01*
X111247305Y-113078895D02*
X111247305Y-104620005D01*
X110412109Y-99619209D02*
X110036994Y-99619209D01*
X109748774Y-131264674D02*
X108224705Y-129740605D01*
%TO.N,CSI0_CLK_P*%
X127029980Y-130544651D02*
X127271074Y-130544651D01*
X123513089Y-130849557D02*
X123513089Y-130827717D01*
X129506621Y-131013557D02*
X129506621Y-130908010D01*
X130474433Y-131271369D02*
X130474433Y-131376916D01*
X144887695Y-138414695D02*
X144887695Y-137909550D01*
X130474433Y-131013557D02*
X130474433Y-131271369D01*
X131894433Y-130908010D02*
X131894433Y-131013557D01*
X132709980Y-131013557D02*
X132951074Y-131013557D01*
X141705105Y-138203495D02*
X142112400Y-138610790D01*
X141705105Y-135448235D02*
X141705105Y-138203495D01*
X127634433Y-131271369D02*
X127634433Y-131376916D01*
X146149600Y-138610790D02*
X146311600Y-138610790D01*
X144529600Y-138610790D02*
X144691600Y-138610790D01*
X134836835Y-131983565D02*
X134925760Y-132072490D01*
X126666621Y-131271369D02*
X126666621Y-131013557D01*
X131894433Y-131248010D02*
X131894433Y-131376916D01*
X130926621Y-131271369D02*
X130926621Y-131013557D01*
X129869980Y-130544651D02*
X130111074Y-130544651D01*
X127739980Y-131482463D02*
X127981074Y-131482463D01*
X124123874Y-131013557D02*
X125851074Y-131013557D01*
X131894433Y-131013557D02*
X131894433Y-131248010D01*
X128086621Y-131271369D02*
X128086621Y-131013557D01*
X127634433Y-130908010D02*
X127634433Y-131013557D01*
X124087089Y-131013557D02*
X124123874Y-131013557D01*
X126319980Y-131482463D02*
X126561074Y-131482463D01*
X129506621Y-131271369D02*
X129506621Y-131013557D01*
X128086621Y-131376916D02*
X128086621Y-131271369D01*
X127634433Y-131013557D02*
X127634433Y-131271369D01*
X130926621Y-131376916D02*
X130926621Y-131271369D01*
X129054433Y-130908010D02*
X129054433Y-131013557D01*
X126666621Y-131376916D02*
X126666621Y-131271369D01*
X129054433Y-131271369D02*
X129054433Y-131376916D01*
X146311600Y-138610790D02*
X147662606Y-138610790D01*
X128449980Y-130544651D02*
X128691074Y-130544651D01*
X145339600Y-137457645D02*
X145501600Y-137457645D01*
X121804840Y-130822077D02*
X121996320Y-131013557D01*
X128086621Y-131013557D02*
X128086621Y-130908010D01*
X130579980Y-131482463D02*
X130821074Y-131482463D01*
X142112400Y-138610790D02*
X143071600Y-138610790D01*
X132951074Y-131013557D02*
X133866827Y-131013557D01*
X144333505Y-137909554D02*
X144333505Y-138414695D01*
X134925760Y-132072490D02*
X138329360Y-132072490D01*
X133866827Y-131013557D02*
X134836835Y-131983565D01*
X148917810Y-138610790D02*
X149253094Y-138275506D01*
X129506621Y-131376916D02*
X129506621Y-131271369D01*
X143267695Y-138414695D02*
X143267695Y-137909554D01*
X123923089Y-130827717D02*
X123923089Y-130849557D01*
X129054433Y-131013557D02*
X129054433Y-131271369D01*
X130926621Y-131013557D02*
X130926621Y-130908010D01*
X143719600Y-137457649D02*
X143881600Y-137457649D01*
X149253094Y-137622294D02*
X149064500Y-137433700D01*
X126666621Y-131013557D02*
X126666621Y-130908010D01*
X145953505Y-137909550D02*
X145953505Y-138414695D01*
X123677089Y-130663717D02*
X123759089Y-130663717D01*
X131289980Y-130544651D02*
X131531074Y-130544651D01*
X131999980Y-131482463D02*
X132241074Y-131482463D01*
X149253094Y-138275506D02*
X149253094Y-137622294D01*
X138329360Y-132072490D02*
X141705105Y-135448235D01*
X129159980Y-131482463D02*
X129401074Y-131482463D01*
X130474433Y-130908010D02*
X130474433Y-131013557D01*
X147662606Y-138610790D02*
X148917810Y-138610790D01*
X121996320Y-131013557D02*
X123349089Y-131013557D01*
X131894433Y-131376916D02*
G75*
G03*
X131999980Y-131482467I105567J16D01*
G01*
X144333505Y-138414695D02*
G75*
G03*
X144529600Y-138610795I196095J-5D01*
G01*
X123513089Y-130827717D02*
G75*
G02*
X123677089Y-130663689I164011J17D01*
G01*
X130474433Y-131376916D02*
G75*
G03*
X130579980Y-131482467I105567J16D01*
G01*
X126561074Y-131482463D02*
G75*
G03*
X126666663Y-131376916I26J105563D01*
G01*
X144691600Y-138610790D02*
G75*
G03*
X144887690Y-138414695I0J196090D01*
G01*
X143881600Y-137457649D02*
G75*
G02*
X144333551Y-137909554I0J-451951D01*
G01*
X126666621Y-130908010D02*
G75*
G02*
X127029980Y-130544621I363379J10D01*
G01*
X126214433Y-131376916D02*
G75*
G03*
X126319980Y-131482467I105567J16D01*
G01*
X145953505Y-138414695D02*
G75*
G03*
X146149600Y-138610795I196095J-5D01*
G01*
X129054433Y-131376916D02*
G75*
G03*
X129159980Y-131482467I105567J16D01*
G01*
X123923089Y-130849557D02*
G75*
G03*
X124087089Y-131013611I164011J-43D01*
G01*
X127634433Y-131376916D02*
G75*
G03*
X127739980Y-131482467I105567J16D01*
G01*
X123349089Y-131013557D02*
G75*
G03*
X123513057Y-130849557I11J163957D01*
G01*
X128691074Y-130544651D02*
G75*
G02*
X129054449Y-130908010I26J-363349D01*
G01*
X129401074Y-131482463D02*
G75*
G03*
X129506663Y-131376916I26J105563D01*
G01*
X131531074Y-130544651D02*
G75*
G02*
X131894449Y-130908010I26J-363349D01*
G01*
X130926621Y-130908010D02*
G75*
G02*
X131289980Y-130544621I363379J10D01*
G01*
X123759089Y-130663717D02*
G75*
G02*
X123923083Y-130827717I11J-163983D01*
G01*
X127271074Y-130544651D02*
G75*
G02*
X127634449Y-130908010I26J-363349D01*
G01*
X129506621Y-130908010D02*
G75*
G02*
X129869980Y-130544621I363379J10D01*
G01*
X145501600Y-137457645D02*
G75*
G02*
X145953555Y-137909550I0J-451955D01*
G01*
X132346621Y-131376916D02*
G75*
G02*
X132709980Y-131013521I363379J16D01*
G01*
X143267695Y-137909554D02*
G75*
G02*
X143719600Y-137457695I451905J-46D01*
G01*
X128086621Y-130908010D02*
G75*
G02*
X128449980Y-130544621I363379J10D01*
G01*
X130111074Y-130544651D02*
G75*
G02*
X130474449Y-130908010I26J-363349D01*
G01*
X127981074Y-131482463D02*
G75*
G03*
X128086663Y-131376916I26J105563D01*
G01*
X143071600Y-138610790D02*
G75*
G03*
X143267690Y-138414695I0J196090D01*
G01*
X130821074Y-131482463D02*
G75*
G03*
X130926663Y-131376916I26J105563D01*
G01*
X132241074Y-131482463D02*
G75*
G03*
X132346663Y-131376916I26J105563D01*
G01*
X144887695Y-137909550D02*
G75*
G02*
X145339600Y-137457695I451905J-50D01*
G01*
X125851074Y-131013557D02*
G75*
G02*
X126214443Y-131376916I26J-363343D01*
G01*
%TO.N,CSI1_D1_N*%
X110154495Y-120837243D02*
X110423947Y-120837243D01*
X110013947Y-120837243D02*
X110154495Y-120837243D01*
X114331279Y-106636475D02*
X114331279Y-106498475D01*
X114184166Y-104971380D02*
X113825840Y-104971380D01*
X113420935Y-111309165D02*
X113420935Y-109948475D01*
X113825840Y-108163570D02*
X114184184Y-108163570D01*
X113420935Y-104419400D02*
X113420935Y-103341875D01*
X110552853Y-121865053D02*
X110412305Y-121865053D01*
X109615591Y-123006696D02*
X109615591Y-122775600D01*
X113420935Y-105946475D02*
X113420935Y-105808475D01*
X114331279Y-108016475D02*
X114331279Y-107878475D01*
X113420935Y-104566475D02*
X113420935Y-104428475D01*
X113825840Y-105403570D02*
X114184166Y-105403570D01*
X110154495Y-118811235D02*
X110426168Y-118539562D01*
X113904065Y-130023145D02*
X111377345Y-130023145D01*
X112427794Y-102877020D02*
X112239200Y-103065614D01*
X112973990Y-115991740D02*
X112973990Y-111756110D01*
X113420935Y-103341875D02*
X112956080Y-102877020D01*
X110154495Y-121865053D02*
X110013947Y-121865053D01*
X113420935Y-104428475D02*
X113420935Y-104419400D01*
X110154495Y-122377243D02*
X110412305Y-122377243D01*
X109615590Y-121466696D02*
X109615590Y-121235600D01*
X110412305Y-121865053D02*
X110154495Y-121865053D01*
X114184184Y-107731380D02*
X113825840Y-107731380D01*
X113420935Y-108706475D02*
X113420935Y-108568475D01*
X113825840Y-106783570D02*
X114184184Y-106783570D01*
X110423947Y-120837243D02*
X110552852Y-120837243D01*
X112956080Y-102877020D02*
X112427794Y-102877020D01*
X110154495Y-119695600D02*
X110154495Y-118811235D01*
X114331261Y-109396475D02*
X114331261Y-109258475D01*
X110154495Y-119926696D02*
X110154495Y-119695600D01*
X110693400Y-122236696D02*
X110693400Y-122005600D01*
X110693399Y-120696696D02*
X110693399Y-120465600D01*
X110426168Y-118539562D02*
X112973990Y-115991740D01*
X113825840Y-109543570D02*
X114184166Y-109543570D01*
X114184166Y-109111380D02*
X113825840Y-109111380D01*
X113420935Y-107326475D02*
X113420935Y-107188475D01*
X110412305Y-122377243D02*
X110552853Y-122377243D01*
X114093400Y-130212480D02*
X113904065Y-130023145D01*
X111377345Y-130023145D02*
X110154495Y-128800295D01*
X110154495Y-128800295D02*
X110154495Y-123545600D01*
X110013948Y-122377243D02*
X110154495Y-122377243D01*
X114331261Y-105256475D02*
X114331261Y-105118475D01*
X114184184Y-106351380D02*
X113825840Y-106351380D01*
X112973990Y-111756110D02*
X113420935Y-111309165D01*
X114184166Y-109543570D02*
G75*
G03*
X114331270Y-109396475I34J147070D01*
G01*
X113420935Y-109948475D02*
G75*
G02*
X113825840Y-109543635I404865J-25D01*
G01*
X113825840Y-104971380D02*
G75*
G02*
X113420920Y-104566475I-40J404880D01*
G01*
X114331279Y-106498475D02*
G75*
G03*
X114184184Y-106351421I-147079J-25D01*
G01*
X110013947Y-121865053D02*
G75*
G02*
X109615547Y-121466696I-47J398353D01*
G01*
X110154495Y-123545600D02*
G75*
G03*
X110013948Y-123405005I-140595J0D01*
G01*
X114184166Y-105403570D02*
G75*
G03*
X114331270Y-105256475I34J147070D01*
G01*
X110693399Y-120465600D02*
G75*
G03*
X110552852Y-120325101I-140499J0D01*
G01*
X110552852Y-120325053D02*
G75*
G02*
X110154547Y-119926696I48J398353D01*
G01*
X113825840Y-107731380D02*
G75*
G02*
X113420920Y-107326475I-40J404880D01*
G01*
X113825840Y-109111380D02*
G75*
G02*
X113420920Y-108706475I-40J404880D01*
G01*
X110552853Y-122377243D02*
G75*
G03*
X110693443Y-122236696I47J140543D01*
G01*
X113420935Y-108568475D02*
G75*
G02*
X113825840Y-108163635I404865J-25D01*
G01*
X110552852Y-120837243D02*
G75*
G03*
X110693443Y-120696696I48J140543D01*
G01*
X110013948Y-123405053D02*
G75*
G02*
X109615547Y-123006696I-48J398353D01*
G01*
X113825840Y-106351380D02*
G75*
G02*
X113420920Y-105946475I-40J404880D01*
G01*
X110693400Y-122005600D02*
G75*
G03*
X110552853Y-121865100I-140500J0D01*
G01*
X113420935Y-107188475D02*
G75*
G02*
X113825840Y-106783635I404865J-25D01*
G01*
X109615591Y-122775600D02*
G75*
G02*
X110013948Y-122377291I398309J0D01*
G01*
X114331261Y-105118475D02*
G75*
G03*
X114184166Y-104971439I-147061J-25D01*
G01*
X113420935Y-105808475D02*
G75*
G02*
X113825840Y-105403635I404865J-25D01*
G01*
X109615590Y-121235600D02*
G75*
G02*
X110013947Y-120837290I398310J0D01*
G01*
X114331261Y-109258475D02*
G75*
G03*
X114184166Y-109111439I-147061J-25D01*
G01*
X114184184Y-108163570D02*
G75*
G03*
X114331270Y-108016475I16J147070D01*
G01*
X114331279Y-107878475D02*
G75*
G03*
X114184184Y-107731421I-147079J-25D01*
G01*
X114184184Y-106783570D02*
G75*
G03*
X114331270Y-106636475I16J147070D01*
G01*
%TO.N,CSI0_D1_N*%
X150667495Y-136293295D02*
X150667495Y-138432095D01*
X129869395Y-128901205D02*
X134161305Y-128901205D01*
X140605170Y-131684384D02*
X140605169Y-131684384D01*
X141868923Y-132457097D02*
X141713844Y-132612173D01*
X142887177Y-133475306D02*
X142732077Y-133630407D01*
X141385612Y-132283943D02*
X141540690Y-132128865D01*
X150667495Y-138432095D02*
X151102000Y-138866600D01*
X150235005Y-135860805D02*
X150667495Y-136293295D01*
X121804840Y-129961000D02*
X121997083Y-129768757D01*
X140480585Y-131152507D02*
X140522441Y-131110648D01*
X142785354Y-133147075D02*
X142887177Y-133248898D01*
X121997083Y-129768757D02*
X129001843Y-129768757D01*
X144600705Y-135860805D02*
X150235005Y-135860805D01*
X141713844Y-132612173D02*
X141623401Y-132702616D01*
X142437988Y-133924497D02*
X142396115Y-133966370D01*
X141204727Y-132464828D02*
X141385612Y-132283943D01*
X151102000Y-138866600D02*
X152112000Y-138866600D01*
X142067860Y-133638161D02*
X142222960Y-133483060D01*
X139010800Y-130270900D02*
X139892406Y-131152506D01*
X129001843Y-129768757D02*
X129869395Y-128901205D01*
X141377859Y-133536338D02*
X141479682Y-133638161D01*
X139892406Y-131152506D02*
X139892405Y-131152505D01*
X135531000Y-130270900D02*
X139010800Y-130270900D01*
X144320650Y-135580750D02*
X144600705Y-135860805D01*
X140359662Y-132518070D02*
X140461485Y-132619893D01*
X140808816Y-131480738D02*
X140605170Y-131684384D01*
X134161305Y-128901205D02*
X135531000Y-130270900D01*
X143354397Y-134614498D02*
X143456222Y-134716322D01*
X143456222Y-134716322D02*
X144320650Y-135580750D01*
X142222960Y-133483060D02*
X142403845Y-133302176D01*
X152510920Y-138467680D02*
X152510920Y-137624317D01*
X152510920Y-137624317D02*
X152699514Y-137435723D01*
X142732077Y-133630407D02*
X142437988Y-133924497D01*
X152112000Y-138866600D02*
X152510920Y-138467680D01*
X142403845Y-133302176D02*
X142558946Y-133147075D01*
X140605169Y-131684384D02*
X140514727Y-131774827D01*
X140514727Y-131774827D02*
X140359662Y-131929891D01*
X140850673Y-131438880D02*
X140808816Y-131480738D01*
X141532960Y-132793060D02*
X141377859Y-132948160D01*
X140748849Y-131110648D02*
X140850673Y-131212472D01*
X141049663Y-132619893D02*
X141204727Y-132464828D01*
X141623401Y-132702616D02*
X141623402Y-132702617D01*
X141767100Y-132128866D02*
X141868923Y-132230689D01*
X141623402Y-132702617D02*
X141532960Y-132793060D01*
X142396115Y-134554549D02*
X142497938Y-134656372D01*
X143086116Y-134656372D02*
X143127989Y-134614498D01*
X140850673Y-131212472D02*
G75*
G02*
X140850697Y-131438904I-113173J-113228D01*
G01*
X139892405Y-131152505D02*
G75*
G03*
X140480589Y-131152511I294095J294105D01*
G01*
X142396115Y-133966370D02*
G75*
G03*
X142396074Y-134554589I294085J-294130D01*
G01*
X141377859Y-132948160D02*
G75*
G03*
X141377908Y-133536289I294041J-294040D01*
G01*
X142887177Y-133248898D02*
G75*
G02*
X142887175Y-133475304I-113177J-113202D01*
G01*
X142558946Y-133147075D02*
G75*
G02*
X142785354Y-133147075I113204J-113206D01*
G01*
X140522441Y-131110648D02*
G75*
G02*
X140748849Y-131110648I113204J-113206D01*
G01*
X140359662Y-131929891D02*
G75*
G03*
X140359642Y-132518089I294138J-294109D01*
G01*
X142497938Y-134656372D02*
G75*
G03*
X143086116Y-134656372I294089J294088D01*
G01*
X143127989Y-134614498D02*
G75*
G02*
X143354397Y-134614498I113204J-113203D01*
G01*
X140461485Y-132619893D02*
G75*
G03*
X141049663Y-132619893I294089J294088D01*
G01*
X141540690Y-132128865D02*
G75*
G02*
X141767105Y-132128860I113210J-113235D01*
G01*
X141479682Y-133638161D02*
G75*
G03*
X142067860Y-133638161I294089J294088D01*
G01*
X141868923Y-132230689D02*
G75*
G02*
X141868930Y-132457104I-113223J-113211D01*
G01*
%TO.N,CSI1_D1_P*%
X110412305Y-121607243D02*
X110154495Y-121607243D01*
X113678745Y-103235085D02*
X113062868Y-102619208D01*
X110412305Y-122635053D02*
X110552853Y-122635053D01*
X113904065Y-129765335D02*
X111484135Y-129765335D01*
X110013948Y-122635053D02*
X110154495Y-122635053D01*
X110423947Y-121095053D02*
X110552852Y-121095053D01*
X110013947Y-121095053D02*
X110154495Y-121095053D01*
X110412305Y-118915195D02*
X110607053Y-118720447D01*
X114184184Y-107473570D02*
X113825840Y-107473570D01*
X110154495Y-122635053D02*
X110412305Y-122635053D01*
X110154495Y-121095053D02*
X110423947Y-121095053D01*
X114589089Y-106636475D02*
X114589089Y-106498475D01*
X113825840Y-108421380D02*
X114184184Y-108421380D01*
X111484135Y-129765335D02*
X110412305Y-128693505D01*
X114589071Y-105256475D02*
X114589071Y-105118475D01*
X113678745Y-111413125D02*
X113678745Y-109948475D01*
X113678745Y-104428475D02*
X113678745Y-104419400D01*
X110607053Y-118720447D02*
X113229800Y-116097700D01*
X110154495Y-121607243D02*
X110013947Y-121607243D01*
X114184166Y-108853570D02*
X113825840Y-108853570D01*
X114589071Y-109396475D02*
X114589071Y-109258475D01*
X113678745Y-104419400D02*
X113678745Y-103235085D01*
X110412305Y-119926696D02*
X110412305Y-119695600D01*
X113678745Y-105946475D02*
X113678745Y-105808475D01*
X109873401Y-123006696D02*
X109873401Y-122775600D01*
X110951210Y-122236696D02*
X110951210Y-122005600D01*
X113678745Y-104566475D02*
X113678745Y-104428475D01*
X113062868Y-102619208D02*
X112427794Y-102619208D01*
X110412305Y-119695600D02*
X110412305Y-118915195D01*
X114093400Y-129576000D02*
X113904065Y-129765335D01*
X113825840Y-105661380D02*
X114184166Y-105661380D01*
X114184184Y-106093570D02*
X113825840Y-106093570D01*
X112427794Y-102619208D02*
X112239200Y-102430614D01*
X110951209Y-120696696D02*
X110951209Y-120465600D01*
X113229800Y-111862070D02*
X113678745Y-111413125D01*
X114589089Y-108016475D02*
X114589089Y-107878475D01*
X113678745Y-108706475D02*
X113678745Y-108568475D01*
X113825840Y-107041380D02*
X114184184Y-107041380D01*
X114184166Y-104713570D02*
X113825840Y-104713570D01*
X113678745Y-107326475D02*
X113678745Y-107188475D01*
X110412305Y-128693505D02*
X110412305Y-123545600D01*
X110552853Y-121607243D02*
X110412305Y-121607243D01*
X113825840Y-109801380D02*
X114184166Y-109801380D01*
X109873400Y-121466696D02*
X109873400Y-121235600D01*
X113229800Y-116097700D02*
X113229800Y-111862070D01*
X113678745Y-108568475D02*
G75*
G02*
X113825840Y-108421445I147055J-25D01*
G01*
X113825840Y-107473570D02*
G75*
G02*
X113678730Y-107326475I-40J147070D01*
G01*
X113825840Y-108853570D02*
G75*
G02*
X113678730Y-108706475I-40J147070D01*
G01*
X114589071Y-109258475D02*
G75*
G03*
X114184166Y-108853629I-404871J-25D01*
G01*
X110552853Y-122635053D02*
G75*
G03*
X110951253Y-122236696I47J398353D01*
G01*
X114184184Y-107041380D02*
G75*
G03*
X114589080Y-106636475I16J404880D01*
G01*
X114589089Y-107878475D02*
G75*
G03*
X114184184Y-107473611I-404889J-25D01*
G01*
X113678745Y-105808475D02*
G75*
G02*
X113825840Y-105661445I147055J-25D01*
G01*
X114184166Y-109801380D02*
G75*
G03*
X114589080Y-109396475I34J404880D01*
G01*
X114184184Y-108421380D02*
G75*
G03*
X114589080Y-108016475I16J404880D01*
G01*
X113678745Y-107188475D02*
G75*
G02*
X113825840Y-107041445I147055J-25D01*
G01*
X114589089Y-106498475D02*
G75*
G03*
X114184184Y-106093611I-404889J-25D01*
G01*
X110552852Y-121095053D02*
G75*
G03*
X110951253Y-120696696I48J398353D01*
G01*
X110951209Y-120465600D02*
G75*
G03*
X110552852Y-120067291I-398309J0D01*
G01*
X109873400Y-121235600D02*
G75*
G02*
X110013947Y-121095100I140500J0D01*
G01*
X114184166Y-105661380D02*
G75*
G03*
X114589080Y-105256475I34J404880D01*
G01*
X109873401Y-122775600D02*
G75*
G02*
X110013948Y-122635101I140499J0D01*
G01*
X113825840Y-106093570D02*
G75*
G02*
X113678730Y-105946475I-40J147070D01*
G01*
X110013948Y-123147243D02*
G75*
G02*
X109873357Y-123006696I-48J140543D01*
G01*
X110552852Y-120067243D02*
G75*
G02*
X110412357Y-119926696I48J140543D01*
G01*
X110951210Y-122005600D02*
G75*
G03*
X110552853Y-121607290I-398310J0D01*
G01*
X113678745Y-109948475D02*
G75*
G02*
X113825840Y-109801445I147055J-25D01*
G01*
X110013947Y-121607243D02*
G75*
G02*
X109873357Y-121466696I-47J140543D01*
G01*
X110412305Y-123545600D02*
G75*
G03*
X110013948Y-123147195I-398405J0D01*
G01*
X113825840Y-104713570D02*
G75*
G02*
X113678730Y-104566475I-40J147070D01*
G01*
X114589071Y-105118475D02*
G75*
G03*
X114184166Y-104713629I-404871J-25D01*
G01*
%TO.N,CSI0_D1_P*%
X152253108Y-138363722D02*
X152253108Y-137624317D01*
X140989701Y-131661622D02*
X140695612Y-131955711D01*
X143068062Y-133656191D02*
X142912962Y-133811292D01*
X124063376Y-129510945D02*
X124145376Y-129510945D01*
X152006040Y-138610790D02*
X152253108Y-138363722D01*
X129762605Y-128643395D02*
X134265265Y-128643395D01*
X128895055Y-129510945D02*
X129762605Y-128643395D01*
X140929736Y-130929764D02*
X141031560Y-131031588D01*
X140868778Y-132439008D02*
X141023842Y-132283943D01*
X141204727Y-132103057D02*
X141359805Y-131947980D01*
X140695612Y-131955711D02*
X140540547Y-132110776D01*
X142222960Y-133121290D02*
X142378061Y-132966190D01*
X141031560Y-131619766D02*
X140989701Y-131661622D01*
X141804287Y-132883502D02*
X141713845Y-132973944D01*
X139116760Y-130015090D02*
X140073291Y-130971621D01*
X142618873Y-134105382D02*
X142577000Y-134147255D01*
X123899376Y-129321596D02*
X123899376Y-129346945D01*
X141558744Y-133355453D02*
X141660567Y-133457276D01*
X143637107Y-134535437D02*
X144501535Y-135399865D01*
X124955082Y-129510945D02*
X128895055Y-129510945D01*
X141947985Y-131947981D02*
X142049808Y-132049804D01*
X150925305Y-136186505D02*
X150925305Y-138328135D01*
X142049808Y-132637982D02*
X141894729Y-132793058D01*
X123653376Y-129157596D02*
X123735376Y-129157596D01*
X144501535Y-135399865D02*
X144704665Y-135602995D01*
X141894729Y-132793058D02*
X141804286Y-132883501D01*
X141023842Y-132283943D02*
X141204727Y-132103057D01*
X142912962Y-133811292D02*
X142618873Y-134105382D01*
X143535282Y-134433613D02*
X143637107Y-134535437D01*
X144704665Y-135602995D02*
X150341795Y-135602995D01*
X152253108Y-137624317D02*
X152064514Y-137435723D01*
X121804840Y-129326000D02*
X121989785Y-129510945D01*
X141713845Y-132973944D02*
X141558744Y-133129045D01*
X142042075Y-133302175D02*
X142132518Y-133211733D01*
X140073291Y-130971621D02*
X140073290Y-130971620D01*
X141886975Y-133457276D02*
X142042075Y-133302175D01*
X142132518Y-133211733D02*
X142222960Y-133121290D01*
X135636960Y-130015090D02*
X139116760Y-130015090D01*
X150341795Y-135602995D02*
X150925305Y-136186505D01*
X142966239Y-132966190D02*
X143068062Y-133068013D01*
X140540547Y-132337185D02*
X140642370Y-132439008D01*
X124145376Y-129510945D02*
X124955082Y-129510945D01*
X142577000Y-134373664D02*
X142678823Y-134475487D01*
X121989785Y-129510945D02*
X123325376Y-129510945D01*
X140299700Y-130971621D02*
X140341558Y-130929764D01*
X142905231Y-134475487D02*
X142947104Y-134433613D01*
X123489376Y-129346945D02*
X123489376Y-129321596D01*
X151207960Y-138610790D02*
X152006040Y-138610790D01*
X134265265Y-128643395D02*
X135636960Y-130015090D01*
X150925305Y-138328135D02*
X151207960Y-138610790D01*
X141804286Y-132883501D02*
X141804287Y-132883502D01*
X141660567Y-133457276D02*
G75*
G03*
X141886975Y-133457276I113204J113203D01*
G01*
X140642370Y-132439008D02*
G75*
G03*
X140868778Y-132439008I113204J113203D01*
G01*
X123489376Y-129321596D02*
G75*
G02*
X123653376Y-129157576I164024J-4D01*
G01*
X141359805Y-131947980D02*
G75*
G02*
X141947990Y-131947975I294095J-294120D01*
G01*
X142577000Y-134147255D02*
G75*
G03*
X142576959Y-134373704I113200J-113245D01*
G01*
X143068062Y-133068013D02*
G75*
G02*
X143068060Y-133656189I-294062J-294087D01*
G01*
X123735376Y-129157596D02*
G75*
G02*
X123899404Y-129321596I24J-164004D01*
G01*
X140073290Y-130971620D02*
G75*
G03*
X140299704Y-130971626I113210J113220D01*
G01*
X123899376Y-129346945D02*
G75*
G03*
X124063376Y-129510924I164024J45D01*
G01*
X142049808Y-132049804D02*
G75*
G02*
X142049815Y-132637989I-294108J-294096D01*
G01*
X140540547Y-132110776D02*
G75*
G03*
X140540527Y-132337204I113253J-113224D01*
G01*
X123325376Y-129510945D02*
G75*
G03*
X123489445Y-129346945I24J164045D01*
G01*
X142947104Y-134433613D02*
G75*
G02*
X143535282Y-134433613I294089J-294088D01*
G01*
X141031560Y-131031588D02*
G75*
G02*
X141031583Y-131619789I-294060J-294112D01*
G01*
X140341558Y-130929764D02*
G75*
G02*
X140929736Y-130929764I294089J-294084D01*
G01*
X142678823Y-134475487D02*
G75*
G03*
X142905231Y-134475487I113204J113203D01*
G01*
X142378061Y-132966190D02*
G75*
G02*
X142966239Y-132966190I294089J-294084D01*
G01*
X141558744Y-133129045D02*
G75*
G03*
X141558793Y-133355404I113156J-113155D01*
G01*
%TO.N,CSI3_D0_N*%
X115866390Y-111254430D02*
X116646045Y-110474775D01*
X115866390Y-116022840D02*
X115866390Y-111254430D01*
X149612215Y-68929900D02*
X145737300Y-68929900D01*
X114395000Y-127122024D02*
X114395000Y-117494230D01*
X117272846Y-128522406D02*
X115795382Y-128522406D01*
X154619735Y-70949835D02*
X153946000Y-70276100D01*
X150275645Y-110474775D02*
X154619735Y-106130685D01*
X144253080Y-66427514D02*
X144064486Y-66238920D01*
X114395000Y-117494230D02*
X115866390Y-116022840D01*
X153946000Y-70276100D02*
X150958415Y-70276100D01*
X115795382Y-128522406D02*
X114395000Y-127122024D01*
X116646045Y-110474775D02*
X150275645Y-110474775D01*
X117461440Y-128711000D02*
X117272846Y-128522406D01*
X150958415Y-70276100D02*
X149612215Y-68929900D01*
X145737300Y-68929900D02*
X144253080Y-67445680D01*
X144253080Y-67445680D02*
X144253080Y-66427514D01*
X154619735Y-106130685D02*
X154619735Y-70949835D01*
%TO.N,CSI2_D0_N*%
X189000595Y-104364805D02*
X179729595Y-104364805D01*
X155421795Y-128672605D02*
X136193305Y-128672605D01*
X121993435Y-128272405D02*
X121804840Y-128461000D01*
X187408594Y-94619180D02*
X189113980Y-94619180D01*
X189113980Y-94619180D02*
X190193705Y-95698905D01*
X134720010Y-127199310D02*
X129435440Y-127199310D01*
X129435440Y-127199310D02*
X128362345Y-128272405D01*
X128362345Y-128272405D02*
X121993435Y-128272405D01*
X179729595Y-104364805D02*
X155421795Y-128672605D01*
X190193705Y-103171695D02*
X189000595Y-104364805D01*
X136193305Y-128672605D02*
X134720010Y-127199310D01*
X190193705Y-95698905D02*
X190193705Y-103171695D01*
X187220000Y-94430586D02*
X187408594Y-94619180D01*
%TO.N,CSI3_D0_P*%
X151064789Y-70019290D02*
X149718589Y-68673090D01*
X114651810Y-117600604D02*
X116123200Y-116129214D01*
X115900755Y-128264595D02*
X115658580Y-128022420D01*
X144510892Y-66427514D02*
X144699486Y-66238920D01*
X154876545Y-70844875D02*
X154876545Y-70843461D01*
X114651810Y-127015650D02*
X114651810Y-117600604D01*
X116751419Y-110732585D02*
X150382435Y-110732585D01*
X115658580Y-128022420D02*
X114651810Y-127015650D01*
X145845090Y-68673090D02*
X144510892Y-67338892D01*
X154877545Y-70845875D02*
X154876545Y-70844875D01*
X116123200Y-111360804D02*
X116751419Y-110732585D01*
X117461440Y-128076000D02*
X117272846Y-128264594D01*
X154877545Y-106237475D02*
X154877545Y-70845875D01*
X116318462Y-128073866D02*
X116318462Y-128108593D01*
X117272846Y-128264594D02*
X116864464Y-128264594D01*
X149718589Y-68673090D02*
X145845090Y-68673090D01*
X116552462Y-127917866D02*
X116474462Y-127917866D01*
X154876545Y-70843461D02*
X154052374Y-70019290D01*
X154052374Y-70019290D02*
X151064789Y-70019290D01*
X150382435Y-110732585D02*
X154877545Y-106237475D01*
X116708463Y-128108594D02*
X116708462Y-128073866D01*
X144510892Y-67338892D02*
X144510892Y-66427514D01*
X116123200Y-116129214D02*
X116123200Y-111360804D01*
X116162462Y-128264594D02*
X116084464Y-128264594D01*
X116084464Y-128264594D02*
X115900755Y-128264595D01*
X116318462Y-128108593D02*
G75*
G02*
X116162462Y-128264562I-155962J-7D01*
G01*
X116708462Y-128073866D02*
G75*
G03*
X116552462Y-127917938I-155962J-34D01*
G01*
X116864464Y-128264594D02*
G75*
G02*
X116708506Y-128108594I36J155994D01*
G01*
X116474462Y-127917866D02*
G75*
G03*
X116318466Y-128073866I38J-156034D01*
G01*
%TO.N,CSI2_D0_P*%
X123640824Y-127652914D02*
X123726824Y-127652914D01*
X189007192Y-94876992D02*
X187408594Y-94876992D01*
X189935895Y-103064905D02*
X189935895Y-95805695D01*
X123468824Y-127842595D02*
X123468824Y-127824914D01*
X121804840Y-127826000D02*
X121993435Y-128014595D01*
X123898824Y-127824914D02*
X123898824Y-127842595D01*
X179622805Y-104106995D02*
X188893805Y-104106995D01*
X124930824Y-128014595D02*
X125016824Y-128014595D01*
X129329480Y-126943500D02*
X134825970Y-126943500D01*
X188893805Y-104106995D02*
X189935895Y-103064905D01*
X189935895Y-95805695D02*
X189007192Y-94876992D01*
X134825970Y-126943500D02*
X136297265Y-128414795D01*
X155315005Y-128414795D02*
X179622805Y-104106995D01*
X125016824Y-128014595D02*
X128258385Y-128014595D01*
X128258385Y-128014595D02*
X129329480Y-126943500D01*
X136297265Y-128414795D02*
X155315005Y-128414795D01*
X124500824Y-127652945D02*
X124586824Y-127652945D01*
X124328824Y-127842595D02*
X124328824Y-127824945D01*
X124758824Y-127824945D02*
X124758824Y-127842595D01*
X124070824Y-128014595D02*
X124156824Y-128014595D01*
X187408594Y-94876992D02*
X187220000Y-95065586D01*
X121993435Y-128014595D02*
X123296824Y-128014595D01*
X124156824Y-128014595D02*
G75*
G03*
X124328795Y-127842595I-24J171995D01*
G01*
X123296824Y-128014595D02*
G75*
G03*
X123468795Y-127842595I-24J171995D01*
G01*
X123898824Y-127842595D02*
G75*
G03*
X124070824Y-128014576I171976J-5D01*
G01*
X124328824Y-127824945D02*
G75*
G02*
X124500824Y-127652924I171976J45D01*
G01*
X123726824Y-127652914D02*
G75*
G02*
X123898786Y-127824914I-24J-171986D01*
G01*
X124586824Y-127652945D02*
G75*
G02*
X124758755Y-127824945I-24J-171955D01*
G01*
X124758824Y-127842595D02*
G75*
G03*
X124930824Y-128014576I171976J-5D01*
G01*
X123468824Y-127824914D02*
G75*
G02*
X123640824Y-127652924I171976J14D01*
G01*
%TO.N,CSI3_CLK_N*%
X118855784Y-127021510D02*
X119402794Y-126474500D01*
X152400865Y-66946795D02*
X151966705Y-66512635D01*
X131364098Y-119655364D02*
X131364098Y-118402118D01*
X155977510Y-66946795D02*
X152400865Y-66946795D01*
X131768288Y-118402118D02*
X131768288Y-119655364D01*
X158748505Y-69719205D02*
X156028800Y-66999500D01*
X119402794Y-121318300D02*
X121564440Y-119156654D01*
X117461440Y-127215280D02*
X117655210Y-127021510D01*
X138834765Y-114345005D02*
X152093565Y-114345005D01*
X132160193Y-120047269D02*
X132292193Y-120047269D01*
X151966705Y-64964905D02*
X151662595Y-64660795D01*
X132820193Y-118266039D02*
X132952193Y-118266039D01*
X130840193Y-120047269D02*
X130972193Y-120047269D01*
X132684098Y-119655364D02*
X132684098Y-118402134D01*
X150519509Y-64660795D02*
X150234044Y-64946260D01*
X151966705Y-66512635D02*
X151966705Y-64964905D01*
X158748505Y-107690065D02*
X158748505Y-69719205D01*
X150234044Y-66063256D02*
X150059800Y-66237500D01*
X121564440Y-119156654D02*
X130312193Y-119156654D01*
X131500193Y-118266023D02*
X131632193Y-118266023D01*
X134023116Y-119156654D02*
X138834765Y-114345005D01*
X133480193Y-119156654D02*
X134023116Y-119156654D01*
X117655210Y-127021510D02*
X118855784Y-127021510D01*
X130448288Y-119292749D02*
X130448288Y-119655364D01*
X151662595Y-64660795D02*
X150519509Y-64660795D01*
X119402794Y-126474500D02*
X119402794Y-121318300D01*
X156030215Y-66999500D02*
X155977510Y-66946795D01*
X150234044Y-64946260D02*
X150234044Y-66063256D01*
X156028800Y-66999500D02*
X156030215Y-66999500D01*
X133088288Y-118402134D02*
X133088288Y-118764749D01*
X152093565Y-114345005D02*
X158748505Y-107690065D01*
X132952193Y-118266039D02*
G75*
G02*
X133088261Y-118402134I7J-136061D01*
G01*
X132292193Y-120047269D02*
G75*
G03*
X132684069Y-119655364I7J391869D01*
G01*
X131768288Y-119655364D02*
G75*
G03*
X132160193Y-120047312I391912J-36D01*
G01*
X131632193Y-118266023D02*
G75*
G02*
X131768277Y-118402118I7J-136077D01*
G01*
X133088288Y-118764749D02*
G75*
G03*
X133480193Y-119156712I391912J-51D01*
G01*
X131364098Y-118402118D02*
G75*
G02*
X131500193Y-118265998I136102J18D01*
G01*
X132684098Y-118402134D02*
G75*
G02*
X132820193Y-118265998I136102J34D01*
G01*
X130972193Y-120047269D02*
G75*
G03*
X131364069Y-119655364I7J391869D01*
G01*
X130448288Y-119655364D02*
G75*
G03*
X130840193Y-120047312I391912J-36D01*
G01*
X130312193Y-119156654D02*
G75*
G02*
X130448246Y-119292749I7J-136046D01*
G01*
%TO.N,CSI2_CLK_N*%
X144566202Y-126943500D02*
X144566202Y-126687690D01*
X150114297Y-126943500D02*
X151809200Y-126943500D01*
X148526202Y-127132875D02*
X148526202Y-126943500D01*
X142062297Y-126362207D02*
X142194297Y-126362207D01*
X184979379Y-100619179D02*
X183903394Y-100619179D01*
X147610392Y-126687690D02*
X147610392Y-126943500D01*
X141402297Y-127524793D02*
X141534297Y-127524793D01*
X144970392Y-126687690D02*
X144970392Y-126943500D01*
X146022297Y-126362220D02*
X146154297Y-126362220D01*
X185443905Y-101083705D02*
X184979379Y-100619179D01*
X144566202Y-126687690D02*
X144566202Y-126498315D01*
X149322297Y-127524767D02*
X149454297Y-127524767D01*
X184987395Y-102409005D02*
X185443905Y-101952495D01*
X183903394Y-100619179D02*
X183714800Y-100430585D01*
X148526202Y-126687690D02*
X148526202Y-126498315D01*
X144566202Y-127132875D02*
X144566202Y-126943500D01*
X147206202Y-126943500D02*
X147206202Y-126687690D01*
X148526202Y-126943500D02*
X148526202Y-126687690D01*
X148930392Y-126687690D02*
X148930392Y-127079595D01*
X185443905Y-101952495D02*
X185443905Y-101083705D01*
X143650392Y-126687690D02*
X143650392Y-126943500D01*
X143650392Y-126498315D02*
X143650392Y-126687690D01*
X146290392Y-126943500D02*
X146290392Y-127132875D01*
X145362297Y-127524780D02*
X145494297Y-127524780D01*
X149846202Y-127132862D02*
X149846202Y-127079595D01*
X147206202Y-126687690D02*
X147206202Y-126498315D01*
X146290392Y-126687690D02*
X146290392Y-126943500D01*
X153925100Y-126943500D02*
X178459595Y-102409005D01*
X146290392Y-126498315D02*
X146290392Y-126687690D01*
X147206202Y-127132875D02*
X147206202Y-126943500D01*
X136898100Y-126943500D02*
X140874297Y-126943500D01*
X147610392Y-126943500D02*
X147610392Y-127132875D01*
X143246202Y-127132888D02*
X143246202Y-126943500D01*
X144970392Y-126943500D02*
X144970392Y-127132875D01*
X126558094Y-126772406D02*
X129102895Y-124227605D01*
X148662297Y-126362220D02*
X148794297Y-126362220D01*
X121993435Y-126772406D02*
X126558094Y-126772406D01*
X141926202Y-127132888D02*
X141926202Y-127079595D01*
X144702297Y-126362220D02*
X144834297Y-126362220D01*
X148930392Y-126498315D02*
X148930392Y-126687690D01*
X145886202Y-126687690D02*
X145886202Y-126498315D01*
X148930392Y-127079595D02*
X148930392Y-127132862D01*
X134182205Y-124227605D02*
X136898100Y-126943500D01*
X142722297Y-127524793D02*
X142854297Y-127524793D01*
X145886202Y-126943500D02*
X145886202Y-126687690D01*
X143650392Y-126943500D02*
X143650392Y-127132875D01*
X146682297Y-127524780D02*
X146814297Y-127524780D01*
X145886202Y-127132875D02*
X145886202Y-126943500D01*
X142330392Y-126498302D02*
X142330392Y-126687690D01*
X142330392Y-126687690D02*
X142330392Y-126943500D01*
X143382297Y-126362220D02*
X143514297Y-126362220D01*
X141010392Y-127079595D02*
X141010392Y-127132888D01*
X178459595Y-102409005D02*
X184987395Y-102409005D01*
X129102895Y-124227605D02*
X134182205Y-124227605D01*
X143246202Y-126943500D02*
X143246202Y-126687690D01*
X144042297Y-127524780D02*
X144174297Y-127524780D01*
X121804840Y-126961001D02*
X121993435Y-126772406D01*
X143246202Y-126687690D02*
X143246202Y-126498315D01*
X148002297Y-127524780D02*
X148134297Y-127524780D01*
X141926202Y-127079595D02*
X141926202Y-126687690D01*
X141926202Y-126687690D02*
X141926202Y-126498302D01*
X151809200Y-126943500D02*
X153925100Y-126943500D01*
X147610392Y-126498315D02*
X147610392Y-126687690D01*
X144970392Y-126498315D02*
X144970392Y-126687690D01*
X147342297Y-126362220D02*
X147474297Y-126362220D01*
X142330392Y-126943500D02*
X142330392Y-127132888D01*
X149982297Y-126943500D02*
X150114297Y-126943500D01*
X141534297Y-127524793D02*
G75*
G03*
X141926193Y-127132888I3J391893D01*
G01*
X147610392Y-127132875D02*
G75*
G03*
X148002297Y-127524808I391908J-25D01*
G01*
X141010392Y-127132888D02*
G75*
G03*
X141402297Y-127524808I391908J-12D01*
G01*
X148134297Y-127524780D02*
G75*
G03*
X148526180Y-127132875I3J391880D01*
G01*
X147206202Y-126498315D02*
G75*
G02*
X147342297Y-126362202I136098J15D01*
G01*
X143246202Y-126498315D02*
G75*
G02*
X143382297Y-126362202I136098J15D01*
G01*
X149454297Y-127524767D02*
G75*
G03*
X149846167Y-127132862I3J391867D01*
G01*
X142854297Y-127524793D02*
G75*
G03*
X143246193Y-127132888I3J391893D01*
G01*
X148526202Y-126498315D02*
G75*
G02*
X148662297Y-126362202I136098J15D01*
G01*
X145494297Y-127524780D02*
G75*
G03*
X145886180Y-127132875I3J391880D01*
G01*
X140874297Y-126943500D02*
G75*
G02*
X141010400Y-127079595I3J-136100D01*
G01*
X144970392Y-127132875D02*
G75*
G03*
X145362297Y-127524808I391908J-25D01*
G01*
X143650392Y-127132875D02*
G75*
G03*
X144042297Y-127524808I391908J-25D01*
G01*
X146290392Y-127132875D02*
G75*
G03*
X146682297Y-127524808I391908J-25D01*
G01*
X149846202Y-127079595D02*
G75*
G02*
X149982297Y-126943502I136098J-5D01*
G01*
X143514297Y-126362220D02*
G75*
G02*
X143650380Y-126498315I3J-136080D01*
G01*
X144174297Y-127524780D02*
G75*
G03*
X144566180Y-127132875I3J391880D01*
G01*
X142194297Y-126362207D02*
G75*
G02*
X142330393Y-126498302I3J-136093D01*
G01*
X148930392Y-127132862D02*
G75*
G03*
X149322297Y-127524808I391908J-38D01*
G01*
X145886202Y-126498315D02*
G75*
G02*
X146022297Y-126362202I136098J15D01*
G01*
X148794297Y-126362220D02*
G75*
G02*
X148930380Y-126498315I3J-136080D01*
G01*
X144566202Y-126498315D02*
G75*
G02*
X144702297Y-126362202I136098J15D01*
G01*
X146814297Y-127524780D02*
G75*
G03*
X147206180Y-127132875I3J391880D01*
G01*
X141926202Y-126498302D02*
G75*
G02*
X142062297Y-126362202I136098J2D01*
G01*
X142330392Y-127132888D02*
G75*
G03*
X142722297Y-127524808I391908J-12D01*
G01*
X147474297Y-126362220D02*
G75*
G02*
X147610380Y-126498315I3J-136080D01*
G01*
X144834297Y-126362220D02*
G75*
G02*
X144970380Y-126498315I3J-136080D01*
G01*
X146154297Y-126362220D02*
G75*
G02*
X146290380Y-126498315I3J-136080D01*
G01*
%TO.N,CSI3_CLK_P*%
X131108288Y-119655364D02*
X131108288Y-118402118D01*
X119146984Y-124124948D02*
X119146984Y-121212340D01*
X118840769Y-124300948D02*
X118970984Y-124300948D01*
X155921425Y-67255310D02*
X155870720Y-67204605D01*
X150666891Y-64918605D02*
X150520556Y-65064940D01*
X133344098Y-118402134D02*
X133344098Y-118764749D01*
X151987605Y-114089195D02*
X158490695Y-107586105D01*
X117461440Y-126576000D02*
X117651140Y-126765700D01*
X151708895Y-66616595D02*
X151708895Y-65071695D01*
X132820193Y-118010229D02*
X132952193Y-118010229D01*
X151555805Y-64918605D02*
X150666891Y-64918605D01*
X138728805Y-114089195D02*
X151987605Y-114089195D01*
X117651140Y-126765700D02*
X118749824Y-126765700D01*
X130840193Y-119791459D02*
X130972193Y-119791459D01*
X118749824Y-126765700D02*
X119146984Y-126368540D01*
X151708895Y-65071695D02*
X151555805Y-64918605D01*
X152296905Y-67204605D02*
X151708895Y-66616595D01*
X155922840Y-67255310D02*
X155921425Y-67255310D01*
X132428288Y-119655364D02*
X132428288Y-118402134D01*
X118664769Y-125444948D02*
X118664769Y-125356948D01*
X131500193Y-118010213D02*
X131632193Y-118010213D01*
X133480193Y-118900844D02*
X133917156Y-118900844D01*
X158490695Y-69823165D02*
X155922840Y-67255310D01*
X132024098Y-118402118D02*
X132024098Y-119655364D01*
X118840769Y-125180948D02*
X118970984Y-125180948D01*
X150520556Y-66063256D02*
X150694800Y-66237500D01*
X119146984Y-126368540D02*
X119146984Y-125796948D01*
X133917156Y-118900844D02*
X138728805Y-114089195D01*
X130704098Y-119292749D02*
X130704098Y-119655364D01*
X119146984Y-121212340D02*
X121458480Y-118900844D01*
X119146984Y-125004948D02*
X119146984Y-124916948D01*
X121458480Y-118900844D02*
X130312193Y-118900844D01*
X118970984Y-124740948D02*
X118840769Y-124740948D01*
X118970984Y-125620948D02*
X118840769Y-125620948D01*
X118664769Y-124564948D02*
X118664769Y-124476948D01*
X132160193Y-119791459D02*
X132292193Y-119791459D01*
X150520556Y-65064940D02*
X150520556Y-66063256D01*
X155870720Y-67204605D02*
X152296905Y-67204605D01*
X158490695Y-107586105D02*
X158490695Y-69823165D01*
X132952193Y-118010229D02*
G75*
G02*
X133344071Y-118402134I7J-391871D01*
G01*
X118664769Y-125356948D02*
G75*
G02*
X118840769Y-125180869I176031J48D01*
G01*
X118970984Y-125180948D02*
G75*
G03*
X119147048Y-125004948I16J176048D01*
G01*
X119146984Y-125796948D02*
G75*
G03*
X118970984Y-125620916I-175984J48D01*
G01*
X132024098Y-119655364D02*
G75*
G03*
X132160193Y-119791502I136102J-36D01*
G01*
X132292193Y-119791459D02*
G75*
G03*
X132428259Y-119655364I7J136059D01*
G01*
X130312193Y-118900844D02*
G75*
G02*
X130704056Y-119292749I7J-391856D01*
G01*
X118840769Y-125620948D02*
G75*
G02*
X118664752Y-125444948I31J176048D01*
G01*
X119146984Y-124916948D02*
G75*
G03*
X118970984Y-124740916I-175984J48D01*
G01*
X118840769Y-124740948D02*
G75*
G02*
X118664752Y-124564948I31J176048D01*
G01*
X130704098Y-119655364D02*
G75*
G03*
X130840193Y-119791502I136102J-36D01*
G01*
X133344098Y-118764749D02*
G75*
G03*
X133480193Y-118900902I136102J-51D01*
G01*
X131108288Y-118402118D02*
G75*
G02*
X131500193Y-118010188I391912J18D01*
G01*
X118970984Y-124300948D02*
G75*
G03*
X119147048Y-124124948I16J176048D01*
G01*
X132428288Y-118402134D02*
G75*
G02*
X132820193Y-118010188I391912J34D01*
G01*
X130972193Y-119791459D02*
G75*
G03*
X131108259Y-119655364I7J136059D01*
G01*
X131632193Y-118010213D02*
G75*
G02*
X132024087Y-118402118I7J-391887D01*
G01*
X118664769Y-124476948D02*
G75*
G02*
X118840769Y-124300869I176031J48D01*
G01*
%TO.N,CSI2_CLK_P*%
X148270392Y-127132875D02*
X148270392Y-126943500D01*
X149186202Y-126498315D02*
X149186202Y-126687690D01*
X141670392Y-127132888D02*
X141670392Y-127079595D01*
X185188095Y-101843705D02*
X185188095Y-101192495D01*
X141266202Y-127079595D02*
X141266202Y-127132888D01*
X184872591Y-100876991D02*
X183903394Y-100876991D01*
X178352805Y-102151195D02*
X184880605Y-102151195D01*
X123623239Y-126161003D02*
X123705239Y-126161003D01*
X145630392Y-127132875D02*
X145630392Y-126943500D01*
X128998935Y-123969795D02*
X134288995Y-123969795D01*
X123459239Y-126350596D02*
X123459239Y-126325003D01*
X147342297Y-126106410D02*
X147474297Y-126106410D01*
X146950392Y-127132875D02*
X146950392Y-126943500D01*
X142990392Y-126943500D02*
X142990392Y-126687690D01*
X146950392Y-126943500D02*
X146950392Y-126687690D01*
X145226202Y-126498315D02*
X145226202Y-126687690D01*
X144310392Y-127132875D02*
X144310392Y-126943500D01*
X142990392Y-126687690D02*
X142990392Y-126498315D01*
X146022297Y-126106410D02*
X146154297Y-126106410D01*
X145226202Y-126943500D02*
X145226202Y-127132875D01*
X124279239Y-126350596D02*
X124279239Y-126325003D01*
X134288995Y-123969795D02*
X137006890Y-126687690D01*
X142722297Y-127268983D02*
X142854297Y-127268983D01*
X149186202Y-126687690D02*
X149186202Y-127079595D01*
X144310392Y-126943500D02*
X144310392Y-126687690D01*
X147866202Y-126687690D02*
X147866202Y-126943500D01*
X146546202Y-126687690D02*
X146546202Y-126943500D01*
X146950392Y-126687690D02*
X146950392Y-126498315D01*
X126454134Y-126514596D02*
X128998935Y-123969795D01*
X149186202Y-127079595D02*
X149186202Y-127132862D01*
X144310392Y-126687690D02*
X144310392Y-126498315D01*
X146546202Y-126498315D02*
X146546202Y-126687690D01*
X143906202Y-126498315D02*
X143906202Y-126687690D01*
X184880605Y-102151195D02*
X185188095Y-101843705D01*
X153816310Y-126687690D02*
X178352805Y-102151195D01*
X147866202Y-126943500D02*
X147866202Y-127132875D01*
X143906202Y-126943500D02*
X143906202Y-127132875D01*
X146682297Y-127268970D02*
X146814297Y-127268970D01*
X149322297Y-127268957D02*
X149454297Y-127268957D01*
X124033239Y-126514596D02*
X124115239Y-126514596D01*
X142062297Y-126106397D02*
X142194297Y-126106397D01*
X143906202Y-126687690D02*
X143906202Y-126943500D01*
X149982297Y-126687690D02*
X150114297Y-126687690D01*
X145362297Y-127268970D02*
X145494297Y-127268970D01*
X145630392Y-126943500D02*
X145630392Y-126687690D01*
X137006890Y-126687690D02*
X140874297Y-126687690D01*
X148270392Y-126943500D02*
X148270392Y-126687690D01*
X142586202Y-126687690D02*
X142586202Y-126943500D01*
X148002297Y-127268970D02*
X148134297Y-127268970D01*
X148662297Y-126106410D02*
X148794297Y-126106410D01*
X142586202Y-126498302D02*
X142586202Y-126687690D01*
X185188095Y-101192495D02*
X184872591Y-100876991D01*
X148270392Y-126687690D02*
X148270392Y-126498315D01*
X143382297Y-126106410D02*
X143514297Y-126106410D01*
X142990392Y-127132888D02*
X142990392Y-126943500D01*
X141670392Y-127079595D02*
X141670392Y-126687690D01*
X124689239Y-126325003D02*
X124689239Y-126350596D01*
X150114297Y-126687690D02*
X151809200Y-126687690D01*
X142586202Y-126943500D02*
X142586202Y-127132888D01*
X124443239Y-126161003D02*
X124525239Y-126161003D01*
X144702297Y-126106410D02*
X144834297Y-126106410D01*
X145630392Y-126687690D02*
X145630392Y-126498315D01*
X123869239Y-126325003D02*
X123869239Y-126350596D01*
X141402297Y-127268983D02*
X141534297Y-127268983D01*
X121993435Y-126514596D02*
X123295239Y-126514596D01*
X144042297Y-127268970D02*
X144174297Y-127268970D01*
X124853239Y-126514596D02*
X124935239Y-126514596D01*
X149590392Y-127132862D02*
X149590392Y-127079595D01*
X121804840Y-126326001D02*
X121993435Y-126514596D01*
X124935239Y-126514596D02*
X126454134Y-126514596D01*
X145226202Y-126687690D02*
X145226202Y-126943500D01*
X146546202Y-126943500D02*
X146546202Y-127132875D01*
X141670392Y-126687690D02*
X141670392Y-126498302D01*
X151809200Y-126687690D02*
X153816310Y-126687690D01*
X147866202Y-126498315D02*
X147866202Y-126687690D01*
X183903394Y-100876991D02*
X183714800Y-101065585D01*
X142194297Y-126106397D02*
G75*
G02*
X142586203Y-126498302I3J-391903D01*
G01*
X145630392Y-126498315D02*
G75*
G02*
X146022297Y-126106392I391908J15D01*
G01*
X143514297Y-126106410D02*
G75*
G02*
X143906190Y-126498315I3J-391890D01*
G01*
X142586202Y-127132888D02*
G75*
G03*
X142722297Y-127268998I136098J-12D01*
G01*
X146154297Y-126106410D02*
G75*
G02*
X146546190Y-126498315I3J-391890D01*
G01*
X146546202Y-127132875D02*
G75*
G03*
X146682297Y-127268998I136098J-25D01*
G01*
X147474297Y-126106410D02*
G75*
G02*
X147866190Y-126498315I3J-391890D01*
G01*
X147866202Y-127132875D02*
G75*
G03*
X148002297Y-127268998I136098J-25D01*
G01*
X141266202Y-127132888D02*
G75*
G03*
X141402297Y-127268998I136098J-12D01*
G01*
X143906202Y-127132875D02*
G75*
G03*
X144042297Y-127268998I136098J-25D01*
G01*
X144834297Y-126106410D02*
G75*
G02*
X145226190Y-126498315I3J-391890D01*
G01*
X149590392Y-127079595D02*
G75*
G02*
X149982297Y-126687692I391908J-5D01*
G01*
X142990392Y-126498315D02*
G75*
G02*
X143382297Y-126106392I391908J15D01*
G01*
X124279239Y-126325003D02*
G75*
G02*
X124443239Y-126161039I163961J3D01*
G01*
X146950392Y-126498315D02*
G75*
G02*
X147342297Y-126106392I391908J15D01*
G01*
X141670392Y-126498302D02*
G75*
G02*
X142062297Y-126106392I391908J2D01*
G01*
X141534297Y-127268983D02*
G75*
G03*
X141670383Y-127132888I3J136083D01*
G01*
X148270392Y-126498315D02*
G75*
G02*
X148662297Y-126106392I391908J15D01*
G01*
X123705239Y-126161003D02*
G75*
G02*
X123869197Y-126325003I-39J-163997D01*
G01*
X140874297Y-126687690D02*
G75*
G02*
X141266210Y-127079595I3J-391910D01*
G01*
X123459239Y-126325003D02*
G75*
G02*
X123623239Y-126161039I163961J3D01*
G01*
X142854297Y-127268983D02*
G75*
G03*
X142990383Y-127132888I3J136083D01*
G01*
X124525239Y-126161003D02*
G75*
G02*
X124689197Y-126325003I-39J-163997D01*
G01*
X149454297Y-127268957D02*
G75*
G03*
X149590357Y-127132862I3J136057D01*
G01*
X145226202Y-127132875D02*
G75*
G03*
X145362297Y-127268998I136098J-25D01*
G01*
X148794297Y-126106410D02*
G75*
G02*
X149186190Y-126498315I3J-391890D01*
G01*
X146814297Y-127268970D02*
G75*
G03*
X146950370Y-127132875I3J136070D01*
G01*
X124115239Y-126514596D02*
G75*
G03*
X124279196Y-126350596I-39J163996D01*
G01*
X144310392Y-126498315D02*
G75*
G02*
X144702297Y-126106392I391908J15D01*
G01*
X149186202Y-127132862D02*
G75*
G03*
X149322297Y-127268998I136098J-38D01*
G01*
X144174297Y-127268970D02*
G75*
G03*
X144310370Y-127132875I3J136070D01*
G01*
X123869239Y-126350596D02*
G75*
G03*
X124033239Y-126514561I163961J-4D01*
G01*
X124689239Y-126350596D02*
G75*
G03*
X124853239Y-126514561I163961J-4D01*
G01*
X148134297Y-127268970D02*
G75*
G03*
X148270370Y-127132875I3J136070D01*
G01*
X145494297Y-127268970D02*
G75*
G03*
X145630370Y-127132875I3J136070D01*
G01*
X123295239Y-126514596D02*
G75*
G03*
X123459196Y-126350596I-39J163996D01*
G01*
%TO.N,CSI3_D1_N*%
X120734825Y-114767375D02*
X121459225Y-114767375D01*
X154985290Y-68779310D02*
X151681040Y-68779310D01*
X116138735Y-125058875D02*
X116138735Y-118475085D01*
X120050335Y-115451865D02*
X120734825Y-114767375D01*
X124627225Y-114767375D02*
X135289645Y-114767375D01*
X116138735Y-118475085D02*
X116773045Y-117840775D01*
X150461935Y-67560205D02*
X147796605Y-67560205D01*
X121594320Y-114632280D02*
X121594320Y-114181408D01*
X151190045Y-112303575D02*
X156611095Y-106882525D01*
X156611095Y-106882525D02*
X156611095Y-70405115D01*
X122647225Y-115746247D02*
X122779225Y-115746247D01*
X137753445Y-112303575D02*
X151190045Y-112303575D01*
X151681040Y-68779310D02*
X150461935Y-67560205D01*
X156611095Y-70405115D02*
X154985290Y-68779310D01*
X122512130Y-114181408D02*
X122512130Y-115611152D01*
X117461440Y-125711000D02*
X117289320Y-125538880D01*
X147251194Y-66426094D02*
X147062600Y-66237500D01*
X124234320Y-115611150D02*
X124234320Y-115160280D01*
X120050335Y-117357485D02*
X120050335Y-115451865D01*
X123832130Y-114181431D02*
X123832130Y-115611150D01*
X135289645Y-114767375D02*
X137753445Y-112303575D01*
X116618740Y-125538880D02*
X116138735Y-125058875D01*
X119567045Y-117840775D02*
X120050335Y-117357485D01*
X117289320Y-125538880D02*
X116618740Y-125538880D01*
X121987225Y-113788503D02*
X122119225Y-113788503D01*
X123967225Y-115746245D02*
X124099225Y-115746245D01*
X147251194Y-67014794D02*
X147251194Y-66426094D01*
X122914320Y-115611152D02*
X122914320Y-114181431D01*
X116773045Y-117840775D02*
X119567045Y-117840775D01*
X123307225Y-113788526D02*
X123439225Y-113788526D01*
X147796605Y-67560205D02*
X147251194Y-67014794D01*
X123832130Y-115611150D02*
G75*
G03*
X123967225Y-115746270I135070J-50D01*
G01*
X122914320Y-114181431D02*
G75*
G02*
X123307225Y-113788520I392880J31D01*
G01*
X122512130Y-115611152D02*
G75*
G03*
X122647225Y-115746270I135070J-48D01*
G01*
X122119225Y-113788503D02*
G75*
G02*
X122512097Y-114181408I-25J-392897D01*
G01*
X123439225Y-113788526D02*
G75*
G02*
X123832074Y-114181431I-25J-392874D01*
G01*
X121459225Y-114767375D02*
G75*
G03*
X121594275Y-114632280I-25J135075D01*
G01*
X124099225Y-115746245D02*
G75*
G03*
X124234245Y-115611150I-25J135045D01*
G01*
X122779225Y-115746247D02*
G75*
G03*
X122914247Y-115611152I-25J135047D01*
G01*
X124234320Y-115160280D02*
G75*
G02*
X124627225Y-114767420I392880J-20D01*
G01*
X121594320Y-114181408D02*
G75*
G02*
X121987225Y-113788520I392880J8D01*
G01*
%TO.N,CSI2_D1_N*%
X133559095Y-121651595D02*
X133559095Y-122226500D01*
X139417396Y-124609195D02*
X139417396Y-124165373D01*
X134096000Y-122627405D02*
X134897905Y-122627405D01*
X132199095Y-121651595D02*
X132199095Y-122226500D01*
X121804840Y-125461000D02*
X121993436Y-125272404D01*
X142177396Y-124609195D02*
X142177396Y-124165373D01*
X140797396Y-124609195D02*
X140797396Y-124165373D01*
X143015491Y-125013100D02*
X143153491Y-125013100D01*
X130560000Y-121508500D02*
X130696000Y-121508500D01*
X142611586Y-124165373D02*
X142611586Y-124609195D01*
X133960000Y-122627405D02*
X134096000Y-122627405D01*
X152738920Y-125013100D02*
X178365615Y-99386405D01*
X139565491Y-124017278D02*
X139703491Y-124017278D01*
X138875491Y-125013100D02*
X139013491Y-125013100D01*
X183877994Y-97619180D02*
X183689400Y-97430586D01*
X139851586Y-124165373D02*
X139851586Y-124609195D01*
X143153491Y-125013100D02*
X143935200Y-125013100D01*
X133280000Y-121508500D02*
X133416000Y-121508500D01*
X131240000Y-122627405D02*
X131376000Y-122627405D01*
X138471586Y-124165373D02*
X138471586Y-124609195D01*
X130839095Y-121651595D02*
X130839095Y-122226500D01*
X132600000Y-122627405D02*
X132736000Y-122627405D01*
X138185491Y-124017278D02*
X138323491Y-124017278D01*
X131920000Y-121508500D02*
X132056000Y-121508500D01*
X134897905Y-122627405D02*
X137283600Y-125013100D01*
X128345395Y-122627405D02*
X130016000Y-122627405D01*
X185103580Y-97619180D02*
X183877994Y-97619180D01*
X133136905Y-122226500D02*
X133136905Y-121651595D01*
X137283600Y-125013100D02*
X137633491Y-125013100D01*
X138037396Y-124609195D02*
X138037396Y-124165373D01*
X125700396Y-125272404D02*
X128345395Y-122627405D01*
X178365615Y-99386405D02*
X185084495Y-99386405D01*
X185494705Y-98010305D02*
X185103580Y-97619180D01*
X121993436Y-125272404D02*
X125700396Y-125272404D01*
X141231586Y-124165373D02*
X141231586Y-124609195D01*
X142325491Y-124017278D02*
X142463491Y-124017278D01*
X130416905Y-122226500D02*
X130416905Y-121651595D01*
X185494705Y-98976195D02*
X185494705Y-98010305D01*
X185084495Y-99386405D02*
X185494705Y-98976195D01*
X140945491Y-124017278D02*
X141083491Y-124017278D01*
X143935200Y-125013100D02*
X152738920Y-125013100D01*
X141635491Y-125013100D02*
X141773491Y-125013100D01*
X131776905Y-122226500D02*
X131776905Y-121651595D01*
X140255491Y-125013100D02*
X140393491Y-125013100D01*
X130839095Y-122226500D02*
G75*
G03*
X131240000Y-122627405I400905J0D01*
G01*
X141231586Y-124609195D02*
G75*
G03*
X141635491Y-125013114I403914J-5D01*
G01*
X139851586Y-124609195D02*
G75*
G03*
X140255491Y-125013114I403914J-5D01*
G01*
X138471586Y-124609195D02*
G75*
G03*
X138875491Y-125013114I403914J-5D01*
G01*
X132199095Y-122226500D02*
G75*
G03*
X132600000Y-122627405I400905J0D01*
G01*
X132736000Y-122627405D02*
G75*
G03*
X133136905Y-122226500I0J400905D01*
G01*
X132056000Y-121508500D02*
G75*
G02*
X132199100Y-121651595I0J-143100D01*
G01*
X139417396Y-124165373D02*
G75*
G02*
X139565491Y-124017296I148104J-27D01*
G01*
X133559095Y-122226500D02*
G75*
G03*
X133960000Y-122627405I400905J0D01*
G01*
X142463491Y-124017278D02*
G75*
G02*
X142611622Y-124165373I9J-148122D01*
G01*
X140393491Y-125013100D02*
G75*
G03*
X140797400Y-124609195I9J403900D01*
G01*
X138037396Y-124165373D02*
G75*
G02*
X138185491Y-124017296I148104J-27D01*
G01*
X139013491Y-125013100D02*
G75*
G03*
X139417400Y-124609195I9J403900D01*
G01*
X140797396Y-124165373D02*
G75*
G02*
X140945491Y-124017296I148104J-27D01*
G01*
X131376000Y-122627405D02*
G75*
G03*
X131776905Y-122226500I0J400905D01*
G01*
X130696000Y-121508500D02*
G75*
G02*
X130839100Y-121651595I0J-143100D01*
G01*
X131776905Y-121651595D02*
G75*
G02*
X131920000Y-121508505I143095J-5D01*
G01*
X137633491Y-125013100D02*
G75*
G03*
X138037400Y-124609195I9J403900D01*
G01*
X130016000Y-122627405D02*
G75*
G03*
X130416905Y-122226500I0J400905D01*
G01*
X142611586Y-124609195D02*
G75*
G03*
X143015491Y-125013114I403914J-5D01*
G01*
X133416000Y-121508500D02*
G75*
G02*
X133559100Y-121651595I0J-143100D01*
G01*
X133136905Y-121651595D02*
G75*
G02*
X133280000Y-121508505I143095J-5D01*
G01*
X130416905Y-121651595D02*
G75*
G02*
X130560000Y-121508505I143095J-5D01*
G01*
X138323491Y-124017278D02*
G75*
G02*
X138471622Y-124165373I9J-148122D01*
G01*
X141773491Y-125013100D02*
G75*
G03*
X142177400Y-124609195I9J403900D01*
G01*
X139703491Y-124017278D02*
G75*
G02*
X139851622Y-124165373I9J-148122D01*
G01*
X141083491Y-124017278D02*
G75*
G02*
X141231622Y-124165373I9J-148122D01*
G01*
X142177396Y-124165373D02*
G75*
G02*
X142325491Y-124017296I148104J-27D01*
G01*
%TO.N,CSI3_D1_P*%
X124627225Y-115025185D02*
X135396435Y-115025185D01*
X123967225Y-116004055D02*
X124099225Y-116004055D01*
X123574320Y-114181431D02*
X123574320Y-115611150D01*
X156867905Y-70300155D02*
X156867905Y-70298741D01*
X156868905Y-70301155D02*
X156867905Y-70300155D01*
X122647225Y-116004057D02*
X122779225Y-116004057D01*
X122254320Y-114181408D02*
X122254320Y-115611152D01*
X150566895Y-67303395D02*
X150565895Y-67302395D01*
X156867905Y-70298741D02*
X155091664Y-68522500D01*
X151787414Y-68522500D02*
X150568309Y-67303395D01*
X147903395Y-67302395D02*
X147509006Y-66908006D01*
X151296835Y-112561385D02*
X156868905Y-106989315D01*
X150565895Y-67302395D02*
X147903395Y-67302395D01*
X123307225Y-114046336D02*
X123439225Y-114046336D01*
X121987225Y-114046313D02*
X122119225Y-114046313D01*
X116396545Y-118581875D02*
X116879835Y-118098585D01*
X116572545Y-124143680D02*
X116588123Y-124143680D01*
X116396545Y-124952085D02*
X116396545Y-124319680D01*
X116879835Y-118098585D02*
X119673835Y-118098585D01*
X119673835Y-118098585D02*
X120308145Y-117464275D01*
X116703940Y-125259480D02*
X116396545Y-124952085D01*
X137860235Y-112561385D02*
X151296835Y-112561385D01*
X120840199Y-115025185D02*
X121459225Y-115025185D01*
X147509006Y-66908006D02*
X147509006Y-66426094D01*
X121852130Y-114632280D02*
X121852130Y-114181408D01*
X116588123Y-123703680D02*
X116572545Y-123703680D01*
X120308145Y-115557239D02*
X120840199Y-115025185D01*
X156868905Y-106989315D02*
X156868905Y-70301155D01*
X135396435Y-115025185D02*
X137860235Y-112561385D01*
X150568309Y-67303395D02*
X150566895Y-67303395D01*
X155091664Y-68522500D02*
X151787414Y-68522500D01*
X123172130Y-115611152D02*
X123172130Y-114181431D01*
X116764123Y-123967680D02*
X116764123Y-123879680D01*
X117461440Y-125076000D02*
X117277960Y-125259480D01*
X116396545Y-123527680D02*
X116396545Y-118581875D01*
X120308145Y-117464275D02*
X120308145Y-115557239D01*
X124492130Y-115611150D02*
X124492130Y-115160280D01*
X117277960Y-125259480D02*
X116703940Y-125259480D01*
X147509006Y-66426094D02*
X147697600Y-66237500D01*
X122119225Y-114046313D02*
G75*
G02*
X122254287Y-114181408I-25J-135087D01*
G01*
X121852130Y-114181408D02*
G75*
G02*
X121987225Y-114046330I135070J8D01*
G01*
X116764123Y-123879680D02*
G75*
G03*
X116588123Y-123703677I-176023J-20D01*
G01*
X122779225Y-116004057D02*
G75*
G03*
X123172057Y-115611152I-25J392857D01*
G01*
X124492130Y-115160280D02*
G75*
G02*
X124627225Y-115025230I135070J-20D01*
G01*
X116572545Y-123703680D02*
G75*
G02*
X116396520Y-123527680I-45J175980D01*
G01*
X123574320Y-115611150D02*
G75*
G03*
X123967225Y-116004080I392880J-50D01*
G01*
X116588123Y-124143680D02*
G75*
G03*
X116764080Y-123967680I-23J175980D01*
G01*
X121459225Y-115025185D02*
G75*
G03*
X121852085Y-114632280I-25J392885D01*
G01*
X122254320Y-115611152D02*
G75*
G03*
X122647225Y-116004080I392880J-48D01*
G01*
X124099225Y-116004055D02*
G75*
G03*
X124492055Y-115611150I-25J392855D01*
G01*
X123439225Y-114046336D02*
G75*
G02*
X123574264Y-114181431I-25J-135064D01*
G01*
X116396545Y-124319680D02*
G75*
G02*
X116572545Y-124143745I175955J-20D01*
G01*
X123172130Y-114181431D02*
G75*
G02*
X123307225Y-114046330I135070J31D01*
G01*
%TO.N,CSI2_D1_P*%
X124648986Y-124824514D02*
X124648986Y-124854594D01*
X133960000Y-122369595D02*
X134096000Y-122369595D01*
X143935200Y-124757290D02*
X152630130Y-124757290D01*
X137389560Y-124757290D02*
X137633491Y-124757290D01*
X131519095Y-122226500D02*
X131519095Y-121651595D01*
X134096000Y-122369595D02*
X135001865Y-122369595D01*
X152630130Y-124757290D02*
X178258825Y-99128595D01*
X123848986Y-124824533D02*
X123848986Y-124854594D01*
X142867396Y-124165373D02*
X142867396Y-124609195D01*
X138875491Y-124757290D02*
X139013491Y-124757290D01*
X132879095Y-122226500D02*
X132879095Y-121651595D01*
X132600000Y-122369595D02*
X132736000Y-122369595D01*
X183877994Y-97876992D02*
X183689400Y-98065586D01*
X141921586Y-124609195D02*
X141921586Y-124165373D01*
X124008986Y-125014594D02*
X124088986Y-125014594D01*
X140945491Y-123761468D02*
X141083491Y-123761468D01*
X140107396Y-124165373D02*
X140107396Y-124609195D01*
X132456905Y-121651595D02*
X132456905Y-122226500D01*
X128238605Y-122369595D02*
X130016000Y-122369595D01*
X124408986Y-124664514D02*
X124488986Y-124664514D01*
X125593606Y-125014594D02*
X128238605Y-122369595D01*
X185236895Y-98117095D02*
X184996792Y-97876992D01*
X143015491Y-124757290D02*
X143153491Y-124757290D01*
X143153491Y-124757290D02*
X143935200Y-124757290D01*
X131096905Y-121651595D02*
X131096905Y-122226500D01*
X121804840Y-124826000D02*
X121993434Y-125014594D01*
X138727396Y-124165373D02*
X138727396Y-124609195D01*
X184996792Y-97876992D02*
X183877994Y-97876992D01*
X137781586Y-124609195D02*
X137781586Y-124165373D01*
X130560000Y-121250690D02*
X130696000Y-121250690D01*
X139565491Y-123761468D02*
X139703491Y-123761468D01*
X131240000Y-122369595D02*
X131376000Y-122369595D01*
X124248986Y-124854594D02*
X124248986Y-124824514D01*
X135019049Y-122386779D02*
X137389560Y-124757290D01*
X142325491Y-123761468D02*
X142463491Y-123761468D01*
X141635491Y-124757290D02*
X141773491Y-124757290D01*
X140255491Y-124757290D02*
X140393491Y-124757290D01*
X139161586Y-124609195D02*
X139161586Y-124165373D01*
X178258825Y-99128595D02*
X184980535Y-99128595D01*
X138185491Y-123761468D02*
X138323491Y-123761468D01*
X123448986Y-124854594D02*
X123448986Y-124824533D01*
X130159095Y-122226500D02*
X130159095Y-121651595D01*
X125037600Y-125014594D02*
X125593606Y-125014594D01*
X124808986Y-125014594D02*
X124888986Y-125014594D01*
X123608986Y-124664533D02*
X123688986Y-124664533D01*
X140541586Y-124609195D02*
X140541586Y-124165373D01*
X124888986Y-125014594D02*
X125037600Y-125014594D01*
X185236895Y-98872235D02*
X185236895Y-98117095D01*
X133280000Y-121250690D02*
X133416000Y-121250690D01*
X135001865Y-122369595D02*
X135019049Y-122386779D01*
X141487396Y-124165373D02*
X141487396Y-124609195D01*
X121993434Y-125014594D02*
X123288986Y-125014594D01*
X184980535Y-99128595D02*
X185236895Y-98872235D01*
X133816905Y-121651595D02*
X133816905Y-122226500D01*
X131920000Y-121250690D02*
X132056000Y-121250690D01*
X132056000Y-121250690D02*
G75*
G02*
X132456910Y-121651595I0J-400910D01*
G01*
X130159095Y-121651595D02*
G75*
G02*
X130560000Y-121250695I400905J-5D01*
G01*
X130016000Y-122369595D02*
G75*
G03*
X130159095Y-122226500I0J143095D01*
G01*
X142867396Y-124609195D02*
G75*
G03*
X143015491Y-124757304I148104J-5D01*
G01*
X137781586Y-124165373D02*
G75*
G02*
X138185491Y-123761486I403914J-27D01*
G01*
X123848986Y-124854594D02*
G75*
G03*
X124008986Y-125014614I160014J-6D01*
G01*
X131519095Y-121651595D02*
G75*
G02*
X131920000Y-121250695I400905J-5D01*
G01*
X133816905Y-122226500D02*
G75*
G03*
X133960000Y-122369595I143095J0D01*
G01*
X139703491Y-123761468D02*
G75*
G02*
X140107432Y-124165373I9J-403932D01*
G01*
X132456905Y-122226500D02*
G75*
G03*
X132600000Y-122369595I143095J0D01*
G01*
X124088986Y-125014594D02*
G75*
G03*
X124248994Y-124854594I14J159994D01*
G01*
X123688986Y-124664533D02*
G75*
G02*
X123848967Y-124824533I14J-159967D01*
G01*
X142463491Y-123761468D02*
G75*
G02*
X142867432Y-124165373I9J-403932D01*
G01*
X132736000Y-122369595D02*
G75*
G03*
X132879095Y-122226500I0J143095D01*
G01*
X131096905Y-122226500D02*
G75*
G03*
X131240000Y-122369595I143095J0D01*
G01*
X137633491Y-124757290D02*
G75*
G03*
X137781590Y-124609195I9J148090D01*
G01*
X141773491Y-124757290D02*
G75*
G03*
X141921590Y-124609195I9J148090D01*
G01*
X141921586Y-124165373D02*
G75*
G02*
X142325491Y-123761486I403914J-27D01*
G01*
X141083491Y-123761468D02*
G75*
G02*
X141487432Y-124165373I9J-403932D01*
G01*
X131376000Y-122369595D02*
G75*
G03*
X131519095Y-122226500I0J143095D01*
G01*
X140393491Y-124757290D02*
G75*
G03*
X140541590Y-124609195I9J148090D01*
G01*
X138727396Y-124609195D02*
G75*
G03*
X138875491Y-124757304I148104J-5D01*
G01*
X133416000Y-121250690D02*
G75*
G02*
X133816910Y-121651595I0J-400910D01*
G01*
X140107396Y-124609195D02*
G75*
G03*
X140255491Y-124757304I148104J-5D01*
G01*
X130696000Y-121250690D02*
G75*
G02*
X131096910Y-121651595I0J-400910D01*
G01*
X139161586Y-124165373D02*
G75*
G02*
X139565491Y-123761486I403914J-27D01*
G01*
X141487396Y-124609195D02*
G75*
G03*
X141635491Y-124757304I148104J-5D01*
G01*
X140541586Y-124165373D02*
G75*
G02*
X140945491Y-123761486I403914J-27D01*
G01*
X123288986Y-125014594D02*
G75*
G03*
X123448994Y-124854594I14J159994D01*
G01*
X132879095Y-121651595D02*
G75*
G02*
X133280000Y-121250695I400905J-5D01*
G01*
X139013491Y-124757290D02*
G75*
G03*
X139161590Y-124609195I9J148090D01*
G01*
X123448986Y-124824533D02*
G75*
G02*
X123608986Y-124664486I160014J33D01*
G01*
X138323491Y-123761468D02*
G75*
G02*
X138727432Y-124165373I9J-403932D01*
G01*
X124488986Y-124664514D02*
G75*
G02*
X124648986Y-124824514I14J-159986D01*
G01*
X124248986Y-124824514D02*
G75*
G02*
X124408986Y-124664486I160014J14D01*
G01*
X124648986Y-124854594D02*
G75*
G03*
X124808986Y-125014614I160014J-6D01*
G01*
%TO.N,USB0_D_N*%
X171494200Y-132062320D02*
X171741240Y-131815280D01*
X170932840Y-134340080D02*
X171494200Y-133778720D01*
X171494200Y-133778720D02*
X171494200Y-132062320D01*
D23*
%TO.N,/SoM/~{FORCE_RECOVERY}*%
X107715360Y-75864100D02*
X107715360Y-76902860D01*
X108409500Y-77597000D02*
X121360960Y-77597000D01*
X107715360Y-76902860D02*
X108409500Y-77597000D01*
X121360960Y-77597000D02*
X122157460Y-78393500D01*
X122157460Y-78393500D02*
X122925420Y-78393500D01*
D24*
%TO.N,Net-(U1-V_{CC})*%
X173316040Y-62115080D02*
X173290640Y-62115080D01*
X166178640Y-70535480D02*
X166228640Y-70585480D01*
X170903040Y-70585480D02*
X172343720Y-70585480D01*
X172343720Y-70585480D02*
X173034100Y-69895100D01*
X173290640Y-62115080D02*
X170903040Y-64502680D01*
X166228640Y-70585480D02*
X170903040Y-70585480D01*
X170903040Y-64502680D02*
X170903040Y-70585480D01*
%TO.N,Net-(U29-V_{CC})*%
X173288800Y-81706599D02*
X170926600Y-84068799D01*
X170926600Y-89300200D02*
X172094800Y-89300200D01*
X170926600Y-84068799D02*
X170926600Y-89300200D01*
X172094800Y-89300200D02*
X172919800Y-88475200D01*
X170926600Y-89300200D02*
X166150200Y-89300200D01*
X166150200Y-89300200D02*
X166138000Y-89288000D01*
D25*
%TO.N,/CSI/VSYNC_CAM1_3V3*%
X132498240Y-103669480D02*
X133234840Y-104406080D01*
X114649000Y-101565700D02*
X116752780Y-103669480D01*
X112747200Y-97248114D02*
X114030914Y-97248114D01*
X114649000Y-97866200D02*
X114649000Y-101565700D01*
X116752780Y-103669480D02*
X132498240Y-103669480D01*
X114030914Y-97248114D02*
X114649000Y-97866200D01*
%TO.N,/CSI/VSYNC_CAM3_3V3*%
X141322200Y-65932700D02*
X144923300Y-62331600D01*
X144923300Y-62331600D02*
X150386800Y-62331600D01*
X150386800Y-62331600D02*
X151631400Y-61087000D01*
X133321200Y-66872500D02*
X133321200Y-74390900D01*
X134261000Y-65932700D02*
X133321200Y-66872500D01*
X151631400Y-61087000D02*
X152647400Y-61087000D01*
X141322200Y-65932700D02*
X134261000Y-65932700D01*
D26*
%TO.N,DP1_HPD*%
X123542200Y-70739000D02*
X123974000Y-70307200D01*
X121942000Y-72943100D02*
X121942000Y-71091400D01*
X123974000Y-70307200D02*
X123974000Y-65729500D01*
X132076600Y-62262400D02*
X132076600Y-59963700D01*
X121942000Y-71091400D02*
X122294400Y-70739000D01*
X132076600Y-59963700D02*
X133448200Y-58592100D01*
X131708300Y-62630700D02*
X132076600Y-62262400D01*
X136533800Y-58058700D02*
X137232800Y-58757700D01*
X134921400Y-58592100D02*
X135454800Y-58058700D01*
X123974000Y-65729500D02*
X127072800Y-62630700D01*
X135454800Y-58058700D02*
X136533800Y-58058700D01*
X127072800Y-62630700D02*
X131708300Y-62630700D01*
X133448200Y-58592100D02*
X134921400Y-58592100D01*
X122294400Y-70739000D02*
X123542200Y-70739000D01*
D22*
%TO.N,PCIE0_TX0_N*%
X142310895Y-71093165D02*
X142105335Y-70887605D01*
X120518006Y-100271906D02*
X120407600Y-100161500D01*
X141030735Y-86445685D02*
X141030735Y-74119065D01*
X121571531Y-100462890D02*
X121571531Y-100439906D01*
X118257190Y-90642540D02*
X120421355Y-88478375D01*
X142310895Y-72838905D02*
X142310895Y-71093165D01*
X121823531Y-100630890D02*
X121739531Y-100630890D01*
X138998045Y-88478375D02*
X141030735Y-86445685D01*
X141322200Y-71574100D02*
X141509800Y-71761700D01*
X122556046Y-100271906D02*
X122159531Y-100271906D01*
X141493018Y-70887605D02*
X141322200Y-71058423D01*
X121319531Y-100271906D02*
X120518006Y-100271906D01*
X141030735Y-74119065D02*
X142310895Y-72838905D01*
X121991531Y-100439906D02*
X121991531Y-100462890D01*
X118257190Y-98011090D02*
X118257190Y-90642540D01*
X141322200Y-71058423D02*
X141322200Y-71574100D01*
X121403531Y-100271906D02*
X121319531Y-100271906D01*
X120421355Y-88478375D02*
X138998045Y-88478375D01*
X142105335Y-70887605D02*
X141493018Y-70887605D01*
X120407600Y-100161500D02*
X118257190Y-98011090D01*
X122744640Y-100460500D02*
X122556046Y-100271906D01*
X121739531Y-100630890D02*
G75*
G02*
X121571510Y-100462890I-31J167990D01*
G01*
X122159531Y-100271906D02*
G75*
G03*
X121991506Y-100439906I-31J-167994D01*
G01*
X121991531Y-100462890D02*
G75*
G02*
X121823531Y-100630931I-168031J-10D01*
G01*
X121571531Y-100439906D02*
G75*
G03*
X121403531Y-100271869I-168031J6D01*
G01*
%TO.N,PCIE0_TX0_P*%
X118513000Y-90748500D02*
X120525315Y-88736185D01*
X139104835Y-88736185D02*
X141288545Y-86552475D01*
X120621964Y-100014094D02*
X118513000Y-97905130D01*
X141066390Y-71570110D02*
X140874800Y-71761700D01*
X141288545Y-86552475D02*
X141288545Y-74225855D01*
X141066390Y-70949633D02*
X141066390Y-71570110D01*
X142209295Y-70629795D02*
X141386228Y-70629795D01*
X122744640Y-99825500D02*
X122556046Y-100014094D01*
X142568705Y-72945695D02*
X142568705Y-70989205D01*
X118513000Y-97905130D02*
X118513000Y-90748500D01*
X120525315Y-88736185D02*
X139104835Y-88736185D01*
X122556046Y-100014094D02*
X120621964Y-100014094D01*
X142568705Y-70989205D02*
X142209295Y-70629795D01*
X141288545Y-74225855D02*
X142568705Y-72945695D01*
X141386228Y-70629795D02*
X141066390Y-70949633D01*
%TO.N,PCIE0_TX1_N*%
X119701700Y-95099400D02*
X119908190Y-95099400D01*
X121323562Y-98771407D02*
X121193007Y-98771407D01*
X122011562Y-98943407D02*
X122011562Y-98962223D01*
X119908190Y-94069772D02*
X119908190Y-93851805D01*
X121409562Y-98771407D02*
X121323562Y-98771407D01*
X121581562Y-98962223D02*
X121581562Y-98943407D01*
X145333495Y-71118565D02*
X145102440Y-70887510D01*
X145333495Y-72813505D02*
X145333495Y-71118565D01*
X121386555Y-90002375D02*
X140445845Y-90002375D01*
X119908190Y-95099400D02*
X120206223Y-95099400D01*
X121839562Y-99134223D02*
X121753562Y-99134223D01*
X122744640Y-98960001D02*
X122556046Y-98771407D01*
X145102345Y-70887605D02*
X144501465Y-70887605D01*
X144027935Y-86420285D02*
X144027935Y-74119065D01*
X145102440Y-70887510D02*
X145102345Y-70887605D01*
X144501465Y-70887605D02*
X144295810Y-71093260D01*
X120504256Y-94929772D02*
X120504256Y-94665838D01*
X120206223Y-95099400D02*
X120334628Y-95099400D01*
X140445845Y-90002375D02*
X144027935Y-86420285D01*
X119908190Y-97486590D02*
X119908190Y-96431805D01*
X121193007Y-98771407D02*
X119908190Y-97486590D01*
X119908190Y-91480740D02*
X121386555Y-90002375D01*
X144027935Y-74119065D02*
X145333495Y-72813505D01*
X144295810Y-71093260D02*
X144295810Y-71575910D01*
X119908190Y-92329211D02*
X119908190Y-91480740D01*
X144295810Y-71575910D02*
X144481600Y-71761700D01*
X119908190Y-93851805D02*
X119908190Y-92329211D01*
X122556046Y-98771407D02*
X122183562Y-98771407D01*
X119238400Y-95762015D02*
X119238400Y-95562700D01*
X121581562Y-98943407D02*
G75*
G03*
X121409562Y-98771438I-171962J7D01*
G01*
X120334628Y-94496210D02*
G75*
G02*
X119908190Y-94069772I-28J426410D01*
G01*
X119701700Y-96225315D02*
G75*
G02*
X119238385Y-95762015I0J463315D01*
G01*
X122183562Y-98771407D02*
G75*
G03*
X122011607Y-98943407I38J-171993D01*
G01*
X121753562Y-99134223D02*
G75*
G02*
X121581577Y-98962223I38J172023D01*
G01*
X119908190Y-96431805D02*
G75*
G03*
X119701700Y-96225310I-206490J5D01*
G01*
X119238400Y-95562700D02*
G75*
G02*
X119701700Y-95099400I463300J0D01*
G01*
X120334628Y-95099400D02*
G75*
G03*
X120504200Y-94929772I-28J169600D01*
G01*
X120504256Y-94665838D02*
G75*
G03*
X120334628Y-94496144I-169656J38D01*
G01*
X122011562Y-98962223D02*
G75*
G02*
X121839562Y-99134162I-171962J23D01*
G01*
%TO.N,PCIE0_TX1_P*%
X122556046Y-98513595D02*
X121298379Y-98513595D01*
X145590305Y-71013605D02*
X145590305Y-71012191D01*
X144397505Y-70629795D02*
X144396505Y-70630795D01*
X145590305Y-71012191D02*
X145208814Y-70630700D01*
X120165000Y-91587114D02*
X121491929Y-90260185D01*
X144285745Y-86527075D02*
X144285745Y-74225855D01*
X120165000Y-97380216D02*
X120165000Y-96431805D01*
X120165000Y-94069772D02*
X120165000Y-93851805D01*
X145207400Y-70630700D02*
X145206495Y-70629795D01*
X140552635Y-90260185D02*
X144285745Y-86527075D01*
X121491929Y-90260185D02*
X140552635Y-90260185D01*
X119908190Y-95356210D02*
X120206223Y-95356210D01*
X119701700Y-95356210D02*
X119908190Y-95356210D01*
X145208814Y-70630700D02*
X145207400Y-70630700D01*
X145591305Y-71014605D02*
X145590305Y-71013605D01*
X144285745Y-74225855D02*
X145591305Y-72920295D01*
X122744640Y-98325001D02*
X122556046Y-98513595D01*
X145591305Y-72920295D02*
X145591305Y-71014605D01*
X120165000Y-92329211D02*
X120165000Y-91587114D01*
X120206223Y-95356210D02*
X120334628Y-95356210D01*
X120761066Y-94929772D02*
X120761066Y-94665838D01*
X144395091Y-70630795D02*
X144039000Y-70986886D01*
X144039000Y-71569300D02*
X143846600Y-71761700D01*
X144396505Y-70630795D02*
X144395091Y-70630795D01*
X144039000Y-70986886D02*
X144039000Y-71569300D01*
X145206495Y-70629795D02*
X144397505Y-70629795D01*
X121298379Y-98513595D02*
X120165000Y-97380216D01*
X120165000Y-93851805D02*
X120165000Y-92329211D01*
X119495210Y-95762015D02*
X119495210Y-95562700D01*
X119495210Y-95562700D02*
G75*
G02*
X119701700Y-95356210I206490J0D01*
G01*
X120165000Y-96431805D02*
G75*
G03*
X119701700Y-95968500I-463300J5D01*
G01*
X120761066Y-94665838D02*
G75*
G03*
X120334628Y-94239334I-426466J38D01*
G01*
X119701700Y-95968505D02*
G75*
G02*
X119495195Y-95762015I0J206505D01*
G01*
X120334628Y-94239400D02*
G75*
G02*
X120165000Y-94069772I-28J169600D01*
G01*
X120334628Y-95356210D02*
G75*
G03*
X120761010Y-94929772I-28J426410D01*
G01*
%TO.N,PCIE0_TX2_N*%
X129253496Y-92044064D02*
X129056584Y-92044064D01*
X127433945Y-91901431D02*
X127433945Y-91758785D01*
X121996467Y-94772407D02*
X122556046Y-94772407D01*
X129396135Y-91500975D02*
X129396135Y-91758785D01*
X130393945Y-91901425D02*
X130393945Y-91758785D01*
X148305295Y-71116895D02*
X148305295Y-72813505D01*
X130393945Y-91500975D02*
X130393945Y-91358369D01*
X128913945Y-91901425D02*
X128913945Y-91758785D01*
X123508640Y-91500975D02*
X122490640Y-91500975D01*
X127916135Y-91358369D02*
X127916135Y-91500975D01*
X121371135Y-92160685D02*
X121371135Y-94147075D01*
X123964640Y-91158154D02*
X123888640Y-91158154D01*
X122490640Y-91500975D02*
X122030845Y-91500975D01*
X129993529Y-90957953D02*
X129796551Y-90957953D01*
X130876135Y-91758785D02*
X130876135Y-91901425D01*
X128513529Y-90957953D02*
X128316551Y-90957953D01*
X122030845Y-91500975D02*
X121371135Y-92160685D01*
X148075910Y-70887510D02*
X148305295Y-71116895D01*
X127916135Y-91758785D02*
X127916135Y-91901431D01*
X130876135Y-91362235D02*
X130876135Y-91500975D01*
X124395640Y-91500975D02*
X124268640Y-91500975D01*
X127916135Y-91500975D02*
X127916135Y-91758785D01*
X147316600Y-71574100D02*
X147316600Y-71038100D01*
X147504200Y-71761700D02*
X147316600Y-71574100D01*
X127433945Y-91758785D02*
X127433945Y-91491106D01*
X148305295Y-72813505D02*
X147050535Y-74068265D01*
X130876135Y-91500975D02*
X130876135Y-91758785D01*
X129396135Y-91358369D02*
X129396135Y-91500975D01*
X126297361Y-91500975D02*
X126121040Y-91500975D01*
X127037361Y-90965617D02*
X126832719Y-90965617D01*
X127433945Y-91491106D02*
X127433945Y-91362201D01*
X147467190Y-70887510D02*
X148075910Y-70887510D01*
X123584640Y-91500975D02*
X123508640Y-91500975D01*
X122556046Y-94772407D02*
X122744640Y-94961001D01*
X123736640Y-91310154D02*
X123736640Y-91348975D01*
X147316600Y-71038100D02*
X147467190Y-70887510D01*
X124116640Y-91348975D02*
X124116640Y-91310154D01*
X131505750Y-90965685D02*
X131272685Y-90965685D01*
X121371135Y-94147075D02*
X121996467Y-94772407D01*
X128913945Y-91758785D02*
X128913945Y-91500975D01*
X130393945Y-91758785D02*
X130393945Y-91500975D01*
X130733496Y-92044064D02*
X130536584Y-92044064D01*
X126121040Y-91500975D02*
X124395640Y-91500975D01*
X128913945Y-91500975D02*
X128913945Y-91358369D01*
X147050535Y-74068265D02*
X147050535Y-86344085D01*
X147050535Y-86344085D02*
X141893645Y-91500975D01*
X129396135Y-91758785D02*
X129396135Y-91901425D01*
X127773489Y-92044077D02*
X127576591Y-92044077D01*
X141893645Y-91500975D02*
X132041040Y-91500975D01*
X124268640Y-91500975D02*
G75*
G02*
X124116625Y-91348975I-40J151975D01*
G01*
X126832719Y-90965617D02*
G75*
G03*
X126436117Y-91362201I-19J-396583D01*
G01*
X129396135Y-91901425D02*
G75*
G02*
X129253496Y-92044035I-142635J25D01*
G01*
X127916135Y-91901431D02*
G75*
G02*
X127773489Y-92044035I-142635J31D01*
G01*
X124116640Y-91310154D02*
G75*
G03*
X123964640Y-91158160I-152040J-46D01*
G01*
X130393945Y-91358369D02*
G75*
G03*
X129993529Y-90957955I-400445J-31D01*
G01*
X131272685Y-90965685D02*
G75*
G03*
X130876185Y-91362235I15J-396515D01*
G01*
X132041040Y-91500975D02*
G75*
G02*
X131902225Y-91362235I-40J138775D01*
G01*
X128913945Y-91358369D02*
G75*
G03*
X128513529Y-90957955I-400445J-31D01*
G01*
X126436135Y-91362201D02*
G75*
G02*
X126297361Y-91500935I-138735J1D01*
G01*
X127576591Y-92044077D02*
G75*
G02*
X127433923Y-91901431I9J142677D01*
G01*
X123888640Y-91158154D02*
G75*
G03*
X123736554Y-91310154I-40J-152046D01*
G01*
X127433945Y-91362201D02*
G75*
G03*
X127037361Y-90965655I-396545J1D01*
G01*
X128316551Y-90957953D02*
G75*
G03*
X127916153Y-91358369I49J-400447D01*
G01*
X130536584Y-92044064D02*
G75*
G02*
X130393936Y-91901425I16J142664D01*
G01*
X129056584Y-92044064D02*
G75*
G02*
X128913936Y-91901425I16J142664D01*
G01*
X130876135Y-91901425D02*
G75*
G02*
X130733496Y-92044035I-142635J25D01*
G01*
X131902300Y-91362235D02*
G75*
G03*
X131505750Y-90965600I-396600J35D01*
G01*
X129796551Y-90957953D02*
G75*
G03*
X129396153Y-91358369I49J-400447D01*
G01*
X123736640Y-91348975D02*
G75*
G02*
X123584640Y-91501040I-152040J-25D01*
G01*
%TO.N,PCIE0_TX2_P*%
X130136135Y-91500975D02*
X130136135Y-91358369D01*
X131133945Y-91362235D02*
X131133945Y-91500975D01*
X122137635Y-91758785D02*
X121628945Y-92267475D01*
X147308345Y-86450875D02*
X142000435Y-91758785D01*
X129653945Y-91358369D02*
X129653945Y-91500975D01*
X127037361Y-91223427D02*
X126832719Y-91223427D01*
X131505750Y-91223495D02*
X131272685Y-91223495D01*
X128656135Y-91758785D02*
X128656135Y-91500975D01*
X122103255Y-94514595D02*
X122556046Y-94514595D01*
X146869200Y-71761700D02*
X147060790Y-71570110D01*
X127773489Y-92301887D02*
X127576591Y-92301887D01*
X148184700Y-70631700D02*
X148563105Y-71010105D01*
X121628945Y-94040285D02*
X122103255Y-94514595D01*
X122556046Y-94514595D02*
X122744640Y-94326001D01*
X128656135Y-91500975D02*
X128656135Y-91358369D01*
X124395640Y-91758785D02*
X122137635Y-91758785D01*
X128173945Y-91758785D02*
X128173945Y-91901431D01*
X126297361Y-91758785D02*
X126121040Y-91758785D01*
X127176135Y-91901431D02*
X127176135Y-91758785D01*
X128173945Y-91358369D02*
X128173945Y-91500975D01*
X130733496Y-92301874D02*
X130536584Y-92301874D01*
X129653945Y-91500975D02*
X129653945Y-91758785D01*
X128173945Y-91500975D02*
X128173945Y-91758785D01*
X126121040Y-91758785D02*
X124395640Y-91758785D01*
X131133945Y-91500975D02*
X131133945Y-91758785D01*
X128513529Y-91215763D02*
X128316551Y-91215763D01*
X128656135Y-91901425D02*
X128656135Y-91758785D01*
X130136135Y-91758785D02*
X130136135Y-91500975D01*
X129993529Y-91215763D02*
X129796551Y-91215763D01*
X148563105Y-71010105D02*
X148563105Y-72920295D01*
X147060790Y-71570110D02*
X147060790Y-70932140D01*
X127176135Y-91758785D02*
X127176135Y-91491106D01*
X129253496Y-92301874D02*
X129056584Y-92301874D01*
X131133945Y-91758785D02*
X131133945Y-91901425D01*
X147361230Y-70631700D02*
X148184700Y-70631700D01*
X147060790Y-70932140D02*
X147361230Y-70631700D01*
X121628945Y-92267475D02*
X121628945Y-94040285D01*
X129653945Y-91758785D02*
X129653945Y-91901425D01*
X130136135Y-91901425D02*
X130136135Y-91758785D01*
X147308345Y-74175055D02*
X147308345Y-86450875D01*
X142000435Y-91758785D02*
X132041040Y-91758785D01*
X148563105Y-72920295D02*
X147308345Y-74175055D01*
X127176135Y-91491106D02*
X127176135Y-91362201D01*
X130136135Y-91358369D02*
G75*
G03*
X129993529Y-91215765I-142635J-31D01*
G01*
X127176135Y-91362201D02*
G75*
G03*
X127037361Y-91223465I-138735J1D01*
G01*
X132041040Y-91758785D02*
G75*
G02*
X131644415Y-91362235I-40J396585D01*
G01*
X131644490Y-91362235D02*
G75*
G03*
X131505750Y-91223510I-138690J35D01*
G01*
X130536584Y-92301874D02*
G75*
G02*
X130136126Y-91901425I16J400474D01*
G01*
X128173945Y-91901431D02*
G75*
G02*
X127773489Y-92301845I-400445J31D01*
G01*
X128656135Y-91358369D02*
G75*
G03*
X128513529Y-91215765I-142635J-31D01*
G01*
X129056584Y-92301874D02*
G75*
G02*
X128656126Y-91901425I16J400474D01*
G01*
X128316551Y-91215763D02*
G75*
G03*
X128173863Y-91358369I-51J-142637D01*
G01*
X129796551Y-91215763D02*
G75*
G03*
X129653863Y-91358369I-51J-142637D01*
G01*
X126693945Y-91362201D02*
G75*
G02*
X126297361Y-91758745I-396545J1D01*
G01*
X131272685Y-91223495D02*
G75*
G03*
X131133995Y-91362235I15J-138705D01*
G01*
X129653945Y-91901425D02*
G75*
G02*
X129253496Y-92301845I-400445J25D01*
G01*
X131133945Y-91901425D02*
G75*
G02*
X130733496Y-92301845I-400445J25D01*
G01*
X126832719Y-91223427D02*
G75*
G03*
X126693927Y-91362201I-19J-138773D01*
G01*
X127576591Y-92301887D02*
G75*
G02*
X127176113Y-91901431I9J400487D01*
G01*
%TO.N,PCIE0_TX3_N*%
X138118443Y-93472194D02*
X138118443Y-93272405D01*
X136480579Y-92698867D02*
X136314117Y-92698867D01*
X140171348Y-93897114D02*
X140023348Y-93897114D01*
X139116253Y-93272405D02*
X139116253Y-93472194D01*
X137636253Y-92856719D02*
X137636253Y-93014595D01*
X133678443Y-92986078D02*
X133678443Y-92857173D01*
X132781021Y-93272405D02*
X132616800Y-93272405D01*
X137636253Y-93014595D02*
X137636253Y-93272405D01*
X139598443Y-93472209D02*
X139598443Y-93272405D01*
X132616800Y-93272405D02*
X132251200Y-93272405D01*
X140596253Y-93272405D02*
X140596253Y-93472209D01*
X143915815Y-93272405D02*
X141496800Y-93272405D01*
X122933235Y-93272405D02*
X122744640Y-93461000D01*
X135158443Y-93272405D02*
X135158443Y-93014595D01*
X137960568Y-92698844D02*
X137794128Y-92698844D01*
X135000579Y-92698867D02*
X134834117Y-92698867D01*
X150312806Y-86875414D02*
X143915815Y-93272405D01*
X132251200Y-93272405D02*
X122933235Y-93272405D01*
X139598443Y-93272405D02*
X139598443Y-93014595D01*
X138691348Y-93897099D02*
X138543348Y-93897099D01*
X137211348Y-93897099D02*
X137063348Y-93897099D01*
X138118443Y-93272405D02*
X138118443Y-93014595D01*
X136156253Y-92856731D02*
X136156253Y-93014595D01*
X135158443Y-93472209D02*
X135158443Y-93272405D01*
X133678443Y-93272405D02*
X133678443Y-92986078D01*
X136638443Y-93014595D02*
X136638443Y-92856731D01*
X136638443Y-93272405D02*
X136638443Y-93014595D01*
X135731348Y-93897114D02*
X135583348Y-93897114D01*
X136156253Y-93014595D02*
X136156253Y-93272405D01*
X137636253Y-93272405D02*
X137636253Y-93472194D01*
X150501400Y-71761700D02*
X150312806Y-71950294D01*
X134676253Y-93014595D02*
X134676253Y-93272405D01*
X139116253Y-93014595D02*
X139116253Y-93272405D01*
X134676253Y-92856731D02*
X134676253Y-93014595D01*
X133678443Y-93472194D02*
X133678443Y-93272405D01*
X138118443Y-93014595D02*
X138118443Y-92856719D01*
X135158443Y-93014595D02*
X135158443Y-92856731D01*
X139598443Y-93014595D02*
X139598443Y-92856731D01*
X150312806Y-71950294D02*
X150312806Y-86875414D01*
X140596253Y-92857138D02*
X140596253Y-93014595D01*
X134676253Y-93272405D02*
X134676253Y-93472194D01*
X134251348Y-93897099D02*
X134103348Y-93897099D01*
X139116253Y-92856731D02*
X139116253Y-93014595D01*
X133521021Y-92699751D02*
X133353675Y-92699751D01*
X136638443Y-93472194D02*
X136638443Y-93272405D01*
X140924076Y-92699681D02*
X140753710Y-92699681D01*
X139440579Y-92698867D02*
X139274117Y-92698867D01*
X136156253Y-93272405D02*
X136156253Y-93472209D01*
X140596253Y-93014595D02*
X140596253Y-93272405D01*
X136314117Y-92698867D02*
G75*
G03*
X136156267Y-92856731I-17J-157833D01*
G01*
X137063348Y-93897099D02*
G75*
G02*
X136638401Y-93472194I-48J424899D01*
G01*
X134834117Y-92698867D02*
G75*
G03*
X134676267Y-92856731I-17J-157833D01*
G01*
X135158443Y-92856731D02*
G75*
G03*
X135000579Y-92698857I-157843J31D01*
G01*
X139116253Y-93472194D02*
G75*
G02*
X138691348Y-93897153I-424953J-6D01*
G01*
X139598443Y-92856731D02*
G75*
G03*
X139440579Y-92698857I-157843J31D01*
G01*
X135583348Y-93897114D02*
G75*
G02*
X135158386Y-93472209I-48J424914D01*
G01*
X140753710Y-92699681D02*
G75*
G03*
X140596281Y-92857138I-10J-157419D01*
G01*
X138543348Y-93897099D02*
G75*
G02*
X138118401Y-93472194I-48J424899D01*
G01*
X133196253Y-92857173D02*
G75*
G02*
X132781021Y-93272453I-415253J-27D01*
G01*
X136638443Y-92856731D02*
G75*
G03*
X136480579Y-92698857I-157843J31D01*
G01*
X141081533Y-92857138D02*
G75*
G03*
X140924076Y-92699667I-157433J38D01*
G01*
X137636253Y-93472194D02*
G75*
G02*
X137211348Y-93897153I-424953J-6D01*
G01*
X140596253Y-93472209D02*
G75*
G02*
X140171348Y-93897153I-424953J9D01*
G01*
X134103348Y-93897099D02*
G75*
G02*
X133678401Y-93472194I-48J424899D01*
G01*
X137794128Y-92698844D02*
G75*
G03*
X137636244Y-92856719I-28J-157856D01*
G01*
X133353675Y-92699751D02*
G75*
G03*
X133196251Y-92857173I25J-157449D01*
G01*
X134676253Y-93472194D02*
G75*
G02*
X134251348Y-93897153I-424953J-6D01*
G01*
X138118443Y-92856719D02*
G75*
G03*
X137960568Y-92698857I-157843J19D01*
G01*
X141496800Y-93272405D02*
G75*
G02*
X141081495Y-92857138I0J415305D01*
G01*
X139274117Y-92698867D02*
G75*
G03*
X139116267Y-92856731I-17J-157833D01*
G01*
X133678443Y-92857173D02*
G75*
G03*
X133521021Y-92699757I-157443J-27D01*
G01*
X140023348Y-93897114D02*
G75*
G02*
X139598386Y-93472209I-48J424914D01*
G01*
X136156253Y-93472209D02*
G75*
G02*
X135731348Y-93897153I-424953J9D01*
G01*
%TO.N,PCIE0_TX3_P*%
X135416253Y-93472209D02*
X135416253Y-93272405D01*
X138376253Y-93472194D02*
X138376253Y-93272405D01*
X136896253Y-93472194D02*
X136896253Y-93272405D01*
X140171348Y-93639304D02*
X140023348Y-93639304D01*
X137960568Y-92441034D02*
X137794128Y-92441034D01*
X139856253Y-93272405D02*
X139856253Y-93014595D01*
X135898443Y-93272405D02*
X135898443Y-93472209D01*
X135898443Y-93014595D02*
X135898443Y-93272405D01*
X138691348Y-93639289D02*
X138543348Y-93639289D01*
X139856253Y-93014595D02*
X139856253Y-92856731D01*
X140338443Y-93272405D02*
X140338443Y-93472209D01*
X132251200Y-93014595D02*
X124319440Y-93014595D01*
X138858443Y-93014595D02*
X138858443Y-93272405D01*
X133521021Y-92441941D02*
X133353675Y-92441941D01*
X123499440Y-93014595D02*
X122958635Y-93014595D01*
X132616800Y-93014595D02*
X132251200Y-93014595D01*
X143809025Y-93014595D02*
X141496800Y-93014595D01*
X133936253Y-93472194D02*
X133936253Y-93272405D01*
X140924076Y-92441871D02*
X140753710Y-92441871D01*
X135416253Y-93014595D02*
X135416253Y-92856731D01*
X136896253Y-93272405D02*
X136896253Y-93014595D01*
X137378443Y-93272405D02*
X137378443Y-93472194D01*
X150054994Y-71950294D02*
X150054994Y-86768626D01*
X135898443Y-92856731D02*
X135898443Y-93014595D01*
X138376253Y-93272405D02*
X138376253Y-93014595D01*
X134418443Y-93014595D02*
X134418443Y-93272405D01*
X134251348Y-93639289D02*
X134103348Y-93639289D01*
X140338443Y-93014595D02*
X140338443Y-93272405D01*
X135416253Y-93272405D02*
X135416253Y-93014595D01*
X136896253Y-93014595D02*
X136896253Y-92856731D01*
X138858443Y-93272405D02*
X138858443Y-93472194D01*
X138858443Y-92856731D02*
X138858443Y-93014595D01*
X140338443Y-92857138D02*
X140338443Y-93014595D01*
X149866400Y-71761700D02*
X150054994Y-71950294D01*
X139856253Y-93472209D02*
X139856253Y-93272405D01*
X122958635Y-93014595D02*
X122933235Y-93014595D01*
X135000579Y-92441057D02*
X134834117Y-92441057D01*
X137211348Y-93639289D02*
X137063348Y-93639289D01*
X150054994Y-86768626D02*
X143809025Y-93014595D01*
X133936253Y-93272405D02*
X133936253Y-92986078D01*
X136480579Y-92441057D02*
X136314117Y-92441057D01*
X123745440Y-92824275D02*
X123745440Y-92850595D01*
X122933235Y-93014595D02*
X122744640Y-92826000D01*
X135731348Y-93639304D02*
X135583348Y-93639304D01*
X139440579Y-92441057D02*
X139274117Y-92441057D01*
X138376253Y-93014595D02*
X138376253Y-92856719D01*
X124155440Y-92850595D02*
X124155440Y-92824275D01*
X137378443Y-93014595D02*
X137378443Y-93272405D01*
X123991440Y-92660275D02*
X123909440Y-92660275D01*
X134418443Y-92856731D02*
X134418443Y-93014595D01*
X123581440Y-93014595D02*
X123499440Y-93014595D01*
X137378443Y-92856719D02*
X137378443Y-93014595D01*
X132781021Y-93014595D02*
X132616800Y-93014595D01*
X134418443Y-93272405D02*
X134418443Y-93472194D01*
X133936253Y-92986078D02*
X133936253Y-92857173D01*
X137378443Y-93472194D02*
G75*
G02*
X137211348Y-93639343I-167143J-6D01*
G01*
X138376253Y-92856719D02*
G75*
G03*
X137960568Y-92441047I-415653J19D01*
G01*
X123745440Y-92850595D02*
G75*
G02*
X123581440Y-93014640I-164040J-5D01*
G01*
X137063348Y-93639289D02*
G75*
G02*
X136896211Y-93472194I-48J167089D01*
G01*
X140753710Y-92441871D02*
G75*
G03*
X140338471Y-92857138I-10J-415229D01*
G01*
X134418443Y-93472194D02*
G75*
G02*
X134251348Y-93639343I-167143J-6D01*
G01*
X133936253Y-92857173D02*
G75*
G03*
X133521021Y-92441947I-415253J-27D01*
G01*
X134103348Y-93639289D02*
G75*
G02*
X133936211Y-93472194I-48J167089D01*
G01*
X136896253Y-92856731D02*
G75*
G03*
X136480579Y-92441047I-415653J31D01*
G01*
X134834117Y-92441057D02*
G75*
G03*
X134418457Y-92856731I-17J-415643D01*
G01*
X135583348Y-93639304D02*
G75*
G02*
X135416196Y-93472209I-48J167104D01*
G01*
X123909440Y-92660275D02*
G75*
G03*
X123745375Y-92824275I-40J-164025D01*
G01*
X132938443Y-92857173D02*
G75*
G02*
X132781021Y-93014643I-157443J-27D01*
G01*
X124319440Y-93014595D02*
G75*
G02*
X124155405Y-92850595I-40J163995D01*
G01*
X141496800Y-93014595D02*
G75*
G02*
X141339305Y-92857138I0J157495D01*
G01*
X135416253Y-92856731D02*
G75*
G03*
X135000579Y-92441047I-415653J31D01*
G01*
X140023348Y-93639304D02*
G75*
G02*
X139856196Y-93472209I-48J167104D01*
G01*
X133353675Y-92441941D02*
G75*
G03*
X132938441Y-92857173I25J-415259D01*
G01*
X139856253Y-92856731D02*
G75*
G03*
X139440579Y-92441047I-415653J31D01*
G01*
X139274117Y-92441057D02*
G75*
G03*
X138858457Y-92856731I-17J-415643D01*
G01*
X141339343Y-92857138D02*
G75*
G03*
X140924076Y-92441857I-415243J38D01*
G01*
X137794128Y-92441034D02*
G75*
G03*
X137378434Y-92856719I-28J-415666D01*
G01*
X124155440Y-92824275D02*
G75*
G03*
X123991440Y-92660260I-164040J-25D01*
G01*
X136314117Y-92441057D02*
G75*
G03*
X135898457Y-92856731I-17J-415643D01*
G01*
X138858443Y-93472194D02*
G75*
G02*
X138691348Y-93639343I-167143J-6D01*
G01*
X138543348Y-93639289D02*
G75*
G02*
X138376211Y-93472194I-48J167089D01*
G01*
X135898443Y-93472209D02*
G75*
G02*
X135731348Y-93639343I-167143J9D01*
G01*
X140338443Y-93472209D02*
G75*
G02*
X140171348Y-93639343I-167143J9D01*
G01*
D26*
%TO.N,PCIE_WAKE\u002A*%
X118589200Y-87141700D02*
X119554400Y-86176500D01*
X125145560Y-87096600D02*
X126160320Y-87096600D01*
X117497000Y-87311880D02*
X117667180Y-87141700D01*
X124225460Y-86176500D02*
X125145560Y-87096600D01*
X126656240Y-86600680D02*
X138027820Y-86600680D01*
X117667180Y-87141700D02*
X118589200Y-87141700D01*
X119554400Y-86176500D02*
X124225460Y-86176500D01*
X126160320Y-87096600D02*
X126656240Y-86600680D01*
X138691601Y-85936899D02*
X139686440Y-85936899D01*
X138027820Y-86600680D02*
X138691601Y-85936899D01*
D25*
%TO.N,PCIE0_CLKREQ\u002A*%
X137621420Y-85711680D02*
X138721240Y-84611860D01*
X138721240Y-84611860D02*
X138721240Y-81794700D01*
X125970440Y-85711680D02*
X137621420Y-85711680D01*
X125614840Y-86067280D02*
X125970440Y-85711680D01*
D26*
%TO.N,PCIE0_RST\u002A*%
X119376600Y-85719300D02*
X124454060Y-85719300D01*
X118462200Y-86633700D02*
X119376600Y-85719300D01*
X125348760Y-86614000D02*
X125906320Y-86614000D01*
X117497000Y-86524480D02*
X117606220Y-86633700D01*
X125906320Y-86614000D02*
X126376840Y-86143480D01*
X137824620Y-86143480D02*
X139163200Y-84804900D01*
X139163200Y-84804900D02*
X139163200Y-82317940D01*
X139163200Y-82317940D02*
X139686440Y-81794700D01*
X117606220Y-86633700D02*
X118462200Y-86633700D01*
X126376840Y-86143480D02*
X137824620Y-86143480D01*
X124454060Y-85719300D02*
X125348760Y-86614000D01*
D25*
%TO.N,FAN_TACH*%
X127486820Y-79895080D02*
X127936400Y-79445500D01*
X156797560Y-62036760D02*
X156797560Y-66520120D01*
X151047200Y-59918600D02*
X154679400Y-59918600D01*
X127936400Y-79445500D02*
X127936400Y-66440700D01*
X149751800Y-61214000D02*
X151047200Y-59918600D01*
X140763400Y-64815100D02*
X144364500Y-61214000D01*
X129562000Y-64815100D02*
X140763400Y-64815100D01*
X127936400Y-66440700D02*
X129562000Y-64815100D01*
X144364500Y-61214000D02*
X149751800Y-61214000D01*
X125564040Y-79895080D02*
X127486820Y-79895080D01*
X154679400Y-59918600D02*
X156797560Y-62036760D01*
D27*
%TO.N,FAN_PWM*%
X150793200Y-59334400D02*
X149472400Y-60655200D01*
X126104400Y-72644000D02*
X127171200Y-72644000D01*
X149472400Y-60655200D02*
X144123200Y-60655200D01*
X127834800Y-64230900D02*
X125716440Y-66349260D01*
X155009600Y-59334400D02*
X150793200Y-59334400D01*
X157473000Y-61797800D02*
X155009600Y-59334400D01*
X125716440Y-72256040D02*
X126104400Y-72644000D01*
X140547500Y-64230900D02*
X127834800Y-64230900D01*
X125716440Y-66349260D02*
X125716440Y-72256040D01*
X144123200Y-60655200D02*
X140547500Y-64230900D01*
X157473000Y-66522600D02*
X157473000Y-61797800D01*
D25*
%TO.N,USBC1_FLG*%
X159881980Y-136410080D02*
X165873840Y-136410080D01*
X170467939Y-139082580D02*
X169548039Y-138162680D01*
X169548039Y-138162680D02*
X167626440Y-138162680D01*
X167626440Y-138162680D02*
X165873840Y-136410080D01*
X159881980Y-136410080D02*
X156613000Y-133141100D01*
D28*
%TO.N,/HDMI/HDMI_CEC_5V*%
X129577240Y-60979700D02*
X128510440Y-59912900D01*
X128510440Y-59912900D02*
X121662600Y-59912900D01*
X121662600Y-59912900D02*
X120595800Y-60979700D01*
D23*
%TO.N,/HDMI/HDMI_HPD_5V*%
X132686200Y-60192300D02*
X133676800Y-59201700D01*
X132686200Y-61963400D02*
X132686200Y-60192300D01*
X133676800Y-59201700D02*
X135315600Y-59201700D01*
X135315600Y-59201700D02*
X135759600Y-58757700D01*
D26*
%TO.N,/USB3\u002C Recovery/USBC1_CC2*%
X173485539Y-121917581D02*
X173747840Y-121655280D01*
X174780939Y-135470280D02*
X174780939Y-133133480D01*
X173485539Y-128290381D02*
X173485539Y-121917581D01*
X172122240Y-136057080D02*
X174194139Y-136057080D01*
X174222139Y-132574680D02*
X173135643Y-132574680D01*
X173135643Y-132574680D02*
X172376243Y-131815280D01*
X174194139Y-136057080D02*
X174780939Y-135470280D01*
X172325440Y-129450480D02*
X173485539Y-128290381D01*
X174780939Y-133133480D02*
X174222139Y-132574680D01*
%TO.N,/USB3\u002C Recovery/USBC1_CC1*%
X170318840Y-129450480D02*
X170318840Y-127537179D01*
X172799739Y-126631080D02*
X172799739Y-121424080D01*
X170716939Y-127139080D02*
X172291739Y-127139080D01*
X172799739Y-121424080D02*
X173203542Y-121020277D01*
X170318840Y-127537179D02*
X170716939Y-127139080D01*
X173203542Y-121020277D02*
X173747840Y-121020277D01*
X172291739Y-127139080D02*
X172799739Y-126631080D01*
D25*
%TO.N,MCLK_CAM1*%
X114157413Y-96248113D02*
X115150040Y-97240740D01*
X112747200Y-96248113D02*
X114157413Y-96248113D01*
X115150040Y-101279340D02*
X117006780Y-103136080D01*
X117006780Y-103136080D02*
X122922440Y-103136080D01*
X115150040Y-97240740D02*
X115150040Y-101279340D01*
%TO.N,MCLK_CAM3*%
X128520600Y-79859520D02*
X128520600Y-66643900D01*
X153323187Y-60528200D02*
X153881987Y-61087000D01*
X151326600Y-60528200D02*
X153323187Y-60528200D01*
X122922016Y-77758506D02*
X123656066Y-77758506D01*
X150082000Y-61772800D02*
X151326600Y-60528200D01*
X124903640Y-80631680D02*
X127748440Y-80631680D01*
X144643900Y-61772800D02*
X150082000Y-61772800D01*
X129790600Y-65373900D02*
X141042800Y-65373900D01*
X141042800Y-65373900D02*
X144643900Y-61772800D01*
X127748440Y-80631680D02*
X128520600Y-79859520D01*
X124294040Y-78396480D02*
X124294040Y-80022080D01*
X124294040Y-80022080D02*
X124903640Y-80631680D01*
X128520600Y-66643900D02*
X129790600Y-65373900D01*
X123656066Y-77758506D02*
X124294040Y-78396480D01*
D26*
%TO.N,~{USBC1_INT}*%
X172088539Y-138467480D02*
X172088539Y-140192739D01*
X172658602Y-140762802D02*
X173881800Y-140762802D01*
X177092339Y-137451480D02*
X176609739Y-137934080D01*
X172088539Y-140192739D02*
X172658602Y-140762802D01*
X177092339Y-129573778D02*
X177092339Y-137451480D01*
X172621939Y-137934080D02*
X172088539Y-138467480D01*
X176609739Y-137934080D02*
X172621939Y-137934080D01*
X174967040Y-127448479D02*
X177092339Y-129573778D01*
%TO.N,/USB3\u002C Recovery/USBC1_ID*%
X177016139Y-138721480D02*
X177879739Y-137857880D01*
X174647000Y-139338019D02*
X174647000Y-142059000D01*
X174179640Y-125521781D02*
X174179640Y-123077680D01*
D25*
X174179640Y-122228579D02*
X174179640Y-123077680D01*
D26*
X174364400Y-142341600D02*
X173424600Y-142341600D01*
X175263539Y-138721480D02*
X177016139Y-138721480D01*
X175263539Y-138721480D02*
X174647000Y-139338019D01*
X172840400Y-139192000D02*
X173310920Y-138721480D01*
X163204639Y-141388480D02*
X162458639Y-142134480D01*
X177879739Y-137857880D02*
X177879739Y-129221880D01*
X172471480Y-141388480D02*
X163204639Y-141388480D01*
X173424600Y-142341600D02*
X172471480Y-141388480D01*
D25*
X174347280Y-118663160D02*
X174347280Y-122060939D01*
D26*
X173310920Y-138721480D02*
X175263539Y-138721480D01*
D25*
X174347280Y-122060939D02*
X174179640Y-122228579D01*
D26*
X177879739Y-129221880D02*
X174179640Y-125521781D01*
X174647000Y-142059000D02*
X174364400Y-142341600D01*
%TO.N,CAM3_PEN*%
X136470800Y-63293600D02*
X136470800Y-61388600D01*
X143859000Y-60096400D02*
X147846800Y-60096400D01*
X127555400Y-63722900D02*
X136041500Y-63722900D01*
X149142200Y-58801000D02*
X155314400Y-58801000D01*
X161740600Y-60452000D02*
X162578800Y-59613800D01*
X147846800Y-60096400D02*
X149142200Y-58801000D01*
X155314400Y-58801000D02*
X156965400Y-60452000D01*
X125066200Y-66212100D02*
X127555400Y-63722900D01*
X168344600Y-59613800D02*
X168855800Y-59102600D01*
X136041500Y-63722900D02*
X136470800Y-63293600D01*
X125434500Y-75648200D02*
X125066200Y-75279900D01*
X162578800Y-59613800D02*
X168344600Y-59613800D01*
X127381599Y-75648200D02*
X125434500Y-75648200D01*
X136899400Y-60960000D02*
X142995400Y-60960000D01*
X168855800Y-59102600D02*
X168855800Y-58490500D01*
X156965400Y-60452000D02*
X161740600Y-60452000D01*
X136470800Y-61388600D02*
X136899400Y-60960000D01*
X125066200Y-75279900D02*
X125066200Y-66212100D01*
X142995400Y-60960000D02*
X143859000Y-60096400D01*
%TO.N,CAM3_FLG*%
X169233600Y-57861200D02*
X169668600Y-58296200D01*
X133346600Y-60408200D02*
X133918100Y-59836700D01*
X124482000Y-75965700D02*
X124482000Y-65983500D01*
X127381599Y-76613400D02*
X125129700Y-76613400D01*
X161689800Y-58394600D02*
X162223200Y-57861200D01*
X137655700Y-59836700D02*
X138194800Y-60375800D01*
X138194800Y-60375800D02*
X142766800Y-60375800D01*
X161359600Y-59918600D02*
X161689800Y-59588400D01*
X133918100Y-59836700D02*
X137655700Y-59836700D01*
X162223200Y-57861200D02*
X169233600Y-57861200D01*
X124482000Y-65983500D02*
X127301400Y-63164100D01*
X133346600Y-62503700D02*
X133346600Y-60408200D01*
X148837400Y-58293000D02*
X155593800Y-58293000D01*
X169668600Y-58296200D02*
X169668600Y-61033000D01*
X132686200Y-63164100D02*
X133346600Y-62503700D01*
X125129700Y-76613400D02*
X124482000Y-75965700D01*
X169668600Y-61033000D02*
X169239300Y-61462300D01*
X161689800Y-59588400D02*
X161689800Y-58394600D01*
X155593800Y-58293000D02*
X157219400Y-59918600D01*
X142766800Y-60375800D02*
X143605000Y-59537600D01*
X147592800Y-59537600D02*
X148837400Y-58293000D01*
X157219400Y-59918600D02*
X161359600Y-59918600D01*
X127301400Y-63164100D02*
X132686200Y-63164100D01*
X143605000Y-59537600D02*
X147592800Y-59537600D01*
X169239300Y-61462300D02*
X168818200Y-61462300D01*
%TD*%
%TA.AperFunction,Conductor*%
%TO.N,Net-(Q2-D)*%
G36*
X122613777Y-82109173D02*
G01*
X122694415Y-82130780D01*
X122694417Y-82130780D01*
X122794863Y-82130780D01*
X122794865Y-82130780D01*
X122875503Y-82109173D01*
X122908114Y-82104880D01*
X132042040Y-82104880D01*
X132110161Y-82124882D01*
X132156654Y-82178538D01*
X132168040Y-82230880D01*
X132168040Y-85355310D01*
X132148038Y-85423431D01*
X132094382Y-85469924D01*
X132042040Y-85481310D01*
X125921279Y-85481310D01*
X125903308Y-85483080D01*
X122515040Y-85483080D01*
X122446919Y-85463078D01*
X122400426Y-85409422D01*
X122389040Y-85357080D01*
X122389040Y-82230880D01*
X122391631Y-82222054D01*
X122390322Y-82212948D01*
X122401477Y-82188522D01*
X122409042Y-82162759D01*
X122415995Y-82156734D01*
X122419816Y-82148368D01*
X122442401Y-82133853D01*
X122462698Y-82116266D01*
X122473384Y-82113941D01*
X122479542Y-82109984D01*
X122515040Y-82104880D01*
X122581166Y-82104880D01*
X122613777Y-82109173D01*
G37*
%TD.AperFunction*%
%TD*%
M02*
