%TF.GenerationSoftware,KiCad,Pcbnew,9.0.7*%
%TF.CreationDate,2026-02-05T17:24:16-05:00*%
%TF.ProjectId,jetson-orin-baseboard,6a657473-6f6e-42d6-9f72-696e2d626173,v1*%
%TF.SameCoordinates,Original*%
%TF.FileFunction,Copper,L3,Inr*%
%TF.FilePolarity,Positive*%
%FSLAX46Y46*%
G04 Gerber Fmt 4.6, Leading zero omitted, Abs format (unit mm)*
G04 Created by KiCad (PCBNEW 9.0.7) date 2026-02-05 17:24:16*
%MOMM*%
%LPD*%
G01*
G04 APERTURE LIST*
%TA.AperFunction,ComponentPad*%
%ADD10C,0.650000*%
%TD*%
%TA.AperFunction,ComponentPad*%
%ADD11O,1.000000X1.600000*%
%TD*%
%TA.AperFunction,ComponentPad*%
%ADD12C,0.762000*%
%TD*%
%TA.AperFunction,ComponentPad*%
%ADD13C,6.350000*%
%TD*%
%TA.AperFunction,ComponentPad*%
%ADD14O,1.000000X2.100000*%
%TD*%
%TA.AperFunction,ComponentPad*%
%ADD15O,1.000000X1.800000*%
%TD*%
%TA.AperFunction,ComponentPad*%
%ADD16O,1.200000X1.900000*%
%TD*%
%TA.AperFunction,ComponentPad*%
%ADD17O,1.200000X1.700000*%
%TD*%
%TA.AperFunction,ComponentPad*%
%ADD18C,3.100000*%
%TD*%
%TA.AperFunction,ComponentPad*%
%ADD19R,2.400000X2.200000*%
%TD*%
%TA.AperFunction,ComponentPad*%
%ADD20O,2.400000X2.200000*%
%TD*%
%TA.AperFunction,ViaPad*%
%ADD21C,0.508000*%
%TD*%
%TA.AperFunction,Conductor*%
%ADD22C,0.130810*%
%TD*%
%TA.AperFunction,Conductor*%
%ADD23C,0.159512*%
%TD*%
%TA.AperFunction,Conductor*%
%ADD24C,0.889000*%
%TD*%
%TA.AperFunction,Conductor*%
%ADD25C,0.114300*%
%TD*%
%TA.AperFunction,Conductor*%
%ADD26C,0.151003*%
%TD*%
%TA.AperFunction,Conductor*%
%ADD27C,0.508000*%
%TD*%
%TA.AperFunction,Conductor*%
%ADD28C,0.203200*%
%TD*%
%TA.AperFunction,Conductor*%
%ADD29C,0.150000*%
%TD*%
G04 APERTURE END LIST*
D10*
%TO.N,GND*%
%TO.C,J5*%
X174132840Y-134340080D03*
%TO.N,/USB3\u002C Recovery/USBC1_CONN_TX2_N*%
X173732840Y-135041080D03*
%TO.N,/USB3\u002C Recovery/USBC1_CONN_TX2_P*%
X172932840Y-135041080D03*
%TO.N,/USB3\u002C Recovery/USBC1_VBUS*%
X172533840Y-134340080D03*
%TO.N,/USB3\u002C Recovery/USBC1_CC2*%
X172133840Y-135041080D03*
%TO.N,USB0_D_P*%
X171733840Y-134340080D03*
%TO.N,USB0_D_N*%
X170932840Y-134340080D03*
%TO.N,unconnected-(J5-SBU2-PadB8)*%
X170532840Y-135041080D03*
%TO.N,/USB3\u002C Recovery/USBC1_VBUS*%
X170132840Y-134340080D03*
%TO.N,/USB3\u002C Recovery/USBC1_RX1_N*%
X169733840Y-135041080D03*
%TO.N,/USB3\u002C Recovery/USBC1_RX1_P*%
X168932840Y-135041080D03*
%TO.N,GND*%
X168532840Y-134340080D03*
D11*
X167063840Y-135490080D03*
X167063840Y-140220080D03*
D10*
X169333840Y-134340080D03*
X173333840Y-134340080D03*
D11*
X175603840Y-135490080D03*
X175603840Y-140220080D03*
%TD*%
D12*
%TO.N,GND*%
%TO.C,H2*%
X107495750Y-143110600D03*
X108193202Y-141426802D03*
X108193202Y-144794398D03*
X109877000Y-140729350D03*
D13*
X109877000Y-143110600D03*
D12*
X109877000Y-145491850D03*
X111560798Y-141426802D03*
X111560798Y-144794398D03*
X112258250Y-143110600D03*
%TD*%
D14*
%TO.N,GND*%
%TO.C,J3*%
X124114240Y-137882261D03*
D15*
X124114240Y-142062261D03*
D14*
X132754240Y-137882261D03*
D15*
X132754240Y-142062261D03*
%TD*%
D12*
%TO.N,GND*%
%TO.C,H3*%
X111305750Y-57385600D03*
X112003202Y-55701802D03*
X112003202Y-59069398D03*
X113687000Y-55004350D03*
D13*
X113687000Y-57385600D03*
D12*
X113687000Y-59766850D03*
X115370798Y-55701802D03*
X115370798Y-59069398D03*
X116068250Y-57385600D03*
%TD*%
%TO.N,GND*%
%TO.C,H1*%
X187505750Y-143110600D03*
X188203202Y-141426802D03*
X188203202Y-144794398D03*
X189887000Y-140729350D03*
D13*
X189887000Y-143110600D03*
D12*
X189887000Y-145491850D03*
X191570798Y-141426802D03*
X191570798Y-144794398D03*
X192268250Y-143110600D03*
%TD*%
%TO.N,GND*%
%TO.C,H4*%
X184965750Y-57385600D03*
X185663202Y-55701802D03*
X185663202Y-59069398D03*
X187347000Y-55004350D03*
D13*
X187347000Y-57385600D03*
D12*
X187347000Y-59766850D03*
X189030798Y-55701802D03*
X189030798Y-59069398D03*
X189728250Y-57385600D03*
%TD*%
D16*
%TO.N,GND*%
%TO.C,J13*%
X134352000Y-61894600D03*
D17*
X134352000Y-57394600D03*
D16*
X123503000Y-61894600D03*
D17*
X123503000Y-57394600D03*
%TD*%
D18*
%TO.N,GND*%
%TO.C,H6*%
X162114640Y-132092080D03*
%TD*%
D19*
%TO.N,GND*%
%TO.C,J4*%
X190624060Y-72600499D03*
D20*
%TO.N,VBATT*%
X190624060Y-75140501D03*
%TD*%
D18*
%TO.N,GND*%
%TO.C,H5*%
X143673800Y-120981820D03*
%TD*%
%TO.N,GND*%
%TO.C,H7*%
X162101940Y-68493020D03*
%TD*%
D21*
%TO.N,GND*%
X161606640Y-85610080D03*
X187055000Y-130758090D03*
X150925799Y-74454100D03*
X187055002Y-110398086D03*
X111829600Y-92557600D03*
X140423040Y-74454100D03*
X114652200Y-89142500D03*
X184222799Y-66331480D03*
X181479360Y-89988800D03*
X162292440Y-84924280D03*
X166864440Y-66153680D03*
X125587820Y-92393500D03*
X123100240Y-133895581D03*
X114692840Y-132142880D03*
X105470042Y-66001280D03*
X122881800Y-119907700D03*
X188579000Y-115458110D03*
X118147240Y-64680480D03*
X171334840Y-130621480D03*
X171893640Y-92137880D03*
X126529000Y-61962920D03*
X134718200Y-141713701D03*
X164004400Y-60357700D03*
X118230400Y-107143536D03*
X125675800Y-133395100D03*
X162292440Y-85610080D03*
X153882015Y-137255900D03*
X118230400Y-105638600D03*
X167778840Y-83171680D03*
X114652200Y-87649700D03*
X147923000Y-76835000D03*
X133324800Y-77171900D03*
X149425800Y-74454100D03*
X180377240Y-62546880D03*
X171934400Y-72529200D03*
X118833040Y-65366280D03*
X163664040Y-85610080D03*
X180377240Y-61861080D03*
X135749440Y-61754100D03*
X106115360Y-75864100D03*
X125538640Y-118393499D03*
X179005640Y-61861080D03*
X109511240Y-65252600D03*
X144925800Y-77927200D03*
X179256561Y-113067480D03*
X160235040Y-97573480D03*
X118833040Y-64680480D03*
X191400840Y-112897300D03*
X190950600Y-70485000D03*
X112747200Y-104261300D03*
X131634640Y-138244061D03*
X171934400Y-73316600D03*
X117483400Y-81643500D03*
X165492840Y-65467880D03*
X152078620Y-62186600D03*
X113629600Y-118613800D03*
X170537939Y-142765580D03*
X149168600Y-95097600D03*
X106115360Y-70918501D03*
X179823760Y-88688800D03*
X164807040Y-65467880D03*
X160031986Y-137357602D03*
X179691440Y-63232680D03*
X167778840Y-81800080D03*
X185479600Y-92196600D03*
X139732014Y-61614598D03*
X171893640Y-92925280D03*
X122744640Y-81749280D03*
X160257401Y-101299701D03*
X180081561Y-107657280D03*
X117268400Y-95447500D03*
X186966000Y-102248100D03*
X149421600Y-77927200D03*
X175853440Y-120690080D03*
X160235040Y-96201880D03*
X106905200Y-82869920D03*
X117268400Y-107142500D03*
X166864440Y-64782080D03*
X168236040Y-66153680D03*
X173742600Y-67598801D03*
X179005640Y-62546880D03*
X192322200Y-69113400D03*
X162978240Y-96887680D03*
X150920200Y-76835000D03*
X160920840Y-84924280D03*
X190264800Y-70485000D03*
X108073600Y-78667000D03*
X166138000Y-90773600D03*
X184212640Y-65544080D03*
X140430000Y-77927200D03*
X169150440Y-83171680D03*
X181748840Y-62546880D03*
X160031986Y-61614598D03*
X160235040Y-84924280D03*
X160920840Y-85610080D03*
X122881800Y-121609500D03*
X165492840Y-64782080D03*
X117268400Y-102635700D03*
X164807040Y-64782080D03*
X160031986Y-138119602D03*
X167550240Y-65467880D03*
X171934400Y-77253600D03*
X149107000Y-102991300D03*
X170468200Y-58515900D03*
X140430000Y-76835000D03*
X118147240Y-65366280D03*
X129838801Y-132949781D03*
X160235040Y-85610080D03*
X146707000Y-99473100D03*
X129492040Y-102882280D03*
X114220400Y-114141900D03*
X162978240Y-84238480D03*
X137232800Y-63354100D03*
X161606640Y-84924280D03*
X125585859Y-87892499D03*
X146424400Y-77927200D03*
X162531200Y-58795199D03*
X117471600Y-124403500D03*
X178319840Y-61861080D03*
X113151180Y-65917959D03*
X181748840Y-63232680D03*
X109508400Y-124598700D03*
X118230400Y-100152200D03*
X143420240Y-74454100D03*
X112709742Y-90098114D03*
X121347640Y-64680480D03*
X166138000Y-95295400D03*
X171893640Y-96074880D03*
X191636400Y-69113400D03*
X177531401Y-112425880D03*
X138924440Y-74454100D03*
X125538640Y-113893500D03*
X111848040Y-64680480D03*
X182962960Y-122506120D03*
X125538640Y-115531280D03*
X151881986Y-63341900D03*
X133654240Y-124985261D03*
X158378620Y-59436600D03*
X160235040Y-96887680D03*
X170078440Y-137400680D03*
X117268400Y-93313900D03*
X186966000Y-93248100D03*
X182937560Y-123344320D03*
X117268400Y-104143500D03*
X147916040Y-74454100D03*
X170420440Y-123001480D03*
X146424800Y-74454100D03*
X174347280Y-131667960D03*
X126173640Y-119714461D03*
X160235040Y-84238480D03*
X143427200Y-77927200D03*
X168236040Y-65467880D03*
X128927000Y-61957600D03*
X166178640Y-68985480D03*
X171205640Y-139839080D03*
X190264800Y-69113400D03*
X143427200Y-76835000D03*
X161606640Y-96201880D03*
X165492840Y-66153680D03*
X174001840Y-127448479D03*
X178319840Y-63232680D03*
X163664040Y-96201880D03*
X163664040Y-84924280D03*
X132676040Y-133145981D03*
X165544840Y-142125080D03*
X166161400Y-101349301D03*
X122881800Y-127393499D03*
X162292440Y-96887680D03*
X166188800Y-76524800D03*
X162978240Y-97573480D03*
X114652200Y-90642500D03*
X166178640Y-66153680D03*
X105929840Y-62394480D03*
X122881800Y-128893501D03*
X133324800Y-76501080D03*
X167636600Y-95295400D03*
X113629600Y-124613800D03*
X118230400Y-101650800D03*
X172249240Y-123004479D03*
X180377240Y-63232680D03*
X154025800Y-75800300D03*
X191636400Y-69799200D03*
X108352899Y-87598900D03*
X118230400Y-104143500D03*
X192322200Y-69799200D03*
X191636400Y-70485000D03*
X142881986Y-66135900D03*
X167778840Y-82485880D03*
X112972600Y-92100400D03*
X111185742Y-90098114D03*
X111185742Y-130758090D03*
X117268400Y-105642500D03*
X171893640Y-93712680D03*
X125675800Y-132709300D03*
X187118400Y-118608100D03*
X182962960Y-121609500D03*
X111829600Y-93218000D03*
X163329359Y-138302120D03*
X173732600Y-86326399D03*
X150872600Y-134309500D03*
X114242600Y-116560600D03*
X168302080Y-129450480D03*
X133324800Y-75825700D03*
X154025800Y-76501080D03*
X109511240Y-66673880D03*
X188579002Y-110398086D03*
X166442800Y-61279000D03*
X141924800Y-74454100D03*
X171893640Y-95287480D03*
X131050440Y-107733480D03*
X188579000Y-130758090D03*
X160031986Y-63138598D03*
X131949600Y-66047000D03*
X171934400Y-76466200D03*
X111185742Y-115458110D03*
X150920200Y-77927200D03*
X114695020Y-129143500D03*
X112747200Y-107248114D03*
X139732014Y-138881602D03*
X117268400Y-100146500D03*
X122312840Y-133895581D03*
X188579002Y-90098114D03*
X179691440Y-61861080D03*
X128460000Y-126465581D03*
X125259240Y-138244061D03*
X117263000Y-98642500D03*
X109915400Y-86133320D03*
X160920840Y-96887680D03*
X162292440Y-84238480D03*
X139732014Y-138119602D03*
X149528620Y-59436600D03*
X125589440Y-99393500D03*
X113629600Y-122613800D03*
X168464640Y-82485880D03*
X162978240Y-85610080D03*
X133654240Y-127931661D03*
X114220400Y-112643300D03*
X165556640Y-137400680D03*
X117461440Y-132142880D03*
X179005640Y-63232680D03*
X187055002Y-90098114D03*
X130127000Y-61957600D03*
X147882014Y-137249286D03*
X181063040Y-63232680D03*
X141928600Y-76835000D03*
X117460660Y-130643500D03*
X163664040Y-97573480D03*
X181063040Y-62546880D03*
X113607600Y-127635000D03*
X130578000Y-67177300D03*
X108327600Y-72384300D03*
X112709742Y-110398086D03*
X152418800Y-77927200D03*
X138931400Y-77927200D03*
X188290819Y-77765500D03*
X187055000Y-115458110D03*
X190264800Y-69799200D03*
X164807040Y-66153680D03*
X135644700Y-77819900D03*
X161606640Y-96887680D03*
X169150440Y-81800080D03*
X122883100Y-122893500D03*
X160920840Y-96201880D03*
X162292440Y-97573480D03*
X187274819Y-77765500D03*
X181063040Y-61861080D03*
X112747200Y-101238700D03*
X110836700Y-83694920D03*
X111947742Y-110398086D03*
X117471600Y-121888900D03*
X106905200Y-73984500D03*
X162978240Y-96201880D03*
X114693860Y-133642500D03*
X156882014Y-137255900D03*
X166178640Y-64782080D03*
X171934400Y-74104000D03*
X161606640Y-97573480D03*
X126336200Y-134989780D03*
X125586420Y-93893500D03*
X117471600Y-123143500D03*
X122884500Y-124393500D03*
X134149240Y-133145980D03*
X169517940Y-139082580D03*
X117268400Y-101645100D03*
X139732014Y-137357602D03*
X160031986Y-138881602D03*
X114693620Y-130643500D03*
X111058400Y-127672100D03*
X141928600Y-77927200D03*
X112709742Y-130758090D03*
X152647400Y-97536000D03*
X192322200Y-70485000D03*
X186966000Y-99257500D03*
X187817000Y-115458110D03*
X171893640Y-91350480D03*
X181748840Y-61861080D03*
X167662000Y-76524800D03*
X138716160Y-129337101D03*
X144925800Y-76835000D03*
X168236040Y-64782080D03*
X179306561Y-111594280D03*
X125585021Y-95393499D03*
X154025800Y-77197300D03*
X160031986Y-62376598D03*
X171893640Y-94500080D03*
X129424840Y-121264461D03*
X139732014Y-63138598D03*
X189868700Y-81528799D03*
X111947742Y-90098114D03*
X125538640Y-116893500D03*
X114220400Y-115640500D03*
X148220840Y-87141700D03*
X163664040Y-96887680D03*
X166760840Y-122493480D03*
X167267800Y-57347500D03*
X111947000Y-115458110D03*
X171934400Y-75678800D03*
X161606640Y-84238480D03*
X138094360Y-127531500D03*
X184803800Y-83743800D03*
X127728000Y-61962800D03*
X178319840Y-62546880D03*
X187817000Y-130758090D03*
X142876260Y-130112101D03*
X125540801Y-108393501D03*
X166178640Y-65467880D03*
X160920840Y-84238480D03*
X169150440Y-82485880D03*
X122751600Y-97688400D03*
X155339800Y-66497200D03*
X184715320Y-88688800D03*
X106930600Y-66720100D03*
X152157840Y-87141700D03*
X166864440Y-65467880D03*
X187817002Y-90098114D03*
X162978240Y-84924280D03*
X111946060Y-130758090D03*
X138931400Y-76835000D03*
X147923000Y-77927200D03*
X149421600Y-76835000D03*
X177993200Y-89988800D03*
X118230400Y-98642500D03*
X136179000Y-69514100D03*
X122751638Y-101095464D03*
X125327001Y-61957600D03*
X167550240Y-66153680D03*
X114655200Y-92142500D03*
X137232800Y-141718781D03*
X186966000Y-96234900D03*
X134926800Y-74454100D03*
X131088840Y-77761480D03*
X181324000Y-91490800D03*
X160920840Y-97573480D03*
X125588660Y-90892500D03*
X144925800Y-74454100D03*
X148891400Y-63341900D03*
X139732014Y-62376598D03*
X137242960Y-129287101D03*
X179691440Y-62546880D03*
X125538640Y-112393500D03*
X129513440Y-74510280D03*
X190950600Y-69799200D03*
X128438600Y-133563581D03*
X121347640Y-65366280D03*
X122881800Y-125893500D03*
X146424400Y-76835000D03*
X163664040Y-84238480D03*
X152418800Y-76835000D03*
X187817002Y-110398086D03*
X167550240Y-64782080D03*
X190950600Y-69113400D03*
X162292440Y-96201880D03*
X168464640Y-83171680D03*
X168464640Y-81800080D03*
X145881985Y-66135900D03*
X127027201Y-132949781D03*
X114709600Y-74143500D03*
X171334840Y-123001480D03*
X179513640Y-78892080D03*
X122876260Y-131893500D03*
X125587261Y-89392501D03*
X171934400Y-74891400D03*
X112747200Y-98248114D03*
X112972600Y-93700600D03*
X152426800Y-74454100D03*
X122881800Y-130393500D03*
%TO.N,CSI1_D0_N*%
X108378400Y-106065614D03*
X114093400Y-133210003D03*
%TO.N,CSI0_D0_N*%
X155698600Y-137433700D03*
X121078400Y-132960001D03*
%TO.N,CSI1_D0_P*%
X108378400Y-105430614D03*
X114093400Y-132575000D03*
%TO.N,CSI0_D0_P*%
X121078400Y-132325001D03*
X155063600Y-137433700D03*
%TO.N,CSI1_CLK_N*%
X109848400Y-100065615D03*
X114093400Y-131711080D03*
%TO.N,CSI0_CLK_N*%
X149699500Y-137433700D03*
X121804840Y-131457080D03*
%TO.N,CSI1_CLK_P*%
X109848400Y-99430615D03*
X114093400Y-131076080D03*
%TO.N,CSI0_CLK_P*%
X121804840Y-130822077D03*
X149064500Y-137433700D03*
%TO.N,CSI1_D1_N*%
X114093400Y-130212480D03*
X112239200Y-103065614D03*
%TO.N,CSI0_D1_N*%
X121804840Y-129961000D03*
X152699514Y-137435723D03*
%TO.N,CSI1_D1_P*%
X114093400Y-129576000D03*
X112239200Y-102430614D03*
%TO.N,CSI0_D1_P*%
X121804840Y-129326000D03*
X152064514Y-137435723D03*
%TO.N,CSI3_D0_N*%
X117461440Y-128711000D03*
X144064486Y-66238920D03*
%TO.N,CSI2_D0_N*%
X121804840Y-128461000D03*
X187220000Y-94430586D03*
%TO.N,CSI3_D0_P*%
X117461440Y-128076000D03*
X144699486Y-66238920D03*
%TO.N,CSI2_D0_P*%
X187220000Y-95065586D03*
X121804840Y-127826000D03*
%TO.N,CSI3_CLK_N*%
X117461440Y-127215280D03*
X150059800Y-66237500D03*
%TO.N,CSI2_CLK_N*%
X183714800Y-100430585D03*
X121804840Y-126961001D03*
%TO.N,CSI3_CLK_P*%
X150694800Y-66237500D03*
X117461440Y-126576000D03*
%TO.N,CSI2_CLK_P*%
X183714800Y-101065585D03*
X121804840Y-126326001D03*
%TO.N,CSI3_D1_N*%
X147062600Y-66237500D03*
X117461440Y-125711000D03*
%TO.N,CSI2_D1_N*%
X121804840Y-125461000D03*
X183689400Y-97430586D03*
%TO.N,CSI3_D1_P*%
X147697600Y-66237500D03*
X117461440Y-125076000D03*
%TO.N,CSI2_D1_P*%
X121804840Y-124826000D03*
X183689400Y-98065586D03*
%TO.N,USB0_D_N*%
X171741240Y-131815280D03*
X117747800Y-106710003D03*
X171665040Y-129450480D03*
%TO.N,PCIE0_RX0_N*%
X117747800Y-101210000D03*
X142992801Y-77375100D03*
%TO.N,PCIE0_RX0_P*%
X142357801Y-77375100D03*
X117747800Y-100575000D03*
%TO.N,PCIE0_RX1_N*%
X117747800Y-99714700D03*
X145992800Y-77375100D03*
%TO.N,PCIE0_RX1_P*%
X145357800Y-77375100D03*
X117747800Y-99075500D03*
%TO.N,PCIE0_RX2_N*%
X117483546Y-94711000D03*
X148995540Y-77375100D03*
%TO.N,PCIE0_RX2_P*%
X148360540Y-77375100D03*
X117483546Y-94076000D03*
%TO.N,PCIE0_RX3_N*%
X112518600Y-93211000D03*
X151993800Y-77375100D03*
%TO.N,PCIE0_RX3_P*%
X112518600Y-92576000D03*
X151358800Y-77375100D03*
%TO.N,PCIE0_CLK_N*%
X139992800Y-77375100D03*
X137552840Y-96265380D03*
%TO.N,PCIE0_CLK_P*%
X137552840Y-95630380D03*
X139357800Y-77375100D03*
%TO.N,SDA_CAM*%
X153563799Y-93370399D03*
X114572800Y-78079600D03*
%TO.N,/SoM/~{FORCE_RECOVERY}*%
X107715360Y-75864100D03*
X122925420Y-78393500D03*
%TO.N,SCL_CAM*%
X153563800Y-92405201D03*
X114572800Y-78714603D03*
%TO.N,~{RESET}*%
X170710000Y-81718800D03*
X117497000Y-72148080D03*
X164003400Y-103293300D03*
X165592441Y-80098281D03*
X111340040Y-63334280D03*
%TO.N,+3V3*%
X160920840Y-89521680D03*
X164004400Y-61729500D03*
X146707000Y-101023100D03*
X160235040Y-90207480D03*
X108365400Y-86133320D03*
X150657000Y-102991300D03*
X149206000Y-81042319D03*
X134629000Y-69514100D03*
X131063440Y-74510280D03*
X111058400Y-123608100D03*
X153631040Y-88017700D03*
X160920840Y-90207480D03*
X153631040Y-89440100D03*
X131042040Y-102882280D03*
X170090240Y-121020280D03*
X144522600Y-132123101D03*
X180856561Y-111594280D03*
X161606640Y-89521680D03*
X111287200Y-86133320D03*
X145462400Y-132125100D03*
X160235040Y-90893280D03*
X133027700Y-83870800D03*
X161606640Y-90893280D03*
X181047800Y-106260280D03*
X137194700Y-77819900D03*
X166790840Y-121553680D03*
X176658680Y-122854160D03*
X138706000Y-130879181D03*
X160920840Y-90893280D03*
X155797000Y-68093699D03*
X153631040Y-88728900D03*
X126173640Y-121264461D03*
X110959602Y-95269700D03*
X160235040Y-89521680D03*
X110959602Y-94253700D03*
X138715801Y-80134261D03*
X161606640Y-90207480D03*
X164004400Y-58807700D03*
%TO.N,+5V*%
X167093640Y-142125080D03*
X153328620Y-66229720D03*
%TO.N,+1V8*%
X168506900Y-102710202D03*
X129424840Y-119714461D03*
X172832138Y-142765580D03*
X112740002Y-79222600D03*
X170468200Y-59989100D03*
X168506900Y-102075202D03*
X153726399Y-98679000D03*
X139744360Y-126059401D03*
X152653561Y-95174880D03*
X158905760Y-65669521D03*
X137232800Y-60407700D03*
X111020000Y-79669520D03*
X109508400Y-127672100D03*
X173881800Y-141782800D03*
X173875440Y-139907198D03*
X129501040Y-107733480D03*
X129538840Y-77761480D03*
X176394481Y-109307280D03*
%TO.N,USB_FLASH_ID*%
X117497000Y-112143500D03*
X164108638Y-142134480D03*
%TO.N,3V3_STDB*%
X180602800Y-84691600D03*
X185479600Y-84678400D03*
X166612439Y-80123680D03*
X106095040Y-63951281D03*
X112740000Y-78282800D03*
X188007400Y-65107400D03*
X179129600Y-92881600D03*
X182253800Y-92881600D03*
X170943801Y-62903601D03*
X109521400Y-71304300D03*
X112377400Y-73814320D03*
%TO.N,Net-(D1-K)*%
X151726040Y-81007300D03*
%TO.N,USBSS2_RX_N*%
X117486840Y-121211000D03*
X168123540Y-118071280D03*
%TO.N,Net-(U1-V_{CC})*%
X170903040Y-70585480D03*
X173034100Y-69895100D03*
X166178640Y-70535480D03*
X173316040Y-62115080D03*
%TO.N,USBSS2_RX_P*%
X117486840Y-120576000D03*
X168758540Y-118071280D03*
%TO.N,USBSS2_TX_N*%
X117485609Y-119711000D03*
X170053940Y-118096680D03*
%TO.N,/SoM/DEBUG_TXD_1V8*%
X122780200Y-72943100D03*
%TO.N,USBSS2_TX_P*%
X117485609Y-119076000D03*
X170688940Y-118096680D03*
%TO.N,Net-(U29-V_{CC})*%
X173288800Y-81706599D03*
X170926600Y-89300200D03*
X172919800Y-88475200D03*
X166138000Y-89288000D03*
%TO.N,/M.2/M2_M_SMB_CLK*%
X143496440Y-81794700D03*
%TO.N,/M.2/M2_M_SMB_DATA*%
X142810643Y-81794700D03*
%TO.N,/M.2/~{M2_M_ALERT}*%
X142175640Y-81794700D03*
%TO.N,/M.2/M2_M_SUSCLK*%
X136525598Y-81528300D03*
%TO.N,SYS_SDA*%
X176658680Y-124479760D03*
X117486840Y-85025880D03*
%TO.N,SYS_SCL*%
X117486840Y-85660880D03*
X176658680Y-123539960D03*
%TO.N,DP1_TXD0_HDMI_TX2_N*%
X122084240Y-118274500D03*
%TO.N,/USB Debug\u002C USB2/FTDI_3V3*%
X125675800Y-128823100D03*
X132104241Y-125698900D03*
X130654200Y-129997181D03*
X126300640Y-123258061D03*
%TO.N,/CSI/SDA_CAM0*%
X152545797Y-121183400D03*
%TO.N,/CSI/SCL_CAM0*%
X153180800Y-121183400D03*
%TO.N,/SoM/DEBUG_RXD_1V8*%
X122795440Y-72308103D03*
%TO.N,/CSI/SDA_CAM1*%
X136366000Y-103860600D03*
X111979600Y-94253700D03*
%TO.N,/CSI/SCL_CAM1*%
X111977601Y-95248100D03*
X136366000Y-104571800D03*
%TO.N,/CSI/SDA_CAM2*%
X147923000Y-98806000D03*
X182902000Y-106260280D03*
%TO.N,/CSI/SCL_CAM2*%
X182902000Y-105218880D03*
X147923000Y-98094800D03*
%TO.N,/CSI/SDA_CAM3*%
X143960600Y-96088200D03*
%TO.N,/CSI/SCL_CAM3*%
X143960600Y-95342599D03*
%TO.N,/CSI/VSYNC_CAM0_3V3*%
X146884800Y-134284100D03*
X133549800Y-108470080D03*
%TO.N,DP1_TXD0_HDMI_TX2_P*%
X122084240Y-117512500D03*
%TO.N,/CSI/VSYNC_CAM1_3V3*%
X133234840Y-104406080D03*
X112747200Y-97248114D03*
%TO.N,DP1_TXD1_HDMI_TX1_N*%
X126856900Y-116034200D03*
X117493800Y-116774500D03*
%TO.N,/CSI/VSYNC_CAM3_3V3*%
X152647400Y-61087000D03*
X133321200Y-74390900D03*
%TO.N,/CSI/VSYNC_CAM2_3V3*%
X133321200Y-78912100D03*
X183968800Y-103248086D03*
%TO.N,DP1_TXD1_HDMI_TX1_P*%
X117493800Y-116012500D03*
X126145700Y-116034200D03*
%TO.N,DP1_TXD2_HDMI_TX0_N*%
X128761900Y-112508680D03*
X117493183Y-115274500D03*
%TO.N,DP1_TXD2_HDMI_TX0_P*%
X127999900Y-112508680D03*
X117493183Y-114512500D03*
%TO.N,DP1_TXD3_HDMI_TXC_N*%
X117495404Y-113774500D03*
X130616100Y-108820600D03*
%TO.N,DP1_TXD3_HDMI_TXC_P*%
X117495404Y-113012500D03*
X129904900Y-108820600D03*
%TO.N,DP1_HPD*%
X121942000Y-72943100D03*
X120077640Y-109892480D03*
X137232800Y-58757700D03*
%TO.N,DP1_HDMI_AUX_P*%
X131787040Y-107733480D03*
%TO.N,DP1_HDMI_AUX_N*%
X132495700Y-107733480D03*
%TO.N,USB0_D_P*%
X171004640Y-129450480D03*
X117747800Y-106075000D03*
%TO.N,USB1_D_N*%
X117747800Y-105211000D03*
X187347000Y-119790600D03*
%TO.N,USB1_D_P*%
X187347000Y-120425600D03*
X117747800Y-104576000D03*
%TO.N,PCIE0_TX0_N*%
X122744640Y-100460500D03*
X141509800Y-71761700D03*
%TO.N,PCIE0_TX0_P*%
X140874800Y-71761700D03*
X122744640Y-99825500D03*
%TO.N,PCIE0_TX1_N*%
X144481600Y-71761700D03*
X122744640Y-98960001D03*
%TO.N,PCIE0_TX1_P*%
X143846600Y-71761700D03*
X122744640Y-98325001D03*
%TO.N,PCIE0_TX2_N*%
X147504200Y-71761700D03*
X122744640Y-94961001D03*
%TO.N,PCIE0_TX2_P*%
X122744640Y-94326001D03*
X146869200Y-71761700D03*
%TO.N,PCIE0_TX3_N*%
X122744640Y-93461000D03*
X150501400Y-71761700D03*
%TO.N,PCIE0_TX3_P*%
X122744640Y-92826000D03*
X149866400Y-71761700D03*
%TO.N,PCIE_WAKE\u002A*%
X117497000Y-87311880D03*
X139686440Y-85936899D03*
%TO.N,PCIE0_CLKREQ\u002A*%
X138721240Y-81794700D03*
X125614840Y-86067280D03*
%TO.N,PCIE0_RST\u002A*%
X139686440Y-81794700D03*
X117497000Y-86524480D03*
%TO.N,UART1_TXD*%
X114626800Y-81198103D03*
X109064200Y-126452900D03*
%TO.N,UART1_RXD*%
X109064200Y-125792500D03*
X114626800Y-80563100D03*
%TO.N,FAN_TACH*%
X156797560Y-66520120D03*
X125564040Y-79895080D03*
%TO.N,FAN_PWM*%
X157473000Y-66522600D03*
X127171200Y-72644000D03*
%TO.N,~{SHUTDOWN_REQ}*%
X117493800Y-73075800D03*
X113760000Y-75946000D03*
%TO.N,/HDMI/5V_HDMI*%
X130908200Y-59959702D03*
%TO.N,USBC1_FLG*%
X156613000Y-133141100D03*
X170467939Y-139082580D03*
%TO.N,/HDMI/HDMI_SDA_5V*%
X131467000Y-61957600D03*
%TO.N,/HDMI/HDMI_SCL_5V*%
X130908200Y-60979700D03*
%TO.N,/HDMI/HDMI_CEC_5V*%
X120595800Y-60979700D03*
X129577240Y-60979700D03*
%TO.N,/HDMI/HDMI_HPD_5V*%
X135759600Y-58757700D03*
X132686200Y-61963400D03*
%TO.N,/M.2/PCIE_WAKE_SEL0*%
X139686440Y-84334700D03*
%TO.N,USBC1_PEN*%
X171812140Y-142765580D03*
X118655240Y-109384480D03*
%TO.N,/HDMI/HDMI_HPD_5V_R*%
X135759600Y-60407700D03*
%TO.N,/USB3\u002C Recovery/USBC1_VBUS*%
X171817440Y-119240281D03*
X165545440Y-138414681D03*
%TO.N,JETSON_EN*%
X109927800Y-73222500D03*
X111959800Y-123616100D03*
%TO.N,/USB Debug\u002C USB2/USBC3_D_P*%
X128196400Y-135927581D03*
X129206400Y-135927581D03*
%TO.N,Net-(Q2-D)*%
X129359799Y-85005272D03*
X125522400Y-82445527D03*
X131112700Y-83312000D03*
X129281600Y-82445528D03*
X125600599Y-85005272D03*
X122755087Y-82445527D03*
X127443640Y-85000480D03*
X127401000Y-82445527D03*
X131240399Y-85005272D03*
%TO.N,/Supply/5V_OUT*%
X167662000Y-67469400D03*
X167662000Y-73553000D03*
%TO.N,/Supply/3V3_OUT*%
X167636600Y-92323600D03*
X167636600Y-86270480D03*
%TO.N,5V_SoM*%
X161606640Y-75145280D03*
X160920840Y-75145280D03*
X160235040Y-75145280D03*
X160235040Y-73773680D03*
X160235040Y-74459480D03*
X160920840Y-74459480D03*
X161606640Y-73773680D03*
X160920840Y-73773680D03*
X161606640Y-74459480D03*
%TO.N,I2C1_SCL*%
X114674400Y-84632800D03*
X143960600Y-97764600D03*
%TO.N,I2C1_SDA*%
X143960600Y-98475800D03*
X117493800Y-83845400D03*
%TO.N,/USB Debug\u002C USB2/FTDI_LED_RX*%
X132127401Y-130034678D03*
X131202840Y-126128261D03*
%TO.N,Net-(J15E-HDMI_CEC)*%
X122668440Y-111252000D03*
%TO.N,Net-(J15A-CLK_32K_OUT)*%
X122928860Y-79393500D03*
%TO.N,VBATT*%
X191636400Y-77216000D03*
X190264800Y-78587600D03*
X190264800Y-77216000D03*
X191636400Y-77901800D03*
X190264800Y-77901800D03*
X191636400Y-78587600D03*
X190950600Y-77216000D03*
X190950600Y-77901800D03*
X192322200Y-78587600D03*
X192322200Y-77216000D03*
X190950600Y-78587600D03*
X192322200Y-77901800D03*
%TO.N,/USB3\u002C Recovery/USBC1_CC2*%
X172325440Y-129450480D03*
X172376243Y-131815280D03*
X172122240Y-136057080D03*
X173747840Y-121655280D03*
%TO.N,/USB3\u002C Recovery/USBC1_RX2_N*%
X170413793Y-125649686D03*
X173292962Y-129443107D03*
%TO.N,/USB3\u002C Recovery/USBC1_CC1*%
X170318840Y-129450480D03*
X173747840Y-121020277D03*
%TO.N,/USB3\u002C Recovery/USBC1_RX2_P*%
X171074193Y-125649686D03*
X173952840Y-129443107D03*
%TO.N,MCLK_CAM1*%
X112747200Y-96248113D03*
X122922440Y-103136080D03*
%TO.N,MCLK_CAM0*%
X145882013Y-134284100D03*
X122338240Y-107784280D03*
%TO.N,MCLK_CAM2*%
X122338240Y-104888680D03*
X169233600Y-106349800D03*
%TO.N,SLEEP{slash}~{WAKE}*%
X122795440Y-71673100D03*
%TO.N,MCLK_CAM3*%
X153881987Y-61087000D03*
X122922016Y-77758506D03*
%TO.N,~{USBC1_INT}*%
X125564040Y-78893500D03*
X174967040Y-127448479D03*
X173881800Y-140762802D03*
%TO.N,~{MOD_SLEEP}*%
X122980200Y-87392500D03*
%TO.N,/USB3\u002C Recovery/USBC1_ID*%
X172840400Y-139192000D03*
X162458639Y-142134480D03*
X174179640Y-123077680D03*
X174347280Y-118663160D03*
%TO.N,PWR_SCL*%
X180602800Y-86341600D03*
%TO.N,MB_SCL*%
X177938840Y-88150080D03*
X111932000Y-121616600D03*
%TO.N,PWR_SDA*%
X185479600Y-86328400D03*
%TO.N,MB_SDA*%
X182841040Y-88175480D03*
X111932000Y-120606600D03*
%TO.N,CAM0_PEN*%
X139591800Y-129540000D03*
X140230000Y-135630300D03*
X112874200Y-84131800D03*
%TO.N,CAM1_FLG*%
X110836700Y-82744921D03*
%TO.N,CAM1_PEN*%
X110359600Y-82043920D03*
%TO.N,CAM2_PEN*%
X177531401Y-110775880D03*
X127381599Y-77578600D03*
%TO.N,CAM0_FLG*%
X112872200Y-81236200D03*
%TO.N,/USB3\u002C Recovery/USBC1_I2C_SDA*%
X174863440Y-124474680D03*
%TO.N,/USB3\u002C Recovery/USBC1_ISC_SCL*%
X174863440Y-123534880D03*
%TO.N,CAM3_PEN*%
X127381599Y-75648200D03*
X168855800Y-58490500D03*
%TO.N,CAM2_FLG*%
X177531401Y-107657280D03*
X127381599Y-74683000D03*
%TO.N,CAM3_FLG*%
X127381599Y-76613400D03*
X168818200Y-61462300D03*
%TO.N,MB_JETSON_RX*%
X111985200Y-125665500D03*
%TO.N,MB_JETSON_TX*%
X111985200Y-126529100D03*
%TO.N,/Peripherals/SHUTDOWN_REQ_MB*%
X113760000Y-77114400D03*
X111931200Y-119608600D03*
%TO.N,Net-(R14-Pad1)*%
X108665200Y-69430500D03*
%TD*%
D22*
%TO.N,USB0_D_N*%
X119153800Y-107578797D02*
X119153800Y-107580595D01*
X118877800Y-107394797D02*
X118969800Y-107394797D01*
X172979444Y-119420075D02*
X172218134Y-120181385D01*
X119610225Y-107764595D02*
X121059930Y-106314890D01*
X117567498Y-106529701D02*
X116503099Y-106529701D01*
X121059930Y-106314890D02*
X166898150Y-106314890D01*
X172218134Y-120181385D02*
X169068534Y-120181385D01*
X166898150Y-106314890D02*
X172979444Y-112396184D01*
X169068534Y-120181385D02*
X168458244Y-120791675D01*
X116254305Y-107480007D02*
X116538893Y-107764595D01*
X116503099Y-106529701D02*
X116254305Y-106778495D01*
X168458244Y-127187285D02*
X169220934Y-127949975D01*
X116254305Y-106778495D02*
X116254305Y-107480007D01*
X117747800Y-106710003D02*
X117567498Y-106529701D01*
X170638230Y-127949975D02*
X171463746Y-128775491D01*
X116538893Y-107764595D02*
X118509800Y-107764595D01*
X172979444Y-112396184D02*
X172979444Y-119420075D01*
X171463746Y-129249186D02*
X171665040Y-129450480D01*
X119337800Y-107764595D02*
X119610225Y-107764595D01*
X118693800Y-107580595D02*
X118693800Y-107578797D01*
X168458244Y-120791675D02*
X168458244Y-127187285D01*
X169220934Y-127949975D02*
X170638230Y-127949975D01*
X171463746Y-128775491D02*
X171463746Y-129249186D01*
X118509800Y-107764595D02*
G75*
G03*
X118693795Y-107580595I0J183995D01*
G01*
X119153800Y-107580595D02*
G75*
G03*
X119337800Y-107764600I184000J-5D01*
G01*
X118693800Y-107578797D02*
G75*
G02*
X118877800Y-107394800I184000J-3D01*
G01*
X118969800Y-107394797D02*
G75*
G02*
X119153803Y-107578797I0J-184003D01*
G01*
%TO.N,PCIE0_RX0_N*%
X124723163Y-90515866D02*
X124723163Y-90344228D01*
X144038095Y-78476035D02*
X143830630Y-78683500D01*
X121329200Y-100228400D02*
X121329200Y-98450400D01*
X119899200Y-101145865D02*
X119899200Y-101217659D01*
X119093200Y-101021865D02*
X119155200Y-101021865D01*
X123726450Y-93865872D02*
X123726450Y-93694222D01*
X123726450Y-87165872D02*
X123726450Y-86994222D01*
X123847213Y-91306642D02*
X124345570Y-91306642D01*
X126827015Y-73648585D02*
X135800185Y-73648585D01*
X124723122Y-94535927D02*
X124723122Y-94364208D01*
X143003100Y-78683500D02*
X142804207Y-78484607D01*
X124723163Y-86495866D02*
X124723163Y-86324228D01*
X123847213Y-80586642D02*
X124345577Y-80586642D01*
X123726437Y-83145866D02*
X123726437Y-82974228D01*
X123847213Y-89553452D02*
X124345577Y-89553452D01*
X119403200Y-101341681D02*
X119465200Y-101341681D01*
X120333200Y-101021865D02*
X120535735Y-101021865D01*
X123726437Y-85825866D02*
X123726437Y-85654228D01*
X120209200Y-101217659D02*
X120209200Y-101145865D01*
X123847213Y-80173452D02*
X124345570Y-80173452D01*
X124723150Y-78455872D02*
X124723150Y-78284222D01*
X119713200Y-101021865D02*
X119775200Y-101021865D01*
X123726437Y-89845866D02*
X123726437Y-89674228D01*
X123847213Y-81513452D02*
X124345577Y-81513452D01*
X118659200Y-101145865D02*
X118659200Y-101217681D01*
X123847220Y-87286642D02*
X124345577Y-87286642D01*
X117747800Y-101210000D02*
X117935935Y-101021865D01*
X123847220Y-93573452D02*
X124345570Y-93573452D01*
X123847220Y-93986642D02*
X124345556Y-93986642D01*
X124723150Y-79795872D02*
X124723150Y-79624222D01*
X123847213Y-89966642D02*
X124345577Y-89966642D01*
X121329200Y-98450400D02*
X124224800Y-95554800D01*
X123847213Y-84606642D02*
X124345577Y-84606642D01*
X119589200Y-101217681D02*
X119589200Y-101145865D01*
X143830630Y-78683500D02*
X143003100Y-78683500D01*
X124723150Y-91855872D02*
X124723150Y-91684222D01*
X123847220Y-86873452D02*
X124345577Y-86873452D01*
X123847192Y-78833452D02*
X124345570Y-78833452D01*
X123847193Y-77906642D02*
X124345570Y-77906642D01*
X118783200Y-101341681D02*
X118845200Y-101341681D01*
X123847213Y-85946642D02*
X124345577Y-85946642D01*
X143605605Y-75688205D02*
X144038095Y-76120695D01*
X123847213Y-90893452D02*
X124345577Y-90893452D01*
X123847213Y-84193452D02*
X124345577Y-84193452D01*
X118969200Y-101217681D02*
X118969200Y-101145865D01*
X124723163Y-87835866D02*
X124723163Y-87664228D01*
X123726437Y-88505866D02*
X123726437Y-88334228D01*
X124224800Y-77115845D02*
X124224800Y-76250800D01*
X119279200Y-101145865D02*
X119279200Y-101217681D01*
X124723163Y-83815866D02*
X124723163Y-83644228D01*
X124723150Y-93195872D02*
X124723150Y-93024222D01*
X123726437Y-84485866D02*
X123726437Y-84314228D01*
X137839805Y-75688205D02*
X143605605Y-75688205D01*
X124723163Y-85155866D02*
X124723163Y-84984228D01*
X123726396Y-77785845D02*
X123726396Y-77614249D01*
X123847220Y-92233452D02*
X124345570Y-92233452D01*
X124723163Y-82475866D02*
X124723163Y-82304228D01*
X123847213Y-88213452D02*
X124345577Y-88213452D01*
X123726395Y-79125845D02*
X123726395Y-78954249D01*
X123726437Y-80465866D02*
X123726437Y-80294228D01*
X120535735Y-101021865D02*
X121329200Y-100228400D01*
X123847213Y-82853452D02*
X124345577Y-82853452D01*
X117935935Y-101021865D02*
X118535200Y-101021865D01*
X123726437Y-81805866D02*
X123726437Y-81634228D01*
X142804207Y-77563694D02*
X142992801Y-77375100D01*
X123847213Y-83266642D02*
X124345577Y-83266642D01*
X123847192Y-79246642D02*
X124345570Y-79246642D01*
X144038095Y-76120695D02*
X144038095Y-78476035D01*
X123847213Y-88626642D02*
X124345577Y-88626642D01*
X123847213Y-85533452D02*
X124345577Y-85533452D01*
X124723163Y-89175866D02*
X124723163Y-89004228D01*
X123847213Y-81926642D02*
X124345577Y-81926642D01*
X135800185Y-73648585D02*
X137839805Y-75688205D01*
X123726450Y-92525872D02*
X123726450Y-92354222D01*
X123726437Y-91185866D02*
X123726437Y-91014228D01*
X123847220Y-92646642D02*
X124345570Y-92646642D01*
X120023200Y-101341659D02*
X120085200Y-101341659D01*
X124224800Y-95554800D02*
X124224800Y-95034249D01*
X142804207Y-78484607D02*
X142804207Y-77563694D01*
X124224800Y-76250800D02*
X126827015Y-73648585D01*
X124723163Y-81135866D02*
X124723163Y-80964228D01*
X123847213Y-89966642D02*
G75*
G02*
X123726458Y-89845866I-13J120742D01*
G01*
X123726395Y-78954249D02*
G75*
G02*
X123847192Y-78833495I120805J-51D01*
G01*
X124345556Y-94913493D02*
G75*
G03*
X124723193Y-94535927I44J377593D01*
G01*
X123726437Y-80294228D02*
G75*
G02*
X123847213Y-80173437I120763J28D01*
G01*
X119899200Y-101217659D02*
G75*
G03*
X120023200Y-101341700I124000J-41D01*
G01*
X124723163Y-84984228D02*
G75*
G03*
X124345577Y-84606637I-377563J28D01*
G01*
X124345577Y-85533452D02*
G75*
G03*
X124723152Y-85155866I23J377552D01*
G01*
X124345577Y-81513452D02*
G75*
G03*
X124723152Y-81135866I23J377552D01*
G01*
X119155200Y-101021865D02*
G75*
G02*
X119279235Y-101145865I0J-124035D01*
G01*
X124345570Y-80173452D02*
G75*
G03*
X124723152Y-79795872I30J377552D01*
G01*
X123726437Y-82974228D02*
G75*
G02*
X123847213Y-82853437I120763J28D01*
G01*
X119589200Y-101145865D02*
G75*
G02*
X119713200Y-101021900I124000J-35D01*
G01*
X123726437Y-89674228D02*
G75*
G02*
X123847213Y-89553437I120763J28D01*
G01*
X124345577Y-84193452D02*
G75*
G03*
X124723152Y-83815866I23J377552D01*
G01*
X120085200Y-101341659D02*
G75*
G03*
X120209159Y-101217659I0J123959D01*
G01*
X124345577Y-90893452D02*
G75*
G03*
X124723152Y-90515866I23J377552D01*
G01*
X123847213Y-83266642D02*
G75*
G02*
X123726458Y-83145866I-13J120742D01*
G01*
X124723150Y-93024222D02*
G75*
G03*
X124345570Y-92646650I-377550J22D01*
G01*
X124345577Y-86873452D02*
G75*
G03*
X124723152Y-86495866I23J377552D01*
G01*
X123847220Y-92646642D02*
G75*
G02*
X123726458Y-92525872I-20J120742D01*
G01*
X123847213Y-80586642D02*
G75*
G02*
X123726458Y-80465866I-13J120742D01*
G01*
X124723163Y-87664228D02*
G75*
G03*
X124345577Y-87286637I-377563J28D01*
G01*
X123847213Y-81926642D02*
G75*
G02*
X123726458Y-81805866I-13J120742D01*
G01*
X124224800Y-95034249D02*
G75*
G02*
X124345556Y-94913500I120800J-51D01*
G01*
X119279200Y-101217681D02*
G75*
G03*
X119403200Y-101341700I124000J-19D01*
G01*
X123847192Y-79246642D02*
G75*
G02*
X123726358Y-79125845I8J120842D01*
G01*
X118535200Y-101021865D02*
G75*
G02*
X118659235Y-101145865I0J-124035D01*
G01*
X124723122Y-94364208D02*
G75*
G03*
X124345556Y-93986678I-377522J8D01*
G01*
X123726437Y-84314228D02*
G75*
G02*
X123847213Y-84193437I120763J28D01*
G01*
X123726437Y-85654228D02*
G75*
G02*
X123847213Y-85533437I120763J28D01*
G01*
X124723163Y-80964228D02*
G75*
G03*
X124345577Y-80586637I-377563J28D01*
G01*
X124723163Y-86324228D02*
G75*
G03*
X124345577Y-85946637I-377563J28D01*
G01*
X123726437Y-88334228D02*
G75*
G02*
X123847213Y-88213437I120763J28D01*
G01*
X123726396Y-77614249D02*
G75*
G02*
X123847193Y-77493496I120804J-51D01*
G01*
X119775200Y-101021865D02*
G75*
G02*
X119899235Y-101145865I0J-124035D01*
G01*
X123847220Y-87286642D02*
G75*
G02*
X123726458Y-87165872I-20J120742D01*
G01*
X124345577Y-89553452D02*
G75*
G03*
X124723152Y-89175866I23J377552D01*
G01*
X123847213Y-91306642D02*
G75*
G02*
X123726458Y-91185866I-13J120742D01*
G01*
X123726437Y-91014228D02*
G75*
G02*
X123847213Y-90893437I120763J28D01*
G01*
X118659200Y-101217681D02*
G75*
G03*
X118783200Y-101341700I124000J-19D01*
G01*
X119465200Y-101341681D02*
G75*
G03*
X119589181Y-101217681I0J123981D01*
G01*
X124345570Y-78833452D02*
G75*
G03*
X124723152Y-78455872I30J377552D01*
G01*
X118845200Y-101341681D02*
G75*
G03*
X118969181Y-101217681I0J123981D01*
G01*
X123847213Y-84606642D02*
G75*
G02*
X123726458Y-84485866I-13J120742D01*
G01*
X124723163Y-90344228D02*
G75*
G03*
X124345577Y-89966637I-377563J28D01*
G01*
X124723163Y-82304228D02*
G75*
G03*
X124345577Y-81926637I-377563J28D01*
G01*
X124345570Y-92233452D02*
G75*
G03*
X124723152Y-91855872I30J377552D01*
G01*
X123847220Y-93986642D02*
G75*
G02*
X123726458Y-93865872I-20J120742D01*
G01*
X123847213Y-88626642D02*
G75*
G02*
X123726458Y-88505866I-13J120742D01*
G01*
X123726450Y-92354222D02*
G75*
G02*
X123847220Y-92233450I120750J22D01*
G01*
X123726450Y-86994222D02*
G75*
G02*
X123847220Y-86873450I120750J22D01*
G01*
X118969200Y-101145865D02*
G75*
G02*
X119093200Y-101021900I124000J-35D01*
G01*
X123847193Y-77493452D02*
G75*
G03*
X124224852Y-77115845I7J377652D01*
G01*
X124723150Y-79624222D02*
G75*
G03*
X124345570Y-79246650I-377550J22D01*
G01*
X123847213Y-85946642D02*
G75*
G02*
X123726458Y-85825866I-13J120742D01*
G01*
X124723163Y-83644228D02*
G75*
G03*
X124345577Y-83266637I-377563J28D01*
G01*
X124345577Y-82853452D02*
G75*
G03*
X124723152Y-82475866I23J377552D01*
G01*
X123847193Y-77906642D02*
G75*
G02*
X123726358Y-77785845I7J120842D01*
G01*
X120209200Y-101145865D02*
G75*
G02*
X120333200Y-101021900I124000J-35D01*
G01*
X124723163Y-89004228D02*
G75*
G03*
X124345577Y-88626637I-377563J28D01*
G01*
X124345570Y-93573452D02*
G75*
G03*
X124723152Y-93195872I30J377552D01*
G01*
X124345577Y-88213452D02*
G75*
G03*
X124723152Y-87835866I23J377552D01*
G01*
X123726450Y-93694222D02*
G75*
G02*
X123847220Y-93573450I120750J22D01*
G01*
X124723150Y-78284222D02*
G75*
G03*
X124345570Y-77906650I-377550J22D01*
G01*
X123726437Y-81634228D02*
G75*
G02*
X123847213Y-81513437I120763J28D01*
G01*
X124723150Y-91684222D02*
G75*
G03*
X124345570Y-91306650I-377550J22D01*
G01*
%TO.N,PCIE0_RX0_P*%
X123847220Y-91976642D02*
X124345570Y-91976642D01*
X123847192Y-78576642D02*
X124345570Y-78576642D01*
X117936853Y-100764053D02*
X120430363Y-100764053D01*
X123469640Y-92525872D02*
X123469640Y-92354222D01*
X123469586Y-77785845D02*
X123469586Y-77614249D01*
X124466353Y-83815866D02*
X124466353Y-83644228D01*
X123847193Y-78163452D02*
X124345570Y-78163452D01*
X124466340Y-93195872D02*
X124466340Y-93024222D01*
X120430363Y-100764053D02*
X121072390Y-100122026D01*
X123847213Y-79916642D02*
X124345570Y-79916642D01*
X124466353Y-86495866D02*
X124466353Y-86324228D01*
X124466340Y-78455872D02*
X124466340Y-78284222D01*
X123847220Y-86616642D02*
X124345577Y-86616642D01*
X123469627Y-91185866D02*
X123469627Y-91014228D01*
X126957825Y-73390775D02*
X135906975Y-73390775D01*
X124466340Y-91855872D02*
X124466340Y-91684222D01*
X124466312Y-94535927D02*
X124466312Y-94364208D01*
X121072390Y-98344026D02*
X123967990Y-95448426D01*
X123469627Y-80465866D02*
X123469627Y-80294228D01*
X123847213Y-85276642D02*
X124345577Y-85276642D01*
X123469627Y-85825866D02*
X123469627Y-85654228D01*
X142894310Y-78939310D02*
X142546395Y-78591395D01*
X123847213Y-91563452D02*
X124345570Y-91563452D01*
X144295905Y-78579995D02*
X144294905Y-78580995D01*
X143937004Y-78940310D02*
X142896726Y-78940310D01*
X123469627Y-81805866D02*
X123469627Y-81634228D01*
X123847213Y-84863452D02*
X124345577Y-84863452D01*
X123847213Y-90636642D02*
X124345577Y-90636642D01*
X144294905Y-78582409D02*
X143937004Y-78940310D01*
X124466353Y-82475866D02*
X124466353Y-82304228D01*
X123469585Y-79125845D02*
X123469585Y-78954249D01*
X123469640Y-87165872D02*
X123469640Y-86994222D01*
X123469627Y-88505866D02*
X123469627Y-88334228D01*
X142895726Y-78939310D02*
X142894310Y-78939310D01*
X123967990Y-95448426D02*
X123967990Y-95034249D01*
X123847220Y-93316642D02*
X124345570Y-93316642D01*
X142896726Y-78940310D02*
X142895726Y-78939310D01*
X123469640Y-93865872D02*
X123469640Y-93694222D01*
X123847220Y-92903452D02*
X124345570Y-92903452D01*
X142546395Y-77563694D02*
X142357801Y-77375100D01*
X124466353Y-90515866D02*
X124466353Y-90344228D01*
X137946595Y-75430395D02*
X143712395Y-75430395D01*
X123847213Y-86203452D02*
X124345577Y-86203452D01*
X123847220Y-94243452D02*
X124345556Y-94243452D01*
X123967990Y-76144426D02*
X126720641Y-73391775D01*
X123469627Y-89845866D02*
X123469627Y-89674228D01*
X124466353Y-89175866D02*
X124466353Y-89004228D01*
X124466353Y-85155866D02*
X124466353Y-84984228D01*
X123847213Y-81256642D02*
X124345577Y-81256642D01*
X123847213Y-90223452D02*
X124345577Y-90223452D01*
X123469627Y-83145866D02*
X123469627Y-82974228D01*
X144295905Y-76013905D02*
X144295905Y-78579995D01*
X126956825Y-73391775D02*
X126957825Y-73390775D01*
X124466353Y-87835866D02*
X124466353Y-87664228D01*
X135906975Y-73390775D02*
X137946595Y-75430395D01*
X123847213Y-82183452D02*
X124345577Y-82183452D01*
X123847213Y-83523452D02*
X124345577Y-83523452D01*
X123847220Y-87543452D02*
X124345577Y-87543452D01*
X123847213Y-88883452D02*
X124345577Y-88883452D01*
X123847213Y-83936642D02*
X124345577Y-83936642D01*
X124466353Y-81135866D02*
X124466353Y-80964228D01*
X144294905Y-78580995D02*
X144294905Y-78582409D01*
X117747800Y-100575000D02*
X117936853Y-100764053D01*
X123847213Y-82596642D02*
X124345577Y-82596642D01*
X142546395Y-78591395D02*
X142546395Y-77563694D01*
X123469627Y-84485866D02*
X123469627Y-84314228D01*
X123847213Y-89296642D02*
X124345577Y-89296642D01*
X121072390Y-100122026D02*
X121072390Y-98344026D01*
X124466340Y-79795872D02*
X124466340Y-79624222D01*
X123847213Y-80843452D02*
X124345577Y-80843452D01*
X123967990Y-77115845D02*
X123967990Y-76144426D01*
X143712395Y-75430395D02*
X144295905Y-76013905D01*
X126720641Y-73391775D02*
X126956825Y-73391775D01*
X123847213Y-87956642D02*
X124345577Y-87956642D01*
X123847192Y-79503452D02*
X124345570Y-79503452D01*
X124466312Y-94364208D02*
G75*
G03*
X124345556Y-94243488I-120712J8D01*
G01*
X123469586Y-77614249D02*
G75*
G02*
X123847193Y-77236686I377614J-51D01*
G01*
X124345577Y-87956642D02*
G75*
G03*
X124466342Y-87835866I23J120742D01*
G01*
X123469640Y-93694222D02*
G75*
G02*
X123847220Y-93316640I377560J22D01*
G01*
X123847213Y-90223452D02*
G75*
G02*
X123469648Y-89845866I-13J377552D01*
G01*
X124345577Y-86616642D02*
G75*
G03*
X124466342Y-86495866I23J120742D01*
G01*
X124466353Y-80964228D02*
G75*
G03*
X124345577Y-80843447I-120753J28D01*
G01*
X124466340Y-91684222D02*
G75*
G03*
X124345570Y-91563460I-120740J22D01*
G01*
X123469627Y-82974228D02*
G75*
G02*
X123847213Y-82596627I377573J28D01*
G01*
X124466353Y-90344228D02*
G75*
G03*
X124345577Y-90223447I-120753J28D01*
G01*
X124345570Y-91976642D02*
G75*
G03*
X124466342Y-91855872I30J120742D01*
G01*
X123847213Y-83523452D02*
G75*
G02*
X123469648Y-83145866I-13J377552D01*
G01*
X123847213Y-80843452D02*
G75*
G02*
X123469648Y-80465866I-13J377552D01*
G01*
X123847213Y-91563452D02*
G75*
G02*
X123469648Y-91185866I-13J377552D01*
G01*
X123847213Y-82183452D02*
G75*
G02*
X123469648Y-81805866I-13J377552D01*
G01*
X123847213Y-88883452D02*
G75*
G02*
X123469648Y-88505866I-13J377552D01*
G01*
X123469627Y-80294228D02*
G75*
G02*
X123847213Y-79916627I377573J28D01*
G01*
X124345570Y-93316642D02*
G75*
G03*
X124466342Y-93195872I30J120742D01*
G01*
X124345577Y-82596642D02*
G75*
G03*
X124466342Y-82475866I23J120742D01*
G01*
X123847192Y-79503452D02*
G75*
G02*
X123469548Y-79125845I8J377652D01*
G01*
X123469627Y-88334228D02*
G75*
G02*
X123847213Y-87956627I377573J28D01*
G01*
X124466353Y-89004228D02*
G75*
G03*
X124345577Y-88883447I-120753J28D01*
G01*
X124466340Y-79624222D02*
G75*
G03*
X124345570Y-79503460I-120740J22D01*
G01*
X123469627Y-81634228D02*
G75*
G02*
X123847213Y-81256627I377573J28D01*
G01*
X124466353Y-87664228D02*
G75*
G03*
X124345577Y-87543447I-120753J28D01*
G01*
X123847213Y-84863452D02*
G75*
G02*
X123469648Y-84485866I-13J377552D01*
G01*
X124466353Y-83644228D02*
G75*
G03*
X124345577Y-83523447I-120753J28D01*
G01*
X124466340Y-78284222D02*
G75*
G03*
X124345570Y-78163460I-120740J22D01*
G01*
X124345577Y-90636642D02*
G75*
G03*
X124466342Y-90515866I23J120742D01*
G01*
X124345570Y-79916642D02*
G75*
G03*
X124466342Y-79795872I30J120742D01*
G01*
X123847193Y-78163452D02*
G75*
G02*
X123469548Y-77785845I7J377652D01*
G01*
X124345577Y-89296642D02*
G75*
G03*
X124466342Y-89175866I23J120742D01*
G01*
X123847213Y-86203452D02*
G75*
G02*
X123469648Y-85825866I-13J377552D01*
G01*
X123469627Y-85654228D02*
G75*
G02*
X123847213Y-85276627I377573J28D01*
G01*
X123469585Y-78954249D02*
G75*
G02*
X123847192Y-78576685I377615J-51D01*
G01*
X124345570Y-78576642D02*
G75*
G03*
X124466342Y-78455872I30J120742D01*
G01*
X123847220Y-94243452D02*
G75*
G02*
X123469648Y-93865872I-20J377552D01*
G01*
X124345577Y-85276642D02*
G75*
G03*
X124466342Y-85155866I23J120742D01*
G01*
X124466340Y-93024222D02*
G75*
G03*
X124345570Y-92903460I-120740J22D01*
G01*
X123469627Y-84314228D02*
G75*
G02*
X123847213Y-83936627I377573J28D01*
G01*
X124345577Y-83936642D02*
G75*
G03*
X124466342Y-83815866I23J120742D01*
G01*
X123469627Y-89674228D02*
G75*
G02*
X123847213Y-89296627I377573J28D01*
G01*
X123847193Y-77236642D02*
G75*
G03*
X123968042Y-77115845I7J120842D01*
G01*
X123469640Y-92354222D02*
G75*
G02*
X123847220Y-91976640I377560J22D01*
G01*
X123967990Y-95034249D02*
G75*
G02*
X124345556Y-94656690I377610J-51D01*
G01*
X124466353Y-84984228D02*
G75*
G03*
X124345577Y-84863447I-120753J28D01*
G01*
X123469627Y-91014228D02*
G75*
G02*
X123847213Y-90636627I377573J28D01*
G01*
X123469640Y-86994222D02*
G75*
G02*
X123847220Y-86616640I377560J22D01*
G01*
X124466353Y-82304228D02*
G75*
G03*
X124345577Y-82183447I-120753J28D01*
G01*
X123847220Y-87543452D02*
G75*
G02*
X123469648Y-87165872I-20J377552D01*
G01*
X124345556Y-94656683D02*
G75*
G03*
X124466383Y-94535927I44J120783D01*
G01*
X124345577Y-81256642D02*
G75*
G03*
X124466342Y-81135866I23J120742D01*
G01*
X123847220Y-92903452D02*
G75*
G02*
X123469648Y-92525872I-20J377552D01*
G01*
X124466353Y-86324228D02*
G75*
G03*
X124345577Y-86203447I-120753J28D01*
G01*
%TO.N,PCIE0_RX1_N*%
X118964694Y-99524006D02*
X119555305Y-98933395D01*
X146524700Y-73298700D02*
X147035295Y-73809295D01*
X119555305Y-98933395D02*
X119555305Y-98649495D01*
X122003070Y-87427200D02*
X122003070Y-87303200D01*
X120960130Y-88047200D02*
X120960130Y-87923200D01*
X125777995Y-71624205D02*
X136828305Y-71624205D01*
X119555305Y-98649495D02*
X119556305Y-98648495D01*
X119556305Y-96662459D02*
X119556305Y-96471679D01*
X121481600Y-79987200D02*
X121481600Y-75920600D01*
X147035295Y-73809295D02*
X147035295Y-78477705D01*
X120960149Y-81847200D02*
X120960149Y-81723200D01*
X145804206Y-77563694D02*
X145992800Y-77375100D01*
X121481600Y-94546384D02*
X121481600Y-91643200D01*
X119749848Y-98158459D02*
X119692305Y-98158459D01*
X121079744Y-84446795D02*
X121626655Y-84446795D01*
X122003070Y-91147200D02*
X122003070Y-91023200D01*
X121481600Y-75920600D02*
X125777995Y-71624205D01*
X121079744Y-81966795D02*
X121626655Y-81966795D01*
X121079725Y-89043605D02*
X121626665Y-89043605D01*
X121079744Y-84083605D02*
X121626655Y-84083605D01*
X145995800Y-78683500D02*
X145804206Y-78491906D01*
X121079725Y-86563605D02*
X121626665Y-86563605D01*
X120960149Y-83087200D02*
X120960149Y-82963200D01*
X122003070Y-88667200D02*
X122003070Y-88543200D01*
X121079744Y-80363605D02*
X121105195Y-80363605D01*
X122003060Y-83707200D02*
X122003060Y-83583200D01*
X121079725Y-86926795D02*
X121626665Y-86926795D01*
X121079725Y-90646795D02*
X121626665Y-90646795D01*
X120960130Y-86807200D02*
X120960130Y-86683200D01*
X117747800Y-99714700D02*
X117938494Y-99524006D01*
X119885848Y-98362459D02*
X119885848Y-98294459D01*
X119556305Y-97342459D02*
X119556305Y-97274459D01*
X121079725Y-89406795D02*
X121626665Y-89406795D01*
X121079744Y-83206795D02*
X121626655Y-83206795D01*
X136828305Y-71624205D02*
X138502800Y-73298700D01*
X120960130Y-90527200D02*
X120960130Y-90403200D01*
X122003060Y-82467200D02*
X122003060Y-82343200D01*
X121079725Y-85323605D02*
X121626655Y-85323605D01*
X120960149Y-80607200D02*
X120960149Y-80483200D01*
X138502800Y-73298700D02*
X146524700Y-73298700D01*
X121079725Y-88166795D02*
X121626665Y-88166795D01*
X146829500Y-78683500D02*
X145995800Y-78683500D01*
X119556305Y-98648495D02*
X119556305Y-98634459D01*
X120960149Y-84327200D02*
X120960149Y-84203200D01*
X122003070Y-86187200D02*
X122003070Y-86063200D01*
X121079725Y-90283605D02*
X121626665Y-90283605D01*
X145804206Y-78491906D02*
X145804206Y-77563694D01*
X119749851Y-97478459D02*
X119692305Y-97478459D01*
X119556305Y-98022459D02*
X119556305Y-97954459D01*
X119885848Y-97002459D02*
X119885848Y-96934459D01*
X121079744Y-82843605D02*
X121626655Y-82843605D01*
X121079725Y-85686795D02*
X121626665Y-85686795D01*
X147035295Y-78477705D02*
X146829500Y-78683500D01*
X121079744Y-81603605D02*
X121626665Y-81603605D01*
X122003060Y-84947200D02*
X122003060Y-84823200D01*
X121079744Y-80726795D02*
X121626665Y-80726795D01*
X122003070Y-89907200D02*
X122003070Y-89783200D01*
X119556305Y-96471679D02*
X121481600Y-94546384D01*
X119692305Y-97138459D02*
X119749848Y-97138459D01*
X120960130Y-89287200D02*
X120960130Y-89163200D01*
X121601195Y-91523605D02*
X121626665Y-91523605D01*
X119885851Y-97682459D02*
X119885851Y-97614459D01*
X119749848Y-96798459D02*
X119692305Y-96798459D01*
X121079725Y-87803605D02*
X121626665Y-87803605D01*
X119692305Y-97818459D02*
X119749851Y-97818459D01*
X120960130Y-85567200D02*
X120960130Y-85443200D01*
X122003070Y-81227200D02*
X122003070Y-81103200D01*
X117938494Y-99524006D02*
X118964694Y-99524006D01*
X119692305Y-98498459D02*
X119749848Y-98498459D01*
X119749848Y-97138459D02*
G75*
G03*
X119885759Y-97002459I-48J135959D01*
G01*
X119556305Y-98634459D02*
G75*
G02*
X119692305Y-98498505I135995J-41D01*
G01*
X119556305Y-97954459D02*
G75*
G02*
X119692305Y-97818505I135995J-41D01*
G01*
X122003070Y-87303200D02*
G75*
G03*
X121626665Y-86926830I-376370J0D01*
G01*
X120960149Y-84203200D02*
G75*
G02*
X121079744Y-84083649I119551J0D01*
G01*
X121079725Y-85686795D02*
G75*
G02*
X120960105Y-85567200I-25J119595D01*
G01*
X120960130Y-90403200D02*
G75*
G02*
X121079725Y-90283630I119570J0D01*
G01*
X119885848Y-98294459D02*
G75*
G03*
X119749848Y-98158452I-136048J-41D01*
G01*
X121626655Y-84083605D02*
G75*
G03*
X122003105Y-83707200I45J376405D01*
G01*
X121079725Y-90646795D02*
G75*
G02*
X120960105Y-90527200I-25J119595D01*
G01*
X119885851Y-97614459D02*
G75*
G03*
X119749851Y-97478549I-135951J-41D01*
G01*
X120960130Y-85443200D02*
G75*
G02*
X121079725Y-85323630I119570J0D01*
G01*
X119692305Y-98158459D02*
G75*
G02*
X119556341Y-98022459I-5J135959D01*
G01*
X121626655Y-82843605D02*
G75*
G03*
X122003105Y-82467200I45J376405D01*
G01*
X121079725Y-89406795D02*
G75*
G02*
X120960105Y-89287200I-25J119595D01*
G01*
X121079744Y-83206795D02*
G75*
G02*
X120960105Y-83087200I-44J119595D01*
G01*
X121079725Y-86926795D02*
G75*
G02*
X120960105Y-86807200I-25J119595D01*
G01*
X122003070Y-81103200D02*
G75*
G03*
X121626665Y-80726830I-376370J0D01*
G01*
X121626665Y-81603605D02*
G75*
G03*
X122003105Y-81227200I35J376405D01*
G01*
X119885848Y-96934459D02*
G75*
G03*
X119749848Y-96798452I-136048J-41D01*
G01*
X122003070Y-91023200D02*
G75*
G03*
X121626665Y-90646830I-376370J0D01*
G01*
X121626665Y-91523605D02*
G75*
G03*
X122003105Y-91147200I35J376405D01*
G01*
X120960130Y-89163200D02*
G75*
G02*
X121079725Y-89043630I119570J0D01*
G01*
X120960130Y-86683200D02*
G75*
G02*
X121079725Y-86563630I119570J0D01*
G01*
X122003060Y-83583200D02*
G75*
G03*
X121626655Y-83206840I-376360J0D01*
G01*
X121626655Y-85323605D02*
G75*
G03*
X122003105Y-84947200I45J376405D01*
G01*
X119556305Y-97274459D02*
G75*
G02*
X119692305Y-97138505I135995J-41D01*
G01*
X120960149Y-82963200D02*
G75*
G02*
X121079744Y-82843649I119551J0D01*
G01*
X120960130Y-87923200D02*
G75*
G02*
X121079725Y-87803630I119570J0D01*
G01*
X121079744Y-80726795D02*
G75*
G02*
X120960105Y-80607200I-44J119595D01*
G01*
X121481600Y-91643200D02*
G75*
G02*
X121601195Y-91523600I119600J0D01*
G01*
X121626665Y-90283605D02*
G75*
G03*
X122003105Y-89907200I35J376405D01*
G01*
X121079744Y-84446795D02*
G75*
G02*
X120960105Y-84327200I-44J119595D01*
G01*
X119749851Y-97818459D02*
G75*
G03*
X119885859Y-97682459I49J135959D01*
G01*
X122003070Y-88543200D02*
G75*
G03*
X121626665Y-88166830I-376370J0D01*
G01*
X120960149Y-80483200D02*
G75*
G02*
X121079744Y-80363649I119551J0D01*
G01*
X122003070Y-86063200D02*
G75*
G03*
X121626665Y-85686830I-376370J0D01*
G01*
X121626665Y-89043605D02*
G75*
G03*
X122003105Y-88667200I35J376405D01*
G01*
X122003070Y-89783200D02*
G75*
G03*
X121626665Y-89406830I-376370J0D01*
G01*
X122003060Y-82343200D02*
G75*
G03*
X121626655Y-81966840I-376360J0D01*
G01*
X121079725Y-88166795D02*
G75*
G02*
X120960105Y-88047200I-25J119595D01*
G01*
X121626665Y-86563605D02*
G75*
G03*
X122003105Y-86187200I35J376405D01*
G01*
X119692305Y-96798459D02*
G75*
G02*
X119556341Y-96662459I-5J135959D01*
G01*
X121079744Y-81966795D02*
G75*
G02*
X120960105Y-81847200I-44J119595D01*
G01*
X121626665Y-87803605D02*
G75*
G03*
X122003105Y-87427200I35J376405D01*
G01*
X120960149Y-81723200D02*
G75*
G02*
X121079744Y-81603649I119551J0D01*
G01*
X119749848Y-98498459D02*
G75*
G03*
X119885759Y-98362459I-48J135959D01*
G01*
X121105195Y-80363605D02*
G75*
G03*
X121481605Y-79987200I5J376405D01*
G01*
X122003060Y-84823200D02*
G75*
G03*
X121626655Y-84446840I-376360J0D01*
G01*
X119692305Y-97478459D02*
G75*
G02*
X119556341Y-97342459I-5J135959D01*
G01*
%TO.N,PCIE0_RX1_P*%
X120703339Y-84327200D02*
X120703339Y-84203200D01*
X121079725Y-86306795D02*
X121626665Y-86306795D01*
X121079725Y-85066795D02*
X121626655Y-85066795D01*
X145538600Y-78588070D02*
X145538600Y-77555900D01*
X121746260Y-86187200D02*
X121746260Y-86063200D01*
X117747800Y-99075500D02*
X117938494Y-99266194D01*
X146938195Y-78939405D02*
X146936779Y-78939405D01*
X120703339Y-83087200D02*
X120703339Y-82963200D01*
X121746260Y-88667200D02*
X121746260Y-88543200D01*
X146631074Y-73041890D02*
X146632074Y-73042890D01*
X146633490Y-73042890D02*
X147293105Y-73702505D01*
X147293105Y-73702505D02*
X147293105Y-78584495D01*
X121224790Y-75814226D02*
X125671621Y-71367395D01*
X136934679Y-71367395D02*
X138609174Y-73041890D01*
X120703339Y-80607200D02*
X120703339Y-80483200D01*
X121079725Y-87546795D02*
X121626665Y-87546795D01*
X121079725Y-85943605D02*
X121626665Y-85943605D01*
X121079725Y-88423605D02*
X121626665Y-88423605D01*
X147293105Y-78584495D02*
X146938195Y-78939405D01*
X120703320Y-85567200D02*
X120703320Y-85443200D01*
X145547396Y-78596866D02*
X145538600Y-78588070D01*
X138609174Y-73041890D02*
X146631074Y-73041890D01*
X120703320Y-86807200D02*
X120703320Y-86683200D01*
X119298495Y-96366305D02*
X121224790Y-94440010D01*
X120703320Y-90527200D02*
X120703320Y-90403200D01*
X119298495Y-98825605D02*
X119298495Y-96366305D01*
X121079744Y-81346795D02*
X121626665Y-81346795D01*
X120703320Y-89287200D02*
X120703320Y-89163200D01*
X121746250Y-83707200D02*
X121746250Y-83583200D01*
X121746250Y-84947200D02*
X121746250Y-84823200D01*
X121601195Y-91266795D02*
X121626665Y-91266795D01*
X146935874Y-78940310D02*
X145889426Y-78940310D01*
X120703339Y-81847200D02*
X120703339Y-81723200D01*
X145538600Y-77555900D02*
X145357800Y-77375100D01*
X121079744Y-80106795D02*
X121105195Y-80106795D01*
X117938494Y-99266194D02*
X118857906Y-99266194D01*
X121224790Y-79987200D02*
X121224790Y-75814226D01*
X121079725Y-87183605D02*
X121626665Y-87183605D01*
X121746260Y-87427200D02*
X121746260Y-87303200D01*
X121079725Y-88786795D02*
X121626665Y-88786795D01*
X121079725Y-89663605D02*
X121626665Y-89663605D01*
X146936779Y-78939405D02*
X146935874Y-78940310D01*
X121079744Y-83826795D02*
X121626655Y-83826795D01*
X120703320Y-88047200D02*
X120703320Y-87923200D01*
X121079744Y-84703605D02*
X121626655Y-84703605D01*
X121746260Y-91147200D02*
X121746260Y-91023200D01*
X121079744Y-82586795D02*
X121626655Y-82586795D01*
X121746250Y-82467200D02*
X121746250Y-82343200D01*
X121079744Y-80983605D02*
X121626665Y-80983605D01*
X125671621Y-71367395D02*
X136934679Y-71367395D01*
X145547396Y-78598280D02*
X145547396Y-78596866D01*
X146632074Y-73042890D02*
X146633490Y-73042890D01*
X118857906Y-99266194D02*
X119298495Y-98825605D01*
X121079744Y-83463605D02*
X121626655Y-83463605D01*
X121746260Y-89907200D02*
X121746260Y-89783200D01*
X121746260Y-81227200D02*
X121746260Y-81103200D01*
X121079725Y-90026795D02*
X121626665Y-90026795D01*
X121079725Y-90903605D02*
X121626665Y-90903605D01*
X121079744Y-82223605D02*
X121626655Y-82223605D01*
X145889426Y-78940310D02*
X145547396Y-78598280D01*
X121224790Y-94440010D02*
X121224790Y-91643200D01*
X121626665Y-90026795D02*
G75*
G03*
X121746295Y-89907200I35J119595D01*
G01*
X121626665Y-88786795D02*
G75*
G03*
X121746295Y-88667200I35J119595D01*
G01*
X120703339Y-81723200D02*
G75*
G02*
X121079744Y-81346839I376361J0D01*
G01*
X120703320Y-87923200D02*
G75*
G02*
X121079725Y-87546820I376380J0D01*
G01*
X121079725Y-87183605D02*
G75*
G02*
X120703295Y-86807200I-25J376405D01*
G01*
X121079725Y-89663605D02*
G75*
G02*
X120703295Y-89287200I-25J376405D01*
G01*
X121746250Y-84823200D02*
G75*
G03*
X121626655Y-84703650I-119550J0D01*
G01*
X121626665Y-91266795D02*
G75*
G03*
X121746295Y-91147200I35J119595D01*
G01*
X121079744Y-83463605D02*
G75*
G02*
X120703295Y-83087200I-44J376405D01*
G01*
X121746250Y-83583200D02*
G75*
G03*
X121626655Y-83463650I-119550J0D01*
G01*
X121626655Y-82586795D02*
G75*
G03*
X121746295Y-82467200I45J119595D01*
G01*
X121626665Y-87546795D02*
G75*
G03*
X121746295Y-87427200I35J119595D01*
G01*
X121746260Y-87303200D02*
G75*
G03*
X121626665Y-87183640I-119560J0D01*
G01*
X121626655Y-83826795D02*
G75*
G03*
X121746295Y-83707200I45J119595D01*
G01*
X121079744Y-82223605D02*
G75*
G02*
X120703295Y-81847200I-44J376405D01*
G01*
X120703320Y-90403200D02*
G75*
G02*
X121079725Y-90026820I376380J0D01*
G01*
X121626665Y-81346795D02*
G75*
G03*
X121746295Y-81227200I35J119595D01*
G01*
X121224790Y-91643200D02*
G75*
G02*
X121601195Y-91266790I376410J0D01*
G01*
X120703320Y-86683200D02*
G75*
G02*
X121079725Y-86306820I376380J0D01*
G01*
X120703339Y-84203200D02*
G75*
G02*
X121079744Y-83826839I376361J0D01*
G01*
X121626655Y-85066795D02*
G75*
G03*
X121746295Y-84947200I45J119595D01*
G01*
X120703320Y-85443200D02*
G75*
G02*
X121079725Y-85066820I376380J0D01*
G01*
X121746250Y-82343200D02*
G75*
G03*
X121626655Y-82223650I-119550J0D01*
G01*
X121746260Y-81103200D02*
G75*
G03*
X121626665Y-80983640I-119560J0D01*
G01*
X121079725Y-85943605D02*
G75*
G02*
X120703295Y-85567200I-25J376405D01*
G01*
X120703339Y-80483200D02*
G75*
G02*
X121079744Y-80106839I376361J0D01*
G01*
X121746260Y-86063200D02*
G75*
G03*
X121626665Y-85943640I-119560J0D01*
G01*
X121626665Y-86306795D02*
G75*
G03*
X121746295Y-86187200I35J119595D01*
G01*
X121746260Y-88543200D02*
G75*
G03*
X121626665Y-88423640I-119560J0D01*
G01*
X121079744Y-84703605D02*
G75*
G02*
X120703295Y-84327200I-44J376405D01*
G01*
X120703320Y-89163200D02*
G75*
G02*
X121079725Y-88786820I376380J0D01*
G01*
X121079725Y-88423605D02*
G75*
G02*
X120703295Y-88047200I-25J376405D01*
G01*
X121079725Y-90903605D02*
G75*
G02*
X120703295Y-90527200I-25J376405D01*
G01*
X121105195Y-80106795D02*
G75*
G03*
X121224795Y-79987200I5J119595D01*
G01*
X121746260Y-89783200D02*
G75*
G03*
X121626665Y-89663640I-119560J0D01*
G01*
X121079744Y-80983605D02*
G75*
G02*
X120703295Y-80607200I-44J376405D01*
G01*
X120703339Y-82963200D02*
G75*
G02*
X121079744Y-82586839I376361J0D01*
G01*
X121746260Y-91023200D02*
G75*
G03*
X121626665Y-90903640I-119560J0D01*
G01*
%TO.N,PCIE0_RX2_N*%
X119068410Y-92065222D02*
X119139405Y-92065222D01*
X139871710Y-70760510D02*
X139873126Y-70760510D01*
X118944410Y-92251222D02*
X118944410Y-92189222D01*
X123237995Y-69744605D02*
X131850595Y-69744605D01*
X118944410Y-92871222D02*
X118944410Y-92809222D01*
X119454320Y-81247248D02*
X119454320Y-81123248D01*
X119454304Y-86207248D02*
X119454304Y-86083248D01*
X118554111Y-85706843D02*
X119077899Y-85706843D01*
X118554111Y-86583653D02*
X119077899Y-86583653D01*
X118554111Y-82863653D02*
X119077899Y-82863653D01*
X119064005Y-90303653D02*
X119077899Y-90303653D01*
X118554111Y-87823653D02*
X119077899Y-87823653D01*
X118554111Y-89426843D02*
X119077899Y-89426843D01*
X148807946Y-77562694D02*
X148995540Y-77375100D01*
X118509800Y-94158384D02*
X118944410Y-93723774D01*
X118434516Y-81867248D02*
X118434516Y-81743248D01*
X149854076Y-78680690D02*
X148997774Y-78680690D01*
X118434516Y-86827248D02*
X118434516Y-86703248D01*
X118434516Y-88067248D02*
X118434516Y-87943248D01*
X119068410Y-93305222D02*
X119139405Y-93305222D01*
X118434516Y-84347248D02*
X118434516Y-84223248D01*
X119077915Y-80746843D02*
X119064005Y-80746843D01*
X150057895Y-78476871D02*
X149854076Y-78680690D01*
X118554111Y-84466843D02*
X119077915Y-84466843D01*
X118944410Y-80627248D02*
X118944410Y-74038190D01*
X119263405Y-91941222D02*
X119263405Y-91879222D01*
X118554111Y-85343653D02*
X119077915Y-85343653D01*
X119139405Y-91755222D02*
X119068410Y-91755222D01*
X148997774Y-78680690D02*
X148807946Y-78490862D01*
X139874126Y-70761510D02*
X147546596Y-70761510D01*
X118434516Y-83107248D02*
X118434516Y-82983248D01*
X137864300Y-68753100D02*
X139871710Y-70760510D01*
X118509800Y-94159800D02*
X118509800Y-94158384D01*
X118147194Y-94522406D02*
X118509800Y-94159800D01*
X150057895Y-73272809D02*
X150057895Y-78476871D01*
X119454304Y-89927248D02*
X119454304Y-89803248D01*
X119454304Y-82487248D02*
X119454304Y-82363248D01*
X131850595Y-69744605D02*
X132842100Y-68753100D01*
X118554111Y-81986843D02*
X119077899Y-81986843D01*
X118944410Y-93723774D02*
X118944410Y-93429222D01*
X118554111Y-86946843D02*
X119077899Y-86946843D01*
X148807946Y-78490862D02*
X148807946Y-77562694D01*
X118944410Y-74038190D02*
X123237995Y-69744605D01*
X119139405Y-92995222D02*
X119068410Y-92995222D01*
X119454304Y-88687248D02*
X119454304Y-88563248D01*
X118434516Y-85587248D02*
X118434516Y-85463248D01*
X147546596Y-70761510D02*
X150057895Y-73272809D01*
X118944410Y-91631222D02*
X118944410Y-90423248D01*
X118554111Y-84103653D02*
X119077899Y-84103653D01*
X132842100Y-68753100D02*
X137864300Y-68753100D01*
X139873126Y-70760510D02*
X139874126Y-70761510D01*
X118554111Y-88186843D02*
X119077899Y-88186843D01*
X118554111Y-81623653D02*
X119077915Y-81623653D01*
X118554111Y-89063653D02*
X119077899Y-89063653D01*
X119454304Y-83727248D02*
X119454304Y-83603248D01*
X118434516Y-89307248D02*
X118434516Y-89183248D01*
X117672140Y-94522406D02*
X118147194Y-94522406D01*
X118554111Y-83226843D02*
X119077899Y-83226843D01*
X119454320Y-84967248D02*
X119454320Y-84843248D01*
X117483546Y-94711000D02*
X117672140Y-94522406D01*
X119454304Y-87447248D02*
X119454304Y-87323248D01*
X119139378Y-92375222D02*
X119068410Y-92375222D01*
X119263405Y-93181222D02*
X119263405Y-93119222D01*
X119263378Y-92561222D02*
X119263378Y-92499222D01*
X119068410Y-92685222D02*
X119139378Y-92685222D01*
X119454304Y-87323248D02*
G75*
G03*
X119077899Y-86946796I-376404J48D01*
G01*
X119263405Y-93119222D02*
G75*
G03*
X119139405Y-92995195I-124005J22D01*
G01*
X118434516Y-84223248D02*
G75*
G02*
X118554111Y-84103616I119584J48D01*
G01*
X119454320Y-81123248D02*
G75*
G03*
X119077915Y-80746780I-376420J48D01*
G01*
X119139405Y-92065222D02*
G75*
G03*
X119263422Y-91941222I-5J124022D01*
G01*
X118434516Y-87943248D02*
G75*
G02*
X118554111Y-87823616I119584J48D01*
G01*
X118554111Y-89426843D02*
G75*
G02*
X118434457Y-89307248I-11J119643D01*
G01*
X118944410Y-93429222D02*
G75*
G02*
X119068410Y-93305210I123990J22D01*
G01*
X119064005Y-80746843D02*
G75*
G02*
X118944357Y-80627248I-5J119643D01*
G01*
X119077915Y-81623653D02*
G75*
G03*
X119454353Y-81247248I-15J376453D01*
G01*
X118554111Y-88186843D02*
G75*
G02*
X118434457Y-88067248I-11J119643D01*
G01*
X118434516Y-85463248D02*
G75*
G02*
X118554111Y-85343616I119584J48D01*
G01*
X118434516Y-82983248D02*
G75*
G02*
X118554111Y-82863616I119584J48D01*
G01*
X118554111Y-84466843D02*
G75*
G02*
X118434457Y-84347248I-11J119643D01*
G01*
X119454304Y-86083248D02*
G75*
G03*
X119077899Y-85706796I-376404J48D01*
G01*
X119077915Y-85343653D02*
G75*
G03*
X119454353Y-84967248I-15J376453D01*
G01*
X118554111Y-86946843D02*
G75*
G02*
X118434457Y-86827248I-11J119643D01*
G01*
X119077899Y-89063653D02*
G75*
G03*
X119454353Y-88687248I1J376453D01*
G01*
X119139405Y-93305222D02*
G75*
G03*
X119263422Y-93181222I-5J124022D01*
G01*
X118434516Y-89183248D02*
G75*
G02*
X118554111Y-89063616I119584J48D01*
G01*
X119454304Y-88563248D02*
G75*
G03*
X119077899Y-88186796I-376404J48D01*
G01*
X119077899Y-90303653D02*
G75*
G03*
X119454353Y-89927248I1J376453D01*
G01*
X119077899Y-82863653D02*
G75*
G03*
X119454353Y-82487248I1J376453D01*
G01*
X119454304Y-89803248D02*
G75*
G03*
X119077899Y-89426796I-376404J48D01*
G01*
X118944410Y-90423248D02*
G75*
G02*
X119064005Y-90303610I119590J48D01*
G01*
X119068410Y-92995222D02*
G75*
G02*
X118944378Y-92871222I-10J124022D01*
G01*
X119077899Y-87823653D02*
G75*
G03*
X119454353Y-87447248I1J376453D01*
G01*
X118944410Y-92189222D02*
G75*
G02*
X119068410Y-92065210I123990J22D01*
G01*
X119454304Y-82363248D02*
G75*
G03*
X119077899Y-81986796I-376404J48D01*
G01*
X119077899Y-84103653D02*
G75*
G03*
X119454353Y-83727248I1J376453D01*
G01*
X119139378Y-92685222D02*
G75*
G03*
X119263422Y-92561222I22J124022D01*
G01*
X119068410Y-92375222D02*
G75*
G02*
X118944378Y-92251222I-10J124022D01*
G01*
X118434516Y-86703248D02*
G75*
G02*
X118554111Y-86583616I119584J48D01*
G01*
X119454304Y-83603248D02*
G75*
G03*
X119077899Y-83226796I-376404J48D01*
G01*
X118944410Y-92809222D02*
G75*
G02*
X119068410Y-92685210I123990J22D01*
G01*
X119454320Y-84843248D02*
G75*
G03*
X119077915Y-84466780I-376420J48D01*
G01*
X119077899Y-86583653D02*
G75*
G03*
X119454353Y-86207248I1J376453D01*
G01*
X119263378Y-92499222D02*
G75*
G03*
X119139378Y-92375222I-123978J22D01*
G01*
X118554111Y-81986843D02*
G75*
G02*
X118434457Y-81867248I-11J119643D01*
G01*
X119263405Y-91879222D02*
G75*
G03*
X119139405Y-91755195I-124005J22D01*
G01*
X118434516Y-81743248D02*
G75*
G02*
X118554111Y-81623616I119584J48D01*
G01*
X119068410Y-91755222D02*
G75*
G02*
X118944378Y-91631222I-10J124022D01*
G01*
X118554111Y-85706843D02*
G75*
G02*
X118434457Y-85587248I-11J119643D01*
G01*
X118554111Y-83226843D02*
G75*
G02*
X118434457Y-83107248I-11J119643D01*
G01*
%TO.N,PCIE0_RX2_P*%
X119197494Y-86207248D02*
X119197494Y-86083248D01*
X119197494Y-89927248D02*
X119197494Y-89803248D01*
X118177706Y-85587248D02*
X118177706Y-85463248D01*
X118177706Y-89307248D02*
X118177706Y-89183248D01*
X118554111Y-83846843D02*
X119077899Y-83846843D01*
X131743805Y-69486795D02*
X132734310Y-68496290D01*
X118554111Y-84723653D02*
X119077915Y-84723653D01*
X123470405Y-69486795D02*
X131743805Y-69486795D01*
X118554111Y-82243653D02*
X119077899Y-82243653D01*
X150315705Y-73167435D02*
X150315705Y-78582245D01*
X148891400Y-78937500D02*
X148551136Y-78597236D01*
X118554111Y-85963653D02*
X119077899Y-85963653D01*
X118177706Y-84347248D02*
X118177706Y-84223248D01*
X123469405Y-69487795D02*
X123470405Y-69486795D01*
X118554111Y-89683653D02*
X119077899Y-89683653D01*
X119064005Y-90046843D02*
X119077899Y-90046843D01*
X118554111Y-86326843D02*
X119077899Y-86326843D01*
X118554111Y-87203653D02*
X119077899Y-87203653D01*
X137972090Y-68496290D02*
X139980500Y-70504700D01*
X118177706Y-81867248D02*
X118177706Y-81743248D01*
X119197510Y-81247248D02*
X119197510Y-81123248D01*
X147652970Y-70504700D02*
X150315705Y-73167435D01*
X118554111Y-88806843D02*
X119077899Y-88806843D01*
X118554111Y-81366843D02*
X119077915Y-81366843D01*
X118040406Y-94264594D02*
X118687600Y-93617400D01*
X118177706Y-86827248D02*
X118177706Y-86703248D01*
X118177706Y-83107248D02*
X118177706Y-82983248D01*
X118687600Y-80627248D02*
X118687600Y-73931816D01*
X150315705Y-78582245D02*
X149960450Y-78937500D01*
X148551136Y-78597236D02*
X148551136Y-77565696D01*
X118554111Y-88443653D02*
X119077899Y-88443653D01*
X119197494Y-88687248D02*
X119197494Y-88563248D01*
X117672140Y-94264594D02*
X118040406Y-94264594D01*
X139980500Y-70504700D02*
X147652970Y-70504700D01*
X119197510Y-84967248D02*
X119197510Y-84843248D01*
X123131621Y-69487795D02*
X123469405Y-69487795D01*
X118554111Y-83483653D02*
X119077899Y-83483653D01*
X118177706Y-88067248D02*
X118177706Y-87943248D01*
X132734310Y-68496290D02*
X137972090Y-68496290D01*
X119197494Y-87447248D02*
X119197494Y-87323248D01*
X149960450Y-78937500D02*
X148891400Y-78937500D01*
X118687600Y-93617400D02*
X118687600Y-90423248D01*
X148551136Y-77565696D02*
X148360540Y-77375100D01*
X117483546Y-94076000D02*
X117672140Y-94264594D01*
X118554111Y-87566843D02*
X119077899Y-87566843D01*
X119197494Y-82487248D02*
X119197494Y-82363248D01*
X118687600Y-73931816D02*
X123131621Y-69487795D01*
X119077915Y-81003653D02*
X119064005Y-81003653D01*
X118554111Y-85086843D02*
X119077915Y-85086843D01*
X118554111Y-82606843D02*
X119077899Y-82606843D01*
X119197494Y-83727248D02*
X119197494Y-83603248D01*
X118554111Y-85963653D02*
G75*
G02*
X118177647Y-85587248I-11J376453D01*
G01*
X119077899Y-86326843D02*
G75*
G03*
X119197543Y-86207248I1J119643D01*
G01*
X119197494Y-87323248D02*
G75*
G03*
X119077899Y-87203606I-119594J48D01*
G01*
X119064005Y-81003653D02*
G75*
G02*
X118687547Y-80627248I-5J376453D01*
G01*
X118554111Y-87203653D02*
G75*
G02*
X118177647Y-86827248I-11J376453D01*
G01*
X119197510Y-81123248D02*
G75*
G03*
X119077915Y-81003590I-119610J48D01*
G01*
X118554111Y-84723653D02*
G75*
G02*
X118177647Y-84347248I-11J376453D01*
G01*
X119077899Y-87566843D02*
G75*
G03*
X119197543Y-87447248I1J119643D01*
G01*
X118177706Y-81743248D02*
G75*
G02*
X118554111Y-81366806I376394J48D01*
G01*
X118554111Y-88443653D02*
G75*
G02*
X118177647Y-88067248I-11J376453D01*
G01*
X118177706Y-85463248D02*
G75*
G02*
X118554111Y-85086806I376394J48D01*
G01*
X118554111Y-89683653D02*
G75*
G02*
X118177647Y-89307248I-11J376453D01*
G01*
X119077899Y-90046843D02*
G75*
G03*
X119197543Y-89927248I1J119643D01*
G01*
X118177706Y-89183248D02*
G75*
G02*
X118554111Y-88806806I376394J48D01*
G01*
X118554111Y-83483653D02*
G75*
G02*
X118177647Y-83107248I-11J376453D01*
G01*
X119197494Y-86083248D02*
G75*
G03*
X119077899Y-85963606I-119594J48D01*
G01*
X118177706Y-87943248D02*
G75*
G02*
X118554111Y-87566806I376394J48D01*
G01*
X119077899Y-88806843D02*
G75*
G03*
X119197543Y-88687248I1J119643D01*
G01*
X119197494Y-88563248D02*
G75*
G03*
X119077899Y-88443606I-119594J48D01*
G01*
X118177706Y-86703248D02*
G75*
G02*
X118554111Y-86326806I376394J48D01*
G01*
X118554111Y-82243653D02*
G75*
G02*
X118177647Y-81867248I-11J376453D01*
G01*
X119197494Y-82363248D02*
G75*
G03*
X119077899Y-82243606I-119594J48D01*
G01*
X119197494Y-83603248D02*
G75*
G03*
X119077899Y-83483606I-119594J48D01*
G01*
X118687600Y-90423248D02*
G75*
G02*
X119064005Y-90046800I376400J48D01*
G01*
X119197494Y-89803248D02*
G75*
G03*
X119077899Y-89683606I-119594J48D01*
G01*
X118177706Y-82983248D02*
G75*
G02*
X118554111Y-82606806I376394J48D01*
G01*
X119197510Y-84843248D02*
G75*
G03*
X119077915Y-84723590I-119610J48D01*
G01*
X119077899Y-83846843D02*
G75*
G03*
X119197543Y-83727248I1J119643D01*
G01*
X119077915Y-81366843D02*
G75*
G03*
X119197543Y-81247248I-15J119643D01*
G01*
X118177706Y-84223248D02*
G75*
G02*
X118554111Y-83846806I376394J48D01*
G01*
X119077915Y-85086843D02*
G75*
G03*
X119197543Y-84967248I-15J119643D01*
G01*
X119077899Y-82606843D02*
G75*
G03*
X119197543Y-82487248I1J119643D01*
G01*
%TO.N,PCIE0_RX3_N*%
X153029695Y-78500021D02*
X152849026Y-78680690D01*
X139795605Y-67077605D02*
X142107005Y-69389005D01*
X114163863Y-93146406D02*
X114163863Y-93217814D01*
X113543863Y-93146406D02*
X113543863Y-93217814D01*
X151969574Y-78680690D02*
X151805206Y-78516322D01*
X116226610Y-71269590D02*
X119554995Y-67941205D01*
X131143479Y-67940205D02*
X132006079Y-67077605D01*
X116226610Y-92305874D02*
X116226610Y-71269590D01*
X131141065Y-67941205D02*
X131142065Y-67940205D01*
X115217863Y-93022406D02*
X115279863Y-93022406D01*
X114907863Y-93341839D02*
X114969863Y-93341839D01*
X114473863Y-93217814D02*
X114473863Y-93146406D01*
X149825521Y-69389005D02*
X153029695Y-72593179D01*
X113667863Y-93341814D02*
X113729863Y-93341814D01*
X113853863Y-93217814D02*
X113853863Y-93146406D01*
X151805206Y-78516322D02*
X151805206Y-77563694D01*
X119554995Y-67941205D02*
X131141065Y-67941205D01*
X115279863Y-93022406D02*
X115403394Y-93022406D01*
X113977863Y-93022406D02*
X114039863Y-93022406D01*
X115404396Y-93021404D02*
X115411000Y-93021404D01*
X114287863Y-93341814D02*
X114349863Y-93341814D01*
X131142065Y-67940205D02*
X131143479Y-67940205D01*
X115403394Y-93022406D02*
X115404396Y-93021404D01*
X132006079Y-67077605D02*
X139795605Y-67077605D01*
X112518600Y-93211000D02*
X112707194Y-93022406D01*
X114783863Y-93146406D02*
X114783863Y-93217839D01*
X142107005Y-69389005D02*
X149825521Y-69389005D01*
X153029695Y-72593179D02*
X153029695Y-78500021D01*
X152849026Y-78680690D02*
X151969574Y-78680690D01*
X114597863Y-93022406D02*
X114659863Y-93022406D01*
X115511080Y-93021404D02*
X116226610Y-92305874D01*
X151805206Y-77563694D02*
X151993800Y-77375100D01*
X115093863Y-93217839D02*
X115093863Y-93146406D01*
X112707194Y-93022406D02*
X113419863Y-93022406D01*
X115411000Y-93021404D02*
X115511080Y-93021404D01*
X113853863Y-93146406D02*
G75*
G02*
X113977863Y-93022363I124037J6D01*
G01*
X113419863Y-93022406D02*
G75*
G02*
X113543894Y-93146406I37J-123994D01*
G01*
X114163863Y-93217814D02*
G75*
G03*
X114287863Y-93341837I124037J14D01*
G01*
X114349863Y-93341814D02*
G75*
G03*
X114473914Y-93217814I37J124014D01*
G01*
X115093863Y-93146406D02*
G75*
G02*
X115217863Y-93022363I124037J6D01*
G01*
X114473863Y-93146406D02*
G75*
G02*
X114597863Y-93022363I124037J6D01*
G01*
X113729863Y-93341814D02*
G75*
G03*
X113853914Y-93217814I37J124014D01*
G01*
X114659863Y-93022406D02*
G75*
G02*
X114783894Y-93146406I37J-123994D01*
G01*
X113543863Y-93217814D02*
G75*
G03*
X113667863Y-93341837I124037J14D01*
G01*
X114783863Y-93217839D02*
G75*
G03*
X114907863Y-93341837I124037J39D01*
G01*
X114039863Y-93022406D02*
G75*
G02*
X114163894Y-93146406I37J-123994D01*
G01*
X114969863Y-93341839D02*
G75*
G03*
X115093939Y-93217839I37J124039D01*
G01*
%TO.N,PCIE0_RX3_P*%
X153287505Y-78605395D02*
X152955400Y-78937500D01*
X142213795Y-69131195D02*
X149930895Y-69131195D01*
X131037105Y-67683395D02*
X131900705Y-66819795D01*
X152955400Y-78937500D02*
X151863200Y-78937500D01*
X120167405Y-67684395D02*
X120168405Y-67683395D01*
X115969800Y-92199500D02*
X115969800Y-71163216D01*
X151547394Y-77563694D02*
X151358800Y-77375100D01*
X149930895Y-69131195D02*
X153287505Y-72487805D01*
X153287505Y-72487805D02*
X153287505Y-78605395D01*
X112518600Y-92576000D02*
X112707194Y-92764594D01*
X151547394Y-78621694D02*
X151547394Y-77563694D01*
X139902395Y-66819795D02*
X142213795Y-69131195D01*
X151863200Y-78937500D02*
X151547394Y-78621694D01*
X120168405Y-67683395D02*
X131037105Y-67683395D01*
X112707194Y-92764594D02*
X115404706Y-92764594D01*
X115969800Y-71163216D02*
X119448621Y-67684395D01*
X119448621Y-67684395D02*
X120167405Y-67684395D01*
X115404706Y-92764594D02*
X115969800Y-92199500D01*
X131900705Y-66819795D02*
X139902395Y-66819795D01*
D23*
%TO.N,PCIE0_CLK_N*%
X140338184Y-89894224D02*
X141828696Y-89894224D01*
X141226696Y-81357200D02*
X139818556Y-79949060D01*
X137727084Y-96091136D02*
X137552840Y-96265380D01*
X140338184Y-92574224D02*
X140815440Y-92574224D01*
X139339380Y-96091136D02*
X137727084Y-96091136D01*
X140338184Y-90850736D02*
X141828696Y-90850736D01*
X140213440Y-89635480D02*
X140213440Y-89769480D01*
X141226696Y-92985480D02*
X141226696Y-94203820D01*
X141226696Y-88429480D02*
X141226696Y-81357200D01*
X139818556Y-77549344D02*
X139992800Y-77375100D01*
X141226696Y-94203820D02*
X139339380Y-96091136D01*
X140338184Y-89510736D02*
X141828696Y-89510736D01*
X142239952Y-88965480D02*
X142239952Y-89099480D01*
X139818556Y-79949060D02*
X139818556Y-77549344D01*
X140338184Y-92190736D02*
X141828696Y-92190736D01*
X140213440Y-90975480D02*
X140213440Y-91109480D01*
X142239952Y-91645480D02*
X142239952Y-91779480D01*
X140338184Y-91234224D02*
X141828696Y-91234224D01*
X141351440Y-88554224D02*
X141828696Y-88554224D01*
X142239952Y-90305480D02*
X142239952Y-90439480D01*
X140213440Y-92315480D02*
X140213440Y-92449480D01*
X142239952Y-91779480D02*
G75*
G02*
X141828696Y-92190752I-411252J-20D01*
G01*
X141828696Y-91234224D02*
G75*
G02*
X142239976Y-91645480I4J-411276D01*
G01*
X142239952Y-89099480D02*
G75*
G02*
X141828696Y-89510752I-411252J-20D01*
G01*
X140213440Y-89769480D02*
G75*
G03*
X140338184Y-89894260I124760J-20D01*
G01*
X142239952Y-90439480D02*
G75*
G02*
X141828696Y-90850752I-411252J-20D01*
G01*
X140213440Y-92449480D02*
G75*
G03*
X140338184Y-92574260I124760J-20D01*
G01*
X140338184Y-90850736D02*
G75*
G03*
X140213436Y-90975480I16J-124764D01*
G01*
X140338184Y-92190736D02*
G75*
G03*
X140213436Y-92315480I16J-124764D01*
G01*
X140338184Y-89510736D02*
G75*
G03*
X140213436Y-89635480I16J-124764D01*
G01*
X141226696Y-88429480D02*
G75*
G03*
X141351440Y-88554204I124704J-20D01*
G01*
X140815440Y-92574224D02*
G75*
G02*
X141226676Y-92985480I-40J-411276D01*
G01*
X141828696Y-88554224D02*
G75*
G02*
X142239976Y-88965480I4J-411276D01*
G01*
X140213440Y-91109480D02*
G75*
G03*
X140338184Y-91234260I124760J-20D01*
G01*
X141828696Y-89894224D02*
G75*
G02*
X142239976Y-90305480I4J-411276D01*
G01*
%TO.N,PCIE0_CLK_P*%
X139901272Y-95124049D02*
X139831977Y-95193346D01*
X139220700Y-95804624D02*
X137727084Y-95804624D01*
X140338184Y-90564224D02*
X141828696Y-90564224D01*
X141953440Y-88965480D02*
X141953440Y-89099480D01*
X140247756Y-94500382D02*
X140238147Y-94490773D01*
X139891664Y-94837255D02*
X139901272Y-94846863D01*
X140338184Y-92860736D02*
X140815440Y-92860736D01*
X139926928Y-90975480D02*
X139926928Y-91109480D01*
X139220700Y-95804624D02*
X139831977Y-95193346D01*
X140940184Y-88429480D02*
X140940184Y-81475880D01*
X139926928Y-92315480D02*
X139926928Y-92449480D01*
X140940184Y-81475880D02*
X139532044Y-80067740D01*
X140338184Y-91520736D02*
X141828696Y-91520736D01*
X139960961Y-94490773D02*
X139891664Y-94560069D01*
X139926928Y-89635480D02*
X139926928Y-89769480D01*
X140940184Y-92985480D02*
X140940184Y-94085140D01*
X139532044Y-77549344D02*
X139357800Y-77375100D01*
X140338184Y-90180736D02*
X141828696Y-90180736D01*
X141953440Y-91645480D02*
X141953440Y-91779480D01*
X139532044Y-80067740D02*
X139532044Y-77549344D01*
X141351440Y-88840736D02*
X141828696Y-88840736D01*
X137727084Y-95804624D02*
X137552840Y-95630380D01*
X141953440Y-90305480D02*
X141953440Y-90439480D01*
X140940184Y-94085140D02*
X140524942Y-94500382D01*
X140338184Y-91904224D02*
X141828696Y-91904224D01*
X140338184Y-89224224D02*
X141828696Y-89224224D01*
X139901272Y-94846863D02*
G75*
G02*
X139901316Y-95124093I-138572J-138637D01*
G01*
X139926928Y-91109480D02*
G75*
G03*
X140338184Y-91520772I411272J-20D01*
G01*
X141828696Y-90180736D02*
G75*
G02*
X141953464Y-90305480I4J-124764D01*
G01*
X139926928Y-89769480D02*
G75*
G03*
X140338184Y-90180772I411272J-20D01*
G01*
X140238147Y-94490773D02*
G75*
G03*
X139960961Y-94490773I-138593J-138593D01*
G01*
X141953440Y-89099480D02*
G75*
G02*
X141828696Y-89224240I-124740J-20D01*
G01*
X141953440Y-91779480D02*
G75*
G02*
X141828696Y-91904240I-124740J-20D01*
G01*
X140940184Y-88429480D02*
G75*
G03*
X141351440Y-88840716I411216J-20D01*
G01*
X140815440Y-92860736D02*
G75*
G02*
X140940164Y-92985480I-40J-124764D01*
G01*
X140338184Y-90564224D02*
G75*
G03*
X139926924Y-90975480I16J-411276D01*
G01*
X140524942Y-94500382D02*
G75*
G02*
X140247756Y-94500382I-138593J138593D01*
G01*
X141828696Y-91520736D02*
G75*
G02*
X141953464Y-91645480I4J-124764D01*
G01*
X139926928Y-92449480D02*
G75*
G03*
X140338184Y-92860772I411272J-20D01*
G01*
X141828696Y-88840736D02*
G75*
G02*
X141953464Y-88965480I4J-124764D01*
G01*
X139891664Y-94560069D02*
G75*
G03*
X139891626Y-94837293I138636J-138631D01*
G01*
X141953440Y-90439480D02*
G75*
G02*
X141828696Y-90564240I-124740J-20D01*
G01*
X140338184Y-91904224D02*
G75*
G03*
X139926924Y-92315480I16J-411276D01*
G01*
X140338184Y-89224224D02*
G75*
G03*
X139926924Y-89635480I16J-411276D01*
G01*
D24*
%TO.N,3V3_STDB*%
X177736400Y-92881600D02*
X179129600Y-92881600D01*
X121032680Y-62508780D02*
X122983400Y-64459500D01*
X176389440Y-91534640D02*
X177736400Y-92881600D01*
X112377400Y-77920200D02*
X112740000Y-78282800D01*
X173611922Y-60235480D02*
X170943801Y-62903601D01*
X118025320Y-62508780D02*
X112377400Y-68156700D01*
X176389440Y-61784880D02*
X177938840Y-60235480D01*
X110984900Y-71304300D02*
X109521400Y-71304300D01*
X117014400Y-62508780D02*
X121032680Y-62508780D01*
X177938840Y-60235480D02*
X173611922Y-60235480D01*
X176389440Y-83178040D02*
X176389440Y-81762600D01*
X112377400Y-73355200D02*
X112377400Y-77920200D01*
X107537541Y-62508780D02*
X118025320Y-62508780D01*
X188007400Y-65107400D02*
X183135480Y-60235480D01*
X174916240Y-80123680D02*
X176389440Y-78650480D01*
X185479600Y-84678400D02*
X177889800Y-84678400D01*
X166612439Y-80123680D02*
X174916240Y-80123680D01*
X176389440Y-78650480D02*
X176389440Y-77851000D01*
X176389440Y-77851000D02*
X176389440Y-81762600D01*
X112377400Y-69911800D02*
X110984900Y-71304300D01*
X112377400Y-68156700D02*
X112377400Y-69911800D01*
X112377400Y-73355200D02*
X112377400Y-73814320D01*
X176389440Y-77851000D02*
X176389440Y-61784880D01*
X112377400Y-68156700D02*
X112377400Y-73355200D01*
X106095040Y-63951281D02*
X107537541Y-62508780D01*
X183135480Y-60235480D02*
X177938840Y-60235480D01*
X122983400Y-64459500D02*
X162076500Y-64459500D01*
X176389440Y-81762600D02*
X176389440Y-91534640D01*
X162076500Y-64459500D02*
X163632399Y-62903601D01*
X163632399Y-62903601D02*
X170943801Y-62903601D01*
X179129600Y-92881600D02*
X182253800Y-92881600D01*
X177889800Y-84678400D02*
X176389440Y-83178040D01*
D22*
%TO.N,USBSS2_RX_N*%
X118854416Y-121209954D02*
X118854416Y-121206406D01*
X139364495Y-115566205D02*
X166897405Y-115566205D01*
X166897405Y-115566205D02*
X168312134Y-116980934D01*
X168312134Y-116980934D02*
X168312134Y-117882686D01*
X117675434Y-121022406D02*
X118210416Y-121022406D01*
X134309895Y-120620805D02*
X139364495Y-115566205D01*
X124504891Y-120620805D02*
X134309895Y-120620805D01*
X168312134Y-117882686D02*
X168123540Y-118071280D01*
X118394416Y-121206406D02*
X118394416Y-121209954D01*
X118578416Y-121393954D02*
X118670416Y-121393954D01*
X124103290Y-121022406D02*
X124504891Y-120620805D01*
X119038416Y-121022406D02*
X124103290Y-121022406D01*
X117486840Y-121211000D02*
X117675434Y-121022406D01*
X118670416Y-121393954D02*
G75*
G03*
X118854354Y-121209954I-16J183954D01*
G01*
X118394416Y-121209954D02*
G75*
G03*
X118578416Y-121393984I183984J-46D01*
G01*
X118210416Y-121022406D02*
G75*
G02*
X118394394Y-121206406I-16J-183994D01*
G01*
X118854416Y-121206406D02*
G75*
G02*
X119038416Y-121022416I183984J6D01*
G01*
%TO.N,USBSS2_RX_P*%
X123955910Y-120764594D02*
X117675434Y-120764594D01*
X168569946Y-116874146D02*
X167004195Y-115308395D01*
X139260535Y-115308395D02*
X134205935Y-120362995D01*
X167004195Y-115308395D02*
X139260535Y-115308395D01*
X168758540Y-118071280D02*
X168569946Y-117882686D01*
X117675434Y-120764594D02*
X117486840Y-120576000D01*
X168569946Y-117882686D02*
X168569946Y-116874146D01*
X124357509Y-120362995D02*
X123955910Y-120764594D01*
X134205935Y-120362995D02*
X124357509Y-120362995D01*
%TO.N,USBSS2_TX_N*%
X122015691Y-119198405D02*
X132714195Y-119198405D01*
X117485609Y-119711000D02*
X117674203Y-119522406D01*
X167786405Y-113534205D02*
X170242534Y-115990334D01*
X170242534Y-117908086D02*
X170053940Y-118096680D01*
X118555951Y-119893906D02*
X118647951Y-119893906D01*
X117674203Y-119522406D02*
X118187951Y-119522406D01*
X170242534Y-115990334D02*
X170242534Y-117908086D01*
X118371951Y-119706406D02*
X118371951Y-119709906D01*
X138378395Y-113534205D02*
X167786405Y-113534205D01*
X118831951Y-119709906D02*
X118831951Y-119706406D01*
X121691690Y-119522406D02*
X122015691Y-119198405D01*
X132714195Y-119198405D02*
X138378395Y-113534205D01*
X119015951Y-119522406D02*
X121691690Y-119522406D01*
X118371951Y-119709906D02*
G75*
G03*
X118555951Y-119893849I183949J6D01*
G01*
X118647951Y-119893906D02*
G75*
G03*
X118832006Y-119709906I49J184006D01*
G01*
X118831951Y-119706406D02*
G75*
G02*
X119015951Y-119522451I183949J6D01*
G01*
X118187951Y-119522406D02*
G75*
G02*
X118371994Y-119706406I49J-183994D01*
G01*
%TO.N,USBSS2_TX_P*%
X170500346Y-115883546D02*
X167893195Y-113276395D01*
X170500346Y-117908086D02*
X170500346Y-115883546D01*
X138271605Y-113276395D02*
X132607405Y-118940595D01*
X170688940Y-118096680D02*
X170500346Y-117908086D01*
X121544310Y-119264594D02*
X117674203Y-119264594D01*
X132607405Y-118940595D02*
X121868309Y-118940595D01*
X167893195Y-113276395D02*
X138271605Y-113276395D01*
X117674203Y-119264594D02*
X117485609Y-119076000D01*
X121868309Y-118940595D02*
X121544310Y-119264594D01*
D25*
%TO.N,DP1_TXD1_HDMI_TX1_N*%
X122142742Y-116577650D02*
X122609822Y-116577650D01*
X121476252Y-116150460D02*
X121476252Y-116050657D01*
X122609822Y-116577650D02*
X123881202Y-117849030D01*
X126685450Y-116205650D02*
X126856900Y-116034200D01*
X121715552Y-116050657D02*
X121715552Y-116150460D01*
X121535142Y-115991767D02*
X121656662Y-115991767D01*
X120927542Y-116577650D02*
X121049062Y-116577650D01*
X126148318Y-117849030D02*
X126685450Y-117311898D01*
X126685450Y-117311898D02*
X126685450Y-116205650D01*
X117493800Y-116774500D02*
X117690650Y-116577650D01*
X117690650Y-116577650D02*
X119833862Y-116577650D01*
X120319942Y-115991792D02*
X120441462Y-115991792D01*
X120261052Y-116150460D02*
X120261052Y-116050682D01*
X123881202Y-117849030D02*
X126148318Y-117849030D01*
X120500352Y-116050682D02*
X120500352Y-116150460D01*
X121715552Y-116150460D02*
G75*
G03*
X122142742Y-116577648I427148J-40D01*
G01*
X121476252Y-116050657D02*
G75*
G02*
X121535142Y-115991852I58848J-43D01*
G01*
X121049062Y-116577650D02*
G75*
G03*
X121476250Y-116150460I38J427150D01*
G01*
X121656662Y-115991767D02*
G75*
G02*
X121715633Y-116050657I38J-58933D01*
G01*
X120261052Y-116050682D02*
G75*
G02*
X120319942Y-115991852I58848J-18D01*
G01*
X120500352Y-116150460D02*
G75*
G03*
X120927542Y-116577648I427148J-40D01*
G01*
X119833862Y-116577650D02*
G75*
G03*
X120261050Y-116150460I38J427150D01*
G01*
X120441462Y-115991792D02*
G75*
G02*
X120500408Y-116050682I38J-58908D01*
G01*
%TO.N,DP1_TXD1_HDMI_TX1_P*%
X122142742Y-116209350D02*
X122762378Y-116209350D01*
X120319942Y-115623492D02*
X120441462Y-115623492D01*
X118414628Y-116025350D02*
X118414628Y-115930253D01*
X121107952Y-116150460D02*
X121107952Y-116050657D01*
X119058628Y-116209350D02*
X119833862Y-116209350D01*
X122083852Y-116050657D02*
X122083852Y-116150460D01*
X126317150Y-117159342D02*
X126317150Y-116205650D01*
X125995762Y-117480730D02*
X126317150Y-117159342D01*
X118874628Y-115930253D02*
X118874628Y-116025350D01*
X126317150Y-116205650D02*
X126145700Y-116034200D01*
X117690650Y-116209350D02*
X118230628Y-116209350D01*
X118598628Y-115746253D02*
X118690628Y-115746253D01*
X119892752Y-116150460D02*
X119892752Y-116050682D01*
X121535142Y-115623467D02*
X121656662Y-115623467D01*
X117493800Y-116012500D02*
X117690650Y-116209350D01*
X120868652Y-116050682D02*
X120868652Y-116150460D01*
X120927542Y-116209350D02*
X121049062Y-116209350D01*
X122762378Y-116209350D02*
X124033758Y-117480730D01*
X124033758Y-117480730D02*
X125995762Y-117480730D01*
X118230628Y-116209350D02*
G75*
G03*
X118414550Y-116025350I-28J183950D01*
G01*
X121107952Y-116050657D02*
G75*
G02*
X121535142Y-115623552I427148J-43D01*
G01*
X119833862Y-116209350D02*
G75*
G03*
X119892750Y-116150460I38J58850D01*
G01*
X118690628Y-115746253D02*
G75*
G02*
X118874647Y-115930253I-28J-184047D01*
G01*
X119892752Y-116050682D02*
G75*
G02*
X120319942Y-115623552I427148J-18D01*
G01*
X121656662Y-115623467D02*
G75*
G02*
X122083933Y-116050657I38J-427233D01*
G01*
X120441462Y-115623492D02*
G75*
G02*
X120868708Y-116050682I38J-427208D01*
G01*
X118874628Y-116025350D02*
G75*
G03*
X119058628Y-116209372I183972J-50D01*
G01*
X121049062Y-116209350D02*
G75*
G03*
X121107950Y-116150460I38J58850D01*
G01*
X120868652Y-116150460D02*
G75*
G03*
X120927542Y-116209348I58848J-40D01*
G01*
X122083852Y-116150460D02*
G75*
G03*
X122142742Y-116209348I58848J-40D01*
G01*
X118414628Y-115930253D02*
G75*
G02*
X118598628Y-115746328I183972J-47D01*
G01*
%TO.N,DP1_TXD2_HDMI_TX0_N*%
X121482759Y-114650460D02*
X121482759Y-114496533D01*
X123972049Y-114437658D02*
X124093569Y-114437658D01*
X124579649Y-115077650D02*
X127268698Y-115077650D01*
X120267559Y-114650460D02*
X120267559Y-114496533D01*
X117493183Y-115274500D02*
X117690033Y-115077650D01*
X127268698Y-115077650D02*
X128565050Y-113781298D01*
X122149249Y-115077650D02*
X122270769Y-115077650D01*
X121722059Y-114496533D02*
X121722059Y-114650460D01*
X120326449Y-114437643D02*
X120447969Y-114437643D01*
X122697959Y-114650460D02*
X122697959Y-114546544D01*
X117690033Y-115077650D02*
X119840369Y-115077650D01*
X120934049Y-115077650D02*
X121055569Y-115077650D01*
X122756849Y-114487654D02*
X122878369Y-114487654D01*
X122937259Y-114546544D02*
X122937259Y-114650460D01*
X128565050Y-112705530D02*
X128761900Y-112508680D01*
X123364449Y-115077650D02*
X123485969Y-115077650D01*
X128565050Y-113781298D02*
X128565050Y-112705530D01*
X121541649Y-114437643D02*
X121663169Y-114437643D01*
X124152459Y-114496548D02*
X124152459Y-114650460D01*
X123913159Y-114650460D02*
X123913159Y-114496548D01*
X120506859Y-114496533D02*
X120506859Y-114650460D01*
X123485969Y-115077650D02*
G75*
G03*
X123913150Y-114650460I31J427150D01*
G01*
X122937259Y-114650460D02*
G75*
G03*
X123364449Y-115077641I427141J-40D01*
G01*
X120447969Y-114437643D02*
G75*
G02*
X120506857Y-114496533I31J-58857D01*
G01*
X122270769Y-115077650D02*
G75*
G03*
X122697950Y-114650460I31J427150D01*
G01*
X121722059Y-114650460D02*
G75*
G03*
X122149249Y-115077641I427141J-40D01*
G01*
X120506859Y-114650460D02*
G75*
G03*
X120934049Y-115077641I427141J-40D01*
G01*
X124093569Y-114437658D02*
G75*
G02*
X124152442Y-114496548I31J-58842D01*
G01*
X124152459Y-114650460D02*
G75*
G03*
X124579649Y-115077641I427141J-40D01*
G01*
X120267559Y-114496533D02*
G75*
G02*
X120326449Y-114437659I58841J33D01*
G01*
X122878369Y-114487654D02*
G75*
G02*
X122937246Y-114546544I31J-58846D01*
G01*
X121663169Y-114437643D02*
G75*
G02*
X121722057Y-114496533I31J-58857D01*
G01*
X119840369Y-115077650D02*
G75*
G03*
X120267550Y-114650460I31J427150D01*
G01*
X121482759Y-114496533D02*
G75*
G02*
X121541649Y-114437659I58841J33D01*
G01*
X121055569Y-115077650D02*
G75*
G03*
X121482750Y-114650460I31J427150D01*
G01*
X123913159Y-114496548D02*
G75*
G02*
X123972049Y-114437659I58841J48D01*
G01*
X122697959Y-114546544D02*
G75*
G02*
X122756849Y-114487659I58841J44D01*
G01*
%TO.N,DP1_TXD2_HDMI_TX0_P*%
X121541649Y-114069343D02*
X121663169Y-114069343D01*
X124520759Y-114496548D02*
X124520759Y-114650460D01*
X124579649Y-114709350D02*
X127116142Y-114709350D01*
X123305559Y-114546544D02*
X123305559Y-114650460D01*
X120875159Y-114496533D02*
X120875159Y-114650460D01*
X118865272Y-114428641D02*
X118865272Y-114537350D01*
X123364449Y-114709350D02*
X123485969Y-114709350D01*
X122329659Y-114650460D02*
X122329659Y-114546544D01*
X128196750Y-113628742D02*
X128196750Y-112705530D01*
X117493183Y-114512500D02*
X117690033Y-114709350D01*
X123972049Y-114069358D02*
X124093569Y-114069358D01*
X122756849Y-114119354D02*
X122878369Y-114119354D01*
X128196750Y-112705530D02*
X127999900Y-112508680D01*
X119899259Y-114650460D02*
X119899259Y-114496533D01*
X118607272Y-114256641D02*
X118693272Y-114256641D01*
X121114459Y-114650460D02*
X121114459Y-114496533D01*
X127116142Y-114709350D02*
X128196750Y-113628742D01*
X122090359Y-114496533D02*
X122090359Y-114650460D01*
X117690033Y-114709350D02*
X118263272Y-114709350D01*
X122149249Y-114709350D02*
X122270769Y-114709350D01*
X118435272Y-114537350D02*
X118435272Y-114428641D01*
X120934049Y-114709350D02*
X121055569Y-114709350D01*
X119037272Y-114709350D02*
X119840369Y-114709350D01*
X123544859Y-114650460D02*
X123544859Y-114496548D01*
X120326449Y-114069343D02*
X120447969Y-114069343D01*
X119840369Y-114709350D02*
G75*
G03*
X119899250Y-114650460I31J58850D01*
G01*
X119899259Y-114496533D02*
G75*
G02*
X120326449Y-114069359I427141J33D01*
G01*
X122878369Y-114119354D02*
G75*
G02*
X123305546Y-114546544I31J-427146D01*
G01*
X124093569Y-114069358D02*
G75*
G02*
X124520742Y-114496548I31J-427142D01*
G01*
X123544859Y-114496548D02*
G75*
G02*
X123972049Y-114069359I427141J48D01*
G01*
X121114459Y-114496533D02*
G75*
G02*
X121541649Y-114069359I427141J33D01*
G01*
X120875159Y-114650460D02*
G75*
G03*
X120934049Y-114709341I58841J-40D01*
G01*
X122329659Y-114546544D02*
G75*
G02*
X122756849Y-114119359I427141J44D01*
G01*
X123305559Y-114650460D02*
G75*
G03*
X123364449Y-114709341I58841J-40D01*
G01*
X122270769Y-114709350D02*
G75*
G03*
X122329650Y-114650460I31J58850D01*
G01*
X118693272Y-114256641D02*
G75*
G02*
X118865259Y-114428641I28J-171959D01*
G01*
X124520759Y-114650460D02*
G75*
G03*
X124579649Y-114709341I58841J-40D01*
G01*
X118263272Y-114709350D02*
G75*
G03*
X118435350Y-114537350I28J172050D01*
G01*
X118865272Y-114537350D02*
G75*
G03*
X119037272Y-114709328I172028J50D01*
G01*
X123485969Y-114709350D02*
G75*
G03*
X123544850Y-114650460I31J58850D01*
G01*
X120447969Y-114069343D02*
G75*
G02*
X120875157Y-114496533I31J-427157D01*
G01*
X122090359Y-114650460D02*
G75*
G03*
X122149249Y-114709341I58841J-40D01*
G01*
X121055569Y-114709350D02*
G75*
G03*
X121114450Y-114650460I31J58850D01*
G01*
X118435272Y-114428641D02*
G75*
G02*
X118607272Y-114256572I172028J41D01*
G01*
X121663169Y-114069343D02*
G75*
G02*
X122090357Y-114496533I31J-427157D01*
G01*
%TO.N,DP1_TXD3_HDMI_TXC_N*%
X123143750Y-113577650D02*
X125679570Y-111041830D01*
X122352808Y-113577650D02*
X123143750Y-113577650D01*
X120312808Y-112302352D02*
X120448808Y-112302352D01*
X121672808Y-112302352D02*
X121808808Y-112302352D01*
X117495404Y-113774500D02*
X117692254Y-113577650D01*
X129678918Y-111041830D02*
X130444650Y-110276098D01*
X121896658Y-112390202D02*
X121896658Y-113121500D01*
X117692254Y-113577650D02*
X119768808Y-113577650D01*
X130444650Y-108992050D02*
X130616100Y-108820600D01*
X120992808Y-113577650D02*
X121128808Y-113577650D01*
X120224958Y-113121500D02*
X120224958Y-112390202D01*
X125679570Y-111041830D02*
X129678918Y-111041830D01*
X121584958Y-113121500D02*
X121584958Y-112390202D01*
X120536658Y-112390202D02*
X120536658Y-113121500D01*
X130444650Y-110276098D02*
X130444650Y-108992050D01*
X121808808Y-112302352D02*
G75*
G02*
X121896648Y-112390202I-8J-87848D01*
G01*
X121584958Y-112390202D02*
G75*
G02*
X121672808Y-112302358I87842J2D01*
G01*
X120448808Y-112302352D02*
G75*
G02*
X120536648Y-112390202I-8J-87848D01*
G01*
X119768808Y-113577650D02*
G75*
G03*
X120224950Y-113121500I-8J456150D01*
G01*
X120536658Y-113121500D02*
G75*
G03*
X120992808Y-113577642I456142J0D01*
G01*
X121896658Y-113121500D02*
G75*
G03*
X122352808Y-113577642I456142J0D01*
G01*
X120224958Y-112390202D02*
G75*
G02*
X120312808Y-112302358I87842J2D01*
G01*
X121128808Y-113577650D02*
G75*
G03*
X121584950Y-113121500I-8J456150D01*
G01*
%TO.N,DP1_TXD3_HDMI_TXC_P*%
X123029450Y-113209350D02*
X125565270Y-110673530D01*
X130076350Y-110123542D02*
X130076350Y-108992050D01*
X121216658Y-113121500D02*
X121216658Y-112390202D01*
X117692254Y-113209350D02*
X118224449Y-113209350D01*
X118412449Y-113021350D02*
X118412449Y-112930774D01*
X119856658Y-113121500D02*
X119856658Y-112390202D01*
X125565270Y-110673530D02*
X129526362Y-110673530D01*
X122264958Y-112390202D02*
X122264958Y-113121500D01*
X129526362Y-110673530D02*
X130076350Y-110123542D01*
X120312808Y-111934052D02*
X120448808Y-111934052D01*
X117495404Y-113012500D02*
X117692254Y-113209350D01*
X118600449Y-112742774D02*
X118694449Y-112742774D01*
X120992808Y-113209350D02*
X121128808Y-113209350D01*
X122352808Y-113209350D02*
X123029450Y-113209350D01*
X121672808Y-111934052D02*
X121808808Y-111934052D01*
X119070449Y-113209350D02*
X119768808Y-113209350D01*
X118882449Y-112930774D02*
X118882449Y-113021350D01*
X130076350Y-108992050D02*
X129904900Y-108820600D01*
X120904958Y-112390202D02*
X120904958Y-113121500D01*
X121216658Y-112390202D02*
G75*
G02*
X121672808Y-111934058I456142J2D01*
G01*
X118882449Y-113021350D02*
G75*
G03*
X119070449Y-113209251I187951J50D01*
G01*
X118694449Y-112742774D02*
G75*
G02*
X118882426Y-112930774I-49J-188026D01*
G01*
X119856658Y-112390202D02*
G75*
G02*
X120312808Y-111934058I456142J2D01*
G01*
X118224449Y-113209350D02*
G75*
G03*
X118412450Y-113021350I-49J188050D01*
G01*
X119768808Y-113209350D02*
G75*
G03*
X119856650Y-113121500I-8J87850D01*
G01*
X120448808Y-111934052D02*
G75*
G02*
X120904948Y-112390202I-8J-456148D01*
G01*
X122264958Y-113121500D02*
G75*
G03*
X122352808Y-113209342I87842J0D01*
G01*
X120904958Y-113121500D02*
G75*
G03*
X120992808Y-113209342I87842J0D01*
G01*
X118412449Y-112930774D02*
G75*
G02*
X118600449Y-112742849I187951J-26D01*
G01*
X121808808Y-111934052D02*
G75*
G02*
X122264948Y-112390202I-8J-456148D01*
G01*
X121128808Y-113209350D02*
G75*
G03*
X121216650Y-113121500I-8J87850D01*
G01*
D22*
%TO.N,USB0_D_P*%
X171205934Y-129249186D02*
X171004640Y-129450480D01*
X172111344Y-119923575D02*
X168961744Y-119923575D01*
X115996495Y-107586795D02*
X116432105Y-108022405D01*
X119717015Y-108022405D02*
X121166720Y-106572700D01*
X168200434Y-120684885D02*
X168200434Y-127294075D01*
X115996495Y-106671705D02*
X115996495Y-107586795D01*
X168200434Y-127294075D02*
X169114144Y-128207785D01*
X117550911Y-106271889D02*
X116396311Y-106271889D01*
X116396311Y-106271889D02*
X115996495Y-106671705D01*
X117747800Y-106075000D02*
X117550911Y-106271889D01*
X166791360Y-106572700D02*
X172721634Y-112502974D01*
X169114144Y-128207785D02*
X170490848Y-128207785D01*
X172721634Y-119313285D02*
X172111344Y-119923575D01*
X171205934Y-128922871D02*
X171205934Y-129249186D01*
X170490848Y-128207785D02*
X171205934Y-128922871D01*
X116432105Y-108022405D02*
X119717015Y-108022405D01*
X168961744Y-119923575D02*
X168200434Y-120684885D01*
X121166720Y-106572700D02*
X166791360Y-106572700D01*
X172721634Y-112502974D02*
X172721634Y-119313285D01*
%TO.N,USB1_D_N*%
X116369092Y-105023404D02*
X115893895Y-104548207D01*
X183692407Y-114494595D02*
X184875945Y-115678133D01*
X138447388Y-101964775D02*
X140487007Y-104004395D01*
X117560204Y-105023404D02*
X116369092Y-105023404D01*
X122503413Y-101964775D02*
X138447388Y-101964775D01*
X115893895Y-104548207D02*
X115893895Y-103775693D01*
X176402505Y-113300693D02*
X177596407Y-114494595D01*
X140487007Y-104004395D02*
X169574507Y-104004395D01*
X176402505Y-110832393D02*
X176402505Y-113300693D01*
X115893895Y-103775693D02*
X116376393Y-103293195D01*
X187159404Y-119978196D02*
X187347000Y-119790600D01*
X177596407Y-114494595D02*
X183692407Y-114494595D01*
X169574507Y-104004395D02*
X176402505Y-110832393D01*
X117747800Y-105211000D02*
X117560204Y-105023404D01*
X185566668Y-119978196D02*
X187159404Y-119978196D01*
X121174993Y-103293195D02*
X122503413Y-101964775D01*
X184875945Y-115678133D02*
X184875945Y-119287473D01*
X184875945Y-119287473D02*
X185566668Y-119978196D01*
X116376393Y-103293195D02*
X121174993Y-103293195D01*
%TO.N,USB1_D_P*%
X120073789Y-103925542D02*
X120165789Y-103925542D01*
X185459466Y-120237006D02*
X187158406Y-120237006D01*
X120533789Y-103552005D02*
X121282195Y-103552005D01*
X187158406Y-120237006D02*
X187347000Y-120425600D01*
X184617135Y-115785335D02*
X184617135Y-119394675D01*
X121282195Y-103552005D02*
X122610615Y-102223585D01*
X119429789Y-103741534D02*
X119429789Y-103736005D01*
X184617135Y-119394675D02*
X185459466Y-120237006D01*
X176143695Y-110939595D02*
X176143695Y-113407895D01*
X116476294Y-104764594D02*
X116152705Y-104441005D01*
X176143695Y-113407895D02*
X177489205Y-114753405D01*
X119889789Y-103736005D02*
X119889789Y-103741542D01*
X138340185Y-102223585D02*
X140379805Y-104263205D01*
X119613789Y-103552005D02*
X119705789Y-103552005D01*
X120349789Y-103741542D02*
X120349789Y-103736005D01*
X119153789Y-103925534D02*
X119245789Y-103925534D01*
X116483595Y-103552005D02*
X118785789Y-103552005D01*
X177489205Y-114753405D02*
X183585205Y-114753405D01*
X183585205Y-114753405D02*
X184617135Y-115785335D01*
X117559206Y-104764594D02*
X116476294Y-104764594D01*
X118969789Y-103736005D02*
X118969789Y-103741534D01*
X140379805Y-104263205D02*
X169467305Y-104263205D01*
X116152705Y-104441005D02*
X116152705Y-103882895D01*
X117747800Y-104576000D02*
X117559206Y-104764594D01*
X116152705Y-103882895D02*
X116483595Y-103552005D01*
X169467305Y-104263205D02*
X176143695Y-110939595D01*
X122610615Y-102223585D02*
X138340185Y-102223585D01*
X119429789Y-103736005D02*
G75*
G02*
X119613789Y-103551989I184011J5D01*
G01*
X119245789Y-103925534D02*
G75*
G03*
X119429834Y-103741534I11J184034D01*
G01*
X118969789Y-103741534D02*
G75*
G03*
X119153789Y-103925511I184011J34D01*
G01*
X120349789Y-103736005D02*
G75*
G02*
X120533789Y-103551989I184011J5D01*
G01*
X119889789Y-103741542D02*
G75*
G03*
X120073789Y-103925511I184011J42D01*
G01*
X119705789Y-103552005D02*
G75*
G02*
X119889795Y-103736005I11J-183995D01*
G01*
X120165789Y-103925542D02*
G75*
G03*
X120349842Y-103741542I11J184042D01*
G01*
X118785789Y-103552005D02*
G75*
G02*
X118969795Y-103736005I11J-183995D01*
G01*
D26*
%TO.N,/USB Debug\u002C USB2/USBC3_D_P*%
X129206400Y-135927581D02*
X128196400Y-135927581D01*
D27*
%TO.N,/Supply/5V_OUT*%
X167662000Y-67469400D02*
X167662000Y-73553000D01*
%TO.N,/Supply/3V3_OUT*%
X167636600Y-92323600D02*
X167636600Y-86270480D01*
D28*
%TO.N,/USB Debug\u002C USB2/FTDI_LED_RX*%
X131202840Y-129110117D02*
X132127401Y-130034678D01*
X131202840Y-126128261D02*
X131202840Y-129110117D01*
D22*
%TO.N,/USB3\u002C Recovery/USBC1_RX2_N*%
X170413793Y-125649686D02*
X170615087Y-125850980D01*
X170615087Y-125850980D02*
X170615087Y-126249224D01*
X173493995Y-129128132D02*
X173493995Y-129242074D01*
X173493995Y-129242074D02*
X173292962Y-129443107D01*
X170615087Y-126249224D02*
X173493995Y-129128132D01*
%TO.N,/USB3\u002C Recovery/USBC1_RX2_P*%
X171074193Y-125649686D02*
X170872899Y-125850980D01*
X170872899Y-126101844D02*
X173751807Y-128980752D01*
X173751807Y-128980752D02*
X173751807Y-129242074D01*
X170872899Y-125850980D02*
X170872899Y-126101844D01*
X173751807Y-129242074D02*
X173952840Y-129443107D01*
D29*
%TO.N,MCLK_CAM2*%
X122701460Y-105251900D02*
X122338240Y-104888680D01*
X169233600Y-106349800D02*
X168135700Y-105251900D01*
X168135700Y-105251900D02*
X122701460Y-105251900D01*
%TD*%
M02*
