M48
; DRILL file {KiCad 9.0.7} date 2026-02-05T12:52:01-0500
; FORMAT={-:-/ absolute / inch / decimal}
; #@! TF.CreationDate,2026-02-05T12:52:01-05:00
; #@! TF.GenerationSoftware,Kicad,Pcbnew,9.0.7
; #@! TF.FileFunction,Plated,1,2,PTH
FMAT,2
INCH
; #@! TA.AperFunction,Plated,PTH,ComponentDrill
T1C0.0394
; #@! TA.AperFunction,Plated,PTH,ComponentDrill
T2C0.1181
%
G90
G05
T1
X4.626Y-4.9409
X4.626Y-2.0276
X4.8819Y-2.0276
X4.8819Y-4.9409
X5.8268Y-2.0276
X5.8268Y-4.9409
X6.5354Y-2.0276
X6.5354Y-4.9409
X7.4803Y-4.9409
X7.4803Y-2.0276
X7.7362Y-2.0276
X7.7362Y-4.9409
T2
X4.6457Y-2.5787
X4.6457Y-3.4843
X4.6457Y-4.3898
X4.8031Y-2.5787
X4.8031Y-3.4843
X4.8031Y-4.3898
X5.9055Y-2.5787
X5.9055Y-3.4843
X5.9055Y-4.3898
X6.063Y-2.5787
X6.063Y-3.4843
X6.063Y-4.3898
X6.2992Y-2.5787
X6.2992Y-3.4843
X6.2992Y-4.3898
X6.4567Y-2.5787
X6.4567Y-3.4843
X6.4567Y-4.3898
X7.5591Y-2.5787
X7.5591Y-3.4843
X7.5591Y-4.3898
X7.7165Y-2.5787
X7.7165Y-3.4843
X7.7165Y-4.3898
M30
