%TF.GenerationSoftware,KiCad,Pcbnew,9.0.7*%
%TF.CreationDate,2026-02-05T12:52:00-05:00*%
%TF.ProjectId,Cell Backer,43656c6c-2042-4616-936b-65722e6b6963,rev?*%
%TF.SameCoordinates,Original*%
%TF.FileFunction,Profile,NP*%
%FSLAX46Y46*%
G04 Gerber Fmt 4.6, Leading zero omitted, Abs format (unit mm)*
G04 Created by KiCad (PCBNEW 9.0.7) date 2026-02-05 12:52:00*
%MOMM*%
%LPD*%
G01*
G04 APERTURE LIST*
%TA.AperFunction,Profile*%
%ADD10C,0.050000*%
%TD*%
G04 APERTURE END LIST*
D10*
X148000001Y-128000000D02*
G75*
G02*
X145500000Y-125500000I-1J2500000D01*
G01*
X145500001Y-81500000D02*
X145500000Y-77000000D01*
X126500000Y-72500000D02*
G75*
G02*
X129000000Y-70000000I2500000J0D01*
G01*
X190000001Y-127999999D02*
X196500001Y-127999999D01*
X187500000Y-95500000D02*
X187500001Y-100000000D01*
X126500000Y-72500000D02*
X126500001Y-77000000D01*
X126499999Y-51500001D02*
X126499999Y-54000001D01*
X168500000Y-81500000D02*
X168500002Y-77000000D01*
X145500002Y-104500000D02*
G75*
G02*
X143000002Y-107000002I-2500002J0D01*
G01*
X168500000Y-125500000D02*
G75*
G02*
X166000000Y-128000000I-2500000J0D01*
G01*
X187500001Y-104500000D02*
X187500001Y-100000000D01*
X199000000Y-125500000D02*
G75*
G02*
X196500001Y-128000000I-2500000J0D01*
G01*
X185000000Y-115999999D02*
X171000000Y-116000000D01*
X123999999Y-49000001D02*
X117499999Y-49000001D01*
X187500001Y-104500000D02*
G75*
G02*
X185000000Y-107000001I-2500001J0D01*
G01*
X117500000Y-128000000D02*
G75*
G02*
X115000000Y-125500000I0J2500000D01*
G01*
X168500000Y-118500000D02*
G75*
G02*
X171000000Y-116000000I2500000J0D01*
G01*
X168500000Y-72500000D02*
G75*
G02*
X171000000Y-70000000I2500000J0D01*
G01*
X150500000Y-58500000D02*
X150500000Y-51500000D01*
X166000000Y-128000000D02*
G75*
G02*
X163500000Y-125500000I0J2500000D01*
G01*
X171000000Y-84000000D02*
G75*
G02*
X168500000Y-81500000I0J2500000D01*
G01*
X143000000Y-93000000D02*
G75*
G02*
X145500000Y-95500000I0J-2500000D01*
G01*
X171000000Y-70000000D02*
X185000000Y-70000000D01*
X168500000Y-95500000D02*
G75*
G02*
X171000000Y-93000000I2500000J0D01*
G01*
X129000000Y-107000000D02*
G75*
G02*
X126500000Y-104500000I0J2500000D01*
G01*
X115000000Y-51500000D02*
G75*
G02*
X117499999Y-49000000I2500000J0D01*
G01*
X168500000Y-123000000D02*
X168500000Y-125500000D01*
X163500000Y-58500000D02*
X163500000Y-51500000D01*
X171000000Y-107000000D02*
G75*
G02*
X168500000Y-104500000I0J2500000D01*
G01*
X143000000Y-84000000D02*
X129000000Y-84000000D01*
X115000000Y-125500000D02*
X115000000Y-123000000D01*
X143000000Y-107000000D02*
X129000000Y-107000000D01*
X128999999Y-61000000D02*
G75*
G02*
X126500000Y-58500000I1J2500000D01*
G01*
X187500000Y-58500000D02*
X187500000Y-51500000D01*
X115000000Y-100000000D02*
X115000000Y-77000000D01*
X126499999Y-125500001D02*
G75*
G02*
X124000000Y-127999999I-2499999J1D01*
G01*
X187500001Y-118499999D02*
X187500001Y-122999999D01*
X143000000Y-116000000D02*
G75*
G02*
X145500000Y-118500000I0J-2500000D01*
G01*
X163500000Y-118500000D02*
X163500000Y-125500000D01*
X168500000Y-95500000D02*
X168500000Y-100000000D01*
X168500000Y-118500000D02*
X168500000Y-123000000D01*
X145500000Y-51500000D02*
G75*
G02*
X148000000Y-49000000I2500000J0D01*
G01*
X168500000Y-72500000D02*
X168500001Y-77000000D01*
X123999999Y-49000001D02*
G75*
G02*
X126499999Y-51500001I1J-2499999D01*
G01*
X150500000Y-118500000D02*
G75*
G02*
X153000000Y-116000000I2500000J0D01*
G01*
X143000000Y-70000001D02*
G75*
G02*
X145499999Y-72500000I0J-2499999D01*
G01*
X187500002Y-81500000D02*
G75*
G02*
X185000002Y-84000002I-2500002J0D01*
G01*
X171000000Y-93000000D02*
X185000000Y-93000000D01*
X196500000Y-49000000D02*
G75*
G02*
X199000000Y-51500000I0J-2500000D01*
G01*
X126499999Y-118500001D02*
G75*
G02*
X128999999Y-115999999I2500001J1D01*
G01*
X148000000Y-49000000D02*
G75*
G02*
X150500000Y-51500000I0J-2500000D01*
G01*
X168500000Y-58499999D02*
X168500000Y-51499999D01*
X168500000Y-104500000D02*
X168500000Y-100000000D01*
X126500000Y-104500000D02*
X126500001Y-100000000D01*
X171000000Y-60999999D02*
G75*
G02*
X168500001Y-58499999I0J2499999D01*
G01*
X199000000Y-54000000D02*
X199000000Y-51500000D01*
X199000000Y-54000000D02*
X199000000Y-77000000D01*
X190000000Y-49000000D02*
X196500000Y-49000000D01*
X171000000Y-107000000D02*
X185000000Y-107000000D01*
X129000000Y-93000000D02*
X143000000Y-93000000D01*
X126499999Y-123000001D02*
X126499999Y-125500001D01*
X187500001Y-125499999D02*
X187500001Y-122999999D01*
X117500000Y-128000000D02*
X124000000Y-128000000D01*
X143000000Y-61000000D02*
X128999999Y-61000000D01*
X199000000Y-100000000D02*
X199000000Y-77000000D01*
X185000000Y-84000000D02*
X171000000Y-84000000D01*
X145500000Y-95500000D02*
X145500001Y-100000000D01*
X129000000Y-70000000D02*
X143000000Y-70000001D01*
X187500000Y-51500000D02*
G75*
G02*
X190000000Y-49000000I2500000J0D01*
G01*
X161000000Y-116000000D02*
G75*
G02*
X163500000Y-118500000I0J-2500000D01*
G01*
X150500001Y-125500000D02*
G75*
G02*
X148000001Y-128000001I-2500001J0D01*
G01*
X126500000Y-81500000D02*
X126500002Y-77000000D01*
X161000000Y-60999999D02*
X153000000Y-61000000D01*
X126499999Y-118500001D02*
X126499999Y-123000001D01*
X145500001Y-125500000D02*
X145500001Y-123000000D01*
X145499999Y-72500000D02*
X145500000Y-77000000D01*
X185000000Y-70000000D02*
G75*
G02*
X187500000Y-72500000I0J-2500000D01*
G01*
X199000000Y-100000000D02*
X199000000Y-123000000D01*
X129000000Y-84000000D02*
G75*
G02*
X126500000Y-81500000I0J2500000D01*
G01*
X185000001Y-115999999D02*
G75*
G02*
X187500001Y-118499999I-1J-2500001D01*
G01*
X145500001Y-81500000D02*
G75*
G02*
X143000001Y-84000001I-2500001J0D01*
G01*
X153000000Y-61000000D02*
G75*
G02*
X150500000Y-58500000I0J2500000D01*
G01*
X163500000Y-58500000D02*
G75*
G02*
X161000000Y-61000000I-2500000J0D01*
G01*
X187500001Y-72500000D02*
X187500001Y-77000000D01*
X145500000Y-58500000D02*
X145500000Y-51500000D01*
X115000000Y-123000000D02*
X115000000Y-100000000D01*
X145500002Y-104500000D02*
X145500001Y-100000000D01*
X187500002Y-81500000D02*
X187500001Y-77000000D01*
X199000000Y-123000000D02*
X199000000Y-125500000D01*
X129000000Y-116000001D02*
X143000000Y-116000000D01*
X115000000Y-77000000D02*
X115000000Y-54000000D01*
X126500000Y-95500000D02*
X126500000Y-100000000D01*
X145500000Y-58500000D02*
G75*
G02*
X143000000Y-61000000I-2500000J0D01*
G01*
X185000000Y-61000000D02*
X171000000Y-60999999D01*
X145500000Y-118500000D02*
X145500001Y-123000000D01*
X187500000Y-58500000D02*
G75*
G02*
X185000000Y-61000000I-2500000J0D01*
G01*
X166000000Y-49000000D02*
G75*
G02*
X168500000Y-51499999I0J-2500000D01*
G01*
X115000000Y-54000000D02*
X115000000Y-51500000D01*
X190000001Y-127999999D02*
G75*
G02*
X187500001Y-125499999I-1J2499999D01*
G01*
X163500000Y-51500000D02*
G75*
G02*
X166000000Y-49000000I2500000J0D01*
G01*
X150500000Y-118500000D02*
X150500001Y-125500000D01*
X126500000Y-95500000D02*
G75*
G02*
X129000000Y-93000000I2500000J0D01*
G01*
X185000000Y-93000000D02*
G75*
G02*
X187500000Y-95500000I0J-2500000D01*
G01*
X153000000Y-116000001D02*
X161000000Y-116000000D01*
X126499998Y-58500000D02*
X126499999Y-54000001D01*
M02*
