%TF.GenerationSoftware,KiCad,Pcbnew,9.0.7*%
%TF.CreationDate,2026-02-05T12:52:00-05:00*%
%TF.ProjectId,Cell Backer,43656c6c-2042-4616-936b-65722e6b6963,rev?*%
%TF.SameCoordinates,Original*%
%TF.FileFunction,Legend,Top*%
%TF.FilePolarity,Positive*%
%FSLAX46Y46*%
G04 Gerber Fmt 4.6, Leading zero omitted, Abs format (unit mm)*
G04 Created by KiCad (PCBNEW 9.0.7) date 2026-02-05 12:52:00*
%MOMM*%
%LPD*%
G01*
G04 APERTURE LIST*
%ADD10C,0.127000*%
%ADD11C,0.150000*%
%ADD12C,0.200000*%
G04 APERTURE END LIST*
D10*
X189516190Y-52910922D02*
X189455714Y-52880684D01*
X189455714Y-52880684D02*
X189365000Y-52880684D01*
X189365000Y-52880684D02*
X189274285Y-52910922D01*
X189274285Y-52910922D02*
X189213809Y-52971398D01*
X189213809Y-52971398D02*
X189183571Y-53031874D01*
X189183571Y-53031874D02*
X189153333Y-53152826D01*
X189153333Y-53152826D02*
X189153333Y-53243541D01*
X189153333Y-53243541D02*
X189183571Y-53364493D01*
X189183571Y-53364493D02*
X189213809Y-53424969D01*
X189213809Y-53424969D02*
X189274285Y-53485446D01*
X189274285Y-53485446D02*
X189365000Y-53515684D01*
X189365000Y-53515684D02*
X189425476Y-53515684D01*
X189425476Y-53515684D02*
X189516190Y-53485446D01*
X189516190Y-53485446D02*
X189546428Y-53455207D01*
X189546428Y-53455207D02*
X189546428Y-53243541D01*
X189546428Y-53243541D02*
X189425476Y-53243541D01*
X189818571Y-53515684D02*
X189818571Y-52880684D01*
X189818571Y-52880684D02*
X190181428Y-53515684D01*
X190181428Y-53515684D02*
X190181428Y-52880684D01*
X190483809Y-53515684D02*
X190483809Y-52880684D01*
X190483809Y-52880684D02*
X190634999Y-52880684D01*
X190634999Y-52880684D02*
X190725714Y-52910922D01*
X190725714Y-52910922D02*
X190786190Y-52971398D01*
X190786190Y-52971398D02*
X190816428Y-53031874D01*
X190816428Y-53031874D02*
X190846666Y-53152826D01*
X190846666Y-53152826D02*
X190846666Y-53243541D01*
X190846666Y-53243541D02*
X190816428Y-53364493D01*
X190816428Y-53364493D02*
X190786190Y-53424969D01*
X190786190Y-53424969D02*
X190725714Y-53485446D01*
X190725714Y-53485446D02*
X190634999Y-53515684D01*
X190634999Y-53515684D02*
X190483809Y-53515684D01*
X122306666Y-52880684D02*
X122518332Y-53515684D01*
X122518332Y-53515684D02*
X122729999Y-52880684D01*
X122911428Y-53485446D02*
X123002142Y-53515684D01*
X123002142Y-53515684D02*
X123153333Y-53515684D01*
X123153333Y-53515684D02*
X123213809Y-53485446D01*
X123213809Y-53485446D02*
X123244047Y-53455207D01*
X123244047Y-53455207D02*
X123274285Y-53394731D01*
X123274285Y-53394731D02*
X123274285Y-53334255D01*
X123274285Y-53334255D02*
X123244047Y-53273779D01*
X123244047Y-53273779D02*
X123213809Y-53243541D01*
X123213809Y-53243541D02*
X123153333Y-53213303D01*
X123153333Y-53213303D02*
X123032380Y-53183065D01*
X123032380Y-53183065D02*
X122971904Y-53152826D01*
X122971904Y-53152826D02*
X122941666Y-53122588D01*
X122941666Y-53122588D02*
X122911428Y-53062112D01*
X122911428Y-53062112D02*
X122911428Y-53001636D01*
X122911428Y-53001636D02*
X122941666Y-52941160D01*
X122941666Y-52941160D02*
X122971904Y-52910922D01*
X122971904Y-52910922D02*
X123032380Y-52880684D01*
X123032380Y-52880684D02*
X123183571Y-52880684D01*
X123183571Y-52880684D02*
X123274285Y-52910922D01*
X123667380Y-52880684D02*
X123788333Y-52880684D01*
X123788333Y-52880684D02*
X123848809Y-52910922D01*
X123848809Y-52910922D02*
X123909285Y-52971398D01*
X123909285Y-52971398D02*
X123939523Y-53092350D01*
X123939523Y-53092350D02*
X123939523Y-53304017D01*
X123939523Y-53304017D02*
X123909285Y-53424969D01*
X123909285Y-53424969D02*
X123848809Y-53485446D01*
X123848809Y-53485446D02*
X123788333Y-53515684D01*
X123788333Y-53515684D02*
X123667380Y-53515684D01*
X123667380Y-53515684D02*
X123606904Y-53485446D01*
X123606904Y-53485446D02*
X123546428Y-53424969D01*
X123546428Y-53424969D02*
X123516190Y-53304017D01*
X123516190Y-53304017D02*
X123516190Y-53092350D01*
X123516190Y-53092350D02*
X123546428Y-52971398D01*
X123546428Y-52971398D02*
X123606904Y-52910922D01*
X123606904Y-52910922D02*
X123667380Y-52880684D01*
X124514047Y-53515684D02*
X124211666Y-53515684D01*
X124211666Y-53515684D02*
X124211666Y-52880684D01*
X124695476Y-53334255D02*
X124997857Y-53334255D01*
X124635000Y-53515684D02*
X124846666Y-52880684D01*
X124846666Y-52880684D02*
X125058333Y-53515684D01*
X125632857Y-53515684D02*
X125421190Y-53213303D01*
X125270000Y-53515684D02*
X125270000Y-52880684D01*
X125270000Y-52880684D02*
X125511905Y-52880684D01*
X125511905Y-52880684D02*
X125572381Y-52910922D01*
X125572381Y-52910922D02*
X125602619Y-52941160D01*
X125602619Y-52941160D02*
X125632857Y-53001636D01*
X125632857Y-53001636D02*
X125632857Y-53092350D01*
X125632857Y-53092350D02*
X125602619Y-53152826D01*
X125602619Y-53152826D02*
X125572381Y-53183065D01*
X125572381Y-53183065D02*
X125511905Y-53213303D01*
X125511905Y-53213303D02*
X125270000Y-53213303D01*
X177038428Y-88809626D02*
X177147286Y-88845911D01*
X177147286Y-88845911D02*
X177328714Y-88845911D01*
X177328714Y-88845911D02*
X177401286Y-88809626D01*
X177401286Y-88809626D02*
X177437571Y-88773340D01*
X177437571Y-88773340D02*
X177473857Y-88700768D01*
X177473857Y-88700768D02*
X177473857Y-88628197D01*
X177473857Y-88628197D02*
X177437571Y-88555626D01*
X177437571Y-88555626D02*
X177401286Y-88519340D01*
X177401286Y-88519340D02*
X177328714Y-88483054D01*
X177328714Y-88483054D02*
X177183571Y-88446768D01*
X177183571Y-88446768D02*
X177111000Y-88410483D01*
X177111000Y-88410483D02*
X177074714Y-88374197D01*
X177074714Y-88374197D02*
X177038428Y-88301626D01*
X177038428Y-88301626D02*
X177038428Y-88229054D01*
X177038428Y-88229054D02*
X177074714Y-88156483D01*
X177074714Y-88156483D02*
X177111000Y-88120197D01*
X177111000Y-88120197D02*
X177183571Y-88083911D01*
X177183571Y-88083911D02*
X177365000Y-88083911D01*
X177365000Y-88083911D02*
X177473857Y-88120197D01*
X178235857Y-88773340D02*
X178199571Y-88809626D01*
X178199571Y-88809626D02*
X178090714Y-88845911D01*
X178090714Y-88845911D02*
X178018142Y-88845911D01*
X178018142Y-88845911D02*
X177909285Y-88809626D01*
X177909285Y-88809626D02*
X177836714Y-88737054D01*
X177836714Y-88737054D02*
X177800428Y-88664483D01*
X177800428Y-88664483D02*
X177764142Y-88519340D01*
X177764142Y-88519340D02*
X177764142Y-88410483D01*
X177764142Y-88410483D02*
X177800428Y-88265340D01*
X177800428Y-88265340D02*
X177836714Y-88192768D01*
X177836714Y-88192768D02*
X177909285Y-88120197D01*
X177909285Y-88120197D02*
X178018142Y-88083911D01*
X178018142Y-88083911D02*
X178090714Y-88083911D01*
X178090714Y-88083911D02*
X178199571Y-88120197D01*
X178199571Y-88120197D02*
X178235857Y-88156483D01*
X178526142Y-88156483D02*
X178562428Y-88120197D01*
X178562428Y-88120197D02*
X178635000Y-88083911D01*
X178635000Y-88083911D02*
X178816428Y-88083911D01*
X178816428Y-88083911D02*
X178889000Y-88120197D01*
X178889000Y-88120197D02*
X178925285Y-88156483D01*
X178925285Y-88156483D02*
X178961571Y-88229054D01*
X178961571Y-88229054D02*
X178961571Y-88301626D01*
X178961571Y-88301626D02*
X178925285Y-88410483D01*
X178925285Y-88410483D02*
X178489857Y-88845911D01*
X178489857Y-88845911D02*
X178961571Y-88845911D01*
X135038428Y-65809626D02*
X135147286Y-65845911D01*
X135147286Y-65845911D02*
X135328714Y-65845911D01*
X135328714Y-65845911D02*
X135401286Y-65809626D01*
X135401286Y-65809626D02*
X135437571Y-65773340D01*
X135437571Y-65773340D02*
X135473857Y-65700768D01*
X135473857Y-65700768D02*
X135473857Y-65628197D01*
X135473857Y-65628197D02*
X135437571Y-65555626D01*
X135437571Y-65555626D02*
X135401286Y-65519340D01*
X135401286Y-65519340D02*
X135328714Y-65483054D01*
X135328714Y-65483054D02*
X135183571Y-65446768D01*
X135183571Y-65446768D02*
X135111000Y-65410483D01*
X135111000Y-65410483D02*
X135074714Y-65374197D01*
X135074714Y-65374197D02*
X135038428Y-65301626D01*
X135038428Y-65301626D02*
X135038428Y-65229054D01*
X135038428Y-65229054D02*
X135074714Y-65156483D01*
X135074714Y-65156483D02*
X135111000Y-65120197D01*
X135111000Y-65120197D02*
X135183571Y-65083911D01*
X135183571Y-65083911D02*
X135365000Y-65083911D01*
X135365000Y-65083911D02*
X135473857Y-65120197D01*
X136235857Y-65773340D02*
X136199571Y-65809626D01*
X136199571Y-65809626D02*
X136090714Y-65845911D01*
X136090714Y-65845911D02*
X136018142Y-65845911D01*
X136018142Y-65845911D02*
X135909285Y-65809626D01*
X135909285Y-65809626D02*
X135836714Y-65737054D01*
X135836714Y-65737054D02*
X135800428Y-65664483D01*
X135800428Y-65664483D02*
X135764142Y-65519340D01*
X135764142Y-65519340D02*
X135764142Y-65410483D01*
X135764142Y-65410483D02*
X135800428Y-65265340D01*
X135800428Y-65265340D02*
X135836714Y-65192768D01*
X135836714Y-65192768D02*
X135909285Y-65120197D01*
X135909285Y-65120197D02*
X136018142Y-65083911D01*
X136018142Y-65083911D02*
X136090714Y-65083911D01*
X136090714Y-65083911D02*
X136199571Y-65120197D01*
X136199571Y-65120197D02*
X136235857Y-65156483D01*
X136889000Y-65083911D02*
X136743857Y-65083911D01*
X136743857Y-65083911D02*
X136671285Y-65120197D01*
X136671285Y-65120197D02*
X136635000Y-65156483D01*
X136635000Y-65156483D02*
X136562428Y-65265340D01*
X136562428Y-65265340D02*
X136526142Y-65410483D01*
X136526142Y-65410483D02*
X136526142Y-65700768D01*
X136526142Y-65700768D02*
X136562428Y-65773340D01*
X136562428Y-65773340D02*
X136598714Y-65809626D01*
X136598714Y-65809626D02*
X136671285Y-65845911D01*
X136671285Y-65845911D02*
X136816428Y-65845911D01*
X136816428Y-65845911D02*
X136889000Y-65809626D01*
X136889000Y-65809626D02*
X136925285Y-65773340D01*
X136925285Y-65773340D02*
X136961571Y-65700768D01*
X136961571Y-65700768D02*
X136961571Y-65519340D01*
X136961571Y-65519340D02*
X136925285Y-65446768D01*
X136925285Y-65446768D02*
X136889000Y-65410483D01*
X136889000Y-65410483D02*
X136816428Y-65374197D01*
X136816428Y-65374197D02*
X136671285Y-65374197D01*
X136671285Y-65374197D02*
X136598714Y-65410483D01*
X136598714Y-65410483D02*
X136562428Y-65446768D01*
X136562428Y-65446768D02*
X136526142Y-65519340D01*
X177038428Y-111809626D02*
X177147286Y-111845911D01*
X177147286Y-111845911D02*
X177328714Y-111845911D01*
X177328714Y-111845911D02*
X177401286Y-111809626D01*
X177401286Y-111809626D02*
X177437571Y-111773340D01*
X177437571Y-111773340D02*
X177473857Y-111700768D01*
X177473857Y-111700768D02*
X177473857Y-111628197D01*
X177473857Y-111628197D02*
X177437571Y-111555626D01*
X177437571Y-111555626D02*
X177401286Y-111519340D01*
X177401286Y-111519340D02*
X177328714Y-111483054D01*
X177328714Y-111483054D02*
X177183571Y-111446768D01*
X177183571Y-111446768D02*
X177111000Y-111410483D01*
X177111000Y-111410483D02*
X177074714Y-111374197D01*
X177074714Y-111374197D02*
X177038428Y-111301626D01*
X177038428Y-111301626D02*
X177038428Y-111229054D01*
X177038428Y-111229054D02*
X177074714Y-111156483D01*
X177074714Y-111156483D02*
X177111000Y-111120197D01*
X177111000Y-111120197D02*
X177183571Y-111083911D01*
X177183571Y-111083911D02*
X177365000Y-111083911D01*
X177365000Y-111083911D02*
X177473857Y-111120197D01*
X178235857Y-111773340D02*
X178199571Y-111809626D01*
X178199571Y-111809626D02*
X178090714Y-111845911D01*
X178090714Y-111845911D02*
X178018142Y-111845911D01*
X178018142Y-111845911D02*
X177909285Y-111809626D01*
X177909285Y-111809626D02*
X177836714Y-111737054D01*
X177836714Y-111737054D02*
X177800428Y-111664483D01*
X177800428Y-111664483D02*
X177764142Y-111519340D01*
X177764142Y-111519340D02*
X177764142Y-111410483D01*
X177764142Y-111410483D02*
X177800428Y-111265340D01*
X177800428Y-111265340D02*
X177836714Y-111192768D01*
X177836714Y-111192768D02*
X177909285Y-111120197D01*
X177909285Y-111120197D02*
X178018142Y-111083911D01*
X178018142Y-111083911D02*
X178090714Y-111083911D01*
X178090714Y-111083911D02*
X178199571Y-111120197D01*
X178199571Y-111120197D02*
X178235857Y-111156483D01*
X178489857Y-111083911D02*
X178961571Y-111083911D01*
X178961571Y-111083911D02*
X178707571Y-111374197D01*
X178707571Y-111374197D02*
X178816428Y-111374197D01*
X178816428Y-111374197D02*
X178889000Y-111410483D01*
X178889000Y-111410483D02*
X178925285Y-111446768D01*
X178925285Y-111446768D02*
X178961571Y-111519340D01*
X178961571Y-111519340D02*
X178961571Y-111700768D01*
X178961571Y-111700768D02*
X178925285Y-111773340D01*
X178925285Y-111773340D02*
X178889000Y-111809626D01*
X178889000Y-111809626D02*
X178816428Y-111845911D01*
X178816428Y-111845911D02*
X178598714Y-111845911D01*
X178598714Y-111845911D02*
X178526142Y-111809626D01*
X178526142Y-111809626D02*
X178489857Y-111773340D01*
X135038428Y-88809626D02*
X135147286Y-88845911D01*
X135147286Y-88845911D02*
X135328714Y-88845911D01*
X135328714Y-88845911D02*
X135401286Y-88809626D01*
X135401286Y-88809626D02*
X135437571Y-88773340D01*
X135437571Y-88773340D02*
X135473857Y-88700768D01*
X135473857Y-88700768D02*
X135473857Y-88628197D01*
X135473857Y-88628197D02*
X135437571Y-88555626D01*
X135437571Y-88555626D02*
X135401286Y-88519340D01*
X135401286Y-88519340D02*
X135328714Y-88483054D01*
X135328714Y-88483054D02*
X135183571Y-88446768D01*
X135183571Y-88446768D02*
X135111000Y-88410483D01*
X135111000Y-88410483D02*
X135074714Y-88374197D01*
X135074714Y-88374197D02*
X135038428Y-88301626D01*
X135038428Y-88301626D02*
X135038428Y-88229054D01*
X135038428Y-88229054D02*
X135074714Y-88156483D01*
X135074714Y-88156483D02*
X135111000Y-88120197D01*
X135111000Y-88120197D02*
X135183571Y-88083911D01*
X135183571Y-88083911D02*
X135365000Y-88083911D01*
X135365000Y-88083911D02*
X135473857Y-88120197D01*
X136235857Y-88773340D02*
X136199571Y-88809626D01*
X136199571Y-88809626D02*
X136090714Y-88845911D01*
X136090714Y-88845911D02*
X136018142Y-88845911D01*
X136018142Y-88845911D02*
X135909285Y-88809626D01*
X135909285Y-88809626D02*
X135836714Y-88737054D01*
X135836714Y-88737054D02*
X135800428Y-88664483D01*
X135800428Y-88664483D02*
X135764142Y-88519340D01*
X135764142Y-88519340D02*
X135764142Y-88410483D01*
X135764142Y-88410483D02*
X135800428Y-88265340D01*
X135800428Y-88265340D02*
X135836714Y-88192768D01*
X135836714Y-88192768D02*
X135909285Y-88120197D01*
X135909285Y-88120197D02*
X136018142Y-88083911D01*
X136018142Y-88083911D02*
X136090714Y-88083911D01*
X136090714Y-88083911D02*
X136199571Y-88120197D01*
X136199571Y-88120197D02*
X136235857Y-88156483D01*
X136925285Y-88083911D02*
X136562428Y-88083911D01*
X136562428Y-88083911D02*
X136526142Y-88446768D01*
X136526142Y-88446768D02*
X136562428Y-88410483D01*
X136562428Y-88410483D02*
X136635000Y-88374197D01*
X136635000Y-88374197D02*
X136816428Y-88374197D01*
X136816428Y-88374197D02*
X136889000Y-88410483D01*
X136889000Y-88410483D02*
X136925285Y-88446768D01*
X136925285Y-88446768D02*
X136961571Y-88519340D01*
X136961571Y-88519340D02*
X136961571Y-88700768D01*
X136961571Y-88700768D02*
X136925285Y-88773340D01*
X136925285Y-88773340D02*
X136889000Y-88809626D01*
X136889000Y-88809626D02*
X136816428Y-88845911D01*
X136816428Y-88845911D02*
X136635000Y-88845911D01*
X136635000Y-88845911D02*
X136562428Y-88809626D01*
X136562428Y-88809626D02*
X136526142Y-88773340D01*
X135038428Y-111809626D02*
X135147286Y-111845911D01*
X135147286Y-111845911D02*
X135328714Y-111845911D01*
X135328714Y-111845911D02*
X135401286Y-111809626D01*
X135401286Y-111809626D02*
X135437571Y-111773340D01*
X135437571Y-111773340D02*
X135473857Y-111700768D01*
X135473857Y-111700768D02*
X135473857Y-111628197D01*
X135473857Y-111628197D02*
X135437571Y-111555626D01*
X135437571Y-111555626D02*
X135401286Y-111519340D01*
X135401286Y-111519340D02*
X135328714Y-111483054D01*
X135328714Y-111483054D02*
X135183571Y-111446768D01*
X135183571Y-111446768D02*
X135111000Y-111410483D01*
X135111000Y-111410483D02*
X135074714Y-111374197D01*
X135074714Y-111374197D02*
X135038428Y-111301626D01*
X135038428Y-111301626D02*
X135038428Y-111229054D01*
X135038428Y-111229054D02*
X135074714Y-111156483D01*
X135074714Y-111156483D02*
X135111000Y-111120197D01*
X135111000Y-111120197D02*
X135183571Y-111083911D01*
X135183571Y-111083911D02*
X135365000Y-111083911D01*
X135365000Y-111083911D02*
X135473857Y-111120197D01*
X136235857Y-111773340D02*
X136199571Y-111809626D01*
X136199571Y-111809626D02*
X136090714Y-111845911D01*
X136090714Y-111845911D02*
X136018142Y-111845911D01*
X136018142Y-111845911D02*
X135909285Y-111809626D01*
X135909285Y-111809626D02*
X135836714Y-111737054D01*
X135836714Y-111737054D02*
X135800428Y-111664483D01*
X135800428Y-111664483D02*
X135764142Y-111519340D01*
X135764142Y-111519340D02*
X135764142Y-111410483D01*
X135764142Y-111410483D02*
X135800428Y-111265340D01*
X135800428Y-111265340D02*
X135836714Y-111192768D01*
X135836714Y-111192768D02*
X135909285Y-111120197D01*
X135909285Y-111120197D02*
X136018142Y-111083911D01*
X136018142Y-111083911D02*
X136090714Y-111083911D01*
X136090714Y-111083911D02*
X136199571Y-111120197D01*
X136199571Y-111120197D02*
X136235857Y-111156483D01*
X136889000Y-111337911D02*
X136889000Y-111845911D01*
X136707571Y-111047626D02*
X136526142Y-111591911D01*
X136526142Y-111591911D02*
X136997857Y-111591911D01*
X177038428Y-65809626D02*
X177147286Y-65845911D01*
X177147286Y-65845911D02*
X177328714Y-65845911D01*
X177328714Y-65845911D02*
X177401286Y-65809626D01*
X177401286Y-65809626D02*
X177437571Y-65773340D01*
X177437571Y-65773340D02*
X177473857Y-65700768D01*
X177473857Y-65700768D02*
X177473857Y-65628197D01*
X177473857Y-65628197D02*
X177437571Y-65555626D01*
X177437571Y-65555626D02*
X177401286Y-65519340D01*
X177401286Y-65519340D02*
X177328714Y-65483054D01*
X177328714Y-65483054D02*
X177183571Y-65446768D01*
X177183571Y-65446768D02*
X177111000Y-65410483D01*
X177111000Y-65410483D02*
X177074714Y-65374197D01*
X177074714Y-65374197D02*
X177038428Y-65301626D01*
X177038428Y-65301626D02*
X177038428Y-65229054D01*
X177038428Y-65229054D02*
X177074714Y-65156483D01*
X177074714Y-65156483D02*
X177111000Y-65120197D01*
X177111000Y-65120197D02*
X177183571Y-65083911D01*
X177183571Y-65083911D02*
X177365000Y-65083911D01*
X177365000Y-65083911D02*
X177473857Y-65120197D01*
X178235857Y-65773340D02*
X178199571Y-65809626D01*
X178199571Y-65809626D02*
X178090714Y-65845911D01*
X178090714Y-65845911D02*
X178018142Y-65845911D01*
X178018142Y-65845911D02*
X177909285Y-65809626D01*
X177909285Y-65809626D02*
X177836714Y-65737054D01*
X177836714Y-65737054D02*
X177800428Y-65664483D01*
X177800428Y-65664483D02*
X177764142Y-65519340D01*
X177764142Y-65519340D02*
X177764142Y-65410483D01*
X177764142Y-65410483D02*
X177800428Y-65265340D01*
X177800428Y-65265340D02*
X177836714Y-65192768D01*
X177836714Y-65192768D02*
X177909285Y-65120197D01*
X177909285Y-65120197D02*
X178018142Y-65083911D01*
X178018142Y-65083911D02*
X178090714Y-65083911D01*
X178090714Y-65083911D02*
X178199571Y-65120197D01*
X178199571Y-65120197D02*
X178235857Y-65156483D01*
X178961571Y-65845911D02*
X178526142Y-65845911D01*
X178743857Y-65845911D02*
X178743857Y-65083911D01*
X178743857Y-65083911D02*
X178671285Y-65192768D01*
X178671285Y-65192768D02*
X178598714Y-65265340D01*
X178598714Y-65265340D02*
X178526142Y-65301626D01*
D11*
%TO.C,SC2*%
X157000001Y-77000000D02*
X157000001Y-100000000D01*
X157000001Y-77000000D02*
X198999999Y-77000000D01*
X157000001Y-100000000D02*
X198999999Y-100000000D01*
D12*
X168500001Y-88500000D02*
X166500000Y-88500000D01*
X187499999Y-88500000D02*
X189500000Y-88500000D01*
X188500000Y-87500000D02*
X188500000Y-89500000D01*
D11*
X198999999Y-77000000D02*
X198999999Y-100000000D01*
%TO.C,SC6*%
X115000001Y-77000000D02*
X115000001Y-54000000D01*
D12*
X125500000Y-66500000D02*
X125500000Y-64500000D01*
X126500001Y-65500000D02*
X124500000Y-65500000D01*
X145499999Y-65500000D02*
X147500000Y-65500000D01*
D11*
X156999999Y-54000000D02*
X115000001Y-54000000D01*
X156999999Y-77000000D02*
X115000001Y-77000000D01*
X156999999Y-77000000D02*
X156999999Y-54000000D01*
%TO.C,SC3*%
X157000001Y-123000000D02*
X157000001Y-100000000D01*
D12*
X167500000Y-112500000D02*
X167500000Y-110500000D01*
X168500001Y-111500000D02*
X166500000Y-111500000D01*
X187499999Y-111500000D02*
X189500000Y-111500000D01*
D11*
X198999999Y-100000000D02*
X157000001Y-100000000D01*
X198999999Y-123000000D02*
X157000001Y-123000000D01*
X198999999Y-123000000D02*
X198999999Y-100000000D01*
%TO.C,SC5*%
X115000001Y-77000000D02*
X115000001Y-100000000D01*
X115000001Y-77000000D02*
X156999999Y-77000000D01*
X115000001Y-100000000D02*
X156999999Y-100000000D01*
D12*
X126500001Y-88500000D02*
X124500000Y-88500000D01*
X145499999Y-88500000D02*
X147500000Y-88500000D01*
X146500000Y-87500000D02*
X146500000Y-89500000D01*
D11*
X156999999Y-77000000D02*
X156999999Y-100000000D01*
%TO.C,SC4*%
X115000001Y-123000000D02*
X115000001Y-100000000D01*
D12*
X125500000Y-112500000D02*
X125500000Y-110500000D01*
X126500001Y-111500000D02*
X124500000Y-111500000D01*
X145499999Y-111500000D02*
X147500000Y-111500000D01*
D11*
X156999999Y-100000000D02*
X115000001Y-100000000D01*
X156999999Y-123000000D02*
X115000001Y-123000000D01*
X156999999Y-123000000D02*
X156999999Y-100000000D01*
%TO.C,SC1*%
X157000001Y-77000000D02*
X157000001Y-54000000D01*
D12*
X167500000Y-66500000D02*
X167500000Y-64500000D01*
X168500001Y-65500000D02*
X166500000Y-65500000D01*
X187499999Y-65500000D02*
X189500000Y-65500000D01*
D11*
X198999999Y-54000000D02*
X157000001Y-54000000D01*
X198999999Y-77000000D02*
X157000001Y-77000000D01*
X198999999Y-77000000D02*
X198999999Y-54000000D01*
%TD*%
M02*
