%TF.GenerationSoftware,KiCad,Pcbnew,9.0.7*%
%TF.CreationDate,2026-02-05T12:25:01-05:00*%
%TF.ProjectId,Avionics-Deployables,4176696f-6e69-4637-932d-4465706c6f79,rev?*%
%TF.SameCoordinates,Original*%
%TF.FileFunction,Profile,NP*%
%FSLAX46Y46*%
G04 Gerber Fmt 4.6, Leading zero omitted, Abs format (unit mm)*
G04 Created by KiCad (PCBNEW 9.0.7) date 2026-02-05 12:25:01*
%MOMM*%
%LPD*%
G01*
G04 APERTURE LIST*
%TA.AperFunction,Profile*%
%ADD10C,0.025400*%
%TD*%
G04 APERTURE END LIST*
D10*
X154100000Y-79822000D02*
G75*
G02*
X152600000Y-81322000I-1500000J0D01*
G01*
X152100000Y-49700000D02*
X152100000Y-65700000D01*
X152600000Y-75322000D02*
X140600000Y-75322000D01*
X122750000Y-136295000D02*
G75*
G02*
X120650000Y-136295000I-1050000J0D01*
G01*
X120650000Y-136295000D02*
G75*
G02*
X122750000Y-136295000I1050000J0D01*
G01*
X159100000Y-138900000D02*
X178954194Y-138900000D01*
X139100000Y-76822000D02*
X139100000Y-79822000D01*
X134100000Y-138900000D02*
X136600000Y-141400000D01*
X150600000Y-48200000D02*
G75*
G02*
X152100000Y-49700000I0J-1500000D01*
G01*
X164750000Y-136295000D02*
G75*
G02*
X162650000Y-136295000I-1050000J0D01*
G01*
X162650000Y-136295000D02*
G75*
G02*
X164750000Y-136295000I1050000J0D01*
G01*
X139100000Y-76822000D02*
G75*
G02*
X140600000Y-75322000I1500000J0D01*
G01*
X141100000Y-65700000D02*
X141100000Y-49700000D01*
X114600000Y-41400000D02*
G75*
G02*
X105600000Y-50400000I-9000000J0D01*
G01*
X178600000Y-41400000D02*
X114600000Y-41400000D01*
X178954194Y-138900000D02*
G75*
G02*
X187600002Y-132400002I8645806J-2500000D01*
G01*
X141100000Y-49700000D02*
G75*
G02*
X142600000Y-48200000I1500000J0D01*
G01*
X105600000Y-50400000D02*
X105600000Y-132400000D01*
X130550000Y-136295000D02*
G75*
G02*
X128450000Y-136295000I-1050000J0D01*
G01*
X128450000Y-136295000D02*
G75*
G02*
X130550000Y-136295000I1050000J0D01*
G01*
X187600000Y-50400000D02*
G75*
G02*
X178600000Y-41400000I0J9000000D01*
G01*
X142600000Y-48200000D02*
X150600000Y-48200000D01*
X150600000Y-67200000D02*
X142600000Y-67200000D01*
X105600002Y-132400000D02*
G75*
G02*
X114245831Y-138899994I98J-8999900D01*
G01*
X187600000Y-132400000D02*
X187600000Y-50400000D01*
X154100000Y-76822000D02*
X154100000Y-79822000D01*
X114245810Y-138900000D02*
X134100000Y-138900000D01*
X172520000Y-136295000D02*
G75*
G02*
X170420000Y-136295000I-1050000J0D01*
G01*
X170420000Y-136295000D02*
G75*
G02*
X172520000Y-136295000I1050000J0D01*
G01*
X152600000Y-75322000D02*
G75*
G02*
X154100000Y-76822000I0J-1500000D01*
G01*
X136600000Y-141400000D02*
X156600000Y-141400000D01*
X152100000Y-65700000D02*
G75*
G02*
X150600000Y-67200000I-1500000J0D01*
G01*
X142600000Y-67200000D02*
G75*
G02*
X141100000Y-65700000I0J1500000D01*
G01*
X140600000Y-81322000D02*
G75*
G02*
X139100000Y-79822000I0J1500000D01*
G01*
X152600000Y-81322000D02*
X140600000Y-81322000D01*
X156600000Y-141400000D02*
X159100000Y-138900000D01*
M02*
