%TF.GenerationSoftware,KiCad,Pcbnew,9.0.7*%
%TF.CreationDate,2026-02-05T12:39:21-05:00*%
%TF.ProjectId,-Z,2d5a2e6b-6963-4616-945f-706362585858,rev?*%
%TF.SameCoordinates,Original*%
%TF.FileFunction,Copper,L3,Inr*%
%TF.FilePolarity,Positive*%
%FSLAX46Y46*%
G04 Gerber Fmt 4.6, Leading zero omitted, Abs format (unit mm)*
G04 Created by KiCad (PCBNEW 9.0.7) date 2026-02-05 12:39:21*
%MOMM*%
%LPD*%
G01*
G04 APERTURE LIST*
%TA.AperFunction,ComponentPad*%
%ADD10C,0.762000*%
%TD*%
%TA.AperFunction,ComponentPad*%
%ADD11C,3.800000*%
%TD*%
%TA.AperFunction,ComponentPad*%
%ADD12C,1.500000*%
%TD*%
%TA.AperFunction,ComponentPad*%
%ADD13C,1.727200*%
%TD*%
%TA.AperFunction,ComponentPad*%
%ADD14C,2.100000*%
%TD*%
%TA.AperFunction,ViaPad*%
%ADD15C,0.609600*%
%TD*%
%TA.AperFunction,ViaPad*%
%ADD16C,0.762000*%
%TD*%
%TA.AperFunction,Conductor*%
%ADD17C,0.203200*%
%TD*%
%TA.AperFunction,Conductor*%
%ADD18C,0.635000*%
%TD*%
%TA.AperFunction,Conductor*%
%ADD19C,2.032000*%
%TD*%
%TA.AperFunction,Conductor*%
%ADD20C,1.143000*%
%TD*%
%TA.AperFunction,Conductor*%
%ADD21C,0.414020*%
%TD*%
G04 APERTURE END LIST*
D10*
%TO.N,GND*%
%TO.C,H2*%
X145200000Y-145800000D03*
X144555750Y-147355750D03*
X144555750Y-144244250D03*
X143000000Y-148000000D03*
D11*
X143000000Y-145800000D03*
D10*
X143000000Y-143600000D03*
X141444250Y-147355750D03*
X141444250Y-144244250D03*
X140800000Y-145800000D03*
%TD*%
D12*
%TO.N,/Burn Wires/VBURN3*%
%TO.C,JP5*%
X164000001Y-96100000D03*
X164000001Y-97499999D03*
%TO.N,Net-(JP5-B)*%
X164000001Y-102499999D03*
X164000001Y-103899998D03*
%TD*%
D10*
%TO.N,GND*%
%TO.C,H8*%
X212000000Y-121000000D03*
X211355750Y-122555750D03*
X211355750Y-119444250D03*
X209800000Y-123200000D03*
D11*
X209800000Y-121000000D03*
D10*
X209800000Y-118800000D03*
X208244250Y-122555750D03*
X208244250Y-119444250D03*
X207600000Y-121000000D03*
%TD*%
%TO.N,GND*%
%TO.C,H5*%
X145200000Y-54200000D03*
X144555750Y-55755750D03*
X144555750Y-52644250D03*
X143000000Y-56400000D03*
D11*
X143000000Y-54200000D03*
D10*
X143000000Y-52000000D03*
X141444250Y-55755750D03*
X141444250Y-52644250D03*
X140800000Y-54200000D03*
%TD*%
%TO.N,GND*%
%TO.C,H7*%
X212000000Y-79000000D03*
X211355750Y-80555750D03*
X211355750Y-77444250D03*
X209800000Y-81200000D03*
D11*
X209800000Y-79000000D03*
D10*
X209800000Y-76800000D03*
X208244250Y-80555750D03*
X208244250Y-77444250D03*
X207600000Y-79000000D03*
%TD*%
D13*
%TO.N,/Interfaces/GPS*%
%TO.C,AE3*%
X164000000Y-120400000D03*
%TD*%
D12*
%TO.N,/Burn Wires/VBURN1*%
%TO.C,JP1*%
X167900000Y-62789000D03*
X166500001Y-62789000D03*
%TO.N,Net-(JP1-B)*%
X161500001Y-62789000D03*
X160100002Y-62789000D03*
%TD*%
D10*
%TO.N,GND*%
%TO.C,H4*%
X120400000Y-79000000D03*
X119755750Y-80555750D03*
X119755750Y-77444250D03*
X118200000Y-81200000D03*
D11*
X118200000Y-79000000D03*
D10*
X118200000Y-76800000D03*
X116644250Y-80555750D03*
X116644250Y-77444250D03*
X116000000Y-79000000D03*
%TD*%
%TO.N,GND*%
%TO.C,H3*%
X120400000Y-121000000D03*
X119755750Y-122555750D03*
X119755750Y-119444250D03*
X118200000Y-123200000D03*
D11*
X118200000Y-121000000D03*
D10*
X118200000Y-118800000D03*
X116644250Y-122555750D03*
X116644250Y-119444250D03*
X116000000Y-121000000D03*
%TD*%
D12*
%TO.N,Net-(JP3-B)*%
%TO.C,JP4*%
X126789000Y-103899999D03*
X126789000Y-102500000D03*
%TO.N,Net-(JP4-B)*%
X126789000Y-97500000D03*
X126789000Y-96100001D03*
%TD*%
D10*
%TO.N,GND*%
%TO.C,H1*%
X187200000Y-145800000D03*
X186555750Y-147355750D03*
X186555750Y-144244250D03*
X185000000Y-148000000D03*
D11*
X185000000Y-145800000D03*
D10*
X185000000Y-143600000D03*
X183444250Y-147355750D03*
X183444250Y-144244250D03*
X182800000Y-145800000D03*
%TD*%
%TO.N,GND*%
%TO.C,H6*%
X187200000Y-54200000D03*
X186555750Y-55755750D03*
X186555750Y-52644250D03*
X185000000Y-56400000D03*
D11*
X185000000Y-54200000D03*
D10*
X185000000Y-52000000D03*
X183444250Y-55755750D03*
X183444250Y-52644250D03*
X182800000Y-54200000D03*
%TD*%
D14*
%TO.N,/Burn Wires/VBURN_A_IN*%
%TO.C,U2*%
X146793600Y-88417600D03*
%TO.N,GND*%
X139173600Y-80797600D03*
%TO.N,VBATT*%
X139173600Y-88417600D03*
X156953600Y-88417600D03*
%TO.N,Net-(D1-A)*%
X156953600Y-80797600D03*
%TD*%
D12*
%TO.N,/Burn Wires/VBURN2*%
%TO.C,JP3*%
X201211001Y-97500000D03*
X201211001Y-96100001D03*
%TO.N,Net-(JP3-B)*%
X201211001Y-103899999D03*
X201211001Y-102500000D03*
%TD*%
%TO.N,Net-(JP1-B)*%
%TO.C,JP2*%
X161500001Y-137211000D03*
X160100002Y-137211000D03*
%TO.N,Net-(JP2-B)*%
X167900000Y-137211000D03*
X166500001Y-137211000D03*
%TD*%
D15*
%TO.N,GND*%
X161400000Y-128372600D03*
X165100000Y-110900000D03*
X162900000Y-113000000D03*
X163600000Y-111600000D03*
X162200000Y-125972600D03*
X162200000Y-129172600D03*
X165100000Y-115900000D03*
X165000001Y-125972600D03*
X185670201Y-121018798D03*
X165800000Y-125972600D03*
X165500000Y-121200000D03*
X162500000Y-119600000D03*
X163000001Y-121968599D03*
X166600000Y-126772600D03*
X166600000Y-128372600D03*
X164400000Y-115900000D03*
X163000001Y-125171799D03*
X152888399Y-123395400D03*
X163000001Y-125972600D03*
X165000001Y-122769399D03*
X162900000Y-110900000D03*
X164000000Y-118600000D03*
X162925001Y-113756200D03*
X184243801Y-80213400D03*
X165100000Y-111600000D03*
X163000000Y-118900000D03*
X165000001Y-124370999D03*
X165000000Y-118900000D03*
X162900000Y-111600000D03*
X164000000Y-129172600D03*
X161400000Y-125972600D03*
X163600000Y-110900000D03*
X165875001Y-114391200D03*
X165875001Y-115026200D03*
X163000001Y-122769399D03*
X148920200Y-118719600D03*
X165800000Y-112300000D03*
X165800000Y-111600000D03*
X162925001Y-114391200D03*
X165000001Y-121968599D03*
X162200000Y-120400000D03*
X163000001Y-123570199D03*
X166600000Y-127572600D03*
X162925001Y-115026200D03*
X165000001Y-125171799D03*
X161400000Y-127572600D03*
X162900000Y-115900000D03*
X163000000Y-129172600D03*
X162500000Y-121200000D03*
X162900000Y-110200000D03*
X166600000Y-125972600D03*
X165500000Y-119600000D03*
X165000000Y-129172600D03*
X179265400Y-84379000D03*
X165800000Y-120400000D03*
X165000001Y-123570199D03*
X182165000Y-120497799D03*
X163000001Y-124370999D03*
X161400000Y-129172600D03*
X161400000Y-126772600D03*
X165875001Y-113756200D03*
X165900000Y-115900000D03*
X162900000Y-112300000D03*
X163703000Y-115900000D03*
X165800000Y-113000000D03*
X184228800Y-88820999D03*
X165800000Y-129172600D03*
X180281401Y-75514399D03*
X166600000Y-129172600D03*
%TO.N,BURN_RELAY_A*%
X148556800Y-112852399D03*
X152798600Y-77380800D03*
%TO.N,SDA*%
X182237201Y-89661200D03*
X182252200Y-74699600D03*
X141114601Y-119796799D03*
X150917600Y-124230600D03*
%TO.N,SCL*%
X150917599Y-117907000D03*
X182252201Y-81023200D03*
X141114601Y-117896800D03*
%TO.N,/Burn Wires/VBURN1*%
X173042401Y-74955600D03*
X173779001Y-74955600D03*
X173779000Y-76378000D03*
X173779001Y-75666799D03*
X173042400Y-76378000D03*
X173042401Y-75666799D03*
%TO.N,/Burn Wires/VBURN2*%
X173042400Y-83566200D03*
X173779001Y-82143800D03*
X173779000Y-83566200D03*
X173042401Y-82143800D03*
X173779001Y-82854999D03*
X173042401Y-82854999D03*
%TO.N,/Burn Wires/VBURN3*%
X173042400Y-90805200D03*
X173042401Y-89382800D03*
X173779000Y-89382799D03*
X173779001Y-90093999D03*
X173779000Y-90805200D03*
X173042401Y-90093999D03*
%TO.N,SCL_M*%
X182237200Y-84987599D03*
X179625001Y-120370803D03*
%TO.N,SDA_M*%
X182237200Y-88011199D03*
X179625001Y-121209000D03*
%TO.N,SCL_IO*%
X150926600Y-119565999D03*
X152925600Y-113258796D03*
%TO.N,BURN_EN1*%
X162984001Y-73660200D03*
X148048800Y-114554200D03*
%TO.N,BURN_EN2*%
X162984001Y-79743000D03*
X148559567Y-113977544D03*
%TO.N,SDA_IO*%
X152925600Y-114020800D03*
X150917599Y-122580599D03*
%TO.N,BURN_EN3*%
X148044222Y-113416236D03*
X162984001Y-86982000D03*
%TO.N,/Light Sensor/LS_3V3*%
X182262601Y-77861400D03*
X187687802Y-74699600D03*
X187750800Y-77861400D03*
X176753600Y-77861399D03*
X159529601Y-76885999D03*
X176816600Y-81023200D03*
X175353801Y-80985701D03*
%TO.N,COIL_DRIVER_EN*%
X141114601Y-120751799D03*
X173812200Y-117589800D03*
%TO.N,/GPIO Expander/GE_3V3*%
X145418999Y-121068800D03*
X157802401Y-114173301D03*
X156416200Y-121068800D03*
X156353200Y-117907000D03*
X150907199Y-121068799D03*
X145482000Y-124230600D03*
%TO.N,/Burn Wires/VBURN_A_IN*%
X151300001Y-77355399D03*
X173779001Y-71348799D03*
X173779000Y-78511599D03*
X173779000Y-87173000D03*
X173779000Y-72771199D03*
X173779001Y-79222800D03*
X173779000Y-79934000D03*
X173042401Y-71348799D03*
X173779001Y-86461800D03*
X173042401Y-86461800D03*
X173042400Y-72060000D03*
X173042401Y-87172999D03*
X173042401Y-79933999D03*
X173779000Y-72060000D03*
X173042400Y-78511599D03*
X173042401Y-72771200D03*
X173779000Y-85750600D03*
X173042400Y-85750600D03*
X173042401Y-79222800D03*
%TO.N,3V3_P*%
X175353801Y-79410698D03*
X138398801Y-122359991D03*
X180945800Y-125590000D03*
X138398801Y-121359989D03*
X177085200Y-121234401D03*
X181340000Y-116992600D03*
X176738601Y-86499399D03*
X140873001Y-121869400D03*
X157802401Y-112598298D03*
X187735801Y-86499399D03*
X143389601Y-118846800D03*
X176801600Y-89661200D03*
X182247600Y-86499399D03*
%TO.N,VBATT_M*%
X175308401Y-116306800D03*
X175308400Y-115375902D03*
X140835201Y-124612600D03*
X175308401Y-117246600D03*
X141546400Y-125323799D03*
X141546400Y-124612600D03*
X140835201Y-125323799D03*
%TO.N,/Light Sensor/I2C Protection/DEVICE*%
X182252201Y-76349600D03*
X169384801Y-77419400D03*
%TO.N,/Light Sensor/I2C Protection1/DEVICE*%
X182252201Y-79373200D03*
X168191001Y-77419400D03*
%TO.N,/Light Sensor/ADDR*%
X162118879Y-71401124D03*
X167454400Y-71399599D03*
D16*
%TO.N,/Coil Driver/coil*%
X188438800Y-123164801D03*
D15*
X212318600Y-66573400D03*
D16*
X188438801Y-117830802D03*
%TD*%
D17*
%TO.N,SCL_IO*%
X152036600Y-118455999D02*
X150926600Y-119565999D01*
X152646203Y-113258797D02*
X152036601Y-113868399D01*
X152925600Y-113258796D02*
X152646203Y-113258797D01*
X152036601Y-113868399D02*
X152036600Y-118455999D01*
%TO.N,SDA_IO*%
X152620801Y-120877398D02*
X150917599Y-122580599D01*
X152925600Y-114020800D02*
X152620801Y-114325600D01*
X152620801Y-114325600D02*
X152620801Y-120877398D01*
D18*
%TO.N,/GPIO Expander/GE_3V3*%
X157802401Y-116457799D02*
X156364698Y-117895502D01*
X156364698Y-117895502D02*
X156341702Y-117895501D01*
X156341702Y-117895501D02*
X156353200Y-117907000D01*
X157802401Y-114173301D02*
X157802401Y-116457799D01*
D19*
%TO.N,/Burn Wires/VBURN_A_IN*%
X171290800Y-84302800D02*
X171290800Y-86461799D01*
X171290800Y-79146600D02*
X171290800Y-84302800D01*
X146793601Y-84556800D02*
X146793601Y-88417600D01*
X171367000Y-79222800D02*
X173779001Y-79222800D01*
X173779000Y-72060000D02*
X171290800Y-72060000D01*
D18*
X151300001Y-77355399D02*
X151300001Y-84556800D01*
D19*
X171290800Y-84302800D02*
X171036801Y-84556800D01*
X171290800Y-79146600D02*
X171367000Y-79222800D01*
X171290800Y-72060000D02*
X171290800Y-79146600D01*
X171036801Y-84556800D02*
X151300001Y-84556800D01*
X151300001Y-84556800D02*
X146793601Y-84556800D01*
X171290800Y-86461799D02*
X173779001Y-86461800D01*
D20*
%TO.N,3V3_P*%
X135300000Y-92500000D02*
X135300000Y-107700000D01*
X192000000Y-92400000D02*
X192000000Y-107600000D01*
D21*
%TO.N,/Coil Driver/coil*%
X193736063Y-129732664D02*
X193736066Y-134358925D01*
X181972402Y-138394063D02*
X188119202Y-138394064D01*
X178060802Y-128792864D02*
X174682602Y-132171064D01*
X194167864Y-85460467D02*
X197836433Y-89129036D01*
X137094064Y-71287263D02*
X150006504Y-71287263D01*
X183648802Y-142508864D02*
X186442803Y-142508864D01*
X203769064Y-123560865D02*
X209661864Y-129453664D01*
X196149064Y-110708464D02*
X192796265Y-114061263D01*
X199578064Y-109793664D02*
X200733964Y-110949564D01*
X192110464Y-86298665D02*
X195463264Y-89651465D01*
X193440503Y-54421663D02*
X201965664Y-54421664D01*
X122700058Y-130963119D02*
X128432666Y-125230513D01*
X174914664Y-66232664D02*
X174949300Y-66232664D01*
X129804264Y-83765015D02*
X129804264Y-74290815D01*
X119296459Y-129540720D02*
X125003664Y-123833514D01*
X199654264Y-83225265D02*
X205547064Y-89118065D01*
X189224102Y-64429265D02*
X195116903Y-58536464D01*
X141081464Y-141137263D02*
X144967664Y-141137263D01*
X195107664Y-137660926D02*
X190354402Y-132907664D01*
X194558103Y-57164863D02*
X199222464Y-57164865D01*
X121854064Y-69236215D02*
X127746864Y-75129016D01*
X203083265Y-123840265D02*
X203083264Y-118252265D01*
X141370503Y-58257063D02*
X144697903Y-58257063D01*
X133242502Y-57850663D02*
X129550265Y-57850663D01*
X196704403Y-129046864D02*
X193050264Y-129046864D01*
X137348064Y-124932064D02*
X137348064Y-113241713D01*
X191446601Y-130164462D02*
X178619603Y-130164463D01*
X138576504Y-65115063D02*
X147491903Y-65115063D01*
X130921864Y-59222263D02*
X132683704Y-59222263D01*
X133233264Y-72893815D02*
X131372712Y-71033263D01*
X124612400Y-110158049D02*
X124612400Y-89922080D01*
X137348064Y-113241713D02*
X133969864Y-109863514D01*
X153138784Y-65259383D02*
X153731065Y-65851663D01*
X188935464Y-126735464D02*
X177222604Y-126735464D01*
X199908264Y-143601064D02*
X199908264Y-135904864D01*
X131912464Y-89378414D02*
X135290664Y-86000215D01*
X173844403Y-130113664D02*
X154213265Y-130113664D01*
X203479400Y-89946000D02*
X203479400Y-110134528D01*
X121854064Y-89473663D02*
X121854064Y-111260514D01*
X209661864Y-137962263D02*
X201965664Y-137962264D01*
X174923902Y-133860164D02*
X174923902Y-133856702D01*
X154212366Y-61290200D02*
X173867636Y-61290200D01*
X198968465Y-83504665D02*
X198968464Y-74563866D01*
X194837504Y-57850663D02*
X198536664Y-57850663D01*
X211247634Y-71936695D02*
X205826464Y-77357866D01*
X121328457Y-69675810D02*
X127061064Y-75408416D01*
X208874464Y-64149864D02*
X208188665Y-64835663D01*
X194853665Y-127196126D02*
X196704403Y-129046864D01*
X196911065Y-84342866D02*
X201697233Y-89129034D01*
X180296003Y-134279264D02*
X174418067Y-140157200D01*
X128432665Y-83206216D02*
X128432664Y-74849616D01*
X174147038Y-60604400D02*
X180029302Y-66486665D01*
X208976064Y-87721064D02*
X203083266Y-81828264D01*
X133919064Y-72586125D02*
X133052003Y-71719064D01*
X150870103Y-53050064D02*
X177209902Y-53050064D01*
X190042800Y-112928400D02*
X190042800Y-117830802D01*
X144977304Y-58942863D02*
X150870103Y-53050064D01*
X189503502Y-65115066D02*
X195396304Y-59222263D01*
X197393667Y-70347463D02*
X194853664Y-72887466D01*
X204023064Y-140019664D02*
X204023064Y-147715864D01*
X119796664Y-63489464D02*
X127492864Y-63489465D01*
X188385902Y-62371865D02*
X181705702Y-62371864D01*
X117053466Y-60746263D02*
X124749664Y-60746263D01*
X131607664Y-67604265D02*
X131607664Y-59933464D01*
X152546503Y-57164864D02*
X175533500Y-57164863D01*
X151698664Y-144972664D02*
X176359003Y-144972663D01*
X129118464Y-74570215D02*
X123225665Y-68677416D01*
X204454864Y-76799065D02*
X204454864Y-81269467D01*
X123926600Y-110421860D02*
X123926600Y-89652490D01*
X205547064Y-131130065D02*
X205547064Y-133847463D01*
X208290263Y-109819064D02*
X208290264Y-88000466D01*
X133665064Y-69661665D02*
X133665065Y-64064426D01*
X212303464Y-66578000D02*
X212314000Y-66578000D01*
X193482064Y-85739866D02*
X196834864Y-89092666D01*
X196479264Y-132475864D02*
X196479264Y-140172064D01*
X126121265Y-54421664D02*
X134639503Y-54421664D01*
X121854064Y-130843915D02*
X122065059Y-130632920D01*
X180867502Y-64429265D02*
X189224102Y-64429265D01*
X132394664Y-140172064D02*
X131607666Y-140172064D01*
X199766833Y-89129034D02*
X199766833Y-89132495D01*
X194777465Y-89930865D02*
X194777465Y-110149664D01*
X192881704Y-53050064D02*
X186988901Y-58942865D01*
X190053064Y-75148064D02*
X190053065Y-87136866D01*
X174051064Y-134914263D02*
X154010464Y-134914263D01*
X115680067Y-71749018D02*
X121574665Y-77643614D01*
X209661864Y-129453664D02*
X209661864Y-137962263D01*
X194853665Y-114899464D02*
X194853665Y-127196126D01*
X119296459Y-129540720D02*
X119110864Y-129726315D01*
X196225264Y-115458265D02*
X196225264Y-126634266D01*
X127492864Y-63489465D02*
X127492865Y-55793263D01*
X135036664Y-71033263D02*
X135036664Y-67366424D01*
X137169864Y-131536064D02*
X134350866Y-134355062D01*
X128864464Y-64861063D02*
X128864464Y-57164863D01*
X132953464Y-141543664D02*
X130236065Y-141543664D01*
X201025865Y-75402065D02*
X206817064Y-69610865D01*
X124749664Y-147030064D02*
X135188664Y-147030063D01*
X189646664Y-125617863D02*
X189621264Y-125643262D01*
X174951466Y-141554200D02*
X153106202Y-141554200D01*
X123380068Y-148399999D02*
X135749128Y-148399999D01*
X174838463Y-58536464D02*
X174863863Y-58561864D01*
X195539464Y-84901665D02*
X199766833Y-89129034D01*
X131175864Y-73732016D02*
X126419711Y-68975863D01*
X210246064Y-61432063D02*
X202651464Y-61432063D01*
X203337265Y-60746263D02*
X203337264Y-53050065D01*
X189516202Y-134965063D02*
X180575402Y-134965065D01*
X132979264Y-137657063D02*
X132979264Y-131104264D01*
X201711664Y-82387066D02*
X201711664Y-75681466D01*
X203083266Y-81828264D02*
X203083266Y-76240265D01*
X188665302Y-63057664D02*
X194558103Y-57164863D01*
X131226664Y-110981113D02*
X131226664Y-89099016D01*
X122539864Y-66232664D02*
X130236064Y-66232664D01*
X202662433Y-89129033D02*
X203479400Y-89946000D01*
X192796265Y-126989464D02*
X190992864Y-126989464D01*
X129118464Y-83485614D02*
X129118464Y-74570215D01*
X133665064Y-136006064D02*
X133665065Y-130418463D01*
X145815504Y-61000263D02*
X151708303Y-55107463D01*
X149447703Y-69915664D02*
X153124354Y-66239014D01*
X121854064Y-111260514D02*
X127746864Y-117153314D01*
X139963864Y-138394064D02*
X146085265Y-138394064D01*
X132293464Y-68290064D02*
X132293464Y-60762425D01*
X203083266Y-76240265D02*
X208453635Y-70869896D01*
X129804264Y-116299524D02*
X123926600Y-110421860D01*
X212303464Y-66578000D02*
X212303464Y-71846065D01*
X200732033Y-89129033D02*
X200732033Y-89132494D01*
X192364464Y-69106325D02*
X192364464Y-71719063D01*
X130490064Y-84044416D02*
X130490065Y-74011416D01*
X154289865Y-135600063D02*
X153133964Y-136755964D01*
X192894403Y-147030063D02*
X203337265Y-147030063D01*
X124317865Y-81529816D02*
X124317865Y-76526015D01*
X124749664Y-60746263D02*
X124749664Y-53050063D01*
X177489301Y-52364263D02*
X183382102Y-58257065D01*
X195650303Y-59933464D02*
X196479264Y-59933464D01*
X123632064Y-118829713D02*
X117739264Y-112936914D01*
X137779863Y-73776464D02*
X137779865Y-71973064D01*
X190913203Y-131536063D02*
X179178401Y-131536064D01*
X124749664Y-139333863D02*
X124749664Y-147030064D01*
X203769064Y-81548866D02*
X209661864Y-87441666D01*
X199654264Y-116855265D02*
X199654264Y-125237265D01*
X153919002Y-139471400D02*
X148041065Y-133593463D01*
X201711664Y-75681466D02*
X207502864Y-69890267D01*
X144408864Y-142508864D02*
X150300001Y-148399999D01*
X191678665Y-129478663D02*
X178340203Y-129478663D01*
X150844703Y-73344664D02*
X154222904Y-69966464D01*
X137779865Y-71973064D02*
X150285904Y-71973064D01*
X174931982Y-65250145D02*
X178911702Y-69229863D01*
X147202865Y-135650863D02*
X138846265Y-135650863D01*
X191548202Y-69915665D02*
X192361003Y-69102864D01*
X199908264Y-135904864D02*
X207604464Y-135904863D01*
X154289863Y-64480063D02*
X173771664Y-64480063D01*
X204851000Y-89390662D02*
X204851000Y-110693329D01*
X134071064Y-144286863D02*
X139963864Y-138394064D01*
X151987704Y-55793263D02*
X176092302Y-55793263D01*
X197520664Y-110635325D02*
X197829327Y-110943988D01*
X188614502Y-72658865D02*
X188614503Y-72658864D01*
X153451664Y-66537465D02*
X174609864Y-66537464D01*
X154010464Y-65165864D02*
X174051065Y-65165863D01*
X194278703Y-56479064D02*
X188385902Y-62371865D01*
X134350464Y-144972663D02*
X140243264Y-139079864D01*
X192110464Y-73090664D02*
X192110464Y-86298665D01*
X119796664Y-70074415D02*
X119796664Y-63489464D01*
X174051065Y-65165863D02*
X174931983Y-64284946D01*
X154010464Y-143601063D02*
X175800202Y-143601064D01*
X173857101Y-69966464D02*
X177235303Y-73344663D01*
X176371702Y-55107465D02*
X182264502Y-61000266D01*
X179457802Y-132221864D02*
X174925633Y-136754033D01*
X190633803Y-132221864D02*
X179457802Y-132221864D01*
X174136502Y-69280663D02*
X177514702Y-72658864D01*
X134918903Y-53735863D02*
X135318954Y-54135913D01*
X188678001Y-137022464D02*
X194570802Y-142915264D01*
X200340064Y-124957865D02*
X206232864Y-130850664D01*
X194421864Y-64082903D02*
X194421864Y-69661663D01*
X135719003Y-131009588D02*
X135722465Y-131006126D01*
X130540865Y-89473665D02*
X130215572Y-89148371D01*
X130258003Y-110977652D02*
X130258002Y-110962064D01*
X207604465Y-88279866D02*
X201711664Y-82387066D01*
X117739264Y-129167512D02*
X117899458Y-129007319D01*
X126121264Y-62117864D02*
X126121265Y-54421664D01*
X198892264Y-110073062D02*
X199768765Y-110949564D01*
X177514702Y-72658864D02*
X188614502Y-72658865D01*
X194421864Y-136009925D02*
X190633803Y-132221864D01*
X188614503Y-72658864D02*
X189621263Y-72658864D01*
X193050264Y-67384902D02*
X193050264Y-71033263D01*
X118425064Y-70633214D02*
X118425064Y-62117864D01*
X197165064Y-59222263D02*
X197165064Y-66918463D01*
X135468065Y-147715864D02*
X124063865Y-147715864D01*
X129250372Y-89148371D02*
X129250372Y-89144908D01*
X125003664Y-76246614D02*
X119283758Y-70526709D01*
X193405864Y-90489666D02*
X193405864Y-109565336D01*
X123933403Y-67604265D02*
X131607664Y-67604265D01*
X139694103Y-62371863D02*
X134391854Y-57069613D01*
X203479400Y-110134528D02*
X197596864Y-116017064D01*
X117053465Y-86863815D02*
X117053466Y-113216314D01*
X122539864Y-110981112D02*
X122539865Y-89099016D01*
X148609503Y-67858264D02*
X153138783Y-63328983D01*
X204592833Y-89132495D02*
X204592832Y-89129034D01*
X181693002Y-137708263D02*
X188398603Y-137708263D01*
X133801305Y-56479064D02*
X128178665Y-56479064D01*
X134350866Y-134355062D02*
X134350864Y-129732663D01*
X128483463Y-90311864D02*
X127319969Y-89148370D01*
X136662265Y-74462263D02*
X138465664Y-74462264D01*
X188106501Y-61686065D02*
X193999304Y-55793263D01*
X196479264Y-140172064D02*
X195688402Y-140172064D01*
X131372712Y-71033263D02*
X135036664Y-71033263D01*
X174330464Y-65851663D02*
X174931982Y-65250145D01*
X200594064Y-63489463D02*
X207502864Y-63489464D01*
X123240800Y-89363279D02*
X123802639Y-88801439D01*
X177222604Y-126735464D02*
X173844403Y-130113664D01*
X188935464Y-73344663D02*
X188935464Y-75148064D01*
X190671902Y-70601465D02*
X190671903Y-70601464D01*
X209560265Y-65394463D02*
X210246065Y-64708664D01*
X138855902Y-64429264D02*
X147212504Y-64429263D01*
X126375264Y-82368016D02*
X120482464Y-88260814D01*
X137458903Y-67858264D02*
X148609503Y-67858264D01*
X212149334Y-72000195D02*
X212303464Y-71846066D01*
X135758767Y-51680128D02*
X123380067Y-51680128D01*
X118425064Y-109234864D02*
X118425065Y-90870664D01*
X137449264Y-132221864D02*
X133665064Y-136006064D01*
X197836433Y-89132495D02*
X197520664Y-89448264D01*
X201965664Y-54421664D02*
X201965665Y-62117863D01*
X208290265Y-136590663D02*
X208290264Y-130012465D01*
X153943503Y-69280663D02*
X174136502Y-69280663D01*
X192364464Y-128361064D02*
X192364464Y-131075403D01*
X208976064Y-112359465D02*
X208976064Y-87721064D01*
X145256703Y-59628663D02*
X151149504Y-53735863D01*
X197596864Y-116017064D02*
X197596864Y-126075463D01*
X190307064Y-73776463D02*
X191424664Y-73776464D01*
X123225664Y-133161664D02*
X123225664Y-131402715D01*
X153384703Y-67909064D02*
X174695301Y-67909064D01*
X117962958Y-71136309D02*
X117739264Y-70912616D01*
X137728664Y-132907662D02*
X132979264Y-137657063D01*
X127492865Y-144286863D02*
X134071064Y-144286863D01*
X132293464Y-60762425D02*
X138017703Y-66486664D01*
X192796265Y-72404863D02*
X192796266Y-86019264D01*
X211719264Y-128615464D02*
X211719264Y-140019662D01*
X187827102Y-61000264D02*
X193719903Y-55107464D01*
X193736065Y-70347463D02*
X197393667Y-70347463D01*
X133232863Y-142229464D02*
X129550266Y-142229464D01*
X196149064Y-89372064D02*
X196149064Y-110708464D01*
X128285172Y-89144908D02*
X132547465Y-84882615D01*
X117739264Y-87143215D02*
X123632064Y-81250416D01*
X176917802Y-146344264D02*
X151139864Y-146344265D01*
X211719264Y-140019662D02*
X204023064Y-140019664D01*
X125298200Y-90201480D02*
X131175864Y-84323815D01*
X128070712Y-69661663D02*
X133665064Y-69661665D01*
X196911065Y-126354864D02*
X201660464Y-131104263D01*
X146085265Y-138394064D02*
X151978066Y-144286864D01*
X209560264Y-64429265D02*
X208874464Y-65115063D01*
X134604863Y-127675264D02*
X134604866Y-114359314D01*
X132293464Y-139308063D02*
X132293464Y-131790063D01*
X191424664Y-73776464D02*
X191424664Y-86578064D01*
X123373159Y-131255220D02*
X129118464Y-125509914D01*
X131607664Y-59933464D02*
X132429703Y-59933464D01*
X135318954Y-54135913D02*
X134918904Y-53735863D01*
X198968465Y-125516664D02*
X204861265Y-131409464D01*
X132547463Y-126906914D02*
X132547463Y-115197514D01*
X129550265Y-57850663D02*
X129550264Y-65546865D01*
X128319809Y-110969858D02*
X129169264Y-110120403D01*
X123225665Y-68677416D02*
X123225666Y-66918463D01*
X129169264Y-90032463D02*
X128285172Y-89148371D01*
X212303465Y-59380128D02*
X204739729Y-59380128D01*
X194291402Y-143601064D02*
X199908264Y-143601064D01*
X145805863Y-139079864D02*
X151698664Y-144972664D01*
X132598266Y-110422314D02*
X132598265Y-89657816D01*
X117053466Y-113216314D02*
X122946264Y-119109113D01*
X121328457Y-69675810D02*
X121168264Y-69515617D01*
X132979264Y-131104264D02*
X126419713Y-131104264D01*
X119110865Y-70353816D02*
X119283758Y-70526709D01*
X174138664Y-139471400D02*
X153919002Y-139471400D01*
X115680067Y-128331111D02*
X115680067Y-140700000D01*
X194853664Y-72887466D02*
X194853664Y-85181066D01*
X204023064Y-147715864D02*
X192615002Y-147715864D01*
X137348064Y-75148064D02*
X139151464Y-75148064D01*
X153299264Y-133695064D02*
X153295804Y-133695064D01*
X136900104Y-69229863D02*
X149168304Y-69229863D01*
X131861664Y-84603215D02*
X131861664Y-73452615D01*
X177781402Y-128107063D02*
X174403202Y-131485263D01*
X190354402Y-132907664D02*
X179737202Y-132907664D01*
X120482464Y-135904863D02*
X128178664Y-135904863D01*
X144967664Y-141137263D02*
X150860464Y-147030063D01*
X125435465Y-53735863D02*
X125435464Y-61432065D01*
X146094904Y-61686064D02*
X151987704Y-55793263D01*
X180854802Y-135650864D02*
X174951466Y-141554200D01*
X144418504Y-57571263D02*
X141649903Y-57571262D01*
X126121264Y-137962263D02*
X118425064Y-137962263D01*
X203769064Y-76519665D02*
X203769064Y-81548866D01*
X129855064Y-110412503D02*
X129855064Y-89753063D01*
X182543903Y-60314465D02*
X187547703Y-60314464D01*
X192110464Y-113781864D02*
X192110464Y-126303663D01*
X201711664Y-117693465D02*
X207604464Y-111800664D01*
X134874454Y-55621814D02*
X140252903Y-61000263D01*
X131607666Y-140172064D02*
X131607665Y-132475863D01*
X153133964Y-136755964D02*
X148599864Y-132221864D01*
X131861664Y-73452615D02*
X128070712Y-69661663D01*
X210347665Y-138648063D02*
X202651464Y-138648064D01*
X136061903Y-69315302D02*
X136061903Y-69318764D01*
X151139864Y-146344265D02*
X145247064Y-140451464D01*
X175812902Y-56479064D02*
X154010465Y-56479064D01*
X128178664Y-135904863D02*
X128178665Y-143601064D01*
X193736066Y-65733902D02*
X193736065Y-70347463D01*
X123225666Y-66918463D02*
X130921864Y-66918463D01*
X139973503Y-61686064D02*
X146094904Y-61686064D01*
X204699939Y-59340339D02*
X204699939Y-51680128D01*
X136408264Y-127675263D02*
X134604863Y-127675264D01*
X197836434Y-89132494D02*
X197836433Y-89129036D01*
X180575402Y-134965065D02*
X174697465Y-140843000D01*
X203311465Y-131790064D02*
X195793463Y-131790064D01*
X202651464Y-61432063D02*
X202651464Y-53735863D01*
X122260465Y-77364215D02*
X116367665Y-71471416D01*
X135744403Y-131129664D02*
X135719003Y-131129664D01*
X191678663Y-127675264D02*
X191678665Y-129478663D01*
X150276265Y-128107063D02*
X137779865Y-128107063D01*
X190053065Y-87136866D02*
X193405864Y-90489666D01*
X211247634Y-71936695D02*
X211617665Y-71566665D01*
X134629864Y-145658464D02*
X126121265Y-145658464D01*
X148888903Y-68544063D02*
X153138783Y-64294183D01*
X194777465Y-110149664D02*
X191424664Y-113502465D01*
X181705702Y-62371864D02*
X175812902Y-56479064D01*
X153121065Y-133847464D02*
X149438064Y-130164463D01*
X127061064Y-82647416D02*
X121168265Y-88540216D01*
X121168265Y-111539913D02*
X127061064Y-117432713D01*
X198892265Y-90007063D02*
X198892264Y-110073062D01*
X135976464Y-126303663D02*
X135976465Y-113800513D01*
X195688402Y-140172064D02*
X189795602Y-134279264D01*
X116367665Y-86584415D02*
X122260465Y-80691615D01*
X211033464Y-113197664D02*
X211033464Y-86882866D01*
X147482264Y-134965064D02*
X138566864Y-134965065D01*
X154213265Y-130113664D02*
X150835063Y-126735463D01*
X137094064Y-126989464D02*
X135290664Y-126989464D01*
X146374303Y-62371863D02*
X139694103Y-62371863D01*
X195107664Y-131104264D02*
X195107664Y-137660926D01*
X134604865Y-72404863D02*
X136408264Y-72404864D01*
X201697233Y-89129034D02*
X201697233Y-89132495D01*
X131175864Y-115756314D02*
X125298200Y-109878650D01*
X118425064Y-62117864D02*
X126121264Y-62117864D01*
X202651464Y-138648064D02*
X202651464Y-146344264D01*
X135722463Y-71719064D02*
X135722464Y-68975864D01*
X206232864Y-130850664D02*
X206232865Y-134533263D01*
X129550266Y-134533263D02*
X121854064Y-134533263D01*
X133665065Y-130418463D02*
X128070715Y-130418464D01*
X130215572Y-89144908D02*
X133919064Y-85441416D01*
X150309640Y-51680127D02*
X177770367Y-51680128D01*
X119110864Y-129726315D02*
X119110864Y-137276464D01*
X190307064Y-126303664D02*
X190307064Y-128107062D01*
X134350864Y-70347464D02*
X134350864Y-65715424D01*
X124317866Y-118550314D02*
X118425065Y-112657513D01*
X199654264Y-125237265D02*
X205547064Y-131130065D01*
X178632302Y-69915665D02*
X191548202Y-69915665D01*
X119110865Y-87702015D02*
X125003664Y-81809215D01*
X197829327Y-110943988D02*
X197829327Y-110958602D01*
X140802065Y-140451464D02*
X134909264Y-146344264D01*
X209661864Y-87441666D02*
X209661864Y-112638865D01*
X197850865Y-66232663D02*
X204759664Y-66232664D01*
X197596864Y-126075463D02*
X203311465Y-131790064D01*
X204454864Y-118811064D02*
X204454864Y-123281464D01*
X204861264Y-133161663D02*
X197165064Y-133161664D01*
X198536664Y-65546863D02*
X205445464Y-65546864D01*
X128864464Y-142915264D02*
X133512265Y-142915263D01*
X178619603Y-130164463D02*
X174923902Y-133860164D01*
X130490065Y-126068713D02*
X130490065Y-116035714D01*
X120482465Y-130285113D02*
X120482464Y-135904863D01*
X131226664Y-89099016D02*
X134604865Y-85720815D01*
X206512265Y-80431265D02*
X206512264Y-77637263D01*
X192364464Y-71719063D02*
X194088203Y-71719064D01*
X194853664Y-85181066D02*
X198801633Y-89129035D01*
X173867636Y-61290200D02*
X179749901Y-67172465D01*
X206232865Y-88838665D02*
X206232866Y-89422863D01*
X153133965Y-134825563D02*
X149158665Y-130850264D01*
X137738304Y-67172463D02*
X148330103Y-67172463D01*
X149158665Y-130850264D02*
X136890465Y-130850264D01*
X138297103Y-65800864D02*
X147771303Y-65800863D01*
X195463264Y-89651465D02*
X195463264Y-110429064D01*
X146644064Y-137022463D02*
X152536864Y-142915263D01*
X123984203Y-131609374D02*
X129804265Y-125789314D01*
X131607665Y-132475863D02*
X123984204Y-132475863D01*
X177197203Y-147030063D02*
X183090002Y-141137263D01*
X178073502Y-71287266D02*
X190992864Y-71287263D01*
X174923902Y-133856702D02*
X174609864Y-133542663D01*
X136408264Y-129478664D02*
X136408264Y-127675263D01*
X150835063Y-126735463D02*
X139151464Y-126735464D01*
X196225264Y-126634266D02*
X200009462Y-130418463D01*
X175254103Y-57850664D02*
X181146903Y-63743465D01*
X174697465Y-140843000D02*
X153360201Y-140843000D01*
X174609864Y-66537464D02*
X174914664Y-66232664D01*
X203337265Y-147030063D02*
X203337264Y-139333864D01*
X199044666Y-69661664D02*
X195539464Y-73166866D01*
X130236065Y-141543664D02*
X130236064Y-133847463D01*
X120482464Y-111819313D02*
X126375264Y-117712115D01*
X200340064Y-82945865D02*
X206232865Y-88838665D01*
X207604464Y-135904863D02*
X207604464Y-130291864D01*
X135976464Y-73776464D02*
X137779863Y-73776464D01*
X140243264Y-139079864D02*
X145805863Y-139079864D01*
X204759664Y-68772667D02*
X204415035Y-69117296D01*
X139405064Y-137022463D02*
X146644064Y-137022463D01*
X200695667Y-68975862D02*
X196225264Y-73446265D01*
X117053466Y-128888114D02*
X117053464Y-139333864D01*
X203769064Y-118531664D02*
X203769064Y-123560865D01*
X195539464Y-126913664D02*
X198358463Y-129732663D01*
X211033464Y-139333863D02*
X211033464Y-128894865D01*
X206512264Y-119649265D02*
X212400001Y-113761528D01*
X121168264Y-69515617D02*
X121168266Y-64861063D01*
X197850864Y-58536464D02*
X197850865Y-66232663D01*
X187928702Y-73344664D02*
X188935464Y-73344663D01*
X181146903Y-63743465D02*
X188944702Y-63743465D01*
X195409002Y-140857863D02*
X189516202Y-134965063D01*
X191678663Y-70601464D02*
X191678665Y-72404863D01*
X195107664Y-62406502D02*
X195107664Y-68975863D01*
X125435465Y-138648063D02*
X117739265Y-138648064D01*
X132293464Y-131790063D02*
X124768713Y-131790064D01*
X200594064Y-144286864D02*
X200594064Y-136590664D01*
X199222464Y-64861063D02*
X206131265Y-64861063D01*
X190671903Y-70601464D02*
X191678663Y-70601464D01*
X186722203Y-141823063D02*
X183369403Y-141823063D01*
X206918664Y-88559265D02*
X201025866Y-82666465D01*
X198968464Y-74563866D02*
X204415035Y-69117296D01*
X128178665Y-143601064D02*
X133791665Y-143601064D01*
X208874464Y-62803663D02*
X208874464Y-64149864D01*
X199768765Y-110949564D02*
X195539464Y-115178865D01*
X191424664Y-86578064D02*
X194777465Y-89930865D01*
X183369403Y-141823063D02*
X177476602Y-147715864D01*
X139414703Y-63057664D02*
X146653703Y-63057664D01*
X201965664Y-137962264D02*
X201965664Y-145658464D01*
X146364664Y-137708263D02*
X152257464Y-143601064D01*
X212314000Y-66578000D02*
X212318600Y-66573400D01*
X122539865Y-89099016D02*
X128432665Y-83206216D01*
X180016602Y-133593463D02*
X174138664Y-139471400D01*
X153653566Y-59918600D02*
X174426437Y-59918600D01*
X129550266Y-142229464D02*
X129550266Y-134533263D01*
X153143403Y-133847465D02*
X153121065Y-133847464D01*
X121574664Y-119655214D02*
X121574664Y-122436514D01*
X125689464Y-82088617D02*
X119796664Y-87981417D01*
X122539864Y-133847463D02*
X122539864Y-131123313D01*
X200594064Y-136590664D02*
X208290265Y-136590663D01*
X197836433Y-89129036D02*
X197836433Y-89132495D01*
X131912464Y-110701714D02*
X131912464Y-89378414D01*
X151708303Y-55107463D02*
X154569264Y-55107465D01*
X192602304Y-52364263D02*
X186709502Y-58257065D01*
X132963103Y-58536464D02*
X138855902Y-64429264D01*
X204454864Y-81269467D02*
X210347664Y-87162265D01*
X132547463Y-115197514D02*
X128319809Y-110969858D01*
X122539864Y-68956816D02*
X122539864Y-66232664D01*
X153124354Y-66239014D02*
X153153214Y-66239015D01*
X149438064Y-130164463D02*
X136709604Y-130164463D01*
X153138783Y-64294183D02*
X154010464Y-65165864D01*
X198282665Y-74284465D02*
X198282664Y-83784065D01*
X203337264Y-53050065D02*
X192881704Y-53050064D01*
X198801633Y-89129035D02*
X198801633Y-89132494D01*
X199222464Y-135219064D02*
X206918664Y-135219063D01*
X153731065Y-65851663D02*
X174330464Y-65851663D01*
X130921864Y-140857864D02*
X130921864Y-133161664D01*
X196225264Y-73446265D02*
X196225265Y-84622265D01*
X191424664Y-113502465D02*
X191424664Y-125617863D01*
X123240800Y-110701261D02*
X123240800Y-89363279D01*
X205140664Y-80990066D02*
X205140664Y-77078466D01*
X139125664Y-136336664D02*
X133232863Y-142229464D01*
X202397464Y-124119664D02*
X202397464Y-117972864D01*
X206512264Y-122455964D02*
X206512264Y-119649265D01*
X198206464Y-110352464D02*
X198803564Y-110949564D01*
X197829327Y-110958602D02*
X194167864Y-114620065D01*
X203359203Y-67604264D02*
X203359203Y-68242727D01*
X195793463Y-131790064D02*
X195793465Y-139311926D01*
X116367664Y-60060464D02*
X124063864Y-60060464D01*
X192796266Y-86019264D02*
X196149064Y-89372064D01*
X134874454Y-55621814D02*
X134360102Y-55107462D01*
X204739729Y-59380128D02*
X204699939Y-59340339D01*
X127319970Y-89144909D02*
X131861664Y-84603215D01*
X153374166Y-59232800D02*
X174705838Y-59232800D01*
X126375266Y-75687814D02*
X126375264Y-82368016D01*
X187001602Y-141137263D02*
X192894403Y-147030063D01*
X145247064Y-140451464D02*
X140802065Y-140451464D01*
X137348064Y-86838416D02*
X137348064Y-75148064D01*
X117739264Y-129167513D02*
X117899458Y-129007319D01*
X201279864Y-62803663D02*
X208874464Y-62803663D01*
X121854065Y-89473662D02*
X121854064Y-89473663D01*
X133233264Y-127186314D02*
X133233264Y-114918113D01*
X152267105Y-56479063D02*
X146374303Y-62371863D01*
X188935464Y-75148064D02*
X190053064Y-75148064D01*
X197520664Y-89448264D02*
X197520664Y-110635325D01*
X126781665Y-62803663D02*
X119110866Y-62803663D01*
X191424664Y-125617863D02*
X189646664Y-125617863D01*
X124768713Y-131790064D02*
X130490065Y-126068713D01*
X121168265Y-111539913D02*
X121168266Y-89753063D01*
X181413602Y-137022463D02*
X188678001Y-137022464D01*
X194088203Y-71719064D02*
X193482064Y-72325203D01*
X125689464Y-124112913D02*
X119796664Y-130005713D01*
X132674065Y-140857863D02*
X130921864Y-140857864D01*
X125003664Y-81809215D02*
X125003664Y-76246614D01*
X134080703Y-55793264D02*
X139973503Y-61686064D01*
X119110866Y-62803663D02*
X119110865Y-70353816D01*
X174962002Y-132856864D02*
X153095665Y-132856864D01*
X195107664Y-68975863D02*
X200695667Y-68975862D01*
X154569264Y-55107465D02*
X173492264Y-55107464D01*
X176930501Y-53735864D02*
X182823302Y-59628664D01*
X197165064Y-133161664D02*
X197165064Y-140857863D01*
X125003664Y-123833514D02*
X125003664Y-118270914D01*
X208874464Y-70449067D02*
X208453635Y-70869896D01*
X198358463Y-129732663D02*
X193736063Y-129732664D01*
X133919064Y-127443204D02*
X133919064Y-114638713D01*
X133284064Y-89937215D02*
X136662265Y-86559015D01*
X175800202Y-143601064D02*
X181693002Y-137708263D01*
X125435464Y-61432065D02*
X117739264Y-61432064D01*
X138566864Y-134965065D02*
X132674065Y-140857863D01*
X205826464Y-122722664D02*
X211719264Y-128615464D01*
X194012002Y-144286865D02*
X200594064Y-144286864D01*
X173859266Y-138785600D02*
X154198401Y-138785600D01*
X204073865Y-66918463D02*
X204073866Y-68493264D01*
X195793465Y-68290063D02*
X202346666Y-68290063D01*
X153105304Y-67223263D02*
X174974702Y-67223263D01*
X175533500Y-57164863D02*
X181426302Y-63057664D01*
X135719003Y-131129664D02*
X135719003Y-131009588D01*
X181134202Y-136336664D02*
X175241403Y-142229463D01*
X129250372Y-89144908D02*
X133233264Y-85162016D01*
X145536103Y-60314464D02*
X151428904Y-54421664D01*
X135290664Y-114079914D02*
X131912464Y-110701714D01*
X192615002Y-147715864D02*
X186722203Y-141823063D01*
X122946264Y-80971016D02*
X117053465Y-86863815D01*
X198536664Y-57850663D02*
X198536664Y-65546863D01*
X130215572Y-89148371D02*
X130215572Y-89144908D01*
X150006504Y-71287263D02*
X153384703Y-67909064D01*
X119796664Y-130005713D02*
X119796665Y-136590664D01*
X194091665Y-109870265D02*
X190738865Y-113223065D01*
X205140664Y-77078466D02*
X210931864Y-71287265D01*
X194570802Y-142915264D02*
X199222464Y-142915263D01*
X124063866Y-52364263D02*
X135477704Y-52364263D01*
X174925633Y-136754033D02*
X173771664Y-135600064D01*
X201965665Y-62117863D02*
X209560265Y-62117863D01*
X129118464Y-116578925D02*
X123240800Y-110701261D01*
X117739265Y-138648064D02*
X117739264Y-129167513D01*
X127061064Y-75408416D02*
X127061064Y-82647416D01*
X128178664Y-64175264D02*
X120482464Y-64175264D01*
X136408264Y-72404864D02*
X136408264Y-70601463D01*
X149996864Y-128792865D02*
X137094064Y-128792864D01*
X176651101Y-54421664D02*
X182543903Y-60314465D01*
X174931983Y-64284946D02*
X179191102Y-68544065D01*
X201025864Y-124678465D02*
X201025864Y-117414064D01*
X128432665Y-116873913D02*
X122539864Y-110981112D01*
X133665065Y-64064426D02*
X137458903Y-67858264D01*
X198536664Y-142229464D02*
X194850202Y-142229462D01*
X148599864Y-132221864D02*
X137449264Y-132221864D01*
X174863863Y-58561864D02*
X175000101Y-58561864D01*
X202662433Y-89129035D02*
X202662433Y-89129033D01*
X154222904Y-69966464D02*
X173857101Y-69966464D01*
X148879264Y-131536063D02*
X137169864Y-131536064D01*
X173771664Y-64480063D02*
X174931982Y-63319745D01*
X208976064Y-129733064D02*
X203083265Y-123840265D01*
X150581064Y-147715864D02*
X144688264Y-141823063D01*
X199222464Y-57164865D02*
X199222464Y-64861063D01*
X199908264Y-56479064D02*
X194278703Y-56479064D01*
X199578064Y-90286463D02*
X199578064Y-109793664D01*
X127746864Y-82926815D02*
X121854065Y-88819615D01*
X206232865Y-89422864D02*
X206232865Y-110657264D01*
X174925632Y-134823632D02*
X174330464Y-134228464D01*
X173492264Y-55107464D02*
X176371702Y-55107465D01*
X187547703Y-60314464D02*
X193440503Y-54421663D01*
X146923464Y-136336664D02*
X139125664Y-136336664D01*
X205140665Y-119090464D02*
X211033464Y-113197664D01*
X120680758Y-69993309D02*
X120482464Y-69795016D01*
X132547465Y-84882615D02*
X132547465Y-73173215D01*
X121574664Y-122436514D02*
X115680067Y-128331111D01*
X195742667Y-71033264D02*
X194167865Y-72608066D01*
X133521903Y-57164864D02*
X139414703Y-63057664D01*
X133919064Y-114638713D02*
X130258003Y-110977652D01*
X123632064Y-123274714D02*
X123632064Y-118829713D01*
X130258002Y-110962064D02*
X130540865Y-110679202D01*
X140811704Y-59628663D02*
X145256703Y-59628663D01*
X196911064Y-73725665D02*
X196911065Y-84342866D01*
X135198303Y-53050064D02*
X141091103Y-58942863D01*
X152816264Y-142229464D02*
X146923464Y-136336664D01*
X187281002Y-140451464D02*
X182810602Y-140451464D01*
X190062302Y-66486665D02*
X195793466Y-60755502D01*
X129804264Y-74290815D02*
X123933402Y-68419954D01*
X194850202Y-142229462D02*
X188957402Y-136336664D01*
X211617665Y-65267462D02*
X211617665Y-60060462D01*
X135722465Y-131006126D02*
X135722465Y-128361063D01*
X138465664Y-72658863D02*
X150565303Y-72658863D01*
X182251802Y-139079864D02*
X187839802Y-139079864D01*
X116367664Y-113495715D02*
X116367665Y-86584415D01*
X197850863Y-133847464D02*
X197850864Y-141543664D01*
X130921864Y-66918463D02*
X130921864Y-59222263D01*
X199908265Y-64175263D02*
X199908264Y-56479064D01*
X195793466Y-60755502D02*
X195793465Y-68290063D01*
X193482064Y-72325203D02*
X193482064Y-85739866D01*
X123632065Y-76805416D02*
X117962958Y-71136309D01*
X139135303Y-63743464D02*
X146933103Y-63743464D01*
X121328457Y-69675810D02*
X121168264Y-69515616D01*
X127319969Y-89148370D02*
X127319970Y-89144909D01*
X139684465Y-137708263D02*
X146364664Y-137708263D01*
X132598265Y-89657816D02*
X135976464Y-86279617D01*
X191192602Y-130850263D02*
X178899002Y-130850263D01*
X180308702Y-65800865D02*
X189782902Y-65800865D01*
X122260465Y-80691615D02*
X122260465Y-77364215D01*
X196834864Y-89092666D02*
X196834864Y-110987864D01*
X208290264Y-112080064D02*
X208290263Y-109819064D01*
X198803564Y-110949564D02*
X194853665Y-114899464D01*
X205826464Y-77357866D02*
X205826464Y-80710665D01*
X205723135Y-69739596D02*
X206131264Y-69331466D01*
X204165200Y-110413930D02*
X198282664Y-116296466D01*
X198801633Y-89132494D02*
X198206464Y-89727663D01*
X136890465Y-130850264D02*
X135036664Y-132704065D01*
X150300001Y-148399999D02*
X177757666Y-148399999D01*
X193050264Y-129046864D02*
X193050264Y-132707925D01*
X124768712Y-68290063D02*
X132293464Y-68290064D01*
X205445465Y-69052065D02*
X199654264Y-74843265D01*
X136709604Y-130164463D02*
X135744403Y-131129664D01*
X153153214Y-66239015D02*
X153451664Y-66537465D01*
X124063864Y-140019663D02*
X116367664Y-140019663D01*
X208188665Y-64835663D02*
X208188665Y-70169664D01*
X176638402Y-145658464D02*
X151419265Y-145658464D01*
X181985102Y-61686065D02*
X188106501Y-61686065D01*
X133969864Y-109863514D02*
X133969865Y-90216616D01*
X187839802Y-139079864D02*
X193732603Y-144972663D01*
X195078802Y-128361063D02*
X192364464Y-128361064D01*
X118425064Y-87422616D02*
X124317865Y-81529816D01*
X119796664Y-112098712D02*
X125689465Y-117991513D01*
X193050264Y-71033263D02*
X195742667Y-71033264D01*
X119110864Y-137276464D02*
X126807064Y-137276464D01*
X182264502Y-61000266D02*
X187827102Y-61000264D01*
X128178665Y-56479064D02*
X128178664Y-64175264D01*
X137779865Y-128107063D02*
X137779865Y-126303663D01*
X124427546Y-89151544D02*
X124427546Y-89141733D01*
X197596864Y-84063466D02*
X202662433Y-89129035D01*
X127061064Y-117432713D02*
X127061064Y-124671713D01*
X133052003Y-71719064D02*
X135722463Y-71719064D01*
X190992864Y-73090664D02*
X192110464Y-73090664D01*
X128070715Y-130418464D02*
X131861664Y-126627514D01*
X118425064Y-129446913D02*
X124317864Y-123554113D01*
X148050703Y-66486664D02*
X153932967Y-60604400D01*
X188398603Y-137708263D02*
X194291402Y-143601064D01*
X153106202Y-141554200D02*
X147202865Y-135650863D01*
X200594064Y-55793263D02*
X200594064Y-63489463D01*
X174123801Y-130799464D02*
X153933864Y-130799464D01*
X203359203Y-68242727D02*
X197596864Y-74005066D01*
X206232864Y-111241865D02*
X200340064Y-117134664D01*
X186430103Y-57571264D02*
X183661503Y-57571264D01*
X151428904Y-54421664D02*
X176651101Y-54421664D01*
X129721716Y-129732662D02*
X132547463Y-126906914D01*
X174931982Y-63319745D02*
X179470503Y-67858264D01*
X119969558Y-70247309D02*
X125689464Y-75967216D01*
X200733964Y-110949564D02*
X196225264Y-115458265D01*
X147771303Y-65800863D02*
X153653566Y-59918600D01*
X174925634Y-135788832D02*
X174051064Y-134914263D01*
X120680758Y-69993309D02*
X126375266Y-75687814D01*
X128432664Y-74849616D02*
X122539864Y-68956816D01*
X141360864Y-141823064D02*
X135468065Y-147715864D01*
X198968464Y-116575865D02*
X198968465Y-125516664D01*
X126807065Y-62778263D02*
X126781665Y-62803663D01*
X133791665Y-143601064D02*
X139684465Y-137708263D01*
X177476602Y-147715864D02*
X150581064Y-147715864D01*
X193732603Y-144972663D02*
X201279864Y-144972663D01*
X197850864Y-141543664D02*
X195129602Y-141543664D01*
X175520802Y-142915263D02*
X181413602Y-137022463D01*
X178911702Y-69229863D02*
X191205302Y-69229863D01*
X151149504Y-53735863D02*
X176930501Y-53735864D01*
X117053464Y-139333864D02*
X124749664Y-139333863D01*
X122260463Y-122715914D02*
X122260463Y-119388514D01*
X125298200Y-109878650D02*
X125298200Y-90201480D01*
X119110863Y-112378114D02*
X119110865Y-87702015D01*
X117739264Y-61432064D02*
X117739264Y-70912615D01*
X135722464Y-68975864D02*
X136061903Y-69315302D01*
X193405864Y-109565336D02*
X190042800Y-112928400D01*
X122946264Y-77084815D02*
X122946264Y-80971016D01*
X123933402Y-68419954D02*
X123933403Y-67604265D01*
X207502864Y-63489464D02*
X207502864Y-69890267D01*
X125689464Y-75967216D02*
X125689464Y-82088617D01*
X118425064Y-137962263D02*
X118425064Y-129446913D01*
X134360102Y-55107462D02*
X126807064Y-55107463D01*
X153932967Y-60604400D02*
X174147038Y-60604400D01*
X153375064Y-132171064D02*
X149996864Y-128792865D01*
X133001204Y-128361063D02*
X133919064Y-127443204D01*
X131175864Y-126348113D02*
X131175864Y-115756314D01*
X152257464Y-143601064D02*
X154010464Y-143601063D01*
X147212504Y-64429263D02*
X153105304Y-58536464D01*
X139151464Y-75148064D02*
X139151464Y-73344663D01*
X130490065Y-116035714D02*
X124612400Y-110158049D01*
X192333938Y-148399999D02*
X204699939Y-148399999D01*
X192364464Y-131075403D02*
X192361003Y-131078864D01*
X135477704Y-52364263D02*
X141370503Y-58257063D01*
X174609864Y-133542663D02*
X153451665Y-133542663D01*
X190925903Y-68544065D02*
X193736066Y-65733902D01*
X144688264Y-141823063D02*
X141360864Y-141823064D01*
X174705838Y-59232800D02*
X180588102Y-65115064D01*
X197165064Y-66918463D02*
X204073865Y-66918463D01*
X122539864Y-131123313D02*
X122700058Y-130963119D01*
X201279864Y-144972663D02*
X201279864Y-137276464D01*
X182810602Y-140451464D02*
X176917802Y-146344264D01*
X128483464Y-109841003D02*
X128483463Y-90311864D01*
X127354609Y-110969859D02*
X128483464Y-109841003D01*
X117053465Y-71192015D02*
X122946264Y-77084815D01*
X123455709Y-89148370D02*
X123802639Y-88801439D01*
X211617665Y-60060462D02*
X204023064Y-60060463D01*
X200340064Y-75122667D02*
X200340064Y-82945865D01*
X133801304Y-56479064D02*
X134391854Y-57069613D01*
X150555664Y-127421264D02*
X138465664Y-127421264D01*
X191678665Y-72404863D02*
X192796265Y-72404863D01*
X129804265Y-125789314D02*
X129804264Y-116299524D01*
X154010464Y-56479063D02*
X152267105Y-56479063D01*
X134163253Y-58771414D02*
X139135303Y-63743464D01*
X133233264Y-85162016D02*
X133233264Y-72893815D01*
X206131264Y-69331467D02*
X205723135Y-69739596D01*
X208874464Y-65115063D02*
X208874464Y-70449067D01*
X153731064Y-134228464D02*
X153133965Y-134825563D01*
X183661503Y-57571264D02*
X177770367Y-51680128D01*
X189621264Y-125643262D02*
X189621265Y-127421263D01*
X174330464Y-134228464D02*
X153731064Y-134228464D01*
X153639601Y-140157200D02*
X147761663Y-134279263D01*
X204146603Y-132475863D02*
X196479264Y-132475864D01*
X117739264Y-87143215D02*
X117739264Y-112936914D01*
X204073866Y-68493264D02*
X198282665Y-74284465D01*
X126807064Y-144972664D02*
X134350464Y-144972663D01*
X121168265Y-130564514D02*
X121168264Y-135219064D01*
X150590703Y-52364263D02*
X177489301Y-52364263D01*
X199766834Y-89132494D02*
X199766833Y-89129034D01*
X190341702Y-67172463D02*
X195107664Y-62406502D01*
X189795602Y-134279264D02*
X180296003Y-134279264D01*
X138846265Y-135650863D02*
X132953464Y-141543664D01*
X194167864Y-127450125D02*
X195078802Y-128361063D01*
X127061064Y-124671713D02*
X121168265Y-130564514D01*
X203083264Y-118252265D02*
X208976064Y-112359465D01*
X138008064Y-133593463D02*
X132293464Y-139308063D01*
X198282664Y-83784065D02*
X204165200Y-89666601D01*
X193736066Y-134358925D02*
X190913203Y-131536063D01*
X212400001Y-113761528D02*
X212400001Y-86319001D01*
X200340064Y-117134664D02*
X200340064Y-124957865D01*
X122946266Y-122995313D02*
X117053466Y-128888114D01*
X198536664Y-134533264D02*
X198536664Y-142229464D01*
X208976064Y-137276463D02*
X208976064Y-129733064D01*
X118425065Y-112657513D02*
X118425064Y-109234864D01*
X201279864Y-137276464D02*
X208976064Y-137276463D01*
X176092302Y-55793263D02*
X181985102Y-61686065D01*
X125435465Y-146344263D02*
X125435465Y-138648063D01*
X133284064Y-110142914D02*
X133284064Y-89937215D01*
X210931864Y-65953263D02*
X211617665Y-65267462D01*
X135722465Y-128361063D02*
X133001204Y-128361063D01*
X202397464Y-117972864D02*
X208290264Y-112080064D01*
X179737202Y-132907664D02*
X173859266Y-138785600D01*
X208453635Y-70869896D02*
X208874464Y-70449066D01*
X201025864Y-117414064D02*
X206918664Y-111521264D01*
X135188664Y-147030063D02*
X141081464Y-141137263D01*
X115680068Y-59380127D02*
X115680067Y-71749018D01*
X120482464Y-64175264D02*
X120482464Y-69795015D01*
X127492865Y-136590663D02*
X127492865Y-144286863D01*
X205826464Y-119369865D02*
X205826464Y-122722664D01*
X193050264Y-132707925D02*
X191192602Y-130850263D01*
X121854064Y-130843914D02*
X122065059Y-130632920D01*
X127746864Y-124951114D02*
X122065059Y-130632920D01*
X202397464Y-75960866D02*
X207742434Y-70615895D01*
X131175864Y-84323815D02*
X131175864Y-73732016D01*
X132979264Y-68975863D02*
X132979264Y-62413423D01*
X117899458Y-129007319D02*
X123632064Y-123274714D01*
X178352902Y-70601464D02*
X190671902Y-70601465D01*
X120482464Y-88260814D02*
X120482464Y-111819313D01*
X174949300Y-66232664D02*
X178632302Y-69915665D01*
X127492865Y-55793263D02*
X134080703Y-55793264D01*
X199766833Y-89132495D02*
X198892265Y-90007063D01*
X178340203Y-129478663D02*
X174962002Y-132856864D01*
X204146603Y-131660004D02*
X204146603Y-132475863D01*
X151419265Y-145658464D02*
X145526464Y-139765663D01*
X206512264Y-77637263D02*
X212149334Y-72000195D01*
X124427546Y-89141733D02*
X129804264Y-83765015D01*
X119796665Y-136590664D02*
X127492865Y-136590663D01*
X119969558Y-70247309D02*
X119796664Y-70074416D01*
X204699939Y-140700000D02*
X212400000Y-140700000D01*
X120482464Y-69795015D02*
X120680758Y-69993309D01*
X126419713Y-131104264D02*
X131175864Y-126348113D01*
X133242503Y-57850663D02*
X134163253Y-58771414D01*
X148330103Y-67172463D02*
X154212366Y-61290200D01*
X177502002Y-127421263D02*
X174123801Y-130799464D01*
X135976465Y-113800513D02*
X132598266Y-110422314D01*
X153295804Y-133695064D02*
X153143403Y-133847465D01*
X203337264Y-139333864D02*
X211033464Y-139333863D01*
X152825903Y-57850663D02*
X175254103Y-57850664D01*
X123225664Y-131402715D02*
X123373159Y-131255220D01*
X126375264Y-117712115D02*
X126375265Y-124392313D01*
X189621265Y-74462263D02*
X190738865Y-74462263D01*
X205723135Y-69739596D02*
X200340064Y-75122667D01*
X211719264Y-113477065D02*
X205826464Y-119369865D01*
X135036664Y-132704065D02*
X135036664Y-129046864D01*
X201025866Y-82666465D02*
X201025865Y-75402065D01*
X129550264Y-65546865D02*
X121854064Y-65546864D01*
X123380067Y-51680128D02*
X123380068Y-59380128D01*
X207604464Y-111800664D02*
X207604465Y-88279866D01*
X140252903Y-61000263D02*
X145815504Y-61000263D01*
X211033464Y-86882866D02*
X205140664Y-80990066D01*
X119969558Y-70247309D02*
X119796664Y-70074415D01*
X190992864Y-128792864D02*
X178060802Y-128792864D01*
X134391854Y-57069613D02*
X133801305Y-56479064D01*
X204454864Y-76799065D02*
X210246065Y-71007864D01*
X135290664Y-86000215D02*
X135290664Y-73090664D01*
X194421864Y-69661663D02*
X199044666Y-69661664D01*
X190992864Y-126989464D02*
X190992864Y-128792864D01*
X204851000Y-110693329D02*
X198968464Y-116575865D01*
X193999304Y-55793263D02*
X200594064Y-55793263D01*
X192361003Y-131078864D02*
X191446601Y-130164462D01*
X128864464Y-135219064D02*
X128864464Y-142915264D01*
X196479264Y-67604263D02*
X203359203Y-67604264D01*
X135036664Y-129046864D02*
X131372714Y-129046864D01*
X200009462Y-130418463D02*
X194421864Y-130418464D01*
X123380068Y-59380128D02*
X115680068Y-59380127D01*
X150565303Y-72658863D02*
X153943503Y-69280663D01*
X179470503Y-67858264D02*
X190646502Y-67858265D01*
X210246064Y-65673864D02*
X210931864Y-64988063D01*
X205547065Y-110962465D02*
X199654264Y-116855265D01*
X139151464Y-73344663D02*
X150844703Y-73344664D01*
X134639503Y-54421664D02*
X140532303Y-60314464D01*
X177794102Y-71973065D02*
X190307064Y-71973064D01*
X141649903Y-57571262D02*
X135758767Y-51680128D01*
X154010465Y-56479064D02*
X154010464Y-56479063D01*
X187268302Y-59628664D02*
X182823302Y-59628664D01*
X136658803Y-69915664D02*
X149447703Y-69915664D01*
X130236064Y-66232664D02*
X130236065Y-58536464D01*
X211719264Y-86603465D02*
X211719264Y-113477065D01*
X209560264Y-70728465D02*
X209560265Y-65394463D01*
X202651464Y-53735863D02*
X193161103Y-53735863D01*
X190307064Y-71973064D02*
X190307064Y-73776463D01*
X134604866Y-114359314D02*
X131226664Y-110981113D01*
X188119202Y-138394064D02*
X194012002Y-144286865D01*
X206232865Y-110657264D02*
X206232864Y-110657264D01*
X211617665Y-66232663D02*
X212303464Y-65546864D01*
X209215634Y-71073095D02*
X209560264Y-70728465D01*
X204699939Y-148399999D02*
X204699939Y-140700000D01*
X208290264Y-130012465D02*
X202397464Y-124119664D01*
X136408264Y-70601463D02*
X149727103Y-70601464D01*
X206817064Y-69610865D02*
X206817064Y-64175264D01*
X192321239Y-51680129D02*
X186430103Y-57571264D01*
X190738865Y-124932064D02*
X188935464Y-124932064D01*
X174682602Y-132171064D02*
X153375064Y-132171064D01*
X201660464Y-131104263D02*
X195107664Y-131104264D01*
X188944702Y-63743465D02*
X194837504Y-57850663D01*
X153654464Y-131485263D02*
X150276265Y-128107063D01*
X195539464Y-115178865D02*
X195539464Y-126913664D01*
X136662263Y-125617864D02*
X136662263Y-113521114D01*
X126419711Y-68975863D02*
X132979264Y-68975863D01*
X149168304Y-69229863D02*
X153138784Y-65259383D01*
X150285904Y-71973064D02*
X153664103Y-68594864D01*
X117053465Y-71192015D02*
X117053466Y-60746263D01*
X128864464Y-57164863D02*
X133521903Y-57164864D01*
X198282664Y-116296466D02*
X198282664Y-125796065D01*
X137779865Y-126303663D02*
X135976464Y-126303663D01*
X174418067Y-140157200D02*
X153639601Y-140157200D01*
X177757666Y-148399999D02*
X183648802Y-142508864D01*
X206232865Y-134533263D02*
X198536664Y-134533264D01*
X130540865Y-110679202D02*
X130540865Y-89473665D01*
X121574665Y-77643614D02*
X121574664Y-80424914D01*
X137094064Y-128792864D02*
X137094064Y-126989464D01*
X190075002Y-133593463D02*
X180016602Y-133593463D01*
X179749901Y-67172465D02*
X190341702Y-67172463D01*
X183090002Y-141137263D02*
X187001602Y-141137263D01*
X209661864Y-112638865D02*
X203769064Y-118531664D01*
X208290264Y-88000466D02*
X202397464Y-82107666D01*
X189621263Y-72658864D02*
X189621265Y-74462263D01*
X198206464Y-89727663D02*
X198206464Y-110352464D01*
X178899002Y-130850263D02*
X174925632Y-134823632D01*
X210347663Y-112918263D02*
X210347665Y-112918264D01*
X209215634Y-71073095D02*
X203769064Y-76519665D01*
X115680067Y-140700000D02*
X123380067Y-140700000D01*
X193173802Y-146344264D02*
X187281002Y-140451464D01*
X153451665Y-133542663D02*
X153299264Y-133695064D01*
X140532303Y-60314464D02*
X145536103Y-60314464D01*
X176359003Y-144972663D02*
X182251802Y-139079864D01*
X135036664Y-67366424D02*
X136900104Y-69229863D01*
X128432666Y-125230513D02*
X128432665Y-116873913D01*
X121168265Y-88540216D02*
X121168266Y-89753063D01*
X126375265Y-124392313D02*
X120482465Y-130285113D01*
X190042800Y-117830802D02*
X188438801Y-117830802D01*
X202397464Y-82107666D02*
X202397464Y-75960866D01*
X194167864Y-114620065D02*
X194167864Y-127450125D01*
X188935464Y-124932064D02*
X188935464Y-126735464D01*
X210931864Y-64988063D02*
X210931864Y-60746263D01*
X153451665Y-142229463D02*
X152816265Y-142229462D01*
X134918904Y-53735863D02*
X125435465Y-53735863D01*
X138017703Y-66486664D02*
X148050703Y-66486664D01*
X204023064Y-60060463D02*
X204023065Y-52364264D01*
X192796265Y-114061263D02*
X192796265Y-126989464D01*
X174403202Y-131485263D02*
X153654464Y-131485263D01*
X116367665Y-71471416D02*
X116367664Y-60060464D01*
X130236064Y-133847463D02*
X122539864Y-133847463D01*
X199222464Y-142915263D02*
X199222464Y-135219064D01*
X206817064Y-64175264D02*
X199908265Y-64175263D01*
X121854065Y-88819615D02*
X121854065Y-89473662D01*
X131372714Y-129046864D02*
X133233264Y-127186314D01*
X124063865Y-147715864D02*
X124063864Y-140019663D01*
X206918664Y-111521264D02*
X206918664Y-88559265D01*
X153138783Y-63328983D02*
X154289863Y-64480063D01*
X205547064Y-89118065D02*
X205547065Y-110962465D01*
X131861664Y-115476914D02*
X127354609Y-110969859D01*
X123926600Y-89652490D02*
X124427546Y-89151544D01*
X151978066Y-144286864D02*
X176079601Y-144286864D01*
X149717464Y-129478663D02*
X136408264Y-129478664D01*
X139151464Y-126735464D02*
X139151464Y-124932064D01*
X133919064Y-85441416D02*
X133919064Y-72586125D01*
X182531203Y-139765663D02*
X176638402Y-145658464D01*
X154010464Y-134914263D02*
X153133964Y-135790763D01*
X129291359Y-110976208D02*
X129855064Y-110412503D01*
X119796664Y-87981417D02*
X119796664Y-112098712D01*
X193453202Y-145658463D02*
X187560403Y-139765663D01*
X212400000Y-128343700D02*
X206512264Y-122455964D01*
X202651464Y-146344264D02*
X193173802Y-146344264D01*
X180588102Y-65115064D02*
X189503502Y-65115066D01*
X138465664Y-127421264D02*
X138465664Y-125617863D01*
X140522664Y-139765663D02*
X134629864Y-145658464D01*
X196911065Y-115737665D02*
X196911065Y-126354864D01*
X136662263Y-113521114D02*
X133284064Y-110142914D01*
X134163253Y-58771414D02*
X133242502Y-57850663D01*
X144697903Y-58257063D02*
X150590703Y-52364263D01*
X211247634Y-71936695D02*
X211617665Y-71566664D01*
X199654264Y-74843265D02*
X199654264Y-83225265D01*
X198282664Y-125796065D02*
X204146603Y-131660004D01*
X212303464Y-71846065D02*
X212149334Y-72000195D01*
X197596864Y-74005066D02*
X197596864Y-84063466D01*
X175000101Y-58561864D02*
X180867502Y-64429265D01*
X152536864Y-142915263D02*
X175520802Y-142915263D01*
X153105304Y-58536464D02*
X174838463Y-58536464D01*
X186709502Y-58257065D02*
X183382102Y-58257065D01*
X134909264Y-146344264D02*
X125435465Y-146344263D01*
X190646502Y-67858265D02*
X194421864Y-64082903D01*
X190307064Y-128107062D02*
X177781402Y-128107063D01*
X126807064Y-55107463D02*
X126807065Y-62778263D01*
X204759664Y-66232664D02*
X204759664Y-68772667D01*
X123984203Y-131609374D02*
X123984204Y-132475863D01*
X153360201Y-140843000D02*
X147482264Y-134965064D01*
X121854064Y-65546864D02*
X121854064Y-69236215D01*
X181426302Y-63057664D02*
X188665302Y-63057664D01*
X206232866Y-89422863D02*
X206232865Y-89422864D01*
X119283758Y-70526709D02*
X119110865Y-70353815D01*
X201279864Y-55107465D02*
X201279864Y-62803663D01*
X212400000Y-140700000D02*
X212400000Y-128343700D01*
X189782902Y-65800865D02*
X195650303Y-59933464D01*
X195793465Y-139311926D02*
X190075002Y-133593463D01*
X195463264Y-110429064D02*
X192110464Y-113781864D01*
X129855064Y-89753063D02*
X129250372Y-89148371D01*
X186988901Y-58942865D02*
X183102702Y-58942863D01*
X174974702Y-67223263D02*
X178352902Y-70601464D01*
X115680067Y-86319511D02*
X115680067Y-113760617D01*
X146933103Y-63743464D02*
X152825903Y-57850663D01*
X124317864Y-123554113D02*
X124317866Y-118550314D01*
X188957402Y-136336664D02*
X181134202Y-136336664D01*
X135749128Y-148399999D02*
X141640264Y-142508864D01*
X138287464Y-134279264D02*
X132394664Y-140172064D01*
X186442803Y-142508864D02*
X192333938Y-148399999D01*
X212303464Y-65546864D02*
X212303465Y-59380128D01*
X122260463Y-119388514D02*
X116367664Y-113495715D01*
X194421864Y-130418464D02*
X194421864Y-136009925D01*
X200732033Y-89132494D02*
X199578064Y-90286463D01*
X195129602Y-141543664D02*
X189236802Y-135650864D01*
X196834864Y-110987864D02*
X193482064Y-114340664D01*
X128285172Y-89148371D02*
X128285172Y-89144908D01*
X117739264Y-70912615D02*
X117962958Y-71136309D01*
X133969865Y-90216616D02*
X137348064Y-86838416D01*
X127746864Y-75129016D02*
X127746864Y-82926815D01*
X206918664Y-130571265D02*
X201025864Y-124678465D01*
X133512265Y-142915263D02*
X139405064Y-137022463D01*
X193482064Y-127675263D02*
X191678663Y-127675264D01*
X193482064Y-114340664D02*
X193482064Y-127675263D01*
X126121265Y-145658464D02*
X126121264Y-137962263D01*
X201965664Y-145658464D02*
X193453202Y-145658463D01*
X123802639Y-88801439D02*
X129118464Y-83485614D01*
X187560403Y-139765663D02*
X182531203Y-139765663D01*
X204592833Y-89132495D02*
X204592833Y-89129033D01*
X137179503Y-68544063D02*
X148888903Y-68544063D01*
X180029302Y-66486665D02*
X190062302Y-66486665D01*
X195539464Y-73166866D02*
X195539464Y-84901665D01*
X145526464Y-139765663D02*
X140522664Y-139765663D01*
X204861265Y-131409464D02*
X204861264Y-133161663D01*
X206232864Y-110657264D02*
X206232864Y-111241865D01*
X212400001Y-86319001D02*
X206512265Y-80431265D01*
X194091664Y-90210265D02*
X194091665Y-109870265D01*
X126807064Y-137276464D02*
X126807064Y-144972664D01*
X196479264Y-59933464D02*
X196479264Y-67604263D01*
X130921864Y-133161664D02*
X123225664Y-133161664D01*
X177235303Y-73344663D02*
X187928702Y-73344664D01*
X179191102Y-68544065D02*
X190925903Y-68544065D01*
X134604865Y-85720815D02*
X134604865Y-72404863D01*
X179178401Y-131536064D02*
X174925634Y-135788832D01*
X135290664Y-73090664D02*
X137094064Y-73090664D01*
X124317865Y-76526015D02*
X118425064Y-70633214D01*
X176079601Y-144286864D02*
X181972402Y-138394063D01*
X210347665Y-112918264D02*
X204454864Y-118811064D01*
X132979264Y-62413423D02*
X137738304Y-67172463D01*
X121168266Y-64861063D02*
X128864464Y-64861063D01*
X177209902Y-53050064D02*
X183102702Y-58942863D01*
X153664103Y-68594864D02*
X174415901Y-68594864D01*
X147761663Y-134279263D02*
X138287464Y-134279264D01*
X192361003Y-69102864D02*
X192364464Y-69106325D01*
X204165200Y-89666601D02*
X204165200Y-110413930D01*
X209215634Y-71073095D02*
X209560264Y-70728466D01*
X207742434Y-70615895D02*
X208188665Y-70169665D01*
X193719903Y-55107464D02*
X201279864Y-55107465D01*
X123380067Y-140700000D02*
X123380068Y-148399999D01*
X115680067Y-113760617D02*
X121574664Y-119655214D01*
X134360103Y-55107463D02*
X134874454Y-55621814D01*
X204592833Y-89132495D02*
X204851000Y-89390662D01*
X148320465Y-132907664D02*
X137728664Y-132907662D01*
X210246065Y-64708664D02*
X210246064Y-61432063D01*
X210931864Y-71287265D02*
X210931864Y-65953263D01*
X194167865Y-72608066D02*
X194167864Y-85460467D01*
X195396304Y-59222263D02*
X197165064Y-59222263D01*
X147491903Y-65115063D02*
X153374166Y-59232800D01*
X132547465Y-73173215D02*
X129721713Y-70347463D01*
X190738865Y-113223065D02*
X190738865Y-124932064D01*
X121574664Y-80424914D02*
X115680067Y-86319511D01*
X124749664Y-53050063D02*
X135198303Y-53050064D01*
X205140665Y-123002064D02*
X205140665Y-119090464D01*
X141640264Y-142508864D02*
X144408864Y-142508864D01*
X195116903Y-58536464D02*
X197850864Y-58536464D01*
X141091103Y-58942863D02*
X144977304Y-58942863D01*
X201711664Y-124399064D02*
X201711664Y-117693465D01*
X116367664Y-128608713D02*
X122260463Y-122715914D01*
X121168264Y-135219064D02*
X128864464Y-135219064D01*
X133233264Y-114918113D02*
X129291359Y-110976208D01*
X210246065Y-71007864D02*
X210246064Y-65673864D01*
X152816265Y-142229462D02*
X152816264Y-142229464D01*
X139151464Y-124932064D02*
X137348064Y-124932064D01*
X211617665Y-71566664D02*
X211617665Y-66232663D01*
X150860464Y-147030063D02*
X177197203Y-147030063D01*
X190738865Y-74462263D02*
X190738866Y-86857465D01*
X132429703Y-59933464D02*
X138297103Y-65800864D01*
X129118464Y-125509914D02*
X129118464Y-116578925D01*
X148041065Y-133593463D02*
X138008064Y-133593463D01*
X125003664Y-118270914D02*
X119110863Y-112378114D01*
X130236065Y-58536464D02*
X132963103Y-58536464D01*
X153933864Y-130799464D02*
X150555664Y-127421264D01*
X119110863Y-129726314D02*
X119296459Y-129540720D01*
X131861664Y-126627514D02*
X131861664Y-115476914D01*
X206918664Y-135219063D02*
X206918664Y-130571265D01*
X153133964Y-135790763D02*
X148879264Y-131536063D01*
X174695301Y-67909064D02*
X178073502Y-71287266D01*
X129721713Y-70347463D02*
X134350864Y-70347464D01*
X127746864Y-117153314D02*
X127746864Y-124951114D01*
X206131265Y-64861063D02*
X206131264Y-69331467D01*
X118425064Y-87422616D02*
X118425065Y-90870664D01*
X210347665Y-129174265D02*
X210347665Y-138648063D01*
X137094064Y-73090664D02*
X137094064Y-71287263D01*
X202346666Y-68290063D02*
X196911064Y-73725665D01*
X122539864Y-131123315D02*
X122700058Y-130963119D01*
X204415035Y-69117296D02*
X204759664Y-68772666D01*
X190738866Y-86857465D02*
X194091664Y-90210265D01*
X204592833Y-89129033D02*
X198968465Y-83504665D01*
X202793600Y-109855130D02*
X196911065Y-115737665D01*
X123225665Y-131402713D02*
X123373159Y-131255220D01*
X138465664Y-125617863D02*
X136662263Y-125617864D01*
X150309640Y-51680127D02*
X144418504Y-57571263D01*
X125689465Y-117991513D02*
X125689464Y-124112913D01*
X121854064Y-134533263D02*
X121854064Y-130843915D01*
X146653703Y-63057664D02*
X152546503Y-57164864D01*
X197165064Y-140857863D02*
X195409002Y-140857863D01*
X173771664Y-135600064D02*
X154289865Y-135600063D01*
X201697233Y-89132495D02*
X202793600Y-90228862D01*
X174426437Y-59918600D02*
X180308702Y-65800865D01*
X135976464Y-86279617D02*
X135976464Y-73776464D01*
X136662265Y-86559015D02*
X136662265Y-74462263D01*
X204023065Y-52364264D02*
X192602304Y-52364263D01*
X129169264Y-110120403D02*
X129169264Y-90032463D01*
X210347664Y-87162265D02*
X210347663Y-112918263D01*
X193161103Y-53735863D02*
X187268302Y-59628664D01*
X174415901Y-68594864D02*
X177794102Y-71973065D01*
X210931864Y-60746263D02*
X203337265Y-60746263D01*
X204454864Y-123281464D02*
X210347665Y-129174265D01*
X123632064Y-81250416D02*
X123632065Y-76805416D01*
X209560265Y-62117863D02*
X209560264Y-64429265D01*
X207604464Y-130291864D02*
X201711664Y-124399064D01*
X116367664Y-140019663D02*
X116367664Y-128608713D01*
X204699939Y-51680128D02*
X192321239Y-51680129D01*
X189621265Y-127421263D02*
X177502002Y-127421263D01*
X153095665Y-132856864D02*
X149717464Y-129478663D01*
X205445464Y-65546864D02*
X205445465Y-69052065D01*
X189236802Y-135650864D02*
X180854802Y-135650864D01*
X138465664Y-74462264D02*
X138465664Y-72658863D01*
X205547064Y-133847463D02*
X197850863Y-133847464D01*
X124063864Y-60060464D02*
X124063866Y-52364263D01*
X191205302Y-69229863D02*
X193050264Y-67384902D01*
X154198401Y-138785600D02*
X148320465Y-132907664D01*
X135318954Y-54135913D02*
X140811704Y-59628663D01*
X130490065Y-74011416D02*
X124768712Y-68290063D01*
X208188665Y-70169664D02*
X207742434Y-70615895D01*
X134350864Y-65715424D02*
X137179503Y-68544063D01*
X134350864Y-129732663D02*
X129721716Y-129732662D01*
X202793600Y-90228862D02*
X202793600Y-109855130D01*
X124612400Y-89922080D02*
X130490064Y-84044416D01*
X196225265Y-84622265D02*
X200732033Y-89129033D01*
X122946264Y-119109113D02*
X122946266Y-122995313D01*
X211033464Y-128894865D02*
X205140665Y-123002064D01*
X149727103Y-70601464D02*
X153105304Y-67223263D01*
X132683704Y-59222263D02*
X138576504Y-65115063D01*
X175241403Y-142229463D02*
X153451665Y-142229463D01*
X136061903Y-69318764D02*
X136658803Y-69915664D01*
X192110464Y-126303663D02*
X190307064Y-126303664D01*
X135290664Y-126989464D02*
X135290664Y-114079914D01*
X205826464Y-80710665D02*
X211719264Y-86603465D01*
X190992864Y-71287263D02*
X190992864Y-73090664D01*
%TD*%
%TA.AperFunction,Conductor*%
%TO.N,3V3_P*%
G36*
X192953685Y-107019213D02*
G01*
X192990230Y-107069513D01*
X192995154Y-107100600D01*
X192995154Y-109353544D01*
X192975941Y-109412675D01*
X192965689Y-109424679D01*
X189714148Y-112676220D01*
X189660079Y-112769870D01*
X189660077Y-112769875D01*
X189632090Y-112874323D01*
X189632090Y-117319492D01*
X189612877Y-117378623D01*
X189562577Y-117415168D01*
X189531490Y-117420092D01*
X188896651Y-117420092D01*
X188837520Y-117400879D01*
X188825516Y-117390627D01*
X188797815Y-117362926D01*
X188797816Y-117362926D01*
X188664490Y-117285950D01*
X188664487Y-117285949D01*
X188624645Y-117275273D01*
X188515780Y-117246102D01*
X188515778Y-117246102D01*
X188361824Y-117246102D01*
X188361821Y-117246102D01*
X188213111Y-117285950D01*
X188079786Y-117362926D01*
X187970925Y-117471787D01*
X187893949Y-117605112D01*
X187854101Y-117753822D01*
X187854101Y-117907781D01*
X187893949Y-118056491D01*
X187970925Y-118189816D01*
X188079786Y-118298677D01*
X188079785Y-118298677D01*
X188213111Y-118375653D01*
X188213112Y-118375653D01*
X188213115Y-118375655D01*
X188361824Y-118415502D01*
X188361826Y-118415502D01*
X188515776Y-118415502D01*
X188515778Y-118415502D01*
X188664487Y-118375655D01*
X188797815Y-118298678D01*
X188825516Y-118270977D01*
X188880914Y-118242751D01*
X188896651Y-118241512D01*
X190096869Y-118241512D01*
X190096871Y-118241512D01*
X190201328Y-118213523D01*
X190201328Y-118213522D01*
X190201518Y-118213472D01*
X190263607Y-118216726D01*
X190311925Y-118255853D01*
X190328155Y-118310644D01*
X190328155Y-124420754D01*
X190308942Y-124479885D01*
X190258642Y-124516430D01*
X190227555Y-124521354D01*
X188881387Y-124521354D01*
X188776939Y-124549341D01*
X188776934Y-124549343D01*
X188683284Y-124603412D01*
X188683283Y-124603413D01*
X188683282Y-124603414D01*
X188606814Y-124679882D01*
X188606813Y-124679883D01*
X188606812Y-124679884D01*
X188552743Y-124773534D01*
X188552741Y-124773539D01*
X188524754Y-124877987D01*
X188524754Y-126224154D01*
X188505541Y-126283285D01*
X188455241Y-126319830D01*
X188424154Y-126324754D01*
X177168527Y-126324754D01*
X177064079Y-126352741D01*
X177064074Y-126352743D01*
X176970424Y-126406812D01*
X176970422Y-126406814D01*
X173703746Y-129673489D01*
X173648348Y-129701715D01*
X173632611Y-129702954D01*
X167031643Y-129702954D01*
X166972512Y-129683741D01*
X166935967Y-129633441D01*
X166935967Y-129571267D01*
X166960508Y-129531219D01*
X167006901Y-129484826D01*
X167073847Y-129368874D01*
X167086419Y-129321953D01*
X167108499Y-129239550D01*
X167108500Y-129239543D01*
X167108500Y-129105656D01*
X167108499Y-129105649D01*
X167073848Y-128976329D01*
X167073848Y-128976328D01*
X167073847Y-128976326D01*
X167006901Y-128860374D01*
X166990262Y-128843735D01*
X166962036Y-128788337D01*
X166971762Y-128726929D01*
X166990262Y-128701465D01*
X166993322Y-128698405D01*
X167006901Y-128684826D01*
X167073847Y-128568874D01*
X167108500Y-128439545D01*
X167108500Y-128305655D01*
X167108499Y-128305653D01*
X167108499Y-128305649D01*
X167073848Y-128176329D01*
X167073848Y-128176328D01*
X167006900Y-128060373D01*
X166990262Y-128043735D01*
X166962036Y-127988337D01*
X166971762Y-127926929D01*
X166990262Y-127901465D01*
X166991036Y-127900691D01*
X167006901Y-127884826D01*
X167073847Y-127768874D01*
X167108500Y-127639545D01*
X167108500Y-127505655D01*
X167108499Y-127505653D01*
X167108499Y-127505649D01*
X167073848Y-127376329D01*
X167073848Y-127376328D01*
X167006900Y-127260373D01*
X166990262Y-127243735D01*
X166962036Y-127188337D01*
X166971762Y-127126929D01*
X166990262Y-127101465D01*
X167006901Y-127084826D01*
X167073847Y-126968874D01*
X167108500Y-126839545D01*
X167108500Y-126705655D01*
X167108499Y-126705653D01*
X167108499Y-126705649D01*
X167073848Y-126576329D01*
X167073848Y-126576328D01*
X167039606Y-126517020D01*
X167006901Y-126460374D01*
X166990262Y-126443735D01*
X166962036Y-126388337D01*
X166971762Y-126326929D01*
X166990262Y-126301465D01*
X167006901Y-126284826D01*
X167073847Y-126168874D01*
X167108500Y-126039545D01*
X167108500Y-125905655D01*
X167108499Y-125905653D01*
X167108499Y-125905649D01*
X167073848Y-125776329D01*
X167073848Y-125776328D01*
X167047504Y-125730699D01*
X167006901Y-125660374D01*
X166912226Y-125565699D01*
X166800277Y-125501064D01*
X166796271Y-125498751D01*
X166666950Y-125464100D01*
X166666945Y-125464100D01*
X166533055Y-125464100D01*
X166533049Y-125464100D01*
X166403729Y-125498751D01*
X166403728Y-125498751D01*
X166287773Y-125565699D01*
X166271135Y-125582338D01*
X166215737Y-125610564D01*
X166154329Y-125600838D01*
X166128865Y-125582338D01*
X166112226Y-125565699D01*
X165996271Y-125498751D01*
X165866950Y-125464100D01*
X165866945Y-125464100D01*
X165733055Y-125464100D01*
X165733049Y-125464100D01*
X165597357Y-125500459D01*
X165596842Y-125498537D01*
X165543992Y-125502687D01*
X165490986Y-125470192D01*
X165467203Y-125412747D01*
X165473230Y-125374733D01*
X165472142Y-125374442D01*
X165508500Y-125238749D01*
X165508501Y-125238742D01*
X165508501Y-125104855D01*
X165508500Y-125104848D01*
X165473849Y-124975528D01*
X165473849Y-124975527D01*
X165456690Y-124945807D01*
X165406902Y-124859573D01*
X165389863Y-124842534D01*
X165361637Y-124787136D01*
X165371363Y-124725728D01*
X165389863Y-124700264D01*
X165406902Y-124683225D01*
X165473848Y-124567273D01*
X165497263Y-124479885D01*
X165508500Y-124437949D01*
X165508501Y-124437942D01*
X165508501Y-124304055D01*
X165508500Y-124304048D01*
X165473849Y-124174728D01*
X165473849Y-124174727D01*
X165406901Y-124058772D01*
X165389863Y-124041734D01*
X165361637Y-123986336D01*
X165371363Y-123924928D01*
X165389863Y-123899464D01*
X165406902Y-123882425D01*
X165473848Y-123766473D01*
X165508501Y-123637144D01*
X165508501Y-123503254D01*
X165508500Y-123503252D01*
X165508500Y-123503248D01*
X165473849Y-123373928D01*
X165473849Y-123373927D01*
X165473848Y-123373925D01*
X165406902Y-123257973D01*
X165389863Y-123240934D01*
X165361637Y-123185536D01*
X165371363Y-123124128D01*
X165378713Y-123111923D01*
X165383713Y-123104813D01*
X165400706Y-123087821D01*
X187854100Y-123087821D01*
X187854100Y-123241780D01*
X187893948Y-123390490D01*
X187970924Y-123523815D01*
X188079785Y-123632676D01*
X188079784Y-123632676D01*
X188213110Y-123709652D01*
X188213111Y-123709652D01*
X188213114Y-123709654D01*
X188361823Y-123749501D01*
X188361825Y-123749501D01*
X188515775Y-123749501D01*
X188515777Y-123749501D01*
X188664486Y-123709654D01*
X188797814Y-123632677D01*
X188906676Y-123523815D01*
X188983653Y-123390487D01*
X189023500Y-123241778D01*
X189023500Y-123087824D01*
X188983653Y-122939115D01*
X188969593Y-122914763D01*
X188946644Y-122875014D01*
X188906676Y-122805787D01*
X188797814Y-122696925D01*
X188797815Y-122696925D01*
X188664489Y-122619949D01*
X188664486Y-122619948D01*
X188624644Y-122609272D01*
X188515779Y-122580101D01*
X188515777Y-122580101D01*
X188361823Y-122580101D01*
X188361820Y-122580101D01*
X188213110Y-122619949D01*
X188079785Y-122696925D01*
X187970924Y-122805786D01*
X187893948Y-122939111D01*
X187854100Y-123087821D01*
X165400706Y-123087821D01*
X165406902Y-123081625D01*
X165473848Y-122965673D01*
X165487489Y-122914763D01*
X165508500Y-122836349D01*
X165508501Y-122836342D01*
X165508501Y-122702455D01*
X165508500Y-122702448D01*
X165473849Y-122573128D01*
X165473849Y-122573127D01*
X165473848Y-122573125D01*
X165406902Y-122457173D01*
X165389863Y-122440134D01*
X165361637Y-122384736D01*
X165371363Y-122323328D01*
X165389863Y-122297864D01*
X165391870Y-122295857D01*
X165406902Y-122280825D01*
X165473848Y-122164873D01*
X165479893Y-122142311D01*
X165508500Y-122035549D01*
X165508501Y-122035542D01*
X165508501Y-121901655D01*
X165508500Y-121901649D01*
X165490165Y-121833221D01*
X165493419Y-121771132D01*
X165532546Y-121722814D01*
X165561301Y-121710012D01*
X165566944Y-121708500D01*
X165566945Y-121708500D01*
X165696270Y-121673848D01*
X165696271Y-121673848D01*
X165696271Y-121673847D01*
X165696274Y-121673847D01*
X165812226Y-121606901D01*
X165906901Y-121512226D01*
X165973847Y-121396274D01*
X165986094Y-121350567D01*
X166008499Y-121266950D01*
X166008500Y-121266943D01*
X166008500Y-121133056D01*
X166008499Y-121133049D01*
X165973848Y-121003729D01*
X165973847Y-121003726D01*
X165973519Y-121003158D01*
X165973421Y-121002697D01*
X165971324Y-120997635D01*
X165972261Y-120997246D01*
X165960586Y-120942344D01*
X165985869Y-120885542D01*
X166010336Y-120865728D01*
X166018465Y-120861035D01*
X166112226Y-120806901D01*
X166206901Y-120712226D01*
X166273847Y-120596274D01*
X166284765Y-120555527D01*
X166308499Y-120466950D01*
X166308500Y-120466943D01*
X166308500Y-120333056D01*
X166308498Y-120333047D01*
X166305887Y-120323300D01*
X166300676Y-120303852D01*
X179116501Y-120303852D01*
X179116501Y-120437753D01*
X179151152Y-120567073D01*
X179151152Y-120567074D01*
X179218100Y-120683029D01*
X179253837Y-120718766D01*
X179282063Y-120774164D01*
X179272337Y-120835572D01*
X179253838Y-120861035D01*
X179218100Y-120896773D01*
X179151152Y-121012728D01*
X179151152Y-121012729D01*
X179116501Y-121142049D01*
X179116501Y-121275950D01*
X179151152Y-121405270D01*
X179151152Y-121405271D01*
X179181934Y-121458586D01*
X179218100Y-121521226D01*
X179312775Y-121615901D01*
X179419755Y-121677667D01*
X179428729Y-121682848D01*
X179558050Y-121717499D01*
X179558054Y-121717499D01*
X179558056Y-121717500D01*
X179558058Y-121717500D01*
X179691944Y-121717500D01*
X179691946Y-121717500D01*
X179691948Y-121717499D01*
X179691951Y-121717499D01*
X179821271Y-121682848D01*
X179821272Y-121682848D01*
X179821272Y-121682847D01*
X179821275Y-121682847D01*
X179937227Y-121615901D01*
X180031902Y-121521226D01*
X180098848Y-121405274D01*
X180111905Y-121356544D01*
X180133500Y-121275950D01*
X180133501Y-121275943D01*
X180133501Y-121142056D01*
X180133500Y-121142049D01*
X180098849Y-121012729D01*
X180098849Y-121012728D01*
X180093324Y-121003158D01*
X180031902Y-120896774D01*
X179996163Y-120861035D01*
X179967938Y-120805638D01*
X179977664Y-120744230D01*
X179996162Y-120718768D01*
X180031902Y-120683029D01*
X180098848Y-120567077D01*
X180104893Y-120544515D01*
X180133500Y-120437753D01*
X180133501Y-120437746D01*
X180133501Y-120430848D01*
X181656500Y-120430848D01*
X181656500Y-120564749D01*
X181691151Y-120694069D01*
X181691151Y-120694070D01*
X181725553Y-120753655D01*
X181758099Y-120810025D01*
X181852774Y-120904700D01*
X181927892Y-120948070D01*
X181968728Y-120971647D01*
X182098049Y-121006298D01*
X182098053Y-121006298D01*
X182098055Y-121006299D01*
X182098057Y-121006299D01*
X182231943Y-121006299D01*
X182231945Y-121006299D01*
X182231947Y-121006298D01*
X182231950Y-121006298D01*
X182361270Y-120971647D01*
X182361271Y-120971647D01*
X182361271Y-120971646D01*
X182361274Y-120971646D01*
X182395566Y-120951847D01*
X185161701Y-120951847D01*
X185161701Y-121085748D01*
X185196352Y-121215068D01*
X185196352Y-121215069D01*
X185231502Y-121275950D01*
X185263300Y-121331024D01*
X185357975Y-121425699D01*
X185417557Y-121460099D01*
X185473929Y-121492646D01*
X185603250Y-121527297D01*
X185603254Y-121527297D01*
X185603256Y-121527298D01*
X185603258Y-121527298D01*
X185737144Y-121527298D01*
X185737146Y-121527298D01*
X185737148Y-121527297D01*
X185737151Y-121527297D01*
X185866471Y-121492646D01*
X185866472Y-121492646D01*
X185866472Y-121492645D01*
X185866475Y-121492645D01*
X185982427Y-121425699D01*
X186077102Y-121331024D01*
X186144048Y-121215072D01*
X186173399Y-121105530D01*
X186178700Y-121085748D01*
X186178701Y-121085741D01*
X186178701Y-120951854D01*
X186178700Y-120951847D01*
X186144049Y-120822527D01*
X186144049Y-120822526D01*
X186141868Y-120818749D01*
X186077102Y-120706572D01*
X185982427Y-120611897D01*
X185955368Y-120596274D01*
X185866472Y-120544949D01*
X185737151Y-120510298D01*
X185737146Y-120510298D01*
X185603256Y-120510298D01*
X185603250Y-120510298D01*
X185473930Y-120544949D01*
X185473929Y-120544949D01*
X185357974Y-120611897D01*
X185263300Y-120706571D01*
X185196352Y-120822526D01*
X185196352Y-120822527D01*
X185161701Y-120951847D01*
X182395566Y-120951847D01*
X182477226Y-120904700D01*
X182571901Y-120810025D01*
X182638847Y-120694073D01*
X182653787Y-120638315D01*
X182673499Y-120564749D01*
X182673500Y-120564742D01*
X182673500Y-120430855D01*
X182673499Y-120430848D01*
X182638848Y-120301528D01*
X182638848Y-120301527D01*
X182623128Y-120274299D01*
X182571901Y-120185573D01*
X182477226Y-120090898D01*
X182433631Y-120065728D01*
X182361271Y-120023950D01*
X182231950Y-119989299D01*
X182231945Y-119989299D01*
X182098055Y-119989299D01*
X182098049Y-119989299D01*
X181968729Y-120023950D01*
X181968728Y-120023950D01*
X181852773Y-120090898D01*
X181758099Y-120185572D01*
X181691151Y-120301527D01*
X181691151Y-120301528D01*
X181656500Y-120430848D01*
X180133501Y-120430848D01*
X180133501Y-120303859D01*
X180133500Y-120303852D01*
X180098849Y-120174532D01*
X180098849Y-120174531D01*
X180097598Y-120172364D01*
X180031902Y-120058577D01*
X179937227Y-119963902D01*
X179925732Y-119957265D01*
X179821272Y-119896954D01*
X179691951Y-119862303D01*
X179691946Y-119862303D01*
X179558056Y-119862303D01*
X179558050Y-119862303D01*
X179428730Y-119896954D01*
X179428729Y-119896954D01*
X179312774Y-119963902D01*
X179218100Y-120058576D01*
X179151152Y-120174531D01*
X179151152Y-120174532D01*
X179116501Y-120303852D01*
X166300676Y-120303852D01*
X166273848Y-120203729D01*
X166273848Y-120203728D01*
X166273832Y-120203700D01*
X166206901Y-120087774D01*
X166112226Y-119993099D01*
X166010335Y-119934271D01*
X165968733Y-119888066D01*
X165962235Y-119826232D01*
X165971388Y-119802391D01*
X165971324Y-119802365D01*
X165972346Y-119799896D01*
X165973519Y-119796840D01*
X165973847Y-119796274D01*
X165996863Y-119710375D01*
X166008499Y-119666950D01*
X166008500Y-119666943D01*
X166008500Y-119533056D01*
X166008499Y-119533049D01*
X165973848Y-119403729D01*
X165973848Y-119403728D01*
X165965863Y-119389898D01*
X165906901Y-119287774D01*
X165812226Y-119193099D01*
X165709084Y-119133549D01*
X165696271Y-119126151D01*
X165578448Y-119094581D01*
X165526304Y-119060719D01*
X165504023Y-119002674D01*
X165507316Y-118971362D01*
X165508500Y-118966945D01*
X165508500Y-118833055D01*
X165508499Y-118833053D01*
X165508499Y-118833049D01*
X165473848Y-118703729D01*
X165473848Y-118703728D01*
X165406900Y-118587773D01*
X165312226Y-118493099D01*
X165196271Y-118426151D01*
X165066950Y-118391500D01*
X165066945Y-118391500D01*
X164933055Y-118391500D01*
X164933049Y-118391500D01*
X164803729Y-118426151D01*
X164803728Y-118426151D01*
X164687772Y-118493099D01*
X164661150Y-118519722D01*
X164605752Y-118547948D01*
X164544343Y-118538221D01*
X164500380Y-118494256D01*
X164492844Y-118474623D01*
X164473848Y-118403729D01*
X164473848Y-118403728D01*
X164454749Y-118370648D01*
X164406901Y-118287774D01*
X164312226Y-118193099D01*
X164253949Y-118159452D01*
X164196271Y-118126151D01*
X164066950Y-118091500D01*
X164066945Y-118091500D01*
X163933055Y-118091500D01*
X163933049Y-118091500D01*
X163803729Y-118126151D01*
X163803728Y-118126151D01*
X163687773Y-118193099D01*
X163593099Y-118287773D01*
X163526152Y-118403728D01*
X163507155Y-118474624D01*
X163473292Y-118526767D01*
X163415247Y-118549048D01*
X163355192Y-118532956D01*
X163338848Y-118519721D01*
X163312226Y-118493099D01*
X163196271Y-118426151D01*
X163066950Y-118391500D01*
X163066945Y-118391500D01*
X162933055Y-118391500D01*
X162933049Y-118391500D01*
X162803729Y-118426151D01*
X162803728Y-118426151D01*
X162687773Y-118493099D01*
X162593099Y-118587773D01*
X162526151Y-118703728D01*
X162526151Y-118703729D01*
X162491500Y-118833049D01*
X162491500Y-118966945D01*
X162492686Y-118971370D01*
X162489433Y-119033459D01*
X162450306Y-119081778D01*
X162421551Y-119094581D01*
X162303729Y-119126151D01*
X162303728Y-119126151D01*
X162187773Y-119193099D01*
X162093099Y-119287773D01*
X162026151Y-119403728D01*
X162026151Y-119403729D01*
X161991500Y-119533049D01*
X161991500Y-119666950D01*
X162026151Y-119796270D01*
X162026151Y-119796271D01*
X162026483Y-119796845D01*
X162026581Y-119797309D01*
X162028676Y-119802365D01*
X162027739Y-119802753D01*
X162039412Y-119857660D01*
X162014126Y-119914460D01*
X161989664Y-119934270D01*
X161887778Y-119993095D01*
X161887774Y-119993099D01*
X161793099Y-120087773D01*
X161726151Y-120203728D01*
X161726151Y-120203729D01*
X161691500Y-120333049D01*
X161691500Y-120466950D01*
X161726151Y-120596270D01*
X161726151Y-120596271D01*
X161782616Y-120694069D01*
X161793099Y-120712226D01*
X161887774Y-120806901D01*
X161981537Y-120861036D01*
X161989664Y-120865728D01*
X162031266Y-120911933D01*
X162037764Y-120973767D01*
X162028612Y-120997612D01*
X162028675Y-120997639D01*
X162027682Y-121000033D01*
X162026490Y-121003142D01*
X162026154Y-121003723D01*
X162026150Y-121003732D01*
X161991500Y-121133049D01*
X161991500Y-121266950D01*
X162026151Y-121396270D01*
X162026151Y-121396271D01*
X162067493Y-121467876D01*
X162093099Y-121512226D01*
X162187774Y-121606901D01*
X162273459Y-121656372D01*
X162303728Y-121673848D01*
X162438701Y-121710013D01*
X162490844Y-121743875D01*
X162513126Y-121801919D01*
X162509836Y-121833221D01*
X162491502Y-121901646D01*
X162491501Y-121901655D01*
X162491501Y-122035549D01*
X162526152Y-122164869D01*
X162526152Y-122164870D01*
X162593100Y-122280825D01*
X162610139Y-122297864D01*
X162638365Y-122353262D01*
X162628639Y-122414670D01*
X162610139Y-122440134D01*
X162593100Y-122457172D01*
X162526152Y-122573127D01*
X162526152Y-122573128D01*
X162491501Y-122702448D01*
X162491501Y-122836349D01*
X162526152Y-122965669D01*
X162526152Y-122965670D01*
X162593100Y-123081625D01*
X162610139Y-123098664D01*
X162638365Y-123154062D01*
X162628639Y-123215470D01*
X162610139Y-123240934D01*
X162593100Y-123257972D01*
X162526152Y-123373927D01*
X162526152Y-123373928D01*
X162491501Y-123503248D01*
X162491501Y-123637149D01*
X162526152Y-123766469D01*
X162526152Y-123766470D01*
X162593100Y-123882425D01*
X162610139Y-123899464D01*
X162638365Y-123954862D01*
X162628639Y-124016270D01*
X162610139Y-124041734D01*
X162593100Y-124058772D01*
X162526152Y-124174727D01*
X162526152Y-124174728D01*
X162491501Y-124304048D01*
X162491501Y-124437949D01*
X162526152Y-124567269D01*
X162526152Y-124567270D01*
X162593100Y-124683225D01*
X162610139Y-124700264D01*
X162638365Y-124755662D01*
X162628639Y-124817070D01*
X162610139Y-124842534D01*
X162593100Y-124859572D01*
X162526152Y-124975527D01*
X162526152Y-124975528D01*
X162491501Y-125104848D01*
X162491501Y-125238749D01*
X162527860Y-125374442D01*
X162526120Y-125374908D01*
X162530330Y-125428350D01*
X162497848Y-125481364D01*
X162440408Y-125505161D01*
X162402970Y-125499236D01*
X162402643Y-125500459D01*
X162266950Y-125464100D01*
X162266945Y-125464100D01*
X162133055Y-125464100D01*
X162133049Y-125464100D01*
X162003729Y-125498751D01*
X162003728Y-125498751D01*
X161887773Y-125565699D01*
X161871135Y-125582338D01*
X161815737Y-125610564D01*
X161754329Y-125600838D01*
X161728865Y-125582338D01*
X161712226Y-125565699D01*
X161596271Y-125498751D01*
X161466950Y-125464100D01*
X161466945Y-125464100D01*
X161333055Y-125464100D01*
X161333049Y-125464100D01*
X161203729Y-125498751D01*
X161203728Y-125498751D01*
X161087773Y-125565699D01*
X160993099Y-125660373D01*
X160926151Y-125776328D01*
X160926151Y-125776329D01*
X160891500Y-125905649D01*
X160891500Y-126039550D01*
X160926151Y-126168870D01*
X160926151Y-126168871D01*
X160993099Y-126284826D01*
X161009738Y-126301465D01*
X161037964Y-126356863D01*
X161028238Y-126418271D01*
X161009738Y-126443735D01*
X160993099Y-126460373D01*
X160926151Y-126576328D01*
X160926151Y-126576329D01*
X160891500Y-126705649D01*
X160891500Y-126839550D01*
X160926151Y-126968870D01*
X160926151Y-126968871D01*
X160993099Y-127084826D01*
X161009738Y-127101465D01*
X161037964Y-127156863D01*
X161028238Y-127218271D01*
X161009738Y-127243735D01*
X160993099Y-127260373D01*
X160926151Y-127376328D01*
X160926151Y-127376329D01*
X160891500Y-127505649D01*
X160891500Y-127639550D01*
X160926151Y-127768870D01*
X160926151Y-127768871D01*
X160993099Y-127884826D01*
X161009738Y-127901465D01*
X161037964Y-127956863D01*
X161028238Y-128018271D01*
X161009738Y-128043735D01*
X160993099Y-128060373D01*
X160926151Y-128176328D01*
X160926151Y-128176329D01*
X160891500Y-128305649D01*
X160891500Y-128439550D01*
X160926151Y-128568870D01*
X160926151Y-128568871D01*
X160993099Y-128684826D01*
X161009738Y-128701465D01*
X161037964Y-128756863D01*
X161028238Y-128818271D01*
X161009738Y-128843735D01*
X160993099Y-128860373D01*
X160926151Y-128976328D01*
X160926151Y-128976329D01*
X160891500Y-129105649D01*
X160891500Y-129239550D01*
X160926151Y-129368870D01*
X160926151Y-129368871D01*
X160993099Y-129484826D01*
X161039492Y-129531219D01*
X161067718Y-129586617D01*
X161057992Y-129648025D01*
X161014028Y-129691989D01*
X160968357Y-129702954D01*
X154425056Y-129702954D01*
X154365925Y-129683741D01*
X154353921Y-129673489D01*
X152724167Y-128043735D01*
X151087245Y-126406813D01*
X151055244Y-126388337D01*
X150993592Y-126352742D01*
X150993587Y-126352740D01*
X150889139Y-126324753D01*
X150889134Y-126324753D01*
X150780992Y-126324753D01*
X150780991Y-126324753D01*
X139662774Y-126324753D01*
X139603643Y-126305540D01*
X139567098Y-126255240D01*
X139562174Y-126224153D01*
X139562174Y-124877994D01*
X139562173Y-124877987D01*
X139534186Y-124773539D01*
X139534184Y-124773534D01*
X139506583Y-124725728D01*
X139480114Y-124679882D01*
X139403646Y-124603414D01*
X139403643Y-124603412D01*
X139309993Y-124549343D01*
X139309988Y-124549341D01*
X139296209Y-124545649D01*
X140326701Y-124545649D01*
X140326701Y-124679550D01*
X140361352Y-124808870D01*
X140361354Y-124808875D01*
X140424300Y-124917899D01*
X140437227Y-124978714D01*
X140424300Y-125018499D01*
X140361354Y-125127523D01*
X140361352Y-125127528D01*
X140326701Y-125256848D01*
X140326701Y-125390749D01*
X140361352Y-125520069D01*
X140361352Y-125520070D01*
X140391449Y-125572199D01*
X140428300Y-125636025D01*
X140522975Y-125730700D01*
X140638927Y-125797646D01*
X140638929Y-125797647D01*
X140768250Y-125832298D01*
X140768254Y-125832298D01*
X140768256Y-125832299D01*
X140768258Y-125832299D01*
X140902144Y-125832299D01*
X140902146Y-125832299D01*
X140902148Y-125832298D01*
X140902151Y-125832298D01*
X141031471Y-125797647D01*
X141031472Y-125797647D01*
X141031472Y-125797646D01*
X141031475Y-125797646D01*
X141140501Y-125734698D01*
X141201314Y-125721772D01*
X141241099Y-125734698D01*
X141350126Y-125797646D01*
X141350128Y-125797647D01*
X141479449Y-125832298D01*
X141479453Y-125832298D01*
X141479455Y-125832299D01*
X141479457Y-125832299D01*
X141613343Y-125832299D01*
X141613345Y-125832299D01*
X141613347Y-125832298D01*
X141613350Y-125832298D01*
X141742670Y-125797647D01*
X141742671Y-125797647D01*
X141742671Y-125797646D01*
X141742674Y-125797646D01*
X141858626Y-125730700D01*
X141953301Y-125636025D01*
X142020247Y-125520073D01*
X142044824Y-125428350D01*
X142054899Y-125390749D01*
X142054900Y-125390742D01*
X142054900Y-125256855D01*
X142054899Y-125256848D01*
X142020248Y-125127528D01*
X142020248Y-125127527D01*
X142007158Y-125104855D01*
X141957299Y-125018498D01*
X141944373Y-124957684D01*
X141957300Y-124917899D01*
X142020247Y-124808874D01*
X142042526Y-124725728D01*
X142054899Y-124679550D01*
X142054900Y-124679543D01*
X142054900Y-124545656D01*
X142054899Y-124545649D01*
X142020248Y-124416329D01*
X142020248Y-124416328D01*
X141955426Y-124304055D01*
X141953301Y-124300374D01*
X141858626Y-124205699D01*
X141851698Y-124201699D01*
X141742671Y-124138751D01*
X141613350Y-124104100D01*
X141613345Y-124104100D01*
X141479455Y-124104100D01*
X141479449Y-124104100D01*
X141350129Y-124138751D01*
X141350124Y-124138753D01*
X141241100Y-124201699D01*
X141180285Y-124214626D01*
X141140500Y-124201699D01*
X141031476Y-124138753D01*
X141031471Y-124138751D01*
X140902151Y-124104100D01*
X140902146Y-124104100D01*
X140768256Y-124104100D01*
X140768250Y-124104100D01*
X140638930Y-124138751D01*
X140638929Y-124138751D01*
X140522974Y-124205699D01*
X140428300Y-124300373D01*
X140361352Y-124416328D01*
X140361352Y-124416329D01*
X140326701Y-124545649D01*
X139296209Y-124545649D01*
X139205540Y-124521354D01*
X139205535Y-124521354D01*
X137859374Y-124521354D01*
X137800243Y-124502141D01*
X137763698Y-124451841D01*
X137758774Y-124420754D01*
X137758774Y-119729848D01*
X140606101Y-119729848D01*
X140606101Y-119863749D01*
X140640752Y-119993069D01*
X140640752Y-119993070D01*
X140707700Y-120109025D01*
X140801839Y-120203164D01*
X140830065Y-120258562D01*
X140820339Y-120319970D01*
X140801839Y-120345434D01*
X140707700Y-120439572D01*
X140640752Y-120555527D01*
X140640752Y-120555528D01*
X140606101Y-120684848D01*
X140606101Y-120818749D01*
X140640752Y-120948069D01*
X140640752Y-120948070D01*
X140672889Y-121003732D01*
X140707700Y-121064025D01*
X140802375Y-121158700D01*
X140900013Y-121215072D01*
X140918329Y-121225647D01*
X141047650Y-121260298D01*
X141047654Y-121260298D01*
X141047656Y-121260299D01*
X141047658Y-121260299D01*
X141181544Y-121260299D01*
X141181546Y-121260299D01*
X141181548Y-121260298D01*
X141181551Y-121260298D01*
X141298260Y-121229026D01*
X141310871Y-121225647D01*
X141310872Y-121225647D01*
X141310872Y-121225646D01*
X141310875Y-121225646D01*
X141426827Y-121158700D01*
X141521502Y-121064025D01*
X141588448Y-120948073D01*
X141608262Y-120874124D01*
X141623100Y-120818749D01*
X141623101Y-120818742D01*
X141623101Y-120684855D01*
X141623100Y-120684848D01*
X141588449Y-120555528D01*
X141588449Y-120555527D01*
X141587464Y-120553821D01*
X141521502Y-120439573D01*
X141427363Y-120345434D01*
X141399137Y-120290036D01*
X141408863Y-120228628D01*
X141427363Y-120203164D01*
X141458163Y-120172364D01*
X141521502Y-120109025D01*
X141588448Y-119993073D01*
X141604204Y-119934270D01*
X141623100Y-119863749D01*
X141623101Y-119863742D01*
X141623101Y-119729855D01*
X141623100Y-119729848D01*
X141588449Y-119600528D01*
X141588449Y-119600527D01*
X141549494Y-119533056D01*
X141521502Y-119484573D01*
X141426827Y-119389898D01*
X141399026Y-119373847D01*
X141310872Y-119322950D01*
X141181551Y-119288299D01*
X141181546Y-119288299D01*
X141047656Y-119288299D01*
X141047650Y-119288299D01*
X140918330Y-119322950D01*
X140918329Y-119322950D01*
X140802374Y-119389898D01*
X140707700Y-119484572D01*
X140640752Y-119600527D01*
X140640752Y-119600528D01*
X140606101Y-119729848D01*
X137758774Y-119729848D01*
X137758774Y-117829849D01*
X140606101Y-117829849D01*
X140606101Y-117963750D01*
X140640752Y-118093070D01*
X140640752Y-118093071D01*
X140643771Y-118098300D01*
X140707700Y-118209026D01*
X140802375Y-118303701D01*
X140918327Y-118370647D01*
X140918329Y-118370648D01*
X141047650Y-118405299D01*
X141047654Y-118405299D01*
X141047656Y-118405300D01*
X141047658Y-118405300D01*
X141181544Y-118405300D01*
X141181546Y-118405300D01*
X141181548Y-118405299D01*
X141181551Y-118405299D01*
X141310871Y-118370648D01*
X141310872Y-118370648D01*
X141310872Y-118370647D01*
X141310875Y-118370647D01*
X141426827Y-118303701D01*
X141521502Y-118209026D01*
X141588448Y-118093074D01*
X141623101Y-117963745D01*
X141623101Y-117829855D01*
X141623100Y-117829853D01*
X141623100Y-117829849D01*
X141588449Y-117700529D01*
X141588449Y-117700528D01*
X141573513Y-117674659D01*
X141521502Y-117584574D01*
X141426827Y-117489899D01*
X141345379Y-117442874D01*
X141310872Y-117422951D01*
X141181551Y-117388300D01*
X141181546Y-117388300D01*
X141047656Y-117388300D01*
X141047650Y-117388300D01*
X140918330Y-117422951D01*
X140918329Y-117422951D01*
X140802374Y-117489899D01*
X140707700Y-117584573D01*
X140640752Y-117700528D01*
X140640752Y-117700529D01*
X140606101Y-117829849D01*
X137758774Y-117829849D01*
X137758774Y-116891995D01*
X144450099Y-116891995D01*
X144450099Y-124945807D01*
X144452668Y-124978439D01*
X144452670Y-124978456D01*
X144457588Y-125009505D01*
X144458377Y-125014151D01*
X144458378Y-125014156D01*
X144494879Y-125099554D01*
X144494880Y-125099556D01*
X144494881Y-125099557D01*
X144531426Y-125149857D01*
X144556043Y-125178033D01*
X144635776Y-125225671D01*
X144694907Y-125244884D01*
X144759394Y-125255098D01*
X144759396Y-125255099D01*
X144759399Y-125255099D01*
X157054989Y-125255099D01*
X157054999Y-125255099D01*
X157087649Y-125252529D01*
X157118736Y-125247605D01*
X157123351Y-125246821D01*
X157208757Y-125210317D01*
X157259057Y-125173772D01*
X157287233Y-125149155D01*
X157334871Y-125069422D01*
X157354084Y-125010291D01*
X157364299Y-124945799D01*
X157364299Y-117674659D01*
X157383512Y-117615528D01*
X157393758Y-117603530D01*
X157474439Y-117522849D01*
X173303700Y-117522849D01*
X173303700Y-117656750D01*
X173338351Y-117786070D01*
X173338351Y-117786071D01*
X173405299Y-117902026D01*
X173499974Y-117996701D01*
X173603532Y-118056491D01*
X173615928Y-118063648D01*
X173745249Y-118098299D01*
X173745253Y-118098299D01*
X173745255Y-118098300D01*
X173745257Y-118098300D01*
X173879143Y-118098300D01*
X173879145Y-118098300D01*
X173879147Y-118098299D01*
X173879150Y-118098299D01*
X174008470Y-118063648D01*
X174008471Y-118063648D01*
X174008471Y-118063647D01*
X174008474Y-118063647D01*
X174124426Y-117996701D01*
X174219101Y-117902026D01*
X174286047Y-117786074D01*
X174303631Y-117720448D01*
X174320699Y-117656750D01*
X174320700Y-117656743D01*
X174320700Y-117522856D01*
X174320699Y-117522849D01*
X174286048Y-117393529D01*
X174286048Y-117393528D01*
X174283030Y-117388300D01*
X174219101Y-117277574D01*
X174124426Y-117182899D01*
X174008474Y-117115953D01*
X174008471Y-117115951D01*
X173879150Y-117081300D01*
X173879145Y-117081300D01*
X173745255Y-117081300D01*
X173745249Y-117081300D01*
X173615929Y-117115951D01*
X173615928Y-117115951D01*
X173499973Y-117182899D01*
X173405299Y-117277573D01*
X173338351Y-117393528D01*
X173338351Y-117393529D01*
X173303700Y-117522849D01*
X157474439Y-117522849D01*
X158219465Y-116777824D01*
X158287625Y-116659766D01*
X158288082Y-116658975D01*
X158323601Y-116526416D01*
X158323601Y-114104684D01*
X158319062Y-114087745D01*
X158288083Y-113972128D01*
X158288083Y-113972127D01*
X158277534Y-113953856D01*
X158219464Y-113853277D01*
X158122425Y-113756238D01*
X158003574Y-113687618D01*
X157871022Y-113652101D01*
X157871018Y-113652101D01*
X157733784Y-113652101D01*
X157733779Y-113652101D01*
X157601228Y-113687618D01*
X157601227Y-113687618D01*
X157482376Y-113756238D01*
X157385338Y-113853276D01*
X157316718Y-113972127D01*
X157316718Y-113972128D01*
X157281201Y-114104679D01*
X157281201Y-116200240D01*
X157261988Y-116259371D01*
X157251736Y-116271375D01*
X156969876Y-116553235D01*
X156914478Y-116581461D01*
X156898741Y-116582700D01*
X153026701Y-116582700D01*
X152967570Y-116563487D01*
X152931025Y-116513187D01*
X152926101Y-116482100D01*
X152926101Y-114624297D01*
X152945314Y-114565166D01*
X152995614Y-114528621D01*
X153000664Y-114527125D01*
X153121870Y-114494648D01*
X153121871Y-114494648D01*
X153121871Y-114494647D01*
X153121874Y-114494647D01*
X153237826Y-114427701D01*
X153332501Y-114333026D01*
X153399447Y-114217074D01*
X153420597Y-114138141D01*
X153434099Y-114087750D01*
X153434100Y-114087743D01*
X153434100Y-113953856D01*
X153434099Y-113953849D01*
X153399448Y-113824529D01*
X153399448Y-113824528D01*
X153399447Y-113824526D01*
X153332501Y-113708574D01*
X153332499Y-113708572D01*
X153328487Y-113703343D01*
X153330288Y-113701960D01*
X153306634Y-113655535D01*
X153316360Y-113594127D01*
X153329038Y-113576676D01*
X153328487Y-113576253D01*
X153332495Y-113571027D01*
X153332501Y-113571022D01*
X153399447Y-113455070D01*
X153416010Y-113393255D01*
X153434099Y-113325746D01*
X153434100Y-113325739D01*
X153434100Y-113191852D01*
X153434099Y-113191845D01*
X153399448Y-113062525D01*
X153399448Y-113062524D01*
X153357305Y-112989531D01*
X153332501Y-112946570D01*
X153237826Y-112851895D01*
X153167882Y-112811512D01*
X153121871Y-112784947D01*
X152992550Y-112750296D01*
X152992545Y-112750296D01*
X152858655Y-112750296D01*
X152858649Y-112750296D01*
X152729329Y-112784947D01*
X152729328Y-112784947D01*
X152613373Y-112851895D01*
X152518700Y-112946568D01*
X152503326Y-112973196D01*
X152466509Y-113010013D01*
X152458746Y-113014495D01*
X152458743Y-113014497D01*
X151792301Y-113680939D01*
X151757142Y-113741835D01*
X151757143Y-113741836D01*
X151752106Y-113750559D01*
X151752104Y-113750564D01*
X151731301Y-113828201D01*
X151731300Y-113828207D01*
X151731300Y-116482100D01*
X151712087Y-116541231D01*
X151661787Y-116577776D01*
X151630700Y-116582700D01*
X144759390Y-116582700D01*
X144726758Y-116585269D01*
X144726741Y-116585271D01*
X144695692Y-116590189D01*
X144695670Y-116590192D01*
X144695662Y-116590194D01*
X144694009Y-116590474D01*
X144691046Y-116590978D01*
X144691041Y-116590979D01*
X144605643Y-116627480D01*
X144605639Y-116627483D01*
X144555349Y-116664020D01*
X144555340Y-116664027D01*
X144527165Y-116688644D01*
X144479528Y-116768374D01*
X144460313Y-116827507D01*
X144460313Y-116827509D01*
X144450099Y-116891995D01*
X137758774Y-116891995D01*
X137758774Y-113349285D01*
X147535722Y-113349285D01*
X147535722Y-113483186D01*
X147570373Y-113612506D01*
X147570373Y-113612507D01*
X147600864Y-113665318D01*
X147637321Y-113728462D01*
X147731996Y-113823137D01*
X147847948Y-113890083D01*
X147847950Y-113890084D01*
X147854041Y-113892607D01*
X147853002Y-113895113D01*
X147895508Y-113922694D01*
X147917811Y-113980731D01*
X147901742Y-114040792D01*
X147858212Y-114077012D01*
X147858237Y-114077056D01*
X147857986Y-114077200D01*
X147855859Y-114078971D01*
X147852534Y-114080348D01*
X147736573Y-114147299D01*
X147641899Y-114241973D01*
X147574951Y-114357928D01*
X147574951Y-114357929D01*
X147540300Y-114487249D01*
X147540300Y-114621150D01*
X147574951Y-114750470D01*
X147574951Y-114750471D01*
X147620827Y-114829929D01*
X147641899Y-114866426D01*
X147736574Y-114961101D01*
X147852526Y-115028047D01*
X147852528Y-115028048D01*
X147981849Y-115062699D01*
X147981853Y-115062699D01*
X147981855Y-115062700D01*
X147981857Y-115062700D01*
X148115743Y-115062700D01*
X148115745Y-115062700D01*
X148115747Y-115062699D01*
X148115750Y-115062699D01*
X148245070Y-115028048D01*
X148245071Y-115028048D01*
X148245071Y-115028047D01*
X148245074Y-115028047D01*
X148361026Y-114961101D01*
X148455701Y-114866426D01*
X148522647Y-114750474D01*
X148547318Y-114658399D01*
X148557299Y-114621150D01*
X148557300Y-114621143D01*
X148557300Y-114581782D01*
X148576513Y-114522651D01*
X148626813Y-114486106D01*
X148631864Y-114484610D01*
X148755836Y-114451393D01*
X148755838Y-114451392D01*
X148755838Y-114451391D01*
X148755841Y-114451391D01*
X148871793Y-114384445D01*
X148966468Y-114289770D01*
X149033414Y-114173818D01*
X149046762Y-114124001D01*
X149068066Y-114044494D01*
X149068067Y-114044487D01*
X149068067Y-113910600D01*
X149068066Y-113910593D01*
X149033415Y-113781273D01*
X149033415Y-113781272D01*
X149033414Y-113781270D01*
X148966468Y-113665318D01*
X148871793Y-113570643D01*
X148755841Y-113503697D01*
X148751679Y-113501294D01*
X148710077Y-113455089D01*
X148703579Y-113393255D01*
X148734666Y-113339411D01*
X148751680Y-113327050D01*
X148753071Y-113326246D01*
X148753074Y-113326246D01*
X148869026Y-113259300D01*
X148963701Y-113164625D01*
X149030647Y-113048673D01*
X149058005Y-112946569D01*
X149065299Y-112919349D01*
X149065300Y-112919342D01*
X149065300Y-112785455D01*
X149065299Y-112785448D01*
X149030648Y-112656128D01*
X149030648Y-112656127D01*
X148963700Y-112540172D01*
X148869026Y-112445498D01*
X148753071Y-112378550D01*
X148623750Y-112343899D01*
X148623745Y-112343899D01*
X148489855Y-112343899D01*
X148489849Y-112343899D01*
X148360529Y-112378550D01*
X148360528Y-112378550D01*
X148244573Y-112445498D01*
X148149899Y-112540172D01*
X148082951Y-112656127D01*
X148082951Y-112656128D01*
X148048300Y-112785448D01*
X148048300Y-112811512D01*
X148029087Y-112870643D01*
X147978787Y-112907188D01*
X147973737Y-112908684D01*
X147847951Y-112942387D01*
X147847950Y-112942387D01*
X147731995Y-113009335D01*
X147637321Y-113104009D01*
X147570373Y-113219964D01*
X147570373Y-113219965D01*
X147535722Y-113349285D01*
X137758774Y-113349285D01*
X137758774Y-113303900D01*
X137758775Y-113303887D01*
X137758775Y-113187642D01*
X137730785Y-113083185D01*
X137676714Y-112989531D01*
X134820232Y-110133049D01*
X162391500Y-110133049D01*
X162391500Y-110266950D01*
X162426151Y-110396270D01*
X162426153Y-110396275D01*
X162485866Y-110499700D01*
X162498793Y-110560515D01*
X162485866Y-110600300D01*
X162426153Y-110703724D01*
X162426151Y-110703729D01*
X162391500Y-110833049D01*
X162391500Y-110966950D01*
X162426151Y-111096270D01*
X162426153Y-111096275D01*
X162485866Y-111199700D01*
X162498793Y-111260515D01*
X162485866Y-111300300D01*
X162426153Y-111403724D01*
X162426151Y-111403729D01*
X162391500Y-111533049D01*
X162391500Y-111666950D01*
X162426151Y-111796270D01*
X162426153Y-111796275D01*
X162485866Y-111899700D01*
X162498793Y-111960515D01*
X162485866Y-112000300D01*
X162426153Y-112103724D01*
X162426151Y-112103729D01*
X162391500Y-112233049D01*
X162391500Y-112366950D01*
X162426151Y-112496270D01*
X162426153Y-112496275D01*
X162485866Y-112599700D01*
X162498793Y-112660515D01*
X162485866Y-112700300D01*
X162426153Y-112803724D01*
X162426151Y-112803729D01*
X162391500Y-112933049D01*
X162391500Y-113066950D01*
X162426151Y-113196270D01*
X162426151Y-113196271D01*
X162493099Y-113312226D01*
X162502588Y-113321715D01*
X162530814Y-113377113D01*
X162521088Y-113438521D01*
X162518575Y-113443150D01*
X162451154Y-113559924D01*
X162451152Y-113559929D01*
X162416501Y-113689249D01*
X162416501Y-113823150D01*
X162451152Y-113952470D01*
X162451154Y-113952475D01*
X162492103Y-114023400D01*
X162505030Y-114084215D01*
X162492103Y-114124000D01*
X162451154Y-114194924D01*
X162451152Y-114194929D01*
X162416501Y-114324249D01*
X162416501Y-114458150D01*
X162451152Y-114587470D01*
X162451154Y-114587475D01*
X162492103Y-114658400D01*
X162505030Y-114719215D01*
X162492103Y-114759000D01*
X162451154Y-114829924D01*
X162451152Y-114829929D01*
X162416501Y-114959249D01*
X162416501Y-115093150D01*
X162451152Y-115222470D01*
X162451152Y-115222471D01*
X162518100Y-115338426D01*
X162559138Y-115379464D01*
X162587364Y-115434862D01*
X162577638Y-115496270D01*
X162559138Y-115521733D01*
X162493102Y-115587769D01*
X162493100Y-115587772D01*
X162426151Y-115703728D01*
X162426151Y-115703729D01*
X162391500Y-115833049D01*
X162391500Y-115966950D01*
X162426151Y-116096270D01*
X162426151Y-116096271D01*
X162434383Y-116110529D01*
X162493099Y-116212226D01*
X162587774Y-116306901D01*
X162703558Y-116373750D01*
X162703728Y-116373848D01*
X162833049Y-116408499D01*
X162833053Y-116408499D01*
X162833055Y-116408500D01*
X162833057Y-116408500D01*
X162966943Y-116408500D01*
X162966945Y-116408500D01*
X162966947Y-116408499D01*
X162966950Y-116408499D01*
X163096270Y-116373848D01*
X163096271Y-116373848D01*
X163096271Y-116373847D01*
X163096274Y-116373847D01*
X163212226Y-116306901D01*
X163230365Y-116288762D01*
X163285763Y-116260536D01*
X163347171Y-116270262D01*
X163372635Y-116288762D01*
X163390774Y-116306901D01*
X163506558Y-116373750D01*
X163506728Y-116373848D01*
X163636049Y-116408499D01*
X163636053Y-116408499D01*
X163636055Y-116408500D01*
X163636057Y-116408500D01*
X163769943Y-116408500D01*
X163769945Y-116408500D01*
X163769947Y-116408499D01*
X163769950Y-116408499D01*
X163899270Y-116373848D01*
X163899271Y-116373848D01*
X163899271Y-116373847D01*
X163899274Y-116373847D01*
X164001200Y-116314998D01*
X164062015Y-116302072D01*
X164101798Y-116314998D01*
X164203558Y-116373750D01*
X164203728Y-116373848D01*
X164333049Y-116408499D01*
X164333053Y-116408499D01*
X164333055Y-116408500D01*
X164333057Y-116408500D01*
X164466943Y-116408500D01*
X164466945Y-116408500D01*
X164466947Y-116408499D01*
X164466950Y-116408499D01*
X164596270Y-116373848D01*
X164596271Y-116373848D01*
X164596271Y-116373847D01*
X164596274Y-116373847D01*
X164699700Y-116314132D01*
X164760515Y-116301206D01*
X164800298Y-116314132D01*
X164903558Y-116373750D01*
X164903728Y-116373848D01*
X165033049Y-116408499D01*
X165033053Y-116408499D01*
X165033055Y-116408500D01*
X165033057Y-116408500D01*
X165166943Y-116408500D01*
X165166945Y-116408500D01*
X165166947Y-116408499D01*
X165166950Y-116408499D01*
X165296270Y-116373848D01*
X165296271Y-116373848D01*
X165296271Y-116373847D01*
X165296274Y-116373847D01*
X165412226Y-116306901D01*
X165428865Y-116290262D01*
X165484263Y-116262036D01*
X165545671Y-116271762D01*
X165571135Y-116290262D01*
X165587774Y-116306901D01*
X165703558Y-116373750D01*
X165703728Y-116373848D01*
X165833049Y-116408499D01*
X165833053Y-116408499D01*
X165833055Y-116408500D01*
X165833057Y-116408500D01*
X165966943Y-116408500D01*
X165966945Y-116408500D01*
X165966947Y-116408499D01*
X165966950Y-116408499D01*
X166096270Y-116373848D01*
X166096271Y-116373848D01*
X166096271Y-116373847D01*
X166096274Y-116373847D01*
X166212226Y-116306901D01*
X166306901Y-116212226D01*
X166373847Y-116096274D01*
X166408500Y-115966945D01*
X166408500Y-115833055D01*
X166408499Y-115833053D01*
X166408499Y-115833049D01*
X166373848Y-115703729D01*
X166373848Y-115703728D01*
X166306900Y-115587773D01*
X166240862Y-115521735D01*
X166212636Y-115466337D01*
X166222362Y-115404929D01*
X166230398Y-115391761D01*
X166235131Y-115385196D01*
X166281902Y-115338426D01*
X166298920Y-115308951D01*
X174799900Y-115308951D01*
X174799900Y-115442852D01*
X174834551Y-115572172D01*
X174834551Y-115572173D01*
X174901499Y-115688128D01*
X174983587Y-115770216D01*
X175011813Y-115825614D01*
X175002087Y-115887022D01*
X174983587Y-115912486D01*
X174901500Y-115994573D01*
X174834552Y-116110528D01*
X174834552Y-116110529D01*
X174799901Y-116239849D01*
X174799901Y-116373750D01*
X174834552Y-116503070D01*
X174834552Y-116503071D01*
X174901500Y-116619026D01*
X174988039Y-116705565D01*
X175016265Y-116760963D01*
X175006539Y-116822371D01*
X174988039Y-116847835D01*
X174901500Y-116934373D01*
X174834552Y-117050328D01*
X174834552Y-117050329D01*
X174799901Y-117179649D01*
X174799901Y-117313550D01*
X174834552Y-117442870D01*
X174834552Y-117442871D01*
X174834554Y-117442874D01*
X174901500Y-117558826D01*
X174996175Y-117653501D01*
X175077627Y-117700528D01*
X175112129Y-117720448D01*
X175241450Y-117755099D01*
X175241454Y-117755099D01*
X175241456Y-117755100D01*
X175241458Y-117755100D01*
X175375344Y-117755100D01*
X175375346Y-117755100D01*
X175375348Y-117755099D01*
X175375351Y-117755099D01*
X175504671Y-117720448D01*
X175504672Y-117720448D01*
X175504672Y-117720447D01*
X175504675Y-117720447D01*
X175620627Y-117653501D01*
X175715302Y-117558826D01*
X175782248Y-117442874D01*
X175816901Y-117313545D01*
X175816901Y-117179655D01*
X175816900Y-117179653D01*
X175816900Y-117179649D01*
X175782249Y-117050329D01*
X175782249Y-117050328D01*
X175715301Y-116934373D01*
X175628763Y-116847835D01*
X175600537Y-116792437D01*
X175610263Y-116731029D01*
X175628763Y-116705565D01*
X175670308Y-116664020D01*
X175715302Y-116619026D01*
X175782248Y-116503074D01*
X175807589Y-116408499D01*
X175816900Y-116373750D01*
X175816901Y-116373743D01*
X175816901Y-116239856D01*
X175816900Y-116239849D01*
X175782249Y-116110529D01*
X175782249Y-116110528D01*
X175715301Y-115994573D01*
X175633213Y-115912485D01*
X175604987Y-115857087D01*
X175614713Y-115795679D01*
X175633210Y-115770218D01*
X175715301Y-115688128D01*
X175782247Y-115572176D01*
X175813407Y-115455883D01*
X175816899Y-115442852D01*
X175816900Y-115442845D01*
X175816900Y-115308958D01*
X175816899Y-115308951D01*
X175782248Y-115179631D01*
X175782248Y-115179630D01*
X175715300Y-115063675D01*
X175620626Y-114969001D01*
X175504671Y-114902053D01*
X175375350Y-114867402D01*
X175375345Y-114867402D01*
X175241455Y-114867402D01*
X175241449Y-114867402D01*
X175112129Y-114902053D01*
X175112128Y-114902053D01*
X174996173Y-114969001D01*
X174901499Y-115063675D01*
X174834551Y-115179630D01*
X174834551Y-115179631D01*
X174799900Y-115308951D01*
X166298920Y-115308951D01*
X166348848Y-115222474D01*
X166383501Y-115093145D01*
X166383501Y-114959255D01*
X166383500Y-114959253D01*
X166383500Y-114959249D01*
X166348849Y-114829929D01*
X166348849Y-114829928D01*
X166348847Y-114829924D01*
X166307897Y-114758998D01*
X166294971Y-114698186D01*
X166307898Y-114658400D01*
X166348848Y-114587474D01*
X166354893Y-114564912D01*
X166383500Y-114458150D01*
X166383501Y-114458143D01*
X166383501Y-114324256D01*
X166383500Y-114324249D01*
X166348849Y-114194929D01*
X166348849Y-114194928D01*
X166336659Y-114173815D01*
X166307897Y-114123998D01*
X166294971Y-114063186D01*
X166307898Y-114023400D01*
X166348848Y-113952474D01*
X166360070Y-113910593D01*
X166383500Y-113823150D01*
X166383501Y-113823143D01*
X166383501Y-113689256D01*
X166383500Y-113689249D01*
X166348849Y-113559929D01*
X166348849Y-113559928D01*
X166348847Y-113559924D01*
X166281902Y-113443974D01*
X166240714Y-113402786D01*
X166212488Y-113347388D01*
X166222214Y-113285980D01*
X166224718Y-113281366D01*
X166273847Y-113196274D01*
X166304149Y-113083185D01*
X166308499Y-113066950D01*
X166308500Y-113066943D01*
X166308500Y-112933056D01*
X166308499Y-112933049D01*
X166273848Y-112803729D01*
X166273848Y-112803728D01*
X166254300Y-112769870D01*
X166214132Y-112700299D01*
X166201206Y-112639485D01*
X166214133Y-112599700D01*
X166273847Y-112496274D01*
X166308500Y-112366945D01*
X166308500Y-112233055D01*
X166308499Y-112233053D01*
X166308499Y-112233049D01*
X166273848Y-112103729D01*
X166273848Y-112103728D01*
X166273846Y-112103724D01*
X166214132Y-112000299D01*
X166201206Y-111939485D01*
X166214133Y-111899700D01*
X166273847Y-111796274D01*
X166308500Y-111666945D01*
X166308500Y-111533055D01*
X166308499Y-111533053D01*
X166308499Y-111533049D01*
X166273848Y-111403729D01*
X166273848Y-111403728D01*
X166273846Y-111403724D01*
X166206901Y-111287774D01*
X166112226Y-111193099D01*
X165996274Y-111126153D01*
X165996271Y-111126151D01*
X165866950Y-111091500D01*
X165866945Y-111091500D01*
X165733055Y-111091500D01*
X165733049Y-111091500D01*
X165731213Y-111091993D01*
X165729853Y-111091921D01*
X165726516Y-111092361D01*
X165726434Y-111091742D01*
X165669124Y-111088737D01*
X165620807Y-111049608D01*
X165604717Y-110989551D01*
X165608010Y-110968772D01*
X165608500Y-110966945D01*
X165608500Y-110833055D01*
X165608499Y-110833053D01*
X165608499Y-110833049D01*
X165573848Y-110703729D01*
X165573848Y-110703728D01*
X165570184Y-110697382D01*
X165506901Y-110587774D01*
X165412226Y-110493099D01*
X165296274Y-110426153D01*
X165296271Y-110426151D01*
X165166950Y-110391500D01*
X165166945Y-110391500D01*
X165033055Y-110391500D01*
X165033049Y-110391500D01*
X164903729Y-110426151D01*
X164903728Y-110426151D01*
X164787773Y-110493099D01*
X164693099Y-110587773D01*
X164626151Y-110703728D01*
X164626151Y-110703729D01*
X164591500Y-110833049D01*
X164591500Y-110966950D01*
X164626151Y-111096270D01*
X164626153Y-111096275D01*
X164685866Y-111199700D01*
X164698793Y-111260515D01*
X164685866Y-111300300D01*
X164626153Y-111403724D01*
X164626151Y-111403729D01*
X164591500Y-111533049D01*
X164591500Y-111666950D01*
X164626151Y-111796270D01*
X164626151Y-111796271D01*
X164685866Y-111899699D01*
X164693099Y-111912226D01*
X164787774Y-112006901D01*
X164903726Y-112073847D01*
X164903728Y-112073848D01*
X165033049Y-112108499D01*
X165033053Y-112108499D01*
X165033055Y-112108500D01*
X165033057Y-112108500D01*
X165166943Y-112108500D01*
X165166945Y-112108500D01*
X165168773Y-112108010D01*
X165170127Y-112108080D01*
X165173484Y-112107639D01*
X165173565Y-112108260D01*
X165230862Y-112111257D01*
X165279184Y-112150379D01*
X165295283Y-112210433D01*
X165291993Y-112231213D01*
X165291500Y-112233049D01*
X165291500Y-112366950D01*
X165326151Y-112496270D01*
X165326153Y-112496275D01*
X165385866Y-112599700D01*
X165398793Y-112660515D01*
X165385866Y-112700300D01*
X165326153Y-112803724D01*
X165326151Y-112803729D01*
X165291500Y-112933049D01*
X165291500Y-113066950D01*
X165326151Y-113196270D01*
X165326153Y-113196275D01*
X165357345Y-113250300D01*
X165370272Y-113311115D01*
X165344984Y-113367914D01*
X165291139Y-113399002D01*
X165270223Y-113401200D01*
X163429777Y-113401200D01*
X163370646Y-113381987D01*
X163334101Y-113331687D01*
X163334101Y-113269513D01*
X163342655Y-113250300D01*
X163360169Y-113219964D01*
X163373847Y-113196274D01*
X163404149Y-113083185D01*
X163408499Y-113066950D01*
X163408500Y-113066943D01*
X163408500Y-112933056D01*
X163408499Y-112933049D01*
X163373848Y-112803729D01*
X163373848Y-112803728D01*
X163354300Y-112769870D01*
X163314132Y-112700299D01*
X163301206Y-112639485D01*
X163314133Y-112599700D01*
X163373847Y-112496274D01*
X163408500Y-112366945D01*
X163408500Y-112233055D01*
X163408009Y-112231222D01*
X163408080Y-112229866D01*
X163407639Y-112226516D01*
X163408259Y-112226434D01*
X163411258Y-112169134D01*
X163450382Y-112120813D01*
X163510436Y-112104716D01*
X163531220Y-112108008D01*
X163533055Y-112108500D01*
X163533057Y-112108500D01*
X163666943Y-112108500D01*
X163666945Y-112108500D01*
X163666947Y-112108499D01*
X163666950Y-112108499D01*
X163796270Y-112073848D01*
X163796271Y-112073848D01*
X163796271Y-112073847D01*
X163796274Y-112073847D01*
X163912226Y-112006901D01*
X164006901Y-111912226D01*
X164073847Y-111796274D01*
X164108500Y-111666945D01*
X164108500Y-111533055D01*
X164108499Y-111533053D01*
X164108499Y-111533049D01*
X164073848Y-111403729D01*
X164073848Y-111403728D01*
X164073846Y-111403724D01*
X164014132Y-111300299D01*
X164001206Y-111239485D01*
X164014133Y-111199700D01*
X164073847Y-111096274D01*
X164102443Y-110989551D01*
X164108499Y-110966950D01*
X164108500Y-110966943D01*
X164108500Y-110833056D01*
X164108499Y-110833049D01*
X164073848Y-110703729D01*
X164073848Y-110703728D01*
X164070184Y-110697382D01*
X164006901Y-110587774D01*
X163912226Y-110493099D01*
X163796274Y-110426153D01*
X163796271Y-110426151D01*
X163666950Y-110391500D01*
X163666945Y-110391500D01*
X163533055Y-110391500D01*
X163533049Y-110391500D01*
X163531213Y-110391993D01*
X163529853Y-110391921D01*
X163526516Y-110392361D01*
X163526434Y-110391742D01*
X163469124Y-110388737D01*
X163420807Y-110349608D01*
X163404717Y-110289551D01*
X163408010Y-110268772D01*
X163408500Y-110266945D01*
X163408500Y-110133055D01*
X163408499Y-110133053D01*
X163408499Y-110133049D01*
X163373848Y-110003729D01*
X163373848Y-110003728D01*
X163306900Y-109887773D01*
X163212226Y-109793099D01*
X163096271Y-109726151D01*
X162966950Y-109691500D01*
X162966945Y-109691500D01*
X162833055Y-109691500D01*
X162833049Y-109691500D01*
X162703729Y-109726151D01*
X162703728Y-109726151D01*
X162587773Y-109793099D01*
X162493099Y-109887773D01*
X162426151Y-110003728D01*
X162426151Y-110003729D01*
X162391500Y-110133049D01*
X134820232Y-110133049D01*
X134410039Y-109722856D01*
X134381813Y-109667458D01*
X134380574Y-109651721D01*
X134380574Y-107100600D01*
X134399787Y-107041469D01*
X134450087Y-107004924D01*
X134481174Y-107000000D01*
X192894554Y-107000000D01*
X192953685Y-107019213D01*
G37*
%TD.AperFunction*%
%TA.AperFunction,Conductor*%
G36*
X173704440Y-70396387D02*
G01*
X173716444Y-70406639D01*
X173982948Y-70673142D01*
X173995309Y-70697402D01*
X174009586Y-70720596D01*
X174009264Y-70724791D01*
X174011174Y-70728540D01*
X174006914Y-70755434D01*
X174004832Y-70782588D01*
X174002106Y-70785792D01*
X174001448Y-70789948D01*
X173982194Y-70809201D01*
X173964549Y-70829947D01*
X173960459Y-70830937D01*
X173957485Y-70833912D01*
X173930589Y-70838172D01*
X173904122Y-70844583D01*
X173900076Y-70844272D01*
X173874993Y-70840300D01*
X173848266Y-70840300D01*
X173848253Y-70840299D01*
X173845946Y-70840299D01*
X173712056Y-70840299D01*
X173705895Y-70840299D01*
X173705879Y-70840300D01*
X173109350Y-70840300D01*
X173109346Y-70840299D01*
X172975456Y-70840299D01*
X172975452Y-70840300D01*
X171194800Y-70840300D01*
X171005192Y-70870331D01*
X171005176Y-70870335D01*
X170822597Y-70929658D01*
X170651546Y-71016814D01*
X170651535Y-71016821D01*
X170496219Y-71129663D01*
X170360463Y-71265419D01*
X170247621Y-71420735D01*
X170247614Y-71420746D01*
X170160458Y-71591797D01*
X170101135Y-71774376D01*
X170101131Y-71774392D01*
X170071100Y-71964000D01*
X170071100Y-77251874D01*
X170051887Y-77311005D01*
X170001587Y-77347550D01*
X169939413Y-77347550D01*
X169889113Y-77311005D01*
X169873328Y-77277911D01*
X169858649Y-77223129D01*
X169858649Y-77223128D01*
X169856012Y-77218560D01*
X169791702Y-77107174D01*
X169697027Y-77012499D01*
X169593885Y-76952949D01*
X169581072Y-76945551D01*
X169451751Y-76910900D01*
X169451746Y-76910900D01*
X169317856Y-76910900D01*
X169317850Y-76910900D01*
X169188530Y-76945551D01*
X169188529Y-76945551D01*
X169072574Y-77012499D01*
X168977900Y-77107173D01*
X168910952Y-77223128D01*
X168910952Y-77223129D01*
X168885073Y-77319715D01*
X168851211Y-77371859D01*
X168793166Y-77394140D01*
X168733111Y-77378049D01*
X168693983Y-77329730D01*
X168690729Y-77319715D01*
X168664849Y-77223129D01*
X168664849Y-77223128D01*
X168662212Y-77218560D01*
X168597902Y-77107174D01*
X168503227Y-77012499D01*
X168400085Y-76952949D01*
X168387272Y-76945551D01*
X168257951Y-76910900D01*
X168257946Y-76910900D01*
X168124056Y-76910900D01*
X168124050Y-76910900D01*
X167994730Y-76945551D01*
X167994729Y-76945551D01*
X167878774Y-77012499D01*
X167784100Y-77107173D01*
X167717152Y-77223128D01*
X167717152Y-77223129D01*
X167682501Y-77352449D01*
X167682501Y-77486350D01*
X167717152Y-77615670D01*
X167717152Y-77615671D01*
X167717154Y-77615674D01*
X167784100Y-77731626D01*
X167878775Y-77826301D01*
X167918184Y-77849054D01*
X167994729Y-77893248D01*
X168124050Y-77927899D01*
X168124054Y-77927899D01*
X168124056Y-77927900D01*
X168124058Y-77927900D01*
X168257944Y-77927900D01*
X168257946Y-77927900D01*
X168257948Y-77927899D01*
X168257951Y-77927899D01*
X168387271Y-77893248D01*
X168387272Y-77893248D01*
X168387272Y-77893247D01*
X168387275Y-77893247D01*
X168503227Y-77826301D01*
X168597902Y-77731626D01*
X168664848Y-77615674D01*
X168675191Y-77577074D01*
X168690729Y-77519084D01*
X168724591Y-77466941D01*
X168782635Y-77444659D01*
X168842691Y-77460750D01*
X168881819Y-77509069D01*
X168885073Y-77519084D01*
X168910952Y-77615671D01*
X168910954Y-77615674D01*
X168977900Y-77731626D01*
X169072575Y-77826301D01*
X169111984Y-77849054D01*
X169188529Y-77893248D01*
X169317850Y-77927899D01*
X169317854Y-77927899D01*
X169317856Y-77927900D01*
X169317858Y-77927900D01*
X169451744Y-77927900D01*
X169451746Y-77927900D01*
X169451748Y-77927899D01*
X169451751Y-77927899D01*
X169581071Y-77893248D01*
X169581072Y-77893248D01*
X169581072Y-77893247D01*
X169581075Y-77893247D01*
X169697027Y-77826301D01*
X169791702Y-77731626D01*
X169858648Y-77615674D01*
X169868991Y-77577074D01*
X169873328Y-77560888D01*
X169907190Y-77508745D01*
X169965234Y-77486463D01*
X170025290Y-77502554D01*
X170064418Y-77550873D01*
X170071100Y-77586925D01*
X170071100Y-79050601D01*
X170071099Y-79050608D01*
X170071099Y-79242592D01*
X170071100Y-79242598D01*
X170071100Y-83236500D01*
X170051887Y-83295631D01*
X170001587Y-83332176D01*
X169970500Y-83337100D01*
X151921801Y-83337100D01*
X151862670Y-83317887D01*
X151826125Y-83267587D01*
X151821201Y-83236500D01*
X151821201Y-80698925D01*
X155699900Y-80698925D01*
X155699900Y-80896274D01*
X155730768Y-81091169D01*
X155730772Y-81091185D01*
X155791749Y-81278854D01*
X155881339Y-81454682D01*
X155997329Y-81614329D01*
X155997331Y-81614331D01*
X156136869Y-81753869D01*
X156285731Y-81862024D01*
X156296517Y-81869860D01*
X156296516Y-81869860D01*
X156472345Y-81959450D01*
X156660014Y-82020427D01*
X156660017Y-82020427D01*
X156660024Y-82020430D01*
X156660029Y-82020430D01*
X156660030Y-82020431D01*
X156854925Y-82051299D01*
X156854930Y-82051300D01*
X156854932Y-82051300D01*
X157052270Y-82051300D01*
X157052274Y-82051299D01*
X157075010Y-82047698D01*
X157247176Y-82020430D01*
X157434854Y-81959450D01*
X157610682Y-81869861D01*
X157770331Y-81753869D01*
X157909869Y-81614331D01*
X158025861Y-81454682D01*
X158115450Y-81278854D01*
X158176430Y-81091176D01*
X158207300Y-80896268D01*
X158207300Y-80698932D01*
X158176430Y-80504024D01*
X158168226Y-80478774D01*
X158115450Y-80316345D01*
X158062854Y-80213121D01*
X158025861Y-80140518D01*
X157932730Y-80012334D01*
X157909870Y-79980870D01*
X157770329Y-79841329D01*
X157645792Y-79750848D01*
X157610682Y-79725339D01*
X157610681Y-79725338D01*
X157610679Y-79725337D01*
X157513947Y-79676049D01*
X162475501Y-79676049D01*
X162475501Y-79809950D01*
X162510152Y-79939270D01*
X162510152Y-79939271D01*
X162517223Y-79951518D01*
X162577100Y-80055226D01*
X162671775Y-80149901D01*
X162787727Y-80216847D01*
X162787729Y-80216848D01*
X162917050Y-80251499D01*
X162917054Y-80251499D01*
X162917056Y-80251500D01*
X162917058Y-80251500D01*
X163050944Y-80251500D01*
X163050946Y-80251500D01*
X163050948Y-80251499D01*
X163050951Y-80251499D01*
X163180271Y-80216848D01*
X163180272Y-80216848D01*
X163180272Y-80216847D01*
X163180275Y-80216847D01*
X163296227Y-80149901D01*
X163390902Y-80055226D01*
X163457848Y-79939274D01*
X163478539Y-79862053D01*
X163492500Y-79809950D01*
X163492501Y-79809943D01*
X163492501Y-79676056D01*
X163492500Y-79676049D01*
X163457849Y-79546729D01*
X163457849Y-79546728D01*
X163457848Y-79546726D01*
X163390902Y-79430774D01*
X163296227Y-79336099D01*
X163180275Y-79269153D01*
X163180272Y-79269151D01*
X163050951Y-79234500D01*
X163050946Y-79234500D01*
X162917056Y-79234500D01*
X162917050Y-79234500D01*
X162787730Y-79269151D01*
X162787729Y-79269151D01*
X162671774Y-79336099D01*
X162577100Y-79430773D01*
X162510152Y-79546728D01*
X162510152Y-79546729D01*
X162475501Y-79676049D01*
X157513947Y-79676049D01*
X157434854Y-79635749D01*
X157247185Y-79574772D01*
X157247169Y-79574768D01*
X157052274Y-79543900D01*
X157052268Y-79543900D01*
X156854932Y-79543900D01*
X156854925Y-79543900D01*
X156660030Y-79574768D01*
X156660014Y-79574772D01*
X156472345Y-79635749D01*
X156296517Y-79725339D01*
X156136870Y-79841329D01*
X155997329Y-79980870D01*
X155881339Y-80140517D01*
X155791749Y-80316345D01*
X155730772Y-80504014D01*
X155730768Y-80504030D01*
X155699900Y-80698925D01*
X151821201Y-80698925D01*
X151821201Y-77313849D01*
X152290100Y-77313849D01*
X152290100Y-77447750D01*
X152324751Y-77577070D01*
X152324751Y-77577071D01*
X152347037Y-77615670D01*
X152391699Y-77693026D01*
X152486374Y-77787701D01*
X152576382Y-77839668D01*
X152602328Y-77854648D01*
X152731649Y-77889299D01*
X152731653Y-77889299D01*
X152731655Y-77889300D01*
X152731657Y-77889300D01*
X152865543Y-77889300D01*
X152865545Y-77889300D01*
X152865547Y-77889299D01*
X152865550Y-77889299D01*
X152994870Y-77854648D01*
X152994871Y-77854648D01*
X152994871Y-77854647D01*
X152994874Y-77854647D01*
X153110826Y-77787701D01*
X153205501Y-77693026D01*
X153272447Y-77577074D01*
X153287411Y-77521227D01*
X153307099Y-77447750D01*
X153307100Y-77447743D01*
X153307100Y-77313856D01*
X153307099Y-77313849D01*
X153272448Y-77184529D01*
X153272448Y-77184528D01*
X153242779Y-77133141D01*
X153205501Y-77068574D01*
X153110826Y-76973899D01*
X152994874Y-76906953D01*
X152994868Y-76906950D01*
X152865550Y-76872300D01*
X152865545Y-76872300D01*
X152731655Y-76872300D01*
X152731649Y-76872300D01*
X152602329Y-76906951D01*
X152602328Y-76906951D01*
X152486373Y-76973899D01*
X152391699Y-77068573D01*
X152324751Y-77184528D01*
X152324751Y-77184529D01*
X152290100Y-77313849D01*
X151821201Y-77313849D01*
X151821201Y-77286783D01*
X151821200Y-77286777D01*
X151785683Y-77154226D01*
X151785683Y-77154225D01*
X151766047Y-77120215D01*
X151717064Y-77035375D01*
X151620025Y-76938336D01*
X151565669Y-76906953D01*
X151501174Y-76869716D01*
X151368622Y-76834199D01*
X151368618Y-76834199D01*
X151231384Y-76834199D01*
X151231379Y-76834199D01*
X151098828Y-76869716D01*
X151098827Y-76869716D01*
X150979976Y-76938336D01*
X150882938Y-77035374D01*
X150814318Y-77154225D01*
X150814318Y-77154226D01*
X150778801Y-77286777D01*
X150778801Y-83236500D01*
X150759588Y-83295631D01*
X150709288Y-83332176D01*
X150678201Y-83337100D01*
X146697601Y-83337100D01*
X146507993Y-83367131D01*
X146507977Y-83367135D01*
X146325398Y-83426458D01*
X146154347Y-83513614D01*
X146154336Y-83513621D01*
X145999020Y-83626463D01*
X145863264Y-83762219D01*
X145750422Y-83917535D01*
X145750415Y-83917546D01*
X145663259Y-84088597D01*
X145603936Y-84271176D01*
X145603932Y-84271192D01*
X145573901Y-84460800D01*
X145573901Y-88099076D01*
X145571123Y-88122555D01*
X145570768Y-88124031D01*
X145539900Y-88318925D01*
X145539900Y-88516274D01*
X145570768Y-88711169D01*
X145570772Y-88711185D01*
X145631749Y-88898854D01*
X145721339Y-89074682D01*
X145837329Y-89234329D01*
X145976870Y-89373870D01*
X145991745Y-89384677D01*
X146118743Y-89476947D01*
X146136517Y-89489860D01*
X146136516Y-89489860D01*
X146312345Y-89579450D01*
X146500014Y-89640427D01*
X146500017Y-89640427D01*
X146500024Y-89640430D01*
X146500029Y-89640430D01*
X146500030Y-89640431D01*
X146694925Y-89671299D01*
X146694930Y-89671300D01*
X146694932Y-89671300D01*
X146892270Y-89671300D01*
X146892274Y-89671299D01*
X147087176Y-89640430D01*
X147274854Y-89579450D01*
X147450682Y-89489861D01*
X147610331Y-89373869D01*
X147749869Y-89234331D01*
X147865861Y-89074682D01*
X147955450Y-88898854D01*
X148016430Y-88711176D01*
X148047300Y-88516268D01*
X148047300Y-88318932D01*
X148047299Y-88318925D01*
X155699900Y-88318925D01*
X155699900Y-88516274D01*
X155730768Y-88711169D01*
X155730772Y-88711185D01*
X155791749Y-88898854D01*
X155881339Y-89074682D01*
X155997329Y-89234329D01*
X156136870Y-89373870D01*
X156151745Y-89384677D01*
X156278743Y-89476947D01*
X156296517Y-89489860D01*
X156296516Y-89489860D01*
X156472345Y-89579450D01*
X156660014Y-89640427D01*
X156660017Y-89640427D01*
X156660024Y-89640430D01*
X156660029Y-89640430D01*
X156660030Y-89640431D01*
X156854925Y-89671299D01*
X156854930Y-89671300D01*
X156854932Y-89671300D01*
X157052270Y-89671300D01*
X157052274Y-89671299D01*
X157247176Y-89640430D01*
X157434854Y-89579450D01*
X157610682Y-89489861D01*
X157770331Y-89373869D01*
X157909869Y-89234331D01*
X158025861Y-89074682D01*
X158115450Y-88898854D01*
X158162498Y-88754055D01*
X158162500Y-88754048D01*
X183720300Y-88754048D01*
X183720300Y-88887949D01*
X183754951Y-89017269D01*
X183754951Y-89017270D01*
X183785726Y-89070572D01*
X183821899Y-89133225D01*
X183916574Y-89227900D01*
X184025903Y-89291022D01*
X184032528Y-89294847D01*
X184161849Y-89329498D01*
X184161853Y-89329498D01*
X184161855Y-89329499D01*
X184161857Y-89329499D01*
X184295743Y-89329499D01*
X184295745Y-89329499D01*
X184295747Y-89329498D01*
X184295750Y-89329498D01*
X184425070Y-89294847D01*
X184425071Y-89294847D01*
X184425071Y-89294846D01*
X184425074Y-89294846D01*
X184541026Y-89227900D01*
X184635701Y-89133225D01*
X184702647Y-89017273D01*
X184731671Y-88908952D01*
X184737299Y-88887949D01*
X184737300Y-88887942D01*
X184737300Y-88754055D01*
X184737299Y-88754048D01*
X184702648Y-88624728D01*
X184702648Y-88624727D01*
X184642009Y-88519699D01*
X184635701Y-88508773D01*
X184541026Y-88414098D01*
X184425074Y-88347152D01*
X184425071Y-88347150D01*
X184295750Y-88312499D01*
X184295745Y-88312499D01*
X184161855Y-88312499D01*
X184161849Y-88312499D01*
X184032529Y-88347150D01*
X184032528Y-88347150D01*
X183916573Y-88414098D01*
X183821899Y-88508772D01*
X183754951Y-88624727D01*
X183754951Y-88624728D01*
X183720300Y-88754048D01*
X158162500Y-88754048D01*
X158174742Y-88716373D01*
X158176427Y-88711185D01*
X158176430Y-88711176D01*
X158207300Y-88516268D01*
X158207300Y-88318932D01*
X158176430Y-88124024D01*
X158168324Y-88099076D01*
X158125978Y-87968747D01*
X158118018Y-87944248D01*
X181728700Y-87944248D01*
X181728700Y-88078149D01*
X181763351Y-88207469D01*
X181763351Y-88207470D01*
X181763353Y-88207473D01*
X181830299Y-88323425D01*
X181924974Y-88418100D01*
X182040926Y-88485046D01*
X182040928Y-88485047D01*
X182170249Y-88519698D01*
X182170253Y-88519698D01*
X182170255Y-88519699D01*
X182170257Y-88519699D01*
X182304143Y-88519699D01*
X182304145Y-88519699D01*
X182304147Y-88519698D01*
X182304150Y-88519698D01*
X182433470Y-88485047D01*
X182433471Y-88485047D01*
X182433471Y-88485046D01*
X182433474Y-88485046D01*
X182549426Y-88418100D01*
X182644101Y-88323425D01*
X182711047Y-88207473D01*
X182733405Y-88124030D01*
X182745699Y-88078149D01*
X182745700Y-88078142D01*
X182745700Y-87944255D01*
X182745699Y-87944248D01*
X182711048Y-87814928D01*
X182711048Y-87814927D01*
X182711047Y-87814925D01*
X182644101Y-87698973D01*
X182549426Y-87604298D01*
X182433474Y-87537352D01*
X182433471Y-87537350D01*
X182304150Y-87502699D01*
X182304145Y-87502699D01*
X182170255Y-87502699D01*
X182170249Y-87502699D01*
X182040929Y-87537350D01*
X182040928Y-87537350D01*
X181924973Y-87604298D01*
X181830299Y-87698972D01*
X181763351Y-87814927D01*
X181763351Y-87814928D01*
X181728700Y-87944248D01*
X158118018Y-87944248D01*
X158115450Y-87936345D01*
X158025860Y-87760517D01*
X157909870Y-87600870D01*
X157770329Y-87461329D01*
X157610682Y-87345339D01*
X157610683Y-87345339D01*
X157434854Y-87255749D01*
X157247185Y-87194772D01*
X157247169Y-87194768D01*
X157052274Y-87163900D01*
X157052268Y-87163900D01*
X156854932Y-87163900D01*
X156854925Y-87163900D01*
X156660030Y-87194768D01*
X156660014Y-87194772D01*
X156472345Y-87255749D01*
X156296517Y-87345339D01*
X156136870Y-87461329D01*
X155997329Y-87600870D01*
X155881339Y-87760517D01*
X155791749Y-87936345D01*
X155730772Y-88124014D01*
X155730768Y-88124030D01*
X155699900Y-88318925D01*
X148047299Y-88318925D01*
X148046281Y-88312499D01*
X148016431Y-88124029D01*
X148016080Y-88122567D01*
X148013301Y-88099085D01*
X148013301Y-86915049D01*
X162475501Y-86915049D01*
X162475501Y-87048950D01*
X162510152Y-87178270D01*
X162510152Y-87178271D01*
X162555249Y-87256379D01*
X162577100Y-87294226D01*
X162671775Y-87388901D01*
X162787727Y-87455847D01*
X162787729Y-87455848D01*
X162917050Y-87490499D01*
X162917054Y-87490499D01*
X162917056Y-87490500D01*
X162917058Y-87490500D01*
X163050944Y-87490500D01*
X163050946Y-87490500D01*
X163050948Y-87490499D01*
X163050951Y-87490499D01*
X163180271Y-87455848D01*
X163180272Y-87455848D01*
X163180272Y-87455847D01*
X163180275Y-87455847D01*
X163296227Y-87388901D01*
X163390902Y-87294226D01*
X163457848Y-87178274D01*
X163478539Y-87101052D01*
X163492500Y-87048950D01*
X163492501Y-87048943D01*
X163492501Y-86915056D01*
X163492500Y-86915049D01*
X163457849Y-86785729D01*
X163457849Y-86785728D01*
X163435728Y-86747414D01*
X163390902Y-86669774D01*
X163296227Y-86575099D01*
X163180275Y-86508153D01*
X163180272Y-86508151D01*
X163050951Y-86473500D01*
X163050946Y-86473500D01*
X162917056Y-86473500D01*
X162917050Y-86473500D01*
X162787730Y-86508151D01*
X162787729Y-86508151D01*
X162671774Y-86575099D01*
X162577100Y-86669773D01*
X162510152Y-86785728D01*
X162510152Y-86785729D01*
X162475501Y-86915049D01*
X148013301Y-86915049D01*
X148013301Y-85877100D01*
X148032514Y-85817969D01*
X148082814Y-85781424D01*
X148113901Y-85776500D01*
X151204008Y-85776500D01*
X169970500Y-85776500D01*
X170029631Y-85795713D01*
X170066176Y-85846013D01*
X170071100Y-85877100D01*
X170071100Y-86557798D01*
X170101131Y-86747406D01*
X170101135Y-86747422D01*
X170160458Y-86930001D01*
X170247614Y-87101052D01*
X170247619Y-87101061D01*
X170293274Y-87163900D01*
X170360463Y-87256379D01*
X170496219Y-87392135D01*
X170535048Y-87420345D01*
X170651538Y-87504980D01*
X170651546Y-87504984D01*
X170822597Y-87592140D01*
X171005176Y-87651463D01*
X171005179Y-87651463D01*
X171005186Y-87651466D01*
X171005191Y-87651466D01*
X171005192Y-87651467D01*
X171194800Y-87681498D01*
X171194805Y-87681499D01*
X171194807Y-87681499D01*
X173712054Y-87681499D01*
X173712055Y-87681500D01*
X173845945Y-87681500D01*
X173845945Y-87681499D01*
X173874994Y-87681500D01*
X174064615Y-87651467D01*
X174247203Y-87592141D01*
X174418263Y-87504981D01*
X174573583Y-87392135D01*
X174709336Y-87256382D01*
X174822182Y-87101062D01*
X174909342Y-86930002D01*
X174968668Y-86747414D01*
X174998701Y-86557793D01*
X174998701Y-86365807D01*
X174968668Y-86176186D01*
X174909342Y-85993598D01*
X174909342Y-85993597D01*
X174822186Y-85822546D01*
X174822182Y-85822538D01*
X174709336Y-85667218D01*
X174573583Y-85531465D01*
X174573581Y-85531463D01*
X174477211Y-85461447D01*
X174418263Y-85418619D01*
X174418257Y-85418616D01*
X174418254Y-85418614D01*
X174247203Y-85331458D01*
X174064624Y-85272135D01*
X174064608Y-85272131D01*
X173875000Y-85242100D01*
X173874995Y-85242099D01*
X172611100Y-85242099D01*
X172551969Y-85222886D01*
X172515424Y-85172586D01*
X172510500Y-85141499D01*
X172510500Y-84920648D01*
X181728700Y-84920648D01*
X181728700Y-85054549D01*
X181763351Y-85183869D01*
X181763351Y-85183870D01*
X181796970Y-85242099D01*
X181830299Y-85299825D01*
X181924974Y-85394500D01*
X182040926Y-85461446D01*
X182040928Y-85461447D01*
X182170249Y-85496098D01*
X182170253Y-85496098D01*
X182170255Y-85496099D01*
X182170257Y-85496099D01*
X182304143Y-85496099D01*
X182304145Y-85496099D01*
X182304147Y-85496098D01*
X182304150Y-85496098D01*
X182433470Y-85461447D01*
X182433471Y-85461447D01*
X182433471Y-85461446D01*
X182433474Y-85461446D01*
X182549426Y-85394500D01*
X182644101Y-85299825D01*
X182711047Y-85183873D01*
X182745700Y-85054544D01*
X182745700Y-84920654D01*
X182745699Y-84920652D01*
X182745699Y-84920648D01*
X182711048Y-84791328D01*
X182711048Y-84791327D01*
X182707915Y-84785900D01*
X182644101Y-84675373D01*
X182549426Y-84580698D01*
X182433474Y-84513752D01*
X182433471Y-84513750D01*
X182304150Y-84479099D01*
X182304145Y-84479099D01*
X182170255Y-84479099D01*
X182170249Y-84479099D01*
X182040929Y-84513750D01*
X182040928Y-84513750D01*
X181924973Y-84580698D01*
X181830299Y-84675372D01*
X181763351Y-84791327D01*
X181763351Y-84791328D01*
X181728700Y-84920648D01*
X172510500Y-84920648D01*
X172510500Y-84404965D01*
X172510500Y-84398792D01*
X172510501Y-84398789D01*
X172510501Y-84312049D01*
X178756900Y-84312049D01*
X178756900Y-84445950D01*
X178791551Y-84575270D01*
X178791551Y-84575271D01*
X178849346Y-84675372D01*
X178858499Y-84691226D01*
X178953174Y-84785901D01*
X179024251Y-84826938D01*
X179069128Y-84852848D01*
X179198449Y-84887499D01*
X179198453Y-84887499D01*
X179198455Y-84887500D01*
X179198457Y-84887500D01*
X179332343Y-84887500D01*
X179332345Y-84887500D01*
X179332347Y-84887499D01*
X179332350Y-84887499D01*
X179461670Y-84852848D01*
X179461671Y-84852848D01*
X179461671Y-84852847D01*
X179461674Y-84852847D01*
X179577626Y-84785901D01*
X179672301Y-84691226D01*
X179739247Y-84575274D01*
X179745292Y-84552712D01*
X179773899Y-84445950D01*
X179773900Y-84445943D01*
X179773900Y-84312056D01*
X179773899Y-84312049D01*
X179739248Y-84182729D01*
X179739248Y-84182728D01*
X179684901Y-84088598D01*
X179672301Y-84066774D01*
X179577626Y-83972099D01*
X179573651Y-83969804D01*
X179461671Y-83905151D01*
X179332350Y-83870500D01*
X179332345Y-83870500D01*
X179198455Y-83870500D01*
X179198449Y-83870500D01*
X179069129Y-83905151D01*
X179069128Y-83905151D01*
X178953173Y-83972099D01*
X178858499Y-84066773D01*
X178791551Y-84182728D01*
X178791551Y-84182729D01*
X178756900Y-84312049D01*
X172510501Y-84312049D01*
X172510501Y-84206805D01*
X172510501Y-84203250D01*
X172510500Y-84203220D01*
X172510500Y-83996297D01*
X172529713Y-83937166D01*
X172580013Y-83900621D01*
X172642187Y-83900621D01*
X172682235Y-83925162D01*
X172730174Y-83973101D01*
X172846126Y-84040047D01*
X172846128Y-84040048D01*
X172975449Y-84074699D01*
X172975453Y-84074699D01*
X172975455Y-84074700D01*
X172975457Y-84074700D01*
X173109343Y-84074700D01*
X173109345Y-84074700D01*
X173109347Y-84074699D01*
X173109350Y-84074699D01*
X173238670Y-84040048D01*
X173238671Y-84040048D01*
X173238671Y-84040047D01*
X173238674Y-84040047D01*
X173354626Y-83973101D01*
X173354626Y-83973100D01*
X173360336Y-83969804D01*
X173362028Y-83972735D01*
X173407408Y-83956331D01*
X173460055Y-83971551D01*
X173461064Y-83969804D01*
X173582728Y-84040048D01*
X173712049Y-84074699D01*
X173712053Y-84074699D01*
X173712055Y-84074700D01*
X173712057Y-84074700D01*
X173845943Y-84074700D01*
X173845945Y-84074700D01*
X173845947Y-84074699D01*
X173845950Y-84074699D01*
X173975270Y-84040048D01*
X173975271Y-84040048D01*
X173975271Y-84040047D01*
X173975274Y-84040047D01*
X174091226Y-83973101D01*
X174185901Y-83878426D01*
X174252847Y-83762474D01*
X174287500Y-83633145D01*
X174287500Y-83499255D01*
X174287499Y-83499253D01*
X174287499Y-83499249D01*
X174252848Y-83369929D01*
X174252848Y-83369928D01*
X174252847Y-83369926D01*
X174189899Y-83260899D01*
X174176973Y-83200085D01*
X174189898Y-83160302D01*
X174252848Y-83051273D01*
X174287501Y-82921944D01*
X174287501Y-82788054D01*
X174287500Y-82788052D01*
X174287500Y-82788048D01*
X174252849Y-82658728D01*
X174252849Y-82658727D01*
X174189901Y-82549700D01*
X174176974Y-82488884D01*
X174189899Y-82449101D01*
X174252848Y-82340074D01*
X174287501Y-82210745D01*
X174287501Y-82076855D01*
X174287500Y-82076853D01*
X174287500Y-82076849D01*
X174252849Y-81947529D01*
X174252849Y-81947528D01*
X174249515Y-81941754D01*
X174185902Y-81831574D01*
X174091227Y-81736899D01*
X173975275Y-81669953D01*
X173975272Y-81669951D01*
X173845951Y-81635300D01*
X173845946Y-81635300D01*
X173712056Y-81635300D01*
X173712050Y-81635300D01*
X173582730Y-81669951D01*
X173582729Y-81669951D01*
X173461065Y-81740196D01*
X173459461Y-81737418D01*
X173412990Y-81753696D01*
X173361465Y-81738241D01*
X173360337Y-81740196D01*
X173238672Y-81669951D01*
X173109351Y-81635300D01*
X173109346Y-81635300D01*
X172975456Y-81635300D01*
X172975450Y-81635300D01*
X172846130Y-81669951D01*
X172846129Y-81669951D01*
X172730174Y-81736899D01*
X172682235Y-81784839D01*
X172626837Y-81813065D01*
X172565429Y-81803339D01*
X172521465Y-81759375D01*
X172510500Y-81713704D01*
X172510500Y-80543100D01*
X172529713Y-80483969D01*
X172580013Y-80447424D01*
X172611100Y-80442500D01*
X173874996Y-80442500D01*
X173875000Y-80442499D01*
X174014332Y-80420431D01*
X174064615Y-80412467D01*
X174247203Y-80353141D01*
X174418263Y-80265981D01*
X174573583Y-80153135D01*
X174709336Y-80017382D01*
X174822182Y-79862062D01*
X174909342Y-79691002D01*
X174968668Y-79508414D01*
X174998701Y-79318793D01*
X174998701Y-79126807D01*
X174992515Y-79087753D01*
X174968669Y-78937192D01*
X174968668Y-78937191D01*
X174968668Y-78937186D01*
X174952364Y-78887007D01*
X174909342Y-78754597D01*
X174833528Y-78605806D01*
X174822182Y-78583538D01*
X174728901Y-78455147D01*
X174709337Y-78428219D01*
X174573581Y-78292463D01*
X174495923Y-78236042D01*
X174418263Y-78179619D01*
X174418257Y-78179616D01*
X174418254Y-78179614D01*
X174247203Y-78092458D01*
X174064624Y-78033135D01*
X174064608Y-78033131D01*
X173875000Y-78003100D01*
X173874994Y-78003100D01*
X173845949Y-78003100D01*
X173845945Y-78003099D01*
X173712055Y-78003099D01*
X173712051Y-78003100D01*
X173115522Y-78003100D01*
X173115506Y-78003099D01*
X173109345Y-78003099D01*
X172975455Y-78003099D01*
X172969294Y-78003099D01*
X172969278Y-78003100D01*
X172611100Y-78003100D01*
X172551969Y-77983887D01*
X172515424Y-77933587D01*
X172510500Y-77902500D01*
X172510500Y-76808097D01*
X172529713Y-76748966D01*
X172580013Y-76712421D01*
X172642187Y-76712421D01*
X172682235Y-76736962D01*
X172730174Y-76784901D01*
X172840996Y-76848885D01*
X172846128Y-76851848D01*
X172975449Y-76886499D01*
X172975453Y-76886499D01*
X172975455Y-76886500D01*
X172975457Y-76886500D01*
X173109343Y-76886500D01*
X173109345Y-76886500D01*
X173109347Y-76886499D01*
X173109350Y-76886499D01*
X173238670Y-76851848D01*
X173238671Y-76851848D01*
X173238671Y-76851847D01*
X173238674Y-76851847D01*
X173354626Y-76784901D01*
X173354626Y-76784900D01*
X173360336Y-76781604D01*
X173362028Y-76784535D01*
X173407408Y-76768131D01*
X173460055Y-76783351D01*
X173461064Y-76781604D01*
X173466773Y-76784900D01*
X173466774Y-76784901D01*
X173577596Y-76848885D01*
X173582728Y-76851848D01*
X173712049Y-76886499D01*
X173712053Y-76886499D01*
X173712055Y-76886500D01*
X173712057Y-76886500D01*
X173845943Y-76886500D01*
X173845945Y-76886500D01*
X173845947Y-76886499D01*
X173845950Y-76886499D01*
X173975270Y-76851848D01*
X173975271Y-76851848D01*
X173975271Y-76851847D01*
X173975274Y-76851847D01*
X174091226Y-76784901D01*
X174185901Y-76690226D01*
X174252847Y-76574274D01*
X174287500Y-76444945D01*
X174287500Y-76311055D01*
X174287499Y-76311053D01*
X174287499Y-76311049D01*
X174252848Y-76181729D01*
X174252848Y-76181728D01*
X174189900Y-76072701D01*
X174176973Y-76011885D01*
X174189898Y-75972102D01*
X174252848Y-75863073D01*
X174287501Y-75733744D01*
X174287501Y-75599854D01*
X174287500Y-75599852D01*
X174287500Y-75599848D01*
X174252849Y-75470528D01*
X174252849Y-75470527D01*
X174252848Y-75470525D01*
X174189900Y-75361498D01*
X174176974Y-75300684D01*
X174189899Y-75260901D01*
X174252848Y-75151874D01*
X174287501Y-75022545D01*
X174287501Y-74888655D01*
X174287500Y-74888653D01*
X174287500Y-74888649D01*
X174252849Y-74759329D01*
X174252849Y-74759328D01*
X174185901Y-74643373D01*
X174091227Y-74548699D01*
X173975272Y-74481751D01*
X173845951Y-74447100D01*
X173845946Y-74447100D01*
X173712056Y-74447100D01*
X173712050Y-74447100D01*
X173582730Y-74481751D01*
X173582729Y-74481751D01*
X173461065Y-74551996D01*
X173459461Y-74549218D01*
X173412990Y-74565496D01*
X173361465Y-74550041D01*
X173360337Y-74551996D01*
X173238672Y-74481751D01*
X173109351Y-74447100D01*
X173109346Y-74447100D01*
X172975456Y-74447100D01*
X172975450Y-74447100D01*
X172846130Y-74481751D01*
X172846129Y-74481751D01*
X172730174Y-74548699D01*
X172682235Y-74596639D01*
X172626837Y-74624865D01*
X172565429Y-74615139D01*
X172521465Y-74571175D01*
X172510500Y-74525504D01*
X172510500Y-73380300D01*
X172529713Y-73321169D01*
X172580013Y-73284624D01*
X172611100Y-73279700D01*
X173874995Y-73279700D01*
X173874999Y-73279699D01*
X174064614Y-73249667D01*
X174247202Y-73190341D01*
X174418262Y-73103181D01*
X174573582Y-72990335D01*
X174709335Y-72854582D01*
X174822181Y-72699262D01*
X174909341Y-72528202D01*
X174968667Y-72345614D01*
X174998700Y-72155993D01*
X174998700Y-71964007D01*
X174995361Y-71942923D01*
X175005087Y-71881514D01*
X175049050Y-71837550D01*
X175110459Y-71827823D01*
X175165855Y-71856049D01*
X176300143Y-72990335D01*
X176513372Y-73203564D01*
X176541598Y-73258962D01*
X176531872Y-73320370D01*
X176487908Y-73364334D01*
X176442237Y-73375299D01*
X176089391Y-73375299D01*
X176056759Y-73377868D01*
X176056742Y-73377870D01*
X176025693Y-73382788D01*
X176025671Y-73382791D01*
X176025663Y-73382793D01*
X176024010Y-73383073D01*
X176021047Y-73383577D01*
X176021042Y-73383578D01*
X175935644Y-73420079D01*
X175935640Y-73420082D01*
X175885350Y-73456619D01*
X175885342Y-73456625D01*
X175857166Y-73481242D01*
X175809528Y-73560975D01*
X175809527Y-73560976D01*
X175790315Y-73620103D01*
X175790314Y-73620108D01*
X175780100Y-73684593D01*
X175780100Y-76310125D01*
X175780101Y-79306249D01*
X175780101Y-80361300D01*
X175760888Y-80420431D01*
X175710588Y-80456976D01*
X175679501Y-80461900D01*
X175149592Y-80461900D01*
X175116960Y-80464469D01*
X175116943Y-80464471D01*
X175085894Y-80469389D01*
X175085872Y-80469392D01*
X175085864Y-80469394D01*
X175084211Y-80469674D01*
X175081248Y-80470178D01*
X175081243Y-80470179D01*
X174995845Y-80506680D01*
X174995841Y-80506683D01*
X174945551Y-80543220D01*
X174945542Y-80543227D01*
X174917367Y-80567844D01*
X174869730Y-80647574D01*
X174850515Y-80706707D01*
X174850515Y-80706709D01*
X174840301Y-80771195D01*
X174840300Y-80771196D01*
X174840300Y-81738407D01*
X174841951Y-81759375D01*
X174842870Y-81771049D01*
X174847794Y-81802136D01*
X174848578Y-81806751D01*
X174848579Y-81806756D01*
X174885080Y-81892154D01*
X174885081Y-81892156D01*
X174885082Y-81892157D01*
X174921627Y-81942457D01*
X174946244Y-81970633D01*
X175025977Y-82018271D01*
X175085108Y-82037484D01*
X175149595Y-82047698D01*
X175149597Y-82047699D01*
X175149600Y-82047699D01*
X188384991Y-82047699D01*
X188385001Y-82047699D01*
X188417651Y-82045129D01*
X188448738Y-82040205D01*
X188453353Y-82039421D01*
X188538759Y-82002917D01*
X188589059Y-81966372D01*
X188617235Y-81941755D01*
X188664873Y-81862022D01*
X188684086Y-81802891D01*
X188694301Y-81738399D01*
X188694300Y-75639746D01*
X188713513Y-75580616D01*
X188763813Y-75544071D01*
X188820937Y-75542575D01*
X188881393Y-75558774D01*
X189541754Y-75558774D01*
X189600885Y-75577987D01*
X189637430Y-75628287D01*
X189642354Y-75659374D01*
X189642355Y-87082795D01*
X189642355Y-87190942D01*
X189670342Y-87295390D01*
X189670344Y-87295395D01*
X189724330Y-87388901D01*
X189724415Y-87389048D01*
X192965690Y-90630323D01*
X192993915Y-90685719D01*
X192995154Y-90701456D01*
X192995154Y-92899400D01*
X192975941Y-92958531D01*
X192925641Y-92995076D01*
X192894554Y-93000000D01*
X134481175Y-93000000D01*
X134422044Y-92980787D01*
X134385499Y-92930487D01*
X134380575Y-92899400D01*
X134380574Y-90738249D01*
X172533900Y-90738249D01*
X172533900Y-90872150D01*
X172568551Y-91001470D01*
X172568551Y-91001471D01*
X172568553Y-91001474D01*
X172635499Y-91117426D01*
X172730174Y-91212101D01*
X172846126Y-91279047D01*
X172846128Y-91279048D01*
X172975449Y-91313699D01*
X172975453Y-91313699D01*
X172975455Y-91313700D01*
X172975457Y-91313700D01*
X173109343Y-91313700D01*
X173109345Y-91313700D01*
X173109347Y-91313699D01*
X173109350Y-91313699D01*
X173238670Y-91279048D01*
X173238671Y-91279048D01*
X173238671Y-91279047D01*
X173238674Y-91279047D01*
X173354626Y-91212101D01*
X173354626Y-91212100D01*
X173360336Y-91208804D01*
X173362028Y-91211735D01*
X173407408Y-91195331D01*
X173460055Y-91210551D01*
X173461064Y-91208804D01*
X173582728Y-91279048D01*
X173712049Y-91313699D01*
X173712053Y-91313699D01*
X173712055Y-91313700D01*
X173712057Y-91313700D01*
X173845943Y-91313700D01*
X173845945Y-91313700D01*
X173845947Y-91313699D01*
X173845950Y-91313699D01*
X173975270Y-91279048D01*
X173975271Y-91279048D01*
X173975271Y-91279047D01*
X173975274Y-91279047D01*
X174091226Y-91212101D01*
X174185901Y-91117426D01*
X174252847Y-91001474D01*
X174287500Y-90872145D01*
X174287500Y-90738255D01*
X174287499Y-90738253D01*
X174287499Y-90738249D01*
X174252848Y-90608929D01*
X174252848Y-90608928D01*
X174252846Y-90608924D01*
X174189899Y-90499898D01*
X174176973Y-90439085D01*
X174189898Y-90399302D01*
X174252848Y-90290273D01*
X174287501Y-90160944D01*
X174287501Y-90027054D01*
X174287500Y-90027052D01*
X174287500Y-90027048D01*
X174252849Y-89897728D01*
X174252849Y-89897727D01*
X174252847Y-89897723D01*
X174189899Y-89788696D01*
X174186009Y-89770393D01*
X174177590Y-89753682D01*
X174179872Y-89741522D01*
X174176973Y-89727883D01*
X174187596Y-89692318D01*
X174188692Y-89690190D01*
X174244085Y-89594249D01*
X181728701Y-89594249D01*
X181728701Y-89728150D01*
X181763352Y-89857470D01*
X181763352Y-89857471D01*
X181763354Y-89857474D01*
X181830300Y-89973426D01*
X181924975Y-90068101D01*
X182040927Y-90135047D01*
X182040929Y-90135048D01*
X182170250Y-90169699D01*
X182170254Y-90169699D01*
X182170256Y-90169700D01*
X182170258Y-90169700D01*
X182304144Y-90169700D01*
X182304146Y-90169700D01*
X182304148Y-90169699D01*
X182304151Y-90169699D01*
X182433471Y-90135048D01*
X182433472Y-90135048D01*
X182433472Y-90135047D01*
X182433475Y-90135047D01*
X182549427Y-90068101D01*
X182644102Y-89973426D01*
X182711048Y-89857474D01*
X182742117Y-89741522D01*
X182745700Y-89728150D01*
X182745701Y-89728143D01*
X182745701Y-89594256D01*
X182745700Y-89594249D01*
X182711049Y-89464929D01*
X182711049Y-89464928D01*
X182702283Y-89449745D01*
X182644102Y-89348974D01*
X182549427Y-89254299D01*
X182548821Y-89253949D01*
X182433472Y-89187351D01*
X182304151Y-89152700D01*
X182304146Y-89152700D01*
X182170256Y-89152700D01*
X182170250Y-89152700D01*
X182040930Y-89187351D01*
X182040929Y-89187351D01*
X181924974Y-89254299D01*
X181830300Y-89348973D01*
X181763352Y-89464928D01*
X181763352Y-89464929D01*
X181728701Y-89594249D01*
X174244085Y-89594249D01*
X174252847Y-89579073D01*
X174283432Y-89464926D01*
X174287499Y-89449749D01*
X174287500Y-89449742D01*
X174287500Y-89315855D01*
X174287499Y-89315848D01*
X174252848Y-89186528D01*
X174252848Y-89186527D01*
X174227441Y-89142522D01*
X174185901Y-89070573D01*
X174091226Y-88975898D01*
X173975274Y-88908952D01*
X173975271Y-88908950D01*
X173845950Y-88874299D01*
X173845945Y-88874299D01*
X173712055Y-88874299D01*
X173712049Y-88874299D01*
X173582729Y-88908950D01*
X173582728Y-88908950D01*
X173461064Y-88979195D01*
X173459531Y-88976540D01*
X173412226Y-88992709D01*
X173361552Y-88977090D01*
X173360337Y-88979196D01*
X173238672Y-88908951D01*
X173109351Y-88874300D01*
X173109346Y-88874300D01*
X172975456Y-88874300D01*
X172975450Y-88874300D01*
X172846130Y-88908951D01*
X172846129Y-88908951D01*
X172730174Y-88975899D01*
X172635500Y-89070573D01*
X172568552Y-89186528D01*
X172568552Y-89186529D01*
X172533901Y-89315849D01*
X172533901Y-89449750D01*
X172568552Y-89579070D01*
X172568554Y-89579075D01*
X172631500Y-89688099D01*
X172644427Y-89748914D01*
X172631500Y-89788699D01*
X172568554Y-89897723D01*
X172568552Y-89897728D01*
X172533901Y-90027048D01*
X172533901Y-90160949D01*
X172568552Y-90290269D01*
X172568554Y-90290274D01*
X172631500Y-90399298D01*
X172644427Y-90460113D01*
X172631500Y-90499898D01*
X172568553Y-90608924D01*
X172568551Y-90608929D01*
X172533900Y-90738249D01*
X134380574Y-90738249D01*
X134380574Y-90731661D01*
X134380574Y-90428406D01*
X134399787Y-90369275D01*
X134410033Y-90357277D01*
X136448385Y-88318925D01*
X137919900Y-88318925D01*
X137919900Y-88516274D01*
X137950768Y-88711169D01*
X137950772Y-88711185D01*
X138011749Y-88898854D01*
X138101339Y-89074682D01*
X138217329Y-89234329D01*
X138356870Y-89373870D01*
X138371745Y-89384677D01*
X138498743Y-89476947D01*
X138516517Y-89489860D01*
X138516516Y-89489860D01*
X138692345Y-89579450D01*
X138880014Y-89640427D01*
X138880017Y-89640427D01*
X138880024Y-89640430D01*
X138880029Y-89640430D01*
X138880030Y-89640431D01*
X139074925Y-89671299D01*
X139074930Y-89671300D01*
X139074932Y-89671300D01*
X139272270Y-89671300D01*
X139272274Y-89671299D01*
X139467176Y-89640430D01*
X139654854Y-89579450D01*
X139830682Y-89489861D01*
X139990331Y-89373869D01*
X140129869Y-89234331D01*
X140245861Y-89074682D01*
X140335450Y-88898854D01*
X140396430Y-88711176D01*
X140427300Y-88516268D01*
X140427300Y-88318932D01*
X140396430Y-88124024D01*
X140388324Y-88099076D01*
X140335450Y-87936345D01*
X140245860Y-87760517D01*
X140129870Y-87600870D01*
X139990329Y-87461329D01*
X139830682Y-87345339D01*
X139830683Y-87345339D01*
X139654854Y-87255749D01*
X139467185Y-87194772D01*
X139467169Y-87194768D01*
X139272274Y-87163900D01*
X139272268Y-87163900D01*
X139074932Y-87163900D01*
X139074925Y-87163900D01*
X138880030Y-87194768D01*
X138880014Y-87194772D01*
X138692345Y-87255749D01*
X138516517Y-87345339D01*
X138356870Y-87461329D01*
X138217329Y-87600870D01*
X138101339Y-87760517D01*
X138011749Y-87936345D01*
X137950772Y-88124014D01*
X137950768Y-88124030D01*
X137919900Y-88318925D01*
X136448385Y-88318925D01*
X137600243Y-87167067D01*
X137600246Y-87167066D01*
X137676714Y-87090598D01*
X137730785Y-86996944D01*
X137734069Y-86984687D01*
X137758775Y-86892487D01*
X137758775Y-86784345D01*
X137758775Y-86778185D01*
X137758774Y-86778167D01*
X137758774Y-81135437D01*
X137777987Y-81076306D01*
X137828287Y-81039761D01*
X137890461Y-81039761D01*
X137940761Y-81076306D01*
X137955050Y-81104350D01*
X138011749Y-81278854D01*
X138101339Y-81454682D01*
X138217329Y-81614329D01*
X138217331Y-81614331D01*
X138356869Y-81753869D01*
X138505731Y-81862024D01*
X138516517Y-81869860D01*
X138516516Y-81869860D01*
X138692345Y-81959450D01*
X138880014Y-82020427D01*
X138880017Y-82020427D01*
X138880024Y-82020430D01*
X138880029Y-82020430D01*
X138880030Y-82020431D01*
X139074925Y-82051299D01*
X139074930Y-82051300D01*
X139074932Y-82051300D01*
X139272270Y-82051300D01*
X139272274Y-82051299D01*
X139295010Y-82047698D01*
X139467176Y-82020430D01*
X139654854Y-81959450D01*
X139830682Y-81869861D01*
X139990331Y-81753869D01*
X140129869Y-81614331D01*
X140245861Y-81454682D01*
X140335450Y-81278854D01*
X140396430Y-81091176D01*
X140427300Y-80896268D01*
X140427300Y-80698932D01*
X140396430Y-80504024D01*
X140388226Y-80478774D01*
X140335450Y-80316345D01*
X140282854Y-80213121D01*
X140245861Y-80140518D01*
X140152730Y-80012334D01*
X140129870Y-79980870D01*
X139990329Y-79841329D01*
X139830682Y-79725339D01*
X139830683Y-79725339D01*
X139654854Y-79635749D01*
X139467185Y-79574772D01*
X139467169Y-79574768D01*
X139272274Y-79543900D01*
X139272268Y-79543900D01*
X139074932Y-79543900D01*
X139074925Y-79543900D01*
X138880030Y-79574768D01*
X138880014Y-79574772D01*
X138692345Y-79635749D01*
X138516517Y-79725339D01*
X138356870Y-79841329D01*
X138217329Y-79980870D01*
X138101339Y-80140517D01*
X138011749Y-80316345D01*
X137955050Y-80490849D01*
X137918505Y-80541149D01*
X137859374Y-80560362D01*
X137800243Y-80541149D01*
X137763698Y-80490849D01*
X137758774Y-80459762D01*
X137758774Y-76819048D01*
X159021101Y-76819048D01*
X159021101Y-76952949D01*
X159055752Y-77082269D01*
X159055752Y-77082270D01*
X159077660Y-77120215D01*
X159122700Y-77198225D01*
X159217375Y-77292900D01*
X159320526Y-77352455D01*
X159333329Y-77359847D01*
X159462650Y-77394498D01*
X159462654Y-77394498D01*
X159462656Y-77394499D01*
X159462658Y-77394499D01*
X159596544Y-77394499D01*
X159596546Y-77394499D01*
X159596548Y-77394498D01*
X159596551Y-77394498D01*
X159725871Y-77359847D01*
X159725872Y-77359847D01*
X159725872Y-77359846D01*
X159725875Y-77359846D01*
X159841827Y-77292900D01*
X159936502Y-77198225D01*
X160003448Y-77082273D01*
X160024510Y-77003669D01*
X160038100Y-76952949D01*
X160038101Y-76952942D01*
X160038101Y-76819055D01*
X160038100Y-76819048D01*
X160003449Y-76689728D01*
X160003449Y-76689727D01*
X159936791Y-76574274D01*
X159936502Y-76573773D01*
X159841827Y-76479098D01*
X159775816Y-76440986D01*
X159725872Y-76412150D01*
X159596551Y-76377499D01*
X159596546Y-76377499D01*
X159462656Y-76377499D01*
X159462650Y-76377499D01*
X159333330Y-76412150D01*
X159333329Y-76412150D01*
X159217374Y-76479098D01*
X159122700Y-76573772D01*
X159055752Y-76689727D01*
X159055752Y-76689728D01*
X159021101Y-76819048D01*
X137758774Y-76819048D01*
X137758774Y-75659374D01*
X137777987Y-75600243D01*
X137828287Y-75563698D01*
X137859374Y-75558774D01*
X139205533Y-75558774D01*
X139205535Y-75558774D01*
X139205537Y-75558773D01*
X139205540Y-75558773D01*
X139309988Y-75530786D01*
X139309987Y-75530786D01*
X139309992Y-75530785D01*
X139403646Y-75476714D01*
X139480114Y-75400246D01*
X139534185Y-75306592D01*
X139562174Y-75202135D01*
X139562174Y-73855973D01*
X139581387Y-73796842D01*
X139631687Y-73760297D01*
X139662774Y-73755373D01*
X150770619Y-73755373D01*
X150770623Y-73755374D01*
X150790632Y-73755374D01*
X150898772Y-73755374D01*
X150898774Y-73755374D01*
X150898776Y-73755373D01*
X150898779Y-73755373D01*
X151003227Y-73727386D01*
X151003226Y-73727386D01*
X151003231Y-73727385D01*
X151096885Y-73673314D01*
X151173353Y-73596846D01*
X151173354Y-73596845D01*
X151176950Y-73593249D01*
X162475501Y-73593249D01*
X162475501Y-73727150D01*
X162510152Y-73856470D01*
X162510152Y-73856471D01*
X162510154Y-73856474D01*
X162577100Y-73972426D01*
X162671775Y-74067101D01*
X162787727Y-74134047D01*
X162787729Y-74134048D01*
X162917050Y-74168699D01*
X162917054Y-74168699D01*
X162917056Y-74168700D01*
X162917058Y-74168700D01*
X163050944Y-74168700D01*
X163050946Y-74168700D01*
X163050948Y-74168699D01*
X163050951Y-74168699D01*
X163180271Y-74134048D01*
X163180272Y-74134048D01*
X163180272Y-74134047D01*
X163180275Y-74134047D01*
X163296227Y-74067101D01*
X163390902Y-73972426D01*
X163457848Y-73856474D01*
X163484937Y-73755374D01*
X163492500Y-73727150D01*
X163492501Y-73727143D01*
X163492501Y-73593256D01*
X163492500Y-73593249D01*
X163457849Y-73463929D01*
X163457849Y-73463928D01*
X163432534Y-73420082D01*
X163390902Y-73347974D01*
X163296227Y-73253299D01*
X163210085Y-73203564D01*
X163180272Y-73186351D01*
X163050951Y-73151700D01*
X163050946Y-73151700D01*
X162917056Y-73151700D01*
X162917050Y-73151700D01*
X162787730Y-73186351D01*
X162787729Y-73186351D01*
X162671774Y-73253299D01*
X162577100Y-73347973D01*
X162510152Y-73463928D01*
X162510152Y-73463929D01*
X162475501Y-73593249D01*
X151176950Y-73593249D01*
X152241997Y-72528202D01*
X153436027Y-71334173D01*
X161610379Y-71334173D01*
X161610379Y-71468074D01*
X161645030Y-71597394D01*
X161645030Y-71597395D01*
X161645032Y-71597398D01*
X161711978Y-71713350D01*
X161806653Y-71808025D01*
X161922605Y-71874971D01*
X161922607Y-71874972D01*
X162051928Y-71909623D01*
X162051932Y-71909623D01*
X162051934Y-71909624D01*
X162051936Y-71909624D01*
X162185822Y-71909624D01*
X162185824Y-71909624D01*
X162185826Y-71909623D01*
X162185829Y-71909623D01*
X162315149Y-71874972D01*
X162315150Y-71874972D01*
X162315150Y-71874971D01*
X162315153Y-71874971D01*
X162431105Y-71808025D01*
X162525780Y-71713350D01*
X162592726Y-71597398D01*
X162627379Y-71468069D01*
X162627379Y-71334179D01*
X162627377Y-71334173D01*
X162626968Y-71332648D01*
X166945900Y-71332648D01*
X166945900Y-71466549D01*
X166980551Y-71595869D01*
X166980551Y-71595870D01*
X166981433Y-71597398D01*
X167047499Y-71711825D01*
X167142174Y-71806500D01*
X167227996Y-71856050D01*
X167258128Y-71873447D01*
X167387449Y-71908098D01*
X167387453Y-71908098D01*
X167387455Y-71908099D01*
X167387457Y-71908099D01*
X167521343Y-71908099D01*
X167521345Y-71908099D01*
X167521347Y-71908098D01*
X167521350Y-71908098D01*
X167644979Y-71874972D01*
X167650670Y-71873447D01*
X167650671Y-71873447D01*
X167650671Y-71873446D01*
X167650674Y-71873446D01*
X167766626Y-71806500D01*
X167861301Y-71711825D01*
X167928247Y-71595873D01*
X167962490Y-71468074D01*
X167962899Y-71466549D01*
X167962900Y-71466542D01*
X167962900Y-71332655D01*
X167962899Y-71332648D01*
X167928248Y-71203328D01*
X167928248Y-71203327D01*
X167928247Y-71203325D01*
X167861301Y-71087373D01*
X167766626Y-70992698D01*
X167657441Y-70929659D01*
X167650671Y-70925750D01*
X167521350Y-70891099D01*
X167521345Y-70891099D01*
X167387455Y-70891099D01*
X167387449Y-70891099D01*
X167258129Y-70925750D01*
X167258128Y-70925750D01*
X167142173Y-70992698D01*
X167047499Y-71087372D01*
X166980551Y-71203327D01*
X166980551Y-71203328D01*
X166945900Y-71332648D01*
X162626968Y-71332648D01*
X162592727Y-71204853D01*
X162592727Y-71204852D01*
X162591847Y-71203327D01*
X162525780Y-71088898D01*
X162431105Y-70994223D01*
X162315153Y-70927277D01*
X162315150Y-70927275D01*
X162185829Y-70892624D01*
X162185824Y-70892624D01*
X162051934Y-70892624D01*
X162051928Y-70892624D01*
X161922608Y-70927275D01*
X161922607Y-70927275D01*
X161806652Y-70994223D01*
X161711978Y-71088897D01*
X161645030Y-71204852D01*
X161645030Y-71204853D01*
X161610379Y-71334173D01*
X153436027Y-71334173D01*
X153513750Y-71256450D01*
X154363561Y-70406639D01*
X154418959Y-70378413D01*
X154434696Y-70377174D01*
X173645309Y-70377174D01*
X173704440Y-70396387D01*
G37*
%TD.AperFunction*%
%TD*%
%TA.AperFunction,Conductor*%
%TO.N,/Light Sensor/LS_3V3*%
G36*
X176090401Y-81838999D02*
G01*
X175988801Y-81838999D01*
X175149600Y-81838999D01*
X175090469Y-81819786D01*
X175053924Y-81769486D01*
X175049000Y-81738399D01*
X175049001Y-80771200D01*
X175068214Y-80712069D01*
X175118514Y-80675524D01*
X175149601Y-80670600D01*
X175988801Y-80670600D01*
X176090400Y-80670600D01*
X176090401Y-81838999D01*
G37*
%TD.AperFunction*%
%TD*%
%TA.AperFunction,Conductor*%
%TO.N,/Light Sensor/LS_3V3*%
G36*
X176911268Y-73603212D02*
G01*
X176923271Y-73613464D01*
X176983117Y-73673309D01*
X176983121Y-73673313D01*
X177076775Y-73727384D01*
X177076776Y-73727384D01*
X177076778Y-73727385D01*
X177181226Y-73755372D01*
X177181230Y-73755372D01*
X177181232Y-73755373D01*
X177181234Y-73755373D01*
X187874630Y-73755373D01*
X187874631Y-73755374D01*
X187884748Y-73755373D01*
X187982773Y-73755374D01*
X187982773Y-73755373D01*
X188385000Y-73755373D01*
X188444131Y-73774586D01*
X188480676Y-73824886D01*
X188485600Y-73855973D01*
X188485601Y-81738399D01*
X188466388Y-81797530D01*
X188416088Y-81834075D01*
X188385001Y-81838999D01*
X176090401Y-81838999D01*
X176090400Y-80956249D01*
X181743701Y-80956249D01*
X181743701Y-81090150D01*
X181778352Y-81219470D01*
X181778352Y-81219471D01*
X181778354Y-81219474D01*
X181845300Y-81335426D01*
X181939975Y-81430101D01*
X182055927Y-81497047D01*
X182055929Y-81497048D01*
X182185250Y-81531699D01*
X182185254Y-81531699D01*
X182185256Y-81531700D01*
X182185258Y-81531700D01*
X182319144Y-81531700D01*
X182319146Y-81531700D01*
X182319148Y-81531699D01*
X182319151Y-81531699D01*
X182448471Y-81497048D01*
X182448472Y-81497048D01*
X182448472Y-81497047D01*
X182448475Y-81497047D01*
X182564427Y-81430101D01*
X182659102Y-81335426D01*
X182726048Y-81219474D01*
X182760701Y-81090145D01*
X182760701Y-80956255D01*
X182760700Y-80956253D01*
X182760700Y-80956249D01*
X182726049Y-80826929D01*
X182726049Y-80826928D01*
X182665410Y-80721900D01*
X182659102Y-80710974D01*
X182564427Y-80616299D01*
X182448475Y-80549353D01*
X182448472Y-80549351D01*
X182319151Y-80514700D01*
X182319146Y-80514700D01*
X182185256Y-80514700D01*
X182185250Y-80514700D01*
X182055930Y-80549351D01*
X182055929Y-80549351D01*
X181939974Y-80616299D01*
X181845300Y-80710973D01*
X181778352Y-80826928D01*
X181778352Y-80826929D01*
X181743701Y-80956249D01*
X176090400Y-80956249D01*
X176090400Y-80670600D01*
X175988801Y-80670600D01*
X175988801Y-80146449D01*
X183735301Y-80146449D01*
X183735301Y-80280350D01*
X183769952Y-80409670D01*
X183769952Y-80409671D01*
X183769954Y-80409674D01*
X183836900Y-80525626D01*
X183931575Y-80620301D01*
X184047527Y-80687247D01*
X184047529Y-80687248D01*
X184176850Y-80721899D01*
X184176854Y-80721899D01*
X184176856Y-80721900D01*
X184176858Y-80721900D01*
X184310744Y-80721900D01*
X184310746Y-80721900D01*
X184310748Y-80721899D01*
X184310751Y-80721899D01*
X184440071Y-80687248D01*
X184440072Y-80687248D01*
X184440072Y-80687247D01*
X184440075Y-80687247D01*
X184556027Y-80620301D01*
X184650702Y-80525626D01*
X184717648Y-80409674D01*
X184752301Y-80280345D01*
X184752301Y-80146455D01*
X184752300Y-80146453D01*
X184752300Y-80146449D01*
X184717649Y-80017129D01*
X184717649Y-80017128D01*
X184650701Y-79901173D01*
X184556027Y-79806499D01*
X184440072Y-79739551D01*
X184310751Y-79704900D01*
X184310746Y-79704900D01*
X184176856Y-79704900D01*
X184176850Y-79704900D01*
X184047530Y-79739551D01*
X184047529Y-79739551D01*
X183931574Y-79806499D01*
X183836900Y-79901173D01*
X183769952Y-80017128D01*
X183769952Y-80017129D01*
X183735301Y-80146449D01*
X175988801Y-80146449D01*
X175988801Y-79306249D01*
X181743701Y-79306249D01*
X181743701Y-79440150D01*
X181778352Y-79569470D01*
X181778352Y-79569471D01*
X181778354Y-79569474D01*
X181845300Y-79685426D01*
X181939975Y-79780101D01*
X182055927Y-79847047D01*
X182055929Y-79847048D01*
X182185250Y-79881699D01*
X182185254Y-79881699D01*
X182185256Y-79881700D01*
X182185258Y-79881700D01*
X182319144Y-79881700D01*
X182319146Y-79881700D01*
X182319148Y-79881699D01*
X182319151Y-79881699D01*
X182448471Y-79847048D01*
X182448472Y-79847048D01*
X182448472Y-79847047D01*
X182448475Y-79847047D01*
X182564427Y-79780101D01*
X182659102Y-79685426D01*
X182726048Y-79569474D01*
X182760701Y-79440145D01*
X182760701Y-79306255D01*
X182760700Y-79306253D01*
X182760700Y-79306249D01*
X182726049Y-79176929D01*
X182726049Y-79176928D01*
X182726048Y-79176926D01*
X182659102Y-79060974D01*
X182564427Y-78966299D01*
X182448472Y-78899351D01*
X182319151Y-78864700D01*
X182319146Y-78864700D01*
X182185256Y-78864700D01*
X182185250Y-78864700D01*
X182055930Y-78899351D01*
X182055929Y-78899351D01*
X181939974Y-78966299D01*
X181845300Y-79060973D01*
X181778352Y-79176928D01*
X181778352Y-79176929D01*
X181743701Y-79306249D01*
X175988801Y-79306249D01*
X175988800Y-76282649D01*
X181743701Y-76282649D01*
X181743701Y-76416550D01*
X181778352Y-76545870D01*
X181778352Y-76545871D01*
X181778354Y-76545874D01*
X181845300Y-76661826D01*
X181939975Y-76756501D01*
X182055927Y-76823447D01*
X182055929Y-76823448D01*
X182185250Y-76858099D01*
X182185254Y-76858099D01*
X182185256Y-76858100D01*
X182185258Y-76858100D01*
X182319144Y-76858100D01*
X182319146Y-76858100D01*
X182319148Y-76858099D01*
X182319151Y-76858099D01*
X182448471Y-76823448D01*
X182448472Y-76823448D01*
X182448472Y-76823447D01*
X182448475Y-76823447D01*
X182564427Y-76756501D01*
X182659102Y-76661826D01*
X182726048Y-76545874D01*
X182760701Y-76416545D01*
X182760701Y-76282655D01*
X182760700Y-76282653D01*
X182760700Y-76282649D01*
X182726049Y-76153329D01*
X182726049Y-76153328D01*
X182659101Y-76037373D01*
X182564427Y-75942699D01*
X182448472Y-75875751D01*
X182319151Y-75841100D01*
X182319146Y-75841100D01*
X182185256Y-75841100D01*
X182185250Y-75841100D01*
X182055930Y-75875751D01*
X182055929Y-75875751D01*
X181939974Y-75942699D01*
X181845300Y-76037373D01*
X181778352Y-76153328D01*
X181778352Y-76153329D01*
X181743701Y-76282649D01*
X175988800Y-76282649D01*
X175988800Y-75447448D01*
X179772901Y-75447448D01*
X179772901Y-75581349D01*
X179807552Y-75710669D01*
X179807552Y-75710670D01*
X179807554Y-75710673D01*
X179874500Y-75826625D01*
X179969175Y-75921300D01*
X180006239Y-75942699D01*
X180085129Y-75988247D01*
X180214450Y-76022898D01*
X180214454Y-76022898D01*
X180214456Y-76022899D01*
X180214458Y-76022899D01*
X180348344Y-76022899D01*
X180348346Y-76022899D01*
X180348348Y-76022898D01*
X180348351Y-76022898D01*
X180477671Y-75988247D01*
X180477672Y-75988247D01*
X180477672Y-75988246D01*
X180477675Y-75988246D01*
X180593627Y-75921300D01*
X180688302Y-75826625D01*
X180755248Y-75710673D01*
X180789901Y-75581344D01*
X180789901Y-75447454D01*
X180789900Y-75447452D01*
X180789900Y-75447448D01*
X180755249Y-75318128D01*
X180755249Y-75318127D01*
X180688301Y-75202172D01*
X180593627Y-75107498D01*
X180477672Y-75040550D01*
X180348351Y-75005899D01*
X180348346Y-75005899D01*
X180214456Y-75005899D01*
X180214450Y-75005899D01*
X180085130Y-75040550D01*
X180085129Y-75040550D01*
X179969174Y-75107498D01*
X179874500Y-75202172D01*
X179807552Y-75318127D01*
X179807552Y-75318128D01*
X179772901Y-75447448D01*
X175988800Y-75447448D01*
X175988800Y-74632649D01*
X181743700Y-74632649D01*
X181743700Y-74766550D01*
X181778351Y-74895870D01*
X181778351Y-74895871D01*
X181832430Y-74989536D01*
X181845299Y-75011826D01*
X181939974Y-75106501D01*
X182055926Y-75173447D01*
X182055928Y-75173448D01*
X182185249Y-75208099D01*
X182185253Y-75208099D01*
X182185255Y-75208100D01*
X182185257Y-75208100D01*
X182319143Y-75208100D01*
X182319145Y-75208100D01*
X182319147Y-75208099D01*
X182319150Y-75208099D01*
X182448470Y-75173448D01*
X182448471Y-75173448D01*
X182448471Y-75173447D01*
X182448474Y-75173447D01*
X182564426Y-75106501D01*
X182659101Y-75011826D01*
X182726047Y-74895874D01*
X182760700Y-74766545D01*
X182760700Y-74632655D01*
X182760699Y-74632653D01*
X182760699Y-74632649D01*
X182726048Y-74503329D01*
X182726048Y-74503328D01*
X182659100Y-74387373D01*
X182564426Y-74292699D01*
X182448471Y-74225751D01*
X182319150Y-74191100D01*
X182319145Y-74191100D01*
X182185255Y-74191100D01*
X182185249Y-74191100D01*
X182055929Y-74225751D01*
X182055928Y-74225751D01*
X181939973Y-74292699D01*
X181845299Y-74387373D01*
X181778351Y-74503328D01*
X181778351Y-74503329D01*
X181743700Y-74632649D01*
X175988800Y-74632649D01*
X175988800Y-73684598D01*
X176008013Y-73625468D01*
X176058313Y-73588923D01*
X176089400Y-73583999D01*
X176852137Y-73583999D01*
X176911268Y-73603212D01*
G37*
%TD.AperFunction*%
%TD*%
%TA.AperFunction,Conductor*%
%TO.N,/GPIO Expander/GE_3V3*%
G36*
X151689831Y-116810613D02*
G01*
X151726376Y-116860913D01*
X151731300Y-116892000D01*
X151731300Y-118287869D01*
X151712087Y-118347000D01*
X151701835Y-118359004D01*
X151032805Y-119028034D01*
X150977407Y-119056260D01*
X150961670Y-119057499D01*
X150859649Y-119057499D01*
X150730329Y-119092150D01*
X150730328Y-119092150D01*
X150614373Y-119159098D01*
X150519699Y-119253772D01*
X150452751Y-119369727D01*
X150452751Y-119369728D01*
X150418100Y-119499048D01*
X150418100Y-119632949D01*
X150452751Y-119762269D01*
X150452751Y-119762270D01*
X150452753Y-119762273D01*
X150519699Y-119878225D01*
X150614374Y-119972900D01*
X150730326Y-120039846D01*
X150730328Y-120039847D01*
X150859649Y-120074498D01*
X150859653Y-120074498D01*
X150859655Y-120074499D01*
X150859657Y-120074499D01*
X150993543Y-120074499D01*
X150993545Y-120074499D01*
X150993547Y-120074498D01*
X150993550Y-120074498D01*
X151122870Y-120039847D01*
X151122871Y-120039847D01*
X151122871Y-120039846D01*
X151122874Y-120039846D01*
X151238826Y-119972900D01*
X151333501Y-119878225D01*
X151400447Y-119762273D01*
X151435100Y-119632944D01*
X151435100Y-119530927D01*
X151454313Y-119471796D01*
X151464565Y-119459792D01*
X151832207Y-119092150D01*
X152143767Y-118780590D01*
X152199164Y-118752365D01*
X152260572Y-118762091D01*
X152304536Y-118806055D01*
X152315501Y-118851726D01*
X152315501Y-120709267D01*
X152296288Y-120768398D01*
X152286036Y-120780402D01*
X151023804Y-122042634D01*
X150968406Y-122070860D01*
X150952669Y-122072099D01*
X150850648Y-122072099D01*
X150721328Y-122106750D01*
X150721327Y-122106750D01*
X150605372Y-122173698D01*
X150510698Y-122268372D01*
X150443750Y-122384327D01*
X150443750Y-122384328D01*
X150409099Y-122513648D01*
X150409099Y-122647549D01*
X150443750Y-122776869D01*
X150443750Y-122776870D01*
X150443752Y-122776873D01*
X150510698Y-122892825D01*
X150605373Y-122987500D01*
X150721325Y-123054446D01*
X150721327Y-123054447D01*
X150850648Y-123089098D01*
X150850652Y-123089098D01*
X150850654Y-123089099D01*
X150850656Y-123089099D01*
X150984542Y-123089099D01*
X150984544Y-123089099D01*
X150984546Y-123089098D01*
X150984549Y-123089098D01*
X151113869Y-123054447D01*
X151113870Y-123054447D01*
X151113870Y-123054446D01*
X151113873Y-123054446D01*
X151229825Y-122987500D01*
X151324500Y-122892825D01*
X151391446Y-122776873D01*
X151426099Y-122647544D01*
X151426099Y-122545527D01*
X151445312Y-122486396D01*
X151455564Y-122474392D01*
X151661584Y-122268372D01*
X152865102Y-121064857D01*
X152905295Y-120995239D01*
X152926101Y-120917591D01*
X152926101Y-116892000D01*
X152945314Y-116832869D01*
X152995614Y-116796324D01*
X153026701Y-116791400D01*
X157054999Y-116791400D01*
X157114130Y-116810613D01*
X157150675Y-116860913D01*
X157155599Y-116892000D01*
X157155599Y-124945799D01*
X157136386Y-125004930D01*
X157086086Y-125041475D01*
X157054999Y-125046399D01*
X144759399Y-125046399D01*
X144700268Y-125027186D01*
X144663723Y-124976886D01*
X144658799Y-124945799D01*
X144658799Y-124163649D01*
X150409100Y-124163649D01*
X150409100Y-124297550D01*
X150443751Y-124426870D01*
X150443751Y-124426871D01*
X150443753Y-124426874D01*
X150510699Y-124542826D01*
X150605374Y-124637501D01*
X150721326Y-124704447D01*
X150721328Y-124704448D01*
X150850649Y-124739099D01*
X150850653Y-124739099D01*
X150850655Y-124739100D01*
X150850657Y-124739100D01*
X150984543Y-124739100D01*
X150984545Y-124739100D01*
X150984547Y-124739099D01*
X150984550Y-124739099D01*
X151113870Y-124704448D01*
X151113871Y-124704448D01*
X151113871Y-124704447D01*
X151113874Y-124704447D01*
X151229826Y-124637501D01*
X151324501Y-124542826D01*
X151391447Y-124426874D01*
X151426100Y-124297545D01*
X151426100Y-124163655D01*
X151426099Y-124163653D01*
X151426099Y-124163649D01*
X151391448Y-124034329D01*
X151391448Y-124034328D01*
X151324500Y-123918373D01*
X151229826Y-123823699D01*
X151113871Y-123756751D01*
X150984550Y-123722100D01*
X150984545Y-123722100D01*
X150850655Y-123722100D01*
X150850649Y-123722100D01*
X150721329Y-123756751D01*
X150721328Y-123756751D01*
X150605373Y-123823699D01*
X150510699Y-123918373D01*
X150443751Y-124034328D01*
X150443751Y-124034329D01*
X150409100Y-124163649D01*
X144658799Y-124163649D01*
X144658799Y-123328449D01*
X152379899Y-123328449D01*
X152379899Y-123462350D01*
X152414550Y-123591670D01*
X152414550Y-123591671D01*
X152414552Y-123591674D01*
X152481498Y-123707626D01*
X152576173Y-123802301D01*
X152613235Y-123823699D01*
X152692127Y-123869248D01*
X152821448Y-123903899D01*
X152821452Y-123903899D01*
X152821454Y-123903900D01*
X152821456Y-123903900D01*
X152955342Y-123903900D01*
X152955344Y-123903900D01*
X152955346Y-123903899D01*
X152955349Y-123903899D01*
X153084669Y-123869248D01*
X153084670Y-123869248D01*
X153084670Y-123869247D01*
X153084673Y-123869247D01*
X153200625Y-123802301D01*
X153295300Y-123707626D01*
X153362246Y-123591674D01*
X153396899Y-123462345D01*
X153396899Y-123328455D01*
X153396898Y-123328453D01*
X153396898Y-123328449D01*
X153362247Y-123199129D01*
X153362247Y-123199128D01*
X153362246Y-123199126D01*
X153295300Y-123083174D01*
X153200625Y-122988499D01*
X153084673Y-122921553D01*
X153084670Y-122921551D01*
X152955349Y-122886900D01*
X152955344Y-122886900D01*
X152821454Y-122886900D01*
X152821448Y-122886900D01*
X152692128Y-122921551D01*
X152692127Y-122921551D01*
X152576172Y-122988499D01*
X152481498Y-123083173D01*
X152414550Y-123199128D01*
X152414550Y-123199129D01*
X152379899Y-123328449D01*
X144658799Y-123328449D01*
X144658799Y-118652649D01*
X148411700Y-118652649D01*
X148411700Y-118786550D01*
X148446351Y-118915870D01*
X148446351Y-118915871D01*
X148446353Y-118915874D01*
X148513299Y-119031826D01*
X148607974Y-119126501D01*
X148664433Y-119159098D01*
X148723928Y-119193448D01*
X148853249Y-119228099D01*
X148853253Y-119228099D01*
X148853255Y-119228100D01*
X148853257Y-119228100D01*
X148987143Y-119228100D01*
X148987145Y-119228100D01*
X148987147Y-119228099D01*
X148987150Y-119228099D01*
X149116470Y-119193448D01*
X149116471Y-119193448D01*
X149116471Y-119193447D01*
X149116474Y-119193447D01*
X149232426Y-119126501D01*
X149327101Y-119031826D01*
X149394047Y-118915874D01*
X149411235Y-118851726D01*
X149428699Y-118786550D01*
X149428700Y-118786543D01*
X149428700Y-118652656D01*
X149428699Y-118652649D01*
X149394048Y-118523329D01*
X149394048Y-118523328D01*
X149394047Y-118523326D01*
X149327101Y-118407374D01*
X149232426Y-118312699D01*
X149116474Y-118245753D01*
X149116471Y-118245751D01*
X148987150Y-118211100D01*
X148987145Y-118211100D01*
X148853255Y-118211100D01*
X148853249Y-118211100D01*
X148723929Y-118245751D01*
X148723928Y-118245751D01*
X148607973Y-118312699D01*
X148513299Y-118407373D01*
X148446351Y-118523328D01*
X148446351Y-118523329D01*
X148411700Y-118652649D01*
X144658799Y-118652649D01*
X144658799Y-117840049D01*
X150409099Y-117840049D01*
X150409099Y-117973950D01*
X150443750Y-118103270D01*
X150443750Y-118103271D01*
X150443752Y-118103274D01*
X150510698Y-118219226D01*
X150605373Y-118313901D01*
X150721325Y-118380847D01*
X150721327Y-118380848D01*
X150850648Y-118415499D01*
X150850652Y-118415499D01*
X150850654Y-118415500D01*
X150850656Y-118415500D01*
X150984542Y-118415500D01*
X150984544Y-118415500D01*
X150984546Y-118415499D01*
X150984549Y-118415499D01*
X151113869Y-118380848D01*
X151113870Y-118380848D01*
X151113870Y-118380847D01*
X151113873Y-118380847D01*
X151229825Y-118313901D01*
X151324500Y-118219226D01*
X151391446Y-118103274D01*
X151426099Y-117973945D01*
X151426099Y-117840055D01*
X151426098Y-117840053D01*
X151426098Y-117840049D01*
X151391447Y-117710729D01*
X151391447Y-117710728D01*
X151324499Y-117594773D01*
X151229825Y-117500099D01*
X151113870Y-117433151D01*
X150984549Y-117398500D01*
X150984544Y-117398500D01*
X150850654Y-117398500D01*
X150850648Y-117398500D01*
X150721328Y-117433151D01*
X150721327Y-117433151D01*
X150605372Y-117500099D01*
X150510698Y-117594773D01*
X150443750Y-117710728D01*
X150443750Y-117710729D01*
X150409099Y-117840049D01*
X144658799Y-117840049D01*
X144658799Y-116892000D01*
X144678012Y-116832869D01*
X144728312Y-116796324D01*
X144759399Y-116791400D01*
X151630700Y-116791400D01*
X151689831Y-116810613D01*
G37*
%TD.AperFunction*%
%TD*%
M02*
