%TF.GenerationSoftware,KiCad,Pcbnew,9.0.7*%
%TF.CreationDate,2026-02-05T16:55:30-05:00*%
%TF.ProjectId,Header,48656164-6572-42e6-9b69-6361645f7063,rev?*%
%TF.SameCoordinates,Original*%
%TF.FileFunction,Legend,Top*%
%TF.FilePolarity,Positive*%
%FSLAX46Y46*%
G04 Gerber Fmt 4.6, Leading zero omitted, Abs format (unit mm)*
G04 Created by KiCad (PCBNEW 9.0.7) date 2026-02-05 16:55:30*
%MOMM*%
%LPD*%
G01*
G04 APERTURE LIST*
%ADD10C,0.203200*%
%ADD11C,0.120000*%
%ADD12C,0.076200*%
G04 APERTURE END LIST*
D10*
X154631912Y-103601892D02*
X153180484Y-103601892D01*
X144319513Y-103576492D02*
X142868085Y-103576492D01*
X143593799Y-102850777D02*
X143593799Y-104302206D01*
D11*
%TO.C,J1*%
X143580000Y-102053500D02*
X143580001Y-100673500D01*
X144960000Y-102053499D02*
X143580000Y-102053500D01*
X146230000Y-99293500D02*
X153960000Y-99293501D01*
X146230000Y-102053500D02*
X146230000Y-99293500D01*
X146230000Y-102053500D02*
X153960000Y-102053499D01*
X153960000Y-102053499D02*
X153960000Y-99293501D01*
%TO.C,J2*%
X146110000Y-104593500D02*
X146110001Y-103213500D01*
X147490000Y-104593499D02*
X146110000Y-104593500D01*
X148760000Y-101833500D02*
X151410000Y-101833500D01*
X148760000Y-104593500D02*
X148760000Y-101833500D01*
X148760000Y-104593500D02*
X151410000Y-104593500D01*
X151410000Y-104593500D02*
X151410000Y-101833500D01*
D12*
%TO.C,H7*%
X141270001Y-103443500D02*
X141270000Y-100443500D01*
X142770000Y-98943500D02*
X154770000Y-98943500D01*
X154770000Y-104943500D02*
X142770000Y-104943499D01*
X156270000Y-100443500D02*
X156270000Y-103443500D01*
X141270000Y-100443500D02*
G75*
G02*
X142770000Y-98943500I1500001J-1D01*
G01*
X142770000Y-104943500D02*
G75*
G02*
X141270000Y-103443500I1J1500001D01*
G01*
X154770000Y-98943500D02*
G75*
G02*
X156270000Y-100443500I0J-1500000D01*
G01*
X156270000Y-103443500D02*
G75*
G02*
X154770000Y-104943500I-1500000J0D01*
G01*
%TD*%
M02*
