%TF.GenerationSoftware,KiCad,Pcbnew,9.0.7*%
%TF.CreationDate,2026-02-05T16:55:30-05:00*%
%TF.ProjectId,Header,48656164-6572-42e6-9b69-6361645f7063,rev?*%
%TF.SameCoordinates,Original*%
%TF.FileFunction,Copper,L1,Top*%
%TF.FilePolarity,Positive*%
%FSLAX46Y46*%
G04 Gerber Fmt 4.6, Leading zero omitted, Abs format (unit mm)*
G04 Created by KiCad (PCBNEW 9.0.7) date 2026-02-05 16:55:30*
%MOMM*%
%LPD*%
G01*
G04 APERTURE LIST*
%TA.AperFunction,ComponentPad*%
%ADD10R,1.700000X1.700000*%
%TD*%
%TA.AperFunction,ComponentPad*%
%ADD11C,1.700000*%
%TD*%
%TA.AperFunction,ComponentPad*%
%ADD12C,3.800000*%
%TD*%
%TA.AperFunction,ViaPad*%
%ADD13C,0.609600*%
%TD*%
%TA.AperFunction,Conductor*%
%ADD14C,0.635000*%
%TD*%
%TA.AperFunction,Conductor*%
%ADD15C,1.016000*%
%TD*%
G04 APERTURE END LIST*
D10*
%TO.P,J1,1,Pin_1*%
%TO.N,VBUS*%
X144960000Y-100673500D03*
D11*
%TO.P,J1,2,Pin_2*%
%TO.N,/D+*%
X147500000Y-100673500D03*
%TO.P,J1,3,Pin_3*%
%TO.N,/D-*%
X150039999Y-100673500D03*
%TO.P,J1,4,Pin_4*%
%TO.N,GND*%
X152580000Y-100673500D03*
%TD*%
D10*
%TO.P,J2,1,Pin_1*%
%TO.N,SYSTEM_VDD*%
X147490000Y-103213500D03*
D11*
%TO.P,J2,2,Pin_2*%
%TO.N,SYSTEM_VSS*%
X150030000Y-103213500D03*
%TD*%
D12*
%TO.P,H7,1,1*%
%TO.N,GND*%
X138270000Y-101943500D03*
X159270000Y-101943500D03*
%TD*%
D13*
%TO.N,VBUS*%
X166344000Y-98608900D03*
%TO.N,GND*%
X126155200Y-103721500D03*
X126155200Y-104603899D03*
X172341200Y-100089300D03*
%TO.N,SYSTEM_VSS*%
X131050200Y-100682900D03*
X131050200Y-99657500D03*
%TD*%
D14*
%TO.N,VBUS*%
X147024600Y-98608900D02*
X144960000Y-100673500D01*
X166344000Y-98608900D02*
X147024600Y-98608900D01*
D15*
%TO.N,SYSTEM_VSS*%
X131050200Y-100682900D02*
X131050200Y-99657500D01*
X149354200Y-105042300D02*
X150030000Y-104366500D01*
X132895000Y-105042300D02*
X149354200Y-105042300D01*
X131050200Y-103197500D02*
X132895000Y-105042300D01*
X131050200Y-100682900D02*
X131050200Y-103197500D01*
X150030000Y-104366500D02*
X150030000Y-103213500D01*
%TD*%
%TA.AperFunction,Conductor*%
%TO.N,GND*%
G36*
X176407431Y-97834213D02*
G01*
X176443976Y-97884513D01*
X176448900Y-97915600D01*
X176448900Y-105971400D01*
X176429687Y-106030531D01*
X176379387Y-106067076D01*
X176348300Y-106072000D01*
X125204900Y-106072000D01*
X125145769Y-106052787D01*
X125109224Y-106002487D01*
X125104300Y-105971400D01*
X125104300Y-103123261D01*
X130338499Y-103123261D01*
X130338499Y-103127404D01*
X130338499Y-103267596D01*
X130348382Y-103317280D01*
X130365849Y-103405095D01*
X130392674Y-103469855D01*
X130392674Y-103469856D01*
X130419497Y-103534613D01*
X130419498Y-103534616D01*
X130497387Y-103651184D01*
X130600025Y-103753822D01*
X130600035Y-103753831D01*
X132342183Y-105495979D01*
X132342186Y-105495983D01*
X132441317Y-105595114D01*
X132557883Y-105673001D01*
X132584708Y-105684111D01*
X132622645Y-105699826D01*
X132622646Y-105699826D01*
X132687405Y-105726651D01*
X132824904Y-105754001D01*
X132824905Y-105754001D01*
X132970055Y-105754001D01*
X132970075Y-105754000D01*
X149279125Y-105754000D01*
X149279145Y-105754001D01*
X149284104Y-105754001D01*
X149424295Y-105754001D01*
X149424296Y-105754001D01*
X149561795Y-105726651D01*
X149626554Y-105699826D01*
X149626555Y-105699826D01*
X149653380Y-105688714D01*
X149691317Y-105673001D01*
X149807883Y-105595114D01*
X149907014Y-105495983D01*
X149907015Y-105495981D01*
X149912741Y-105490255D01*
X149912747Y-105490248D01*
X150477948Y-104925047D01*
X150477955Y-104925041D01*
X150483681Y-104919315D01*
X150483683Y-104919314D01*
X150582814Y-104820183D01*
X150660701Y-104703617D01*
X150676414Y-104665680D01*
X150714351Y-104574095D01*
X150741701Y-104436596D01*
X150741701Y-104296403D01*
X150741701Y-104292260D01*
X150741700Y-104292234D01*
X150741700Y-104033626D01*
X150760913Y-103974495D01*
X150771165Y-103962491D01*
X150848462Y-103885194D01*
X150848463Y-103885192D01*
X150936236Y-103753831D01*
X150963776Y-103712614D01*
X151043207Y-103520853D01*
X151083700Y-103317280D01*
X151083700Y-103109720D01*
X151043207Y-102906147D01*
X150963776Y-102714386D01*
X150848462Y-102541806D01*
X150701694Y-102395038D01*
X150701692Y-102395036D01*
X150529118Y-102279726D01*
X150529110Y-102279722D01*
X150463312Y-102252467D01*
X150337353Y-102200293D01*
X150337349Y-102200292D01*
X150337352Y-102200292D01*
X150174272Y-102167854D01*
X150133780Y-102159800D01*
X149926220Y-102159800D01*
X149885728Y-102167854D01*
X149722648Y-102200292D01*
X149530889Y-102279722D01*
X149530881Y-102279726D01*
X149358307Y-102395036D01*
X149358306Y-102395038D01*
X149211538Y-102541806D01*
X149211536Y-102541807D01*
X149096226Y-102714381D01*
X149096222Y-102714389D01*
X149016792Y-102906148D01*
X148976300Y-103109720D01*
X148976300Y-103317279D01*
X149016792Y-103520851D01*
X149096222Y-103712610D01*
X149096226Y-103712618D01*
X149211536Y-103885192D01*
X149287039Y-103960695D01*
X149315265Y-104016093D01*
X149305539Y-104077501D01*
X149287039Y-104102965D01*
X149088869Y-104301135D01*
X149033471Y-104329361D01*
X149017734Y-104330600D01*
X148594727Y-104330600D01*
X148535596Y-104311387D01*
X148499051Y-104261087D01*
X148499051Y-104198913D01*
X148511079Y-104174112D01*
X148531881Y-104142980D01*
X148543700Y-104083564D01*
X148543700Y-102343436D01*
X148531881Y-102284020D01*
X148486860Y-102216640D01*
X148419480Y-102171619D01*
X148419479Y-102171618D01*
X148371882Y-102162150D01*
X148360064Y-102159800D01*
X146619936Y-102159800D01*
X146610078Y-102161760D01*
X146560520Y-102171618D01*
X146493140Y-102216640D01*
X146448118Y-102284020D01*
X146436300Y-102343436D01*
X146436300Y-104083563D01*
X146448118Y-104142979D01*
X146448119Y-104142980D01*
X146468919Y-104174110D01*
X146485795Y-104233949D01*
X146464276Y-104292281D01*
X146412580Y-104326823D01*
X146385273Y-104330600D01*
X133231466Y-104330600D01*
X133172335Y-104311387D01*
X133160331Y-104301135D01*
X131791365Y-102932169D01*
X131763139Y-102876771D01*
X131761900Y-102861034D01*
X131761900Y-99803436D01*
X143906300Y-99803436D01*
X143906300Y-101543563D01*
X143918118Y-101602979D01*
X143918119Y-101602980D01*
X143963140Y-101670360D01*
X144030520Y-101715381D01*
X144089936Y-101727200D01*
X144089937Y-101727200D01*
X145830063Y-101727200D01*
X145830064Y-101727200D01*
X145889480Y-101715381D01*
X145956860Y-101670360D01*
X146001881Y-101602980D01*
X146013700Y-101543564D01*
X146013700Y-100569720D01*
X146446300Y-100569720D01*
X146446300Y-100777279D01*
X146486792Y-100980851D01*
X146566222Y-101172610D01*
X146566226Y-101172618D01*
X146681536Y-101345192D01*
X146828307Y-101491963D01*
X147000881Y-101607273D01*
X147000883Y-101607274D01*
X147000886Y-101607276D01*
X147192647Y-101686707D01*
X147396220Y-101727200D01*
X147396221Y-101727200D01*
X147603779Y-101727200D01*
X147603780Y-101727200D01*
X147807353Y-101686707D01*
X147999114Y-101607276D01*
X148171694Y-101491962D01*
X148318462Y-101345194D01*
X148433776Y-101172614D01*
X148513207Y-100980853D01*
X148553700Y-100777280D01*
X148553700Y-100569720D01*
X148986299Y-100569720D01*
X148986299Y-100777279D01*
X149026791Y-100980851D01*
X149106221Y-101172610D01*
X149106225Y-101172618D01*
X149221535Y-101345192D01*
X149368306Y-101491963D01*
X149540880Y-101607273D01*
X149540882Y-101607274D01*
X149540885Y-101607276D01*
X149732646Y-101686707D01*
X149936219Y-101727200D01*
X149936220Y-101727200D01*
X150143778Y-101727200D01*
X150143779Y-101727200D01*
X150347352Y-101686707D01*
X150539113Y-101607276D01*
X150711693Y-101491962D01*
X150858461Y-101345194D01*
X150973775Y-101172614D01*
X151053206Y-100980853D01*
X151093699Y-100777280D01*
X151093699Y-100569720D01*
X151053206Y-100366147D01*
X150973775Y-100174386D01*
X150858461Y-100001806D01*
X150711693Y-99855038D01*
X150711691Y-99855036D01*
X150539117Y-99739726D01*
X150539109Y-99739722D01*
X150473311Y-99712467D01*
X150347352Y-99660293D01*
X150347348Y-99660292D01*
X150347351Y-99660292D01*
X150184271Y-99627854D01*
X150143779Y-99619800D01*
X149936219Y-99619800D01*
X149895727Y-99627854D01*
X149732647Y-99660292D01*
X149540888Y-99739722D01*
X149540880Y-99739726D01*
X149368306Y-99855036D01*
X149368305Y-99855038D01*
X149221537Y-100001806D01*
X149221535Y-100001807D01*
X149106225Y-100174381D01*
X149106221Y-100174389D01*
X149026791Y-100366148D01*
X148986299Y-100569720D01*
X148553700Y-100569720D01*
X148513207Y-100366147D01*
X148433776Y-100174386D01*
X148318462Y-100001806D01*
X148171694Y-99855038D01*
X148171692Y-99855036D01*
X147999118Y-99739726D01*
X147999110Y-99739722D01*
X147933312Y-99712467D01*
X147807353Y-99660293D01*
X147807349Y-99660292D01*
X147807352Y-99660292D01*
X147644272Y-99627854D01*
X147603780Y-99619800D01*
X147396220Y-99619800D01*
X147355728Y-99627854D01*
X147192648Y-99660292D01*
X147000889Y-99739722D01*
X147000881Y-99739726D01*
X146828307Y-99855036D01*
X146828306Y-99855038D01*
X146681538Y-100001806D01*
X146681536Y-100001807D01*
X146566226Y-100174381D01*
X146566222Y-100174389D01*
X146486792Y-100366148D01*
X146446300Y-100569720D01*
X146013700Y-100569720D01*
X146013700Y-100398558D01*
X146032913Y-100339427D01*
X146043165Y-100327423D01*
X147211023Y-99159565D01*
X147266421Y-99131339D01*
X147282158Y-99130100D01*
X166412615Y-99130100D01*
X166412617Y-99130100D01*
X166545172Y-99094582D01*
X166545173Y-99094582D01*
X166545173Y-99094581D01*
X166545176Y-99094581D01*
X166664024Y-99025963D01*
X166761063Y-98928924D01*
X166829681Y-98810076D01*
X166865200Y-98677517D01*
X166865200Y-98540283D01*
X166829681Y-98407724D01*
X166761063Y-98288876D01*
X166664024Y-98191837D01*
X166545176Y-98123219D01*
X166545173Y-98123217D01*
X166412621Y-98087700D01*
X166412617Y-98087700D01*
X146955983Y-98087700D01*
X146955978Y-98087700D01*
X146823427Y-98123217D01*
X146823426Y-98123217D01*
X146704572Y-98191839D01*
X145306076Y-99590335D01*
X145250678Y-99618561D01*
X145234941Y-99619800D01*
X144089936Y-99619800D01*
X144080078Y-99621760D01*
X144030520Y-99631618D01*
X143963140Y-99676640D01*
X143918118Y-99744020D01*
X143906300Y-99803436D01*
X131761900Y-99803436D01*
X131761900Y-99587404D01*
X131734549Y-99449902D01*
X131680902Y-99320386D01*
X131680901Y-99320383D01*
X131603014Y-99203817D01*
X131503883Y-99104686D01*
X131387317Y-99026799D01*
X131387318Y-99026799D01*
X131387316Y-99026798D01*
X131387313Y-99026797D01*
X131257797Y-98973150D01*
X131166129Y-98954916D01*
X131120296Y-98945800D01*
X130980104Y-98945800D01*
X130945729Y-98952637D01*
X130842602Y-98973150D01*
X130713086Y-99026797D01*
X130713083Y-99026798D01*
X130596515Y-99104687D01*
X130497387Y-99203815D01*
X130419498Y-99320383D01*
X130419497Y-99320386D01*
X130365850Y-99449902D01*
X130338500Y-99587404D01*
X130338500Y-103123235D01*
X130338499Y-103123261D01*
X125104300Y-103123261D01*
X125104300Y-97915600D01*
X125123513Y-97856469D01*
X125173813Y-97819924D01*
X125204900Y-97815000D01*
X176348300Y-97815000D01*
X176407431Y-97834213D01*
G37*
%TD.AperFunction*%
%TD*%
M02*
