%TF.GenerationSoftware,KiCad,Pcbnew,9.0.7*%
%TF.CreationDate,2026-02-05T16:55:30-05:00*%
%TF.ProjectId,Header,48656164-6572-42e6-9b69-6361645f7063,rev?*%
%TF.SameCoordinates,Original*%
%TF.FileFunction,Legend,Bot*%
%TF.FilePolarity,Positive*%
%FSLAX46Y46*%
G04 Gerber Fmt 4.6, Leading zero omitted, Abs format (unit mm)*
G04 Created by KiCad (PCBNEW 9.0.7) date 2026-02-05 16:55:30*
%MOMM*%
%LPD*%
G01*
G04 APERTURE LIST*
%ADD10C,0.150000*%
%ADD11C,0.120000*%
G04 APERTURE END LIST*
D10*
X169677333Y-96133719D02*
X169677333Y-96848004D01*
X169677333Y-96848004D02*
X169724952Y-96990861D01*
X169724952Y-96990861D02*
X169820190Y-97086100D01*
X169820190Y-97086100D02*
X169963047Y-97133719D01*
X169963047Y-97133719D02*
X170058285Y-97133719D01*
X169296380Y-96133719D02*
X168677333Y-96133719D01*
X168677333Y-96133719D02*
X169010666Y-96514671D01*
X169010666Y-96514671D02*
X168867809Y-96514671D01*
X168867809Y-96514671D02*
X168772571Y-96562290D01*
X168772571Y-96562290D02*
X168724952Y-96609909D01*
X168724952Y-96609909D02*
X168677333Y-96705147D01*
X168677333Y-96705147D02*
X168677333Y-96943242D01*
X168677333Y-96943242D02*
X168724952Y-97038480D01*
X168724952Y-97038480D02*
X168772571Y-97086100D01*
X168772571Y-97086100D02*
X168867809Y-97133719D01*
X168867809Y-97133719D02*
X169153523Y-97133719D01*
X169153523Y-97133719D02*
X169248761Y-97086100D01*
X169248761Y-97086100D02*
X169296380Y-97038480D01*
X130383533Y-96133719D02*
X130383533Y-96848004D01*
X130383533Y-96848004D02*
X130431152Y-96990861D01*
X130431152Y-96990861D02*
X130526390Y-97086100D01*
X130526390Y-97086100D02*
X130669247Y-97133719D01*
X130669247Y-97133719D02*
X130764485Y-97133719D01*
X129478771Y-96467052D02*
X129478771Y-97133719D01*
X129716866Y-96086100D02*
X129954961Y-96800385D01*
X129954961Y-96800385D02*
X129335914Y-96800385D01*
D11*
%TO.C,J3*%
X163259000Y-98423900D02*
X165534000Y-98423900D01*
X163259000Y-102893900D02*
X163259000Y-98423900D01*
X165254000Y-104243900D02*
X165254000Y-106243900D01*
X165254000Y-106243900D02*
X164384000Y-106243900D01*
X173154000Y-98423900D02*
X173154000Y-97883900D01*
X173434000Y-104243900D02*
X165254000Y-104243900D01*
X173434000Y-106243900D02*
X173434000Y-104243900D01*
X174304000Y-106243900D02*
X173434000Y-106243900D01*
X175429000Y-98423900D02*
X173154000Y-98423900D01*
X175429000Y-102893900D02*
X175429000Y-98423900D01*
%TO.C,J4*%
X125965200Y-98423900D02*
X128240200Y-98423900D01*
X125965200Y-102893900D02*
X125965200Y-98423900D01*
X127960200Y-104243900D02*
X127960200Y-106243900D01*
X127960200Y-106243900D02*
X127090199Y-106243900D01*
X131860200Y-98423900D02*
X131860200Y-97883900D01*
X132140200Y-104243900D02*
X127960200Y-104243900D01*
X132140200Y-106243900D02*
X132140200Y-104243900D01*
X133010201Y-106243900D02*
X132140200Y-106243900D01*
X134135200Y-98423900D02*
X131860200Y-98423900D01*
X134135200Y-102893900D02*
X134135200Y-98423900D01*
%TD*%
M02*
