%TF.GenerationSoftware,KiCad,Pcbnew,9.0.7*%
%TF.CreationDate,2026-02-05T16:55:30-05:00*%
%TF.ProjectId,Header,48656164-6572-42e6-9b69-6361645f7063,rev?*%
%TF.SameCoordinates,Original*%
%TF.FileFunction,Copper,L2,Bot*%
%TF.FilePolarity,Positive*%
%FSLAX46Y46*%
G04 Gerber Fmt 4.6, Leading zero omitted, Abs format (unit mm)*
G04 Created by KiCad (PCBNEW 9.0.7) date 2026-02-05 16:55:30*
%MOMM*%
%LPD*%
G01*
G04 APERTURE LIST*
G04 Aperture macros list*
%AMRoundRect*
0 Rectangle with rounded corners*
0 $1 Rounding radius*
0 $2 $3 $4 $5 $6 $7 $8 $9 X,Y pos of 4 corners*
0 Add a 4 corners polygon primitive as box body*
4,1,4,$2,$3,$4,$5,$6,$7,$8,$9,$2,$3,0*
0 Add four circle primitives for the rounded corners*
1,1,$1+$1,$2,$3*
1,1,$1+$1,$4,$5*
1,1,$1+$1,$6,$7*
1,1,$1+$1,$8,$9*
0 Add four rect primitives between the rounded corners*
20,1,$1+$1,$2,$3,$4,$5,0*
20,1,$1+$1,$4,$5,$6,$7,0*
20,1,$1+$1,$6,$7,$8,$9,0*
20,1,$1+$1,$8,$9,$2,$3,0*%
G04 Aperture macros list end*
%TA.AperFunction,ComponentPad*%
%ADD10R,1.700000X1.700000*%
%TD*%
%TA.AperFunction,ComponentPad*%
%ADD11C,1.700000*%
%TD*%
%TA.AperFunction,ComponentPad*%
%ADD12C,3.800000*%
%TD*%
%TA.AperFunction,SMDPad,CuDef*%
%ADD13RoundRect,0.250000X0.300000X0.475000X-0.300000X0.475000X-0.300000X-0.475000X0.300000X-0.475000X0*%
%TD*%
%TA.AperFunction,SMDPad,CuDef*%
%ADD14RoundRect,0.250000X0.425000X1.200000X-0.425000X1.200000X-0.425000X-1.200000X0.425000X-1.200000X0*%
%TD*%
%TA.AperFunction,ViaPad*%
%ADD15C,0.609600*%
%TD*%
%TA.AperFunction,Conductor*%
%ADD16C,0.200000*%
%TD*%
%TA.AperFunction,Conductor*%
%ADD17C,0.635000*%
%TD*%
%TA.AperFunction,Conductor*%
%ADD18C,1.016000*%
%TD*%
G04 APERTURE END LIST*
D10*
%TO.P,J1,1,Pin_1*%
%TO.N,VBUS*%
X144960000Y-100673500D03*
D11*
%TO.P,J1,2,Pin_2*%
%TO.N,/D+*%
X147500000Y-100673500D03*
%TO.P,J1,3,Pin_3*%
%TO.N,/D-*%
X150039999Y-100673500D03*
%TO.P,J1,4,Pin_4*%
%TO.N,GND*%
X152580000Y-100673500D03*
%TD*%
D10*
%TO.P,J2,1,Pin_1*%
%TO.N,SYSTEM_VDD*%
X147490000Y-103213500D03*
D11*
%TO.P,J2,2,Pin_2*%
%TO.N,SYSTEM_VSS*%
X150030000Y-103213500D03*
%TD*%
D12*
%TO.P,H7,1,1*%
%TO.N,GND*%
X138270000Y-101943500D03*
X159270000Y-101943500D03*
%TD*%
D13*
%TO.P,J3,1,Pin_1*%
%TO.N,GND*%
X172344000Y-98608900D03*
%TO.P,J3,2,Pin_2*%
%TO.N,/D-*%
X170344000Y-98608900D03*
%TO.P,J3,3,Pin_3*%
%TO.N,/D+*%
X168344000Y-98608900D03*
%TO.P,J3,4,Pin_4*%
%TO.N,VBUS*%
X166344000Y-98608900D03*
D14*
%TO.P,J3,MP,MountPin*%
%TO.N,GND*%
X175239000Y-104603900D03*
X163449000Y-104603900D03*
%TD*%
D13*
%TO.P,J4,1,Pin_1*%
%TO.N,SYSTEM_VSS*%
X131050200Y-98608900D03*
%TO.P,J4,2,Pin_2*%
%TO.N,SYSTEM_VDD*%
X129050200Y-98608900D03*
D14*
%TO.P,J4,MP,MountPin*%
%TO.N,GND*%
X133945200Y-104603899D03*
X126155200Y-104603899D03*
%TD*%
D15*
%TO.N,VBUS*%
X166344000Y-98608900D03*
%TO.N,GND*%
X126155200Y-103721500D03*
X126155200Y-104603899D03*
X172341200Y-100089300D03*
%TO.N,SYSTEM_VSS*%
X131050200Y-100682900D03*
X131050200Y-99657500D03*
%TD*%
D16*
%TO.N,/D+*%
X161940598Y-98489100D02*
X149188402Y-98489100D01*
X164466978Y-101015480D02*
X161940598Y-98489100D01*
X148544999Y-99628501D02*
X147500000Y-100673500D01*
X169119000Y-99558900D02*
X169119000Y-100199302D01*
X148544999Y-99132503D02*
X148544999Y-99628501D01*
X168344000Y-98783900D02*
X169119000Y-99558900D01*
X149188402Y-98489100D02*
X148544999Y-99132503D01*
X169119000Y-100199302D02*
X168302822Y-101015480D01*
X168344000Y-98608900D02*
X168344000Y-98783900D01*
X168302822Y-101015480D02*
X164466978Y-101015480D01*
%TO.N,/D-*%
X170344000Y-98608900D02*
X170344000Y-98783900D01*
X148995001Y-99318897D02*
X148995001Y-99628501D01*
X148995001Y-99628501D02*
X150039999Y-100673499D01*
X169569000Y-100385698D02*
X168489218Y-101465480D01*
X161710602Y-98895500D02*
X149418398Y-98895500D01*
X168489218Y-101465480D02*
X164280582Y-101465480D01*
X149418398Y-98895500D02*
X148995001Y-99318897D01*
X170344000Y-98783900D02*
X169569000Y-99558900D01*
X150039999Y-100673499D02*
X150039999Y-100673500D01*
X164280582Y-101465480D02*
X161710602Y-98895500D01*
X169569000Y-99558900D02*
X169569000Y-100385698D01*
%TO.N,GND*%
X172344000Y-100086500D02*
X172341200Y-100089300D01*
D17*
X172344000Y-98608900D02*
X172344000Y-100086500D01*
D18*
%TO.N,SYSTEM_VSS*%
X131050200Y-99657500D02*
X131050200Y-98608900D01*
X131050200Y-100682900D02*
X131050200Y-99657500D01*
%TO.N,SYSTEM_VDD*%
X137419380Y-105042300D02*
X146839600Y-105042300D01*
X129050200Y-101299100D02*
X130195999Y-102444899D01*
X147490000Y-104391900D02*
X147490000Y-103213500D01*
X146839600Y-105042300D02*
X147490000Y-104391900D01*
X129050200Y-98608900D02*
X129050200Y-101299100D01*
X134821979Y-102444899D02*
X137419380Y-105042300D01*
X130195999Y-102444899D02*
X134821979Y-102444899D01*
%TD*%
%TA.AperFunction,Conductor*%
%TO.N,GND*%
G36*
X128298462Y-97834213D02*
G01*
X128335007Y-97884513D01*
X128335007Y-97946687D01*
X128334286Y-97948825D01*
X128299374Y-98048599D01*
X128296501Y-98079244D01*
X128296500Y-98079252D01*
X128296500Y-99138544D01*
X128296501Y-99138555D01*
X128299373Y-99169198D01*
X128299373Y-99169200D01*
X128299374Y-99169201D01*
X128320181Y-99228665D01*
X128332855Y-99264883D01*
X128338500Y-99298109D01*
X128338500Y-101224835D01*
X128338499Y-101224861D01*
X128338499Y-101369195D01*
X128365848Y-101506694D01*
X128365848Y-101506695D01*
X128381121Y-101543565D01*
X128419497Y-101636213D01*
X128419498Y-101636216D01*
X128419499Y-101636217D01*
X128494513Y-101748484D01*
X128497387Y-101752784D01*
X128600025Y-101855422D01*
X128600035Y-101855431D01*
X129643182Y-102898578D01*
X129643185Y-102898582D01*
X129742316Y-102997713D01*
X129858882Y-103075600D01*
X129941256Y-103109720D01*
X129988403Y-103129249D01*
X130125902Y-103156600D01*
X130125903Y-103156600D01*
X130271054Y-103156600D01*
X130271074Y-103156599D01*
X134485513Y-103156599D01*
X134544644Y-103175812D01*
X134556648Y-103186064D01*
X136863043Y-105492458D01*
X136863064Y-105492481D01*
X136866566Y-105495983D01*
X136965697Y-105595114D01*
X137082263Y-105673001D01*
X137097977Y-105679509D01*
X137120200Y-105688715D01*
X137211785Y-105726651D01*
X137349284Y-105754001D01*
X137349285Y-105754001D01*
X137494435Y-105754001D01*
X137494455Y-105754000D01*
X146764525Y-105754000D01*
X146764545Y-105754001D01*
X146769504Y-105754001D01*
X146909695Y-105754001D01*
X146909696Y-105754001D01*
X147047195Y-105726651D01*
X147111954Y-105699826D01*
X147111955Y-105699826D01*
X147138780Y-105688714D01*
X147176717Y-105673001D01*
X147293283Y-105595114D01*
X147392414Y-105495983D01*
X147392415Y-105495981D01*
X147398141Y-105490255D01*
X147398147Y-105490248D01*
X147937948Y-104950447D01*
X147937955Y-104950441D01*
X147943681Y-104944715D01*
X147943683Y-104944714D01*
X148042814Y-104845583D01*
X148120701Y-104729017D01*
X148136414Y-104691080D01*
X148174351Y-104599495D01*
X148201701Y-104461996D01*
X148201701Y-104367800D01*
X148220914Y-104308669D01*
X148271214Y-104272124D01*
X148302301Y-104267200D01*
X148360063Y-104267200D01*
X148360064Y-104267200D01*
X148419480Y-104255381D01*
X148486860Y-104210360D01*
X148531881Y-104142980D01*
X148543700Y-104083564D01*
X148543700Y-103109719D01*
X148976300Y-103109719D01*
X148976300Y-103317279D01*
X149016792Y-103520851D01*
X149096222Y-103712610D01*
X149096226Y-103712618D01*
X149211536Y-103885192D01*
X149358307Y-104031963D01*
X149530881Y-104147273D01*
X149530883Y-104147274D01*
X149530886Y-104147276D01*
X149722647Y-104226707D01*
X149926220Y-104267200D01*
X149926221Y-104267200D01*
X150133779Y-104267200D01*
X150133780Y-104267200D01*
X150337353Y-104226707D01*
X150529114Y-104147276D01*
X150701694Y-104031962D01*
X150848462Y-103885194D01*
X150963776Y-103712614D01*
X151043207Y-103520853D01*
X151083700Y-103317280D01*
X151083700Y-103109720D01*
X151043207Y-102906147D01*
X150963776Y-102714386D01*
X150848462Y-102541806D01*
X150701694Y-102395038D01*
X150701692Y-102395036D01*
X150529118Y-102279726D01*
X150529110Y-102279722D01*
X150463312Y-102252467D01*
X150337353Y-102200293D01*
X150337349Y-102200292D01*
X150337352Y-102200292D01*
X150174272Y-102167854D01*
X150133780Y-102159800D01*
X149926220Y-102159800D01*
X149885728Y-102167854D01*
X149722648Y-102200292D01*
X149530889Y-102279722D01*
X149530881Y-102279726D01*
X149358307Y-102395036D01*
X149358306Y-102395038D01*
X149211538Y-102541806D01*
X149211536Y-102541807D01*
X149096226Y-102714381D01*
X149096222Y-102714389D01*
X149016792Y-102906148D01*
X148976300Y-103109719D01*
X148543700Y-103109719D01*
X148543700Y-102343436D01*
X148531881Y-102284020D01*
X148486860Y-102216640D01*
X148419480Y-102171619D01*
X148419479Y-102171618D01*
X148371882Y-102162150D01*
X148360064Y-102159800D01*
X146619936Y-102159800D01*
X146610078Y-102161760D01*
X146560520Y-102171618D01*
X146493140Y-102216640D01*
X146448118Y-102284020D01*
X146436300Y-102343436D01*
X146436300Y-104083563D01*
X146448118Y-104142979D01*
X146448119Y-104142980D01*
X146468919Y-104174110D01*
X146485795Y-104233949D01*
X146464276Y-104292281D01*
X146412580Y-104326823D01*
X146385273Y-104330600D01*
X137755845Y-104330600D01*
X137696714Y-104311387D01*
X137684710Y-104301135D01*
X136540175Y-103156600D01*
X135378310Y-101994734D01*
X135378306Y-101994729D01*
X135275663Y-101892086D01*
X135159095Y-101814197D01*
X135159092Y-101814196D01*
X135094335Y-101787373D01*
X135029574Y-101760548D01*
X134892075Y-101733198D01*
X134751883Y-101733198D01*
X134746924Y-101733198D01*
X134746904Y-101733199D01*
X130532465Y-101733199D01*
X130473334Y-101713986D01*
X130461330Y-101703734D01*
X129791365Y-101033769D01*
X129763139Y-100978371D01*
X129761900Y-100962634D01*
X129761900Y-99298109D01*
X129767545Y-99264883D01*
X129801026Y-99169201D01*
X129803900Y-99138553D01*
X129803899Y-98079248D01*
X129801026Y-98048599D01*
X129766114Y-97948825D01*
X129764719Y-97886667D01*
X129800127Y-97835560D01*
X129858812Y-97815025D01*
X129861069Y-97815000D01*
X130239331Y-97815000D01*
X130298462Y-97834213D01*
X130335007Y-97884513D01*
X130335007Y-97946687D01*
X130334286Y-97948825D01*
X130299374Y-98048599D01*
X130296501Y-98079244D01*
X130296500Y-98079252D01*
X130296500Y-99138544D01*
X130296501Y-99138555D01*
X130299373Y-99169198D01*
X130299373Y-99169200D01*
X130299374Y-99169201D01*
X130320181Y-99228665D01*
X130332855Y-99264883D01*
X130338500Y-99298109D01*
X130338500Y-100752995D01*
X130365850Y-100890497D01*
X130419497Y-101020013D01*
X130419498Y-101020016D01*
X130419499Y-101020017D01*
X130497386Y-101136583D01*
X130596517Y-101235714D01*
X130713083Y-101313601D01*
X130777844Y-101340425D01*
X130842602Y-101367249D01*
X130842603Y-101367249D01*
X130842605Y-101367250D01*
X130980104Y-101394600D01*
X130980105Y-101394600D01*
X131120295Y-101394600D01*
X131120296Y-101394600D01*
X131257795Y-101367250D01*
X131387317Y-101313601D01*
X131503883Y-101235714D01*
X131603014Y-101136583D01*
X131680901Y-101020017D01*
X131734550Y-100890495D01*
X131761900Y-100752996D01*
X131761900Y-99803436D01*
X143906300Y-99803436D01*
X143906300Y-101543563D01*
X143918118Y-101602979D01*
X143918119Y-101602980D01*
X143963140Y-101670360D01*
X144030520Y-101715381D01*
X144089936Y-101727200D01*
X144089937Y-101727200D01*
X145830063Y-101727200D01*
X145830064Y-101727200D01*
X145889480Y-101715381D01*
X145956860Y-101670360D01*
X146001881Y-101602980D01*
X146013700Y-101543564D01*
X146013700Y-99803436D01*
X146001881Y-99744020D01*
X145956860Y-99676640D01*
X145889480Y-99631619D01*
X145889479Y-99631618D01*
X145841882Y-99622150D01*
X145830064Y-99619800D01*
X144089936Y-99619800D01*
X144080078Y-99621760D01*
X144030520Y-99631618D01*
X143963140Y-99676640D01*
X143918118Y-99744020D01*
X143906300Y-99803436D01*
X131761900Y-99803436D01*
X131761900Y-99587404D01*
X131761900Y-99298109D01*
X131767545Y-99264883D01*
X131801026Y-99169201D01*
X131803900Y-99138553D01*
X131803899Y-98079248D01*
X131801026Y-98048599D01*
X131766114Y-97948825D01*
X131764719Y-97886667D01*
X131800127Y-97835560D01*
X131858812Y-97815025D01*
X131861069Y-97815000D01*
X165533131Y-97815000D01*
X165592262Y-97834213D01*
X165628807Y-97884513D01*
X165628807Y-97946687D01*
X165628086Y-97948825D01*
X165593174Y-98048599D01*
X165590301Y-98079244D01*
X165590300Y-98079252D01*
X165590300Y-99138544D01*
X165590301Y-99138555D01*
X165593173Y-99169198D01*
X165638346Y-99298295D01*
X165715300Y-99402564D01*
X165719562Y-99408338D01*
X165829605Y-99489554D01*
X165958699Y-99534726D01*
X165989347Y-99537600D01*
X166698652Y-99537599D01*
X166729301Y-99534726D01*
X166858395Y-99489554D01*
X166968438Y-99408338D01*
X167049654Y-99298295D01*
X167094826Y-99169201D01*
X167097700Y-99138553D01*
X167097699Y-98079248D01*
X167094826Y-98048599D01*
X167059914Y-97948825D01*
X167058519Y-97886667D01*
X167093927Y-97835560D01*
X167152612Y-97815025D01*
X167154869Y-97815000D01*
X167533131Y-97815000D01*
X167592262Y-97834213D01*
X167628807Y-97884513D01*
X167628807Y-97946687D01*
X167628086Y-97948825D01*
X167593174Y-98048599D01*
X167590301Y-98079244D01*
X167590300Y-98079252D01*
X167590300Y-99138544D01*
X167590301Y-99138555D01*
X167593173Y-99169198D01*
X167638346Y-99298295D01*
X167715300Y-99402564D01*
X167719562Y-99408338D01*
X167829605Y-99489554D01*
X167958699Y-99534726D01*
X167989347Y-99537600D01*
X168626532Y-99537599D01*
X168634252Y-99540107D01*
X168642269Y-99538838D01*
X168663257Y-99549532D01*
X168685663Y-99556812D01*
X168697667Y-99567064D01*
X168785835Y-99655232D01*
X168814061Y-99710630D01*
X168815300Y-99726367D01*
X168815300Y-100031835D01*
X168796087Y-100090966D01*
X168785835Y-100102970D01*
X168206490Y-100682315D01*
X168151092Y-100710541D01*
X168135355Y-100711780D01*
X164634445Y-100711780D01*
X164575314Y-100692567D01*
X164563310Y-100682315D01*
X162127072Y-98246077D01*
X162057823Y-98206096D01*
X162057817Y-98206093D01*
X161980587Y-98185401D01*
X161980582Y-98185400D01*
X161980581Y-98185400D01*
X149228385Y-98185400D01*
X149148418Y-98185400D01*
X149148415Y-98185400D01*
X149101956Y-98197849D01*
X149086469Y-98201999D01*
X149076773Y-98204596D01*
X149071177Y-98206096D01*
X149071174Y-98206097D01*
X149001927Y-98246077D01*
X149001926Y-98246079D01*
X148945379Y-98302626D01*
X148344373Y-98903631D01*
X148301976Y-98946028D01*
X148261995Y-99015277D01*
X148261992Y-99015283D01*
X148241300Y-99092513D01*
X148241299Y-99092521D01*
X148241299Y-99461033D01*
X148222086Y-99520164D01*
X148211834Y-99532168D01*
X148050296Y-99693705D01*
X147994898Y-99721931D01*
X147940663Y-99715512D01*
X147824112Y-99667235D01*
X147807353Y-99660293D01*
X147807351Y-99660292D01*
X147807352Y-99660292D01*
X147644272Y-99627854D01*
X147603780Y-99619800D01*
X147396220Y-99619800D01*
X147355728Y-99627854D01*
X147192648Y-99660292D01*
X147000889Y-99739722D01*
X147000881Y-99739726D01*
X146828307Y-99855036D01*
X146828306Y-99855038D01*
X146681538Y-100001806D01*
X146681536Y-100001807D01*
X146566226Y-100174381D01*
X146566222Y-100174389D01*
X146486792Y-100366148D01*
X146446300Y-100569720D01*
X146446300Y-100777279D01*
X146486792Y-100980851D01*
X146566222Y-101172610D01*
X146566226Y-101172618D01*
X146681536Y-101345192D01*
X146828307Y-101491963D01*
X147000881Y-101607273D01*
X147000883Y-101607274D01*
X147000886Y-101607276D01*
X147192647Y-101686707D01*
X147396220Y-101727200D01*
X147396221Y-101727200D01*
X147603779Y-101727200D01*
X147603780Y-101727200D01*
X147807353Y-101686707D01*
X147999114Y-101607276D01*
X148171694Y-101491962D01*
X148318462Y-101345194D01*
X148433776Y-101172614D01*
X148513207Y-100980853D01*
X148553700Y-100777280D01*
X148553700Y-100569720D01*
X148513207Y-100366147D01*
X148457985Y-100232832D01*
X148453107Y-100170853D01*
X148479791Y-100123204D01*
X148698866Y-99904129D01*
X148754262Y-99875905D01*
X148815670Y-99885631D01*
X148841134Y-99904131D01*
X148946140Y-100009136D01*
X149060205Y-100123202D01*
X149088431Y-100178598D01*
X149082012Y-100232834D01*
X149026791Y-100366148D01*
X148986299Y-100569720D01*
X148986299Y-100777279D01*
X149026791Y-100980851D01*
X149106221Y-101172610D01*
X149106225Y-101172618D01*
X149221535Y-101345192D01*
X149368306Y-101491963D01*
X149540880Y-101607273D01*
X149540882Y-101607274D01*
X149540885Y-101607276D01*
X149732646Y-101686707D01*
X149936219Y-101727200D01*
X149936220Y-101727200D01*
X150143778Y-101727200D01*
X150143779Y-101727200D01*
X150347352Y-101686707D01*
X150539113Y-101607276D01*
X150711693Y-101491962D01*
X150858461Y-101345194D01*
X150973775Y-101172614D01*
X151053206Y-100980853D01*
X151093699Y-100777280D01*
X151093699Y-100569720D01*
X151053206Y-100366147D01*
X150973775Y-100174386D01*
X150971414Y-100170853D01*
X150858462Y-100001807D01*
X150711691Y-99855036D01*
X150539117Y-99739726D01*
X150539109Y-99739722D01*
X150468872Y-99710629D01*
X150347352Y-99660293D01*
X150347348Y-99660292D01*
X150347351Y-99660292D01*
X150184271Y-99627854D01*
X150143779Y-99619800D01*
X149936219Y-99619800D01*
X149895727Y-99627854D01*
X149732647Y-99660292D01*
X149599335Y-99715512D01*
X149537352Y-99720390D01*
X149489702Y-99693705D01*
X149340831Y-99544834D01*
X149312605Y-99489436D01*
X149322331Y-99428028D01*
X149340831Y-99402564D01*
X149514730Y-99228665D01*
X149570128Y-99200439D01*
X149585865Y-99199200D01*
X161543135Y-99199200D01*
X161602266Y-99218413D01*
X161614270Y-99228665D01*
X164094107Y-101708502D01*
X164163355Y-101748483D01*
X164163357Y-101748483D01*
X164163358Y-101748484D01*
X164240599Y-101769181D01*
X164326727Y-101769181D01*
X164326743Y-101769180D01*
X168529200Y-101769180D01*
X168529201Y-101769180D01*
X168561417Y-101760548D01*
X168606437Y-101748486D01*
X168606439Y-101748484D01*
X168606442Y-101748484D01*
X168675694Y-101708501D01*
X169747193Y-100636999D01*
X169747197Y-100636997D01*
X169755474Y-100628719D01*
X169755476Y-100628719D01*
X169812021Y-100572174D01*
X169852004Y-100502922D01*
X169852004Y-100502919D01*
X169852006Y-100502917D01*
X169868241Y-100442325D01*
X169868241Y-100442323D01*
X169872699Y-100425684D01*
X169872700Y-100425682D01*
X169872700Y-100345715D01*
X169872700Y-99726366D01*
X169875208Y-99718645D01*
X169873939Y-99710629D01*
X169884633Y-99689640D01*
X169891913Y-99667235D01*
X169902160Y-99655236D01*
X169990332Y-99567063D01*
X170045730Y-99538838D01*
X170061467Y-99537599D01*
X170698644Y-99537599D01*
X170698652Y-99537599D01*
X170729301Y-99534726D01*
X170858395Y-99489554D01*
X170968438Y-99408338D01*
X171049654Y-99298295D01*
X171094826Y-99169201D01*
X171097700Y-99138553D01*
X171097699Y-98079248D01*
X171094826Y-98048599D01*
X171059914Y-97948825D01*
X171058519Y-97886667D01*
X171093927Y-97835560D01*
X171152612Y-97815025D01*
X171154869Y-97815000D01*
X176348300Y-97815000D01*
X176407431Y-97834213D01*
X176443976Y-97884513D01*
X176448900Y-97915600D01*
X176448900Y-105971400D01*
X176429687Y-106030531D01*
X176379387Y-106067076D01*
X176348300Y-106072000D01*
X125204900Y-106072000D01*
X125145769Y-106052787D01*
X125109224Y-106002487D01*
X125104300Y-105971400D01*
X125104300Y-97915600D01*
X125123513Y-97856469D01*
X125173813Y-97819924D01*
X125204900Y-97815000D01*
X128239331Y-97815000D01*
X128298462Y-97834213D01*
G37*
%TD.AperFunction*%
%TD*%
M02*
