%TF.GenerationSoftware,KiCad,Pcbnew,9.0.7*%
%TF.CreationDate,2026-02-05T16:57:12-05:00*%
%TF.ProjectId,Cell Backer,43656c6c-2042-4616-936b-65722e6b6963,rev?*%
%TF.SameCoordinates,Original*%
%TF.FileFunction,Legend,Top*%
%TF.FilePolarity,Positive*%
%FSLAX46Y46*%
G04 Gerber Fmt 4.6, Leading zero omitted, Abs format (unit mm)*
G04 Created by KiCad (PCBNEW 9.0.7) date 2026-02-05 16:57:12*
%MOMM*%
%LPD*%
G01*
G04 APERTURE LIST*
%ADD10C,0.000000*%
%ADD11C,0.127000*%
%ADD12C,0.150000*%
%ADD13C,0.200000*%
G04 APERTURE END LIST*
D10*
G36*
X150176720Y-97957612D02*
G01*
X150239119Y-97964477D01*
X150300991Y-97975918D01*
X150362072Y-97991935D01*
X150422098Y-98012530D01*
X150480807Y-98037700D01*
X150537935Y-98067447D01*
X150593218Y-98101771D01*
X151929893Y-99002941D01*
X151929894Y-99003471D01*
X151929365Y-99003471D01*
X151848402Y-100802108D01*
X150384727Y-101971037D01*
X150369752Y-101982522D01*
X150354411Y-101993262D01*
X150338728Y-102003259D01*
X150322728Y-102012513D01*
X150306435Y-102021023D01*
X150289873Y-102028789D01*
X150273067Y-102035813D01*
X150256041Y-102042094D01*
X150221427Y-102052429D01*
X150186228Y-102059794D01*
X150150638Y-102064193D01*
X150114853Y-102065626D01*
X150079067Y-102064094D01*
X150043477Y-102059600D01*
X150008278Y-102052145D01*
X149973664Y-102041730D01*
X149956638Y-102035414D01*
X149939832Y-102028358D01*
X149923270Y-102020563D01*
X149906977Y-102012029D01*
X149890976Y-102002756D01*
X149875293Y-101992745D01*
X149859952Y-101981995D01*
X149844977Y-101970508D01*
X148375482Y-100790995D01*
X148340556Y-100103079D01*
X150018014Y-101421233D01*
X150021688Y-101423940D01*
X150025456Y-101426314D01*
X150029305Y-101428360D01*
X150033221Y-101430085D01*
X150037190Y-101431495D01*
X150041198Y-101432598D01*
X150045231Y-101433400D01*
X150049277Y-101433908D01*
X150053319Y-101434128D01*
X150057346Y-101434067D01*
X150061343Y-101433732D01*
X150065295Y-101433129D01*
X150069190Y-101432266D01*
X150073014Y-101431149D01*
X150076751Y-101429784D01*
X150080390Y-101428178D01*
X150083915Y-101426338D01*
X150087314Y-101424271D01*
X150090571Y-101421983D01*
X150093674Y-101419481D01*
X150096608Y-101416771D01*
X150099360Y-101413861D01*
X150101915Y-101410757D01*
X150104260Y-101407466D01*
X150106382Y-101403994D01*
X150108265Y-101400348D01*
X150109897Y-101396535D01*
X150111263Y-101392561D01*
X150112349Y-101388434D01*
X150113143Y-101384159D01*
X150113629Y-101379744D01*
X150113794Y-101375195D01*
X150113794Y-100417933D01*
X148298223Y-99003471D01*
X148299007Y-99002941D01*
X149026885Y-99002941D01*
X149806877Y-99600900D01*
X149824296Y-99613683D01*
X149842108Y-99625642D01*
X149860286Y-99636777D01*
X149878804Y-99647087D01*
X149916756Y-99665234D01*
X149955754Y-99680084D01*
X149995590Y-99691639D01*
X150036053Y-99699898D01*
X150076935Y-99704863D01*
X150118027Y-99706535D01*
X150159118Y-99704913D01*
X150200000Y-99700000D01*
X150240463Y-99691795D01*
X150280299Y-99680299D01*
X150319297Y-99665514D01*
X150357249Y-99647440D01*
X150375767Y-99637170D01*
X150393945Y-99626078D01*
X150411757Y-99614164D01*
X150429176Y-99601429D01*
X150429706Y-99601429D01*
X151200702Y-99004000D01*
X150411714Y-98469542D01*
X150376731Y-98447496D01*
X150340553Y-98428391D01*
X150303353Y-98412224D01*
X150265300Y-98398997D01*
X150226565Y-98388709D01*
X150187319Y-98381361D01*
X150147731Y-98376952D01*
X150107973Y-98375482D01*
X150068214Y-98376952D01*
X150028627Y-98381361D01*
X149989380Y-98388709D01*
X149950645Y-98398997D01*
X149912592Y-98412224D01*
X149875392Y-98428391D01*
X149839214Y-98447496D01*
X149804231Y-98469542D01*
X149026885Y-99002941D01*
X148299007Y-99002941D01*
X149634897Y-98101771D01*
X149690180Y-98067447D01*
X149747308Y-98037700D01*
X149806017Y-98012530D01*
X149866044Y-97991935D01*
X149927125Y-97975918D01*
X149988997Y-97964477D01*
X150051396Y-97957612D01*
X150114058Y-97955324D01*
X150176720Y-97957612D01*
G37*
G36*
X157989911Y-98861654D02*
G01*
X156103960Y-98861654D01*
X156099585Y-98861832D01*
X156095391Y-98862355D01*
X156091384Y-98863205D01*
X156087569Y-98864364D01*
X156083950Y-98865813D01*
X156080534Y-98867535D01*
X156077325Y-98869511D01*
X156074327Y-98871725D01*
X156071547Y-98874156D01*
X156068989Y-98876789D01*
X156066657Y-98879603D01*
X156064558Y-98882583D01*
X156062696Y-98885709D01*
X156061077Y-98888963D01*
X156059704Y-98892328D01*
X156058584Y-98895785D01*
X156057722Y-98899317D01*
X156057121Y-98902905D01*
X156056789Y-98906531D01*
X156056728Y-98910178D01*
X156056945Y-98913827D01*
X156057445Y-98917460D01*
X156058232Y-98921060D01*
X156059312Y-98924608D01*
X156060689Y-98928086D01*
X156062370Y-98931477D01*
X156064358Y-98934761D01*
X156066658Y-98937922D01*
X156069277Y-98940941D01*
X156072218Y-98943800D01*
X156075488Y-98946481D01*
X156079090Y-98948966D01*
X157895717Y-100087204D01*
X157906790Y-100094410D01*
X157917583Y-100101933D01*
X157928090Y-100109765D01*
X157938307Y-100117899D01*
X157957853Y-100135035D01*
X157976184Y-100153275D01*
X157993262Y-100172555D01*
X158009051Y-100192807D01*
X158023512Y-100213966D01*
X158036609Y-100235966D01*
X158048304Y-100258741D01*
X158058561Y-100282225D01*
X158067342Y-100306353D01*
X158074610Y-100331059D01*
X158080327Y-100356276D01*
X158082593Y-100369055D01*
X158084457Y-100381938D01*
X158085915Y-100394916D01*
X158086962Y-100407981D01*
X158087594Y-100421124D01*
X158087806Y-100434337D01*
X158087806Y-100904237D01*
X158087444Y-100918536D01*
X158086372Y-100932646D01*
X158084605Y-100946551D01*
X158082163Y-100960234D01*
X158079061Y-100973676D01*
X158075318Y-100986860D01*
X158070951Y-100999769D01*
X158065978Y-101012385D01*
X158060415Y-101024692D01*
X158054281Y-101036671D01*
X158047592Y-101048305D01*
X158040367Y-101059576D01*
X158032622Y-101070468D01*
X158024375Y-101080963D01*
X158015644Y-101091042D01*
X158006446Y-101100690D01*
X157996799Y-101109888D01*
X157986719Y-101118619D01*
X157976224Y-101126866D01*
X157965333Y-101134611D01*
X157954061Y-101141836D01*
X157942427Y-101148524D01*
X157930448Y-101154659D01*
X157918142Y-101160221D01*
X157905525Y-101165195D01*
X157892616Y-101169562D01*
X157879432Y-101173305D01*
X157865990Y-101176406D01*
X157852308Y-101178849D01*
X157838403Y-101180616D01*
X157824292Y-101181688D01*
X157809994Y-101182050D01*
X157809464Y-101182050D01*
X155295922Y-101182050D01*
X155295922Y-100486195D01*
X157279239Y-100486195D01*
X157283569Y-100486017D01*
X157287722Y-100485494D01*
X157291694Y-100484644D01*
X157295480Y-100483485D01*
X157299075Y-100482036D01*
X157302473Y-100480314D01*
X157305669Y-100478338D01*
X157308658Y-100476125D01*
X157311435Y-100473693D01*
X157313993Y-100471061D01*
X157316329Y-100468246D01*
X157318437Y-100465266D01*
X157320312Y-100462140D01*
X157321948Y-100458886D01*
X157323340Y-100455521D01*
X157324483Y-100452064D01*
X157325372Y-100448532D01*
X157326002Y-100444944D01*
X157326367Y-100441318D01*
X157326462Y-100437671D01*
X157326281Y-100434022D01*
X157325821Y-100430389D01*
X157325074Y-100426789D01*
X157324037Y-100423241D01*
X157322703Y-100419763D01*
X157321069Y-100416372D01*
X157319127Y-100413088D01*
X157316874Y-100409927D01*
X157314304Y-100406908D01*
X157311412Y-100404049D01*
X157308192Y-100401368D01*
X157304639Y-100398883D01*
X155510236Y-99269112D01*
X155497841Y-99261041D01*
X155485761Y-99252611D01*
X155474001Y-99243831D01*
X155462567Y-99234710D01*
X155451463Y-99225258D01*
X155440695Y-99215485D01*
X155420187Y-99195012D01*
X155401083Y-99173367D01*
X155383425Y-99150626D01*
X155367254Y-99126865D01*
X155352610Y-99102160D01*
X155339536Y-99076587D01*
X155328071Y-99050221D01*
X155318258Y-99023139D01*
X155310136Y-98995417D01*
X155303748Y-98967131D01*
X155299134Y-98938356D01*
X155297506Y-98923809D01*
X155296336Y-98909169D01*
X155295630Y-98894444D01*
X155295394Y-98879645D01*
X155295394Y-98524575D01*
X155295760Y-98510127D01*
X155296846Y-98495868D01*
X155298635Y-98481815D01*
X155301108Y-98467986D01*
X155304249Y-98454398D01*
X155308039Y-98441069D01*
X155312460Y-98428017D01*
X155317495Y-98415260D01*
X155323126Y-98402816D01*
X155329336Y-98390701D01*
X155336106Y-98378934D01*
X155343419Y-98367533D01*
X155351257Y-98356515D01*
X155359603Y-98345898D01*
X155368438Y-98335700D01*
X155377745Y-98325939D01*
X155387507Y-98316631D01*
X155397705Y-98307796D01*
X155408322Y-98299450D01*
X155419340Y-98291612D01*
X155430741Y-98284299D01*
X155442508Y-98277529D01*
X155454622Y-98271319D01*
X155467067Y-98265688D01*
X155479824Y-98260653D01*
X155492876Y-98256232D01*
X155506205Y-98252442D01*
X155519793Y-98249301D01*
X155533622Y-98246828D01*
X155547675Y-98245039D01*
X155561934Y-98243953D01*
X155576381Y-98243587D01*
X157989911Y-98243587D01*
X157989911Y-98861654D01*
G37*
G36*
X148236310Y-98784395D02*
G01*
X148129840Y-98801635D01*
X148007793Y-98825053D01*
X147849687Y-98860000D01*
X147662882Y-98907721D01*
X147454739Y-98969463D01*
X147344965Y-99005981D01*
X147232618Y-99046472D01*
X147118616Y-99091092D01*
X147003881Y-99139995D01*
X146993137Y-99145114D01*
X146982832Y-99150637D01*
X146972956Y-99156553D01*
X146963506Y-99162848D01*
X146954473Y-99169508D01*
X146945853Y-99176520D01*
X146937638Y-99183871D01*
X146929822Y-99191548D01*
X146915363Y-99207825D01*
X146902426Y-99225246D01*
X146890961Y-99243704D01*
X146880916Y-99263093D01*
X146872241Y-99283307D01*
X146864887Y-99304239D01*
X146858802Y-99325783D01*
X146853936Y-99347834D01*
X146850240Y-99370285D01*
X146847662Y-99393029D01*
X146846152Y-99415961D01*
X146845660Y-99438975D01*
X146839839Y-101182579D01*
X146163035Y-101182579D01*
X146161447Y-98244646D01*
X146841426Y-98244646D01*
X146841426Y-98537804D01*
X146842485Y-98537804D01*
X147067894Y-98475915D01*
X147290232Y-98420766D01*
X147507916Y-98371978D01*
X147719364Y-98329172D01*
X147922991Y-98291968D01*
X148117216Y-98259988D01*
X148300456Y-98232853D01*
X148471128Y-98210183D01*
X148768435Y-98176725D01*
X148996474Y-98156580D01*
X149194102Y-98144104D01*
X148236310Y-98784395D01*
G37*
G36*
X145928614Y-101182050D02*
G01*
X145250752Y-101182050D01*
X145250752Y-99907816D01*
X143668014Y-101182050D01*
X142990152Y-101182050D01*
X142990152Y-100489899D01*
X143663781Y-100489899D01*
X145250752Y-99183387D01*
X145250752Y-98921979D01*
X145250752Y-98921450D01*
X144120452Y-98921450D01*
X144097179Y-98922039D01*
X144074210Y-98923787D01*
X144051575Y-98926665D01*
X144029301Y-98930646D01*
X144007416Y-98935700D01*
X143985951Y-98941800D01*
X143964932Y-98948916D01*
X143944388Y-98957020D01*
X143924348Y-98966083D01*
X143904841Y-98976078D01*
X143885894Y-98986976D01*
X143867537Y-98998747D01*
X143849797Y-99011365D01*
X143832704Y-99024799D01*
X143816286Y-99039023D01*
X143800570Y-99054006D01*
X143785587Y-99069721D01*
X143771364Y-99086140D01*
X143757929Y-99103233D01*
X143745312Y-99120972D01*
X143733540Y-99139330D01*
X143722643Y-99158276D01*
X143712648Y-99177784D01*
X143703584Y-99197824D01*
X143695480Y-99218367D01*
X143688364Y-99239386D01*
X143682265Y-99260852D01*
X143677210Y-99282736D01*
X143673230Y-99305010D01*
X143670351Y-99327646D01*
X143668603Y-99350614D01*
X143668014Y-99373887D01*
X143663781Y-100489899D01*
X142990152Y-100489899D01*
X142990152Y-99092370D01*
X142991256Y-99048686D01*
X142994533Y-99005575D01*
X142999930Y-98963092D01*
X143007393Y-98921290D01*
X143016869Y-98880222D01*
X143028305Y-98839942D01*
X143041648Y-98800501D01*
X143056843Y-98761955D01*
X143073839Y-98724356D01*
X143092581Y-98687758D01*
X143113016Y-98652214D01*
X143135092Y-98617776D01*
X143158754Y-98584499D01*
X143183949Y-98552436D01*
X143210625Y-98521639D01*
X143238728Y-98492163D01*
X143268204Y-98464060D01*
X143299000Y-98437385D01*
X143331064Y-98412189D01*
X143364341Y-98388527D01*
X143398778Y-98366452D01*
X143434323Y-98346016D01*
X143470921Y-98327274D01*
X143508520Y-98310279D01*
X143547066Y-98295083D01*
X143586506Y-98281740D01*
X143626787Y-98270305D01*
X143667855Y-98260828D01*
X143709657Y-98253365D01*
X143752140Y-98247968D01*
X143795251Y-98244691D01*
X143838935Y-98243587D01*
X145928614Y-98243587D01*
X145928614Y-101182050D01*
G37*
G36*
X152818363Y-98242000D02*
G01*
X152818363Y-100298341D01*
X152818677Y-100310321D01*
X152819608Y-100322141D01*
X152821141Y-100333786D01*
X152823261Y-100345242D01*
X152825953Y-100356494D01*
X152829201Y-100367529D01*
X152832990Y-100378331D01*
X152837305Y-100388887D01*
X152842132Y-100399181D01*
X152847453Y-100409199D01*
X152853256Y-100418928D01*
X152859523Y-100428352D01*
X152866240Y-100437457D01*
X152873393Y-100446228D01*
X152880964Y-100454652D01*
X152888940Y-100462714D01*
X152897305Y-100470398D01*
X152906044Y-100477692D01*
X152915142Y-100484580D01*
X152924583Y-100491048D01*
X152934353Y-100497081D01*
X152944436Y-100502666D01*
X152954816Y-100507787D01*
X152965479Y-100512430D01*
X152976410Y-100516582D01*
X152987592Y-100520226D01*
X152999012Y-100523350D01*
X153010654Y-100525938D01*
X153022502Y-100527976D01*
X153034541Y-100529449D01*
X153046757Y-100530344D01*
X153059134Y-100530645D01*
X154391575Y-100530645D01*
X154391575Y-98445200D01*
X155065732Y-98568496D01*
X155065204Y-98568496D01*
X155065204Y-101182050D01*
X152905146Y-101182050D01*
X152865997Y-101181093D01*
X152827360Y-101178254D01*
X152789285Y-101173579D01*
X152751818Y-101167114D01*
X152715007Y-101158905D01*
X152678901Y-101148999D01*
X152643548Y-101137442D01*
X152608994Y-101124279D01*
X152575289Y-101109558D01*
X152542479Y-101093324D01*
X152510613Y-101075624D01*
X152479739Y-101056504D01*
X152449904Y-101036009D01*
X152421157Y-101014187D01*
X152393545Y-100991084D01*
X152367115Y-100966745D01*
X152341917Y-100941217D01*
X152317998Y-100914546D01*
X152295405Y-100886779D01*
X152274187Y-100857961D01*
X152254391Y-100828139D01*
X152236065Y-100797359D01*
X152219258Y-100765667D01*
X152204016Y-100733110D01*
X152190389Y-100699733D01*
X152178423Y-100665583D01*
X152168166Y-100630706D01*
X152159667Y-100595149D01*
X152152974Y-100558957D01*
X152148134Y-100522177D01*
X152145194Y-100484855D01*
X152144204Y-100447037D01*
X152144204Y-98167387D01*
X152818363Y-98242000D01*
G37*
D11*
X113386922Y-67483809D02*
X113356684Y-67544285D01*
X113356684Y-67544285D02*
X113356684Y-67634999D01*
X113356684Y-67634999D02*
X113386922Y-67725714D01*
X113386922Y-67725714D02*
X113447398Y-67786190D01*
X113447398Y-67786190D02*
X113507874Y-67816428D01*
X113507874Y-67816428D02*
X113628826Y-67846666D01*
X113628826Y-67846666D02*
X113719541Y-67846666D01*
X113719541Y-67846666D02*
X113840493Y-67816428D01*
X113840493Y-67816428D02*
X113900969Y-67786190D01*
X113900969Y-67786190D02*
X113961446Y-67725714D01*
X113961446Y-67725714D02*
X113991684Y-67634999D01*
X113991684Y-67634999D02*
X113991684Y-67574523D01*
X113991684Y-67574523D02*
X113961446Y-67483809D01*
X113961446Y-67483809D02*
X113931207Y-67453571D01*
X113931207Y-67453571D02*
X113719541Y-67453571D01*
X113719541Y-67453571D02*
X113719541Y-67574523D01*
X113991684Y-67181428D02*
X113356684Y-67181428D01*
X113356684Y-67181428D02*
X113991684Y-66818571D01*
X113991684Y-66818571D02*
X113356684Y-66818571D01*
X113991684Y-66516190D02*
X113356684Y-66516190D01*
X113356684Y-66516190D02*
X113356684Y-66365000D01*
X113356684Y-66365000D02*
X113386922Y-66274285D01*
X113386922Y-66274285D02*
X113447398Y-66213809D01*
X113447398Y-66213809D02*
X113507874Y-66183571D01*
X113507874Y-66183571D02*
X113628826Y-66153333D01*
X113628826Y-66153333D02*
X113719541Y-66153333D01*
X113719541Y-66153333D02*
X113840493Y-66183571D01*
X113840493Y-66183571D02*
X113900969Y-66213809D01*
X113900969Y-66213809D02*
X113961446Y-66274285D01*
X113961446Y-66274285D02*
X113991684Y-66365000D01*
X113991684Y-66365000D02*
X113991684Y-66516190D01*
X187104684Y-138693331D02*
X187739684Y-138481665D01*
X187739684Y-138481665D02*
X187104684Y-138269998D01*
X187709446Y-138088569D02*
X187739684Y-137997855D01*
X187739684Y-137997855D02*
X187739684Y-137846664D01*
X187739684Y-137846664D02*
X187709446Y-137786188D01*
X187709446Y-137786188D02*
X187679207Y-137755950D01*
X187679207Y-137755950D02*
X187618731Y-137725712D01*
X187618731Y-137725712D02*
X187558255Y-137725712D01*
X187558255Y-137725712D02*
X187497779Y-137755950D01*
X187497779Y-137755950D02*
X187467541Y-137786188D01*
X187467541Y-137786188D02*
X187437303Y-137846664D01*
X187437303Y-137846664D02*
X187407065Y-137967617D01*
X187407065Y-137967617D02*
X187376826Y-138028093D01*
X187376826Y-138028093D02*
X187346588Y-138058331D01*
X187346588Y-138058331D02*
X187286112Y-138088569D01*
X187286112Y-138088569D02*
X187225636Y-138088569D01*
X187225636Y-138088569D02*
X187165160Y-138058331D01*
X187165160Y-138058331D02*
X187134922Y-138028093D01*
X187134922Y-138028093D02*
X187104684Y-137967617D01*
X187104684Y-137967617D02*
X187104684Y-137816426D01*
X187104684Y-137816426D02*
X187134922Y-137725712D01*
X187104684Y-137332617D02*
X187104684Y-137211664D01*
X187104684Y-137211664D02*
X187134922Y-137151188D01*
X187134922Y-137151188D02*
X187195398Y-137090712D01*
X187195398Y-137090712D02*
X187316350Y-137060474D01*
X187316350Y-137060474D02*
X187528017Y-137060474D01*
X187528017Y-137060474D02*
X187648969Y-137090712D01*
X187648969Y-137090712D02*
X187709446Y-137151188D01*
X187709446Y-137151188D02*
X187739684Y-137211664D01*
X187739684Y-137211664D02*
X187739684Y-137332617D01*
X187739684Y-137332617D02*
X187709446Y-137393093D01*
X187709446Y-137393093D02*
X187648969Y-137453569D01*
X187648969Y-137453569D02*
X187528017Y-137483807D01*
X187528017Y-137483807D02*
X187316350Y-137483807D01*
X187316350Y-137483807D02*
X187195398Y-137453569D01*
X187195398Y-137453569D02*
X187134922Y-137393093D01*
X187134922Y-137393093D02*
X187104684Y-137332617D01*
X187739684Y-136485950D02*
X187739684Y-136788331D01*
X187739684Y-136788331D02*
X187104684Y-136788331D01*
X187558255Y-136304521D02*
X187558255Y-136002140D01*
X187739684Y-136364997D02*
X187104684Y-136153331D01*
X187104684Y-136153331D02*
X187739684Y-135941664D01*
X187739684Y-135367140D02*
X187437303Y-135578807D01*
X187739684Y-135729997D02*
X187104684Y-135729997D01*
X187104684Y-135729997D02*
X187104684Y-135488092D01*
X187104684Y-135488092D02*
X187134922Y-135427616D01*
X187134922Y-135427616D02*
X187165160Y-135397378D01*
X187165160Y-135397378D02*
X187225636Y-135367140D01*
X187225636Y-135367140D02*
X187316350Y-135367140D01*
X187316350Y-135367140D02*
X187376826Y-135397378D01*
X187376826Y-135397378D02*
X187407065Y-135427616D01*
X187407065Y-135427616D02*
X187437303Y-135488092D01*
X187437303Y-135488092D02*
X187437303Y-135729997D01*
X125014428Y-123309626D02*
X125123286Y-123345911D01*
X125123286Y-123345911D02*
X125304714Y-123345911D01*
X125304714Y-123345911D02*
X125377286Y-123309626D01*
X125377286Y-123309626D02*
X125413571Y-123273340D01*
X125413571Y-123273340D02*
X125449857Y-123200768D01*
X125449857Y-123200768D02*
X125449857Y-123128197D01*
X125449857Y-123128197D02*
X125413571Y-123055626D01*
X125413571Y-123055626D02*
X125377286Y-123019340D01*
X125377286Y-123019340D02*
X125304714Y-122983054D01*
X125304714Y-122983054D02*
X125159571Y-122946768D01*
X125159571Y-122946768D02*
X125087000Y-122910483D01*
X125087000Y-122910483D02*
X125050714Y-122874197D01*
X125050714Y-122874197D02*
X125014428Y-122801626D01*
X125014428Y-122801626D02*
X125014428Y-122729054D01*
X125014428Y-122729054D02*
X125050714Y-122656483D01*
X125050714Y-122656483D02*
X125087000Y-122620197D01*
X125087000Y-122620197D02*
X125159571Y-122583911D01*
X125159571Y-122583911D02*
X125341000Y-122583911D01*
X125341000Y-122583911D02*
X125449857Y-122620197D01*
X126211857Y-123273340D02*
X126175571Y-123309626D01*
X126175571Y-123309626D02*
X126066714Y-123345911D01*
X126066714Y-123345911D02*
X125994142Y-123345911D01*
X125994142Y-123345911D02*
X125885285Y-123309626D01*
X125885285Y-123309626D02*
X125812714Y-123237054D01*
X125812714Y-123237054D02*
X125776428Y-123164483D01*
X125776428Y-123164483D02*
X125740142Y-123019340D01*
X125740142Y-123019340D02*
X125740142Y-122910483D01*
X125740142Y-122910483D02*
X125776428Y-122765340D01*
X125776428Y-122765340D02*
X125812714Y-122692768D01*
X125812714Y-122692768D02*
X125885285Y-122620197D01*
X125885285Y-122620197D02*
X125994142Y-122583911D01*
X125994142Y-122583911D02*
X126066714Y-122583911D01*
X126066714Y-122583911D02*
X126175571Y-122620197D01*
X126175571Y-122620197D02*
X126211857Y-122656483D01*
X126502142Y-122656483D02*
X126538428Y-122620197D01*
X126538428Y-122620197D02*
X126611000Y-122583911D01*
X126611000Y-122583911D02*
X126792428Y-122583911D01*
X126792428Y-122583911D02*
X126865000Y-122620197D01*
X126865000Y-122620197D02*
X126901285Y-122656483D01*
X126901285Y-122656483D02*
X126937571Y-122729054D01*
X126937571Y-122729054D02*
X126937571Y-122801626D01*
X126937571Y-122801626D02*
X126901285Y-122910483D01*
X126901285Y-122910483D02*
X126465857Y-123345911D01*
X126465857Y-123345911D02*
X126937571Y-123345911D01*
X149538428Y-128054346D02*
X149647286Y-128090631D01*
X149647286Y-128090631D02*
X149828714Y-128090631D01*
X149828714Y-128090631D02*
X149901286Y-128054346D01*
X149901286Y-128054346D02*
X149937571Y-128018060D01*
X149937571Y-128018060D02*
X149973857Y-127945488D01*
X149973857Y-127945488D02*
X149973857Y-127872917D01*
X149973857Y-127872917D02*
X149937571Y-127800346D01*
X149937571Y-127800346D02*
X149901286Y-127764060D01*
X149901286Y-127764060D02*
X149828714Y-127727774D01*
X149828714Y-127727774D02*
X149683571Y-127691488D01*
X149683571Y-127691488D02*
X149611000Y-127655203D01*
X149611000Y-127655203D02*
X149574714Y-127618917D01*
X149574714Y-127618917D02*
X149538428Y-127546346D01*
X149538428Y-127546346D02*
X149538428Y-127473774D01*
X149538428Y-127473774D02*
X149574714Y-127401203D01*
X149574714Y-127401203D02*
X149611000Y-127364917D01*
X149611000Y-127364917D02*
X149683571Y-127328631D01*
X149683571Y-127328631D02*
X149865000Y-127328631D01*
X149865000Y-127328631D02*
X149973857Y-127364917D01*
X150735857Y-128018060D02*
X150699571Y-128054346D01*
X150699571Y-128054346D02*
X150590714Y-128090631D01*
X150590714Y-128090631D02*
X150518142Y-128090631D01*
X150518142Y-128090631D02*
X150409285Y-128054346D01*
X150409285Y-128054346D02*
X150336714Y-127981774D01*
X150336714Y-127981774D02*
X150300428Y-127909203D01*
X150300428Y-127909203D02*
X150264142Y-127764060D01*
X150264142Y-127764060D02*
X150264142Y-127655203D01*
X150264142Y-127655203D02*
X150300428Y-127510060D01*
X150300428Y-127510060D02*
X150336714Y-127437488D01*
X150336714Y-127437488D02*
X150409285Y-127364917D01*
X150409285Y-127364917D02*
X150518142Y-127328631D01*
X150518142Y-127328631D02*
X150590714Y-127328631D01*
X150590714Y-127328631D02*
X150699571Y-127364917D01*
X150699571Y-127364917D02*
X150735857Y-127401203D01*
X150989857Y-127328631D02*
X151461571Y-127328631D01*
X151461571Y-127328631D02*
X151207571Y-127618917D01*
X151207571Y-127618917D02*
X151316428Y-127618917D01*
X151316428Y-127618917D02*
X151389000Y-127655203D01*
X151389000Y-127655203D02*
X151425285Y-127691488D01*
X151425285Y-127691488D02*
X151461571Y-127764060D01*
X151461571Y-127764060D02*
X151461571Y-127945488D01*
X151461571Y-127945488D02*
X151425285Y-128018060D01*
X151425285Y-128018060D02*
X151389000Y-128054346D01*
X151389000Y-128054346D02*
X151316428Y-128090631D01*
X151316428Y-128090631D02*
X151098714Y-128090631D01*
X151098714Y-128090631D02*
X151026142Y-128054346D01*
X151026142Y-128054346D02*
X150989857Y-128018060D01*
X174062428Y-123309626D02*
X174171286Y-123345911D01*
X174171286Y-123345911D02*
X174352714Y-123345911D01*
X174352714Y-123345911D02*
X174425286Y-123309626D01*
X174425286Y-123309626D02*
X174461571Y-123273340D01*
X174461571Y-123273340D02*
X174497857Y-123200768D01*
X174497857Y-123200768D02*
X174497857Y-123128197D01*
X174497857Y-123128197D02*
X174461571Y-123055626D01*
X174461571Y-123055626D02*
X174425286Y-123019340D01*
X174425286Y-123019340D02*
X174352714Y-122983054D01*
X174352714Y-122983054D02*
X174207571Y-122946768D01*
X174207571Y-122946768D02*
X174135000Y-122910483D01*
X174135000Y-122910483D02*
X174098714Y-122874197D01*
X174098714Y-122874197D02*
X174062428Y-122801626D01*
X174062428Y-122801626D02*
X174062428Y-122729054D01*
X174062428Y-122729054D02*
X174098714Y-122656483D01*
X174098714Y-122656483D02*
X174135000Y-122620197D01*
X174135000Y-122620197D02*
X174207571Y-122583911D01*
X174207571Y-122583911D02*
X174389000Y-122583911D01*
X174389000Y-122583911D02*
X174497857Y-122620197D01*
X175259857Y-123273340D02*
X175223571Y-123309626D01*
X175223571Y-123309626D02*
X175114714Y-123345911D01*
X175114714Y-123345911D02*
X175042142Y-123345911D01*
X175042142Y-123345911D02*
X174933285Y-123309626D01*
X174933285Y-123309626D02*
X174860714Y-123237054D01*
X174860714Y-123237054D02*
X174824428Y-123164483D01*
X174824428Y-123164483D02*
X174788142Y-123019340D01*
X174788142Y-123019340D02*
X174788142Y-122910483D01*
X174788142Y-122910483D02*
X174824428Y-122765340D01*
X174824428Y-122765340D02*
X174860714Y-122692768D01*
X174860714Y-122692768D02*
X174933285Y-122620197D01*
X174933285Y-122620197D02*
X175042142Y-122583911D01*
X175042142Y-122583911D02*
X175114714Y-122583911D01*
X175114714Y-122583911D02*
X175223571Y-122620197D01*
X175223571Y-122620197D02*
X175259857Y-122656483D01*
X175949285Y-122583911D02*
X175586428Y-122583911D01*
X175586428Y-122583911D02*
X175550142Y-122946768D01*
X175550142Y-122946768D02*
X175586428Y-122910483D01*
X175586428Y-122910483D02*
X175659000Y-122874197D01*
X175659000Y-122874197D02*
X175840428Y-122874197D01*
X175840428Y-122874197D02*
X175913000Y-122910483D01*
X175913000Y-122910483D02*
X175949285Y-122946768D01*
X175949285Y-122946768D02*
X175985571Y-123019340D01*
X175985571Y-123019340D02*
X175985571Y-123200768D01*
X175985571Y-123200768D02*
X175949285Y-123273340D01*
X175949285Y-123273340D02*
X175913000Y-123309626D01*
X175913000Y-123309626D02*
X175840428Y-123345911D01*
X175840428Y-123345911D02*
X175659000Y-123345911D01*
X175659000Y-123345911D02*
X175586428Y-123309626D01*
X175586428Y-123309626D02*
X175550142Y-123273340D01*
X174062428Y-81309626D02*
X174171286Y-81345911D01*
X174171286Y-81345911D02*
X174352714Y-81345911D01*
X174352714Y-81345911D02*
X174425286Y-81309626D01*
X174425286Y-81309626D02*
X174461571Y-81273340D01*
X174461571Y-81273340D02*
X174497857Y-81200768D01*
X174497857Y-81200768D02*
X174497857Y-81128197D01*
X174497857Y-81128197D02*
X174461571Y-81055626D01*
X174461571Y-81055626D02*
X174425286Y-81019340D01*
X174425286Y-81019340D02*
X174352714Y-80983054D01*
X174352714Y-80983054D02*
X174207571Y-80946768D01*
X174207571Y-80946768D02*
X174135000Y-80910483D01*
X174135000Y-80910483D02*
X174098714Y-80874197D01*
X174098714Y-80874197D02*
X174062428Y-80801626D01*
X174062428Y-80801626D02*
X174062428Y-80729054D01*
X174062428Y-80729054D02*
X174098714Y-80656483D01*
X174098714Y-80656483D02*
X174135000Y-80620197D01*
X174135000Y-80620197D02*
X174207571Y-80583911D01*
X174207571Y-80583911D02*
X174389000Y-80583911D01*
X174389000Y-80583911D02*
X174497857Y-80620197D01*
X175259857Y-81273340D02*
X175223571Y-81309626D01*
X175223571Y-81309626D02*
X175114714Y-81345911D01*
X175114714Y-81345911D02*
X175042142Y-81345911D01*
X175042142Y-81345911D02*
X174933285Y-81309626D01*
X174933285Y-81309626D02*
X174860714Y-81237054D01*
X174860714Y-81237054D02*
X174824428Y-81164483D01*
X174824428Y-81164483D02*
X174788142Y-81019340D01*
X174788142Y-81019340D02*
X174788142Y-80910483D01*
X174788142Y-80910483D02*
X174824428Y-80765340D01*
X174824428Y-80765340D02*
X174860714Y-80692768D01*
X174860714Y-80692768D02*
X174933285Y-80620197D01*
X174933285Y-80620197D02*
X175042142Y-80583911D01*
X175042142Y-80583911D02*
X175114714Y-80583911D01*
X175114714Y-80583911D02*
X175223571Y-80620197D01*
X175223571Y-80620197D02*
X175259857Y-80656483D01*
X175913000Y-80837911D02*
X175913000Y-81345911D01*
X175731571Y-80547626D02*
X175550142Y-81091911D01*
X175550142Y-81091911D02*
X176021857Y-81091911D01*
X125014428Y-81309626D02*
X125123286Y-81345911D01*
X125123286Y-81345911D02*
X125304714Y-81345911D01*
X125304714Y-81345911D02*
X125377286Y-81309626D01*
X125377286Y-81309626D02*
X125413571Y-81273340D01*
X125413571Y-81273340D02*
X125449857Y-81200768D01*
X125449857Y-81200768D02*
X125449857Y-81128197D01*
X125449857Y-81128197D02*
X125413571Y-81055626D01*
X125413571Y-81055626D02*
X125377286Y-81019340D01*
X125377286Y-81019340D02*
X125304714Y-80983054D01*
X125304714Y-80983054D02*
X125159571Y-80946768D01*
X125159571Y-80946768D02*
X125087000Y-80910483D01*
X125087000Y-80910483D02*
X125050714Y-80874197D01*
X125050714Y-80874197D02*
X125014428Y-80801626D01*
X125014428Y-80801626D02*
X125014428Y-80729054D01*
X125014428Y-80729054D02*
X125050714Y-80656483D01*
X125050714Y-80656483D02*
X125087000Y-80620197D01*
X125087000Y-80620197D02*
X125159571Y-80583911D01*
X125159571Y-80583911D02*
X125341000Y-80583911D01*
X125341000Y-80583911D02*
X125449857Y-80620197D01*
X126211857Y-81273340D02*
X126175571Y-81309626D01*
X126175571Y-81309626D02*
X126066714Y-81345911D01*
X126066714Y-81345911D02*
X125994142Y-81345911D01*
X125994142Y-81345911D02*
X125885285Y-81309626D01*
X125885285Y-81309626D02*
X125812714Y-81237054D01*
X125812714Y-81237054D02*
X125776428Y-81164483D01*
X125776428Y-81164483D02*
X125740142Y-81019340D01*
X125740142Y-81019340D02*
X125740142Y-80910483D01*
X125740142Y-80910483D02*
X125776428Y-80765340D01*
X125776428Y-80765340D02*
X125812714Y-80692768D01*
X125812714Y-80692768D02*
X125885285Y-80620197D01*
X125885285Y-80620197D02*
X125994142Y-80583911D01*
X125994142Y-80583911D02*
X126066714Y-80583911D01*
X126066714Y-80583911D02*
X126175571Y-80620197D01*
X126175571Y-80620197D02*
X126211857Y-80656483D01*
X126937571Y-81345911D02*
X126502142Y-81345911D01*
X126719857Y-81345911D02*
X126719857Y-80583911D01*
X126719857Y-80583911D02*
X126647285Y-80692768D01*
X126647285Y-80692768D02*
X126574714Y-80765340D01*
X126574714Y-80765340D02*
X126502142Y-80801626D01*
D12*
%TO.C,SC2*%
X114476000Y-102000001D02*
X114476000Y-143999999D01*
D13*
X125976000Y-113500001D02*
X125976000Y-111500000D01*
X125976000Y-132499999D02*
X125976000Y-134500000D01*
X126976000Y-133500000D02*
X124976000Y-133500000D01*
D12*
X137476000Y-102000001D02*
X114476000Y-102000001D01*
X137476000Y-102000001D02*
X137476000Y-143999999D01*
X137476000Y-143999999D02*
X114476000Y-143999999D01*
%TO.C,SC6*%
X139000000Y-78744719D02*
X162000000Y-78744719D01*
X139000000Y-148744719D02*
X139000000Y-78744719D01*
X139000000Y-148744719D02*
X162000000Y-148744719D01*
X162000000Y-148744719D02*
X162000000Y-78744719D01*
%TO.C,SC3*%
X139000000Y-106744721D02*
X162000000Y-106744721D01*
X139000000Y-148744719D02*
X139000000Y-106744721D01*
X139000000Y-148744719D02*
X162000000Y-148744719D01*
D13*
X149500000Y-117244720D02*
X151500000Y-117244720D01*
X150500000Y-118244721D02*
X150500000Y-116244720D01*
X150500000Y-137244719D02*
X150500000Y-139244720D01*
D12*
X162000000Y-148744719D02*
X162000000Y-106744721D01*
%TO.C,SC5*%
X163524000Y-102000001D02*
X163524000Y-143999999D01*
D13*
X175024000Y-113500001D02*
X175024000Y-111500000D01*
X175024000Y-132499999D02*
X175024000Y-134500000D01*
X176024000Y-133500000D02*
X174024000Y-133500000D01*
D12*
X186524000Y-102000001D02*
X163524000Y-102000001D01*
X186524000Y-102000001D02*
X186524000Y-143999999D01*
X186524000Y-143999999D02*
X163524000Y-143999999D01*
%TO.C,SC4*%
X163524000Y-60000001D02*
X163524000Y-101999999D01*
D13*
X175024000Y-71500001D02*
X175024000Y-69500000D01*
X175024000Y-90499999D02*
X175024000Y-92500000D01*
X176024000Y-91500000D02*
X174024000Y-91500000D01*
D12*
X186524000Y-60000001D02*
X163524000Y-60000001D01*
X186524000Y-60000001D02*
X186524000Y-101999999D01*
X186524000Y-101999999D02*
X163524000Y-101999999D01*
%TO.C,SC1*%
X114476000Y-60000001D02*
X114476000Y-101999999D01*
D13*
X125976000Y-71500001D02*
X125976000Y-69500000D01*
X125976000Y-90499999D02*
X125976000Y-92500000D01*
X126976000Y-91500000D02*
X124976000Y-91500000D01*
D12*
X137476000Y-60000001D02*
X114476000Y-60000001D01*
X137476000Y-60000001D02*
X137476000Y-101999999D01*
X137476000Y-101999999D02*
X114476000Y-101999999D01*
%TD*%
M02*
