%TF.GenerationSoftware,KiCad,Pcbnew,9.0.7*%
%TF.CreationDate,2026-02-05T16:57:12-05:00*%
%TF.ProjectId,Cell Backer,43656c6c-2042-4616-936b-65722e6b6963,rev?*%
%TF.SameCoordinates,Original*%
%TF.FileFunction,Legend,Bot*%
%TF.FilePolarity,Positive*%
%FSLAX46Y46*%
G04 Gerber Fmt 4.6, Leading zero omitted, Abs format (unit mm)*
G04 Created by KiCad (PCBNEW 9.0.7) date 2026-02-05 16:57:12*
%MOMM*%
%LPD*%
G01*
G04 APERTURE LIST*
%ADD10C,0.177800*%
G04 APERTURE END LIST*
D10*
X155870284Y-94204723D02*
X155386474Y-94204723D01*
X155967046Y-94495008D02*
X155628379Y-93479008D01*
X155628379Y-93479008D02*
X155289712Y-94495008D01*
X154951046Y-94495008D02*
X154951046Y-93817675D01*
X154951046Y-94011199D02*
X154902665Y-93914437D01*
X154902665Y-93914437D02*
X154854284Y-93866056D01*
X154854284Y-93866056D02*
X154757522Y-93817675D01*
X154757522Y-93817675D02*
X154660760Y-93817675D01*
X153886665Y-93817675D02*
X153886665Y-94640151D01*
X153886665Y-94640151D02*
X153935046Y-94736913D01*
X153935046Y-94736913D02*
X153983427Y-94785294D01*
X153983427Y-94785294D02*
X154080189Y-94833675D01*
X154080189Y-94833675D02*
X154225332Y-94833675D01*
X154225332Y-94833675D02*
X154322094Y-94785294D01*
X153886665Y-94446628D02*
X153983427Y-94495008D01*
X153983427Y-94495008D02*
X154176951Y-94495008D01*
X154176951Y-94495008D02*
X154273713Y-94446628D01*
X154273713Y-94446628D02*
X154322094Y-94398247D01*
X154322094Y-94398247D02*
X154370475Y-94301485D01*
X154370475Y-94301485D02*
X154370475Y-94011199D01*
X154370475Y-94011199D02*
X154322094Y-93914437D01*
X154322094Y-93914437D02*
X154273713Y-93866056D01*
X154273713Y-93866056D02*
X154176951Y-93817675D01*
X154176951Y-93817675D02*
X153983427Y-93817675D01*
X153983427Y-93817675D02*
X153886665Y-93866056D01*
X152967427Y-93817675D02*
X152967427Y-94495008D01*
X153402856Y-93817675D02*
X153402856Y-94349866D01*
X153402856Y-94349866D02*
X153354475Y-94446628D01*
X153354475Y-94446628D02*
X153257713Y-94495008D01*
X153257713Y-94495008D02*
X153112570Y-94495008D01*
X153112570Y-94495008D02*
X153015808Y-94446628D01*
X153015808Y-94446628D02*
X152967427Y-94398247D01*
X152531999Y-94446628D02*
X152435237Y-94495008D01*
X152435237Y-94495008D02*
X152241713Y-94495008D01*
X152241713Y-94495008D02*
X152144951Y-94446628D01*
X152144951Y-94446628D02*
X152096570Y-94349866D01*
X152096570Y-94349866D02*
X152096570Y-94301485D01*
X152096570Y-94301485D02*
X152144951Y-94204723D01*
X152144951Y-94204723D02*
X152241713Y-94156342D01*
X152241713Y-94156342D02*
X152386856Y-94156342D01*
X152386856Y-94156342D02*
X152483618Y-94107961D01*
X152483618Y-94107961D02*
X152531999Y-94011199D01*
X152531999Y-94011199D02*
X152531999Y-93962818D01*
X152531999Y-93962818D02*
X152483618Y-93866056D01*
X152483618Y-93866056D02*
X152386856Y-93817675D01*
X152386856Y-93817675D02*
X152241713Y-93817675D01*
X152241713Y-93817675D02*
X152144951Y-93866056D01*
X150306475Y-94398247D02*
X150354856Y-94446628D01*
X150354856Y-94446628D02*
X150499999Y-94495008D01*
X150499999Y-94495008D02*
X150596761Y-94495008D01*
X150596761Y-94495008D02*
X150741904Y-94446628D01*
X150741904Y-94446628D02*
X150838666Y-94349866D01*
X150838666Y-94349866D02*
X150887047Y-94253104D01*
X150887047Y-94253104D02*
X150935428Y-94059580D01*
X150935428Y-94059580D02*
X150935428Y-93914437D01*
X150935428Y-93914437D02*
X150887047Y-93720913D01*
X150887047Y-93720913D02*
X150838666Y-93624151D01*
X150838666Y-93624151D02*
X150741904Y-93527389D01*
X150741904Y-93527389D02*
X150596761Y-93479008D01*
X150596761Y-93479008D02*
X150499999Y-93479008D01*
X150499999Y-93479008D02*
X150354856Y-93527389D01*
X150354856Y-93527389D02*
X150306475Y-93575770D01*
X149435618Y-93817675D02*
X149435618Y-94495008D01*
X149871047Y-93817675D02*
X149871047Y-94349866D01*
X149871047Y-94349866D02*
X149822666Y-94446628D01*
X149822666Y-94446628D02*
X149725904Y-94495008D01*
X149725904Y-94495008D02*
X149580761Y-94495008D01*
X149580761Y-94495008D02*
X149483999Y-94446628D01*
X149483999Y-94446628D02*
X149435618Y-94398247D01*
X148951809Y-94495008D02*
X148951809Y-93479008D01*
X148951809Y-93866056D02*
X148855047Y-93817675D01*
X148855047Y-93817675D02*
X148661523Y-93817675D01*
X148661523Y-93817675D02*
X148564761Y-93866056D01*
X148564761Y-93866056D02*
X148516380Y-93914437D01*
X148516380Y-93914437D02*
X148467999Y-94011199D01*
X148467999Y-94011199D02*
X148467999Y-94301485D01*
X148467999Y-94301485D02*
X148516380Y-94398247D01*
X148516380Y-94398247D02*
X148564761Y-94446628D01*
X148564761Y-94446628D02*
X148661523Y-94495008D01*
X148661523Y-94495008D02*
X148855047Y-94495008D01*
X148855047Y-94495008D02*
X148951809Y-94446628D01*
X147645523Y-94446628D02*
X147742285Y-94495008D01*
X147742285Y-94495008D02*
X147935809Y-94495008D01*
X147935809Y-94495008D02*
X148032571Y-94446628D01*
X148032571Y-94446628D02*
X148080952Y-94349866D01*
X148080952Y-94349866D02*
X148080952Y-93962818D01*
X148080952Y-93962818D02*
X148032571Y-93866056D01*
X148032571Y-93866056D02*
X147935809Y-93817675D01*
X147935809Y-93817675D02*
X147742285Y-93817675D01*
X147742285Y-93817675D02*
X147645523Y-93866056D01*
X147645523Y-93866056D02*
X147597142Y-93962818D01*
X147597142Y-93962818D02*
X147597142Y-94059580D01*
X147597142Y-94059580D02*
X148080952Y-94156342D01*
X147210095Y-94446628D02*
X147064952Y-94495008D01*
X147064952Y-94495008D02*
X146823047Y-94495008D01*
X146823047Y-94495008D02*
X146726285Y-94446628D01*
X146726285Y-94446628D02*
X146677904Y-94398247D01*
X146677904Y-94398247D02*
X146629523Y-94301485D01*
X146629523Y-94301485D02*
X146629523Y-94204723D01*
X146629523Y-94204723D02*
X146677904Y-94107961D01*
X146677904Y-94107961D02*
X146726285Y-94059580D01*
X146726285Y-94059580D02*
X146823047Y-94011199D01*
X146823047Y-94011199D02*
X147016571Y-93962818D01*
X147016571Y-93962818D02*
X147113333Y-93914437D01*
X147113333Y-93914437D02*
X147161714Y-93866056D01*
X147161714Y-93866056D02*
X147210095Y-93769294D01*
X147210095Y-93769294D02*
X147210095Y-93672532D01*
X147210095Y-93672532D02*
X147161714Y-93575770D01*
X147161714Y-93575770D02*
X147113333Y-93527389D01*
X147113333Y-93527389D02*
X147016571Y-93479008D01*
X147016571Y-93479008D02*
X146774666Y-93479008D01*
X146774666Y-93479008D02*
X146629523Y-93527389D01*
X145758666Y-94495008D02*
X145758666Y-93962818D01*
X145758666Y-93962818D02*
X145807047Y-93866056D01*
X145807047Y-93866056D02*
X145903809Y-93817675D01*
X145903809Y-93817675D02*
X146097333Y-93817675D01*
X146097333Y-93817675D02*
X146194095Y-93866056D01*
X145758666Y-94446628D02*
X145855428Y-94495008D01*
X145855428Y-94495008D02*
X146097333Y-94495008D01*
X146097333Y-94495008D02*
X146194095Y-94446628D01*
X146194095Y-94446628D02*
X146242476Y-94349866D01*
X146242476Y-94349866D02*
X146242476Y-94253104D01*
X146242476Y-94253104D02*
X146194095Y-94156342D01*
X146194095Y-94156342D02*
X146097333Y-94107961D01*
X146097333Y-94107961D02*
X145855428Y-94107961D01*
X145855428Y-94107961D02*
X145758666Y-94059580D01*
X145420000Y-93817675D02*
X145032952Y-93817675D01*
X145274857Y-93479008D02*
X145274857Y-94349866D01*
X145274857Y-94349866D02*
X145226476Y-94446628D01*
X145226476Y-94446628D02*
X145129714Y-94495008D01*
X145129714Y-94495008D02*
X145032952Y-94495008D01*
X154225332Y-95114711D02*
X153547998Y-96130711D01*
X153547998Y-95114711D02*
X154225332Y-96130711D01*
X152967427Y-95646902D02*
X152967427Y-96130711D01*
X153306094Y-95114711D02*
X152967427Y-95646902D01*
X152967427Y-95646902D02*
X152628760Y-95114711D01*
X151177332Y-95598521D02*
X151032189Y-95646902D01*
X151032189Y-95646902D02*
X150983808Y-95695283D01*
X150983808Y-95695283D02*
X150935427Y-95792045D01*
X150935427Y-95792045D02*
X150935427Y-95937188D01*
X150935427Y-95937188D02*
X150983808Y-96033950D01*
X150983808Y-96033950D02*
X151032189Y-96082331D01*
X151032189Y-96082331D02*
X151128951Y-96130711D01*
X151128951Y-96130711D02*
X151515999Y-96130711D01*
X151515999Y-96130711D02*
X151515999Y-95114711D01*
X151515999Y-95114711D02*
X151177332Y-95114711D01*
X151177332Y-95114711D02*
X151080570Y-95163092D01*
X151080570Y-95163092D02*
X151032189Y-95211473D01*
X151032189Y-95211473D02*
X150983808Y-95308235D01*
X150983808Y-95308235D02*
X150983808Y-95404997D01*
X150983808Y-95404997D02*
X151032189Y-95501759D01*
X151032189Y-95501759D02*
X151080570Y-95550140D01*
X151080570Y-95550140D02*
X151177332Y-95598521D01*
X151177332Y-95598521D02*
X151515999Y-95598521D01*
X150064570Y-96130711D02*
X150064570Y-95598521D01*
X150064570Y-95598521D02*
X150112951Y-95501759D01*
X150112951Y-95501759D02*
X150209713Y-95453378D01*
X150209713Y-95453378D02*
X150403237Y-95453378D01*
X150403237Y-95453378D02*
X150499999Y-95501759D01*
X150064570Y-96082331D02*
X150161332Y-96130711D01*
X150161332Y-96130711D02*
X150403237Y-96130711D01*
X150403237Y-96130711D02*
X150499999Y-96082331D01*
X150499999Y-96082331D02*
X150548380Y-95985569D01*
X150548380Y-95985569D02*
X150548380Y-95888807D01*
X150548380Y-95888807D02*
X150499999Y-95792045D01*
X150499999Y-95792045D02*
X150403237Y-95743664D01*
X150403237Y-95743664D02*
X150161332Y-95743664D01*
X150161332Y-95743664D02*
X150064570Y-95695283D01*
X149145332Y-96082331D02*
X149242094Y-96130711D01*
X149242094Y-96130711D02*
X149435618Y-96130711D01*
X149435618Y-96130711D02*
X149532380Y-96082331D01*
X149532380Y-96082331D02*
X149580761Y-96033950D01*
X149580761Y-96033950D02*
X149629142Y-95937188D01*
X149629142Y-95937188D02*
X149629142Y-95646902D01*
X149629142Y-95646902D02*
X149580761Y-95550140D01*
X149580761Y-95550140D02*
X149532380Y-95501759D01*
X149532380Y-95501759D02*
X149435618Y-95453378D01*
X149435618Y-95453378D02*
X149242094Y-95453378D01*
X149242094Y-95453378D02*
X149145332Y-95501759D01*
X148709904Y-96130711D02*
X148709904Y-95114711D01*
X148613142Y-95743664D02*
X148322856Y-96130711D01*
X148322856Y-95453378D02*
X148709904Y-95840426D01*
X147500380Y-96082331D02*
X147597142Y-96130711D01*
X147597142Y-96130711D02*
X147790666Y-96130711D01*
X147790666Y-96130711D02*
X147887428Y-96082331D01*
X147887428Y-96082331D02*
X147935809Y-95985569D01*
X147935809Y-95985569D02*
X147935809Y-95598521D01*
X147935809Y-95598521D02*
X147887428Y-95501759D01*
X147887428Y-95501759D02*
X147790666Y-95453378D01*
X147790666Y-95453378D02*
X147597142Y-95453378D01*
X147597142Y-95453378D02*
X147500380Y-95501759D01*
X147500380Y-95501759D02*
X147451999Y-95598521D01*
X147451999Y-95598521D02*
X147451999Y-95695283D01*
X147451999Y-95695283D02*
X147935809Y-95792045D01*
X147016571Y-96130711D02*
X147016571Y-95453378D01*
X147016571Y-95646902D02*
X146968190Y-95550140D01*
X146968190Y-95550140D02*
X146919809Y-95501759D01*
X146919809Y-95501759D02*
X146823047Y-95453378D01*
X146823047Y-95453378D02*
X146726285Y-95453378D01*
X151951428Y-97089081D02*
X151709523Y-97766414D01*
X151709523Y-97766414D02*
X151467618Y-97089081D01*
X150548380Y-97766414D02*
X151128952Y-97766414D01*
X150838666Y-97766414D02*
X150838666Y-96750414D01*
X150838666Y-96750414D02*
X150935428Y-96895557D01*
X150935428Y-96895557D02*
X151032190Y-96992319D01*
X151032190Y-96992319D02*
X151128952Y-97040700D01*
X150112952Y-97669653D02*
X150064571Y-97718034D01*
X150064571Y-97718034D02*
X150112952Y-97766414D01*
X150112952Y-97766414D02*
X150161333Y-97718034D01*
X150161333Y-97718034D02*
X150112952Y-97669653D01*
X150112952Y-97669653D02*
X150112952Y-97766414D01*
X149435618Y-96750414D02*
X149338856Y-96750414D01*
X149338856Y-96750414D02*
X149242094Y-96798795D01*
X149242094Y-96798795D02*
X149193713Y-96847176D01*
X149193713Y-96847176D02*
X149145332Y-96943938D01*
X149145332Y-96943938D02*
X149096951Y-97137462D01*
X149096951Y-97137462D02*
X149096951Y-97379367D01*
X149096951Y-97379367D02*
X149145332Y-97572891D01*
X149145332Y-97572891D02*
X149193713Y-97669653D01*
X149193713Y-97669653D02*
X149242094Y-97718034D01*
X149242094Y-97718034D02*
X149338856Y-97766414D01*
X149338856Y-97766414D02*
X149435618Y-97766414D01*
X149435618Y-97766414D02*
X149532380Y-97718034D01*
X149532380Y-97718034D02*
X149580761Y-97669653D01*
X149580761Y-97669653D02*
X149629142Y-97572891D01*
X149629142Y-97572891D02*
X149677523Y-97379367D01*
X149677523Y-97379367D02*
X149677523Y-97137462D01*
X149677523Y-97137462D02*
X149629142Y-96943938D01*
X149629142Y-96943938D02*
X149580761Y-96847176D01*
X149580761Y-96847176D02*
X149532380Y-96798795D01*
X149532380Y-96798795D02*
X149435618Y-96750414D01*
M02*
