%TF.GenerationSoftware,KiCad,Pcbnew,9.0.7*%
%TF.CreationDate,2026-02-05T16:57:12-05:00*%
%TF.ProjectId,Cell Backer,43656c6c-2042-4616-936b-65722e6b6963,rev?*%
%TF.SameCoordinates,Original*%
%TF.FileFunction,Profile,NP*%
%FSLAX46Y46*%
G04 Gerber Fmt 4.6, Leading zero omitted, Abs format (unit mm)*
G04 Created by KiCad (PCBNEW 9.0.7) date 2026-02-05 16:57:12*
%MOMM*%
%LPD*%
G01*
G04 APERTURE LIST*
%TA.AperFunction,Profile*%
%ADD10C,0.050000*%
%TD*%
G04 APERTURE END LIST*
D10*
X143000000Y-90508860D02*
X143000000Y-87508900D01*
X143499999Y-113899999D02*
X137476000Y-113900000D01*
X132976000Y-136900000D02*
G75*
G02*
X130476000Y-134400000I0J2500000D01*
G01*
X132976000Y-136900000D02*
X137476000Y-136900000D01*
X168024000Y-113899998D02*
G75*
G02*
X170524002Y-116399998I0J-2500002D01*
G01*
X189024000Y-92500000D02*
G75*
G02*
X191524000Y-95000000I0J-2500000D01*
G01*
X162000000Y-148744720D02*
X139000000Y-148744720D01*
X168024000Y-69500000D02*
X163524000Y-69500000D01*
X114476000Y-144000000D02*
X139000000Y-144000000D01*
X118976000Y-111500000D02*
X111976000Y-111500001D01*
X179524000Y-72000000D02*
X179524000Y-90000000D01*
X114476000Y-139500000D02*
X114476000Y-144000000D01*
X168024000Y-69500000D02*
G75*
G02*
X170524000Y-72000001I0J-2500000D01*
G01*
X191524000Y-95000000D02*
X191524000Y-109000000D01*
X182024000Y-92500000D02*
G75*
G02*
X179524000Y-90000000I0J2500000D01*
G01*
X170524000Y-134400000D02*
G75*
G02*
X168024000Y-136900000I-2500000J0D01*
G01*
X111976000Y-134500000D02*
X118976000Y-134500001D01*
X114476000Y-69500000D02*
X111976000Y-69500000D01*
X111976000Y-139500000D02*
G75*
G02*
X109476000Y-137000000I0J2500000D01*
G01*
X144500000Y-92008860D02*
X156500000Y-92008860D01*
X132976000Y-78744720D02*
X137476001Y-78744720D01*
X186524000Y-69500000D02*
X189024000Y-69500000D01*
X144500000Y-92008860D02*
G75*
G02*
X142999940Y-90508860I0J1500060D01*
G01*
X170524000Y-76244720D02*
G75*
G02*
X168024000Y-78744700I-2500000J20D01*
G01*
X146000000Y-116399999D02*
X146000000Y-134400000D01*
X170524001Y-116399998D02*
X170523999Y-134400000D01*
X121476000Y-132000000D02*
G75*
G02*
X118976000Y-134500000I-2500000J0D01*
G01*
X118976000Y-69500000D02*
X114476000Y-69500000D01*
X182024000Y-69500000D02*
X186524000Y-69500000D01*
X182024000Y-92500000D02*
X189024000Y-92500000D01*
X111976000Y-111500001D02*
G75*
G02*
X109475999Y-109000001I0J2500001D01*
G01*
X137476001Y-78744720D02*
X139000000Y-78744720D01*
X109476000Y-137000000D02*
G75*
G02*
X111976000Y-134500000I2500000J0D01*
G01*
X130476000Y-116400000D02*
G75*
G02*
X132976000Y-113900000I2500000J0D01*
G01*
X109476000Y-67000000D02*
G75*
G02*
X111976000Y-64500000I2500000J0D01*
G01*
X182024000Y-134499999D02*
G75*
G02*
X179524001Y-131999999I0J2499999D01*
G01*
X189024000Y-64500000D02*
G75*
G02*
X191524000Y-67000000I0J-2500000D01*
G01*
X168024000Y-78744720D02*
X165774000Y-78744720D01*
X168024000Y-136900000D02*
X163524000Y-136899999D01*
X186524000Y-64500000D02*
X186524000Y-60000001D01*
X191524000Y-67000000D02*
G75*
G02*
X189024000Y-69500000I-2500000J0D01*
G01*
X130476000Y-72000001D02*
X130476000Y-76244700D01*
X114476000Y-64500000D02*
X111976000Y-64500000D01*
X114476000Y-60000000D02*
X137476000Y-60000000D01*
X141900000Y-89008860D02*
G75*
G02*
X138100000Y-89008860I-1900000J0D01*
G01*
X138100000Y-89008860D02*
G75*
G02*
X141900000Y-89008860I1900000J0D01*
G01*
X114476000Y-64500000D02*
X114476000Y-60000000D01*
X165774000Y-78744720D02*
X162000000Y-78744720D01*
X156500000Y-86008860D02*
G75*
G02*
X158000040Y-87508860I0J-1500040D01*
G01*
X170524000Y-76244700D02*
X170524000Y-72000001D01*
X189024000Y-64500000D02*
X186524000Y-64500000D01*
X155000000Y-134400000D02*
X155000000Y-116400000D01*
X139000000Y-78744720D02*
X162000000Y-78744720D01*
X121476000Y-114000000D02*
X121476000Y-132000000D01*
X137476000Y-69500000D02*
X137476000Y-60000000D01*
X189023999Y-111500001D02*
X182024000Y-111500001D01*
X191524000Y-109000000D02*
G75*
G02*
X189024000Y-111500000I-2500000J0D01*
G01*
X186524000Y-144000000D02*
X186524000Y-139500000D01*
X186524000Y-139500000D02*
X189024000Y-139500000D01*
X158000000Y-87508860D02*
X158000000Y-90508860D01*
X157500000Y-113900000D02*
X168024000Y-113899998D01*
X130476000Y-134400000D02*
X130476000Y-116400000D01*
X162900000Y-89008860D02*
G75*
G02*
X159100000Y-89008860I-1900000J0D01*
G01*
X159100000Y-89008860D02*
G75*
G02*
X162900000Y-89008860I1900000J0D01*
G01*
X111976000Y-69500000D02*
G75*
G02*
X109476000Y-67000000I0J2500000D01*
G01*
X143000000Y-87508860D02*
G75*
G02*
X144500000Y-86008900I1500000J-40D01*
G01*
X162000000Y-148744720D02*
X162000000Y-144000000D01*
X143500000Y-136900000D02*
X137476000Y-136899999D01*
X182024000Y-134499999D02*
X186524000Y-134499999D01*
X132976000Y-113900000D02*
X137476000Y-113900000D01*
X130476000Y-72000001D02*
G75*
G02*
X132976000Y-69500000I2500000J1D01*
G01*
X163524000Y-60000000D02*
X186524000Y-60000000D01*
X146000000Y-134400000D02*
G75*
G02*
X143500000Y-136900000I-2500000J0D01*
G01*
X154999999Y-116400000D02*
G75*
G02*
X157500000Y-113899999I2500001J0D01*
G01*
X189024000Y-134500000D02*
X186524000Y-134499999D01*
X179524000Y-72000000D02*
G75*
G02*
X182024000Y-69500000I2500000J0D01*
G01*
X179524000Y-114000001D02*
G75*
G02*
X182024000Y-111500000I2500000J1D01*
G01*
X143500000Y-113899999D02*
G75*
G02*
X146000001Y-116399999I0J-2500001D01*
G01*
X109476000Y-95000000D02*
X109476000Y-109000000D01*
X189024000Y-134500000D02*
G75*
G02*
X191524000Y-137000000I0J-2500000D01*
G01*
X132976000Y-69500000D02*
X137476000Y-69500000D01*
X109476000Y-95000000D02*
G75*
G02*
X111976000Y-92500000I2500000J0D01*
G01*
X111976000Y-92500000D02*
X118976000Y-92500001D01*
X186524000Y-144000000D02*
X162000000Y-144000000D01*
X158000000Y-90508860D02*
G75*
G02*
X156500000Y-92008900I-1500000J-40D01*
G01*
X179524002Y-131999999D02*
X179524000Y-114000001D01*
X132976000Y-78744701D02*
G75*
G02*
X130475999Y-76244700I0J2500001D01*
G01*
X157500000Y-136900000D02*
X163524000Y-136899999D01*
X118976000Y-111500000D02*
G75*
G02*
X121476000Y-114000000I0J-2500000D01*
G01*
X121476000Y-72000000D02*
X121476000Y-90000000D01*
X118976000Y-69500000D02*
G75*
G02*
X121476000Y-72000000I0J-2500000D01*
G01*
X163524000Y-69500000D02*
X163524000Y-60000000D01*
X191524000Y-137000000D02*
G75*
G02*
X189024000Y-139500000I-2500000J0D01*
G01*
X121476000Y-90000001D02*
G75*
G02*
X118976000Y-92500000I-2500000J1D01*
G01*
X114476000Y-139500000D02*
X111976000Y-139500000D01*
X144500000Y-86008860D02*
X156500000Y-86008860D01*
X139000000Y-144000000D02*
X139000000Y-148744720D01*
X157500000Y-136900000D02*
G75*
G02*
X155000000Y-134400000I0J2500000D01*
G01*
M02*
