M48
; DRILL file {KiCad 9.0.7} date 2026-02-05T16:57:14-0500
; FORMAT={-:-/ absolute / inch / decimal}
; #@! TF.CreationDate,2026-02-05T16:57:14-05:00
; #@! TF.GenerationSoftware,Kicad,Pcbnew,9.0.7
; #@! TF.FileFunction,Plated,1,2,PTH
FMAT,2
INCH
; #@! TA.AperFunction,Plated,PTH,ComponentDrill
T1C0.0394
; #@! TA.AperFunction,Plated,PTH,ComponentDrill
T2C0.1181
%
G90
G05
T1
X4.4085Y-2.6378
X4.4085Y-3.7402
X4.4085Y-4.0157
X4.4085Y-4.2913
X4.4085Y-5.3937
X7.4419Y-2.6378
X7.4419Y-3.7402
X7.4419Y-4.0157
X7.4419Y-4.2913
X7.4419Y-5.3937
T2
X4.9597Y-2.4803
X4.9597Y-2.6378
X4.9597Y-3.7402
X4.9597Y-3.8976
X4.9597Y-4.1339
X4.9597Y-4.2913
X4.9597Y-5.3937
X4.9597Y-5.5512
X5.9252Y-3.2183
X5.9252Y-4.3207
X5.9252Y-4.4781
X5.9252Y-5.5805
X5.9252Y-5.738
X5.9252Y-5.738
X6.8907Y-2.4803
X6.8907Y-2.6378
X6.8907Y-3.7402
X6.8907Y-3.8976
X6.8907Y-4.1339
X6.8907Y-4.2913
X6.8907Y-5.3937
X6.8907Y-5.5512
M30
