%TF.GenerationSoftware,KiCad,Pcbnew,9.0.7*%
%TF.CreationDate,2026-02-05T16:57:12-05:00*%
%TF.ProjectId,Cell Backer,43656c6c-2042-4616-936b-65722e6b6963,rev?*%
%TF.SameCoordinates,Original*%
%TF.FileFunction,Copper,L1,Top*%
%TF.FilePolarity,Positive*%
%FSLAX46Y46*%
G04 Gerber Fmt 4.6, Leading zero omitted, Abs format (unit mm)*
G04 Created by KiCad (PCBNEW 9.0.7) date 2026-02-05 16:57:12*
%MOMM*%
%LPD*%
G01*
G04 APERTURE LIST*
%TA.AperFunction,ComponentPad*%
%ADD10C,1.700000*%
%TD*%
%TA.AperFunction,ComponentPad*%
%ADD11C,4.000000*%
%TD*%
%TA.AperFunction,Conductor*%
%ADD12C,0.635000*%
%TD*%
%TA.AperFunction,Conductor*%
%ADD13C,1.778000*%
%TD*%
%TA.AperFunction,Conductor*%
%ADD14C,1.143000*%
%TD*%
G04 APERTURE END LIST*
D10*
%TO.P,H9,1,1*%
%TO.N,GND*%
X111976000Y-102000000D03*
%TD*%
%TO.P,H4,1,1*%
%TO.N,Net-(SC1-+)*%
X111976000Y-109000000D03*
%TD*%
D11*
%TO.P,SC2,1,+*%
%TO.N,Net-(SC2-+)*%
X125976000Y-137000000D03*
X125976000Y-141000000D03*
%TO.P,SC2,2,-*%
%TO.N,Net-(SC1-+)*%
X125976000Y-105000000D03*
X125976000Y-109000000D03*
%TD*%
D10*
%TO.P,H5,1,1*%
%TO.N,Net-(SC2-+)*%
X111976000Y-137000000D03*
%TD*%
%TO.P,H6,1,1*%
%TO.N,Net-(SC3-+)*%
X189024000Y-67000000D03*
%TD*%
D11*
%TO.P,SC6,1,+*%
%TO.N,Net-(SC3-+)*%
X150500000Y-81744719D03*
%TO.P,SC6,2,-*%
%TO.N,Net-(SC2-+)*%
X150500000Y-145744719D03*
%TD*%
D10*
%TO.P,H10,1,1*%
%TO.N,GND*%
X189024000Y-102000000D03*
%TD*%
%TO.P,H2,1,1*%
%TO.N,Net-(SC4-+)*%
X189024000Y-109000000D03*
%TD*%
%TO.P,H8,1,1*%
%TO.N,VSOLAR*%
X189024000Y-137000000D03*
%TD*%
D11*
%TO.P,SC3,1,+*%
%TO.N,Net-(SC3-+)*%
X150500000Y-113744720D03*
X150500000Y-109744720D03*
%TO.P,SC3,2,-*%
%TO.N,Net-(SC2-+)*%
X150500000Y-145744720D03*
X150500000Y-141744720D03*
%TD*%
D10*
%TO.P,H7,1,1*%
%TO.N,Net-(SC4-+)*%
X189024000Y-95000001D03*
%TD*%
%TO.P,H1,1,1*%
%TO.N,Net-(SC1-+)*%
X111976000Y-95000000D03*
%TD*%
D11*
%TO.P,SC5,1,+*%
%TO.N,VSOLAR*%
X175024000Y-137000000D03*
X175024000Y-141000000D03*
%TO.P,SC5,2,-*%
%TO.N,Net-(SC4-+)*%
X175024000Y-105000000D03*
X175024000Y-109000000D03*
%TD*%
%TO.P,SC4,1,+*%
%TO.N,Net-(SC4-+)*%
X175024000Y-95000000D03*
X175024000Y-99000000D03*
%TO.P,SC4,2,-*%
%TO.N,Net-(SC3-+)*%
X175024000Y-63000000D03*
X175024000Y-67000000D03*
%TD*%
D10*
%TO.P,H3,1,1*%
%TO.N,GND*%
X111976000Y-67000000D03*
%TD*%
D11*
%TO.P,SC1,1,+*%
%TO.N,Net-(SC1-+)*%
X125976000Y-95000000D03*
X125976000Y-99000000D03*
%TO.P,SC1,2,-*%
%TO.N,GND*%
X125976000Y-63000000D03*
X125976000Y-67000000D03*
%TD*%
D12*
%TO.N,GND*%
X125976000Y-63000000D02*
X125976000Y-67000000D01*
D13*
%TO.N,VSOLAR*%
X175273998Y-136750002D02*
X175024000Y-137000000D01*
X189024000Y-137000000D02*
X175273998Y-137000000D01*
X175024000Y-137000000D02*
X175024000Y-141000000D01*
%TO.N,Net-(SC1-+)*%
X125976000Y-109000000D02*
X111976000Y-109000000D01*
D14*
X125726000Y-94750000D02*
X125976000Y-95000000D01*
D13*
X125976000Y-95000000D02*
X125976000Y-109000000D01*
X125976000Y-95000000D02*
X111976000Y-95000000D01*
D14*
X125726000Y-109250000D02*
X125976000Y-109000000D01*
D13*
%TO.N,Net-(SC2-+)*%
X125976000Y-141000000D02*
X149755280Y-141000000D01*
X149755280Y-141000000D02*
X150500000Y-141744720D01*
X125725999Y-136749999D02*
X125976000Y-137000000D01*
X125976000Y-141000000D02*
X125976000Y-137000000D01*
X150500000Y-145744720D02*
X150500000Y-141744720D01*
X111976000Y-137000000D02*
X125725999Y-137000000D01*
%TO.N,Net-(SC3-+)*%
X166900000Y-109744720D02*
X150500000Y-109744720D01*
X175274000Y-67250000D02*
X175024000Y-67000000D01*
X175024000Y-81744719D02*
X175024000Y-67000000D01*
X150500000Y-109744720D02*
X150500000Y-113744720D01*
X150500000Y-81744719D02*
X167300000Y-81744719D01*
X175024000Y-67000000D02*
X175024000Y-63000000D01*
X167300000Y-81744719D02*
X175024000Y-81744719D01*
X175024000Y-67000000D02*
X189024000Y-67000000D01*
X166900000Y-82144719D02*
X166900000Y-109744720D01*
%TO.N,Net-(SC4-+)*%
X175024000Y-95000000D02*
X189024000Y-95000001D01*
X175024000Y-95000000D02*
X175024000Y-109000000D01*
X175024001Y-95000001D02*
X175024000Y-95000000D01*
X175024000Y-109000000D02*
X188900000Y-109000000D01*
%TD*%
%TA.AperFunction,Conductor*%
%TO.N,GND*%
G36*
X137036621Y-60401502D02*
G01*
X137083114Y-60455158D01*
X137094500Y-60507500D01*
X137094500Y-68992500D01*
X137074498Y-69060621D01*
X137020842Y-69107114D01*
X136968500Y-69118500D01*
X132814176Y-69118500D01*
X132492566Y-69154737D01*
X132177034Y-69226755D01*
X131871577Y-69333640D01*
X131871550Y-69333651D01*
X131579964Y-69474071D01*
X131305930Y-69646259D01*
X131052893Y-69848049D01*
X130824048Y-70076894D01*
X130622256Y-70329933D01*
X130622252Y-70329940D01*
X130450072Y-70603963D01*
X130450071Y-70603966D01*
X130309647Y-70895558D01*
X130309639Y-70895578D01*
X130202755Y-71201036D01*
X130130737Y-71516567D01*
X130094500Y-71838178D01*
X130094500Y-76192508D01*
X130094499Y-76192511D01*
X130094499Y-76406523D01*
X130130736Y-76728133D01*
X130145547Y-76793022D01*
X130202753Y-77043659D01*
X130202755Y-77043665D01*
X130202754Y-77043665D01*
X130309639Y-77349122D01*
X130309650Y-77349150D01*
X130393197Y-77522637D01*
X130450069Y-77640733D01*
X130450071Y-77640736D01*
X130622258Y-77914770D01*
X130824041Y-78167800D01*
X131052899Y-78396658D01*
X131305929Y-78598441D01*
X131305942Y-78598449D01*
X131579967Y-78770631D01*
X131808320Y-78880599D01*
X131871549Y-78911049D01*
X131871552Y-78911050D01*
X131871560Y-78911054D01*
X131871575Y-78911059D01*
X131871577Y-78911060D01*
X132177034Y-79017945D01*
X132177037Y-79017945D01*
X132177041Y-79017947D01*
X132492570Y-79089964D01*
X132720618Y-79115659D01*
X132814176Y-79126201D01*
X132814178Y-79126201D01*
X132917383Y-79126201D01*
X132917672Y-79126220D01*
X132925775Y-79126220D01*
X168082292Y-79126220D01*
X168082599Y-79126200D01*
X168185822Y-79126200D01*
X168240561Y-79120032D01*
X168507427Y-79089964D01*
X168822954Y-79017947D01*
X169128434Y-78911055D01*
X169420026Y-78770633D01*
X169694061Y-78598447D01*
X169947095Y-78396660D01*
X170175945Y-78167812D01*
X170377733Y-77914780D01*
X170549922Y-77640746D01*
X170690347Y-77349156D01*
X170797241Y-77043677D01*
X170869260Y-76728150D01*
X170905498Y-76406544D01*
X170905498Y-76309596D01*
X170905500Y-76309591D01*
X170905500Y-71838178D01*
X170892576Y-71723480D01*
X170869263Y-71516571D01*
X170797246Y-71201043D01*
X170797243Y-71201035D01*
X170690360Y-70895578D01*
X170690359Y-70895576D01*
X170690354Y-70895561D01*
X170549930Y-70603969D01*
X170549927Y-70603964D01*
X170549927Y-70603963D01*
X170377747Y-70329940D01*
X170377743Y-70329933D01*
X170175951Y-70076894D01*
X169947106Y-69848049D01*
X169694069Y-69646259D01*
X169420035Y-69474071D01*
X169128449Y-69333651D01*
X169128444Y-69333649D01*
X169128440Y-69333647D01*
X169128434Y-69333644D01*
X169128422Y-69333640D01*
X168822965Y-69226755D01*
X168507433Y-69154737D01*
X168185824Y-69118500D01*
X168185822Y-69118500D01*
X168074225Y-69118500D01*
X164031500Y-69118500D01*
X163963379Y-69098498D01*
X163916886Y-69044842D01*
X163905500Y-68992500D01*
X163905500Y-60507500D01*
X163925502Y-60439379D01*
X163979158Y-60392886D01*
X164031500Y-60381500D01*
X186016500Y-60381500D01*
X186084621Y-60401502D01*
X186131114Y-60455158D01*
X186142500Y-60507500D01*
X186142500Y-64550223D01*
X186142499Y-64550223D01*
X186168500Y-64647258D01*
X186218721Y-64734243D01*
X186218729Y-64734253D01*
X186289746Y-64805270D01*
X186289751Y-64805274D01*
X186289753Y-64805276D01*
X186289754Y-64805277D01*
X186289756Y-64805278D01*
X186376741Y-64855499D01*
X186376743Y-64855499D01*
X186376746Y-64855501D01*
X186473775Y-64881500D01*
X188969149Y-64881500D01*
X189019878Y-64881500D01*
X189028118Y-64881770D01*
X189058109Y-64883735D01*
X189292288Y-64899084D01*
X189308604Y-64901232D01*
X189564216Y-64952076D01*
X189580127Y-64956340D01*
X189826903Y-65040109D01*
X189842110Y-65046408D01*
X190075851Y-65161676D01*
X190090108Y-65169907D01*
X190286812Y-65301341D01*
X190306795Y-65314693D01*
X190319870Y-65324726D01*
X190515796Y-65496548D01*
X190527451Y-65508203D01*
X190699273Y-65704129D01*
X190709306Y-65717204D01*
X190821195Y-65884658D01*
X190854087Y-65933883D01*
X190862326Y-65948153D01*
X190898739Y-66021991D01*
X190977587Y-66181879D01*
X190983894Y-66197106D01*
X191067658Y-66443869D01*
X191071924Y-66459788D01*
X191092066Y-66561046D01*
X191115735Y-66680041D01*
X191122765Y-66715380D01*
X191124916Y-66731722D01*
X191141959Y-66991760D01*
X191141959Y-67008240D01*
X191124916Y-67268277D01*
X191122765Y-67284619D01*
X191071924Y-67540211D01*
X191067658Y-67556130D01*
X190983894Y-67802893D01*
X190977587Y-67818120D01*
X190862328Y-68051842D01*
X190854087Y-68066116D01*
X190709306Y-68282795D01*
X190699273Y-68295870D01*
X190527451Y-68491796D01*
X190515796Y-68503451D01*
X190319870Y-68675273D01*
X190306795Y-68685306D01*
X190090116Y-68830087D01*
X190075842Y-68838328D01*
X189842120Y-68953587D01*
X189826893Y-68959894D01*
X189580130Y-69043658D01*
X189564211Y-69047924D01*
X189308619Y-69098765D01*
X189292278Y-69100916D01*
X189028119Y-69118230D01*
X189019878Y-69118500D01*
X181862176Y-69118500D01*
X181540566Y-69154737D01*
X181225035Y-69226755D01*
X180919577Y-69333640D01*
X180919550Y-69333651D01*
X180627964Y-69474071D01*
X180353930Y-69646259D01*
X180100893Y-69848049D01*
X179872049Y-70076893D01*
X179670259Y-70329930D01*
X179498071Y-70603964D01*
X179357651Y-70895550D01*
X179357640Y-70895577D01*
X179250755Y-71201035D01*
X179178737Y-71516566D01*
X179142500Y-71838176D01*
X179142500Y-90161823D01*
X179178737Y-90483433D01*
X179187695Y-90522679D01*
X179250754Y-90798958D01*
X179250756Y-90798964D01*
X179250755Y-90798964D01*
X179357640Y-91104422D01*
X179357651Y-91104449D01*
X179498071Y-91396035D01*
X179670259Y-91670069D01*
X179872049Y-91923106D01*
X180100893Y-92151950D01*
X180161120Y-92199979D01*
X180353931Y-92353741D01*
X180469007Y-92426048D01*
X180627964Y-92525928D01*
X180627967Y-92525929D01*
X180627968Y-92525930D01*
X180919560Y-92666353D01*
X180919576Y-92666358D01*
X180919577Y-92666359D01*
X181225035Y-92773244D01*
X181225038Y-92773244D01*
X181225042Y-92773246D01*
X181540570Y-92845263D01*
X181768618Y-92870958D01*
X181862176Y-92881500D01*
X181862178Y-92881500D01*
X181973775Y-92881500D01*
X188969149Y-92881500D01*
X189019878Y-92881500D01*
X189028118Y-92881770D01*
X189058109Y-92883735D01*
X189292288Y-92899084D01*
X189308604Y-92901232D01*
X189564216Y-92952076D01*
X189580127Y-92956340D01*
X189826903Y-93040109D01*
X189842110Y-93046408D01*
X190075851Y-93161676D01*
X190090108Y-93169907D01*
X190286812Y-93301341D01*
X190306795Y-93314693D01*
X190319870Y-93324726D01*
X190515796Y-93496548D01*
X190527451Y-93508203D01*
X190699273Y-93704129D01*
X190709306Y-93717204D01*
X190821195Y-93884658D01*
X190854087Y-93933883D01*
X190862326Y-93948153D01*
X190898739Y-94021991D01*
X190977587Y-94181879D01*
X190983894Y-94197106D01*
X191067658Y-94443869D01*
X191071924Y-94459788D01*
X191122765Y-94715380D01*
X191124916Y-94731721D01*
X191142230Y-94995880D01*
X191142500Y-95004121D01*
X191142500Y-108995878D01*
X191142230Y-109004119D01*
X191124916Y-109268278D01*
X191122765Y-109284619D01*
X191071924Y-109540211D01*
X191067658Y-109556130D01*
X190983894Y-109802893D01*
X190977587Y-109818120D01*
X190862328Y-110051842D01*
X190854087Y-110066116D01*
X190709306Y-110282795D01*
X190699273Y-110295870D01*
X190527451Y-110491796D01*
X190515796Y-110503451D01*
X190319870Y-110675273D01*
X190306795Y-110685306D01*
X190090116Y-110830087D01*
X190075842Y-110838328D01*
X189842120Y-110953587D01*
X189826893Y-110959894D01*
X189580130Y-111043658D01*
X189564211Y-111047924D01*
X189308619Y-111098765D01*
X189292278Y-111100916D01*
X189028119Y-111118230D01*
X189019880Y-111118500D01*
X188969149Y-111118500D01*
X188969146Y-111118500D01*
X188958988Y-111118501D01*
X188958987Y-111118500D01*
X188958986Y-111118501D01*
X182076192Y-111118501D01*
X182076189Y-111118500D01*
X182024000Y-111118500D01*
X181862178Y-111118500D01*
X181862176Y-111118500D01*
X181540566Y-111154737D01*
X181225034Y-111226755D01*
X180919577Y-111333640D01*
X180919550Y-111333651D01*
X180627964Y-111474071D01*
X180353930Y-111646259D01*
X180100893Y-111848049D01*
X179872048Y-112076894D01*
X179670256Y-112329933D01*
X179670252Y-112329940D01*
X179498072Y-112603963D01*
X179498071Y-112603966D01*
X179357647Y-112895558D01*
X179357639Y-112895578D01*
X179250755Y-113201036D01*
X179178737Y-113516567D01*
X179142500Y-113838178D01*
X179142500Y-132052181D01*
X179142501Y-132052191D01*
X179142501Y-132161821D01*
X179178738Y-132483431D01*
X179193546Y-132548307D01*
X179250755Y-132798957D01*
X179250757Y-132798963D01*
X179250756Y-132798963D01*
X179357640Y-133104421D01*
X179357645Y-133104435D01*
X179357647Y-133104439D01*
X179357648Y-133104441D01*
X179498072Y-133396033D01*
X179498073Y-133396035D01*
X179670261Y-133670070D01*
X179670264Y-133670074D01*
X179872042Y-133923098D01*
X180100900Y-134151956D01*
X180353930Y-134353739D01*
X180627964Y-134525927D01*
X180627967Y-134525928D01*
X180627968Y-134525929D01*
X180919560Y-134666352D01*
X180919576Y-134666357D01*
X180919577Y-134666358D01*
X181225035Y-134773243D01*
X181225038Y-134773243D01*
X181225042Y-134773245D01*
X181540570Y-134845262D01*
X181768618Y-134870957D01*
X181862176Y-134881499D01*
X181862178Y-134881499D01*
X181973775Y-134881499D01*
X186473775Y-134881499D01*
X188944086Y-134881499D01*
X188969148Y-134881499D01*
X188969149Y-134881500D01*
X189019880Y-134881500D01*
X189028118Y-134881770D01*
X189053446Y-134883430D01*
X189292288Y-134899084D01*
X189308604Y-134901232D01*
X189564216Y-134952076D01*
X189580127Y-134956340D01*
X189826903Y-135040109D01*
X189842110Y-135046408D01*
X190075851Y-135161676D01*
X190090108Y-135169907D01*
X190286812Y-135301341D01*
X190306795Y-135314693D01*
X190319870Y-135324726D01*
X190515796Y-135496548D01*
X190527451Y-135508203D01*
X190699273Y-135704129D01*
X190709306Y-135717204D01*
X190830114Y-135898006D01*
X190854087Y-135933883D01*
X190862326Y-135948153D01*
X190898739Y-136021991D01*
X190977587Y-136181879D01*
X190983894Y-136197106D01*
X191067658Y-136443869D01*
X191071924Y-136459788D01*
X191122765Y-136715380D01*
X191124916Y-136731722D01*
X191141959Y-136991760D01*
X191141959Y-137008240D01*
X191124916Y-137268277D01*
X191122765Y-137284619D01*
X191071924Y-137540211D01*
X191067658Y-137556130D01*
X190983894Y-137802893D01*
X190977587Y-137818120D01*
X190862328Y-138051842D01*
X190854087Y-138066116D01*
X190709306Y-138282795D01*
X190699273Y-138295870D01*
X190527451Y-138491796D01*
X190515796Y-138503451D01*
X190319870Y-138675273D01*
X190306795Y-138685306D01*
X190090116Y-138830087D01*
X190075842Y-138838328D01*
X189842120Y-138953587D01*
X189826893Y-138959894D01*
X189580130Y-139043658D01*
X189564211Y-139047924D01*
X189308619Y-139098765D01*
X189292278Y-139100916D01*
X189028119Y-139118230D01*
X189019878Y-139118500D01*
X186574225Y-139118500D01*
X186473775Y-139118500D01*
X186414390Y-139134412D01*
X186376741Y-139144500D01*
X186289756Y-139194721D01*
X186289746Y-139194729D01*
X186218729Y-139265746D01*
X186218721Y-139265756D01*
X186168500Y-139352741D01*
X186142500Y-139449776D01*
X186142500Y-143492500D01*
X186122498Y-143560621D01*
X186068842Y-143607114D01*
X186016500Y-143618500D01*
X162050225Y-143618500D01*
X161949775Y-143618500D01*
X161890390Y-143634412D01*
X161852741Y-143644500D01*
X161765756Y-143694721D01*
X161765746Y-143694729D01*
X161694729Y-143765746D01*
X161694721Y-143765756D01*
X161644500Y-143852741D01*
X161618500Y-143949776D01*
X161618500Y-148237220D01*
X161598498Y-148305341D01*
X161544842Y-148351834D01*
X161492500Y-148363220D01*
X139507500Y-148363220D01*
X139439379Y-148343218D01*
X139392886Y-148289562D01*
X139381500Y-148237220D01*
X139381500Y-143949776D01*
X139381500Y-143949775D01*
X139355501Y-143852746D01*
X139355499Y-143852743D01*
X139355499Y-143852741D01*
X139305278Y-143765756D01*
X139305270Y-143765746D01*
X139234253Y-143694729D01*
X139234243Y-143694721D01*
X139147258Y-143644500D01*
X139135792Y-143641427D01*
X139050225Y-143618500D01*
X139050223Y-143618500D01*
X114983500Y-143618500D01*
X114915379Y-143598498D01*
X114868886Y-143544842D01*
X114857500Y-143492500D01*
X114857500Y-139449776D01*
X114857500Y-139449775D01*
X114831501Y-139352746D01*
X114831499Y-139352743D01*
X114831499Y-139352741D01*
X114781278Y-139265756D01*
X114781270Y-139265746D01*
X114710253Y-139194729D01*
X114710243Y-139194721D01*
X114623258Y-139144500D01*
X114611792Y-139141427D01*
X114526225Y-139118500D01*
X114526223Y-139118500D01*
X111980122Y-139118500D01*
X111971881Y-139118230D01*
X111707721Y-139100916D01*
X111691382Y-139098765D01*
X111586410Y-139077885D01*
X111435788Y-139047924D01*
X111419869Y-139043658D01*
X111173106Y-138959894D01*
X111157879Y-138953587D01*
X111136555Y-138943071D01*
X110924153Y-138838326D01*
X110909887Y-138830089D01*
X110693204Y-138685306D01*
X110680129Y-138675273D01*
X110484203Y-138503451D01*
X110472548Y-138491796D01*
X110467145Y-138485635D01*
X110300725Y-138295868D01*
X110290693Y-138282795D01*
X110145907Y-138066108D01*
X110137676Y-138051851D01*
X110022408Y-137818110D01*
X110016109Y-137802903D01*
X109932340Y-137556127D01*
X109928075Y-137540211D01*
X109877232Y-137284604D01*
X109875084Y-137268288D01*
X109858040Y-137008238D01*
X109858040Y-136991759D01*
X109863398Y-136910008D01*
X109863398Y-136910005D01*
X110832500Y-136910005D01*
X110832500Y-137089995D01*
X110845686Y-137173246D01*
X110860658Y-137267775D01*
X110916275Y-137438947D01*
X110916277Y-137438952D01*
X110997991Y-137599325D01*
X110997993Y-137599328D01*
X111103788Y-137744942D01*
X111231057Y-137872211D01*
X111231060Y-137872213D01*
X111376675Y-137978009D01*
X111537048Y-138059723D01*
X111708224Y-138115341D01*
X111708225Y-138115341D01*
X111708230Y-138115343D01*
X111886005Y-138143500D01*
X123960182Y-138143500D01*
X124028303Y-138163502D01*
X124069301Y-138206500D01*
X124097427Y-138255216D01*
X124097432Y-138255222D01*
X124277336Y-138489678D01*
X124277355Y-138489699D01*
X124486300Y-138698644D01*
X124486310Y-138698653D01*
X124486316Y-138698659D01*
X124486319Y-138698661D01*
X124486321Y-138698663D01*
X124720775Y-138878567D01*
X124720774Y-138878567D01*
X124742100Y-138890879D01*
X124791094Y-138942261D01*
X124804532Y-139011974D01*
X124778146Y-139077885D01*
X124742107Y-139109115D01*
X124720786Y-139121425D01*
X124720777Y-139121432D01*
X124486321Y-139301336D01*
X124486300Y-139301355D01*
X124277355Y-139510300D01*
X124277336Y-139510321D01*
X124097432Y-139744777D01*
X124097427Y-139744783D01*
X123949668Y-140000709D01*
X123949663Y-140000719D01*
X123836566Y-140273760D01*
X123760074Y-140559232D01*
X123721500Y-140852230D01*
X123721500Y-141147769D01*
X123760074Y-141440767D01*
X123760075Y-141440773D01*
X123760076Y-141440775D01*
X123836566Y-141726240D01*
X123949662Y-141999279D01*
X123949663Y-141999280D01*
X123949668Y-141999290D01*
X124097427Y-142255216D01*
X124097432Y-142255222D01*
X124277336Y-142489678D01*
X124277355Y-142489699D01*
X124486300Y-142698644D01*
X124486310Y-142698653D01*
X124486316Y-142698659D01*
X124720780Y-142878570D01*
X124976721Y-143026338D01*
X125249760Y-143139434D01*
X125535225Y-143215924D01*
X125535231Y-143215924D01*
X125535232Y-143215925D01*
X125563417Y-143219635D01*
X125828232Y-143254500D01*
X125828239Y-143254500D01*
X126123761Y-143254500D01*
X126123768Y-143254500D01*
X126416775Y-143215924D01*
X126702240Y-143139434D01*
X126975279Y-143026338D01*
X127231220Y-142878570D01*
X127465684Y-142698659D01*
X127674659Y-142489684D01*
X127854570Y-142255220D01*
X127882699Y-142206500D01*
X127934082Y-142157507D01*
X127991818Y-142143500D01*
X148176140Y-142143500D01*
X148244261Y-142163502D01*
X148290754Y-142217158D01*
X148297846Y-142236888D01*
X148360566Y-142470960D01*
X148473662Y-142743999D01*
X148473663Y-142744000D01*
X148473668Y-142744010D01*
X148621427Y-142999936D01*
X148621429Y-142999938D01*
X148621430Y-142999940D01*
X148641686Y-143026338D01*
X148801336Y-143234398D01*
X148801355Y-143234419D01*
X149010300Y-143443364D01*
X149010310Y-143443373D01*
X149010316Y-143443379D01*
X149010319Y-143443381D01*
X149010321Y-143443383D01*
X149244775Y-143623287D01*
X149244774Y-143623287D01*
X149266100Y-143635599D01*
X149315094Y-143686981D01*
X149328532Y-143756694D01*
X149302146Y-143822605D01*
X149266103Y-143853837D01*
X149244788Y-143866143D01*
X149244777Y-143866151D01*
X149010321Y-144046055D01*
X149010300Y-144046074D01*
X148801355Y-144255019D01*
X148801336Y-144255040D01*
X148621432Y-144489496D01*
X148621427Y-144489502D01*
X148473666Y-144745431D01*
X148473658Y-144745447D01*
X148405182Y-144910767D01*
X148405182Y-144910768D01*
X148360566Y-145018480D01*
X148284074Y-145303952D01*
X148245500Y-145596950D01*
X148245500Y-145892489D01*
X148284074Y-146185487D01*
X148284075Y-146185493D01*
X148284076Y-146185495D01*
X148360566Y-146470960D01*
X148473662Y-146743999D01*
X148473663Y-146744000D01*
X148473668Y-146744010D01*
X148621427Y-146999936D01*
X148621432Y-146999942D01*
X148801336Y-147234398D01*
X148801355Y-147234419D01*
X149010300Y-147443364D01*
X149010310Y-147443373D01*
X149010316Y-147443379D01*
X149244780Y-147623290D01*
X149500721Y-147771058D01*
X149773760Y-147884154D01*
X150059225Y-147960644D01*
X150059231Y-147960644D01*
X150059232Y-147960645D01*
X150087417Y-147964355D01*
X150352232Y-147999220D01*
X150352239Y-147999220D01*
X150647761Y-147999220D01*
X150647768Y-147999220D01*
X150940775Y-147960644D01*
X151226240Y-147884154D01*
X151499279Y-147771058D01*
X151755220Y-147623290D01*
X151989684Y-147443379D01*
X152198659Y-147234404D01*
X152378570Y-146999940D01*
X152526338Y-146743999D01*
X152639434Y-146470960D01*
X152715924Y-146185495D01*
X152754500Y-145892488D01*
X152754500Y-145596952D01*
X152715924Y-145303945D01*
X152639434Y-145018480D01*
X152594819Y-144910768D01*
X152526338Y-144745440D01*
X152378570Y-144489499D01*
X152198659Y-144255035D01*
X152198653Y-144255029D01*
X152198644Y-144255019D01*
X151989699Y-144046074D01*
X151989678Y-144046055D01*
X151881883Y-143963341D01*
X151755220Y-143866149D01*
X151755218Y-143866148D01*
X151755216Y-143866146D01*
X151733897Y-143853838D01*
X151684904Y-143802456D01*
X151671467Y-143732742D01*
X151697854Y-143666831D01*
X151733899Y-143635599D01*
X151755220Y-143623290D01*
X151761463Y-143618500D01*
X151787529Y-143598498D01*
X151989684Y-143443379D01*
X152198659Y-143234404D01*
X152378570Y-142999940D01*
X152526338Y-142743999D01*
X152639434Y-142470960D01*
X152715924Y-142185495D01*
X152754500Y-141892488D01*
X152754500Y-141596952D01*
X152715924Y-141303945D01*
X152639434Y-141018480D01*
X152526338Y-140745441D01*
X152378570Y-140489500D01*
X152232781Y-140299504D01*
X152198663Y-140255041D01*
X152198661Y-140255039D01*
X152198659Y-140255036D01*
X152198653Y-140255030D01*
X152198644Y-140255020D01*
X151989699Y-140046075D01*
X151989678Y-140046056D01*
X151775224Y-139881500D01*
X151755220Y-139866150D01*
X151755218Y-139866149D01*
X151755216Y-139866147D01*
X151499290Y-139718388D01*
X151499285Y-139718385D01*
X151499279Y-139718382D01*
X151226240Y-139605286D01*
X150940775Y-139528796D01*
X150940773Y-139528795D01*
X150940767Y-139528794D01*
X150647769Y-139490220D01*
X150647768Y-139490220D01*
X150352232Y-139490220D01*
X150352230Y-139490220D01*
X150059232Y-139528794D01*
X149773760Y-139605286D01*
X149500719Y-139718383D01*
X149500709Y-139718388D01*
X149370613Y-139793500D01*
X149296139Y-139836498D01*
X149290733Y-139839619D01*
X149227733Y-139856500D01*
X127991818Y-139856500D01*
X127923697Y-139836498D01*
X127882699Y-139793500D01*
X127854572Y-139744783D01*
X127854570Y-139744780D01*
X127674659Y-139510316D01*
X127674653Y-139510310D01*
X127674644Y-139510300D01*
X127465699Y-139301355D01*
X127465678Y-139301336D01*
X127261284Y-139144499D01*
X127231220Y-139121430D01*
X127221921Y-139116061D01*
X127209894Y-139109117D01*
X127160902Y-139057733D01*
X127147468Y-138988019D01*
X127173856Y-138922108D01*
X127209899Y-138890879D01*
X127231220Y-138878570D01*
X127465684Y-138698659D01*
X127674659Y-138489684D01*
X127854570Y-138255220D01*
X128002338Y-137999279D01*
X128115434Y-137726240D01*
X128191924Y-137440775D01*
X128230500Y-137147768D01*
X128230500Y-136852232D01*
X128191924Y-136559225D01*
X128115434Y-136273760D01*
X128002338Y-136000721D01*
X127884162Y-135796035D01*
X127854572Y-135744783D01*
X127854570Y-135744780D01*
X127674659Y-135510316D01*
X127674653Y-135510310D01*
X127674644Y-135510300D01*
X127465699Y-135301355D01*
X127465678Y-135301336D01*
X127283663Y-135161671D01*
X127231220Y-135121430D01*
X127231218Y-135121429D01*
X127231216Y-135121427D01*
X126975290Y-134973668D01*
X126975285Y-134973665D01*
X126975279Y-134973662D01*
X126702240Y-134860566D01*
X126416775Y-134784076D01*
X126416773Y-134784075D01*
X126416767Y-134784074D01*
X126123769Y-134745500D01*
X126123768Y-134745500D01*
X125828232Y-134745500D01*
X125828230Y-134745500D01*
X125535232Y-134784074D01*
X125535225Y-134784076D01*
X125249760Y-134860566D01*
X125037932Y-134948308D01*
X124976719Y-134973663D01*
X124976709Y-134973668D01*
X124720783Y-135121427D01*
X124720777Y-135121432D01*
X124486321Y-135301336D01*
X124486300Y-135301355D01*
X124277355Y-135510300D01*
X124277336Y-135510321D01*
X124097432Y-135744777D01*
X124097427Y-135744783D01*
X124069301Y-135793500D01*
X124017918Y-135842493D01*
X123960182Y-135856500D01*
X111886005Y-135856500D01*
X111708230Y-135884657D01*
X111708224Y-135884658D01*
X111537052Y-135940275D01*
X111537046Y-135940278D01*
X111376671Y-136021993D01*
X111231057Y-136127788D01*
X111103788Y-136255057D01*
X110997993Y-136400671D01*
X110916278Y-136561046D01*
X110916275Y-136561052D01*
X110860658Y-136732224D01*
X110860657Y-136732229D01*
X110860657Y-136732230D01*
X110832500Y-136910005D01*
X109863398Y-136910005D01*
X109875084Y-136731709D01*
X109877231Y-136715397D01*
X109928077Y-136459779D01*
X109932338Y-136443876D01*
X110016111Y-136197090D01*
X110022405Y-136181894D01*
X110137679Y-135948141D01*
X110145903Y-135933898D01*
X110290700Y-135717194D01*
X110300718Y-135704138D01*
X110472555Y-135508195D01*
X110484195Y-135496555D01*
X110680138Y-135324718D01*
X110693194Y-135314700D01*
X110909898Y-135169903D01*
X110924141Y-135161679D01*
X111157894Y-135046405D01*
X111173090Y-135040111D01*
X111419876Y-134956338D01*
X111435779Y-134952077D01*
X111691395Y-134901232D01*
X111707712Y-134899084D01*
X111946553Y-134883430D01*
X111971881Y-134881770D01*
X111980121Y-134881500D01*
X118921148Y-134881500D01*
X118921149Y-134881501D01*
X118976000Y-134881501D01*
X118976000Y-134881500D01*
X119026225Y-134881501D01*
X119026229Y-134881500D01*
X119028191Y-134881500D01*
X119028200Y-134881502D01*
X119028213Y-134881500D01*
X119137824Y-134881500D01*
X119219501Y-134872296D01*
X119459430Y-134845263D01*
X119774958Y-134773246D01*
X120080440Y-134666353D01*
X120372032Y-134525930D01*
X120646069Y-134353741D01*
X120899103Y-134151953D01*
X121127953Y-133923103D01*
X121329741Y-133670069D01*
X121501930Y-133396032D01*
X121642353Y-133104440D01*
X121749246Y-132798958D01*
X121821263Y-132483430D01*
X121857500Y-132161822D01*
X121857500Y-132000000D01*
X121857500Y-131945149D01*
X121857500Y-131945148D01*
X121857500Y-116238176D01*
X130094500Y-116238176D01*
X130094500Y-134561823D01*
X130130737Y-134883433D01*
X130151332Y-134973663D01*
X130202754Y-135198958D01*
X130202756Y-135198964D01*
X130202755Y-135198964D01*
X130309640Y-135504422D01*
X130309651Y-135504449D01*
X130450071Y-135796035D01*
X130622259Y-136070069D01*
X130824049Y-136323106D01*
X131052893Y-136551950D01*
X131064299Y-136561046D01*
X131305931Y-136753741D01*
X131421007Y-136826048D01*
X131579964Y-136925928D01*
X131579967Y-136925929D01*
X131579968Y-136925930D01*
X131871560Y-137066353D01*
X131871576Y-137066358D01*
X131871577Y-137066359D01*
X132177035Y-137173244D01*
X132177038Y-137173244D01*
X132177042Y-137173246D01*
X132492570Y-137245263D01*
X132720618Y-137270958D01*
X132814176Y-137281500D01*
X132814178Y-137281500D01*
X137536376Y-137281500D01*
X137536388Y-137281499D01*
X143420084Y-137281499D01*
X143420088Y-137281500D01*
X143445149Y-137281500D01*
X143661824Y-137281500D01*
X143743501Y-137272296D01*
X143983430Y-137245263D01*
X144298958Y-137173246D01*
X144604440Y-137066353D01*
X144896032Y-136925930D01*
X145170069Y-136753741D01*
X145423103Y-136551953D01*
X145651953Y-136323103D01*
X145853741Y-136070069D01*
X146025930Y-135796032D01*
X146166353Y-135504440D01*
X146273246Y-135198958D01*
X146345263Y-134883430D01*
X146381500Y-134561822D01*
X146381500Y-134400000D01*
X146381500Y-134345149D01*
X146381500Y-116399999D01*
X146381501Y-116399999D01*
X146381501Y-116238177D01*
X146381501Y-116238174D01*
X154618499Y-116238174D01*
X154618499Y-116238178D01*
X154618499Y-116400000D01*
X154618499Y-116454851D01*
X154618499Y-116454853D01*
X154618500Y-116465008D01*
X154618500Y-134561823D01*
X154654737Y-134883433D01*
X154675332Y-134973663D01*
X154726754Y-135198958D01*
X154726756Y-135198964D01*
X154726755Y-135198964D01*
X154833640Y-135504422D01*
X154833651Y-135504449D01*
X154974071Y-135796035D01*
X155146259Y-136070069D01*
X155348049Y-136323106D01*
X155576893Y-136551950D01*
X155588299Y-136561046D01*
X155829931Y-136753741D01*
X155945007Y-136826048D01*
X156103964Y-136925928D01*
X156103967Y-136925929D01*
X156103968Y-136925930D01*
X156395560Y-137066353D01*
X156395576Y-137066358D01*
X156395577Y-137066359D01*
X156701035Y-137173244D01*
X156701038Y-137173244D01*
X156701042Y-137173246D01*
X157016570Y-137245263D01*
X157244618Y-137270958D01*
X157338176Y-137281500D01*
X157338178Y-137281500D01*
X157607034Y-137281500D01*
X157607043Y-137281499D01*
X163516863Y-137281499D01*
X167944084Y-137281499D01*
X167944088Y-137281500D01*
X167969149Y-137281500D01*
X168185824Y-137281500D01*
X168267501Y-137272296D01*
X168507430Y-137245263D01*
X168822958Y-137173246D01*
X169128440Y-137066353D01*
X169420032Y-136925930D01*
X169537325Y-136852230D01*
X172769500Y-136852230D01*
X172769500Y-137147769D01*
X172808074Y-137440767D01*
X172808075Y-137440773D01*
X172808076Y-137440775D01*
X172884566Y-137726240D01*
X172997662Y-137999279D01*
X172997663Y-137999280D01*
X172997668Y-137999290D01*
X173145427Y-138255216D01*
X173145432Y-138255222D01*
X173325336Y-138489678D01*
X173325355Y-138489699D01*
X173534300Y-138698644D01*
X173534310Y-138698653D01*
X173534316Y-138698659D01*
X173534319Y-138698661D01*
X173534321Y-138698663D01*
X173768775Y-138878567D01*
X173768774Y-138878567D01*
X173790100Y-138890879D01*
X173839094Y-138942261D01*
X173852532Y-139011974D01*
X173826146Y-139077885D01*
X173790107Y-139109115D01*
X173768786Y-139121425D01*
X173768777Y-139121432D01*
X173534321Y-139301336D01*
X173534300Y-139301355D01*
X173325355Y-139510300D01*
X173325336Y-139510321D01*
X173145432Y-139744777D01*
X173145427Y-139744783D01*
X172997668Y-140000709D01*
X172997663Y-140000719D01*
X172884566Y-140273760D01*
X172808074Y-140559232D01*
X172769500Y-140852230D01*
X172769500Y-141147769D01*
X172808074Y-141440767D01*
X172808075Y-141440773D01*
X172808076Y-141440775D01*
X172884566Y-141726240D01*
X172997662Y-141999279D01*
X172997663Y-141999280D01*
X172997668Y-141999290D01*
X173145427Y-142255216D01*
X173145432Y-142255222D01*
X173325336Y-142489678D01*
X173325355Y-142489699D01*
X173534300Y-142698644D01*
X173534310Y-142698653D01*
X173534316Y-142698659D01*
X173768780Y-142878570D01*
X174024721Y-143026338D01*
X174297760Y-143139434D01*
X174583225Y-143215924D01*
X174583231Y-143215924D01*
X174583232Y-143215925D01*
X174611417Y-143219635D01*
X174876232Y-143254500D01*
X174876239Y-143254500D01*
X175171761Y-143254500D01*
X175171768Y-143254500D01*
X175464775Y-143215924D01*
X175750240Y-143139434D01*
X176023279Y-143026338D01*
X176279220Y-142878570D01*
X176513684Y-142698659D01*
X176722659Y-142489684D01*
X176902570Y-142255220D01*
X177050338Y-141999279D01*
X177163434Y-141726240D01*
X177239924Y-141440775D01*
X177278500Y-141147768D01*
X177278500Y-140852232D01*
X177239924Y-140559225D01*
X177163434Y-140273760D01*
X177050338Y-140000721D01*
X176972643Y-139866150D01*
X176902572Y-139744783D01*
X176902570Y-139744780D01*
X176722659Y-139510316D01*
X176722653Y-139510310D01*
X176722644Y-139510300D01*
X176513699Y-139301355D01*
X176513678Y-139301336D01*
X176309284Y-139144499D01*
X176279220Y-139121430D01*
X176269921Y-139116061D01*
X176257894Y-139109117D01*
X176208902Y-139057733D01*
X176195468Y-138988019D01*
X176221856Y-138922108D01*
X176257899Y-138890879D01*
X176279220Y-138878570D01*
X176513684Y-138698659D01*
X176722659Y-138489684D01*
X176902570Y-138255220D01*
X176930699Y-138206500D01*
X176982082Y-138157507D01*
X177039818Y-138143500D01*
X189113992Y-138143500D01*
X189113995Y-138143500D01*
X189291770Y-138115343D01*
X189462952Y-138059723D01*
X189623325Y-137978009D01*
X189768940Y-137872213D01*
X189896213Y-137744940D01*
X190002009Y-137599325D01*
X190083723Y-137438952D01*
X190139343Y-137267770D01*
X190167500Y-137089995D01*
X190167500Y-136910005D01*
X190139343Y-136732230D01*
X190083723Y-136561048D01*
X190002009Y-136400675D01*
X189945649Y-136323103D01*
X189896211Y-136255057D01*
X189768942Y-136127788D01*
X189623328Y-136021993D01*
X189623327Y-136021992D01*
X189623325Y-136021991D01*
X189462952Y-135940277D01*
X189462949Y-135940276D01*
X189462947Y-135940275D01*
X189291773Y-135884658D01*
X189291777Y-135884658D01*
X189258677Y-135879415D01*
X189113995Y-135856500D01*
X189113992Y-135856500D01*
X177039818Y-135856500D01*
X176971697Y-135836498D01*
X176930699Y-135793500D01*
X176902572Y-135744783D01*
X176902570Y-135744780D01*
X176722659Y-135510316D01*
X176722653Y-135510310D01*
X176722644Y-135510300D01*
X176513699Y-135301355D01*
X176513678Y-135301336D01*
X176331663Y-135161671D01*
X176279220Y-135121430D01*
X176279218Y-135121429D01*
X176279216Y-135121427D01*
X176023290Y-134973668D01*
X176023285Y-134973665D01*
X176023279Y-134973662D01*
X175750240Y-134860566D01*
X175464775Y-134784076D01*
X175464773Y-134784075D01*
X175464767Y-134784074D01*
X175171769Y-134745500D01*
X175171768Y-134745500D01*
X174876232Y-134745500D01*
X174876230Y-134745500D01*
X174583232Y-134784074D01*
X174583225Y-134784076D01*
X174297760Y-134860566D01*
X174085932Y-134948308D01*
X174024719Y-134973663D01*
X174024709Y-134973668D01*
X173768783Y-135121427D01*
X173768777Y-135121432D01*
X173534321Y-135301336D01*
X173534300Y-135301355D01*
X173325355Y-135510300D01*
X173325336Y-135510321D01*
X173145432Y-135744777D01*
X173145427Y-135744783D01*
X172997668Y-136000709D01*
X172997663Y-136000719D01*
X172884566Y-136273760D01*
X172808074Y-136559232D01*
X172769500Y-136852230D01*
X169537325Y-136852230D01*
X169694069Y-136753741D01*
X169947103Y-136551953D01*
X170175953Y-136323103D01*
X170377741Y-136070069D01*
X170549930Y-135796032D01*
X170690353Y-135504440D01*
X170797246Y-135198958D01*
X170869263Y-134883430D01*
X170905500Y-134561822D01*
X170905500Y-134400000D01*
X170905500Y-134345149D01*
X170905500Y-134337432D01*
X170905499Y-134337414D01*
X170905499Y-131945140D01*
X170905500Y-116452186D01*
X170905502Y-116452183D01*
X170905502Y-116238174D01*
X170892578Y-116123478D01*
X170869265Y-115916568D01*
X170797247Y-115601039D01*
X170793134Y-115589285D01*
X170706167Y-115340748D01*
X170690354Y-115295558D01*
X170549931Y-115003966D01*
X170549929Y-115003963D01*
X170549929Y-115003962D01*
X170450049Y-114845005D01*
X170377742Y-114729929D01*
X170175954Y-114476895D01*
X170141818Y-114442759D01*
X169947102Y-114248043D01*
X169694069Y-114046257D01*
X169420035Y-113874069D01*
X169128449Y-113733649D01*
X169128442Y-113733646D01*
X169128440Y-113733645D01*
X169128434Y-113733642D01*
X169128422Y-113733638D01*
X168822965Y-113626753D01*
X168507433Y-113554735D01*
X168185824Y-113518498D01*
X168185822Y-113518498D01*
X168024000Y-113518498D01*
X167969149Y-113518498D01*
X167969148Y-113518498D01*
X157500000Y-113518499D01*
X157338176Y-113518499D01*
X157016566Y-113554736D01*
X156701034Y-113626754D01*
X156395577Y-113733639D01*
X156395549Y-113733650D01*
X156103963Y-113874071D01*
X155829929Y-114046258D01*
X155576899Y-114248041D01*
X155348041Y-114476899D01*
X155146258Y-114729929D01*
X154974071Y-115003963D01*
X154833650Y-115295549D01*
X154833639Y-115295577D01*
X154726754Y-115601034D01*
X154654736Y-115916566D01*
X154618499Y-116238174D01*
X146381501Y-116238174D01*
X146345264Y-115916569D01*
X146273247Y-115601040D01*
X146273243Y-115601029D01*
X146166360Y-115295576D01*
X146166354Y-115295560D01*
X146166354Y-115295559D01*
X146025930Y-115003967D01*
X146025927Y-115003963D01*
X146025927Y-115003962D01*
X145862589Y-114744010D01*
X145853742Y-114729930D01*
X145853739Y-114729926D01*
X145853735Y-114729920D01*
X145651954Y-114476897D01*
X145651945Y-114476887D01*
X145423106Y-114248048D01*
X145170069Y-114046258D01*
X144896035Y-113874070D01*
X144604449Y-113733650D01*
X144604442Y-113733647D01*
X144604440Y-113733646D01*
X144604434Y-113733643D01*
X144604422Y-113733639D01*
X144298964Y-113626754D01*
X143983433Y-113554736D01*
X143661824Y-113518499D01*
X143661822Y-113518499D01*
X143500000Y-113518499D01*
X143445149Y-113518499D01*
X143445148Y-113518499D01*
X137425775Y-113518500D01*
X132814176Y-113518500D01*
X132492566Y-113554737D01*
X132177035Y-113626755D01*
X131871577Y-113733640D01*
X131871550Y-113733651D01*
X131579964Y-113874071D01*
X131305930Y-114046259D01*
X131052893Y-114248049D01*
X130824049Y-114476893D01*
X130622259Y-114729930D01*
X130450071Y-115003964D01*
X130309651Y-115295550D01*
X130309640Y-115295577D01*
X130202755Y-115601035D01*
X130130737Y-115916566D01*
X130094500Y-116238176D01*
X121857500Y-116238176D01*
X121857500Y-113949775D01*
X121857500Y-113838178D01*
X121821263Y-113516570D01*
X121749246Y-113201042D01*
X121745132Y-113189286D01*
X121642359Y-112895577D01*
X121642358Y-112895576D01*
X121642353Y-112895560D01*
X121501930Y-112603968D01*
X121501929Y-112603966D01*
X121501928Y-112603964D01*
X121402048Y-112445007D01*
X121329741Y-112329931D01*
X121127953Y-112076897D01*
X121127950Y-112076893D01*
X120899106Y-111848049D01*
X120646069Y-111646259D01*
X120372035Y-111474071D01*
X120080449Y-111333651D01*
X120080444Y-111333649D01*
X120080440Y-111333647D01*
X120080434Y-111333644D01*
X120080422Y-111333640D01*
X119774964Y-111226755D01*
X119459433Y-111154737D01*
X119137824Y-111118500D01*
X119137822Y-111118500D01*
X118976000Y-111118500D01*
X118921149Y-111118500D01*
X118921148Y-111118500D01*
X111980119Y-111118500D01*
X111971879Y-111118230D01*
X111707723Y-111100917D01*
X111691381Y-111098766D01*
X111435788Y-111047925D01*
X111419869Y-111043659D01*
X111173106Y-110959895D01*
X111157879Y-110953588D01*
X111157877Y-110953587D01*
X110924153Y-110838327D01*
X110909887Y-110830090D01*
X110693204Y-110685307D01*
X110680136Y-110675280D01*
X110484202Y-110503451D01*
X110472553Y-110491801D01*
X110300723Y-110295868D01*
X110290695Y-110282800D01*
X110145911Y-110066115D01*
X110137672Y-110051844D01*
X110111755Y-109999290D01*
X110022406Y-109818108D01*
X110016110Y-109802907D01*
X109932336Y-109556121D01*
X109928074Y-109540211D01*
X109877231Y-109284607D01*
X109875083Y-109268289D01*
X109857770Y-109004134D01*
X109857500Y-108995894D01*
X109857500Y-101913116D01*
X110872000Y-101913116D01*
X110872000Y-102086883D01*
X110899185Y-102258524D01*
X110952883Y-102423789D01*
X111003620Y-102523366D01*
X111476000Y-102050986D01*
X111476000Y-102065826D01*
X111510075Y-102192993D01*
X111575901Y-102307007D01*
X111668993Y-102400099D01*
X111783007Y-102465925D01*
X111910174Y-102500000D01*
X111925012Y-102500000D01*
X111452631Y-102972379D01*
X111552203Y-103023113D01*
X111552211Y-103023116D01*
X111717475Y-103076814D01*
X111889116Y-103104000D01*
X112062884Y-103104000D01*
X112234526Y-103076814D01*
X112399785Y-103023118D01*
X112499366Y-102972378D01*
X112499367Y-102972378D01*
X112026989Y-102500000D01*
X112041826Y-102500000D01*
X112168993Y-102465925D01*
X112283007Y-102400099D01*
X112376099Y-102307007D01*
X112441925Y-102192993D01*
X112476000Y-102065826D01*
X112476000Y-102050989D01*
X112948378Y-102523367D01*
X112948378Y-102523366D01*
X112999118Y-102423785D01*
X113052814Y-102258526D01*
X113080000Y-102086883D01*
X113080000Y-101913116D01*
X113052814Y-101741475D01*
X112999116Y-101576211D01*
X112999113Y-101576203D01*
X112948379Y-101476631D01*
X112476000Y-101949010D01*
X112476000Y-101934174D01*
X112441925Y-101807007D01*
X112376099Y-101692993D01*
X112283007Y-101599901D01*
X112168993Y-101534075D01*
X112041826Y-101500000D01*
X112026988Y-101500000D01*
X112499366Y-101027620D01*
X112499366Y-101027619D01*
X112399789Y-100976883D01*
X112234524Y-100923185D01*
X112062884Y-100896000D01*
X111889116Y-100896000D01*
X111717475Y-100923185D01*
X111552205Y-100976885D01*
X111452632Y-101027619D01*
X111452632Y-101027621D01*
X111925011Y-101500000D01*
X111910174Y-101500000D01*
X111783007Y-101534075D01*
X111668993Y-101599901D01*
X111575901Y-101692993D01*
X111510075Y-101807007D01*
X111476000Y-101934174D01*
X111476000Y-101949011D01*
X111003621Y-101476632D01*
X111003619Y-101476632D01*
X110952885Y-101576205D01*
X110899185Y-101741475D01*
X110872000Y-101913116D01*
X109857500Y-101913116D01*
X109857500Y-95004121D01*
X109857770Y-94995880D01*
X109863398Y-94910006D01*
X109863398Y-94910005D01*
X110832500Y-94910005D01*
X110832500Y-95089995D01*
X110841651Y-95147769D01*
X110860658Y-95267775D01*
X110916275Y-95438947D01*
X110916277Y-95438952D01*
X110917202Y-95440767D01*
X110997993Y-95599328D01*
X111103788Y-95744942D01*
X111231057Y-95872211D01*
X111231060Y-95872213D01*
X111376675Y-95978009D01*
X111537048Y-96059723D01*
X111708224Y-96115341D01*
X111708225Y-96115341D01*
X111708230Y-96115343D01*
X111886005Y-96143500D01*
X123960182Y-96143500D01*
X124028303Y-96163502D01*
X124069301Y-96206500D01*
X124097427Y-96255216D01*
X124097429Y-96255218D01*
X124097430Y-96255220D01*
X124194622Y-96381883D01*
X124277336Y-96489678D01*
X124277355Y-96489699D01*
X124486300Y-96698644D01*
X124486310Y-96698653D01*
X124486316Y-96698659D01*
X124486319Y-96698661D01*
X124486321Y-96698663D01*
X124720775Y-96878567D01*
X124720774Y-96878567D01*
X124742100Y-96890879D01*
X124791094Y-96942261D01*
X124804532Y-97011974D01*
X124778146Y-97077885D01*
X124742107Y-97109115D01*
X124720786Y-97121425D01*
X124720777Y-97121432D01*
X124486321Y-97301336D01*
X124486300Y-97301355D01*
X124277355Y-97510300D01*
X124277336Y-97510321D01*
X124097432Y-97744777D01*
X124097427Y-97744783D01*
X123949668Y-98000709D01*
X123949663Y-98000719D01*
X123836566Y-98273760D01*
X123760074Y-98559232D01*
X123721500Y-98852230D01*
X123721500Y-99147769D01*
X123760074Y-99440767D01*
X123760075Y-99440773D01*
X123760076Y-99440775D01*
X123836566Y-99726240D01*
X123949662Y-99999279D01*
X123949663Y-99999280D01*
X123949668Y-99999290D01*
X124097427Y-100255216D01*
X124097432Y-100255222D01*
X124277336Y-100489678D01*
X124277355Y-100489699D01*
X124486300Y-100698644D01*
X124486310Y-100698653D01*
X124486316Y-100698659D01*
X124486319Y-100698661D01*
X124486321Y-100698663D01*
X124720772Y-100878565D01*
X124720777Y-100878568D01*
X124720780Y-100878570D01*
X124769500Y-100906698D01*
X124818493Y-100958079D01*
X124832500Y-101015817D01*
X124832500Y-102984182D01*
X124812498Y-103052303D01*
X124769500Y-103093301D01*
X124720783Y-103121427D01*
X124720777Y-103121432D01*
X124486321Y-103301336D01*
X124486300Y-103301355D01*
X124277355Y-103510300D01*
X124277336Y-103510321D01*
X124097432Y-103744777D01*
X124097427Y-103744783D01*
X123949668Y-104000709D01*
X123949663Y-104000719D01*
X123836566Y-104273760D01*
X123760074Y-104559232D01*
X123721500Y-104852230D01*
X123721500Y-105147769D01*
X123760074Y-105440767D01*
X123760075Y-105440773D01*
X123760076Y-105440775D01*
X123836566Y-105726240D01*
X123949662Y-105999279D01*
X123949663Y-105999280D01*
X123949668Y-105999290D01*
X124097427Y-106255216D01*
X124097432Y-106255222D01*
X124277336Y-106489678D01*
X124277355Y-106489699D01*
X124486300Y-106698644D01*
X124486310Y-106698653D01*
X124486316Y-106698659D01*
X124486319Y-106698661D01*
X124486321Y-106698663D01*
X124720775Y-106878567D01*
X124720774Y-106878567D01*
X124742100Y-106890879D01*
X124791094Y-106942261D01*
X124804532Y-107011974D01*
X124778146Y-107077885D01*
X124742107Y-107109115D01*
X124720786Y-107121425D01*
X124720777Y-107121432D01*
X124486321Y-107301336D01*
X124486300Y-107301355D01*
X124277355Y-107510300D01*
X124277336Y-107510321D01*
X124097432Y-107744777D01*
X124097427Y-107744783D01*
X124069301Y-107793500D01*
X124017918Y-107842493D01*
X123960182Y-107856500D01*
X111886005Y-107856500D01*
X111708230Y-107884657D01*
X111708224Y-107884658D01*
X111537052Y-107940275D01*
X111537046Y-107940278D01*
X111376671Y-108021993D01*
X111231057Y-108127788D01*
X111103788Y-108255057D01*
X110997993Y-108400671D01*
X110916278Y-108561046D01*
X110916275Y-108561052D01*
X110860658Y-108732224D01*
X110860657Y-108732229D01*
X110860657Y-108732230D01*
X110832500Y-108910005D01*
X110832500Y-109089995D01*
X110843877Y-109161823D01*
X110860658Y-109267775D01*
X110911413Y-109423982D01*
X110916277Y-109438952D01*
X110996781Y-109596950D01*
X110997993Y-109599328D01*
X111103788Y-109744942D01*
X111231057Y-109872211D01*
X111231060Y-109872213D01*
X111376675Y-109978009D01*
X111537048Y-110059723D01*
X111708224Y-110115341D01*
X111708225Y-110115341D01*
X111708230Y-110115343D01*
X111886005Y-110143500D01*
X123960182Y-110143500D01*
X124028303Y-110163502D01*
X124069301Y-110206500D01*
X124097427Y-110255216D01*
X124097429Y-110255218D01*
X124097430Y-110255220D01*
X124128622Y-110295870D01*
X124277336Y-110489678D01*
X124277355Y-110489699D01*
X124486300Y-110698644D01*
X124486310Y-110698653D01*
X124486316Y-110698659D01*
X124486319Y-110698661D01*
X124486321Y-110698663D01*
X124530784Y-110732781D01*
X124720780Y-110878570D01*
X124720781Y-110878571D01*
X124720783Y-110878572D01*
X124857038Y-110957239D01*
X124976721Y-111026338D01*
X125249760Y-111139434D01*
X125535225Y-111215924D01*
X125535231Y-111215924D01*
X125535232Y-111215925D01*
X125563417Y-111219635D01*
X125828232Y-111254500D01*
X125828239Y-111254500D01*
X126123761Y-111254500D01*
X126123768Y-111254500D01*
X126416775Y-111215924D01*
X126702240Y-111139434D01*
X126975279Y-111026338D01*
X127231220Y-110878570D01*
X127465684Y-110698659D01*
X127674659Y-110489684D01*
X127854570Y-110255220D01*
X128002338Y-109999279D01*
X128115434Y-109726240D01*
X128191924Y-109440775D01*
X128230500Y-109147768D01*
X128230500Y-108852232D01*
X128191924Y-108559225D01*
X128115434Y-108273760D01*
X128002338Y-108000721D01*
X127924643Y-107866150D01*
X127854572Y-107744783D01*
X127854570Y-107744780D01*
X127674659Y-107510316D01*
X127674653Y-107510310D01*
X127674644Y-107510300D01*
X127465699Y-107301355D01*
X127465678Y-107301336D01*
X127357883Y-107218622D01*
X127231220Y-107121430D01*
X127221921Y-107116061D01*
X127209894Y-107109117D01*
X127160902Y-107057733D01*
X127147468Y-106988019D01*
X127173856Y-106922108D01*
X127209899Y-106890879D01*
X127231220Y-106878570D01*
X127465684Y-106698659D01*
X127674659Y-106489684D01*
X127854570Y-106255220D01*
X128002338Y-105999279D01*
X128115434Y-105726240D01*
X128191924Y-105440775D01*
X128230500Y-105147768D01*
X128230500Y-104852232D01*
X128191924Y-104559225D01*
X128115434Y-104273760D01*
X128002338Y-104000721D01*
X127854570Y-103744780D01*
X127674659Y-103510316D01*
X127674653Y-103510310D01*
X127674644Y-103510300D01*
X127465699Y-103301355D01*
X127465678Y-103301336D01*
X127357883Y-103218622D01*
X127231220Y-103121430D01*
X127231218Y-103121429D01*
X127231216Y-103121427D01*
X127182500Y-103093301D01*
X127133507Y-103041918D01*
X127119500Y-102984182D01*
X127119500Y-101015817D01*
X127139502Y-100947696D01*
X127182499Y-100906698D01*
X127231220Y-100878570D01*
X127465684Y-100698659D01*
X127674659Y-100489684D01*
X127854570Y-100255220D01*
X128002338Y-99999279D01*
X128115434Y-99726240D01*
X128191924Y-99440775D01*
X128230500Y-99147768D01*
X128230500Y-98852232D01*
X128191924Y-98559225D01*
X128115434Y-98273760D01*
X128002338Y-98000721D01*
X127854570Y-97744780D01*
X127674659Y-97510316D01*
X127674653Y-97510310D01*
X127674644Y-97510300D01*
X127465699Y-97301355D01*
X127465678Y-97301336D01*
X127357883Y-97218622D01*
X127231220Y-97121430D01*
X127221921Y-97116061D01*
X127209894Y-97109117D01*
X127160902Y-97057733D01*
X127147468Y-96988019D01*
X127173856Y-96922108D01*
X127209899Y-96890879D01*
X127231220Y-96878570D01*
X127465684Y-96698659D01*
X127674659Y-96489684D01*
X127854570Y-96255220D01*
X128002338Y-95999279D01*
X128115434Y-95726240D01*
X128191924Y-95440775D01*
X128230500Y-95147768D01*
X128230500Y-94852232D01*
X128191924Y-94559225D01*
X128115434Y-94273760D01*
X128002338Y-94000721D01*
X127854570Y-93744780D01*
X127674659Y-93510316D01*
X127674653Y-93510310D01*
X127674644Y-93510300D01*
X127465699Y-93301355D01*
X127465678Y-93301336D01*
X127283663Y-93161671D01*
X127231220Y-93121430D01*
X127231218Y-93121429D01*
X127231216Y-93121427D01*
X126975290Y-92973668D01*
X126975285Y-92973665D01*
X126975279Y-92973662D01*
X126702240Y-92860566D01*
X126416775Y-92784076D01*
X126416773Y-92784075D01*
X126416767Y-92784074D01*
X126123769Y-92745500D01*
X126123768Y-92745500D01*
X125828232Y-92745500D01*
X125828230Y-92745500D01*
X125535232Y-92784074D01*
X125535225Y-92784076D01*
X125249760Y-92860566D01*
X125151579Y-92901234D01*
X124976719Y-92973663D01*
X124976709Y-92973668D01*
X124720783Y-93121427D01*
X124720777Y-93121432D01*
X124486321Y-93301336D01*
X124486300Y-93301355D01*
X124277355Y-93510300D01*
X124277336Y-93510321D01*
X124097432Y-93744777D01*
X124097427Y-93744783D01*
X124069301Y-93793500D01*
X124017918Y-93842493D01*
X123960182Y-93856500D01*
X111886005Y-93856500D01*
X111708230Y-93884657D01*
X111708224Y-93884658D01*
X111537052Y-93940275D01*
X111537046Y-93940278D01*
X111376671Y-94021993D01*
X111231057Y-94127788D01*
X111103788Y-94255057D01*
X110997993Y-94400671D01*
X110916278Y-94561046D01*
X110916275Y-94561052D01*
X110860658Y-94732224D01*
X110860657Y-94732229D01*
X110860657Y-94732230D01*
X110832500Y-94910005D01*
X109863398Y-94910005D01*
X109875084Y-94731709D01*
X109877231Y-94715397D01*
X109928077Y-94459779D01*
X109932338Y-94443876D01*
X110016111Y-94197090D01*
X110022405Y-94181894D01*
X110137679Y-93948141D01*
X110145903Y-93933898D01*
X110290700Y-93717194D01*
X110300718Y-93704138D01*
X110472555Y-93508195D01*
X110484195Y-93496555D01*
X110680138Y-93324718D01*
X110693194Y-93314700D01*
X110909898Y-93169903D01*
X110924141Y-93161679D01*
X111157894Y-93046405D01*
X111173090Y-93040111D01*
X111419876Y-92956338D01*
X111435779Y-92952077D01*
X111691395Y-92901232D01*
X111707712Y-92899084D01*
X111942097Y-92883722D01*
X111971881Y-92881770D01*
X111980121Y-92881500D01*
X118921148Y-92881500D01*
X118921149Y-92881501D01*
X118976000Y-92881501D01*
X118976000Y-92881500D01*
X119026225Y-92881501D01*
X119026229Y-92881500D01*
X119028191Y-92881500D01*
X119028200Y-92881502D01*
X119028213Y-92881500D01*
X119137824Y-92881500D01*
X119219501Y-92872296D01*
X119459430Y-92845263D01*
X119774958Y-92773246D01*
X120080439Y-92666353D01*
X120372032Y-92525930D01*
X120646068Y-92353742D01*
X120899102Y-92151953D01*
X121127953Y-91923103D01*
X121329741Y-91670069D01*
X121501929Y-91396033D01*
X121642353Y-91104440D01*
X121749246Y-90798959D01*
X121821263Y-90483431D01*
X121857500Y-90161823D01*
X121857500Y-90000001D01*
X121857500Y-89945150D01*
X121857500Y-89945149D01*
X121857500Y-88859320D01*
X137718500Y-88859320D01*
X137718500Y-89158399D01*
X137757535Y-89454906D01*
X137834942Y-89743793D01*
X137834943Y-89743795D01*
X137834944Y-89743798D01*
X137949395Y-90020107D01*
X137949396Y-90020108D01*
X137949401Y-90020119D01*
X138098929Y-90279109D01*
X138098931Y-90279112D01*
X138098932Y-90279113D01*
X138280997Y-90516385D01*
X138281001Y-90516389D01*
X138281006Y-90516395D01*
X138492464Y-90727853D01*
X138492469Y-90727857D01*
X138492475Y-90727863D01*
X138729747Y-90909928D01*
X138729750Y-90909930D01*
X138988740Y-91059458D01*
X138988744Y-91059459D01*
X138988753Y-91059465D01*
X139265062Y-91173916D01*
X139553946Y-91251323D01*
X139553952Y-91251323D01*
X139553953Y-91251324D01*
X139587980Y-91255803D01*
X139850463Y-91290360D01*
X139850470Y-91290360D01*
X140149530Y-91290360D01*
X140149537Y-91290360D01*
X140446054Y-91251323D01*
X140734938Y-91173916D01*
X141011247Y-91059465D01*
X141270253Y-90909928D01*
X141507525Y-90727863D01*
X141719003Y-90516385D01*
X141764700Y-90456831D01*
X142618438Y-90456831D01*
X142618444Y-90632190D01*
X142618445Y-90632205D01*
X142650645Y-90876717D01*
X142650646Y-90876722D01*
X142650647Y-90876726D01*
X142711671Y-91104440D01*
X142714493Y-91114969D01*
X142808877Y-91342813D01*
X142808880Y-91342820D01*
X142808883Y-91342826D01*
X142808886Y-91342832D01*
X142808888Y-91342835D01*
X142932208Y-91556419D01*
X142934884Y-91559906D01*
X143082360Y-91752091D01*
X143256765Y-91926490D01*
X143452442Y-92076632D01*
X143666042Y-92199950D01*
X143893910Y-92294334D01*
X144132148Y-92358168D01*
X144132156Y-92358169D01*
X144132152Y-92358169D01*
X144254413Y-92374264D01*
X144376679Y-92390360D01*
X144449775Y-92390360D01*
X156445149Y-92390360D01*
X156447769Y-92390360D01*
X156447905Y-92390400D01*
X156500000Y-92390400D01*
X156623315Y-92390400D01*
X156623322Y-92390400D01*
X156844324Y-92361304D01*
X156867849Y-92358207D01*
X156867849Y-92358206D01*
X156867856Y-92358206D01*
X157106096Y-92294368D01*
X157333965Y-92199980D01*
X157547564Y-92076656D01*
X157743238Y-91926507D01*
X157917640Y-91752100D01*
X158067784Y-91556422D01*
X158191102Y-91342820D01*
X158285485Y-91114948D01*
X158349316Y-90876707D01*
X158381503Y-90632172D01*
X158381500Y-90508850D01*
X158381500Y-90508845D01*
X158381500Y-88859320D01*
X158718500Y-88859320D01*
X158718500Y-89158399D01*
X158757535Y-89454906D01*
X158834942Y-89743793D01*
X158834943Y-89743795D01*
X158834944Y-89743798D01*
X158949395Y-90020107D01*
X158949396Y-90020108D01*
X158949401Y-90020119D01*
X159098929Y-90279109D01*
X159098931Y-90279112D01*
X159098932Y-90279113D01*
X159280997Y-90516385D01*
X159281001Y-90516389D01*
X159281006Y-90516395D01*
X159492464Y-90727853D01*
X159492469Y-90727857D01*
X159492475Y-90727863D01*
X159729747Y-90909928D01*
X159729750Y-90909930D01*
X159988740Y-91059458D01*
X159988744Y-91059459D01*
X159988753Y-91059465D01*
X160265062Y-91173916D01*
X160553946Y-91251323D01*
X160553952Y-91251323D01*
X160553953Y-91251324D01*
X160587980Y-91255803D01*
X160850463Y-91290360D01*
X160850470Y-91290360D01*
X161149530Y-91290360D01*
X161149537Y-91290360D01*
X161446054Y-91251323D01*
X161734938Y-91173916D01*
X162011247Y-91059465D01*
X162270253Y-90909928D01*
X162507525Y-90727863D01*
X162719003Y-90516385D01*
X162901068Y-90279113D01*
X163050605Y-90020107D01*
X163165056Y-89743798D01*
X163242463Y-89454914D01*
X163281500Y-89158397D01*
X163281500Y-88859323D01*
X163242463Y-88562806D01*
X163165056Y-88273922D01*
X163050605Y-87997613D01*
X163050599Y-87997604D01*
X163050598Y-87997600D01*
X162901070Y-87738610D01*
X162882283Y-87714126D01*
X162719003Y-87501335D01*
X162718997Y-87501329D01*
X162718993Y-87501324D01*
X162507535Y-87289866D01*
X162507529Y-87289861D01*
X162507525Y-87289857D01*
X162270253Y-87107792D01*
X162270252Y-87107791D01*
X162270249Y-87107789D01*
X162011259Y-86958261D01*
X162011251Y-86958257D01*
X162011247Y-86958255D01*
X161734938Y-86843804D01*
X161734935Y-86843803D01*
X161734933Y-86843802D01*
X161497657Y-86780224D01*
X161446054Y-86766397D01*
X161446052Y-86766396D01*
X161446046Y-86766395D01*
X161149539Y-86727360D01*
X161149537Y-86727360D01*
X160850463Y-86727360D01*
X160850460Y-86727360D01*
X160553953Y-86766395D01*
X160265066Y-86843802D01*
X160265062Y-86843804D01*
X160009569Y-86949633D01*
X159988751Y-86958256D01*
X159988740Y-86958261D01*
X159729750Y-87107789D01*
X159492475Y-87289857D01*
X159492464Y-87289866D01*
X159281006Y-87501324D01*
X159280997Y-87501335D01*
X159098929Y-87738610D01*
X158949401Y-87997600D01*
X158949396Y-87997611D01*
X158834944Y-88273922D01*
X158834942Y-88273926D01*
X158757535Y-88562813D01*
X158718500Y-88859320D01*
X158381500Y-88859320D01*
X158381500Y-87563704D01*
X158381501Y-87563701D01*
X158381500Y-87561085D01*
X158381540Y-87560949D01*
X158381539Y-87508850D01*
X158381540Y-87508850D01*
X158381537Y-87385529D01*
X158349338Y-87140999D01*
X158285497Y-86902763D01*
X158191107Y-86674899D01*
X158191104Y-86674893D01*
X158191101Y-86674887D01*
X158067786Y-86461307D01*
X158013375Y-86390400D01*
X157917634Y-86265632D01*
X157743230Y-86091233D01*
X157547555Y-85941090D01*
X157333956Y-85817771D01*
X157333953Y-85817770D01*
X157333951Y-85817768D01*
X157106093Y-85723388D01*
X157077953Y-85715848D01*
X156867852Y-85659553D01*
X156867848Y-85659552D01*
X156867839Y-85659550D01*
X156623323Y-85627360D01*
X156623321Y-85627360D01*
X156550225Y-85627360D01*
X144449775Y-85627360D01*
X144441808Y-85627360D01*
X144441199Y-85627400D01*
X144376679Y-85627400D01*
X144132168Y-85659589D01*
X144132161Y-85659591D01*
X144132158Y-85659591D01*
X144132156Y-85659592D01*
X143893924Y-85723425D01*
X143893921Y-85723425D01*
X143893914Y-85723428D01*
X143666070Y-85817802D01*
X143666061Y-85817807D01*
X143452465Y-85941124D01*
X143256799Y-86091260D01*
X143256780Y-86091277D01*
X143082407Y-86265646D01*
X143082396Y-86265659D01*
X142932251Y-86461326D01*
X142932249Y-86461329D01*
X142932247Y-86461332D01*
X142808931Y-86674911D01*
X142808927Y-86674921D01*
X142714541Y-86902774D01*
X142650703Y-87141000D01*
X142618502Y-87385536D01*
X142618502Y-87385537D01*
X142618501Y-87452444D01*
X142618501Y-87458670D01*
X142618500Y-87458675D01*
X142618500Y-87492967D01*
X142618500Y-87508850D01*
X142618499Y-87573849D01*
X142618500Y-87573862D01*
X142618500Y-90445232D01*
X142618498Y-90445262D01*
X142618498Y-90456627D01*
X142618438Y-90456831D01*
X141764700Y-90456831D01*
X141901068Y-90279113D01*
X142050605Y-90020107D01*
X142165056Y-89743798D01*
X142242463Y-89454914D01*
X142281500Y-89158397D01*
X142281500Y-88859323D01*
X142242463Y-88562806D01*
X142165056Y-88273922D01*
X142050605Y-87997613D01*
X142050599Y-87997604D01*
X142050598Y-87997600D01*
X141901070Y-87738610D01*
X141882283Y-87714126D01*
X141719003Y-87501335D01*
X141718997Y-87501329D01*
X141718993Y-87501324D01*
X141507535Y-87289866D01*
X141507529Y-87289861D01*
X141507525Y-87289857D01*
X141270253Y-87107792D01*
X141270252Y-87107791D01*
X141270249Y-87107789D01*
X141011259Y-86958261D01*
X141011251Y-86958257D01*
X141011247Y-86958255D01*
X140734938Y-86843804D01*
X140734935Y-86843803D01*
X140734933Y-86843802D01*
X140497657Y-86780224D01*
X140446054Y-86766397D01*
X140446052Y-86766396D01*
X140446046Y-86766395D01*
X140149539Y-86727360D01*
X140149537Y-86727360D01*
X139850463Y-86727360D01*
X139850460Y-86727360D01*
X139553953Y-86766395D01*
X139265066Y-86843802D01*
X139265062Y-86843804D01*
X139009569Y-86949633D01*
X138988751Y-86958256D01*
X138988740Y-86958261D01*
X138729750Y-87107789D01*
X138492475Y-87289857D01*
X138492464Y-87289866D01*
X138281006Y-87501324D01*
X138280997Y-87501335D01*
X138098929Y-87738610D01*
X137949401Y-87997600D01*
X137949396Y-87997611D01*
X137834944Y-88273922D01*
X137834942Y-88273926D01*
X137757535Y-88562813D01*
X137718500Y-88859320D01*
X121857500Y-88859320D01*
X121857500Y-81596949D01*
X148245500Y-81596949D01*
X148245500Y-81892488D01*
X148284074Y-82185486D01*
X148284075Y-82185492D01*
X148284076Y-82185494D01*
X148360566Y-82470959D01*
X148473662Y-82743998D01*
X148473663Y-82743999D01*
X148473668Y-82744009D01*
X148621427Y-82999935D01*
X148621429Y-82999937D01*
X148621430Y-82999939D01*
X148718622Y-83126602D01*
X148801336Y-83234397D01*
X148801355Y-83234418D01*
X149010300Y-83443363D01*
X149010310Y-83443372D01*
X149010316Y-83443378D01*
X149244780Y-83623289D01*
X149500721Y-83771057D01*
X149773760Y-83884153D01*
X150059225Y-83960643D01*
X150059231Y-83960643D01*
X150059232Y-83960644D01*
X150087417Y-83964354D01*
X150352232Y-83999219D01*
X150352239Y-83999219D01*
X150647761Y-83999219D01*
X150647768Y-83999219D01*
X150940775Y-83960643D01*
X151226240Y-83884153D01*
X151499279Y-83771057D01*
X151755220Y-83623289D01*
X151989684Y-83443378D01*
X152198659Y-83234403D01*
X152378570Y-82999939D01*
X152406699Y-82951219D01*
X152458082Y-82902226D01*
X152515818Y-82888219D01*
X165630500Y-82888219D01*
X165698621Y-82908221D01*
X165745114Y-82961877D01*
X165756500Y-83014219D01*
X165756500Y-108475220D01*
X165736498Y-108543341D01*
X165682842Y-108589834D01*
X165630500Y-108601220D01*
X152515818Y-108601220D01*
X152447697Y-108581218D01*
X152406699Y-108538220D01*
X152378572Y-108489503D01*
X152378570Y-108489500D01*
X152218171Y-108280464D01*
X152198663Y-108255041D01*
X152198661Y-108255039D01*
X152198659Y-108255036D01*
X152198653Y-108255030D01*
X152198644Y-108255020D01*
X151989699Y-108046075D01*
X151989678Y-108046056D01*
X151853690Y-107941709D01*
X151755220Y-107866150D01*
X151755218Y-107866149D01*
X151755216Y-107866147D01*
X151499290Y-107718388D01*
X151499285Y-107718385D01*
X151499279Y-107718382D01*
X151226240Y-107605286D01*
X150940775Y-107528796D01*
X150940773Y-107528795D01*
X150940767Y-107528794D01*
X150647769Y-107490220D01*
X150647768Y-107490220D01*
X150352232Y-107490220D01*
X150352230Y-107490220D01*
X150059232Y-107528794D01*
X149773760Y-107605286D01*
X149500719Y-107718383D01*
X149500709Y-107718388D01*
X149244783Y-107866147D01*
X149244777Y-107866152D01*
X149010321Y-108046056D01*
X149010300Y-108046075D01*
X148801355Y-108255020D01*
X148801336Y-108255041D01*
X148621432Y-108489497D01*
X148621427Y-108489503D01*
X148473668Y-108745429D01*
X148473663Y-108745439D01*
X148473662Y-108745441D01*
X148366508Y-109004134D01*
X148360566Y-109018480D01*
X148284074Y-109303952D01*
X148245500Y-109596950D01*
X148245500Y-109892489D01*
X148284074Y-110185487D01*
X148284075Y-110185493D01*
X148284076Y-110185495D01*
X148360566Y-110470960D01*
X148473662Y-110743999D01*
X148473663Y-110744000D01*
X148473668Y-110744010D01*
X148621427Y-110999936D01*
X148621429Y-110999938D01*
X148621430Y-110999940D01*
X148698498Y-111100377D01*
X148801336Y-111234398D01*
X148801355Y-111234419D01*
X149010300Y-111443364D01*
X149010310Y-111443373D01*
X149010316Y-111443379D01*
X149010319Y-111443381D01*
X149010321Y-111443383D01*
X149244775Y-111623287D01*
X149244774Y-111623287D01*
X149266100Y-111635599D01*
X149315094Y-111686981D01*
X149328532Y-111756694D01*
X149302146Y-111822605D01*
X149266107Y-111853835D01*
X149244786Y-111866145D01*
X149244777Y-111866152D01*
X149010321Y-112046056D01*
X149010300Y-112046075D01*
X148801355Y-112255020D01*
X148801336Y-112255041D01*
X148621432Y-112489497D01*
X148621427Y-112489503D01*
X148473668Y-112745429D01*
X148473663Y-112745439D01*
X148473662Y-112745441D01*
X148392763Y-112940750D01*
X148360566Y-113018480D01*
X148284074Y-113303952D01*
X148245500Y-113596950D01*
X148245500Y-113892489D01*
X148284074Y-114185487D01*
X148284075Y-114185493D01*
X148284076Y-114185495D01*
X148360566Y-114470960D01*
X148473662Y-114743999D01*
X148473663Y-114744000D01*
X148473668Y-114744010D01*
X148621427Y-114999936D01*
X148621429Y-114999938D01*
X148621430Y-114999940D01*
X148624520Y-115003967D01*
X148801336Y-115234398D01*
X148801355Y-115234419D01*
X149010300Y-115443364D01*
X149010310Y-115443373D01*
X149010316Y-115443379D01*
X149244780Y-115623290D01*
X149500721Y-115771058D01*
X149773760Y-115884154D01*
X150059225Y-115960644D01*
X150059231Y-115960644D01*
X150059232Y-115960645D01*
X150087417Y-115964355D01*
X150352232Y-115999220D01*
X150352239Y-115999220D01*
X150647761Y-115999220D01*
X150647768Y-115999220D01*
X150940775Y-115960644D01*
X151226240Y-115884154D01*
X151499279Y-115771058D01*
X151755220Y-115623290D01*
X151989684Y-115443379D01*
X152198659Y-115234404D01*
X152378570Y-114999940D01*
X152526338Y-114743999D01*
X152639434Y-114470960D01*
X152715924Y-114185495D01*
X152754500Y-113892488D01*
X152754500Y-113596952D01*
X152715924Y-113303945D01*
X152639434Y-113018480D01*
X152526338Y-112745441D01*
X152444656Y-112603964D01*
X152378572Y-112489503D01*
X152378570Y-112489500D01*
X152198659Y-112255036D01*
X152198653Y-112255030D01*
X152198644Y-112255020D01*
X151989699Y-112046075D01*
X151989678Y-112046056D01*
X151798844Y-111899624D01*
X151755220Y-111866150D01*
X151745921Y-111860781D01*
X151733894Y-111853837D01*
X151684902Y-111802453D01*
X151671468Y-111732739D01*
X151697856Y-111666828D01*
X151733899Y-111635599D01*
X151755220Y-111623290D01*
X151989684Y-111443379D01*
X152198659Y-111234404D01*
X152378570Y-110999940D01*
X152406699Y-110951220D01*
X152458082Y-110902227D01*
X152515818Y-110888220D01*
X166989992Y-110888220D01*
X166989995Y-110888220D01*
X167167770Y-110860063D01*
X167338952Y-110804443D01*
X167499325Y-110722729D01*
X167644940Y-110616933D01*
X167772213Y-110489660D01*
X167878009Y-110344045D01*
X167959723Y-110183672D01*
X168015343Y-110012490D01*
X168043500Y-109834715D01*
X168043500Y-94852230D01*
X172769500Y-94852230D01*
X172769500Y-95147769D01*
X172808074Y-95440767D01*
X172808075Y-95440773D01*
X172808076Y-95440775D01*
X172884566Y-95726240D01*
X172997662Y-95999279D01*
X172997663Y-95999280D01*
X172997668Y-95999290D01*
X173145427Y-96255216D01*
X173145429Y-96255218D01*
X173145430Y-96255220D01*
X173242622Y-96381883D01*
X173325336Y-96489678D01*
X173325355Y-96489699D01*
X173534300Y-96698644D01*
X173534310Y-96698653D01*
X173534316Y-96698659D01*
X173534319Y-96698661D01*
X173534321Y-96698663D01*
X173768775Y-96878567D01*
X173768774Y-96878567D01*
X173790100Y-96890879D01*
X173839094Y-96942261D01*
X173852532Y-97011974D01*
X173826146Y-97077885D01*
X173790107Y-97109115D01*
X173768786Y-97121425D01*
X173768777Y-97121432D01*
X173534321Y-97301336D01*
X173534300Y-97301355D01*
X173325355Y-97510300D01*
X173325336Y-97510321D01*
X173145432Y-97744777D01*
X173145427Y-97744783D01*
X172997668Y-98000709D01*
X172997663Y-98000719D01*
X172884566Y-98273760D01*
X172808074Y-98559232D01*
X172769500Y-98852230D01*
X172769500Y-99147769D01*
X172808074Y-99440767D01*
X172808075Y-99440773D01*
X172808076Y-99440775D01*
X172884566Y-99726240D01*
X172997662Y-99999279D01*
X172997663Y-99999280D01*
X172997668Y-99999290D01*
X173145427Y-100255216D01*
X173145432Y-100255222D01*
X173325336Y-100489678D01*
X173325355Y-100489699D01*
X173534300Y-100698644D01*
X173534310Y-100698653D01*
X173534316Y-100698659D01*
X173534319Y-100698661D01*
X173534321Y-100698663D01*
X173768772Y-100878565D01*
X173768777Y-100878568D01*
X173768780Y-100878570D01*
X173817500Y-100906698D01*
X173866493Y-100958079D01*
X173880500Y-101015817D01*
X173880500Y-102984182D01*
X173860498Y-103052303D01*
X173817500Y-103093301D01*
X173768783Y-103121427D01*
X173768777Y-103121432D01*
X173534321Y-103301336D01*
X173534300Y-103301355D01*
X173325355Y-103510300D01*
X173325336Y-103510321D01*
X173145432Y-103744777D01*
X173145427Y-103744783D01*
X172997668Y-104000709D01*
X172997663Y-104000719D01*
X172884566Y-104273760D01*
X172808074Y-104559232D01*
X172769500Y-104852230D01*
X172769500Y-105147769D01*
X172808074Y-105440767D01*
X172808075Y-105440773D01*
X172808076Y-105440775D01*
X172884566Y-105726240D01*
X172997662Y-105999279D01*
X172997663Y-105999280D01*
X172997668Y-105999290D01*
X173145427Y-106255216D01*
X173145432Y-106255222D01*
X173325336Y-106489678D01*
X173325355Y-106489699D01*
X173534300Y-106698644D01*
X173534310Y-106698653D01*
X173534316Y-106698659D01*
X173534319Y-106698661D01*
X173534321Y-106698663D01*
X173768775Y-106878567D01*
X173768774Y-106878567D01*
X173790100Y-106890879D01*
X173839094Y-106942261D01*
X173852532Y-107011974D01*
X173826146Y-107077885D01*
X173790107Y-107109115D01*
X173768786Y-107121425D01*
X173768777Y-107121432D01*
X173534321Y-107301336D01*
X173534300Y-107301355D01*
X173325355Y-107510300D01*
X173325336Y-107510321D01*
X173145432Y-107744777D01*
X173145427Y-107744783D01*
X172997668Y-108000709D01*
X172997663Y-108000719D01*
X172997662Y-108000721D01*
X172945030Y-108127787D01*
X172884566Y-108273760D01*
X172808074Y-108559232D01*
X172769500Y-108852230D01*
X172769500Y-109147769D01*
X172808074Y-109440767D01*
X172808075Y-109440773D01*
X172808076Y-109440775D01*
X172884566Y-109726240D01*
X172997662Y-109999279D01*
X172997663Y-109999280D01*
X172997668Y-109999290D01*
X173145427Y-110255216D01*
X173145429Y-110255218D01*
X173145430Y-110255220D01*
X173176622Y-110295870D01*
X173325336Y-110489678D01*
X173325355Y-110489699D01*
X173534300Y-110698644D01*
X173534310Y-110698653D01*
X173534316Y-110698659D01*
X173534319Y-110698661D01*
X173534321Y-110698663D01*
X173578784Y-110732781D01*
X173768780Y-110878570D01*
X173768781Y-110878571D01*
X173768783Y-110878572D01*
X173905038Y-110957239D01*
X174024721Y-111026338D01*
X174297760Y-111139434D01*
X174583225Y-111215924D01*
X174583231Y-111215924D01*
X174583232Y-111215925D01*
X174611417Y-111219635D01*
X174876232Y-111254500D01*
X174876239Y-111254500D01*
X175171761Y-111254500D01*
X175171768Y-111254500D01*
X175464775Y-111215924D01*
X175750240Y-111139434D01*
X176023279Y-111026338D01*
X176279220Y-110878570D01*
X176513684Y-110698659D01*
X176722659Y-110489684D01*
X176902570Y-110255220D01*
X176930699Y-110206500D01*
X176982082Y-110157507D01*
X177039818Y-110143500D01*
X188989992Y-110143500D01*
X188989995Y-110143500D01*
X189167770Y-110115343D01*
X189338952Y-110059723D01*
X189338962Y-110059717D01*
X189342415Y-110058288D01*
X189351684Y-110054867D01*
X189447981Y-110023580D01*
X189602884Y-109944653D01*
X189743533Y-109842465D01*
X189866465Y-109719533D01*
X189968653Y-109578884D01*
X190047580Y-109423981D01*
X190101303Y-109258638D01*
X190128500Y-109086926D01*
X190128500Y-108913074D01*
X190101303Y-108741362D01*
X190047580Y-108576019D01*
X189968653Y-108421116D01*
X189866465Y-108280467D01*
X189866463Y-108280464D01*
X189743535Y-108157536D01*
X189602887Y-108055349D01*
X189602886Y-108055348D01*
X189602884Y-108055347D01*
X189447981Y-107976420D01*
X189375350Y-107952821D01*
X189351687Y-107945132D01*
X189342410Y-107941709D01*
X189338957Y-107940279D01*
X189338954Y-107940278D01*
X189338952Y-107940277D01*
X189167773Y-107884658D01*
X189167777Y-107884658D01*
X189134677Y-107879415D01*
X188989995Y-107856500D01*
X188989992Y-107856500D01*
X177039818Y-107856500D01*
X176971697Y-107836498D01*
X176930699Y-107793500D01*
X176902572Y-107744783D01*
X176902570Y-107744780D01*
X176722659Y-107510316D01*
X176722653Y-107510310D01*
X176722644Y-107510300D01*
X176513699Y-107301355D01*
X176513678Y-107301336D01*
X176405883Y-107218622D01*
X176279220Y-107121430D01*
X176269921Y-107116061D01*
X176257894Y-107109117D01*
X176208902Y-107057733D01*
X176195468Y-106988019D01*
X176221856Y-106922108D01*
X176257899Y-106890879D01*
X176279220Y-106878570D01*
X176513684Y-106698659D01*
X176722659Y-106489684D01*
X176902570Y-106255220D01*
X177050338Y-105999279D01*
X177163434Y-105726240D01*
X177239924Y-105440775D01*
X177278500Y-105147768D01*
X177278500Y-104852232D01*
X177239924Y-104559225D01*
X177163434Y-104273760D01*
X177050338Y-104000721D01*
X176902570Y-103744780D01*
X176722659Y-103510316D01*
X176722653Y-103510310D01*
X176722644Y-103510300D01*
X176513699Y-103301355D01*
X176513678Y-103301336D01*
X176405883Y-103218622D01*
X176279220Y-103121430D01*
X176279218Y-103121429D01*
X176279216Y-103121427D01*
X176230500Y-103093301D01*
X176222082Y-103084472D01*
X176210988Y-103079406D01*
X176198037Y-103059254D01*
X176181507Y-103041918D01*
X176178239Y-103028448D01*
X176172604Y-103019680D01*
X176167500Y-102984182D01*
X176167500Y-101913116D01*
X187920000Y-101913116D01*
X187920000Y-102086883D01*
X187947185Y-102258524D01*
X188000883Y-102423789D01*
X188051620Y-102523366D01*
X188524000Y-102050986D01*
X188524000Y-102065826D01*
X188558075Y-102192993D01*
X188623901Y-102307007D01*
X188716993Y-102400099D01*
X188831007Y-102465925D01*
X188958174Y-102500000D01*
X188973012Y-102500000D01*
X188500631Y-102972379D01*
X188600203Y-103023113D01*
X188600211Y-103023116D01*
X188765475Y-103076814D01*
X188937116Y-103104000D01*
X189110884Y-103104000D01*
X189282526Y-103076814D01*
X189447785Y-103023118D01*
X189547366Y-102972378D01*
X189547367Y-102972378D01*
X189074989Y-102500000D01*
X189089826Y-102500000D01*
X189216993Y-102465925D01*
X189331007Y-102400099D01*
X189424099Y-102307007D01*
X189489925Y-102192993D01*
X189524000Y-102065826D01*
X189524000Y-102050989D01*
X189996378Y-102523367D01*
X189996378Y-102523366D01*
X190047118Y-102423785D01*
X190100814Y-102258526D01*
X190128000Y-102086883D01*
X190128000Y-101913116D01*
X190100814Y-101741475D01*
X190047116Y-101576211D01*
X190047113Y-101576203D01*
X189996379Y-101476631D01*
X189524000Y-101949010D01*
X189524000Y-101934174D01*
X189489925Y-101807007D01*
X189424099Y-101692993D01*
X189331007Y-101599901D01*
X189216993Y-101534075D01*
X189089826Y-101500000D01*
X189074988Y-101500000D01*
X189547366Y-101027620D01*
X189547366Y-101027619D01*
X189447789Y-100976883D01*
X189282524Y-100923185D01*
X189110884Y-100896000D01*
X188937116Y-100896000D01*
X188765475Y-100923185D01*
X188600205Y-100976885D01*
X188500632Y-101027619D01*
X188500632Y-101027621D01*
X188973011Y-101500000D01*
X188958174Y-101500000D01*
X188831007Y-101534075D01*
X188716993Y-101599901D01*
X188623901Y-101692993D01*
X188558075Y-101807007D01*
X188524000Y-101934174D01*
X188524000Y-101949011D01*
X188051621Y-101476632D01*
X188051619Y-101476632D01*
X188000885Y-101576205D01*
X187947185Y-101741475D01*
X187920000Y-101913116D01*
X176167500Y-101913116D01*
X176167500Y-101015817D01*
X176187502Y-100947696D01*
X176230499Y-100906698D01*
X176279220Y-100878570D01*
X176513684Y-100698659D01*
X176722659Y-100489684D01*
X176902570Y-100255220D01*
X177050338Y-99999279D01*
X177163434Y-99726240D01*
X177239924Y-99440775D01*
X177278500Y-99147768D01*
X177278500Y-98852232D01*
X177239924Y-98559225D01*
X177163434Y-98273760D01*
X177050338Y-98000721D01*
X176902570Y-97744780D01*
X176722659Y-97510316D01*
X176722653Y-97510310D01*
X176722644Y-97510300D01*
X176513699Y-97301355D01*
X176513678Y-97301336D01*
X176405883Y-97218622D01*
X176279220Y-97121430D01*
X176269921Y-97116061D01*
X176257894Y-97109117D01*
X176208902Y-97057733D01*
X176195468Y-96988019D01*
X176221856Y-96922108D01*
X176257899Y-96890879D01*
X176279220Y-96878570D01*
X176513684Y-96698659D01*
X176722659Y-96489684D01*
X176902570Y-96255220D01*
X176930698Y-96206499D01*
X176982079Y-96157507D01*
X177039816Y-96143500D01*
X189113995Y-96143501D01*
X189291770Y-96115344D01*
X189462952Y-96059724D01*
X189623325Y-95978010D01*
X189768940Y-95872214D01*
X189896213Y-95744941D01*
X190002009Y-95599326D01*
X190083723Y-95438953D01*
X190139343Y-95267771D01*
X190167500Y-95089996D01*
X190167500Y-94910006D01*
X190139343Y-94732231D01*
X190083723Y-94561049D01*
X190002009Y-94400676D01*
X189896213Y-94255061D01*
X189896212Y-94255060D01*
X189896211Y-94255058D01*
X189768942Y-94127789D01*
X189623328Y-94021994D01*
X189623327Y-94021993D01*
X189623325Y-94021992D01*
X189462952Y-93940278D01*
X189462949Y-93940277D01*
X189462947Y-93940276D01*
X189291773Y-93884659D01*
X189291777Y-93884659D01*
X189113991Y-93856500D01*
X177039817Y-93856500D01*
X176971696Y-93836498D01*
X176930698Y-93793500D01*
X176902570Y-93744780D01*
X176902568Y-93744777D01*
X176902565Y-93744772D01*
X176722663Y-93510321D01*
X176722661Y-93510319D01*
X176722659Y-93510316D01*
X176722653Y-93510310D01*
X176722644Y-93510300D01*
X176513699Y-93301355D01*
X176513678Y-93301336D01*
X176331663Y-93161671D01*
X176279220Y-93121430D01*
X176279218Y-93121429D01*
X176279216Y-93121427D01*
X176023290Y-92973668D01*
X176023285Y-92973665D01*
X176023279Y-92973662D01*
X175750240Y-92860566D01*
X175464775Y-92784076D01*
X175464773Y-92784075D01*
X175464767Y-92784074D01*
X175171769Y-92745500D01*
X175171768Y-92745500D01*
X174876232Y-92745500D01*
X174876230Y-92745500D01*
X174583232Y-92784074D01*
X174583225Y-92784076D01*
X174297760Y-92860566D01*
X174199579Y-92901234D01*
X174024719Y-92973663D01*
X174024709Y-92973668D01*
X173768783Y-93121427D01*
X173768777Y-93121432D01*
X173534321Y-93301336D01*
X173534300Y-93301355D01*
X173325355Y-93510300D01*
X173325336Y-93510321D01*
X173145432Y-93744777D01*
X173145427Y-93744783D01*
X172997668Y-94000709D01*
X172997663Y-94000719D01*
X172997662Y-94000721D01*
X172945030Y-94127787D01*
X172884566Y-94273760D01*
X172808074Y-94559232D01*
X172769500Y-94852230D01*
X168043500Y-94852230D01*
X168043500Y-83014219D01*
X168063502Y-82946098D01*
X168117158Y-82899605D01*
X168169500Y-82888219D01*
X175113992Y-82888219D01*
X175113995Y-82888219D01*
X175291770Y-82860062D01*
X175462952Y-82804442D01*
X175623325Y-82722728D01*
X175768940Y-82616932D01*
X175896213Y-82489659D01*
X176002009Y-82344044D01*
X176083723Y-82183671D01*
X176139343Y-82012489D01*
X176167500Y-81834714D01*
X176167500Y-69015817D01*
X176187502Y-68947696D01*
X176230499Y-68906698D01*
X176279220Y-68878570D01*
X176279768Y-68878150D01*
X176378331Y-68802519D01*
X176513684Y-68698659D01*
X176722659Y-68489684D01*
X176902570Y-68255220D01*
X176930699Y-68206500D01*
X176982082Y-68157507D01*
X177039818Y-68143500D01*
X189113992Y-68143500D01*
X189113995Y-68143500D01*
X189291770Y-68115343D01*
X189462952Y-68059723D01*
X189623325Y-67978009D01*
X189768940Y-67872213D01*
X189896213Y-67744940D01*
X190002009Y-67599325D01*
X190083723Y-67438952D01*
X190139343Y-67267770D01*
X190167500Y-67089995D01*
X190167500Y-66910005D01*
X190139343Y-66732230D01*
X190083723Y-66561048D01*
X190002009Y-66400675D01*
X189914906Y-66280789D01*
X189896211Y-66255057D01*
X189768942Y-66127788D01*
X189623328Y-66021993D01*
X189623327Y-66021992D01*
X189623325Y-66021991D01*
X189462952Y-65940277D01*
X189462949Y-65940276D01*
X189462947Y-65940275D01*
X189291773Y-65884658D01*
X189291777Y-65884658D01*
X189258677Y-65879415D01*
X189113995Y-65856500D01*
X189113992Y-65856500D01*
X177039818Y-65856500D01*
X176971697Y-65836498D01*
X176930699Y-65793500D01*
X176902572Y-65744783D01*
X176902570Y-65744780D01*
X176722659Y-65510316D01*
X176722653Y-65510310D01*
X176722644Y-65510300D01*
X176513699Y-65301355D01*
X176513678Y-65301336D01*
X176331663Y-65161671D01*
X176279220Y-65121430D01*
X176257899Y-65109120D01*
X176257894Y-65109117D01*
X176208902Y-65057733D01*
X176195468Y-64988019D01*
X176221856Y-64922108D01*
X176257899Y-64890879D01*
X176279220Y-64878570D01*
X176513684Y-64698659D01*
X176722659Y-64489684D01*
X176902570Y-64255220D01*
X177050338Y-63999279D01*
X177163434Y-63726240D01*
X177239924Y-63440775D01*
X177278500Y-63147768D01*
X177278500Y-62852232D01*
X177239924Y-62559225D01*
X177163434Y-62273760D01*
X177050338Y-62000721D01*
X176966705Y-61855864D01*
X176902572Y-61744783D01*
X176902570Y-61744780D01*
X176722659Y-61510316D01*
X176722653Y-61510310D01*
X176722644Y-61510300D01*
X176513699Y-61301355D01*
X176513678Y-61301336D01*
X176378327Y-61197478D01*
X176279220Y-61121430D01*
X176279218Y-61121429D01*
X176279216Y-61121427D01*
X176023290Y-60973668D01*
X176023285Y-60973665D01*
X176023279Y-60973662D01*
X175750240Y-60860566D01*
X175464775Y-60784076D01*
X175464773Y-60784075D01*
X175464767Y-60784074D01*
X175171769Y-60745500D01*
X175171768Y-60745500D01*
X174876232Y-60745500D01*
X174876230Y-60745500D01*
X174583232Y-60784074D01*
X174297760Y-60860566D01*
X174024719Y-60973663D01*
X174024709Y-60973668D01*
X173768783Y-61121427D01*
X173768777Y-61121432D01*
X173534321Y-61301336D01*
X173534300Y-61301355D01*
X173325355Y-61510300D01*
X173325336Y-61510321D01*
X173145432Y-61744777D01*
X173145427Y-61744783D01*
X172997668Y-62000709D01*
X172997663Y-62000719D01*
X172997662Y-62000721D01*
X172997571Y-62000940D01*
X172884566Y-62273760D01*
X172808074Y-62559232D01*
X172769500Y-62852230D01*
X172769500Y-63147769D01*
X172808074Y-63440767D01*
X172808075Y-63440773D01*
X172808076Y-63440775D01*
X172884566Y-63726240D01*
X172997662Y-63999279D01*
X172997663Y-63999280D01*
X172997668Y-63999290D01*
X173145427Y-64255216D01*
X173145429Y-64255218D01*
X173145430Y-64255220D01*
X173242622Y-64381883D01*
X173325336Y-64489678D01*
X173325355Y-64489699D01*
X173534300Y-64698644D01*
X173534310Y-64698653D01*
X173534316Y-64698659D01*
X173534319Y-64698661D01*
X173534321Y-64698663D01*
X173768775Y-64878567D01*
X173768774Y-64878567D01*
X173790100Y-64890879D01*
X173839094Y-64942261D01*
X173852532Y-65011974D01*
X173826146Y-65077885D01*
X173790107Y-65109115D01*
X173768786Y-65121425D01*
X173768777Y-65121432D01*
X173534321Y-65301336D01*
X173534300Y-65301355D01*
X173325355Y-65510300D01*
X173325336Y-65510321D01*
X173145432Y-65744777D01*
X173145427Y-65744783D01*
X172997668Y-66000709D01*
X172997663Y-66000719D01*
X172997662Y-66000721D01*
X172997571Y-66000940D01*
X172884566Y-66273760D01*
X172808074Y-66559232D01*
X172769500Y-66852230D01*
X172769500Y-67147769D01*
X172808074Y-67440767D01*
X172808075Y-67440773D01*
X172808076Y-67440775D01*
X172884566Y-67726240D01*
X172997662Y-67999279D01*
X172997663Y-67999280D01*
X172997668Y-67999290D01*
X173145427Y-68255216D01*
X173145429Y-68255218D01*
X173145430Y-68255220D01*
X173242622Y-68381883D01*
X173325336Y-68489678D01*
X173325355Y-68489699D01*
X173534300Y-68698644D01*
X173534310Y-68698653D01*
X173534316Y-68698659D01*
X173534319Y-68698661D01*
X173534321Y-68698663D01*
X173768772Y-68878565D01*
X173768777Y-68878568D01*
X173768780Y-68878570D01*
X173817500Y-68906698D01*
X173866493Y-68958079D01*
X173880500Y-69015817D01*
X173880500Y-80475219D01*
X173860498Y-80543340D01*
X173806842Y-80589833D01*
X173754500Y-80601219D01*
X152515818Y-80601219D01*
X152447697Y-80581217D01*
X152406699Y-80538219D01*
X152378572Y-80489502D01*
X152378570Y-80489499D01*
X152198659Y-80255035D01*
X152198653Y-80255029D01*
X152198644Y-80255019D01*
X151989699Y-80046074D01*
X151989678Y-80046055D01*
X151881883Y-79963341D01*
X151755220Y-79866149D01*
X151755218Y-79866148D01*
X151755216Y-79866146D01*
X151499290Y-79718387D01*
X151499285Y-79718384D01*
X151499279Y-79718381D01*
X151226240Y-79605285D01*
X150940775Y-79528795D01*
X150940773Y-79528794D01*
X150940767Y-79528793D01*
X150647769Y-79490219D01*
X150647768Y-79490219D01*
X150352232Y-79490219D01*
X150352230Y-79490219D01*
X150059232Y-79528793D01*
X149773760Y-79605285D01*
X149500719Y-79718382D01*
X149500709Y-79718387D01*
X149244783Y-79866146D01*
X149244777Y-79866151D01*
X149010321Y-80046055D01*
X149010300Y-80046074D01*
X148801355Y-80255019D01*
X148801336Y-80255040D01*
X148621432Y-80489496D01*
X148621427Y-80489502D01*
X148473668Y-80745428D01*
X148473663Y-80745438D01*
X148360566Y-81018479D01*
X148284074Y-81303951D01*
X148245500Y-81596949D01*
X121857500Y-81596949D01*
X121857500Y-71949775D01*
X121857500Y-71838178D01*
X121821263Y-71516570D01*
X121749246Y-71201042D01*
X121745132Y-71189286D01*
X121642359Y-70895577D01*
X121642358Y-70895576D01*
X121642353Y-70895560D01*
X121501930Y-70603968D01*
X121501929Y-70603966D01*
X121501928Y-70603964D01*
X121402048Y-70445007D01*
X121329741Y-70329931D01*
X121127953Y-70076897D01*
X121127950Y-70076893D01*
X120899106Y-69848049D01*
X120646069Y-69646259D01*
X120372035Y-69474071D01*
X120080449Y-69333651D01*
X120080444Y-69333649D01*
X120080440Y-69333647D01*
X120080434Y-69333644D01*
X120080422Y-69333640D01*
X119774964Y-69226755D01*
X119459433Y-69154737D01*
X119137824Y-69118500D01*
X119137822Y-69118500D01*
X119026225Y-69118500D01*
X114526225Y-69118500D01*
X111980122Y-69118500D01*
X111971881Y-69118230D01*
X111707721Y-69100916D01*
X111691382Y-69098765D01*
X111608223Y-69082223D01*
X111435788Y-69047924D01*
X111419869Y-69043658D01*
X111173106Y-68959894D01*
X111157879Y-68953587D01*
X110924146Y-68838322D01*
X110909887Y-68830089D01*
X110693204Y-68685306D01*
X110680129Y-68675273D01*
X110484203Y-68503451D01*
X110472548Y-68491796D01*
X110447352Y-68463065D01*
X110300725Y-68295868D01*
X110290693Y-68282795D01*
X110145907Y-68066108D01*
X110137676Y-68051851D01*
X110022408Y-67818110D01*
X110016109Y-67802903D01*
X109932340Y-67556127D01*
X109928075Y-67540210D01*
X109908296Y-67440775D01*
X109877231Y-67284602D01*
X109875084Y-67268288D01*
X109858040Y-67008238D01*
X109858040Y-66991760D01*
X109863398Y-66910008D01*
X109875084Y-66731710D01*
X109877232Y-66715393D01*
X109883775Y-66682501D01*
X110918347Y-66682501D01*
X111586393Y-66682501D01*
X111575901Y-66692993D01*
X111510075Y-66807007D01*
X111476000Y-66934174D01*
X111476000Y-67065826D01*
X111510075Y-67192993D01*
X111575901Y-67307007D01*
X111586393Y-67317499D01*
X110918347Y-67317499D01*
X110952881Y-67423785D01*
X111031776Y-67578625D01*
X111133917Y-67719210D01*
X111256789Y-67842082D01*
X111397377Y-67944225D01*
X111552219Y-68023120D01*
X111658500Y-68057652D01*
X111658501Y-68057651D01*
X111658501Y-67389607D01*
X111668993Y-67400099D01*
X111783007Y-67465925D01*
X111910174Y-67500000D01*
X112041826Y-67500000D01*
X112168993Y-67465925D01*
X112283007Y-67400099D01*
X112293499Y-67389607D01*
X112293499Y-68057652D01*
X112399780Y-68023120D01*
X112554622Y-67944225D01*
X112695210Y-67842082D01*
X112818082Y-67719210D01*
X112920223Y-67578625D01*
X112999118Y-67423785D01*
X113033653Y-67317499D01*
X112365607Y-67317499D01*
X112376099Y-67307007D01*
X112441925Y-67192993D01*
X112476000Y-67065826D01*
X112476000Y-66934174D01*
X112441925Y-66807007D01*
X112376099Y-66692993D01*
X112365607Y-66682501D01*
X113033652Y-66682501D01*
X112999118Y-66576214D01*
X112920223Y-66421374D01*
X112818082Y-66280789D01*
X112695210Y-66157917D01*
X112554625Y-66055776D01*
X112399785Y-65976881D01*
X112293499Y-65942347D01*
X112293499Y-66610393D01*
X112283007Y-66599901D01*
X112168993Y-66534075D01*
X112041826Y-66500000D01*
X111910174Y-66500000D01*
X111783007Y-66534075D01*
X111668993Y-66599901D01*
X111658501Y-66610393D01*
X111658501Y-65942347D01*
X111552214Y-65976881D01*
X111397374Y-66055776D01*
X111256789Y-66157917D01*
X111133917Y-66280789D01*
X111031776Y-66421374D01*
X110952881Y-66576214D01*
X110918347Y-66682501D01*
X109883775Y-66682501D01*
X109928077Y-66459779D01*
X109932338Y-66443876D01*
X110016111Y-66197090D01*
X110022405Y-66181894D01*
X110137679Y-65948141D01*
X110145903Y-65933898D01*
X110290700Y-65717194D01*
X110300718Y-65704138D01*
X110472555Y-65508195D01*
X110484195Y-65496555D01*
X110680138Y-65324718D01*
X110693194Y-65314700D01*
X110909898Y-65169903D01*
X110924141Y-65161679D01*
X111157894Y-65046405D01*
X111173090Y-65040111D01*
X111419876Y-64956338D01*
X111435779Y-64952077D01*
X111691397Y-64901231D01*
X111707709Y-64899084D01*
X111944107Y-64883590D01*
X111971882Y-64881770D01*
X111980122Y-64881500D01*
X114526223Y-64881500D01*
X114526225Y-64881500D01*
X114623254Y-64855501D01*
X114623257Y-64855499D01*
X114623258Y-64855499D01*
X114666750Y-64830388D01*
X114710247Y-64805276D01*
X114781276Y-64734247D01*
X114831501Y-64647254D01*
X114857500Y-64550225D01*
X114857500Y-62852262D01*
X123722000Y-62852262D01*
X123722000Y-63147737D01*
X123760565Y-63440669D01*
X123837040Y-63726078D01*
X123950113Y-63999059D01*
X123950118Y-63999069D01*
X124097844Y-64254938D01*
X124097848Y-64254944D01*
X124173478Y-64353506D01*
X124173479Y-64353507D01*
X124713170Y-63813816D01*
X124831864Y-63977184D01*
X124998816Y-64144136D01*
X125162182Y-64262828D01*
X124622491Y-64802519D01*
X124622491Y-64802520D01*
X124721061Y-64878155D01*
X124743102Y-64890881D01*
X124792095Y-64942264D01*
X124805531Y-65011977D01*
X124779145Y-65077888D01*
X124743104Y-65109118D01*
X124721061Y-65121844D01*
X124622491Y-65197479D01*
X125162182Y-65737170D01*
X124998816Y-65855864D01*
X124831864Y-66022816D01*
X124713170Y-66186182D01*
X124173479Y-65646491D01*
X124097844Y-65745061D01*
X123950118Y-66000930D01*
X123950113Y-66000940D01*
X123837040Y-66273921D01*
X123760565Y-66559330D01*
X123722000Y-66852262D01*
X123722000Y-67147737D01*
X123760565Y-67440669D01*
X123837040Y-67726078D01*
X123950113Y-67999059D01*
X123950118Y-67999069D01*
X124097844Y-68254938D01*
X124097848Y-68254944D01*
X124173478Y-68353506D01*
X124173479Y-68353507D01*
X124713170Y-67813816D01*
X124831864Y-67977184D01*
X124998816Y-68144136D01*
X125162182Y-68262828D01*
X124622491Y-68802519D01*
X124622491Y-68802520D01*
X124721054Y-68878150D01*
X124721061Y-68878155D01*
X124976930Y-69025881D01*
X124976940Y-69025886D01*
X125249921Y-69138959D01*
X125535330Y-69215434D01*
X125828262Y-69253999D01*
X125828272Y-69254000D01*
X126123728Y-69254000D01*
X126123737Y-69253999D01*
X126416669Y-69215434D01*
X126702078Y-69138959D01*
X126975059Y-69025886D01*
X126975070Y-69025881D01*
X127230938Y-68878155D01*
X127329507Y-68802520D01*
X127329507Y-68802519D01*
X126789817Y-68262828D01*
X126953184Y-68144136D01*
X127120136Y-67977184D01*
X127238829Y-67813817D01*
X127778519Y-68353507D01*
X127778520Y-68353507D01*
X127854155Y-68254938D01*
X128001881Y-67999070D01*
X128001886Y-67999059D01*
X128114959Y-67726078D01*
X128191434Y-67440669D01*
X128229999Y-67147737D01*
X128230000Y-67147728D01*
X128230000Y-66852272D01*
X128229999Y-66852262D01*
X128191434Y-66559330D01*
X128114959Y-66273921D01*
X128001886Y-66000940D01*
X128001881Y-66000930D01*
X127854155Y-65745061D01*
X127854150Y-65745054D01*
X127778519Y-65646491D01*
X127238828Y-66186182D01*
X127120136Y-66022816D01*
X126953184Y-65855864D01*
X126789816Y-65737170D01*
X127329507Y-65197479D01*
X127329506Y-65197478D01*
X127230944Y-65121848D01*
X127230937Y-65121844D01*
X127208898Y-65109120D01*
X127159904Y-65057738D01*
X127146466Y-64988025D01*
X127172852Y-64922114D01*
X127208898Y-64890880D01*
X127230937Y-64878155D01*
X127230944Y-64878151D01*
X127329507Y-64802520D01*
X127329507Y-64802519D01*
X126789817Y-64262828D01*
X126953184Y-64144136D01*
X127120136Y-63977184D01*
X127238829Y-63813817D01*
X127778519Y-64353507D01*
X127778520Y-64353507D01*
X127854155Y-64254938D01*
X128001881Y-63999070D01*
X128001886Y-63999059D01*
X128114959Y-63726078D01*
X128191434Y-63440669D01*
X128229999Y-63147737D01*
X128230000Y-63147728D01*
X128230000Y-62852272D01*
X128229999Y-62852262D01*
X128191434Y-62559330D01*
X128114959Y-62273921D01*
X128001886Y-62000940D01*
X128001881Y-62000930D01*
X127854155Y-61745061D01*
X127854150Y-61745054D01*
X127778519Y-61646491D01*
X127238828Y-62186182D01*
X127120136Y-62022816D01*
X126953184Y-61855864D01*
X126789816Y-61737170D01*
X127329507Y-61197479D01*
X127329506Y-61197478D01*
X127230944Y-61121848D01*
X127230938Y-61121844D01*
X126975069Y-60974118D01*
X126975059Y-60974113D01*
X126702078Y-60861040D01*
X126416669Y-60784565D01*
X126123737Y-60746000D01*
X125828262Y-60746000D01*
X125535330Y-60784565D01*
X125249921Y-60861040D01*
X124976940Y-60974113D01*
X124976930Y-60974118D01*
X124721061Y-61121844D01*
X124622491Y-61197479D01*
X125162182Y-61737170D01*
X124998816Y-61855864D01*
X124831864Y-62022816D01*
X124713170Y-62186182D01*
X124173479Y-61646491D01*
X124097844Y-61745061D01*
X123950118Y-62000930D01*
X123950113Y-62000940D01*
X123837040Y-62273921D01*
X123760565Y-62559330D01*
X123722000Y-62852262D01*
X114857500Y-62852262D01*
X114857500Y-60507500D01*
X114877502Y-60439379D01*
X114931158Y-60392886D01*
X114983500Y-60381500D01*
X136968500Y-60381500D01*
X137036621Y-60401502D01*
G37*
%TD.AperFunction*%
%TD*%
M02*
