M48
; DRILL file {KiCad 9.0.7} date 2026-02-05T12:26:28-0500
; FORMAT={-:-/ absolute / inch / decimal}
; #@! TF.CreationDate,2026-02-05T12:26:28-05:00
; #@! TF.GenerationSoftware,Kicad,Pcbnew,9.0.7
; #@! TF.FileFunction,Plated,1,2,PTH
FMAT,2
INCH
; #@! TA.AperFunction,Plated,PTH,ViaDrill
T1C0.0120
%
G90
G05
T1
X4.1931Y-2.0142
X4.1931Y-2.1144
X4.1931Y-2.2145
X4.1931Y-2.3147
X4.1931Y-2.4148
X4.1931Y-2.515
X4.1931Y-2.6151
X4.1931Y-2.7153
X4.1931Y-2.8154
X4.1931Y-2.9156
X4.1931Y-3.0157
X4.1931Y-3.1159
X4.1931Y-3.216
X4.1931Y-3.3162
X4.1931Y-3.4163
X4.1931Y-3.5165
X4.1931Y-3.6166
X4.1931Y-3.7168
X4.1931Y-3.8169
X4.1931Y-3.9171
X4.1931Y-4.0172
X4.1931Y-4.1174
X4.1931Y-4.2175
X4.1931Y-4.3177
X4.1931Y-4.4178
X4.1931Y-4.518
X4.1931Y-4.6181
X4.1931Y-4.7183
X4.1931Y-4.8184
X4.1931Y-4.9186
X4.1931Y-5.0187
X4.1931Y-5.1189
X4.3417Y-2.0147
X4.3417Y-2.1147
X4.3417Y-5.1147
X4.4417Y-2.0147
X4.4417Y-2.1147
X4.4417Y-2.4147
X4.4417Y-2.5147
X4.4417Y-2.6147
X4.4417Y-2.7147
X4.4417Y-2.8147
X4.4417Y-2.9147
X4.4417Y-3.0147
X4.4417Y-3.1147
X4.4417Y-3.2147
X4.4417Y-3.3147
X4.4417Y-3.6147
X4.4417Y-3.9147
X4.4417Y-4.0147
X4.4417Y-4.1147
X4.4417Y-4.2147
X4.4417Y-4.3147
X4.4417Y-4.4147
X4.4417Y-4.5147
X4.4417Y-4.6147
X4.4417Y-4.7147
X4.4417Y-4.8147
X4.4417Y-5.1147
X4.4417Y-5.2147
X4.5417Y-1.8147
X4.5417Y-1.9147
X4.5417Y-2.0147
X4.5417Y-2.1147
X4.5417Y-2.4147
X4.5417Y-2.5147
X4.5417Y-2.6147
X4.5417Y-2.7147
X4.5417Y-2.8147
X4.5417Y-2.9147
X4.5417Y-3.0147
X4.5417Y-3.1147
X4.5417Y-3.2147
X4.5417Y-3.3147
X4.5417Y-3.6147
X4.5417Y-3.9147
X4.5417Y-4.0147
X4.5417Y-4.1147
X4.5417Y-4.2147
X4.5417Y-4.3147
X4.5417Y-4.4147
X4.5417Y-4.5147
X4.5417Y-4.6147
X4.5417Y-4.7147
X4.5417Y-4.8147
X4.5417Y-5.1147
X4.5417Y-5.2147
X4.5417Y-5.3147
X4.546Y-1.6661
X4.6417Y-1.8147
X4.6417Y-1.9147
X4.6417Y-2.0147
X4.6417Y-2.1147
X4.6417Y-2.4147
X4.6417Y-2.5147
X4.6417Y-2.6147
X4.6417Y-2.7147
X4.6417Y-2.8147
X4.6417Y-2.9147
X4.6417Y-3.0147
X4.6417Y-3.1147
X4.6417Y-3.2147
X4.6417Y-3.3147
X4.6417Y-3.6147
X4.6417Y-3.9147
X4.6417Y-4.0147
X4.6417Y-4.1147
X4.6417Y-4.2147
X4.6417Y-4.3147
X4.6417Y-4.4147
X4.6417Y-4.5147
X4.6417Y-4.6147
X4.6417Y-4.7147
X4.6417Y-4.8147
X4.6417Y-5.1147
X4.6417Y-5.2147
X4.6417Y-5.3147
X4.6461Y-1.6661
X4.7417Y-1.8147
X4.7417Y-1.9147
X4.7417Y-2.4147
X4.7417Y-2.5147
X4.7417Y-2.6147
X4.7417Y-2.7147
X4.7417Y-2.8147
X4.7417Y-2.9147
X4.7417Y-3.0147
X4.7417Y-3.1147
X4.7417Y-3.2147
X4.7417Y-3.3147
X4.7417Y-3.6147
X4.7417Y-3.9147
X4.7417Y-4.0147
X4.7417Y-4.1147
X4.7417Y-4.2147
X4.7417Y-4.3147
X4.7417Y-4.4147
X4.7417Y-4.5147
X4.7417Y-4.6147
X4.7417Y-4.7147
X4.7417Y-4.8147
X4.7463Y-1.6661
X4.8417Y-1.8147
X4.8417Y-1.9147
X4.8417Y-2.4147
X4.8417Y-2.5147
X4.8417Y-2.6147
X4.8417Y-2.7147
X4.8417Y-2.8147
X4.8417Y-2.9147
X4.8417Y-3.0147
X4.8417Y-3.1147
X4.8417Y-3.2147
X4.8417Y-4.0147
X4.8417Y-4.1147
X4.8417Y-4.2147
X4.8417Y-4.3147
X4.8417Y-4.4147
X4.8417Y-4.5147
X4.8464Y-1.6661
X4.9417Y-1.8147
X4.9417Y-1.9147
X4.9417Y-2.4147
X4.9417Y-2.5147
X4.9417Y-2.6147
X4.9417Y-2.7147
X4.9417Y-2.8147
X4.9417Y-2.9147
X4.9417Y-3.0147
X4.9417Y-3.1147
X4.9417Y-3.2147
X4.9417Y-3.6147
X4.9417Y-4.0147
X4.9417Y-4.1147
X4.9417Y-4.2147
X4.9417Y-4.3147
X4.9417Y-4.4147
X4.9417Y-4.5147
X4.9417Y-4.8147
X4.9417Y-5.3147
X4.9466Y-1.6661
X5.0417Y-1.8147
X5.0417Y-1.9147
X5.0417Y-2.0147
X5.0417Y-2.1147
X5.0417Y-2.4147
X5.0417Y-2.5147
X5.0417Y-2.6147
X5.0417Y-2.7147
X5.0417Y-2.8147
X5.0417Y-2.9147
X5.0417Y-3.0147
X5.0417Y-3.1147
X5.0417Y-3.2147
X5.0417Y-3.3147
X5.0417Y-3.4147
X5.0417Y-3.5147
X5.0417Y-3.6147
X5.0417Y-3.7147
X5.0417Y-3.8147
X5.0417Y-3.9147
X5.0417Y-4.0147
X5.0417Y-4.1147
X5.0417Y-4.2147
X5.0417Y-4.3147
X5.0417Y-4.4147
X5.0417Y-4.5147
X5.0417Y-4.8147
X5.0417Y-5.0147
X5.0417Y-5.1147
X5.0417Y-5.2147
X5.0467Y-1.6661
X5.1417Y-1.8147
X5.1417Y-1.9147
X5.1417Y-2.0147
X5.1417Y-2.1147
X5.1417Y-3.4147
X5.1417Y-3.5147
X5.1417Y-3.6147
X5.1417Y-3.7147
X5.1417Y-3.8147
X5.1417Y-3.9147
X5.1417Y-4.0147
X5.1417Y-4.1147
X5.1417Y-4.2147
X5.1417Y-4.3147
X5.1417Y-4.4147
X5.1417Y-4.5147
X5.1417Y-4.8147
X5.1417Y-5.2147
X5.1469Y-1.6661
X5.2417Y-1.8147
X5.2417Y-1.9147
X5.2417Y-2.0147
X5.2417Y-2.1147
X5.2417Y-4.8147
X5.2417Y-5.2147
X5.2417Y-5.3147
X5.247Y-1.6661
X5.3417Y-1.8147
X5.3417Y-1.9147
X5.3417Y-2.0147
X5.3417Y-2.1147
X5.3417Y-2.2147
X5.3417Y-2.3147
X5.3417Y-2.4147
X5.3417Y-2.5147
X5.3417Y-2.6147
X5.3417Y-2.7147
X5.3417Y-2.8147
X5.3417Y-2.9147
X5.3417Y-4.8147
X5.3417Y-5.2147
X5.3417Y-5.3147
X5.3417Y-5.4147
X5.3472Y-1.6661
X5.3949Y-5.5195
X5.4417Y-1.8147
X5.4417Y-1.9147
X5.4417Y-2.0147
X5.4417Y-2.1147
X5.4417Y-2.2147
X5.4417Y-2.3147
X5.4417Y-2.4147
X5.4417Y-2.5147
X5.4417Y-2.6147
X5.4417Y-2.7147
X5.4417Y-2.8147
X5.4417Y-2.9147
X5.4417Y-3.4147
X5.4417Y-3.5147
X5.4417Y-3.6147
X5.4417Y-3.7147
X5.4417Y-3.8147
X5.4417Y-3.9147
X5.4417Y-4.0147
X5.4417Y-4.1147
X5.4417Y-4.2147
X5.4417Y-4.3147
X5.4417Y-4.4147
X5.4417Y-4.5147
X5.4417Y-4.8147
X5.4417Y-5.2147
X5.4417Y-5.3147
X5.4417Y-5.4147
X5.4473Y-1.6661
X5.4951Y-5.5195
X5.5417Y-2.7147
X5.5417Y-2.8147
X5.5417Y-2.9147
X5.5417Y-3.4147
X5.5417Y-3.5147
X5.5417Y-3.6147
X5.5417Y-3.7147
X5.5417Y-3.8147
X5.5417Y-3.9147
X5.5417Y-4.0147
X5.5417Y-4.1147
X5.5417Y-4.2147
X5.5417Y-4.3147
X5.5417Y-4.4147
X5.5417Y-4.5147
X5.5417Y-5.3147
X5.5417Y-5.4147
X5.5475Y-1.6661
X5.5952Y-5.5195
X5.6417Y-2.7147
X5.6417Y-2.8147
X5.6417Y-2.9147
X5.6417Y-3.4147
X5.6417Y-3.5147
X5.6417Y-3.6147
X5.6417Y-3.7147
X5.6417Y-3.8147
X5.6417Y-3.9147
X5.6417Y-4.0147
X5.6417Y-4.1147
X5.6417Y-4.2147
X5.6417Y-4.3147
X5.6417Y-4.4147
X5.6417Y-4.5147
X5.6417Y-5.3147
X5.6417Y-5.4147
X5.6476Y-1.6661
X5.6954Y-5.5195
X5.7417Y-2.7147
X5.7417Y-2.8147
X5.7417Y-2.9147
X5.7417Y-3.6147
X5.7417Y-3.7147
X5.7417Y-3.8147
X5.7417Y-3.9147
X5.7417Y-4.0147
X5.7417Y-4.1147
X5.7417Y-4.2147
X5.7417Y-4.3147
X5.7417Y-4.4147
X5.7417Y-5.3147
X5.7417Y-5.4147
X5.7478Y-1.6661
X5.7955Y-5.5195
X5.8417Y-2.7147
X5.8417Y-2.8147
X5.8417Y-2.9147
X5.8417Y-3.6147
X5.8417Y-3.7147
X5.8417Y-3.8147
X5.8417Y-3.9147
X5.8417Y-4.0147
X5.8417Y-4.1147
X5.8417Y-4.2147
X5.8417Y-4.3147
X5.8417Y-4.4147
X5.8417Y-5.3147
X5.8417Y-5.4147
X5.8479Y-1.6661
X5.8676Y-4.9636
X5.8957Y-5.5195
X5.9066Y-4.9636
X5.9417Y-2.7147
X5.9417Y-2.8147
X5.9417Y-2.9147
X5.9417Y-3.4147
X5.9417Y-3.5147
X5.9417Y-3.6147
X5.9417Y-3.7147
X5.9417Y-3.8147
X5.9417Y-3.9147
X5.9417Y-4.0147
X5.9417Y-4.1147
X5.9417Y-4.2147
X5.9417Y-4.3147
X5.9417Y-4.4147
X5.9417Y-4.5147
X5.9417Y-5.3147
X5.9417Y-5.4147
X5.9466Y-4.9636
X5.9481Y-1.6661
X5.9958Y-5.5195
X6.0417Y-2.7147
X6.0417Y-2.8147
X6.0417Y-2.9147
X6.0417Y-3.4147
X6.0417Y-3.5147
X6.0417Y-3.6147
X6.0417Y-3.7147
X6.0417Y-3.8147
X6.0417Y-3.9147
X6.0417Y-4.0147
X6.0417Y-4.1147
X6.0417Y-4.2147
X6.0417Y-4.3147
X6.0417Y-4.4147
X6.0417Y-4.5147
X6.0417Y-4.8147
X6.0417Y-5.3147
X6.0417Y-5.4147
X6.0482Y-1.6661
X6.096Y-5.5195
X6.1417Y-1.8147
X6.1417Y-1.9147
X6.1417Y-2.0147
X6.1417Y-2.1147
X6.1417Y-2.2147
X6.1417Y-2.3147
X6.1417Y-2.4147
X6.1417Y-2.5147
X6.1417Y-2.6147
X6.1417Y-2.7147
X6.1417Y-2.8147
X6.1417Y-2.9147
X6.1417Y-4.8147
X6.1417Y-5.1147
X6.1417Y-5.2147
X6.1417Y-5.3147
X6.1417Y-5.4147
X6.1484Y-1.6661
X6.2417Y-1.8147
X6.2417Y-1.9147
X6.2417Y-2.0147
X6.2417Y-2.1147
X6.2417Y-2.2147
X6.2417Y-2.3147
X6.2417Y-2.4147
X6.2417Y-2.5147
X6.2417Y-2.6147
X6.2417Y-2.7147
X6.2417Y-2.8147
X6.2417Y-2.9147
X6.2417Y-4.8147
X6.2417Y-5.1147
X6.2417Y-5.2147
X6.2417Y-5.3147
X6.2485Y-1.6661
X6.3417Y-1.8147
X6.3417Y-1.9147
X6.3417Y-2.0147
X6.3417Y-2.1147
X6.3417Y-4.8147
X6.3417Y-5.1147
X6.3417Y-5.2147
X6.3417Y-5.3147
X6.3487Y-1.6661
X6.4417Y-1.8147
X6.4417Y-1.9147
X6.4417Y-2.0147
X6.4417Y-2.1147
X6.4417Y-2.4147
X6.4417Y-2.5147
X6.4417Y-2.6147
X6.4417Y-2.7147
X6.4417Y-2.8147
X6.4417Y-2.9147
X6.4417Y-3.0147
X6.4417Y-3.1147
X6.4417Y-3.2147
X6.4417Y-3.3147
X6.4417Y-3.4147
X6.4417Y-3.5147
X6.4417Y-3.6147
X6.4417Y-3.7147
X6.4417Y-3.8147
X6.4417Y-3.9147
X6.4417Y-4.0147
X6.4417Y-4.1147
X6.4417Y-4.2147
X6.4417Y-4.3147
X6.4417Y-4.4147
X6.4417Y-4.5147
X6.4417Y-4.8147
X6.4417Y-5.1147
X6.4417Y-5.2147
X6.4488Y-1.6661
X6.5417Y-1.8147
X6.5417Y-1.9147
X6.5417Y-2.0147
X6.5417Y-2.1147
X6.5417Y-2.4147
X6.5417Y-2.5147
X6.5417Y-2.6147
X6.5417Y-2.7147
X6.5417Y-2.8147
X6.5417Y-2.9147
X6.5417Y-3.0147
X6.5417Y-3.1147
X6.5417Y-3.2147
X6.5417Y-3.3147
X6.5417Y-3.4147
X6.5417Y-3.5147
X6.5417Y-3.6147
X6.5417Y-3.7147
X6.5417Y-3.8147
X6.5417Y-3.9147
X6.5417Y-4.0147
X6.5417Y-4.1147
X6.5417Y-4.2147
X6.5417Y-4.3147
X6.5417Y-4.4147
X6.5417Y-4.5147
X6.5417Y-4.8147
X6.5417Y-5.1147
X6.5417Y-5.2147
X6.549Y-1.6661
X6.6417Y-1.8147
X6.6417Y-1.9147
X6.6417Y-2.4147
X6.6417Y-2.5147
X6.6417Y-2.6147
X6.6417Y-2.7147
X6.6417Y-2.8147
X6.6417Y-2.9147
X6.6417Y-3.0147
X6.6417Y-3.1147
X6.6417Y-3.2147
X6.6417Y-4.0147
X6.6417Y-4.1147
X6.6417Y-4.2147
X6.6417Y-4.3147
X6.6417Y-4.4147
X6.6417Y-4.5147
X6.6417Y-5.3147
X6.6491Y-1.6661
X6.7417Y-1.8147
X6.7417Y-1.9147
X6.7417Y-2.4147
X6.7417Y-2.5147
X6.7417Y-2.6147
X6.7417Y-2.7147
X6.7417Y-2.8147
X6.7417Y-2.9147
X6.7417Y-3.0147
X6.7417Y-3.1147
X6.7417Y-3.2147
X6.7417Y-4.0147
X6.7417Y-4.1147
X6.7417Y-4.2147
X6.7417Y-4.3147
X6.7417Y-4.4147
X6.7417Y-4.5147
X6.7493Y-1.6661
X6.8417Y-1.8147
X6.8417Y-1.9147
X6.8417Y-2.0147
X6.8417Y-2.1147
X6.8417Y-2.4147
X6.8417Y-2.5147
X6.8417Y-2.6147
X6.8417Y-2.7147
X6.8417Y-2.8147
X6.8417Y-2.9147
X6.8417Y-3.0147
X6.8417Y-3.1147
X6.8417Y-3.2147
X6.8417Y-3.3147
X6.8417Y-3.6147
X6.8417Y-3.9147
X6.8417Y-4.0147
X6.8417Y-4.1147
X6.8417Y-4.2147
X6.8417Y-4.3147
X6.8417Y-4.4147
X6.8417Y-4.5147
X6.8417Y-4.6147
X6.8417Y-4.7147
X6.8417Y-4.8147
X6.8417Y-5.1147
X6.8417Y-5.2147
X6.8494Y-1.6661
X6.9417Y-1.8147
X6.9417Y-1.9147
X6.9417Y-2.0147
X6.9417Y-2.1147
X6.9417Y-2.4147
X6.9417Y-2.5147
X6.9417Y-2.6147
X6.9417Y-2.7147
X6.9417Y-2.8147
X6.9417Y-2.9147
X6.9417Y-3.0147
X6.9417Y-3.1147
X6.9417Y-3.2147
X6.9417Y-3.3147
X6.9417Y-3.6147
X6.9417Y-3.9147
X6.9417Y-4.0147
X6.9417Y-4.1147
X6.9417Y-4.2147
X6.9417Y-4.3147
X6.9417Y-4.4147
X6.9417Y-4.5147
X6.9417Y-4.6147
X6.9417Y-4.7147
X6.9417Y-4.8147
X6.9417Y-5.1147
X6.9417Y-5.2147
X6.9417Y-5.3147
X6.9496Y-1.6661
X7.0417Y-1.9147
X7.0417Y-2.0147
X7.0417Y-2.1147
X7.0417Y-2.4147
X7.0417Y-2.5147
X7.0417Y-2.6147
X7.0417Y-2.7147
X7.0417Y-2.8147
X7.0417Y-2.9147
X7.0417Y-3.0147
X7.0417Y-3.1147
X7.0417Y-3.2147
X7.0417Y-3.3147
X7.0417Y-3.6147
X7.0417Y-3.9147
X7.0417Y-4.0147
X7.0417Y-4.1147
X7.0417Y-4.2147
X7.0417Y-4.3147
X7.0417Y-4.4147
X7.0417Y-4.5147
X7.0417Y-4.6147
X7.0417Y-4.7147
X7.0417Y-4.8147
X7.0417Y-5.1147
X7.0417Y-5.2147
X7.0417Y-5.3147
X7.1417Y-2.0147
X7.1417Y-2.1147
X7.1417Y-2.4147
X7.1417Y-2.5147
X7.1417Y-2.6147
X7.1417Y-2.7147
X7.1417Y-2.8147
X7.1417Y-2.9147
X7.1417Y-3.0147
X7.1417Y-3.1147
X7.1417Y-3.2147
X7.1417Y-3.3147
X7.1417Y-3.6147
X7.1417Y-3.9147
X7.1417Y-4.0147
X7.1417Y-4.1147
X7.1417Y-4.2147
X7.1417Y-4.3147
X7.1417Y-4.4147
X7.1417Y-4.5147
X7.1417Y-4.6147
X7.1417Y-4.7147
X7.1417Y-4.8147
X7.1417Y-5.1147
X7.1417Y-5.2147
X7.2417Y-2.1147
X7.2417Y-5.1147
X7.3502Y-2.0667
X7.3502Y-2.1668
X7.3502Y-2.267
X7.3502Y-2.3671
X7.3502Y-2.4673
X7.3502Y-2.5674
X7.3502Y-2.6676
X7.3502Y-2.7677
X7.3502Y-2.8679
X7.3502Y-2.968
X7.3502Y-3.0682
X7.3502Y-3.1683
X7.3502Y-3.2685
X7.3502Y-3.3686
X7.3502Y-3.4688
X7.3502Y-3.5689
X7.3502Y-3.6691
X7.3502Y-3.7692
X7.3502Y-3.8694
X7.3502Y-3.9695
X7.3502Y-4.0697
X7.3502Y-4.1698
X7.3502Y-4.27
X7.3502Y-4.3701
X7.3502Y-4.4703
X7.3502Y-4.5704
X7.3502Y-4.6706
X7.3502Y-4.7707
X7.3502Y-4.8709
X7.3502Y-4.971
X7.3502Y-5.0712
X7.3502Y-5.1713
M30
