%TF.GenerationSoftware,KiCad,Pcbnew,9.0.7*%
%TF.CreationDate,2026-02-05T12:26:26-05:00*%
%TF.ProjectId,Avionics-Deployables,4176696f-6e69-4637-932d-4465706c6f79,rev?*%
%TF.SameCoordinates,Original*%
%TF.FileFunction,Paste,Bot*%
%TF.FilePolarity,Positive*%
%FSLAX46Y46*%
G04 Gerber Fmt 4.6, Leading zero omitted, Abs format (unit mm)*
G04 Created by KiCad (PCBNEW 9.0.7) date 2026-02-05 12:26:26*
%MOMM*%
%LPD*%
G01*
G04 APERTURE LIST*
G04 Aperture macros list*
%AMRoundRect*
0 Rectangle with rounded corners*
0 $1 Rounding radius*
0 $2 $3 $4 $5 $6 $7 $8 $9 X,Y pos of 4 corners*
0 Add a 4 corners polygon primitive as box body*
4,1,4,$2,$3,$4,$5,$6,$7,$8,$9,$2,$3,0*
0 Add four circle primitives for the rounded corners*
1,1,$1+$1,$2,$3*
1,1,$1+$1,$4,$5*
1,1,$1+$1,$6,$7*
1,1,$1+$1,$8,$9*
0 Add four rect primitives between the rounded corners*
20,1,$1+$1,$2,$3,$4,$5,0*
20,1,$1+$1,$4,$5,$6,$7,0*
20,1,$1+$1,$6,$7,$8,$9,0*
20,1,$1+$1,$8,$9,$2,$3,0*%
G04 Aperture macros list end*
%ADD10R,0.400000X1.000000*%
%ADD11R,2.000000X1.300000*%
%ADD12RoundRect,0.250000X-0.500000X0.950000X-0.500000X-0.950000X0.500000X-0.950000X0.500000X0.950000X0*%
%ADD13RoundRect,0.250000X-0.500000X0.275000X-0.500000X-0.275000X0.500000X-0.275000X0.500000X0.275000X0*%
%ADD14C,3.200000*%
G04 APERTURE END LIST*
D10*
%TO.C,J1*%
X151030002Y-125175400D03*
X150030002Y-125175400D03*
X149030002Y-125175400D03*
X148030002Y-125175400D03*
X147030002Y-125175400D03*
X146030002Y-125175400D03*
X145030002Y-125175400D03*
X144030002Y-125175400D03*
X143030002Y-125175400D03*
X142030002Y-125175400D03*
D11*
X153830002Y-127875400D03*
X139230002Y-127875400D03*
%TD*%
D12*
%TO.C,D6*%
X183600000Y-71475400D03*
D13*
X183600000Y-69100400D03*
%TD*%
D12*
%TO.C,D10*%
X109600000Y-113475400D03*
D13*
X109600000Y-111100400D03*
%TD*%
D12*
%TO.C,D9*%
X109600000Y-71475400D03*
D13*
X109600000Y-69100400D03*
%TD*%
D12*
%TO.C,D7*%
X183600000Y-113475400D03*
D13*
X183600000Y-111100400D03*
%TD*%
D14*
%TO.C,SC9*%
X123600000Y-84625400D03*
X123600000Y-88625400D03*
X123600000Y-52625400D03*
X123600000Y-56625400D03*
%TD*%
%TO.C,SC6*%
X169600000Y-84625400D03*
X169600000Y-88625400D03*
X169600000Y-52625400D03*
X169600000Y-56625400D03*
%TD*%
D12*
%TO.C,D8*%
X156400001Y-78875000D03*
D13*
X156400001Y-76500000D03*
%TD*%
D14*
%TO.C,SC10*%
X123600000Y-126625400D03*
X123600000Y-130625400D03*
X123600000Y-94625400D03*
X123600000Y-98625400D03*
%TD*%
%TO.C,SC7*%
X169600000Y-126625400D03*
X169600000Y-130625400D03*
X169600000Y-94625400D03*
X169600000Y-98625400D03*
%TD*%
%TO.C,SC8*%
X146599234Y-89125400D03*
X146599234Y-85125400D03*
X146599234Y-121125400D03*
X146599234Y-117125400D03*
%TD*%
M02*
