%TF.GenerationSoftware,KiCad,Pcbnew,9.0.7*%
%TF.CreationDate,2026-02-05T12:26:26-05:00*%
%TF.ProjectId,Avionics-Deployables,4176696f-6e69-4637-932d-4465706c6f79,rev?*%
%TF.SameCoordinates,Original*%
%TF.FileFunction,Copper,L1,Top*%
%TF.FilePolarity,Positive*%
%FSLAX46Y46*%
G04 Gerber Fmt 4.6, Leading zero omitted, Abs format (unit mm)*
G04 Created by KiCad (PCBNEW 9.0.7) date 2026-02-05 12:26:26*
%MOMM*%
%LPD*%
G01*
G04 APERTURE LIST*
G04 Aperture macros list*
%AMRoundRect*
0 Rectangle with rounded corners*
0 $1 Rounding radius*
0 $2 $3 $4 $5 $6 $7 $8 $9 X,Y pos of 4 corners*
0 Add a 4 corners polygon primitive as box body*
4,1,4,$2,$3,$4,$5,$6,$7,$8,$9,$2,$3,0*
0 Add four circle primitives for the rounded corners*
1,1,$1+$1,$2,$3*
1,1,$1+$1,$4,$5*
1,1,$1+$1,$6,$7*
1,1,$1+$1,$8,$9*
0 Add four rect primitives between the rounded corners*
20,1,$1+$1,$2,$3,$4,$5,0*
20,1,$1+$1,$4,$5,$6,$7,0*
20,1,$1+$1,$6,$7,$8,$9,0*
20,1,$1+$1,$8,$9,$2,$3,0*%
G04 Aperture macros list end*
%TA.AperFunction,SMDPad,CuDef*%
%ADD10RoundRect,0.250000X-0.500000X0.950000X-0.500000X-0.950000X0.500000X-0.950000X0.500000X0.950000X0*%
%TD*%
%TA.AperFunction,SMDPad,CuDef*%
%ADD11RoundRect,0.250000X-0.500000X0.275000X-0.500000X-0.275000X0.500000X-0.275000X0.500000X0.275000X0*%
%TD*%
%TA.AperFunction,SMDPad,CuDef*%
%ADD12C,1.000000*%
%TD*%
%TA.AperFunction,SMDPad,CuDef*%
%ADD13C,3.200000*%
%TD*%
%TA.AperFunction,ViaPad*%
%ADD14C,0.609600*%
%TD*%
%TA.AperFunction,Conductor*%
%ADD15C,1.498600*%
%TD*%
G04 APERTURE END LIST*
D10*
%TO.P,D2,1,K*%
%TO.N,Net-(D2-K)*%
X109600000Y-113475400D03*
D11*
%TO.P,D2,2,A*%
%TO.N,Net-(D1-K)*%
X109600000Y-111100400D03*
%TD*%
D12*
%TO.P,H19,1,1*%
%TO.N,GND*%
X183600000Y-91625400D03*
%TD*%
D10*
%TO.P,D4,1,K*%
%TO.N,Net-(D4-K)*%
X183600000Y-71475400D03*
D11*
%TO.P,D4,2,A*%
%TO.N,Net-(D3-K)*%
X183600000Y-69100400D03*
%TD*%
D12*
%TO.P,H1,1,1*%
%TO.N,Net-(D1-K)*%
X109600000Y-84625400D03*
%TD*%
%TO.P,H20,1,1*%
%TO.N,GND*%
X109600000Y-91625400D03*
%TD*%
%TO.P,H2,1,1*%
%TO.N,Net-(D4-K)*%
X183600000Y-84625400D03*
%TD*%
%TO.P,H3,1,1*%
%TO.N,GND*%
X109600000Y-56625400D03*
%TD*%
D13*
%TO.P,SC4,1,+*%
%TO.N,Net-(D4-K)*%
X169600000Y-84625400D03*
X169600000Y-88625400D03*
%TO.P,SC4,2,-*%
%TO.N,Net-(D3-K)*%
X169600000Y-52625400D03*
X169600000Y-56625400D03*
%TD*%
D12*
%TO.P,H7,1,1*%
%TO.N,Net-(D4-K)*%
X183600000Y-98625400D03*
%TD*%
%TO.P,H4,1,1*%
%TO.N,Net-(D1-K)*%
X109600000Y-98625400D03*
%TD*%
D13*
%TO.P,SC1,1,+*%
%TO.N,Net-(D1-K)*%
X123600000Y-84625400D03*
X123600000Y-88625400D03*
%TO.P,SC1,2,-*%
%TO.N,GND*%
X123600000Y-52625400D03*
X123600000Y-56625400D03*
%TD*%
D12*
%TO.P,H6,1,1*%
%TO.N,Net-(D3-K)*%
X183600000Y-56625400D03*
%TD*%
D10*
%TO.P,D1,1,K*%
%TO.N,Net-(D1-K)*%
X109600000Y-71475400D03*
D11*
%TO.P,D1,2,A*%
%TO.N,GND*%
X109600000Y-69100400D03*
%TD*%
D13*
%TO.P,SC5,1,+*%
%TO.N,D_VSOLAR1*%
X169600000Y-126625400D03*
X169600000Y-130625400D03*
%TO.P,SC5,2,-*%
%TO.N,Net-(D4-K)*%
X169600000Y-94625400D03*
X169600000Y-98625400D03*
%TD*%
D12*
%TO.P,H8,1,1*%
%TO.N,D_VSOLAR1*%
X183600000Y-126625400D03*
%TD*%
D10*
%TO.P,D5,1,K*%
%TO.N,D_VSOLAR1*%
X183600000Y-113475400D03*
D11*
%TO.P,D5,2,A*%
%TO.N,Net-(D4-K)*%
X183600000Y-111100400D03*
%TD*%
D13*
%TO.P,SC3,1,+*%
%TO.N,Net-(D3-K)*%
X146600000Y-89125400D03*
X146600000Y-85125400D03*
%TO.P,SC3,2,-*%
%TO.N,Net-(D2-K)*%
X146600000Y-121125400D03*
X146600000Y-117125400D03*
%TD*%
%TO.P,SC2,1,+*%
%TO.N,Net-(D2-K)*%
X123600000Y-126625400D03*
X123600000Y-130625400D03*
%TO.P,SC2,2,-*%
%TO.N,Net-(D1-K)*%
X123600000Y-94625400D03*
X123600000Y-98625400D03*
%TD*%
D12*
%TO.P,H5,1,1*%
%TO.N,Net-(D2-K)*%
X109600000Y-126625400D03*
%TD*%
D10*
%TO.P,D3,1,K*%
%TO.N,Net-(D3-K)*%
X136800001Y-78875000D03*
D11*
%TO.P,D3,2,A*%
%TO.N,Net-(D2-K)*%
X136800001Y-76500000D03*
%TD*%
D14*
%TO.N,GND*%
X181400002Y-63873000D03*
X186695202Y-103369600D03*
X128060002Y-53713000D03*
X186695202Y-111001075D03*
X171240002Y-46093000D03*
X106504802Y-53705200D03*
X115360002Y-79113000D03*
X186695202Y-83019000D03*
X148537727Y-42317800D03*
X166160002Y-84193000D03*
X181400002Y-109593000D03*
X115468002Y-42317800D03*
X138220002Y-61333000D03*
X106504802Y-114757000D03*
X166160002Y-81653000D03*
X115360002Y-112133000D03*
X135680002Y-66413000D03*
X173780002Y-63873000D03*
X138220002Y-68953000D03*
X125520002Y-63873000D03*
X158540002Y-74033000D03*
X125520002Y-112133000D03*
X173780002Y-109593000D03*
X166160002Y-51173000D03*
X140760002Y-112133000D03*
X171240002Y-101973000D03*
X128060002Y-68953000D03*
X173780002Y-79113000D03*
X106504802Y-89318750D03*
X125520002Y-76573000D03*
X117900002Y-66413000D03*
X150920002Y-71493000D03*
X186695202Y-126264025D03*
X186695202Y-75387525D03*
X112820002Y-63873000D03*
X178860002Y-122293000D03*
X166160002Y-91813000D03*
X153460002Y-134993000D03*
X138220002Y-46093000D03*
X156000002Y-48633000D03*
X145840002Y-101973000D03*
X130600002Y-91813000D03*
X150920002Y-134993000D03*
X178860002Y-134993000D03*
X176320002Y-66413000D03*
X128060002Y-61333000D03*
X163620002Y-94353000D03*
X145840002Y-134993000D03*
X115360002Y-48633000D03*
X148380002Y-74033000D03*
X178860002Y-99433000D03*
X163620002Y-66413000D03*
X128060002Y-127373000D03*
X122980002Y-46093000D03*
X161080002Y-132453000D03*
X153460002Y-122293000D03*
X152293702Y-140195200D03*
X171432152Y-42317800D03*
X163620002Y-104513000D03*
X156000002Y-137533000D03*
X156000002Y-51173000D03*
X125520002Y-107053000D03*
X166160002Y-96893000D03*
X106504802Y-76599625D03*
X173780002Y-129913000D03*
X163620002Y-129913000D03*
X166160002Y-122293000D03*
X117900002Y-132453000D03*
X163620002Y-89273000D03*
X158540002Y-132453000D03*
X130600002Y-48633000D03*
X161080002Y-129913000D03*
X106504802Y-74055800D03*
X153460002Y-86733000D03*
X176320002Y-91813000D03*
X112820002Y-76573000D03*
X130600002Y-132453000D03*
X117900002Y-79113000D03*
X153460002Y-91813000D03*
X138220002Y-91813000D03*
X115360002Y-107053000D03*
X130600002Y-89273000D03*
X148380002Y-107053000D03*
X150920002Y-86733000D03*
X106504802Y-119844650D03*
X176320002Y-114673000D03*
X122980002Y-74033000D03*
X112820002Y-84193000D03*
X166160002Y-76573000D03*
X156000002Y-122293000D03*
X178860002Y-79113000D03*
X135680002Y-53713000D03*
X150920002Y-96893000D03*
X145840002Y-91813000D03*
X150920002Y-89273000D03*
X112820002Y-104513000D03*
X166160002Y-89273000D03*
X106504802Y-51161375D03*
X122980002Y-107053000D03*
X110280002Y-129913000D03*
X168700002Y-79113000D03*
X128060002Y-66413000D03*
X133140002Y-51173000D03*
X153460002Y-107053000D03*
X140760002Y-94353000D03*
X186695202Y-116088725D03*
X106504802Y-124932300D03*
X166160002Y-61333000D03*
X138220002Y-66413000D03*
X143300002Y-86733000D03*
X148380002Y-96893000D03*
X156000002Y-68953000D03*
X145840002Y-104513000D03*
X140760002Y-68953000D03*
X115360002Y-53713000D03*
X181400002Y-66413000D03*
X135680002Y-71493000D03*
X145840002Y-96893000D03*
X166160002Y-68953000D03*
X163620002Y-79113000D03*
X156000002Y-74033000D03*
X181400002Y-119753000D03*
X128060002Y-122293000D03*
X143300002Y-71493000D03*
X133140002Y-46093000D03*
X117900002Y-99433000D03*
X138220002Y-112133000D03*
X117900002Y-104513000D03*
X163620002Y-84193000D03*
X117900002Y-134993000D03*
X117900002Y-81653000D03*
X153460002Y-74033000D03*
X168700002Y-48633000D03*
X140760002Y-71493000D03*
X139574577Y-140195200D03*
X166160002Y-107053000D03*
X128060002Y-79113000D03*
X181400002Y-53713000D03*
X110280002Y-51173000D03*
X115360002Y-51173000D03*
X112820002Y-51173000D03*
X166160002Y-109593000D03*
X115360002Y-129913000D03*
X115360002Y-101973000D03*
X115360002Y-63873000D03*
X133140002Y-132453000D03*
X158540002Y-53713000D03*
X166160002Y-71493000D03*
X120440002Y-84193000D03*
X178860002Y-71493000D03*
X128060002Y-129913000D03*
X158540002Y-61333000D03*
X176320002Y-61333000D03*
X125520002Y-122293000D03*
X150920002Y-94353000D03*
X106504802Y-91862575D03*
X138220002Y-134993000D03*
X176320002Y-53713000D03*
X186695202Y-118632550D03*
X163620002Y-99433000D03*
X138220002Y-96893000D03*
X158540002Y-129913000D03*
X161080002Y-48633000D03*
X168700002Y-81653000D03*
X125520002Y-66413000D03*
X158713027Y-42317800D03*
X112820002Y-66413000D03*
X106504802Y-109669350D03*
X130600002Y-107053000D03*
X112820002Y-81653000D03*
X140760002Y-86733000D03*
X112820002Y-99433000D03*
X106504802Y-96950225D03*
X128060002Y-71493000D03*
X176320002Y-79113000D03*
X122980002Y-114673000D03*
X173780002Y-74033000D03*
X117900002Y-71493000D03*
X140906252Y-42317800D03*
X163620002Y-132453000D03*
X128060002Y-76573000D03*
X163620002Y-109593000D03*
X186695202Y-70299875D03*
X148380002Y-112133000D03*
X122980002Y-109593000D03*
X163620002Y-101973000D03*
X178860002Y-76573000D03*
X112820002Y-101973000D03*
X138220002Y-99433000D03*
X128060002Y-114673000D03*
X176320002Y-117213000D03*
X186695202Y-98281950D03*
X153460002Y-114673000D03*
X176320002Y-71493000D03*
X106504802Y-68968150D03*
X178860002Y-51173000D03*
X128060002Y-109593000D03*
X163620002Y-81653000D03*
X156000002Y-132453000D03*
X168700002Y-66413000D03*
X135680002Y-74033000D03*
X171240002Y-114673000D03*
X125520002Y-74033000D03*
X122980002Y-81653000D03*
X181400002Y-114673000D03*
X106504802Y-107125525D03*
X158540002Y-122293000D03*
X128060002Y-101973000D03*
X117900002Y-91813000D03*
X176320002Y-63873000D03*
X135680002Y-46093000D03*
X176320002Y-134993000D03*
X163620002Y-51173000D03*
X166160002Y-104513000D03*
X158540002Y-66413000D03*
X156000002Y-134993000D03*
X158540002Y-58793000D03*
X178860002Y-129913000D03*
X120440002Y-68953000D03*
X166160002Y-48633000D03*
X173780002Y-84193000D03*
X115360002Y-91813000D03*
X163620002Y-86733000D03*
X158540002Y-56253000D03*
X150920002Y-107053000D03*
X140760002Y-104513000D03*
X120440002Y-63873000D03*
X125520002Y-134993000D03*
X176320002Y-132453000D03*
X138220002Y-94353000D03*
X176320002Y-51173000D03*
X128060002Y-104513000D03*
X156169202Y-42317800D03*
X143300002Y-74033000D03*
X133274777Y-42317800D03*
X112820002Y-132453000D03*
X128060002Y-112133000D03*
X120440002Y-112133000D03*
X117900002Y-129913000D03*
X106504802Y-71511975D03*
X186695202Y-77931350D03*
X178860002Y-66413000D03*
X143300002Y-94353000D03*
X166160002Y-114673000D03*
X143300002Y-89273000D03*
X130600002Y-101973000D03*
X112820002Y-74033000D03*
X181400002Y-122293000D03*
X120440002Y-48633000D03*
X133140002Y-122293000D03*
X150920002Y-109593000D03*
X122980002Y-48633000D03*
X181400002Y-101973000D03*
X173780002Y-81653000D03*
X171240002Y-48633000D03*
X150920002Y-91813000D03*
X145840002Y-137533000D03*
X135680002Y-137533000D03*
X140760002Y-89273000D03*
X176320002Y-107053000D03*
X181400002Y-112133000D03*
X158540002Y-48633000D03*
X106504802Y-56249025D03*
X173780002Y-53713000D03*
X115360002Y-61333000D03*
X115360002Y-99433000D03*
X130600002Y-86733000D03*
X106504802Y-84231100D03*
X128060002Y-74033000D03*
X133140002Y-134993000D03*
X150920002Y-137533000D03*
X106504802Y-63880500D03*
X181400002Y-84193000D03*
X166160002Y-94353000D03*
X163620002Y-107053000D03*
X143300002Y-99433000D03*
X138362427Y-42317800D03*
X178860002Y-114673000D03*
X106504802Y-99494050D03*
X143300002Y-109593000D03*
X106504802Y-122388475D03*
X143300002Y-114673000D03*
X145840002Y-68953000D03*
X171240002Y-68953000D03*
X173780002Y-46093000D03*
X153460002Y-96893000D03*
X153460002Y-112133000D03*
X120440002Y-76573000D03*
X112820002Y-117213000D03*
X173780002Y-107053000D03*
X115360002Y-134993000D03*
X128060002Y-46093000D03*
X161256852Y-42317800D03*
X138220002Y-109593000D03*
X140760002Y-99433000D03*
X186695202Y-93194300D03*
X150920002Y-74033000D03*
X135680002Y-134993000D03*
X140760002Y-107053000D03*
X173780002Y-104513000D03*
X166160002Y-101973000D03*
X122980002Y-104513000D03*
X125520002Y-104513000D03*
X163620002Y-74033000D03*
X153460002Y-99433000D03*
X183940002Y-53713000D03*
X106504802Y-61336675D03*
X156000002Y-58793000D03*
X122980002Y-79113000D03*
X135680002Y-51173000D03*
X115360002Y-122293000D03*
X156000002Y-53713000D03*
X106504802Y-117300825D03*
X186695202Y-100825775D03*
X122980002Y-66413000D03*
X125643302Y-42317800D03*
X178860002Y-53713000D03*
X181400002Y-68953000D03*
X173780002Y-117213000D03*
X171240002Y-109593000D03*
X115360002Y-71493000D03*
X117900002Y-63873000D03*
X158540002Y-71493000D03*
X163620002Y-91813000D03*
X171240002Y-112133000D03*
X117900002Y-101973000D03*
X153460002Y-68953000D03*
X120555652Y-42317800D03*
X176320002Y-74033000D03*
X140760002Y-91813000D03*
X171240002Y-81653000D03*
X150920002Y-68953000D03*
X161080002Y-134993000D03*
X115360002Y-104513000D03*
X178860002Y-68953000D03*
X106504802Y-130019950D03*
X166160002Y-129913000D03*
X166160002Y-74033000D03*
X125520002Y-101973000D03*
X168700002Y-63873000D03*
X120440002Y-91813000D03*
X178860002Y-117213000D03*
X117900002Y-48633000D03*
X181400002Y-104513000D03*
X166344502Y-42317800D03*
X186695202Y-80475175D03*
X178860002Y-81653000D03*
X186695202Y-113544900D03*
X120440002Y-66413000D03*
X125520002Y-68953000D03*
X112820002Y-129913000D03*
X176519802Y-42317800D03*
X117900002Y-122293000D03*
X156000002Y-61333000D03*
X176320002Y-109593000D03*
X173780002Y-114673000D03*
X153460002Y-101973000D03*
X117900002Y-119753000D03*
X112820002Y-71493000D03*
X178860002Y-63873000D03*
X145840002Y-99433000D03*
X118011827Y-42317800D03*
X117900002Y-84193000D03*
X186695202Y-128807850D03*
X106504802Y-94406400D03*
X158540002Y-63873000D03*
X181400002Y-76573000D03*
X178860002Y-74033000D03*
X163620002Y-61333000D03*
X135680002Y-58793000D03*
X128060002Y-81653000D03*
X171240002Y-66413000D03*
X181400002Y-99433000D03*
X112820002Y-112133000D03*
X130600002Y-53713000D03*
X150920002Y-114673000D03*
X186695202Y-60124575D03*
X143300002Y-101973000D03*
X148380002Y-91813000D03*
X181400002Y-71493000D03*
X112820002Y-114673000D03*
X122980002Y-71493000D03*
X143300002Y-107053000D03*
X153625377Y-42317800D03*
X171240002Y-71493000D03*
X122980002Y-76573000D03*
X120440002Y-74033000D03*
X176320002Y-112133000D03*
X143300002Y-68953000D03*
X138220002Y-101973000D03*
X135818602Y-42317800D03*
X181400002Y-74033000D03*
X128060002Y-91813000D03*
X168700002Y-71493000D03*
X147206052Y-140195200D03*
X173780002Y-91813000D03*
X176320002Y-48633000D03*
X153460002Y-109593000D03*
X140760002Y-134993000D03*
X166160002Y-66413000D03*
X176320002Y-76573000D03*
X112820002Y-79113000D03*
X120440002Y-99433000D03*
X135680002Y-63873000D03*
X176320002Y-101973000D03*
X148380002Y-99433000D03*
X151081552Y-42317800D03*
X148380002Y-134993000D03*
X153460002Y-104513000D03*
X115360002Y-46093000D03*
X125520002Y-114673000D03*
X112820002Y-119753000D03*
X140760002Y-137533000D03*
X125520002Y-71493000D03*
X186695202Y-55036925D03*
X145840002Y-107053000D03*
X125520002Y-81653000D03*
X163620002Y-122293000D03*
X163800677Y-42317800D03*
X112820002Y-122293000D03*
X153460002Y-71493000D03*
X142118402Y-140195200D03*
X130600002Y-104513000D03*
X128060002Y-86733000D03*
X161080002Y-51173000D03*
X135680002Y-132453000D03*
X178860002Y-61333000D03*
X135680002Y-122293000D03*
X137030752Y-140195200D03*
X120440002Y-101973000D03*
X106504802Y-104581700D03*
X166160002Y-99433000D03*
X117900002Y-68953000D03*
X178860002Y-84193000D03*
X173780002Y-61333000D03*
X166160002Y-86733000D03*
X138220002Y-114673000D03*
X186695202Y-88106650D03*
X186695202Y-62668400D03*
X148380002Y-68953000D03*
X138220002Y-107053000D03*
X130600002Y-94353000D03*
X115360002Y-68953000D03*
X158540002Y-46093000D03*
X117900002Y-46093000D03*
X168700002Y-61333000D03*
X140760002Y-96893000D03*
X125520002Y-46093000D03*
X112820002Y-91813000D03*
X186695202Y-52493100D03*
X120440002Y-119753000D03*
X186695202Y-123720200D03*
X128060002Y-51173000D03*
X163620002Y-63873000D03*
X128187127Y-42317800D03*
X176320002Y-84193000D03*
X178860002Y-101973000D03*
X168700002Y-109593000D03*
X120440002Y-61333000D03*
X156000002Y-56253000D03*
X130600002Y-112133000D03*
X173780002Y-119753000D03*
X145993902Y-42317800D03*
X186695202Y-65212225D03*
X128060002Y-84193000D03*
X186695202Y-72843700D03*
X166160002Y-132453000D03*
X181400002Y-51173000D03*
X138220002Y-122293000D03*
X153460002Y-89273000D03*
X115360002Y-74033000D03*
X117900002Y-61333000D03*
X163620002Y-71493000D03*
X145840002Y-112133000D03*
X150920002Y-99433000D03*
X149749877Y-140195200D03*
X181400002Y-107053000D03*
X143300002Y-91813000D03*
X168700002Y-112133000D03*
X173780002Y-76573000D03*
X130600002Y-109593000D03*
X163620002Y-76573000D03*
X145840002Y-74033000D03*
X186695202Y-108457250D03*
X186695202Y-85562825D03*
X117900002Y-74033000D03*
X154837527Y-140195200D03*
X138220002Y-89273000D03*
X140760002Y-114673000D03*
X117900002Y-109593000D03*
X168700002Y-46093000D03*
X130600002Y-46093000D03*
X145840002Y-94353000D03*
X156000002Y-63873000D03*
X173780002Y-132453000D03*
X183940002Y-129913000D03*
X143300002Y-104513000D03*
X143300002Y-96893000D03*
X112820002Y-107053000D03*
X130600002Y-114673000D03*
X176320002Y-81653000D03*
X156000002Y-71493000D03*
X143300002Y-137533000D03*
X178860002Y-119753000D03*
X125520002Y-48633000D03*
X168700002Y-74033000D03*
X125520002Y-61333000D03*
X138220002Y-132453000D03*
X106504802Y-81687275D03*
X173780002Y-68953000D03*
X122980002Y-101973000D03*
X168700002Y-104513000D03*
X148380002Y-109593000D03*
X156000002Y-66413000D03*
X171240002Y-63873000D03*
X138220002Y-74033000D03*
X153460002Y-94353000D03*
X112820002Y-53713000D03*
X171240002Y-74033000D03*
X150920002Y-112133000D03*
X186695202Y-121176375D03*
X120440002Y-46093000D03*
X117900002Y-112133000D03*
X140760002Y-101973000D03*
X181400002Y-117213000D03*
X176320002Y-129913000D03*
X143300002Y-112133000D03*
X168888327Y-42317800D03*
X176320002Y-104513000D03*
X181400002Y-79113000D03*
X181400002Y-129913000D03*
X115360002Y-109593000D03*
X168700002Y-76573000D03*
X176320002Y-119753000D03*
X166160002Y-112133000D03*
X138220002Y-51173000D03*
X117900002Y-51173000D03*
X122980002Y-61333000D03*
X186695202Y-67756050D03*
X173780002Y-66413000D03*
X186695202Y-131351675D03*
X128060002Y-132453000D03*
X115360002Y-66413000D03*
X176320002Y-122293000D03*
X163620002Y-114673000D03*
X181400002Y-81653000D03*
X117900002Y-117213000D03*
X173780002Y-48633000D03*
X133140002Y-53713000D03*
X178860002Y-132453000D03*
X120440002Y-81653000D03*
X130600002Y-99433000D03*
X171240002Y-79113000D03*
X106504802Y-66424325D03*
X122980002Y-112133000D03*
X106504802Y-102037875D03*
X163620002Y-53713000D03*
X106504802Y-112213175D03*
X128060002Y-96893000D03*
X106504802Y-127476125D03*
X168700002Y-114673000D03*
X115360002Y-81653000D03*
X168700002Y-134993000D03*
X176320002Y-68953000D03*
X130600002Y-51173000D03*
X186695202Y-105913425D03*
X120440002Y-114673000D03*
X140760002Y-74033000D03*
X163620002Y-48633000D03*
X173975977Y-42317800D03*
X117900002Y-107053000D03*
X130600002Y-122293000D03*
X148380002Y-71493000D03*
X178860002Y-109593000D03*
X178860002Y-91813000D03*
X173780002Y-71493000D03*
X138220002Y-63873000D03*
X115360002Y-117213000D03*
X178860002Y-104513000D03*
X115360002Y-119753000D03*
X122980002Y-68953000D03*
X122980002Y-63873000D03*
X168700002Y-107053000D03*
X138220002Y-71493000D03*
X143450077Y-42317800D03*
X148380002Y-94353000D03*
X163620002Y-46093000D03*
X161080002Y-53713000D03*
X120440002Y-122293000D03*
X166160002Y-46093000D03*
X140760002Y-109593000D03*
X138220002Y-104513000D03*
X166160002Y-79113000D03*
X115360002Y-76573000D03*
X178860002Y-48633000D03*
X120440002Y-79113000D03*
X148380002Y-101973000D03*
X171240002Y-76573000D03*
X173780002Y-51173000D03*
X135680002Y-56253000D03*
X171240002Y-61333000D03*
X112820002Y-68953000D03*
X156000002Y-129913000D03*
X138220002Y-48633000D03*
X117900002Y-53713000D03*
X106504802Y-86774925D03*
X145840002Y-109593000D03*
X117900002Y-114673000D03*
X135680002Y-68953000D03*
X125520002Y-91813000D03*
X163620002Y-112133000D03*
X171240002Y-104513000D03*
X148380002Y-137533000D03*
X145840002Y-71493000D03*
X150920002Y-104513000D03*
X173780002Y-99433000D03*
X128060002Y-48633000D03*
X128060002Y-99433000D03*
X158540002Y-68953000D03*
X186695202Y-90650475D03*
X133140002Y-48633000D03*
X106504802Y-79143450D03*
X166160002Y-63873000D03*
X186695202Y-57580750D03*
X178860002Y-112133000D03*
X173780002Y-101973000D03*
X181400002Y-132453000D03*
X128060002Y-89273000D03*
X158540002Y-134993000D03*
X120440002Y-107053000D03*
X138220002Y-53713000D03*
X144662227Y-140195200D03*
X120440002Y-71493000D03*
X178860002Y-107053000D03*
X123099477Y-42317800D03*
X120440002Y-117213000D03*
X135680002Y-61333000D03*
X181400002Y-91813000D03*
X153460002Y-137533000D03*
X125520002Y-109593000D03*
X138220002Y-86733000D03*
X138220002Y-137533000D03*
X128060002Y-63873000D03*
X117900002Y-76573000D03*
X181400002Y-61333000D03*
X128060002Y-94353000D03*
X148380002Y-104513000D03*
X125520002Y-79113000D03*
X161080002Y-46093000D03*
X128060002Y-107053000D03*
X120440002Y-109593000D03*
X173780002Y-112133000D03*
X168700002Y-68953000D03*
X176320002Y-46093000D03*
X156000002Y-46093000D03*
X176320002Y-99433000D03*
X143300002Y-134993000D03*
X112820002Y-61333000D03*
X130730952Y-42317800D03*
X130600002Y-96893000D03*
X171240002Y-107053000D03*
X110280002Y-53713000D03*
X150920002Y-101973000D03*
X173780002Y-122293000D03*
X168700002Y-101973000D03*
X106504802Y-58792850D03*
X115360002Y-84193000D03*
X115360002Y-132453000D03*
X161080002Y-122293000D03*
X112820002Y-109593000D03*
X115360002Y-114673000D03*
X166160002Y-53713000D03*
X138220002Y-56253000D03*
X138220002Y-58793000D03*
X135680002Y-48633000D03*
X120440002Y-104513000D03*
X186695202Y-95738125D03*
X158540002Y-51173000D03*
X163620002Y-96893000D03*
X163620002Y-68953000D03*
%TO.N,D_VSOLAR1*%
X151044234Y-126076000D03*
X149037634Y-126076000D03*
X150028234Y-126076000D03*
%TD*%
D15*
%TO.N,Net-(D1-K)*%
X109600000Y-110800000D02*
X109600000Y-94625400D01*
X123600000Y-98874934D02*
X123599534Y-98875400D01*
X109600000Y-94625400D02*
X123350000Y-94625400D01*
X123600000Y-88625400D02*
X123600000Y-84625400D01*
X123600000Y-88625400D02*
X123600000Y-98874934D01*
X109600000Y-71475400D02*
X109600000Y-88625400D01*
X109600000Y-88625400D02*
X123350000Y-88625400D01*
%TO.N,Net-(D2-K)*%
X136800001Y-76500000D02*
X133000001Y-76500000D01*
X123350000Y-126625400D02*
X109600000Y-126625400D01*
X123599534Y-126375866D02*
X123350000Y-126625400D01*
X123600000Y-117125400D02*
X123600000Y-130875400D01*
X135800000Y-117125400D02*
X123600000Y-117125400D01*
X146600000Y-121123868D02*
X146599234Y-121124634D01*
X146600000Y-117125400D02*
X146600000Y-121123868D01*
X133000001Y-116885400D02*
X133240001Y-117125400D01*
X133240001Y-117125400D02*
X146600000Y-117125400D01*
X133000001Y-76500000D02*
X133000001Y-116885400D01*
X123599534Y-124714000D02*
X123599534Y-126375866D01*
X109600000Y-126625400D02*
X109600000Y-113475400D01*
%TO.N,Net-(D3-K)*%
X146599234Y-85125400D02*
X136800001Y-85125400D01*
X161509034Y-85125400D02*
X161509034Y-56625400D01*
X169600000Y-52875400D02*
X169598934Y-52876466D01*
X161509034Y-56625400D02*
X183600000Y-56625400D01*
X169598934Y-56874334D02*
X169600000Y-56875400D01*
X146599234Y-85125400D02*
X161509034Y-85125400D01*
X183600000Y-56625400D02*
X183600000Y-68800000D01*
X169598934Y-52876466D02*
X169598934Y-56874334D01*
X136800001Y-85125400D02*
X136800001Y-78875000D01*
X146599234Y-85125400D02*
X146599234Y-88769400D01*
%TO.N,Net-(D4-K)*%
X169848934Y-94625400D02*
X183600000Y-94625400D01*
X169600000Y-85231894D02*
X169598934Y-85232960D01*
X169850000Y-88625400D02*
X183600000Y-88625400D01*
X169598934Y-94875400D02*
X169600000Y-94874334D01*
X183600000Y-88625400D02*
X183600000Y-71475400D01*
X169600000Y-98874334D02*
X169598934Y-98875400D01*
X183600000Y-94625400D02*
X183600000Y-110800000D01*
X169598934Y-94875400D02*
X169600000Y-94876466D01*
X169600000Y-94874334D02*
X169600000Y-84625400D01*
X169600000Y-94876466D02*
X169600000Y-98874334D01*
X169600000Y-84625400D02*
X169600000Y-85231894D01*
%TO.N,D_VSOLAR1*%
X183600000Y-126625400D02*
X183600000Y-113475400D01*
X169598934Y-126874334D02*
X169598934Y-130874334D01*
X168800600Y-126076000D02*
X169598934Y-126874334D01*
X151044234Y-126076000D02*
X168800600Y-126076000D01*
X169850000Y-126625400D02*
X183600000Y-126625400D01*
X151044234Y-126076000D02*
X149037634Y-126076000D01*
%TD*%
%TA.AperFunction,Conductor*%
%TO.N,GND*%
G36*
X178173753Y-41801502D02*
G01*
X178220246Y-41855158D01*
X178231383Y-41899588D01*
X178255525Y-42283322D01*
X178255525Y-42283323D01*
X178329427Y-42868308D01*
X178329429Y-42868321D01*
X178439919Y-43447531D01*
X178439920Y-43447539D01*
X178586555Y-44018638D01*
X178586562Y-44018663D01*
X178768766Y-44579427D01*
X178985835Y-45127682D01*
X178985843Y-45127700D01*
X179236892Y-45661206D01*
X179520965Y-46177933D01*
X179520970Y-46177941D01*
X179836911Y-46675785D01*
X179836919Y-46675797D01*
X180183493Y-47152814D01*
X180183498Y-47152821D01*
X180559361Y-47607163D01*
X180963002Y-48036997D01*
X181392836Y-48440638D01*
X181847178Y-48816501D01*
X181847185Y-48816506D01*
X182324202Y-49163080D01*
X182324214Y-49163088D01*
X182801795Y-49466170D01*
X182822071Y-49479037D01*
X183338786Y-49763104D01*
X183872318Y-50014165D01*
X184420562Y-50231230D01*
X184541395Y-50270491D01*
X184981336Y-50413437D01*
X184981347Y-50413440D01*
X184981353Y-50413442D01*
X184981361Y-50413444D01*
X185552460Y-50560079D01*
X185552466Y-50560079D01*
X185552479Y-50560083D01*
X186131686Y-50670572D01*
X186544571Y-50722731D01*
X186716677Y-50744474D01*
X186716681Y-50744474D01*
X186716687Y-50744475D01*
X187100412Y-50768616D01*
X187167142Y-50792855D01*
X187210174Y-50849324D01*
X187218500Y-50894367D01*
X187218500Y-131905722D01*
X187198498Y-131973843D01*
X187144842Y-132020336D01*
X187100231Y-132031485D01*
X186736828Y-132053825D01*
X186165009Y-132124395D01*
X186164999Y-132124396D01*
X185598557Y-132229925D01*
X185039714Y-132369996D01*
X185039702Y-132369999D01*
X184490456Y-132544110D01*
X184490439Y-132544116D01*
X183952954Y-132751583D01*
X183429177Y-132991654D01*
X182921105Y-133263417D01*
X182430696Y-133565822D01*
X181959756Y-133897754D01*
X181510060Y-134257963D01*
X181083313Y-134645088D01*
X180681136Y-135057653D01*
X180681128Y-135057662D01*
X180305016Y-135494133D01*
X179956381Y-135952877D01*
X179636577Y-136432108D01*
X179636573Y-136432115D01*
X179346762Y-136930089D01*
X179346758Y-136930097D01*
X179088046Y-137444917D01*
X179088043Y-137444923D01*
X179088043Y-137444924D01*
X178861415Y-137974627D01*
X178861407Y-137974647D01*
X178697123Y-138434861D01*
X178655383Y-138492292D01*
X178589220Y-138518039D01*
X178578457Y-138518500D01*
X159150225Y-138518500D01*
X159049775Y-138518500D01*
X159006989Y-138529964D01*
X158952742Y-138544499D01*
X158865756Y-138594721D01*
X158865746Y-138594729D01*
X156478882Y-140981595D01*
X156416570Y-141015620D01*
X156389787Y-141018500D01*
X136810213Y-141018500D01*
X136742092Y-140998498D01*
X136721118Y-140981595D01*
X134334253Y-138594729D01*
X134334243Y-138594721D01*
X134247258Y-138544500D01*
X134235792Y-138541427D01*
X134150225Y-138518500D01*
X134150223Y-138518500D01*
X114621574Y-138518500D01*
X114553453Y-138498498D01*
X114506960Y-138444842D01*
X114502911Y-138434867D01*
X114408318Y-138169878D01*
X114338623Y-137974634D01*
X114338622Y-137974631D01*
X114187594Y-137621624D01*
X114111988Y-137444905D01*
X113853278Y-136930082D01*
X113563467Y-136432103D01*
X113396794Y-136182339D01*
X120268500Y-136182339D01*
X120268500Y-136229476D01*
X120268500Y-136407661D01*
X120303749Y-136630210D01*
X120303750Y-136630214D01*
X120362736Y-136811757D01*
X120373377Y-136844505D01*
X120475672Y-137045269D01*
X120608113Y-137227559D01*
X120608115Y-137227561D01*
X120608117Y-137227564D01*
X120767435Y-137386882D01*
X120767438Y-137386884D01*
X120767441Y-137386887D01*
X120949731Y-137519328D01*
X121150495Y-137621623D01*
X121364790Y-137691251D01*
X121587339Y-137726500D01*
X121587342Y-137726500D01*
X121812658Y-137726500D01*
X121812661Y-137726500D01*
X122035210Y-137691251D01*
X122249505Y-137621623D01*
X122450269Y-137519328D01*
X122632559Y-137386887D01*
X122791887Y-137227559D01*
X122924328Y-137045269D01*
X123026623Y-136844505D01*
X123096251Y-136630210D01*
X123131500Y-136407661D01*
X123131500Y-136182339D01*
X128068500Y-136182339D01*
X128068500Y-136229476D01*
X128068500Y-136407661D01*
X128103749Y-136630210D01*
X128103750Y-136630214D01*
X128162736Y-136811757D01*
X128173377Y-136844505D01*
X128275672Y-137045269D01*
X128408113Y-137227559D01*
X128408115Y-137227561D01*
X128408117Y-137227564D01*
X128567435Y-137386882D01*
X128567438Y-137386884D01*
X128567441Y-137386887D01*
X128749731Y-137519328D01*
X128950495Y-137621623D01*
X129164790Y-137691251D01*
X129387339Y-137726500D01*
X129387342Y-137726500D01*
X129612658Y-137726500D01*
X129612661Y-137726500D01*
X129835210Y-137691251D01*
X130049505Y-137621623D01*
X130250269Y-137519328D01*
X130432559Y-137386887D01*
X130591887Y-137227559D01*
X130724328Y-137045269D01*
X130826623Y-136844505D01*
X130896251Y-136630210D01*
X130931500Y-136407661D01*
X130931500Y-136182339D01*
X162268500Y-136182339D01*
X162268500Y-136229476D01*
X162268500Y-136407661D01*
X162303749Y-136630210D01*
X162303750Y-136630214D01*
X162362736Y-136811757D01*
X162373377Y-136844505D01*
X162475672Y-137045269D01*
X162608113Y-137227559D01*
X162608115Y-137227561D01*
X162608117Y-137227564D01*
X162767435Y-137386882D01*
X162767438Y-137386884D01*
X162767441Y-137386887D01*
X162949731Y-137519328D01*
X163150495Y-137621623D01*
X163364790Y-137691251D01*
X163587339Y-137726500D01*
X163587342Y-137726500D01*
X163812658Y-137726500D01*
X163812661Y-137726500D01*
X164035210Y-137691251D01*
X164249505Y-137621623D01*
X164450269Y-137519328D01*
X164632559Y-137386887D01*
X164791887Y-137227559D01*
X164924328Y-137045269D01*
X165026623Y-136844505D01*
X165096251Y-136630210D01*
X165131500Y-136407661D01*
X165131500Y-136182339D01*
X170038500Y-136182339D01*
X170038500Y-136229476D01*
X170038500Y-136407661D01*
X170073749Y-136630210D01*
X170073750Y-136630214D01*
X170132736Y-136811757D01*
X170143377Y-136844505D01*
X170245672Y-137045269D01*
X170378113Y-137227559D01*
X170378115Y-137227561D01*
X170378117Y-137227564D01*
X170537435Y-137386882D01*
X170537438Y-137386884D01*
X170537441Y-137386887D01*
X170719731Y-137519328D01*
X170920495Y-137621623D01*
X171134790Y-137691251D01*
X171357339Y-137726500D01*
X171357342Y-137726500D01*
X171582658Y-137726500D01*
X171582661Y-137726500D01*
X171805210Y-137691251D01*
X172019505Y-137621623D01*
X172220269Y-137519328D01*
X172402559Y-137386887D01*
X172561887Y-137227559D01*
X172694328Y-137045269D01*
X172796623Y-136844505D01*
X172866251Y-136630210D01*
X172901500Y-136407661D01*
X172901500Y-136182339D01*
X172866251Y-135959790D01*
X172796623Y-135745495D01*
X172694328Y-135544731D01*
X172561887Y-135362441D01*
X172561884Y-135362438D01*
X172561882Y-135362435D01*
X172402564Y-135203117D01*
X172402561Y-135203115D01*
X172402559Y-135203113D01*
X172220269Y-135070672D01*
X172019505Y-134968377D01*
X172019502Y-134968376D01*
X172019500Y-134968375D01*
X171805214Y-134898750D01*
X171805212Y-134898749D01*
X171805210Y-134898749D01*
X171582661Y-134863500D01*
X171357339Y-134863500D01*
X171134790Y-134898749D01*
X171134788Y-134898749D01*
X171134785Y-134898750D01*
X170920499Y-134968375D01*
X170920493Y-134968378D01*
X170719727Y-135070674D01*
X170537438Y-135203115D01*
X170537435Y-135203117D01*
X170378117Y-135362435D01*
X170378115Y-135362438D01*
X170245674Y-135544727D01*
X170143378Y-135745493D01*
X170143375Y-135745499D01*
X170073750Y-135959785D01*
X170073749Y-135959788D01*
X170073749Y-135959790D01*
X170038500Y-136182339D01*
X165131500Y-136182339D01*
X165096251Y-135959790D01*
X165026623Y-135745495D01*
X164924328Y-135544731D01*
X164791887Y-135362441D01*
X164791884Y-135362438D01*
X164791882Y-135362435D01*
X164632564Y-135203117D01*
X164632561Y-135203115D01*
X164632559Y-135203113D01*
X164450269Y-135070672D01*
X164249505Y-134968377D01*
X164249502Y-134968376D01*
X164249500Y-134968375D01*
X164035214Y-134898750D01*
X164035212Y-134898749D01*
X164035210Y-134898749D01*
X163812661Y-134863500D01*
X163587339Y-134863500D01*
X163364790Y-134898749D01*
X163364788Y-134898749D01*
X163364785Y-134898750D01*
X163150499Y-134968375D01*
X163150493Y-134968378D01*
X162949727Y-135070674D01*
X162767438Y-135203115D01*
X162767435Y-135203117D01*
X162608117Y-135362435D01*
X162608115Y-135362438D01*
X162475674Y-135544727D01*
X162373378Y-135745493D01*
X162373375Y-135745499D01*
X162303750Y-135959785D01*
X162303749Y-135959788D01*
X162303749Y-135959790D01*
X162268500Y-136182339D01*
X130931500Y-136182339D01*
X130896251Y-135959790D01*
X130826623Y-135745495D01*
X130724328Y-135544731D01*
X130591887Y-135362441D01*
X130591884Y-135362438D01*
X130591882Y-135362435D01*
X130432564Y-135203117D01*
X130432561Y-135203115D01*
X130432559Y-135203113D01*
X130250269Y-135070672D01*
X130049505Y-134968377D01*
X130049502Y-134968376D01*
X130049500Y-134968375D01*
X129835214Y-134898750D01*
X129835212Y-134898749D01*
X129835210Y-134898749D01*
X129612661Y-134863500D01*
X129387339Y-134863500D01*
X129164790Y-134898749D01*
X129164788Y-134898749D01*
X129164785Y-134898750D01*
X128950499Y-134968375D01*
X128950493Y-134968378D01*
X128749727Y-135070674D01*
X128567438Y-135203115D01*
X128567435Y-135203117D01*
X128408117Y-135362435D01*
X128408115Y-135362438D01*
X128275674Y-135544727D01*
X128173378Y-135745493D01*
X128173375Y-135745499D01*
X128103750Y-135959785D01*
X128103749Y-135959788D01*
X128103749Y-135959790D01*
X128068500Y-136182339D01*
X123131500Y-136182339D01*
X123096251Y-135959790D01*
X123026623Y-135745495D01*
X122924328Y-135544731D01*
X122791887Y-135362441D01*
X122791884Y-135362438D01*
X122791882Y-135362435D01*
X122632564Y-135203117D01*
X122632561Y-135203115D01*
X122632559Y-135203113D01*
X122450269Y-135070672D01*
X122249505Y-134968377D01*
X122249502Y-134968376D01*
X122249500Y-134968375D01*
X122035214Y-134898750D01*
X122035212Y-134898749D01*
X122035210Y-134898749D01*
X121812661Y-134863500D01*
X121587339Y-134863500D01*
X121364790Y-134898749D01*
X121364788Y-134898749D01*
X121364785Y-134898750D01*
X121150499Y-134968375D01*
X121150493Y-134968378D01*
X120949727Y-135070674D01*
X120767438Y-135203115D01*
X120767435Y-135203117D01*
X120608117Y-135362435D01*
X120608115Y-135362438D01*
X120475674Y-135544727D01*
X120373378Y-135745493D01*
X120373375Y-135745499D01*
X120303750Y-135959785D01*
X120303749Y-135959788D01*
X120303749Y-135959790D01*
X120268500Y-136182339D01*
X113396794Y-136182339D01*
X113243646Y-135952844D01*
X112895022Y-135494112D01*
X112530141Y-135070672D01*
X112518922Y-135057652D01*
X112518918Y-135057648D01*
X112518908Y-135057636D01*
X112116721Y-134645059D01*
X111689976Y-134257938D01*
X111240283Y-133897730D01*
X110880581Y-133644202D01*
X110769330Y-133565789D01*
X110769318Y-133565782D01*
X110278905Y-133263377D01*
X110278898Y-133263373D01*
X109770862Y-132991633D01*
X109770840Y-132991622D01*
X109247070Y-132751557D01*
X108709587Y-132544094D01*
X108709550Y-132544081D01*
X108160320Y-132369978D01*
X107601425Y-132229898D01*
X107034994Y-132124378D01*
X107034977Y-132124375D01*
X106463177Y-132053814D01*
X106099770Y-132031477D01*
X106033004Y-132007333D01*
X105989891Y-131950926D01*
X105981500Y-131905714D01*
X105981500Y-70477137D01*
X108595500Y-70477137D01*
X108595500Y-72473648D01*
X108595682Y-72477027D01*
X108595670Y-72477027D01*
X108596200Y-72486910D01*
X108596200Y-88724268D01*
X108603872Y-88762836D01*
X108634775Y-88918198D01*
X108710444Y-89100878D01*
X108783845Y-89210731D01*
X108820297Y-89265284D01*
X108820302Y-89265290D01*
X108960109Y-89405097D01*
X108960115Y-89405102D01*
X109124522Y-89514956D01*
X109307202Y-89590625D01*
X109501134Y-89629200D01*
X121970560Y-89629200D01*
X122038681Y-89649202D01*
X122070522Y-89678496D01*
X122104509Y-89722788D01*
X122202722Y-89850780D01*
X122202726Y-89850784D01*
X122202733Y-89850792D01*
X122374607Y-90022666D01*
X122374628Y-90022685D01*
X122546904Y-90154877D01*
X122588771Y-90212215D01*
X122596200Y-90254839D01*
X122596200Y-92995960D01*
X122576198Y-93064081D01*
X122546904Y-93095922D01*
X122374629Y-93228114D01*
X122374607Y-93228133D01*
X122202733Y-93400007D01*
X122202714Y-93400029D01*
X122070522Y-93572304D01*
X122013184Y-93614171D01*
X121970560Y-93621600D01*
X109501131Y-93621600D01*
X109307201Y-93660175D01*
X109307196Y-93660177D01*
X109124522Y-93735844D01*
X108960115Y-93845697D01*
X108960109Y-93845702D01*
X108820302Y-93985509D01*
X108820297Y-93985515D01*
X108710444Y-94149922D01*
X108634777Y-94332596D01*
X108634775Y-94332601D01*
X108596200Y-94526531D01*
X108596200Y-110763878D01*
X108595669Y-110773769D01*
X108595681Y-110773770D01*
X108595500Y-110777149D01*
X108595500Y-111423646D01*
X108595502Y-111423670D01*
X108601959Y-111483739D01*
X108601959Y-111483741D01*
X108652657Y-111619666D01*
X108652658Y-111619667D01*
X108739596Y-111735804D01*
X108855733Y-111822742D01*
X108878606Y-111831273D01*
X108881479Y-111832345D01*
X108938314Y-111874892D01*
X108963124Y-111941413D01*
X108948032Y-112010787D01*
X108897829Y-112060988D01*
X108881479Y-112068455D01*
X108855733Y-112078058D01*
X108739596Y-112164996D01*
X108652657Y-112281134D01*
X108601962Y-112417050D01*
X108601960Y-112417058D01*
X108595500Y-112477137D01*
X108595500Y-114473648D01*
X108595682Y-114477027D01*
X108595670Y-114477027D01*
X108596200Y-114486910D01*
X108596200Y-126724268D01*
X108600712Y-126746950D01*
X108634775Y-126918198D01*
X108710444Y-127100878D01*
X108783845Y-127210731D01*
X108820297Y-127265284D01*
X108820302Y-127265290D01*
X108960109Y-127405097D01*
X108960115Y-127405102D01*
X109124522Y-127514956D01*
X109307202Y-127590625D01*
X109501134Y-127629200D01*
X109698866Y-127629200D01*
X121970560Y-127629200D01*
X122038681Y-127649202D01*
X122070522Y-127678496D01*
X122202714Y-127850770D01*
X122202722Y-127850780D01*
X122202726Y-127850784D01*
X122202733Y-127850792D01*
X122374607Y-128022666D01*
X122374628Y-128022685D01*
X122546904Y-128154877D01*
X122588771Y-128212215D01*
X122596200Y-128254839D01*
X122596200Y-128995960D01*
X122576198Y-129064081D01*
X122546904Y-129095922D01*
X122374629Y-129228114D01*
X122374607Y-129228133D01*
X122202733Y-129400007D01*
X122202714Y-129400028D01*
X122054732Y-129592881D01*
X122054728Y-129592887D01*
X121933187Y-129803403D01*
X121933182Y-129803414D01*
X121840150Y-130028012D01*
X121777229Y-130262836D01*
X121745500Y-130503847D01*
X121745500Y-130746952D01*
X121777229Y-130987963D01*
X121777230Y-130987969D01*
X121777231Y-130987971D01*
X121840150Y-131222788D01*
X121933181Y-131447384D01*
X121933182Y-131447385D01*
X121933187Y-131447396D01*
X122054728Y-131657912D01*
X122054732Y-131657918D01*
X122202714Y-131850771D01*
X122202733Y-131850792D01*
X122374607Y-132022666D01*
X122374628Y-132022685D01*
X122567481Y-132170667D01*
X122567487Y-132170671D01*
X122778003Y-132292212D01*
X122778007Y-132292213D01*
X122778016Y-132292219D01*
X123002612Y-132385250D01*
X123237429Y-132448169D01*
X123237435Y-132448169D01*
X123237436Y-132448170D01*
X123253046Y-132450225D01*
X123478450Y-132479900D01*
X123478457Y-132479900D01*
X123721543Y-132479900D01*
X123721550Y-132479900D01*
X123962571Y-132448169D01*
X124197388Y-132385250D01*
X124421984Y-132292219D01*
X124632516Y-132170669D01*
X124825380Y-132022678D01*
X124997278Y-131850780D01*
X125145269Y-131657916D01*
X125266819Y-131447384D01*
X125359850Y-131222788D01*
X125422769Y-130987971D01*
X125454500Y-130746950D01*
X125454500Y-130503850D01*
X125422769Y-130262829D01*
X125359850Y-130028012D01*
X125266819Y-129803416D01*
X125266813Y-129803407D01*
X125266812Y-129803403D01*
X125145271Y-129592887D01*
X125145267Y-129592881D01*
X124997285Y-129400028D01*
X124997266Y-129400007D01*
X124825392Y-129228133D01*
X124825384Y-129228126D01*
X124825380Y-129228122D01*
X124825370Y-129228114D01*
X124653096Y-129095922D01*
X124611229Y-129038584D01*
X124603800Y-128995960D01*
X124603800Y-128254839D01*
X124623802Y-128186718D01*
X124653096Y-128154877D01*
X124825371Y-128022685D01*
X124825371Y-128022684D01*
X124825380Y-128022678D01*
X124997278Y-127850780D01*
X125145269Y-127657916D01*
X125266819Y-127447384D01*
X125359850Y-127222788D01*
X125422769Y-126987971D01*
X125454500Y-126746950D01*
X125454500Y-126503850D01*
X125422769Y-126262829D01*
X125359850Y-126028012D01*
X125266819Y-125803416D01*
X125266813Y-125803407D01*
X125266812Y-125803403D01*
X125145271Y-125592887D01*
X125145267Y-125592881D01*
X124997285Y-125400028D01*
X124997266Y-125400007D01*
X124825392Y-125228133D01*
X124825384Y-125228126D01*
X124825380Y-125228122D01*
X124771065Y-125186444D01*
X124653096Y-125095922D01*
X124611229Y-125038584D01*
X124603800Y-124995960D01*
X124603800Y-118255200D01*
X124623802Y-118187079D01*
X124677458Y-118140586D01*
X124729800Y-118129200D01*
X133141135Y-118129200D01*
X144970560Y-118129200D01*
X145038681Y-118149202D01*
X145070522Y-118178496D01*
X145129380Y-118255200D01*
X145202722Y-118350780D01*
X145202726Y-118350784D01*
X145202733Y-118350792D01*
X145374607Y-118522666D01*
X145374628Y-118522685D01*
X145546904Y-118654877D01*
X145588771Y-118712215D01*
X145596200Y-118754839D01*
X145596200Y-119495960D01*
X145576198Y-119564081D01*
X145546904Y-119595922D01*
X145374629Y-119728114D01*
X145374607Y-119728133D01*
X145202733Y-119900007D01*
X145202714Y-119900028D01*
X145054732Y-120092881D01*
X145054728Y-120092887D01*
X144933187Y-120303403D01*
X144933182Y-120303414D01*
X144840150Y-120528012D01*
X144777229Y-120762836D01*
X144745500Y-121003847D01*
X144745500Y-121246952D01*
X144777229Y-121487963D01*
X144777230Y-121487969D01*
X144777231Y-121487971D01*
X144840150Y-121722788D01*
X144933181Y-121947384D01*
X144933182Y-121947385D01*
X144933187Y-121947396D01*
X145054728Y-122157912D01*
X145054732Y-122157918D01*
X145202714Y-122350771D01*
X145202733Y-122350792D01*
X145374607Y-122522666D01*
X145374628Y-122522685D01*
X145567481Y-122670667D01*
X145567487Y-122670671D01*
X145778003Y-122792212D01*
X145778007Y-122792213D01*
X145778016Y-122792219D01*
X146002612Y-122885250D01*
X146237429Y-122948169D01*
X146237435Y-122948169D01*
X146237436Y-122948170D01*
X146265093Y-122951811D01*
X146478450Y-122979900D01*
X146478457Y-122979900D01*
X146721543Y-122979900D01*
X146721550Y-122979900D01*
X146962571Y-122948169D01*
X147197388Y-122885250D01*
X147421984Y-122792219D01*
X147632516Y-122670669D01*
X147825380Y-122522678D01*
X147997278Y-122350780D01*
X148145269Y-122157916D01*
X148266819Y-121947384D01*
X148359850Y-121722788D01*
X148422769Y-121487971D01*
X148454500Y-121246950D01*
X148454500Y-121003850D01*
X148422769Y-120762829D01*
X148359850Y-120528012D01*
X148266819Y-120303416D01*
X148266813Y-120303407D01*
X148266812Y-120303403D01*
X148145271Y-120092887D01*
X148145267Y-120092881D01*
X147997285Y-119900028D01*
X147997266Y-119900007D01*
X147825392Y-119728133D01*
X147825384Y-119728126D01*
X147825380Y-119728122D01*
X147825370Y-119728114D01*
X147653096Y-119595922D01*
X147611229Y-119538584D01*
X147603800Y-119495960D01*
X147603800Y-118754839D01*
X147623802Y-118686718D01*
X147653096Y-118654877D01*
X147825371Y-118522685D01*
X147825371Y-118522684D01*
X147825380Y-118522678D01*
X147997278Y-118350780D01*
X148145269Y-118157916D01*
X148266819Y-117947384D01*
X148359850Y-117722788D01*
X148422769Y-117487971D01*
X148454500Y-117246950D01*
X148454500Y-117003850D01*
X148422769Y-116762829D01*
X148359850Y-116528012D01*
X148266819Y-116303416D01*
X148266813Y-116303407D01*
X148266812Y-116303403D01*
X148145271Y-116092887D01*
X148145267Y-116092881D01*
X147997285Y-115900028D01*
X147997266Y-115900007D01*
X147825392Y-115728133D01*
X147825371Y-115728114D01*
X147632518Y-115580132D01*
X147632512Y-115580128D01*
X147421996Y-115458587D01*
X147421988Y-115458583D01*
X147421984Y-115458581D01*
X147197388Y-115365550D01*
X146962571Y-115302631D01*
X146962569Y-115302630D01*
X146962563Y-115302629D01*
X146721552Y-115270900D01*
X146721550Y-115270900D01*
X146478450Y-115270900D01*
X146478447Y-115270900D01*
X146237436Y-115302629D01*
X146002612Y-115365550D01*
X145778014Y-115458582D01*
X145778003Y-115458587D01*
X145567487Y-115580128D01*
X145567481Y-115580132D01*
X145374628Y-115728114D01*
X145374607Y-115728133D01*
X145202733Y-115900007D01*
X145202714Y-115900029D01*
X145070522Y-116072304D01*
X145013184Y-116114171D01*
X144970560Y-116121600D01*
X134129801Y-116121600D01*
X134061680Y-116101598D01*
X134015187Y-116047942D01*
X134003801Y-115995600D01*
X134003801Y-77629800D01*
X134023803Y-77561679D01*
X134077459Y-77515186D01*
X134129801Y-77503800D01*
X135737177Y-77503800D01*
X135805298Y-77523802D01*
X135851791Y-77577458D01*
X135861895Y-77647732D01*
X135855233Y-77673833D01*
X135801961Y-77816657D01*
X135801961Y-77816658D01*
X135795501Y-77876737D01*
X135795501Y-79873248D01*
X135795683Y-79876627D01*
X135795671Y-79876627D01*
X135796201Y-79886510D01*
X135796201Y-85224266D01*
X135834776Y-85418198D01*
X135910445Y-85600878D01*
X135948554Y-85657912D01*
X136020298Y-85765284D01*
X136020303Y-85765290D01*
X136160110Y-85905097D01*
X136160116Y-85905102D01*
X136324523Y-86014956D01*
X136507203Y-86090625D01*
X136701135Y-86129200D01*
X136898867Y-86129200D01*
X144970560Y-86129200D01*
X145038681Y-86149202D01*
X145070522Y-86178496D01*
X145077238Y-86187248D01*
X145202722Y-86350780D01*
X145202726Y-86350784D01*
X145202733Y-86350792D01*
X145374607Y-86522666D01*
X145374628Y-86522685D01*
X145546138Y-86654290D01*
X145588005Y-86711628D01*
X145595434Y-86754252D01*
X145595434Y-87496548D01*
X145575432Y-87564669D01*
X145546138Y-87596510D01*
X145374628Y-87728114D01*
X145374607Y-87728133D01*
X145202733Y-87900007D01*
X145202714Y-87900028D01*
X145054732Y-88092881D01*
X145054728Y-88092887D01*
X144933187Y-88303403D01*
X144933182Y-88303414D01*
X144840150Y-88528012D01*
X144777229Y-88762836D01*
X144745500Y-89003847D01*
X144745500Y-89246952D01*
X144777229Y-89487963D01*
X144777230Y-89487969D01*
X144777231Y-89487971D01*
X144840150Y-89722788D01*
X144933181Y-89947384D01*
X144933182Y-89947385D01*
X144933187Y-89947396D01*
X145054728Y-90157912D01*
X145054732Y-90157918D01*
X145202714Y-90350771D01*
X145202733Y-90350792D01*
X145374607Y-90522666D01*
X145374628Y-90522685D01*
X145567481Y-90670667D01*
X145567487Y-90670671D01*
X145778003Y-90792212D01*
X145778007Y-90792213D01*
X145778016Y-90792219D01*
X146002612Y-90885250D01*
X146237429Y-90948169D01*
X146237435Y-90948169D01*
X146237436Y-90948170D01*
X146265093Y-90951811D01*
X146478450Y-90979900D01*
X146478457Y-90979900D01*
X146721543Y-90979900D01*
X146721550Y-90979900D01*
X146962571Y-90948169D01*
X147197388Y-90885250D01*
X147421984Y-90792219D01*
X147632516Y-90670669D01*
X147825380Y-90522678D01*
X147997278Y-90350780D01*
X148145269Y-90157916D01*
X148266819Y-89947384D01*
X148359850Y-89722788D01*
X148422769Y-89487971D01*
X148454500Y-89246950D01*
X148454500Y-89003850D01*
X148422769Y-88762829D01*
X148359850Y-88528012D01*
X148266819Y-88303416D01*
X148266813Y-88303407D01*
X148266812Y-88303403D01*
X148145271Y-88092887D01*
X148145267Y-88092881D01*
X147997285Y-87900028D01*
X147997266Y-87900007D01*
X147825392Y-87728133D01*
X147825384Y-87728126D01*
X147825380Y-87728122D01*
X147686559Y-87621600D01*
X147652329Y-87595334D01*
X147610462Y-87537996D01*
X147603034Y-87495372D01*
X147603034Y-86755428D01*
X147623036Y-86687307D01*
X147652329Y-86655466D01*
X147673120Y-86639511D01*
X147825380Y-86522678D01*
X147997278Y-86350780D01*
X148122762Y-86187248D01*
X148129478Y-86178496D01*
X148186816Y-86136629D01*
X148229440Y-86129200D01*
X161607899Y-86129200D01*
X161607900Y-86129200D01*
X161801832Y-86090625D01*
X161984512Y-86014956D01*
X162148919Y-85905102D01*
X162288736Y-85765285D01*
X162398590Y-85600878D01*
X162474259Y-85418198D01*
X162512834Y-85224266D01*
X162512834Y-57755200D01*
X162532836Y-57687079D01*
X162586492Y-57640586D01*
X162638834Y-57629200D01*
X167970560Y-57629200D01*
X168038681Y-57649202D01*
X168070522Y-57678496D01*
X168129380Y-57755200D01*
X168202722Y-57850780D01*
X168202726Y-57850784D01*
X168202733Y-57850792D01*
X168374607Y-58022666D01*
X168374628Y-58022685D01*
X168567481Y-58170667D01*
X168567487Y-58170671D01*
X168778003Y-58292212D01*
X168778007Y-58292213D01*
X168778016Y-58292219D01*
X169002612Y-58385250D01*
X169237429Y-58448169D01*
X169237435Y-58448169D01*
X169237436Y-58448170D01*
X169265093Y-58451811D01*
X169478450Y-58479900D01*
X169478457Y-58479900D01*
X169721543Y-58479900D01*
X169721550Y-58479900D01*
X169962571Y-58448169D01*
X170197388Y-58385250D01*
X170421984Y-58292219D01*
X170632516Y-58170669D01*
X170825380Y-58022678D01*
X170997278Y-57850780D01*
X171070620Y-57755200D01*
X171129478Y-57678496D01*
X171186816Y-57636629D01*
X171229440Y-57629200D01*
X182470200Y-57629200D01*
X182538321Y-57649202D01*
X182584814Y-57702858D01*
X182596200Y-57755200D01*
X182596200Y-68763878D01*
X182595669Y-68773769D01*
X182595681Y-68773770D01*
X182595500Y-68777149D01*
X182595500Y-69423646D01*
X182595502Y-69423670D01*
X182601959Y-69483739D01*
X182601959Y-69483741D01*
X182652657Y-69619666D01*
X182652658Y-69619667D01*
X182739596Y-69735804D01*
X182855733Y-69822742D01*
X182878606Y-69831273D01*
X182881479Y-69832345D01*
X182938314Y-69874892D01*
X182963124Y-69941413D01*
X182948032Y-70010787D01*
X182897829Y-70060988D01*
X182881479Y-70068455D01*
X182855733Y-70078058D01*
X182739596Y-70164996D01*
X182652657Y-70281134D01*
X182601962Y-70417050D01*
X182601960Y-70417058D01*
X182595500Y-70477137D01*
X182595500Y-72473648D01*
X182595682Y-72477027D01*
X182595670Y-72477027D01*
X182596200Y-72486910D01*
X182596200Y-87495600D01*
X182576198Y-87563721D01*
X182522542Y-87610214D01*
X182470200Y-87621600D01*
X171229440Y-87621600D01*
X171161319Y-87601598D01*
X171129478Y-87572304D01*
X170997285Y-87400029D01*
X170997284Y-87400028D01*
X170997278Y-87400020D01*
X170997272Y-87400014D01*
X170997266Y-87400007D01*
X170825392Y-87228133D01*
X170825384Y-87228126D01*
X170825380Y-87228122D01*
X170825370Y-87228114D01*
X170653096Y-87095922D01*
X170611229Y-87038584D01*
X170603800Y-86995960D01*
X170603800Y-86254839D01*
X170623802Y-86186718D01*
X170653096Y-86154877D01*
X170825371Y-86022685D01*
X170825371Y-86022684D01*
X170825380Y-86022678D01*
X170997278Y-85850780D01*
X171145269Y-85657916D01*
X171266819Y-85447384D01*
X171359850Y-85222788D01*
X171422769Y-84987971D01*
X171454500Y-84746950D01*
X171454500Y-84503850D01*
X171422769Y-84262829D01*
X171359850Y-84028012D01*
X171266819Y-83803416D01*
X171266813Y-83803407D01*
X171266812Y-83803403D01*
X171145271Y-83592887D01*
X171145267Y-83592881D01*
X170997285Y-83400028D01*
X170997266Y-83400007D01*
X170825392Y-83228133D01*
X170825371Y-83228114D01*
X170632518Y-83080132D01*
X170632512Y-83080128D01*
X170421996Y-82958587D01*
X170421988Y-82958583D01*
X170421984Y-82958581D01*
X170197388Y-82865550D01*
X169962571Y-82802631D01*
X169962569Y-82802630D01*
X169962563Y-82802629D01*
X169721552Y-82770900D01*
X169721550Y-82770900D01*
X169478450Y-82770900D01*
X169478447Y-82770900D01*
X169237436Y-82802629D01*
X169002612Y-82865550D01*
X168778014Y-82958582D01*
X168778003Y-82958587D01*
X168567487Y-83080128D01*
X168567481Y-83080132D01*
X168374628Y-83228114D01*
X168374607Y-83228133D01*
X168202733Y-83400007D01*
X168202714Y-83400028D01*
X168054732Y-83592881D01*
X168054728Y-83592887D01*
X167933187Y-83803403D01*
X167933182Y-83803414D01*
X167933181Y-83803416D01*
X167853576Y-83995600D01*
X167840150Y-84028012D01*
X167777229Y-84262836D01*
X167745500Y-84503847D01*
X167745500Y-84746952D01*
X167777229Y-84987963D01*
X167777230Y-84987969D01*
X167777231Y-84987971D01*
X167840150Y-85222788D01*
X167933181Y-85447384D01*
X167933182Y-85447385D01*
X167933187Y-85447396D01*
X168054728Y-85657912D01*
X168054732Y-85657918D01*
X168202714Y-85850771D01*
X168202733Y-85850792D01*
X168374607Y-86022666D01*
X168374628Y-86022685D01*
X168546904Y-86154877D01*
X168588771Y-86212215D01*
X168596200Y-86254839D01*
X168596200Y-86995960D01*
X168576198Y-87064081D01*
X168546904Y-87095922D01*
X168374629Y-87228114D01*
X168374607Y-87228133D01*
X168202733Y-87400007D01*
X168202714Y-87400028D01*
X168054732Y-87592881D01*
X168054728Y-87592887D01*
X167933187Y-87803403D01*
X167933182Y-87803414D01*
X167840150Y-88028012D01*
X167777229Y-88262836D01*
X167745500Y-88503847D01*
X167745500Y-88746952D01*
X167777229Y-88987963D01*
X167777230Y-88987969D01*
X167777231Y-88987971D01*
X167840150Y-89222788D01*
X167933181Y-89447384D01*
X167933182Y-89447385D01*
X167933187Y-89447396D01*
X168054728Y-89657912D01*
X168054732Y-89657918D01*
X168202714Y-89850771D01*
X168202733Y-89850792D01*
X168374607Y-90022666D01*
X168374628Y-90022685D01*
X168546904Y-90154877D01*
X168588771Y-90212215D01*
X168596200Y-90254839D01*
X168596200Y-92995960D01*
X168576198Y-93064081D01*
X168546904Y-93095922D01*
X168374629Y-93228114D01*
X168374607Y-93228133D01*
X168202733Y-93400007D01*
X168202714Y-93400028D01*
X168054732Y-93592881D01*
X168054728Y-93592887D01*
X167933187Y-93803403D01*
X167933182Y-93803414D01*
X167840150Y-94028012D01*
X167777229Y-94262836D01*
X167745500Y-94503847D01*
X167745500Y-94746952D01*
X167777229Y-94987963D01*
X167777230Y-94987969D01*
X167777231Y-94987971D01*
X167840150Y-95222788D01*
X167933181Y-95447384D01*
X167933182Y-95447385D01*
X167933187Y-95447396D01*
X168054728Y-95657912D01*
X168054732Y-95657918D01*
X168202714Y-95850771D01*
X168202733Y-95850792D01*
X168374607Y-96022666D01*
X168374628Y-96022685D01*
X168546904Y-96154877D01*
X168588771Y-96212215D01*
X168596200Y-96254839D01*
X168596200Y-96995960D01*
X168576198Y-97064081D01*
X168546904Y-97095922D01*
X168374629Y-97228114D01*
X168374607Y-97228133D01*
X168202733Y-97400007D01*
X168202714Y-97400028D01*
X168054732Y-97592881D01*
X168054728Y-97592887D01*
X167933187Y-97803403D01*
X167933182Y-97803414D01*
X167840150Y-98028012D01*
X167777229Y-98262836D01*
X167745500Y-98503847D01*
X167745500Y-98746952D01*
X167777229Y-98987963D01*
X167777230Y-98987969D01*
X167777231Y-98987971D01*
X167840150Y-99222788D01*
X167933181Y-99447384D01*
X167933182Y-99447385D01*
X167933187Y-99447396D01*
X168054728Y-99657912D01*
X168054732Y-99657918D01*
X168202714Y-99850771D01*
X168202733Y-99850792D01*
X168374607Y-100022666D01*
X168374628Y-100022685D01*
X168567481Y-100170667D01*
X168567487Y-100170671D01*
X168778003Y-100292212D01*
X168778007Y-100292213D01*
X168778016Y-100292219D01*
X169002612Y-100385250D01*
X169237429Y-100448169D01*
X169237435Y-100448169D01*
X169237436Y-100448170D01*
X169265093Y-100451811D01*
X169478450Y-100479900D01*
X169478457Y-100479900D01*
X169721543Y-100479900D01*
X169721550Y-100479900D01*
X169962571Y-100448169D01*
X170197388Y-100385250D01*
X170421984Y-100292219D01*
X170632516Y-100170669D01*
X170825380Y-100022678D01*
X170997278Y-99850780D01*
X171145269Y-99657916D01*
X171266819Y-99447384D01*
X171359850Y-99222788D01*
X171422769Y-98987971D01*
X171454500Y-98746950D01*
X171454500Y-98503850D01*
X171422769Y-98262829D01*
X171359850Y-98028012D01*
X171266819Y-97803416D01*
X171266813Y-97803407D01*
X171266812Y-97803403D01*
X171145271Y-97592887D01*
X171145267Y-97592881D01*
X170997285Y-97400028D01*
X170997266Y-97400007D01*
X170825392Y-97228133D01*
X170825384Y-97228126D01*
X170825380Y-97228122D01*
X170825370Y-97228114D01*
X170653096Y-97095922D01*
X170611229Y-97038584D01*
X170603800Y-96995960D01*
X170603800Y-96254839D01*
X170623802Y-96186718D01*
X170653096Y-96154877D01*
X170825371Y-96022685D01*
X170825371Y-96022684D01*
X170825380Y-96022678D01*
X170997278Y-95850780D01*
X171070620Y-95755200D01*
X171129478Y-95678496D01*
X171186816Y-95636629D01*
X171229440Y-95629200D01*
X182470200Y-95629200D01*
X182538321Y-95649202D01*
X182584814Y-95702858D01*
X182596200Y-95755200D01*
X182596200Y-110763878D01*
X182595669Y-110773769D01*
X182595681Y-110773770D01*
X182595500Y-110777149D01*
X182595500Y-111423646D01*
X182595502Y-111423670D01*
X182601959Y-111483739D01*
X182601959Y-111483741D01*
X182652657Y-111619666D01*
X182652658Y-111619667D01*
X182739596Y-111735804D01*
X182855733Y-111822742D01*
X182878606Y-111831273D01*
X182881479Y-111832345D01*
X182938314Y-111874892D01*
X182963124Y-111941413D01*
X182948032Y-112010787D01*
X182897829Y-112060988D01*
X182881479Y-112068455D01*
X182855733Y-112078058D01*
X182739596Y-112164996D01*
X182652657Y-112281134D01*
X182601962Y-112417050D01*
X182601960Y-112417058D01*
X182595500Y-112477137D01*
X182595500Y-114473648D01*
X182595682Y-114477027D01*
X182595670Y-114477027D01*
X182596200Y-114486910D01*
X182596200Y-125495600D01*
X182576198Y-125563721D01*
X182522542Y-125610214D01*
X182470200Y-125621600D01*
X171229440Y-125621600D01*
X171161319Y-125601598D01*
X171129478Y-125572304D01*
X170997285Y-125400029D01*
X170997284Y-125400028D01*
X170997278Y-125400020D01*
X170997272Y-125400014D01*
X170997266Y-125400007D01*
X170825392Y-125228133D01*
X170825371Y-125228114D01*
X170632518Y-125080132D01*
X170632512Y-125080128D01*
X170421996Y-124958587D01*
X170421988Y-124958583D01*
X170421984Y-124958581D01*
X170197388Y-124865550D01*
X169962571Y-124802631D01*
X169962569Y-124802630D01*
X169962563Y-124802629D01*
X169721552Y-124770900D01*
X169721550Y-124770900D01*
X169478450Y-124770900D01*
X169478447Y-124770900D01*
X169237436Y-124802629D01*
X169002612Y-124865550D01*
X168778014Y-124958582D01*
X168778003Y-124958587D01*
X168610460Y-125055319D01*
X168547460Y-125072200D01*
X148938765Y-125072200D01*
X148744835Y-125110775D01*
X148744830Y-125110777D01*
X148562156Y-125186444D01*
X148397749Y-125296297D01*
X148397743Y-125296302D01*
X148257936Y-125436109D01*
X148257931Y-125436115D01*
X148148078Y-125600522D01*
X148072411Y-125783196D01*
X148072409Y-125783201D01*
X148033834Y-125977131D01*
X148033834Y-126174868D01*
X148051332Y-126262836D01*
X148072409Y-126368798D01*
X148148078Y-126551478D01*
X148221479Y-126661331D01*
X148257931Y-126715884D01*
X148257936Y-126715890D01*
X148397743Y-126855697D01*
X148397749Y-126855702D01*
X148562156Y-126965556D01*
X148744836Y-127041225D01*
X148938768Y-127079800D01*
X150945368Y-127079800D01*
X167705153Y-127079800D01*
X167773274Y-127099802D01*
X167819767Y-127153458D01*
X167826858Y-127173183D01*
X167840150Y-127222788D01*
X167933181Y-127447384D01*
X167933182Y-127447385D01*
X167933187Y-127447396D01*
X168054728Y-127657912D01*
X168054732Y-127657918D01*
X168202714Y-127850771D01*
X168202733Y-127850792D01*
X168374607Y-128022666D01*
X168374628Y-128022685D01*
X168545838Y-128154059D01*
X168587705Y-128211397D01*
X168595134Y-128254021D01*
X168595134Y-128996778D01*
X168575132Y-129064899D01*
X168545838Y-129096740D01*
X168374628Y-129228114D01*
X168374607Y-129228133D01*
X168202733Y-129400007D01*
X168202714Y-129400028D01*
X168054732Y-129592881D01*
X168054728Y-129592887D01*
X167933187Y-129803403D01*
X167933182Y-129803414D01*
X167840150Y-130028012D01*
X167777229Y-130262836D01*
X167745500Y-130503847D01*
X167745500Y-130746952D01*
X167777229Y-130987963D01*
X167777230Y-130987969D01*
X167777231Y-130987971D01*
X167840150Y-131222788D01*
X167933181Y-131447384D01*
X167933182Y-131447385D01*
X167933187Y-131447396D01*
X168054728Y-131657912D01*
X168054732Y-131657918D01*
X168202714Y-131850771D01*
X168202733Y-131850792D01*
X168374607Y-132022666D01*
X168374628Y-132022685D01*
X168567481Y-132170667D01*
X168567487Y-132170671D01*
X168778003Y-132292212D01*
X168778007Y-132292213D01*
X168778016Y-132292219D01*
X169002612Y-132385250D01*
X169237429Y-132448169D01*
X169237435Y-132448169D01*
X169237436Y-132448170D01*
X169253046Y-132450225D01*
X169478450Y-132479900D01*
X169478457Y-132479900D01*
X169721543Y-132479900D01*
X169721550Y-132479900D01*
X169962571Y-132448169D01*
X170197388Y-132385250D01*
X170421984Y-132292219D01*
X170632516Y-132170669D01*
X170825380Y-132022678D01*
X170997278Y-131850780D01*
X171145269Y-131657916D01*
X171266819Y-131447384D01*
X171359850Y-131222788D01*
X171422769Y-130987971D01*
X171454500Y-130746950D01*
X171454500Y-130503850D01*
X171422769Y-130262829D01*
X171359850Y-130028012D01*
X171266819Y-129803416D01*
X171266813Y-129803407D01*
X171266812Y-129803403D01*
X171145271Y-129592887D01*
X171145267Y-129592881D01*
X170997285Y-129400028D01*
X170997266Y-129400007D01*
X170825392Y-129228133D01*
X170825384Y-129228126D01*
X170825380Y-129228122D01*
X170825370Y-129228114D01*
X170652030Y-129095104D01*
X170610163Y-129037766D01*
X170602734Y-128995142D01*
X170602734Y-128255657D01*
X170622736Y-128187536D01*
X170652030Y-128155695D01*
X170825371Y-128022685D01*
X170825371Y-128022684D01*
X170825380Y-128022678D01*
X170997278Y-127850780D01*
X171061050Y-127767670D01*
X171129478Y-127678496D01*
X171186816Y-127636629D01*
X171229440Y-127629200D01*
X183698865Y-127629200D01*
X183698866Y-127629200D01*
X183892798Y-127590625D01*
X184075478Y-127514956D01*
X184239885Y-127405102D01*
X184379702Y-127265285D01*
X184489556Y-127100878D01*
X184565225Y-126918198D01*
X184603800Y-126724266D01*
X184603800Y-114486922D01*
X184604329Y-114477031D01*
X184604319Y-114477031D01*
X184604497Y-114473677D01*
X184604500Y-114473655D01*
X184604499Y-112477146D01*
X184598040Y-112417058D01*
X184547342Y-112281133D01*
X184460404Y-112164996D01*
X184344267Y-112078058D01*
X184344265Y-112078057D01*
X184318518Y-112068453D01*
X184261684Y-112025905D01*
X184236875Y-111959384D01*
X184251968Y-111890010D01*
X184302172Y-111839810D01*
X184318503Y-111832351D01*
X184344267Y-111822742D01*
X184460404Y-111735804D01*
X184547342Y-111619667D01*
X184598040Y-111483742D01*
X184604500Y-111423655D01*
X184604499Y-110777146D01*
X184604498Y-110777139D01*
X184604318Y-110773775D01*
X184604329Y-110773774D01*
X184603800Y-110763890D01*
X184603800Y-94526535D01*
X184603799Y-94526531D01*
X184599289Y-94503857D01*
X184565225Y-94332602D01*
X184489556Y-94149922D01*
X184379702Y-93985515D01*
X184379697Y-93985509D01*
X184239890Y-93845702D01*
X184239884Y-93845697D01*
X184176586Y-93803403D01*
X184075478Y-93735844D01*
X183892798Y-93660175D01*
X183698868Y-93621600D01*
X183698866Y-93621600D01*
X171229440Y-93621600D01*
X171161319Y-93601598D01*
X171129478Y-93572304D01*
X170997285Y-93400029D01*
X170997284Y-93400028D01*
X170997278Y-93400020D01*
X170997272Y-93400014D01*
X170997266Y-93400007D01*
X170825392Y-93228133D01*
X170825384Y-93228126D01*
X170825380Y-93228122D01*
X170825370Y-93228114D01*
X170653096Y-93095922D01*
X170611229Y-93038584D01*
X170603800Y-92995960D01*
X170603800Y-90254839D01*
X170623802Y-90186718D01*
X170653096Y-90154877D01*
X170825371Y-90022685D01*
X170825371Y-90022684D01*
X170825380Y-90022678D01*
X170997278Y-89850780D01*
X171095491Y-89722788D01*
X171129478Y-89678496D01*
X171186816Y-89636629D01*
X171229440Y-89629200D01*
X183698865Y-89629200D01*
X183698866Y-89629200D01*
X183892798Y-89590625D01*
X184075478Y-89514956D01*
X184239885Y-89405102D01*
X184379702Y-89265285D01*
X184489556Y-89100878D01*
X184565225Y-88918198D01*
X184603800Y-88724266D01*
X184603800Y-72486922D01*
X184604329Y-72477031D01*
X184604319Y-72477031D01*
X184604497Y-72473677D01*
X184604500Y-72473655D01*
X184604499Y-70477146D01*
X184598040Y-70417058D01*
X184547342Y-70281133D01*
X184460404Y-70164996D01*
X184344267Y-70078058D01*
X184344265Y-70078057D01*
X184318518Y-70068453D01*
X184261684Y-70025905D01*
X184236875Y-69959384D01*
X184251968Y-69890010D01*
X184302172Y-69839810D01*
X184318503Y-69832351D01*
X184344267Y-69822742D01*
X184460404Y-69735804D01*
X184547342Y-69619667D01*
X184598040Y-69483742D01*
X184604500Y-69423655D01*
X184604499Y-68777146D01*
X184604498Y-68777139D01*
X184604318Y-68773775D01*
X184604329Y-68773774D01*
X184603800Y-68763890D01*
X184603800Y-56526535D01*
X184603799Y-56526531D01*
X184565225Y-56332602D01*
X184489556Y-56149922D01*
X184379702Y-55985515D01*
X184379697Y-55985509D01*
X184239890Y-55845702D01*
X184239884Y-55845697D01*
X184185331Y-55809245D01*
X184075478Y-55735844D01*
X183892798Y-55660175D01*
X183698868Y-55621600D01*
X183698866Y-55621600D01*
X171229440Y-55621600D01*
X171161319Y-55601598D01*
X171129478Y-55572304D01*
X170997285Y-55400029D01*
X170997284Y-55400028D01*
X170997278Y-55400020D01*
X170997272Y-55400014D01*
X170997266Y-55400007D01*
X170825392Y-55228133D01*
X170825384Y-55228126D01*
X170825380Y-55228122D01*
X170825370Y-55228114D01*
X170652030Y-55095104D01*
X170610163Y-55037766D01*
X170602734Y-54995142D01*
X170602734Y-54255657D01*
X170622736Y-54187536D01*
X170652030Y-54155695D01*
X170825371Y-54022685D01*
X170825371Y-54022684D01*
X170825380Y-54022678D01*
X170997278Y-53850780D01*
X171145269Y-53657916D01*
X171266819Y-53447384D01*
X171359850Y-53222788D01*
X171422769Y-52987971D01*
X171454500Y-52746950D01*
X171454500Y-52503850D01*
X171422769Y-52262829D01*
X171359850Y-52028012D01*
X171266819Y-51803416D01*
X171266813Y-51803407D01*
X171266812Y-51803403D01*
X171145271Y-51592887D01*
X171145267Y-51592881D01*
X170997285Y-51400028D01*
X170997266Y-51400007D01*
X170825392Y-51228133D01*
X170825371Y-51228114D01*
X170632518Y-51080132D01*
X170632512Y-51080128D01*
X170421996Y-50958587D01*
X170421988Y-50958583D01*
X170421984Y-50958581D01*
X170197388Y-50865550D01*
X169962571Y-50802631D01*
X169962569Y-50802630D01*
X169962563Y-50802629D01*
X169721552Y-50770900D01*
X169721550Y-50770900D01*
X169478450Y-50770900D01*
X169478447Y-50770900D01*
X169237436Y-50802629D01*
X169002612Y-50865550D01*
X168778014Y-50958582D01*
X168778003Y-50958587D01*
X168567487Y-51080128D01*
X168567481Y-51080132D01*
X168374628Y-51228114D01*
X168374607Y-51228133D01*
X168202733Y-51400007D01*
X168202714Y-51400028D01*
X168054732Y-51592881D01*
X168054728Y-51592887D01*
X167933187Y-51803403D01*
X167933182Y-51803414D01*
X167840150Y-52028012D01*
X167777229Y-52262836D01*
X167745500Y-52503847D01*
X167745500Y-52746952D01*
X167777229Y-52987963D01*
X167777230Y-52987969D01*
X167777231Y-52987971D01*
X167840150Y-53222788D01*
X167933181Y-53447384D01*
X167933182Y-53447385D01*
X167933187Y-53447396D01*
X168054728Y-53657912D01*
X168054732Y-53657918D01*
X168202714Y-53850771D01*
X168202733Y-53850792D01*
X168374607Y-54022666D01*
X168374628Y-54022685D01*
X168545838Y-54154059D01*
X168587705Y-54211397D01*
X168595134Y-54254021D01*
X168595134Y-54996778D01*
X168575132Y-55064899D01*
X168545838Y-55096740D01*
X168374628Y-55228114D01*
X168374607Y-55228133D01*
X168202733Y-55400007D01*
X168202714Y-55400029D01*
X168070522Y-55572304D01*
X168013184Y-55614171D01*
X167970560Y-55621600D01*
X161410165Y-55621600D01*
X161216235Y-55660175D01*
X161216230Y-55660177D01*
X161033556Y-55735844D01*
X160869149Y-55845697D01*
X160869143Y-55845702D01*
X160729336Y-55985509D01*
X160729331Y-55985515D01*
X160619478Y-56149922D01*
X160543811Y-56332596D01*
X160543809Y-56332601D01*
X160505234Y-56526531D01*
X160505234Y-83995600D01*
X160485232Y-84063721D01*
X160431576Y-84110214D01*
X160379234Y-84121600D01*
X148229440Y-84121600D01*
X148161319Y-84101598D01*
X148129478Y-84072304D01*
X147997285Y-83900029D01*
X147997284Y-83900028D01*
X147997278Y-83900020D01*
X147997272Y-83900014D01*
X147997266Y-83900007D01*
X147825392Y-83728133D01*
X147825371Y-83728114D01*
X147632518Y-83580132D01*
X147632512Y-83580128D01*
X147421996Y-83458587D01*
X147421988Y-83458583D01*
X147421984Y-83458581D01*
X147197388Y-83365550D01*
X146962571Y-83302631D01*
X146962569Y-83302630D01*
X146962563Y-83302629D01*
X146721552Y-83270900D01*
X146721550Y-83270900D01*
X146478450Y-83270900D01*
X146478447Y-83270900D01*
X146237436Y-83302629D01*
X146002612Y-83365550D01*
X145778014Y-83458582D01*
X145778003Y-83458587D01*
X145567487Y-83580128D01*
X145567481Y-83580132D01*
X145374628Y-83728114D01*
X145374607Y-83728133D01*
X145202733Y-83900007D01*
X145202714Y-83900029D01*
X145070522Y-84072304D01*
X145013184Y-84114171D01*
X144970560Y-84121600D01*
X137929801Y-84121600D01*
X137861680Y-84101598D01*
X137815187Y-84047942D01*
X137803801Y-83995600D01*
X137803801Y-79886522D01*
X137804330Y-79876631D01*
X137804320Y-79876631D01*
X137804498Y-79873277D01*
X137804501Y-79873255D01*
X137804500Y-77876746D01*
X137798041Y-77816658D01*
X137747343Y-77680733D01*
X137660405Y-77564596D01*
X137544268Y-77477658D01*
X137544266Y-77477657D01*
X137544267Y-77477657D01*
X137518522Y-77468055D01*
X137461686Y-77425509D01*
X137436876Y-77358988D01*
X137451968Y-77289614D01*
X137502170Y-77239412D01*
X137518518Y-77231945D01*
X137544268Y-77222342D01*
X137660405Y-77135404D01*
X137747343Y-77019267D01*
X137798041Y-76883342D01*
X137804501Y-76823255D01*
X137804501Y-76698677D01*
X138718500Y-76698677D01*
X138718500Y-79945322D01*
X138750691Y-80189843D01*
X138750693Y-80189850D01*
X138814528Y-80428086D01*
X138908913Y-80655952D01*
X138908914Y-80655953D01*
X138908919Y-80655963D01*
X139032230Y-80869543D01*
X139032233Y-80869548D01*
X139182378Y-81065221D01*
X139182382Y-81065225D01*
X139182387Y-81065231D01*
X139356768Y-81239612D01*
X139356773Y-81239616D01*
X139356779Y-81239622D01*
X139552452Y-81389767D01*
X139766048Y-81513087D01*
X139993914Y-81607472D01*
X140232150Y-81671307D01*
X140232154Y-81671307D01*
X140232156Y-81671308D01*
X140295176Y-81679604D01*
X140476680Y-81703500D01*
X140476687Y-81703500D01*
X152723313Y-81703500D01*
X152723320Y-81703500D01*
X152944315Y-81674405D01*
X152967843Y-81671308D01*
X152967843Y-81671307D01*
X152967850Y-81671307D01*
X153206086Y-81607472D01*
X153433952Y-81513087D01*
X153647548Y-81389767D01*
X153843221Y-81239622D01*
X154017622Y-81065221D01*
X154167767Y-80869548D01*
X154291087Y-80655952D01*
X154385472Y-80428086D01*
X154449307Y-80189850D01*
X154481500Y-79945320D01*
X154481500Y-79822000D01*
X154481500Y-79767149D01*
X154481500Y-76771775D01*
X154481500Y-76698680D01*
X154449307Y-76454150D01*
X154385472Y-76215914D01*
X154291087Y-75988048D01*
X154167767Y-75774452D01*
X154017622Y-75578779D01*
X154017616Y-75578773D01*
X154017612Y-75578768D01*
X153843231Y-75404387D01*
X153843225Y-75404382D01*
X153843221Y-75404378D01*
X153647548Y-75254233D01*
X153647543Y-75254230D01*
X153433963Y-75130919D01*
X153433958Y-75130916D01*
X153433952Y-75130913D01*
X153206086Y-75036528D01*
X152967850Y-74972693D01*
X152967843Y-74972691D01*
X152723322Y-74940500D01*
X152723320Y-74940500D01*
X152650225Y-74940500D01*
X140654851Y-74940500D01*
X140600000Y-74940500D01*
X140476680Y-74940500D01*
X140476677Y-74940500D01*
X140232156Y-74972691D01*
X139993914Y-75036528D01*
X139766046Y-75130914D01*
X139766036Y-75130919D01*
X139552456Y-75254230D01*
X139356779Y-75404378D01*
X139356768Y-75404387D01*
X139182387Y-75578768D01*
X139182378Y-75578779D01*
X139032230Y-75774456D01*
X138908919Y-75988036D01*
X138908914Y-75988046D01*
X138814528Y-76215914D01*
X138750691Y-76454156D01*
X138718500Y-76698677D01*
X137804501Y-76698677D01*
X137804500Y-76454156D01*
X137804500Y-76176753D01*
X137804500Y-76176746D01*
X137798041Y-76116658D01*
X137747343Y-75980733D01*
X137660405Y-75864596D01*
X137544268Y-75777658D01*
X137544265Y-75777656D01*
X137494954Y-75759264D01*
X137449893Y-75730304D01*
X137439891Y-75720302D01*
X137439885Y-75720297D01*
X137385332Y-75683845D01*
X137275479Y-75610444D01*
X137092799Y-75534775D01*
X136898869Y-75496200D01*
X136898867Y-75496200D01*
X133098867Y-75496200D01*
X132901135Y-75496200D01*
X132901132Y-75496200D01*
X132707202Y-75534775D01*
X132707197Y-75534777D01*
X132524523Y-75610444D01*
X132360116Y-75720297D01*
X132360110Y-75720302D01*
X132220303Y-75860109D01*
X132220298Y-75860115D01*
X132110445Y-76024522D01*
X132034778Y-76207196D01*
X132034776Y-76207201D01*
X131996201Y-76401131D01*
X131996201Y-115995600D01*
X131976199Y-116063721D01*
X131922543Y-116110214D01*
X131870201Y-116121600D01*
X123501131Y-116121600D01*
X123307201Y-116160175D01*
X123307196Y-116160177D01*
X123124522Y-116235844D01*
X122960115Y-116345697D01*
X122960109Y-116345702D01*
X122820302Y-116485509D01*
X122820297Y-116485515D01*
X122710444Y-116649922D01*
X122634777Y-116832596D01*
X122634775Y-116832601D01*
X122596200Y-117026531D01*
X122596200Y-124604212D01*
X122595734Y-124613705D01*
X122595734Y-124996317D01*
X122575732Y-125064438D01*
X122546439Y-125096279D01*
X122374622Y-125228120D01*
X122374607Y-125228133D01*
X122202733Y-125400007D01*
X122202714Y-125400029D01*
X122070522Y-125572304D01*
X122013184Y-125614171D01*
X121970560Y-125621600D01*
X110729800Y-125621600D01*
X110661679Y-125601598D01*
X110615186Y-125547942D01*
X110603800Y-125495600D01*
X110603800Y-114486922D01*
X110604329Y-114477031D01*
X110604319Y-114477031D01*
X110604497Y-114473677D01*
X110604500Y-114473655D01*
X110604499Y-112477146D01*
X110598040Y-112417058D01*
X110547342Y-112281133D01*
X110460404Y-112164996D01*
X110344267Y-112078058D01*
X110344265Y-112078057D01*
X110318518Y-112068453D01*
X110261684Y-112025905D01*
X110236875Y-111959384D01*
X110251968Y-111890010D01*
X110302172Y-111839810D01*
X110318503Y-111832351D01*
X110344267Y-111822742D01*
X110460404Y-111735804D01*
X110547342Y-111619667D01*
X110598040Y-111483742D01*
X110604500Y-111423655D01*
X110604499Y-110777146D01*
X110604498Y-110777139D01*
X110604318Y-110773775D01*
X110604329Y-110773774D01*
X110603800Y-110763890D01*
X110603800Y-95755200D01*
X110623802Y-95687079D01*
X110677458Y-95640586D01*
X110729800Y-95629200D01*
X121970560Y-95629200D01*
X122038681Y-95649202D01*
X122070522Y-95678496D01*
X122129380Y-95755200D01*
X122202722Y-95850780D01*
X122202726Y-95850784D01*
X122202733Y-95850792D01*
X122374607Y-96022666D01*
X122374628Y-96022685D01*
X122546904Y-96154877D01*
X122588771Y-96212215D01*
X122596200Y-96254839D01*
X122596200Y-96995960D01*
X122576198Y-97064081D01*
X122546904Y-97095922D01*
X122374629Y-97228114D01*
X122374607Y-97228133D01*
X122202733Y-97400007D01*
X122202714Y-97400028D01*
X122054732Y-97592881D01*
X122054728Y-97592887D01*
X121933187Y-97803403D01*
X121933182Y-97803414D01*
X121840150Y-98028012D01*
X121777229Y-98262836D01*
X121745500Y-98503847D01*
X121745500Y-98746952D01*
X121777229Y-98987963D01*
X121777230Y-98987969D01*
X121777231Y-98987971D01*
X121840150Y-99222788D01*
X121933181Y-99447384D01*
X121933182Y-99447385D01*
X121933187Y-99447396D01*
X122054728Y-99657912D01*
X122054732Y-99657918D01*
X122202714Y-99850771D01*
X122202733Y-99850792D01*
X122374607Y-100022666D01*
X122374628Y-100022685D01*
X122567481Y-100170667D01*
X122567487Y-100170671D01*
X122778003Y-100292212D01*
X122778007Y-100292213D01*
X122778016Y-100292219D01*
X123002612Y-100385250D01*
X123237429Y-100448169D01*
X123237435Y-100448169D01*
X123237436Y-100448170D01*
X123265093Y-100451811D01*
X123478450Y-100479900D01*
X123478457Y-100479900D01*
X123721543Y-100479900D01*
X123721550Y-100479900D01*
X123962571Y-100448169D01*
X124197388Y-100385250D01*
X124421984Y-100292219D01*
X124632516Y-100170669D01*
X124825380Y-100022678D01*
X124997278Y-99850780D01*
X125145269Y-99657916D01*
X125266819Y-99447384D01*
X125359850Y-99222788D01*
X125422769Y-98987971D01*
X125454500Y-98746950D01*
X125454500Y-98503850D01*
X125422769Y-98262829D01*
X125359850Y-98028012D01*
X125266819Y-97803416D01*
X125266813Y-97803407D01*
X125266812Y-97803403D01*
X125145271Y-97592887D01*
X125145267Y-97592881D01*
X124997285Y-97400028D01*
X124997266Y-97400007D01*
X124825392Y-97228133D01*
X124825384Y-97228126D01*
X124825380Y-97228122D01*
X124825370Y-97228114D01*
X124653096Y-97095922D01*
X124611229Y-97038584D01*
X124603800Y-96995960D01*
X124603800Y-96254839D01*
X124623802Y-96186718D01*
X124653096Y-96154877D01*
X124825371Y-96022685D01*
X124825371Y-96022684D01*
X124825380Y-96022678D01*
X124997278Y-95850780D01*
X125145269Y-95657916D01*
X125266819Y-95447384D01*
X125359850Y-95222788D01*
X125422769Y-94987971D01*
X125454500Y-94746950D01*
X125454500Y-94503850D01*
X125422769Y-94262829D01*
X125359850Y-94028012D01*
X125266819Y-93803416D01*
X125266813Y-93803407D01*
X125266812Y-93803403D01*
X125145271Y-93592887D01*
X125145267Y-93592881D01*
X124997285Y-93400028D01*
X124997266Y-93400007D01*
X124825392Y-93228133D01*
X124825384Y-93228126D01*
X124825380Y-93228122D01*
X124825370Y-93228114D01*
X124653096Y-93095922D01*
X124611229Y-93038584D01*
X124603800Y-92995960D01*
X124603800Y-90254839D01*
X124623802Y-90186718D01*
X124653096Y-90154877D01*
X124825371Y-90022685D01*
X124825371Y-90022684D01*
X124825380Y-90022678D01*
X124997278Y-89850780D01*
X125145269Y-89657916D01*
X125266819Y-89447384D01*
X125359850Y-89222788D01*
X125422769Y-88987971D01*
X125454500Y-88746950D01*
X125454500Y-88503850D01*
X125422769Y-88262829D01*
X125359850Y-88028012D01*
X125266819Y-87803416D01*
X125266813Y-87803407D01*
X125266812Y-87803403D01*
X125145271Y-87592887D01*
X125145267Y-87592881D01*
X124997285Y-87400028D01*
X124997266Y-87400007D01*
X124825392Y-87228133D01*
X124825384Y-87228126D01*
X124825380Y-87228122D01*
X124825370Y-87228114D01*
X124653096Y-87095922D01*
X124611229Y-87038584D01*
X124603800Y-86995960D01*
X124603800Y-86254839D01*
X124623802Y-86186718D01*
X124653096Y-86154877D01*
X124825371Y-86022685D01*
X124825371Y-86022684D01*
X124825380Y-86022678D01*
X124997278Y-85850780D01*
X125145269Y-85657916D01*
X125266819Y-85447384D01*
X125359850Y-85222788D01*
X125422769Y-84987971D01*
X125454500Y-84746950D01*
X125454500Y-84503850D01*
X125422769Y-84262829D01*
X125359850Y-84028012D01*
X125266819Y-83803416D01*
X125266813Y-83803407D01*
X125266812Y-83803403D01*
X125145271Y-83592887D01*
X125145267Y-83592881D01*
X124997285Y-83400028D01*
X124997266Y-83400007D01*
X124825392Y-83228133D01*
X124825371Y-83228114D01*
X124632518Y-83080132D01*
X124632512Y-83080128D01*
X124421996Y-82958587D01*
X124421988Y-82958583D01*
X124421984Y-82958581D01*
X124197388Y-82865550D01*
X123962571Y-82802631D01*
X123962569Y-82802630D01*
X123962563Y-82802629D01*
X123721552Y-82770900D01*
X123721550Y-82770900D01*
X123478450Y-82770900D01*
X123478447Y-82770900D01*
X123237436Y-82802629D01*
X123002612Y-82865550D01*
X122778014Y-82958582D01*
X122778003Y-82958587D01*
X122567487Y-83080128D01*
X122567481Y-83080132D01*
X122374628Y-83228114D01*
X122374607Y-83228133D01*
X122202733Y-83400007D01*
X122202714Y-83400028D01*
X122054732Y-83592881D01*
X122054728Y-83592887D01*
X121933187Y-83803403D01*
X121933182Y-83803414D01*
X121933181Y-83803416D01*
X121853576Y-83995600D01*
X121840150Y-84028012D01*
X121777229Y-84262836D01*
X121745500Y-84503847D01*
X121745500Y-84746952D01*
X121777229Y-84987963D01*
X121777230Y-84987969D01*
X121777231Y-84987971D01*
X121840150Y-85222788D01*
X121933181Y-85447384D01*
X121933182Y-85447385D01*
X121933187Y-85447396D01*
X122054728Y-85657912D01*
X122054732Y-85657918D01*
X122202714Y-85850771D01*
X122202733Y-85850792D01*
X122374607Y-86022666D01*
X122374628Y-86022685D01*
X122546904Y-86154877D01*
X122588771Y-86212215D01*
X122596200Y-86254839D01*
X122596200Y-86995960D01*
X122576198Y-87064081D01*
X122546904Y-87095922D01*
X122374629Y-87228114D01*
X122374607Y-87228133D01*
X122202733Y-87400007D01*
X122202714Y-87400029D01*
X122070522Y-87572304D01*
X122013184Y-87614171D01*
X121970560Y-87621600D01*
X110729800Y-87621600D01*
X110661679Y-87601598D01*
X110615186Y-87547942D01*
X110603800Y-87495600D01*
X110603800Y-72486922D01*
X110604329Y-72477031D01*
X110604319Y-72477031D01*
X110604497Y-72473677D01*
X110604500Y-72473655D01*
X110604499Y-70477146D01*
X110598040Y-70417058D01*
X110547342Y-70281133D01*
X110460404Y-70164996D01*
X110344267Y-70078058D01*
X110344265Y-70078057D01*
X110344266Y-70078057D01*
X110208349Y-70027362D01*
X110208344Y-70027360D01*
X110208342Y-70027360D01*
X110178298Y-70024130D01*
X110148256Y-70020900D01*
X109051753Y-70020900D01*
X109051729Y-70020902D01*
X108991660Y-70027359D01*
X108991658Y-70027359D01*
X108855733Y-70078057D01*
X108739596Y-70164996D01*
X108652657Y-70281134D01*
X108601962Y-70417050D01*
X108601960Y-70417058D01*
X108595500Y-70477137D01*
X105981500Y-70477137D01*
X105981500Y-50894367D01*
X106001502Y-50826246D01*
X106055158Y-50779753D01*
X106099585Y-50768616D01*
X106483313Y-50744475D01*
X106483321Y-50744474D01*
X106483323Y-50744474D01*
X106634139Y-50725421D01*
X107068314Y-50670572D01*
X107647521Y-50560083D01*
X107647534Y-50560079D01*
X107647539Y-50560079D01*
X108028271Y-50462322D01*
X108218647Y-50413442D01*
X108218658Y-50413438D01*
X108218663Y-50413437D01*
X108496340Y-50323214D01*
X108779438Y-50231230D01*
X109327682Y-50014165D01*
X109861214Y-49763104D01*
X110200323Y-49576677D01*
X140718500Y-49576677D01*
X140718500Y-65823322D01*
X140750691Y-66067843D01*
X140750693Y-66067850D01*
X140814528Y-66306086D01*
X140908913Y-66533952D01*
X140908914Y-66533953D01*
X140908919Y-66533963D01*
X141032230Y-66747543D01*
X141032233Y-66747548D01*
X141182378Y-66943221D01*
X141182382Y-66943225D01*
X141182387Y-66943231D01*
X141356768Y-67117612D01*
X141356773Y-67117616D01*
X141356779Y-67117622D01*
X141552452Y-67267767D01*
X141766048Y-67391087D01*
X141993914Y-67485472D01*
X142232150Y-67549307D01*
X142232154Y-67549307D01*
X142232156Y-67549308D01*
X142295176Y-67557604D01*
X142476680Y-67581500D01*
X142476687Y-67581500D01*
X150723313Y-67581500D01*
X150723320Y-67581500D01*
X150944315Y-67552405D01*
X150967843Y-67549308D01*
X150967843Y-67549307D01*
X150967850Y-67549307D01*
X151206086Y-67485472D01*
X151433952Y-67391087D01*
X151647548Y-67267767D01*
X151843221Y-67117622D01*
X152017622Y-66943221D01*
X152167767Y-66747548D01*
X152291087Y-66533952D01*
X152385472Y-66306086D01*
X152449307Y-66067850D01*
X152481500Y-65823320D01*
X152481500Y-65700000D01*
X152481500Y-65645149D01*
X152481500Y-49649775D01*
X152481500Y-49576680D01*
X152449307Y-49332150D01*
X152385472Y-49093914D01*
X152291087Y-48866048D01*
X152167767Y-48652452D01*
X152017622Y-48456779D01*
X152017616Y-48456773D01*
X152017612Y-48456768D01*
X151843231Y-48282387D01*
X151843225Y-48282382D01*
X151843221Y-48282378D01*
X151647548Y-48132233D01*
X151482595Y-48036997D01*
X151433963Y-48008919D01*
X151433958Y-48008916D01*
X151433952Y-48008913D01*
X151206086Y-47914528D01*
X150967850Y-47850693D01*
X150967843Y-47850691D01*
X150723322Y-47818500D01*
X150723320Y-47818500D01*
X150650225Y-47818500D01*
X142654851Y-47818500D01*
X142600000Y-47818500D01*
X142476680Y-47818500D01*
X142476677Y-47818500D01*
X142232156Y-47850691D01*
X141993914Y-47914528D01*
X141766046Y-48008914D01*
X141766036Y-48008919D01*
X141552456Y-48132230D01*
X141356779Y-48282378D01*
X141356768Y-48282387D01*
X141182387Y-48456768D01*
X141182378Y-48456779D01*
X141032230Y-48652456D01*
X140908919Y-48866036D01*
X140908914Y-48866046D01*
X140814528Y-49093914D01*
X140750691Y-49332156D01*
X140718500Y-49576677D01*
X110200323Y-49576677D01*
X110377929Y-49479037D01*
X110386720Y-49473457D01*
X110398205Y-49466170D01*
X110609377Y-49332156D01*
X110875788Y-49163087D01*
X111352826Y-48816498D01*
X111807160Y-48440641D01*
X112236997Y-48036997D01*
X112640641Y-47607160D01*
X113016498Y-47152826D01*
X113363087Y-46675788D01*
X113679037Y-46177929D01*
X113963104Y-45661214D01*
X114214165Y-45127682D01*
X114431230Y-44579438D01*
X114613442Y-44018647D01*
X114713068Y-43630632D01*
X114760079Y-43447539D01*
X114760080Y-43447531D01*
X114760083Y-43447521D01*
X114870572Y-42868314D01*
X114944475Y-42283313D01*
X114968617Y-41899586D01*
X114992857Y-41832858D01*
X115049326Y-41789826D01*
X115094368Y-41781500D01*
X178105632Y-41781500D01*
X178173753Y-41801502D01*
G37*
%TD.AperFunction*%
%TD*%
M02*
