%TF.GenerationSoftware,KiCad,Pcbnew,9.0.7*%
%TF.CreationDate,2026-02-06T15:52:50-05:00*%
%TF.ProjectId,LightSensorBreakout,4c696768-7453-4656-9e73-6f7242726561,rev?*%
%TF.SameCoordinates,Original*%
%TF.FileFunction,Legend,Bot*%
%TF.FilePolarity,Positive*%
%FSLAX46Y46*%
G04 Gerber Fmt 4.6, Leading zero omitted, Abs format (unit mm)*
G04 Created by KiCad (PCBNEW 9.0.7) date 2026-02-06 15:52:50*
%MOMM*%
%LPD*%
G01*
G04 APERTURE LIST*
%ADD10C,0.127000*%
G04 APERTURE END LIST*
D10*
X114859405Y-98105730D02*
X114557024Y-98105730D01*
X114919881Y-98287159D02*
X114708215Y-97652159D01*
X114708215Y-97652159D02*
X114496548Y-98287159D01*
X113922024Y-98287159D02*
X114133691Y-97984778D01*
X114284881Y-98287159D02*
X114284881Y-97652159D01*
X114284881Y-97652159D02*
X114042976Y-97652159D01*
X114042976Y-97652159D02*
X113982500Y-97682397D01*
X113982500Y-97682397D02*
X113952262Y-97712635D01*
X113952262Y-97712635D02*
X113922024Y-97773111D01*
X113922024Y-97773111D02*
X113922024Y-97863825D01*
X113922024Y-97863825D02*
X113952262Y-97924301D01*
X113952262Y-97924301D02*
X113982500Y-97954540D01*
X113982500Y-97954540D02*
X114042976Y-97984778D01*
X114042976Y-97984778D02*
X114284881Y-97984778D01*
X113317262Y-97682397D02*
X113377738Y-97652159D01*
X113377738Y-97652159D02*
X113468452Y-97652159D01*
X113468452Y-97652159D02*
X113559167Y-97682397D01*
X113559167Y-97682397D02*
X113619643Y-97742873D01*
X113619643Y-97742873D02*
X113649881Y-97803349D01*
X113649881Y-97803349D02*
X113680119Y-97924301D01*
X113680119Y-97924301D02*
X113680119Y-98015016D01*
X113680119Y-98015016D02*
X113649881Y-98135968D01*
X113649881Y-98135968D02*
X113619643Y-98196444D01*
X113619643Y-98196444D02*
X113559167Y-98256921D01*
X113559167Y-98256921D02*
X113468452Y-98287159D01*
X113468452Y-98287159D02*
X113407976Y-98287159D01*
X113407976Y-98287159D02*
X113317262Y-98256921D01*
X113317262Y-98256921D02*
X113287024Y-98226682D01*
X113287024Y-98226682D02*
X113287024Y-98015016D01*
X113287024Y-98015016D02*
X113407976Y-98015016D01*
X113014881Y-97652159D02*
X113014881Y-98166206D01*
X113014881Y-98166206D02*
X112984643Y-98226682D01*
X112984643Y-98226682D02*
X112954405Y-98256921D01*
X112954405Y-98256921D02*
X112893929Y-98287159D01*
X112893929Y-98287159D02*
X112772976Y-98287159D01*
X112772976Y-98287159D02*
X112712500Y-98256921D01*
X112712500Y-98256921D02*
X112682262Y-98226682D01*
X112682262Y-98226682D02*
X112652024Y-98166206D01*
X112652024Y-98166206D02*
X112652024Y-97652159D01*
X112379881Y-98256921D02*
X112289167Y-98287159D01*
X112289167Y-98287159D02*
X112137976Y-98287159D01*
X112137976Y-98287159D02*
X112077500Y-98256921D01*
X112077500Y-98256921D02*
X112047262Y-98226682D01*
X112047262Y-98226682D02*
X112017024Y-98166206D01*
X112017024Y-98166206D02*
X112017024Y-98105730D01*
X112017024Y-98105730D02*
X112047262Y-98045254D01*
X112047262Y-98045254D02*
X112077500Y-98015016D01*
X112077500Y-98015016D02*
X112137976Y-97984778D01*
X112137976Y-97984778D02*
X112258929Y-97954540D01*
X112258929Y-97954540D02*
X112319405Y-97924301D01*
X112319405Y-97924301D02*
X112349643Y-97894063D01*
X112349643Y-97894063D02*
X112379881Y-97833587D01*
X112379881Y-97833587D02*
X112379881Y-97773111D01*
X112379881Y-97773111D02*
X112349643Y-97712635D01*
X112349643Y-97712635D02*
X112319405Y-97682397D01*
X112319405Y-97682397D02*
X112258929Y-97652159D01*
X112258929Y-97652159D02*
X112107738Y-97652159D01*
X112107738Y-97652159D02*
X112017024Y-97682397D01*
X110898214Y-98226682D02*
X110928452Y-98256921D01*
X110928452Y-98256921D02*
X111019166Y-98287159D01*
X111019166Y-98287159D02*
X111079642Y-98287159D01*
X111079642Y-98287159D02*
X111170357Y-98256921D01*
X111170357Y-98256921D02*
X111230833Y-98196444D01*
X111230833Y-98196444D02*
X111261071Y-98135968D01*
X111261071Y-98135968D02*
X111291309Y-98015016D01*
X111291309Y-98015016D02*
X111291309Y-97924301D01*
X111291309Y-97924301D02*
X111261071Y-97803349D01*
X111261071Y-97803349D02*
X111230833Y-97742873D01*
X111230833Y-97742873D02*
X111170357Y-97682397D01*
X111170357Y-97682397D02*
X111079642Y-97652159D01*
X111079642Y-97652159D02*
X111019166Y-97652159D01*
X111019166Y-97652159D02*
X110928452Y-97682397D01*
X110928452Y-97682397D02*
X110898214Y-97712635D01*
X110626071Y-97652159D02*
X110626071Y-98166206D01*
X110626071Y-98166206D02*
X110595833Y-98226682D01*
X110595833Y-98226682D02*
X110565595Y-98256921D01*
X110565595Y-98256921D02*
X110505119Y-98287159D01*
X110505119Y-98287159D02*
X110384166Y-98287159D01*
X110384166Y-98287159D02*
X110323690Y-98256921D01*
X110323690Y-98256921D02*
X110293452Y-98226682D01*
X110293452Y-98226682D02*
X110263214Y-98166206D01*
X110263214Y-98166206D02*
X110263214Y-97652159D01*
X109749166Y-97954540D02*
X109658452Y-97984778D01*
X109658452Y-97984778D02*
X109628214Y-98015016D01*
X109628214Y-98015016D02*
X109597976Y-98075492D01*
X109597976Y-98075492D02*
X109597976Y-98166206D01*
X109597976Y-98166206D02*
X109628214Y-98226682D01*
X109628214Y-98226682D02*
X109658452Y-98256921D01*
X109658452Y-98256921D02*
X109718928Y-98287159D01*
X109718928Y-98287159D02*
X109960833Y-98287159D01*
X109960833Y-98287159D02*
X109960833Y-97652159D01*
X109960833Y-97652159D02*
X109749166Y-97652159D01*
X109749166Y-97652159D02*
X109688690Y-97682397D01*
X109688690Y-97682397D02*
X109658452Y-97712635D01*
X109658452Y-97712635D02*
X109628214Y-97773111D01*
X109628214Y-97773111D02*
X109628214Y-97833587D01*
X109628214Y-97833587D02*
X109658452Y-97894063D01*
X109658452Y-97894063D02*
X109688690Y-97924301D01*
X109688690Y-97924301D02*
X109749166Y-97954540D01*
X109749166Y-97954540D02*
X109960833Y-97954540D01*
X109325833Y-97954540D02*
X109114166Y-97954540D01*
X109023452Y-98287159D02*
X109325833Y-98287159D01*
X109325833Y-98287159D02*
X109325833Y-97652159D01*
X109325833Y-97652159D02*
X109023452Y-97652159D01*
X108781547Y-98256921D02*
X108690833Y-98287159D01*
X108690833Y-98287159D02*
X108539642Y-98287159D01*
X108539642Y-98287159D02*
X108479166Y-98256921D01*
X108479166Y-98256921D02*
X108448928Y-98226682D01*
X108448928Y-98226682D02*
X108418690Y-98166206D01*
X108418690Y-98166206D02*
X108418690Y-98105730D01*
X108418690Y-98105730D02*
X108448928Y-98045254D01*
X108448928Y-98045254D02*
X108479166Y-98015016D01*
X108479166Y-98015016D02*
X108539642Y-97984778D01*
X108539642Y-97984778D02*
X108660595Y-97954540D01*
X108660595Y-97954540D02*
X108721071Y-97924301D01*
X108721071Y-97924301D02*
X108751309Y-97894063D01*
X108751309Y-97894063D02*
X108781547Y-97833587D01*
X108781547Y-97833587D02*
X108781547Y-97773111D01*
X108781547Y-97773111D02*
X108751309Y-97712635D01*
X108751309Y-97712635D02*
X108721071Y-97682397D01*
X108721071Y-97682397D02*
X108660595Y-97652159D01*
X108660595Y-97652159D02*
X108509404Y-97652159D01*
X108509404Y-97652159D02*
X108418690Y-97682397D01*
X108176785Y-98105730D02*
X107874404Y-98105730D01*
X108237261Y-98287159D02*
X108025595Y-97652159D01*
X108025595Y-97652159D02*
X107813928Y-98287159D01*
X107692975Y-97652159D02*
X107330118Y-97652159D01*
X107511547Y-98287159D02*
X107511547Y-97652159D01*
M02*
