%TF.GenerationSoftware,KiCad,Pcbnew,9.0.7*%
%TF.CreationDate,2026-02-06T15:52:50-05:00*%
%TF.ProjectId,LightSensorBreakout,4c696768-7453-4656-9e73-6f7242726561,rev?*%
%TF.SameCoordinates,Original*%
%TF.FileFunction,Copper,L1,Top*%
%TF.FilePolarity,Positive*%
%FSLAX46Y46*%
G04 Gerber Fmt 4.6, Leading zero omitted, Abs format (unit mm)*
G04 Created by KiCad (PCBNEW 9.0.7) date 2026-02-06 15:52:50*
%MOMM*%
%LPD*%
G01*
G04 APERTURE LIST*
%TA.AperFunction,SMDPad,CuDef*%
%ADD10R,1.500000X1.000000*%
%TD*%
%TA.AperFunction,SMDPad,CuDef*%
%ADD11R,0.660400X0.254000*%
%TD*%
%TA.AperFunction,SMDPad,CuDef*%
%ADD12R,0.762000X1.447800*%
%TD*%
%TA.AperFunction,ViaPad*%
%ADD13C,0.609600*%
%TD*%
%TA.AperFunction,Conductor*%
%ADD14C,0.200000*%
%TD*%
G04 APERTURE END LIST*
D10*
%TO.P,H2,1,1*%
%TO.N,/SCL*%
X107000000Y-99500000D03*
%TD*%
%TO.P,H3,1,1*%
%TO.N,/VDD*%
X119000000Y-99500000D03*
%TD*%
%TO.P,H1,1,1*%
%TO.N,/SDA*%
X103000000Y-99500000D03*
%TD*%
%TO.P,H5,1,1*%
%TO.N,/GND*%
X115000000Y-99500000D03*
%TD*%
D11*
%TO.P,U1,1,VDD*%
%TO.N,/VDD*%
X109971300Y-96700002D03*
%TO.P,U1,2,ADDR*%
%TO.N,/ADDR*%
X109971300Y-97350001D03*
%TO.P,U1,3,GND*%
%TO.N,/GND*%
X109971300Y-98000000D03*
%TO.P,U1,4,SCL*%
%TO.N,/SCL*%
X112028700Y-98000000D03*
%TO.P,U1,5,INT*%
%TO.N,unconnected-(U1-INT-Pad5)*%
X112028700Y-97350001D03*
%TO.P,U1,6,SDA*%
%TO.N,/SDA*%
X112028700Y-96700002D03*
D12*
%TO.P,U1,7,EPAD*%
%TO.N,/GND*%
X111000000Y-97350001D03*
%TD*%
D10*
%TO.P,H4,1,1*%
%TO.N,/ADDR*%
X111000000Y-99500000D03*
%TD*%
D13*
%TO.N,/VDD*%
X119000000Y-98480000D03*
X108239079Y-96939079D03*
%TO.N,/SDA*%
X113530000Y-97320000D03*
X103000000Y-98390000D03*
%TO.N,/SCL*%
X108250000Y-98750000D03*
X112990000Y-98000000D03*
%TD*%
D14*
%TO.N,/VDD*%
X119000000Y-98480000D02*
X119000000Y-99400000D01*
X108478156Y-96700002D02*
X109971300Y-96700002D01*
X108239079Y-96939079D02*
X108478156Y-96700002D01*
%TO.N,/SDA*%
X113530000Y-97320000D02*
X112910002Y-96700002D01*
X112910002Y-96700002D02*
X112028700Y-96700002D01*
X103000000Y-98390000D02*
X103000000Y-99400000D01*
%TO.N,/SCL*%
X112990000Y-98000000D02*
X112028700Y-98000000D01*
X107600000Y-99400000D02*
X107000000Y-99400000D01*
X108250000Y-98750000D02*
X107600000Y-99400000D01*
%TO.N,/ADDR*%
X109369999Y-97350001D02*
X109000000Y-97720000D01*
X109000000Y-98990000D02*
X109410000Y-99400000D01*
X109410000Y-99400000D02*
X111000000Y-99400000D01*
X109000000Y-97720000D02*
X109000000Y-98990000D01*
X109971300Y-97350001D02*
X109369999Y-97350001D01*
%TO.N,/GND*%
X111386099Y-98660000D02*
X114260000Y-98660000D01*
X111000000Y-98273901D02*
X111386099Y-98660000D01*
X109971300Y-98000000D02*
X110350001Y-98000000D01*
X110350001Y-98000000D02*
X111000000Y-97350001D01*
X114260000Y-98660000D02*
X115000000Y-99400000D01*
X111000000Y-97350001D02*
X111000000Y-98273901D01*
%TD*%
M02*
